G04*
G04 #@! TF.GenerationSoftware,Altium Limited,Altium Designer,26.2.0 (7)*
G04*
G04 Layer_Color=65535*
%FSLAX44Y44*%
%MOMM*%
G71*
G04*
G04 #@! TF.SameCoordinates,D5DFED66-1DDD-4205-BACF-39BFCEB3ABE1*
G04*
G04*
G04 #@! TF.FilePolarity,Positive*
G04*
G01*
G75*
%ADD10C,0.2540*%
%ADD11C,0.2000*%
%ADD12C,0.1000*%
%ADD13C,0.1500*%
%ADD14C,0.1270*%
G36*
X667522Y80050D02*
X667619Y80036D01*
X667882Y80009D01*
X668173Y79953D01*
X668506Y79870D01*
X668839Y79759D01*
X669172Y79606D01*
X669186D01*
X669213Y79592D01*
X669255Y79565D01*
X669324Y79523D01*
X669477Y79426D01*
X669671Y79287D01*
X669893Y79107D01*
X670115Y78899D01*
X670337Y78663D01*
X670531Y78386D01*
Y78372D01*
X670545Y78358D01*
X670573Y78303D01*
X670600Y78247D01*
X670642Y78178D01*
X670684Y78095D01*
X670767Y77887D01*
X670850Y77637D01*
X670933Y77360D01*
X670989Y77055D01*
X671002Y76736D01*
Y76722D01*
Y76694D01*
Y76652D01*
Y76597D01*
X670975Y76431D01*
X670947Y76236D01*
X670891Y76001D01*
X670808Y75751D01*
X670697Y75487D01*
X670545Y75224D01*
Y75210D01*
X670531Y75196D01*
X670462Y75113D01*
X670365Y74988D01*
X670212Y74836D01*
X670032Y74655D01*
X669796Y74475D01*
X669532Y74309D01*
X669227Y74142D01*
X669241D01*
X669283Y74128D01*
X669338Y74114D01*
X669421Y74087D01*
X669505Y74059D01*
X669616Y74017D01*
X669879Y73906D01*
X670156Y73754D01*
X670448Y73574D01*
X670739Y73338D01*
X670989Y73047D01*
X671002Y73033D01*
X671016Y73005D01*
X671044Y72963D01*
X671086Y72894D01*
X671141Y72825D01*
X671197Y72728D01*
X671252Y72617D01*
X671308Y72478D01*
X671363Y72339D01*
X671419Y72187D01*
X671529Y71840D01*
X671599Y71438D01*
X671627Y71216D01*
Y70994D01*
Y70980D01*
Y70925D01*
X671613Y70828D01*
Y70717D01*
X671585Y70564D01*
X671557Y70398D01*
X671529Y70217D01*
X671474Y70009D01*
X671405Y69788D01*
X671321Y69566D01*
X671224Y69330D01*
X671099Y69094D01*
X670961Y68844D01*
X670794Y68609D01*
X670614Y68373D01*
X670392Y68151D01*
X670378Y68137D01*
X670337Y68096D01*
X670267Y68040D01*
X670170Y67971D01*
X670059Y67888D01*
X669907Y67790D01*
X669740Y67680D01*
X669546Y67583D01*
X669338Y67471D01*
X669102Y67361D01*
X668853Y67263D01*
X668576Y67180D01*
X668284Y67111D01*
X667979Y67056D01*
X667660Y67014D01*
X667313Y67000D01*
X667244D01*
X667147Y67014D01*
X667036D01*
X666883Y67028D01*
X666717Y67056D01*
X666537Y67083D01*
X666329Y67125D01*
X666107Y67180D01*
X665885Y67250D01*
X665649Y67319D01*
X665414Y67416D01*
X665178Y67541D01*
X664956Y67666D01*
X664720Y67818D01*
X664512Y67998D01*
X664498Y68012D01*
X664470Y68040D01*
X664415Y68096D01*
X664332Y68179D01*
X664249Y68276D01*
X664152Y68401D01*
X664054Y68539D01*
X663943Y68706D01*
X663832Y68872D01*
X663721Y69080D01*
X663611Y69288D01*
X663513Y69524D01*
X663430Y69774D01*
X663347Y70037D01*
X663292Y70314D01*
X663250Y70606D01*
X664817Y70814D01*
Y70800D01*
X664831Y70758D01*
X664845Y70689D01*
X664873Y70592D01*
X664900Y70481D01*
X664928Y70356D01*
X665025Y70065D01*
X665150Y69746D01*
X665303Y69427D01*
X665497Y69136D01*
X665608Y69011D01*
X665719Y68886D01*
X665732D01*
X665746Y68858D01*
X665788Y68831D01*
X665829Y68789D01*
X665968Y68706D01*
X666162Y68595D01*
X666398Y68484D01*
X666662Y68401D01*
X666981Y68331D01*
X667313Y68304D01*
X667424D01*
X667508Y68317D01*
X667591Y68331D01*
X667716Y68345D01*
X667965Y68401D01*
X668270Y68484D01*
X668589Y68623D01*
X668742Y68720D01*
X668894Y68817D01*
X669047Y68928D01*
X669200Y69066D01*
X669213Y69080D01*
X669227Y69108D01*
X669269Y69150D01*
X669324Y69205D01*
X669380Y69274D01*
X669435Y69372D01*
X669505Y69469D01*
X669588Y69593D01*
X669726Y69871D01*
X669837Y70190D01*
X669935Y70564D01*
X669948Y70758D01*
X669962Y70966D01*
Y70980D01*
Y71008D01*
Y71077D01*
X669948Y71147D01*
X669935Y71244D01*
X669921Y71341D01*
X669879Y71590D01*
X669782Y71882D01*
X669657Y72173D01*
X669574Y72326D01*
X669477Y72464D01*
X669366Y72603D01*
X669241Y72741D01*
X669227Y72755D01*
X669213Y72769D01*
X669172Y72811D01*
X669116Y72853D01*
X669047Y72908D01*
X668964Y72963D01*
X668756Y73102D01*
X668492Y73227D01*
X668187Y73338D01*
X667840Y73421D01*
X667646Y73435D01*
X667452Y73449D01*
X667369D01*
X667272Y73435D01*
X667147D01*
X666981Y73407D01*
X666800Y73380D01*
X666578Y73338D01*
X666343Y73282D01*
X666509Y74655D01*
X666537D01*
X666606Y74641D01*
X666689Y74628D01*
X666870D01*
X666939Y74641D01*
X667036D01*
X667133Y74655D01*
X667369Y74697D01*
X667646Y74752D01*
X667951Y74850D01*
X668270Y74974D01*
X668576Y75155D01*
X668589D01*
X668617Y75182D01*
X668645Y75210D01*
X668700Y75252D01*
X668839Y75377D01*
X668991Y75557D01*
X669130Y75779D01*
X669269Y76056D01*
X669324Y76209D01*
X669352Y76389D01*
X669380Y76569D01*
X669394Y76763D01*
Y76777D01*
Y76805D01*
Y76847D01*
X669380Y76916D01*
X669366Y77069D01*
X669324Y77277D01*
X669255Y77498D01*
X669144Y77734D01*
X668991Y77984D01*
X668908Y78095D01*
X668797Y78206D01*
X668770Y78233D01*
X668686Y78289D01*
X668562Y78386D01*
X668395Y78497D01*
X668173Y78594D01*
X667910Y78691D01*
X667619Y78747D01*
X667286Y78774D01*
X667203D01*
X667133Y78760D01*
X667050D01*
X666967Y78747D01*
X666745Y78705D01*
X666509Y78636D01*
X666246Y78525D01*
X665996Y78386D01*
X665746Y78192D01*
X665719Y78164D01*
X665649Y78081D01*
X665538Y77956D01*
X665427Y77762D01*
X665289Y77526D01*
X665164Y77221D01*
X665053Y76874D01*
X664970Y76472D01*
X663403Y76750D01*
Y76763D01*
X663416Y76819D01*
X663430Y76902D01*
X663458Y77013D01*
X663500Y77138D01*
X663541Y77290D01*
X663597Y77457D01*
X663666Y77637D01*
X663846Y78039D01*
X663943Y78233D01*
X664068Y78441D01*
X664207Y78636D01*
X664360Y78830D01*
X664526Y79024D01*
X664706Y79190D01*
X664720Y79204D01*
X664748Y79232D01*
X664817Y79274D01*
X664886Y79329D01*
X664997Y79398D01*
X665108Y79468D01*
X665247Y79551D01*
X665414Y79634D01*
X665580Y79703D01*
X665774Y79787D01*
X665982Y79856D01*
X666204Y79925D01*
X666454Y79981D01*
X666703Y80022D01*
X666967Y80050D01*
X667244Y80064D01*
X667424D01*
X667522Y80050D01*
D02*
G37*
G36*
X553007Y79828D02*
X553159Y79814D01*
X553340Y79787D01*
X553548Y79759D01*
X553756Y79717D01*
X553992Y79662D01*
X554227Y79592D01*
X554477Y79509D01*
X554713Y79412D01*
X554962Y79287D01*
X555198Y79149D01*
X555420Y78996D01*
X555628Y78816D01*
X555642Y78802D01*
X555670Y78774D01*
X555725Y78705D01*
X555794Y78636D01*
X555878Y78538D01*
X555975Y78414D01*
X556072Y78275D01*
X556169Y78109D01*
X556266Y77942D01*
X556363Y77748D01*
X556460Y77540D01*
X556543Y77318D01*
X556613Y77069D01*
X556668Y76819D01*
X556696Y76555D01*
X556710Y76278D01*
Y76264D01*
Y76250D01*
Y76209D01*
Y76153D01*
X556696Y76001D01*
X556668Y75806D01*
X556627Y75571D01*
X556571Y75321D01*
X556502Y75044D01*
X556391Y74766D01*
Y74752D01*
X556377Y74739D01*
X556363Y74697D01*
X556335Y74641D01*
X556252Y74489D01*
X556141Y74295D01*
X555989Y74059D01*
X555808Y73795D01*
X555600Y73518D01*
X555337Y73213D01*
X555323Y73199D01*
X555309Y73171D01*
X555253Y73130D01*
X555198Y73060D01*
X555115Y72977D01*
X555018Y72880D01*
X554907Y72755D01*
X554768Y72631D01*
X554602Y72478D01*
X554421Y72312D01*
X554227Y72117D01*
X554005Y71923D01*
X553770Y71701D01*
X553506Y71480D01*
X553215Y71230D01*
X552910Y70966D01*
X552896Y70953D01*
X552854Y70911D01*
X552771Y70855D01*
X552688Y70772D01*
X552563Y70675D01*
X552438Y70564D01*
X552147Y70314D01*
X551842Y70051D01*
X551551Y69774D01*
X551412Y69649D01*
X551287Y69538D01*
X551176Y69427D01*
X551093Y69344D01*
X551079Y69330D01*
X551024Y69274D01*
X550954Y69191D01*
X550857Y69080D01*
X550746Y68955D01*
X550635Y68817D01*
X550414Y68512D01*
X556724D01*
Y67000D01*
X548250D01*
Y67028D01*
Y67097D01*
Y67208D01*
X548264Y67347D01*
X548278Y67513D01*
X548319Y67693D01*
X548361Y67888D01*
X548430Y68082D01*
Y68096D01*
X548444Y68123D01*
X548458Y68165D01*
X548486Y68234D01*
X548527Y68304D01*
X548569Y68401D01*
X548680Y68623D01*
X548819Y68886D01*
X548999Y69177D01*
X549207Y69482D01*
X549456Y69788D01*
X549470Y69801D01*
X549484Y69829D01*
X549526Y69871D01*
X549595Y69940D01*
X549665Y70009D01*
X549762Y70107D01*
X549859Y70217D01*
X549983Y70342D01*
X550122Y70481D01*
X550275Y70620D01*
X550441Y70786D01*
X550635Y70953D01*
X550830Y71133D01*
X551051Y71313D01*
X551273Y71507D01*
X551523Y71715D01*
X551551Y71729D01*
X551620Y71799D01*
X551717Y71882D01*
X551856Y72007D01*
X552022Y72145D01*
X552216Y72312D01*
X552438Y72492D01*
X552660Y72700D01*
X553132Y73130D01*
X553589Y73587D01*
X553811Y73809D01*
X554019Y74031D01*
X554199Y74239D01*
X554352Y74433D01*
X554366Y74447D01*
X554380Y74475D01*
X554421Y74531D01*
X554463Y74600D01*
X554532Y74697D01*
X554588Y74794D01*
X554726Y75044D01*
X554865Y75335D01*
X554990Y75654D01*
X555073Y75987D01*
X555087Y76153D01*
X555101Y76320D01*
Y76333D01*
Y76361D01*
Y76417D01*
X555087Y76472D01*
Y76555D01*
X555059Y76652D01*
X555018Y76860D01*
X554935Y77110D01*
X554810Y77374D01*
X554740Y77512D01*
X554643Y77637D01*
X554546Y77762D01*
X554421Y77887D01*
X554408Y77901D01*
X554394Y77914D01*
X554352Y77942D01*
X554297Y77984D01*
X554227Y78039D01*
X554144Y78095D01*
X553950Y78219D01*
X553686Y78330D01*
X553395Y78441D01*
X553048Y78511D01*
X552854Y78538D01*
X552549D01*
X552466Y78525D01*
X552369D01*
X552258Y78497D01*
X552008Y78455D01*
X551717Y78372D01*
X551412Y78247D01*
X551259Y78164D01*
X551107Y78081D01*
X550968Y77970D01*
X550830Y77845D01*
X550816Y77831D01*
X550802Y77817D01*
X550774Y77776D01*
X550719Y77720D01*
X550677Y77651D01*
X550621Y77568D01*
X550552Y77471D01*
X550497Y77360D01*
X550427Y77235D01*
X550372Y77096D01*
X550261Y76763D01*
X550178Y76403D01*
X550164Y76195D01*
X550150Y75973D01*
X548541Y76139D01*
Y76167D01*
X548555Y76223D01*
X548569Y76306D01*
X548583Y76431D01*
X548611Y76583D01*
X548652Y76763D01*
X548694Y76958D01*
X548763Y77165D01*
X548833Y77374D01*
X548916Y77609D01*
X549027Y77831D01*
X549138Y78053D01*
X549276Y78289D01*
X549429Y78497D01*
X549595Y78705D01*
X549789Y78885D01*
X549803Y78899D01*
X549845Y78927D01*
X549900Y78968D01*
X549983Y79038D01*
X550094Y79107D01*
X550233Y79190D01*
X550386Y79274D01*
X550566Y79371D01*
X550760Y79454D01*
X550982Y79537D01*
X551218Y79620D01*
X551481Y79690D01*
X551759Y79759D01*
X552050Y79801D01*
X552369Y79828D01*
X552702Y79842D01*
X552882D01*
X553007Y79828D01*
D02*
G37*
G36*
X437715Y67000D02*
X436148D01*
Y76999D01*
X436120Y76971D01*
X436051Y76902D01*
X435926Y76805D01*
X435746Y76666D01*
X435538Y76500D01*
X435274Y76320D01*
X434983Y76125D01*
X434650Y75917D01*
X434636D01*
X434609Y75890D01*
X434567Y75862D01*
X434498Y75834D01*
X434415Y75779D01*
X434318Y75737D01*
X434096Y75612D01*
X433846Y75487D01*
X433569Y75349D01*
X433277Y75224D01*
X433000Y75113D01*
Y76625D01*
X433014Y76638D01*
X433055Y76652D01*
X433125Y76694D01*
X433222Y76736D01*
X433333Y76791D01*
X433471Y76874D01*
X433624Y76958D01*
X433777Y77041D01*
X434137Y77263D01*
X434525Y77526D01*
X434928Y77804D01*
X435302Y78122D01*
X435316Y78136D01*
X435344Y78164D01*
X435399Y78206D01*
X435469Y78275D01*
X435538Y78358D01*
X435635Y78441D01*
X435843Y78677D01*
X436079Y78927D01*
X436315Y79218D01*
X436523Y79523D01*
X436703Y79842D01*
X437715D01*
Y67000D01*
D02*
G37*
G36*
X322424Y80036D02*
X322521Y80022D01*
X322771Y79995D01*
X323048Y79953D01*
X323353Y79870D01*
X323658Y79773D01*
X323963Y79634D01*
X323977D01*
X324005Y79620D01*
X324047Y79592D01*
X324102Y79551D01*
X324241Y79468D01*
X324421Y79329D01*
X324629Y79163D01*
X324837Y78955D01*
X325059Y78705D01*
X325253Y78428D01*
Y78414D01*
X325281Y78386D01*
X325295Y78344D01*
X325336Y78289D01*
X325378Y78219D01*
X325434Y78122D01*
X325475Y78011D01*
X325544Y77901D01*
X325669Y77623D01*
X325794Y77304D01*
X325933Y76930D01*
X326044Y76528D01*
Y76514D01*
X326058Y76472D01*
X326071Y76417D01*
X326085Y76320D01*
X326113Y76209D01*
X326141Y76070D01*
X326169Y75917D01*
X326196Y75737D01*
X326210Y75529D01*
X326238Y75307D01*
X326266Y75058D01*
X326293Y74794D01*
X326307Y74503D01*
X326321Y74198D01*
X326335Y73865D01*
Y73518D01*
Y73490D01*
Y73421D01*
Y73296D01*
Y73144D01*
X326321Y72950D01*
X326307Y72741D01*
X326293Y72492D01*
X326279Y72228D01*
X326252Y71937D01*
X326224Y71646D01*
X326141Y71036D01*
X326016Y70439D01*
X325947Y70148D01*
X325863Y69885D01*
Y69871D01*
X325836Y69829D01*
X325822Y69746D01*
X325780Y69663D01*
X325725Y69538D01*
X325669Y69413D01*
X325600Y69261D01*
X325517Y69094D01*
X325322Y68747D01*
X325087Y68401D01*
X324809Y68054D01*
X324643Y67901D01*
X324477Y67749D01*
X324463Y67735D01*
X324435Y67721D01*
X324380Y67680D01*
X324310Y67638D01*
X324227Y67583D01*
X324116Y67513D01*
X323991Y67444D01*
X323839Y67374D01*
X323686Y67305D01*
X323506Y67236D01*
X323326Y67180D01*
X323117Y67111D01*
X322896Y67069D01*
X322660Y67028D01*
X322424Y67014D01*
X322160Y67000D01*
X322077D01*
X321980Y67014D01*
X321855Y67028D01*
X321703Y67042D01*
X321523Y67069D01*
X321328Y67111D01*
X321106Y67166D01*
X320885Y67236D01*
X320649Y67319D01*
X320399Y67430D01*
X320163Y67555D01*
X319928Y67707D01*
X319692Y67888D01*
X319470Y68082D01*
X319262Y68317D01*
X319248Y68331D01*
X319207Y68387D01*
X319151Y68484D01*
X319068Y68623D01*
X318971Y68803D01*
X318860Y69011D01*
X318749Y69274D01*
X318638Y69566D01*
X318513Y69912D01*
X318402Y70287D01*
X318291Y70717D01*
X318194Y71188D01*
X318111Y71701D01*
X318055Y72256D01*
X318014Y72866D01*
X318000Y73518D01*
Y73546D01*
Y73615D01*
Y73740D01*
X318014Y73893D01*
Y74087D01*
X318028Y74309D01*
X318042Y74558D01*
X318055Y74822D01*
X318083Y75113D01*
X318111Y75404D01*
X318194Y76014D01*
X318305Y76611D01*
X318374Y76902D01*
X318458Y77165D01*
Y77179D01*
X318485Y77221D01*
X318513Y77304D01*
X318541Y77401D01*
X318596Y77512D01*
X318652Y77651D01*
X318721Y77790D01*
X318804Y77956D01*
X318999Y78303D01*
X319248Y78649D01*
X319526Y78996D01*
X319678Y79149D01*
X319844Y79301D01*
X319858Y79315D01*
X319886Y79329D01*
X319942Y79371D01*
X320011Y79412D01*
X320094Y79482D01*
X320205Y79537D01*
X320330Y79606D01*
X320482Y79676D01*
X320635Y79745D01*
X320815Y79814D01*
X321009Y79884D01*
X321204Y79939D01*
X321426Y79981D01*
X321661Y80022D01*
X321911Y80036D01*
X322160Y80050D01*
X322327D01*
X322424Y80036D01*
D02*
G37*
G36*
X861000Y508704D02*
X858337Y507012D01*
X858323Y506998D01*
X858282Y506984D01*
X858226Y506943D01*
X858143Y506887D01*
X858046Y506832D01*
X857935Y506749D01*
X857685Y506582D01*
X857394Y506388D01*
X857103Y506194D01*
X856826Y505986D01*
X856576Y505792D01*
X856562D01*
X856548Y505764D01*
X856479Y505709D01*
X856368Y505625D01*
X856243Y505500D01*
X856104Y505376D01*
X855966Y505223D01*
X855827Y505070D01*
X855730Y504932D01*
X855716Y504918D01*
X855688Y504863D01*
X855647Y504793D01*
X855591Y504696D01*
X855536Y504571D01*
X855480Y504446D01*
X855425Y504308D01*
X855383Y504155D01*
Y504141D01*
X855369Y504100D01*
X855356Y504030D01*
X855342Y503933D01*
Y503795D01*
X855328Y503628D01*
X855314Y503434D01*
Y501257D01*
X861000D01*
Y499565D01*
X848199D01*
Y505514D01*
X848213Y505667D01*
Y505819D01*
X848227Y506000D01*
X848241Y506208D01*
X848283Y506624D01*
X848352Y507054D01*
X848435Y507470D01*
X848491Y507650D01*
X848546Y507830D01*
Y507844D01*
X848560Y507872D01*
X848588Y507914D01*
X848615Y507983D01*
X848699Y508149D01*
X848823Y508344D01*
X848990Y508579D01*
X849212Y508815D01*
X849462Y509051D01*
X849767Y509259D01*
X849780D01*
X849808Y509286D01*
X849850Y509314D01*
X849919Y509342D01*
X850002Y509384D01*
X850099Y509425D01*
X850210Y509481D01*
X850335Y509536D01*
X850626Y509633D01*
X850945Y509716D01*
X851306Y509772D01*
X851694Y509800D01*
X851708D01*
X851750D01*
X851833D01*
X851916Y509786D01*
X852041Y509772D01*
X852180Y509758D01*
X852332Y509730D01*
X852499Y509689D01*
X852859Y509578D01*
X853053Y509508D01*
X853248Y509425D01*
X853442Y509328D01*
X853636Y509203D01*
X853816Y509065D01*
X853996Y508912D01*
X854010Y508898D01*
X854038Y508871D01*
X854080Y508815D01*
X854149Y508746D01*
X854218Y508649D01*
X854302Y508538D01*
X854399Y508399D01*
X854496Y508232D01*
X854593Y508052D01*
X854690Y507858D01*
X854787Y507636D01*
X854884Y507387D01*
X854967Y507123D01*
X855050Y506832D01*
X855120Y506513D01*
X855175Y506180D01*
Y506194D01*
X855189Y506208D01*
X855231Y506291D01*
X855300Y506416D01*
X855383Y506568D01*
X855480Y506735D01*
X855577Y506901D01*
X855702Y507068D01*
X855813Y507206D01*
X855827Y507220D01*
X855841Y507234D01*
X855882Y507276D01*
X855938Y507331D01*
X856007Y507400D01*
X856091Y507484D01*
X856285Y507664D01*
X856534Y507872D01*
X856826Y508108D01*
X857158Y508357D01*
X857519Y508607D01*
X861000Y510826D01*
Y508704D01*
D02*
G37*
G36*
Y487652D02*
X848199D01*
Y496916D01*
X849711D01*
Y489344D01*
X853622D01*
Y496431D01*
X855134D01*
Y489344D01*
X859488D01*
Y497207D01*
X861000D01*
Y487652D01*
D02*
G37*
G36*
X849711Y481647D02*
X861000D01*
Y479955D01*
X849711D01*
Y475739D01*
X848199D01*
Y485863D01*
X849711D01*
Y481647D01*
D02*
G37*
G36*
X861000Y473423D02*
X857131Y471939D01*
Y466558D01*
X861000Y465171D01*
Y463382D01*
X848199Y468278D01*
Y470108D01*
X861000Y475350D01*
Y473423D01*
D02*
G37*
G36*
Y452884D02*
X848199D01*
Y462148D01*
X849711D01*
Y454576D01*
X853622D01*
Y461662D01*
X855134D01*
Y454576D01*
X859488D01*
Y462439D01*
X861000D01*
Y452884D01*
D02*
G37*
G36*
Y448335D02*
X854967D01*
Y441692D01*
X861000D01*
Y440000D01*
X848199D01*
Y441692D01*
X853456D01*
Y448335D01*
X848199D01*
Y450027D01*
X861000D01*
Y448335D01*
D02*
G37*
G36*
X858031Y795076D02*
X858058Y795035D01*
X858114Y794966D01*
X858183Y794868D01*
X858266Y794758D01*
X858350Y794619D01*
X858461Y794466D01*
X858571Y794300D01*
X858682Y794119D01*
X858807Y793912D01*
X859057Y793482D01*
X859293Y793010D01*
X859501Y792511D01*
Y792497D01*
X859528Y792455D01*
X859542Y792386D01*
X859584Y792275D01*
X859612Y792164D01*
X859653Y792011D01*
X859709Y791859D01*
X859750Y791679D01*
X859792Y791471D01*
X859847Y791263D01*
X859917Y790805D01*
X859972Y790306D01*
X860000Y789793D01*
Y789612D01*
X859986Y789474D01*
X859972Y789307D01*
X859958Y789113D01*
X859931Y788891D01*
X859903Y788655D01*
X859861Y788406D01*
X859806Y788128D01*
X859736Y787851D01*
X859653Y787546D01*
X859570Y787255D01*
X859459Y786963D01*
X859334Y786658D01*
X859196Y786367D01*
X859182Y786353D01*
X859154Y786298D01*
X859112Y786215D01*
X859043Y786117D01*
X858960Y785993D01*
X858863Y785840D01*
X858738Y785674D01*
X858599Y785493D01*
X858447Y785313D01*
X858266Y785119D01*
X858086Y784925D01*
X857878Y784731D01*
X857642Y784550D01*
X857407Y784370D01*
X857143Y784190D01*
X856866Y784037D01*
X856852Y784023D01*
X856796Y784009D01*
X856713Y783968D01*
X856602Y783912D01*
X856450Y783857D01*
X856283Y783788D01*
X856089Y783718D01*
X855867Y783649D01*
X855631Y783579D01*
X855368Y783510D01*
X855077Y783441D01*
X854785Y783385D01*
X854466Y783330D01*
X854147Y783288D01*
X853801Y783274D01*
X853454Y783261D01*
X853426D01*
X853371D01*
X853274D01*
X853135Y783274D01*
X852969Y783288D01*
X852775Y783302D01*
X852553Y783330D01*
X852317Y783358D01*
X852053Y783399D01*
X851776Y783455D01*
X851193Y783593D01*
X850888Y783677D01*
X850583Y783788D01*
X850278Y783898D01*
X849973Y784037D01*
X849959Y784051D01*
X849904Y784079D01*
X849821Y784120D01*
X849710Y784176D01*
X849571Y784259D01*
X849418Y784356D01*
X849252Y784481D01*
X849058Y784606D01*
X848864Y784758D01*
X848670Y784925D01*
X848475Y785105D01*
X848267Y785313D01*
X848073Y785521D01*
X847893Y785757D01*
X847713Y786006D01*
X847560Y786270D01*
X847546Y786284D01*
X847532Y786339D01*
X847491Y786423D01*
X847435Y786534D01*
X847380Y786672D01*
X847310Y786839D01*
X847241Y787033D01*
X847158Y787241D01*
X847088Y787477D01*
X847019Y787740D01*
X846950Y788017D01*
X846894Y788323D01*
X846839Y788628D01*
X846797Y788960D01*
X846783Y789307D01*
X846769Y789654D01*
Y789890D01*
X846783Y790014D01*
X846797Y790153D01*
X846811Y790306D01*
X846825Y790486D01*
X846880Y790874D01*
X846964Y791304D01*
X847075Y791734D01*
X847227Y792164D01*
Y792178D01*
X847241Y792219D01*
X847269Y792275D01*
X847310Y792344D01*
X847352Y792441D01*
X847407Y792552D01*
X847546Y792802D01*
X847726Y793093D01*
X847934Y793384D01*
X848184Y793662D01*
X848475Y793925D01*
X848489Y793939D01*
X848517Y793953D01*
X848559Y793981D01*
X848614Y794036D01*
X848697Y794078D01*
X848794Y794147D01*
X848905Y794217D01*
X849044Y794286D01*
X849183Y794369D01*
X849335Y794438D01*
X849515Y794522D01*
X849696Y794605D01*
X850112Y794758D01*
X850569Y794896D01*
X850985Y793357D01*
X850972D01*
X850944Y793343D01*
X850888Y793329D01*
X850819Y793301D01*
X850750Y793273D01*
X850653Y793246D01*
X850431Y793163D01*
X850181Y793052D01*
X849931Y792927D01*
X849682Y792788D01*
X849460Y792636D01*
X849432Y792622D01*
X849363Y792552D01*
X849266Y792455D01*
X849127Y792330D01*
X848988Y792150D01*
X848836Y791942D01*
X848697Y791693D01*
X848559Y791415D01*
Y791401D01*
X848545Y791374D01*
X848531Y791332D01*
X848503Y791276D01*
X848475Y791207D01*
X848448Y791110D01*
X848378Y790902D01*
X848323Y790639D01*
X848267Y790347D01*
X848226Y790014D01*
X848212Y789668D01*
Y789474D01*
X848226Y789377D01*
Y789252D01*
X848240Y789127D01*
X848253Y788974D01*
X848295Y788669D01*
X848364Y788323D01*
X848448Y787990D01*
X848572Y787657D01*
Y787643D01*
X848586Y787615D01*
X848614Y787574D01*
X848642Y787518D01*
X848711Y787366D01*
X848822Y787171D01*
X848961Y786950D01*
X849127Y786728D01*
X849307Y786492D01*
X849515Y786284D01*
X849543Y786256D01*
X849613Y786201D01*
X849737Y786104D01*
X849890Y785993D01*
X850070Y785868D01*
X850292Y785729D01*
X850528Y785604D01*
X850778Y785493D01*
X850791D01*
X850833Y785480D01*
X850888Y785452D01*
X850985Y785424D01*
X851096Y785382D01*
X851221Y785341D01*
X851374Y785299D01*
X851540Y785258D01*
X851721Y785202D01*
X851928Y785161D01*
X852358Y785091D01*
X852844Y785036D01*
X853357Y785008D01*
X853371D01*
X853426D01*
X853523D01*
X853634Y785022D01*
X853787D01*
X853953Y785036D01*
X854147Y785063D01*
X854355Y785077D01*
X854813Y785147D01*
X855285Y785258D01*
X855770Y785396D01*
X856228Y785591D01*
X856242Y785604D01*
X856283Y785618D01*
X856339Y785646D01*
X856422Y785701D01*
X856505Y785757D01*
X856616Y785840D01*
X856866Y786020D01*
X857143Y786270D01*
X857434Y786561D01*
X857698Y786894D01*
X857823Y787088D01*
X857934Y787296D01*
Y787310D01*
X857961Y787352D01*
X857989Y787407D01*
X858017Y787490D01*
X858058Y787601D01*
X858114Y787726D01*
X858156Y787865D01*
X858211Y788017D01*
X858266Y788184D01*
X858308Y788378D01*
X858405Y788780D01*
X858461Y789224D01*
X858488Y789696D01*
Y789806D01*
X858474Y789890D01*
Y789987D01*
X858461Y790098D01*
X858447Y790222D01*
X858433Y790375D01*
X858391Y790694D01*
X858308Y791055D01*
X858211Y791443D01*
X858072Y791831D01*
Y791845D01*
X858058Y791873D01*
X858031Y791928D01*
X858003Y792011D01*
X857961Y792095D01*
X857906Y792192D01*
X857795Y792428D01*
X857656Y792691D01*
X857504Y792955D01*
X857351Y793204D01*
X857171Y793426D01*
X854772D01*
Y789668D01*
X853260D01*
Y795090D01*
X858017D01*
X858031Y795076D01*
D02*
G37*
G36*
X854869Y780847D02*
X855049Y780834D01*
X855257Y780820D01*
X855493Y780806D01*
X855978Y780750D01*
X856491Y780681D01*
X856991Y780570D01*
X857226Y780501D01*
X857448Y780417D01*
X857462D01*
X857504Y780404D01*
X857559Y780376D01*
X857642Y780334D01*
X857739Y780279D01*
X857850Y780223D01*
X858100Y780057D01*
X858252Y779960D01*
X858391Y779849D01*
X858558Y779710D01*
X858710Y779572D01*
X858863Y779405D01*
X859015Y779239D01*
X859154Y779045D01*
X859293Y778837D01*
X859306Y778823D01*
X859320Y778781D01*
X859362Y778726D01*
X859404Y778628D01*
X859459Y778518D01*
X859515Y778379D01*
X859584Y778226D01*
X859639Y778032D01*
X859709Y777838D01*
X859778Y777616D01*
X859834Y777366D01*
X859889Y777103D01*
X859931Y776812D01*
X859972Y776507D01*
X859986Y776188D01*
X860000Y775855D01*
Y775675D01*
X859986Y775550D01*
Y775397D01*
X859972Y775231D01*
X859945Y775023D01*
X859917Y774815D01*
X859847Y774343D01*
X859736Y773844D01*
X859584Y773359D01*
X859501Y773123D01*
X859390Y772901D01*
X859376Y772887D01*
X859362Y772845D01*
X859320Y772790D01*
X859279Y772721D01*
X859210Y772624D01*
X859126Y772513D01*
X859043Y772402D01*
X858932Y772277D01*
X858682Y771999D01*
X858377Y771736D01*
X858017Y771486D01*
X857809Y771375D01*
X857601Y771278D01*
X857587D01*
X857545Y771264D01*
X857476Y771237D01*
X857379Y771209D01*
X857268Y771167D01*
X857115Y771126D01*
X856949Y771084D01*
X856755Y771042D01*
X856533Y770987D01*
X856297Y770945D01*
X856034Y770904D01*
X855742Y770876D01*
X855437Y770835D01*
X855104Y770821D01*
X854758Y770793D01*
X854383D01*
X846991D01*
Y772485D01*
X854383D01*
X854397D01*
X854453D01*
X854536D01*
X854661D01*
X854799Y772499D01*
X854952D01*
X855132Y772513D01*
X855312Y772526D01*
X855715Y772554D01*
X856117Y772610D01*
X856505Y772693D01*
X856685Y772734D01*
X856838Y772790D01*
X856852D01*
X856866Y772804D01*
X856907Y772818D01*
X856963Y772845D01*
X857115Y772929D01*
X857282Y773040D01*
X857490Y773178D01*
X857684Y773359D01*
X857878Y773580D01*
X858058Y773844D01*
Y773858D01*
X858072Y773885D01*
X858100Y773927D01*
X858128Y773983D01*
X858156Y774052D01*
X858183Y774149D01*
X858225Y774246D01*
X858266Y774357D01*
X858336Y774634D01*
X858405Y774953D01*
X858461Y775314D01*
X858474Y775702D01*
Y775883D01*
X858461Y776007D01*
X858447Y776160D01*
X858433Y776340D01*
X858405Y776534D01*
X858363Y776742D01*
X858266Y777172D01*
X858197Y777394D01*
X858114Y777616D01*
X858017Y777824D01*
X857906Y778018D01*
X857781Y778199D01*
X857628Y778365D01*
X857615Y778379D01*
X857587Y778407D01*
X857531Y778434D01*
X857462Y778490D01*
X857365Y778545D01*
X857240Y778615D01*
X857088Y778698D01*
X856907Y778767D01*
X856699Y778837D01*
X856463Y778920D01*
X856200Y778989D01*
X855909Y779045D01*
X855576Y779100D01*
X855215Y779142D01*
X854813Y779156D01*
X854383Y779169D01*
X846991D01*
Y780861D01*
X854383D01*
X854411D01*
X854466D01*
X854564D01*
X854702D01*
X854869Y780847D01*
D02*
G37*
G36*
X856325Y768421D02*
X856408D01*
X856630Y768394D01*
X856893Y768338D01*
X857171Y768269D01*
X857476Y768172D01*
X857767Y768047D01*
X857781D01*
X857795Y768033D01*
X857837Y768005D01*
X857892Y767978D01*
X858031Y767894D01*
X858197Y767783D01*
X858391Y767659D01*
X858585Y767492D01*
X858780Y767312D01*
X858960Y767104D01*
X858974Y767076D01*
X859029Y767007D01*
X859099Y766882D01*
X859196Y766716D01*
X859293Y766521D01*
X859404Y766286D01*
X859501Y766008D01*
X859584Y765703D01*
Y765689D01*
X859598Y765662D01*
Y765620D01*
X859612Y765551D01*
X859625Y765467D01*
X859653Y765370D01*
X859667Y765259D01*
X859681Y765135D01*
X859709Y764996D01*
X859723Y764829D01*
X859764Y764483D01*
X859778Y764081D01*
X859792Y763637D01*
Y758769D01*
X846991D01*
Y763803D01*
X847005Y763928D01*
Y764081D01*
X847019Y764233D01*
X847047Y764413D01*
X847088Y764774D01*
X847158Y765176D01*
X847255Y765551D01*
X847394Y765911D01*
Y765925D01*
X847407Y765953D01*
X847435Y765994D01*
X847463Y766064D01*
X847560Y766216D01*
X847685Y766424D01*
X847851Y766646D01*
X848059Y766868D01*
X848309Y767090D01*
X848586Y767298D01*
X848600D01*
X848628Y767326D01*
X848670Y767340D01*
X848725Y767381D01*
X848794Y767423D01*
X848891Y767465D01*
X849099Y767561D01*
X849349Y767645D01*
X849640Y767728D01*
X849945Y767783D01*
X850278Y767811D01*
X850292D01*
X850320D01*
X850361D01*
X850417D01*
X850569Y767783D01*
X850778Y767756D01*
X851013Y767700D01*
X851277Y767617D01*
X851540Y767506D01*
X851818Y767354D01*
X851832D01*
X851845Y767340D01*
X851887Y767312D01*
X851942Y767270D01*
X852067Y767173D01*
X852234Y767021D01*
X852414Y766840D01*
X852608Y766605D01*
X852802Y766341D01*
X852982Y766022D01*
Y766036D01*
X852996Y766078D01*
X853024Y766133D01*
X853052Y766216D01*
X853093Y766313D01*
X853135Y766424D01*
X853260Y766674D01*
X853412Y766965D01*
X853621Y767256D01*
X853856Y767548D01*
X854147Y767797D01*
X854161Y767811D01*
X854189Y767825D01*
X854231Y767853D01*
X854286Y767894D01*
X854369Y767950D01*
X854466Y768005D01*
X854577Y768061D01*
X854702Y768116D01*
X854980Y768227D01*
X855312Y768338D01*
X855687Y768408D01*
X855881Y768435D01*
X856089D01*
X856103D01*
X856131D01*
X856172D01*
X856242D01*
X856325Y768421D01*
D02*
G37*
G36*
X859792Y746953D02*
X846991D01*
Y756217D01*
X848503D01*
Y748645D01*
X852414D01*
Y755732D01*
X853926D01*
Y748645D01*
X858280D01*
Y756508D01*
X859792D01*
Y746953D01*
D02*
G37*
G36*
X853704Y744568D02*
X853856D01*
X854023Y744554D01*
X854203Y744540D01*
X854605Y744498D01*
X855035Y744429D01*
X855479Y744346D01*
X855923Y744235D01*
X855937D01*
X855978Y744221D01*
X856034Y744193D01*
X856103Y744179D01*
X856200Y744138D01*
X856311Y744096D01*
X856574Y743999D01*
X856866Y743874D01*
X857185Y743722D01*
X857490Y743555D01*
X857781Y743361D01*
X857795D01*
X857809Y743333D01*
X857850Y743306D01*
X857906Y743264D01*
X858031Y743167D01*
X858197Y743015D01*
X858391Y742848D01*
X858585Y742654D01*
X858766Y742432D01*
X858946Y742196D01*
Y742182D01*
X858960Y742169D01*
X859015Y742085D01*
X859085Y741947D01*
X859182Y741766D01*
X859279Y741544D01*
X859390Y741281D01*
X859487Y740976D01*
X859584Y740657D01*
Y740643D01*
X859598Y740615D01*
Y740574D01*
X859612Y740504D01*
X859625Y740421D01*
X859653Y740310D01*
X859667Y740199D01*
X859681Y740074D01*
X859723Y739769D01*
X859764Y739423D01*
X859778Y739034D01*
X859792Y738618D01*
Y734000D01*
X846991D01*
Y738771D01*
X847005Y738909D01*
Y739076D01*
X847019Y739242D01*
X847033Y739617D01*
X847075Y739991D01*
X847116Y740366D01*
X847158Y740532D01*
X847186Y740685D01*
Y740698D01*
X847199Y740740D01*
X847213Y740796D01*
X847241Y740865D01*
X847269Y740962D01*
X847297Y741073D01*
X847394Y741336D01*
X847518Y741628D01*
X847671Y741933D01*
X847865Y742252D01*
X848101Y742557D01*
X848115Y742571D01*
X848142Y742598D01*
X848184Y742654D01*
X848253Y742723D01*
X848337Y742806D01*
X848448Y742904D01*
X848559Y743015D01*
X848697Y743125D01*
X848850Y743250D01*
X849016Y743375D01*
X849196Y743500D01*
X849391Y743625D01*
X849821Y743860D01*
X850292Y744069D01*
X850306D01*
X850348Y744096D01*
X850431Y744110D01*
X850528Y744152D01*
X850653Y744193D01*
X850805Y744235D01*
X850972Y744277D01*
X851166Y744332D01*
X851388Y744374D01*
X851623Y744415D01*
X851873Y744457D01*
X852137Y744498D01*
X852414Y744540D01*
X852705Y744554D01*
X853329Y744582D01*
X853343D01*
X853399D01*
X853468D01*
X853579D01*
X853704Y744568D01*
D02*
G37*
%LPC*%
G36*
X322147Y78747D02*
X322050D01*
X321966Y78733D01*
X321883Y78719D01*
X321772Y78705D01*
X321523Y78636D01*
X321245Y78525D01*
X321106Y78455D01*
X320954Y78358D01*
X320815Y78261D01*
X320677Y78136D01*
X320538Y77998D01*
X320413Y77831D01*
X320399Y77817D01*
X320385Y77776D01*
X320344Y77706D01*
X320288Y77596D01*
X320233Y77457D01*
X320163Y77290D01*
X320080Y77096D01*
X320011Y76847D01*
X319942Y76569D01*
X319858Y76264D01*
X319789Y75904D01*
X319734Y75515D01*
X319678Y75085D01*
X319650Y74600D01*
X319623Y74087D01*
X319609Y73518D01*
Y73504D01*
Y73477D01*
Y73435D01*
Y73380D01*
Y73310D01*
Y73213D01*
X319623Y73005D01*
X319636Y72755D01*
X319650Y72464D01*
X319664Y72145D01*
X319706Y71812D01*
X319789Y71105D01*
X319844Y70758D01*
X319914Y70412D01*
X319997Y70093D01*
X320108Y69801D01*
X320219Y69538D01*
X320344Y69316D01*
X320358Y69302D01*
X320372Y69274D01*
X320413Y69219D01*
X320482Y69150D01*
X320552Y69080D01*
X320635Y68997D01*
X320843Y68803D01*
X321106Y68609D01*
X321426Y68456D01*
X321592Y68387D01*
X321772Y68331D01*
X321966Y68304D01*
X322160Y68290D01*
X322202D01*
X322271Y68304D01*
X322341D01*
X322438Y68317D01*
X322549Y68345D01*
X322799Y68415D01*
X322937Y68470D01*
X323076Y68539D01*
X323228Y68623D01*
X323381Y68734D01*
X323534Y68844D01*
X323686Y68983D01*
X323839Y69150D01*
X323977Y69330D01*
X323991Y69344D01*
X324005Y69385D01*
X324047Y69441D01*
X324088Y69538D01*
X324158Y69663D01*
X324213Y69829D01*
X324282Y70023D01*
X324352Y70245D01*
X324421Y70509D01*
X324490Y70814D01*
X324560Y71147D01*
X324615Y71535D01*
X324657Y71965D01*
X324698Y72436D01*
X324712Y72950D01*
X324726Y73518D01*
Y73532D01*
Y73560D01*
Y73601D01*
Y73657D01*
Y73726D01*
Y73809D01*
X324712Y74031D01*
X324698Y74281D01*
X324685Y74572D01*
X324671Y74891D01*
X324629Y75224D01*
X324546Y75931D01*
X324477Y76278D01*
X324407Y76611D01*
X324324Y76930D01*
X324227Y77235D01*
X324116Y77484D01*
X323977Y77706D01*
X323963Y77720D01*
X323950Y77748D01*
X323908Y77804D01*
X323853Y77873D01*
X323769Y77942D01*
X323686Y78039D01*
X323589Y78136D01*
X323478Y78233D01*
X323214Y78414D01*
X322896Y78580D01*
X322729Y78649D01*
X322535Y78705D01*
X322355Y78733D01*
X322147Y78747D01*
D02*
G37*
G36*
X851694Y508052D02*
X851680D01*
X851653D01*
X851611D01*
X851542Y508038D01*
X851472D01*
X851375Y508024D01*
X851167Y507969D01*
X850931Y507886D01*
X850682Y507775D01*
X850446Y507608D01*
X850321Y507497D01*
X850210Y507387D01*
X850197Y507373D01*
X850183Y507359D01*
X850155Y507317D01*
X850113Y507262D01*
X850072Y507192D01*
X850016Y507095D01*
X849961Y506998D01*
X849905Y506873D01*
X849850Y506735D01*
X849808Y506582D01*
X849753Y506416D01*
X849711Y506236D01*
X849669Y506027D01*
X849642Y505806D01*
X849614Y505570D01*
Y501257D01*
X853844D01*
Y505084D01*
X853830Y505182D01*
Y505292D01*
X853816Y505556D01*
X853788Y505847D01*
X853747Y506152D01*
X853691Y506443D01*
X853608Y506707D01*
Y506721D01*
X853594Y506735D01*
X853567Y506818D01*
X853511Y506929D01*
X853428Y507081D01*
X853317Y507234D01*
X853192Y507400D01*
X853026Y507567D01*
X852845Y507705D01*
X852818Y507719D01*
X852748Y507761D01*
X852651Y507817D01*
X852499Y507886D01*
X852332Y507941D01*
X852138Y507997D01*
X851916Y508038D01*
X851694Y508052D01*
D02*
G37*
G36*
X855758Y471412D02*
X852207Y470067D01*
X852194D01*
X852138Y470039D01*
X852055Y470011D01*
X851930Y469970D01*
X851805Y469914D01*
X851639Y469859D01*
X851459Y469789D01*
X851264Y469720D01*
X850834Y469581D01*
X850391Y469429D01*
X849947Y469276D01*
X849531Y469151D01*
X849545D01*
X849586Y469137D01*
X849656Y469124D01*
X849739Y469110D01*
X849864Y469082D01*
X849988Y469054D01*
X850141Y469013D01*
X850307Y468971D01*
X850488Y468929D01*
X850682Y468874D01*
X851098Y468749D01*
X851542Y468610D01*
X851999Y468458D01*
X855758Y467043D01*
Y471412D01*
D02*
G37*
G36*
X856089Y766688D02*
X856075D01*
X856061D01*
X856020D01*
X855964D01*
X855839Y766674D01*
X855659Y766646D01*
X855465Y766591D01*
X855257Y766535D01*
X855049Y766438D01*
X854841Y766313D01*
X854813Y766300D01*
X854758Y766244D01*
X854661Y766161D01*
X854550Y766050D01*
X854425Y765897D01*
X854314Y765717D01*
X854203Y765523D01*
X854106Y765287D01*
Y765273D01*
X854092Y765259D01*
X854078Y765218D01*
X854064Y765162D01*
X854050Y765093D01*
X854036Y765024D01*
X854009Y764927D01*
X853995Y764816D01*
X853967Y764677D01*
X853953Y764538D01*
X853940Y764386D01*
X853912Y764219D01*
X853898Y763845D01*
X853884Y763415D01*
Y760461D01*
X858280D01*
Y763928D01*
X858266Y764108D01*
Y764289D01*
X858252Y764483D01*
X858239Y764663D01*
X858225Y764802D01*
Y764829D01*
X858211Y764899D01*
X858183Y765010D01*
X858142Y765148D01*
X858100Y765301D01*
X858031Y765453D01*
X857961Y765620D01*
X857878Y765772D01*
X857864Y765786D01*
X857837Y765842D01*
X857781Y765911D01*
X857698Y766008D01*
X857601Y766105D01*
X857476Y766216D01*
X857337Y766327D01*
X857171Y766424D01*
X857143Y766438D01*
X857088Y766466D01*
X856991Y766507D01*
X856852Y766563D01*
X856699Y766605D01*
X856519Y766646D01*
X856311Y766674D01*
X856089Y766688D01*
D02*
G37*
G36*
X850472Y766147D02*
X850459D01*
X850445D01*
X850361D01*
X850250Y766133D01*
X850098Y766105D01*
X849918Y766064D01*
X849724Y766008D01*
X849529Y765939D01*
X849349Y765828D01*
X849321Y765814D01*
X849266Y765772D01*
X849183Y765703D01*
X849085Y765606D01*
X848975Y765481D01*
X848864Y765329D01*
X848767Y765162D01*
X848683Y764954D01*
X848670Y764927D01*
Y764899D01*
X848656Y764843D01*
X848642Y764788D01*
X848628Y764705D01*
X848614Y764608D01*
X848586Y764510D01*
X848572Y764386D01*
X848559Y764233D01*
X848545Y764081D01*
X848531Y763900D01*
X848517Y763706D01*
Y763498D01*
X848503Y763262D01*
Y760461D01*
X852372D01*
Y763498D01*
X852358Y763609D01*
Y763845D01*
X852345Y764108D01*
X852317Y764386D01*
X852275Y764635D01*
X852261Y764746D01*
X852234Y764843D01*
Y764857D01*
X852220Y764871D01*
X852192Y764954D01*
X852150Y765065D01*
X852081Y765204D01*
X851998Y765357D01*
X851887Y765523D01*
X851748Y765675D01*
X851596Y765814D01*
X851568Y765828D01*
X851513Y765870D01*
X851415Y765925D01*
X851291Y765981D01*
X851124Y766036D01*
X850930Y766092D01*
X850722Y766133D01*
X850472Y766147D01*
D02*
G37*
G36*
X853301Y742834D02*
X853274D01*
X853218D01*
X853107D01*
X852969Y742820D01*
X852802D01*
X852608Y742806D01*
X852400Y742779D01*
X852164Y742751D01*
X851665Y742668D01*
X851152Y742557D01*
X850667Y742390D01*
X850431Y742279D01*
X850223Y742169D01*
X850209Y742155D01*
X850181Y742141D01*
X850126Y742099D01*
X850042Y742044D01*
X849959Y741988D01*
X849862Y741905D01*
X849640Y741725D01*
X849391Y741489D01*
X849155Y741212D01*
X848933Y740907D01*
X848850Y740740D01*
X848767Y740560D01*
Y740546D01*
X848753Y740532D01*
X848739Y740490D01*
X848725Y740435D01*
X848711Y740352D01*
X848683Y740268D01*
X848656Y740158D01*
X848628Y740033D01*
X848614Y739894D01*
X848586Y739728D01*
X848559Y739547D01*
X848545Y739353D01*
X848531Y739131D01*
X848517Y738896D01*
X848503Y738646D01*
Y735692D01*
X858280D01*
Y738632D01*
X858266Y738743D01*
Y738868D01*
X858252Y739145D01*
X858225Y739464D01*
X858183Y739797D01*
X858128Y740116D01*
X858058Y740407D01*
Y740421D01*
X858045Y740435D01*
X858031Y740477D01*
X858017Y740532D01*
X857961Y740657D01*
X857892Y740823D01*
X857795Y741003D01*
X857684Y741198D01*
X857545Y741392D01*
X857393Y741558D01*
X857379Y741572D01*
X857365Y741586D01*
X857282Y741655D01*
X857143Y741766D01*
X856963Y741905D01*
X856727Y742044D01*
X856450Y742196D01*
X856131Y742349D01*
X855770Y742487D01*
X855756D01*
X855729Y742501D01*
X855673Y742515D01*
X855590Y742543D01*
X855493Y742571D01*
X855368Y742598D01*
X855229Y742626D01*
X855077Y742668D01*
X854910Y742695D01*
X854716Y742723D01*
X854522Y742751D01*
X854300Y742779D01*
X853829Y742820D01*
X853301Y742834D01*
D02*
G37*
%LPD*%
D10*
X271500Y732500D02*
G03*
X271500Y732500I-500J0D01*
G01*
X688500Y187500D02*
G03*
X688500Y187500I-500J0D01*
G01*
X798000Y210000D02*
G03*
X798000Y210000I-500J0D01*
G01*
X788000Y311250D02*
G03*
X788000Y311250I-500J0D01*
G01*
X688000Y353000D02*
G03*
X688000Y353000I-500J0D01*
G01*
X533500Y535000D02*
G03*
X533500Y535000I-500J0D01*
G01*
X407500D02*
G03*
X407500Y535000I-500J0D01*
G01*
X284500Y525000D02*
G03*
X284500Y525000I-500J0D01*
G01*
X161500Y525000D02*
G03*
X161500Y525000I-500J0D01*
G01*
X369750Y765664D02*
G03*
X369750Y765664I-250J0D01*
G01*
X569500Y689000D02*
G03*
X569500Y689000I-500J0D01*
G01*
X715500Y685000D02*
G03*
X715500Y685000I-500J0D01*
G01*
X636365Y147750D02*
G03*
X636365Y147750I-250J0D01*
G01*
X521365D02*
G03*
X521365Y147750I-250J0D01*
G01*
X406115D02*
G03*
X406115Y147750I-250J0D01*
G01*
X291115D02*
G03*
X291115Y147750I-250J0D01*
G01*
D11*
X373500Y420000D02*
G03*
X373500Y420000I-1000J0D01*
G01*
X100300Y217250D02*
G03*
X100300Y217250I-1000J0D01*
G01*
X699000Y354000D02*
G03*
X699000Y354000I-1000J0D01*
G01*
X812450Y264700D02*
G03*
X812450Y264700I-1000J0D01*
G01*
X728250Y242500D02*
G03*
X728250Y242500I-1000J0D01*
G01*
X116000Y417500D02*
G03*
X116000Y417500I-1000J0D01*
G01*
X618500Y542500D02*
G03*
X618500Y542500I-1000J0D01*
G01*
X71750Y826282D02*
Y838282D01*
X800250Y597750D02*
X815500D01*
X355500Y467500D02*
X367500D01*
X789950Y867650D02*
Y909400D01*
X124450Y870650D02*
Y920150D01*
X789950D01*
Y909400D02*
Y920150D01*
Y819650D02*
Y867650D01*
X124450Y819650D02*
X789950D01*
X124450D02*
Y870650D01*
X134706Y757662D02*
Y768662D01*
Y757662D02*
X190706D01*
Y768662D01*
Y757662D02*
Y768662D01*
X134706Y757662D02*
X190706D01*
X134706D02*
Y768662D01*
X190706Y799662D02*
Y810662D01*
X134706D02*
X190706D01*
X134706Y799662D02*
Y810662D01*
X512250Y502000D02*
Y514000D01*
X102662Y116250D02*
X114662D01*
X163662D02*
X175662D01*
X47801Y116500D02*
X59801D01*
X572250Y467000D02*
X587500D01*
D12*
X485854Y315500D02*
G03*
X485854Y315500I-353J0D01*
G01*
X231854Y316250D02*
G03*
X231854Y316250I-353J0D01*
G01*
X96604Y733500D02*
G03*
X96604Y733500I-353J0D01*
G01*
X731254Y443500D02*
G03*
X731254Y443500I-353J0D01*
G01*
X288750Y707500D02*
X297750D01*
X288750Y737500D02*
X297750D01*
X720500Y195000D02*
Y210000D01*
X690500Y195000D02*
Y210000D01*
X775000Y242500D02*
X790000D01*
X775000Y212500D02*
X790000D01*
X765000Y343750D02*
X780000D01*
X765000Y313750D02*
X780000D01*
X655000Y330500D02*
Y345500D01*
X685000Y330500D02*
Y345500D01*
X558000Y541000D02*
Y549000D01*
X528000Y563000D02*
Y571000D01*
Y541000D02*
Y549000D01*
X558000Y563000D02*
Y571000D01*
X432000Y541000D02*
Y549000D01*
X402000Y563000D02*
Y571000D01*
Y541000D02*
Y549000D01*
X432000Y563000D02*
Y571000D01*
X309000Y531000D02*
Y539000D01*
X279000Y553000D02*
Y561000D01*
Y531000D02*
Y539000D01*
X309000Y553000D02*
Y561000D01*
X186000Y531000D02*
Y539000D01*
X156000Y553000D02*
Y561000D01*
Y531000D02*
Y539000D01*
X186000Y553000D02*
Y561000D01*
X594000Y695000D02*
Y703000D01*
X564000Y717000D02*
Y725000D01*
Y695000D02*
Y703000D01*
X594000Y717000D02*
Y725000D01*
X740000Y691000D02*
Y699000D01*
X710000Y713000D02*
Y721000D01*
Y691000D02*
Y699000D01*
X740000Y713000D02*
Y721000D01*
X289164Y671500D02*
X298164D01*
X289164Y701500D02*
X298164D01*
X50000Y592750D02*
X68000D01*
X50000Y607250D02*
X68000D01*
X77000Y600000D02*
Y604000D01*
Y596000D02*
Y600000D01*
X88000Y607250D02*
X106000D01*
X88000Y592750D02*
X106000D01*
X79000Y596000D02*
Y600000D01*
Y604000D01*
D13*
X380000Y470000D02*
X401800D01*
X380000Y370000D02*
Y470000D01*
Y370000D02*
X401800D01*
X458200D02*
X480000D01*
Y470000D01*
X458200D02*
X480000D01*
X200700Y467500D02*
X222500D01*
Y367500D02*
Y467500D01*
X200700Y367500D02*
X222500D01*
X122500D02*
X144300D01*
X122500D02*
Y467500D01*
X144300D01*
X703200Y592500D02*
X725000D01*
Y492500D02*
Y592500D01*
X703200Y492500D02*
X725000D01*
X625000D02*
X646800D01*
X625000D02*
Y592500D01*
X646800D01*
X831250Y292500D02*
X836000D01*
X831250D02*
Y301050D01*
Y411500D02*
X836000D01*
X831250Y402950D02*
Y411500D01*
X587750Y65000D02*
Y68750D01*
X596300D01*
X656750Y65000D02*
Y68750D01*
X648200D02*
X656750D01*
X472750Y65000D02*
Y68750D01*
X481300D01*
X541750Y65000D02*
Y68750D01*
X533200D02*
X541750D01*
X357500Y65000D02*
Y68750D01*
X366050D01*
X426500Y65000D02*
Y68750D01*
X417950D02*
X426500D01*
X242500Y65000D02*
Y68750D01*
X251050D01*
X311500Y65000D02*
Y68750D01*
X302950D02*
X311500D01*
X832250Y638500D02*
X836000D01*
X832250D02*
Y647050D01*
Y707500D02*
X836000D01*
X832250Y698950D02*
Y707500D01*
X19003Y849001D02*
Y854999D01*
X22002D01*
X23001Y853999D01*
Y852000D01*
X22002Y851000D01*
X19003D01*
X21002D02*
X23001Y849001D01*
X25001Y853999D02*
X26000Y854999D01*
X28000D01*
X28999Y853999D01*
Y853000D01*
X28000Y852000D01*
X27000D01*
X28000D01*
X28999Y851000D01*
Y850001D01*
X28000Y849001D01*
X26000D01*
X25001Y850001D01*
X30999Y853999D02*
X31998Y854999D01*
X33998D01*
X34997Y853999D01*
Y853000D01*
X33998Y852000D01*
X34997Y851000D01*
Y850001D01*
X33998Y849001D01*
X31998D01*
X30999Y850001D01*
Y851000D01*
X31998Y852000D01*
X30999Y853000D01*
Y853999D01*
X31998Y852000D02*
X33998D01*
X24002Y834999D02*
Y829001D01*
X27001D01*
X28000Y830001D01*
Y833999D01*
X27001Y834999D01*
X24002D01*
X33998D02*
X30000D01*
Y832000D01*
X31999Y833000D01*
X32999D01*
X33998Y832000D01*
Y830001D01*
X32999Y829001D01*
X30999D01*
X30000Y830001D01*
X264914Y711001D02*
Y714999D01*
X263914Y715999D01*
X261915D01*
X260915Y714999D01*
Y711001D01*
X261915Y710001D01*
X263914D01*
X262915Y712000D02*
X264914Y710001D01*
X263914D02*
X264914Y711001D01*
X270912Y710001D02*
X266914D01*
X270912Y714000D01*
Y714999D01*
X269912Y715999D01*
X267913D01*
X266914Y714999D01*
X432003Y128001D02*
Y133999D01*
X435002D01*
X436001Y132999D01*
Y131000D01*
X435002Y130000D01*
X432003D01*
X434002D02*
X436001Y128001D01*
X441999D02*
X438001D01*
X441999Y132000D01*
Y132999D01*
X441000Y133999D01*
X439000D01*
X438001Y132999D01*
X443999Y133999D02*
Y128001D01*
X446998D01*
X447997Y129001D01*
Y130000D01*
X446998Y131000D01*
X443999D01*
X446998D01*
X447997Y132000D01*
Y132999D01*
X446998Y133999D01*
X443999D01*
X509502Y762999D02*
X508503Y763999D01*
X506503D01*
X505503Y762999D01*
Y759001D01*
X506503Y758001D01*
X508503D01*
X509502Y759001D01*
X511502Y758001D02*
X513501D01*
X512501D01*
Y763999D01*
X511502Y762999D01*
X520499Y758001D02*
X516500D01*
X520499Y762000D01*
Y762999D01*
X519499Y763999D01*
X517500D01*
X516500Y762999D01*
X525497Y758001D02*
Y763999D01*
X522498Y761000D01*
X526497D01*
X657502Y757999D02*
X656502Y758999D01*
X654503D01*
X653503Y757999D01*
Y754001D01*
X654503Y753001D01*
X656502D01*
X657502Y754001D01*
X659501Y753001D02*
X661501D01*
X660501D01*
Y758999D01*
X659501Y757999D01*
X668499Y753001D02*
X664500D01*
X668499Y757000D01*
Y757999D01*
X667499Y758999D01*
X665499D01*
X664500Y757999D01*
X674497Y758999D02*
X670498D01*
Y756000D01*
X672497Y757000D01*
X673497D01*
X674497Y756000D01*
Y754001D01*
X673497Y753001D01*
X671498D01*
X670498Y754001D01*
X507502Y621999D02*
X506502Y622999D01*
X504503D01*
X503503Y621999D01*
Y618001D01*
X504503Y617001D01*
X506502D01*
X507502Y618001D01*
X509501Y617001D02*
X511501D01*
X510501D01*
Y622999D01*
X509501Y621999D01*
X518498Y617001D02*
X514500D01*
X518498Y621000D01*
Y621999D01*
X517499Y622999D01*
X515499D01*
X514500Y621999D01*
X520498D02*
X521498Y622999D01*
X523497D01*
X524497Y621999D01*
Y621000D01*
X523497Y620000D01*
X522497D01*
X523497D01*
X524497Y619000D01*
Y618001D01*
X523497Y617001D01*
X521498D01*
X520498Y618001D01*
X381502Y618999D02*
X380503Y619999D01*
X378503D01*
X377503Y618999D01*
Y615001D01*
X378503Y614001D01*
X380503D01*
X381502Y615001D01*
X383502Y614001D02*
X385501D01*
X384501D01*
Y619999D01*
X383502Y618999D01*
X392499Y614001D02*
X388500D01*
X392499Y618000D01*
Y618999D01*
X391499Y619999D01*
X389500D01*
X388500Y618999D01*
X398497Y614001D02*
X394498D01*
X398497Y618000D01*
Y618999D01*
X397497Y619999D01*
X395498D01*
X394498Y618999D01*
X253002Y610999D02*
X252002Y611999D01*
X250003D01*
X249003Y610999D01*
Y607001D01*
X250003Y606001D01*
X252002D01*
X253002Y607001D01*
X255001Y606001D02*
X257001D01*
X256001D01*
Y611999D01*
X255001Y610999D01*
X260000Y606001D02*
X261999D01*
X260999D01*
Y611999D01*
X260000Y610999D01*
X264998D02*
X265998Y611999D01*
X267997D01*
X268997Y610999D01*
Y607001D01*
X267997Y606001D01*
X265998D01*
X264998Y607001D01*
Y610999D01*
X135502Y611999D02*
X134502Y612999D01*
X132503D01*
X131503Y611999D01*
Y608001D01*
X132503Y607001D01*
X134502D01*
X135502Y608001D01*
X137501Y607001D02*
X139501D01*
X138501D01*
Y612999D01*
X137501Y611999D01*
X142500D02*
X143499Y612999D01*
X145499D01*
X146498Y611999D01*
Y608001D01*
X145499Y607001D01*
X143499D01*
X142500Y608001D01*
Y611999D01*
X148498Y608001D02*
X149498Y607001D01*
X151497D01*
X152497Y608001D01*
Y611999D01*
X151497Y612999D01*
X149498D01*
X148498Y611999D01*
Y611000D01*
X149498Y610000D01*
X152497D01*
X102503Y232499D02*
Y227501D01*
X103502Y226501D01*
X105502D01*
X106501Y227501D01*
Y232499D01*
X112499Y226501D02*
X108501D01*
X112499Y230500D01*
Y231499D01*
X111500Y232499D01*
X109500D01*
X108501Y231499D01*
X114499Y227501D02*
X115498Y226501D01*
X117498D01*
X118497Y227501D01*
Y231499D01*
X117498Y232499D01*
X115498D01*
X114499Y231499D01*
Y230500D01*
X115498Y229500D01*
X118497D01*
X784004Y252999D02*
Y248001D01*
X785003Y247001D01*
X787003D01*
X788002Y248001D01*
Y252999D01*
X794000Y247001D02*
X790002D01*
X794000Y251000D01*
Y251999D01*
X793001Y252999D01*
X791001D01*
X790002Y251999D01*
X796000D02*
X796999Y252999D01*
X798999D01*
X799998Y251999D01*
Y251000D01*
X798999Y250000D01*
X799998Y249000D01*
Y248001D01*
X798999Y247001D01*
X796999D01*
X796000Y248001D01*
Y249000D01*
X796999Y250000D01*
X796000Y251000D01*
Y251999D01*
X796999Y250000D02*
X798999D01*
X801998Y252999D02*
Y247001D01*
X804997D01*
X805996Y248001D01*
Y249000D01*
X804997Y250000D01*
X801998D01*
X804997D01*
X805996Y251000D01*
Y251999D01*
X804997Y252999D01*
X801998D01*
X762004Y352999D02*
Y348001D01*
X763003Y347001D01*
X765003D01*
X766002Y348001D01*
Y352999D01*
X772000Y347001D02*
X768002D01*
X772000Y351000D01*
Y351999D01*
X771001Y352999D01*
X769001D01*
X768002Y351999D01*
X774000D02*
X774999Y352999D01*
X776999D01*
X777998Y351999D01*
Y351000D01*
X776999Y350000D01*
X777998Y349000D01*
Y348001D01*
X776999Y347001D01*
X774999D01*
X774000Y348001D01*
Y349000D01*
X774999Y350000D01*
X774000Y351000D01*
Y351999D01*
X774999Y350000D02*
X776999D01*
X779998Y347001D02*
Y351000D01*
X781997Y352999D01*
X783997Y351000D01*
Y347001D01*
Y350000D01*
X779998D01*
X689754Y231499D02*
Y226501D01*
X690753Y225501D01*
X692753D01*
X693752Y226501D01*
Y231499D01*
X699750Y225501D02*
X695752D01*
X699750Y229500D01*
Y230499D01*
X698751Y231499D01*
X696751D01*
X695752Y230499D01*
X701750Y231499D02*
X705748D01*
Y230499D01*
X701750Y226501D01*
Y225501D01*
X707748Y231499D02*
Y225501D01*
X710747D01*
X711747Y226501D01*
Y227500D01*
X710747Y228500D01*
X707748D01*
X710747D01*
X711747Y229500D01*
Y230499D01*
X710747Y231499D01*
X707748D01*
X659004Y314999D02*
Y310001D01*
X660003Y309001D01*
X662003D01*
X663002Y310001D01*
Y314999D01*
X669000Y309001D02*
X665002D01*
X669000Y313000D01*
Y313999D01*
X668001Y314999D01*
X666001D01*
X665002Y313999D01*
X671000Y314999D02*
X674998D01*
Y313999D01*
X671000Y310001D01*
Y309001D01*
X676998D02*
Y313000D01*
X678997Y314999D01*
X680996Y313000D01*
Y309001D01*
Y312000D01*
X676998D01*
X506003Y558749D02*
Y553751D01*
X507002Y552751D01*
X509002D01*
X510001Y553751D01*
Y558749D01*
X515999Y552751D02*
X512001D01*
X515999Y556750D01*
Y557749D01*
X515000Y558749D01*
X513000D01*
X512001Y557749D01*
X521997Y558749D02*
X519998Y557749D01*
X517999Y555750D01*
Y553751D01*
X518998Y552751D01*
X520998D01*
X521997Y553751D01*
Y554750D01*
X520998Y555750D01*
X517999D01*
X379003Y558999D02*
Y554001D01*
X380002Y553001D01*
X382002D01*
X383001Y554001D01*
Y558999D01*
X388999Y553001D02*
X385001D01*
X388999Y557000D01*
Y557999D01*
X388000Y558999D01*
X386000D01*
X385001Y557999D01*
X394997Y558999D02*
X390999D01*
Y556000D01*
X392998Y557000D01*
X393998D01*
X394997Y556000D01*
Y554001D01*
X393998Y553001D01*
X391998D01*
X390999Y554001D01*
X466002Y347999D02*
Y343001D01*
X467002Y342001D01*
X469001D01*
X470001Y343001D01*
Y347999D01*
X475999Y342001D02*
X472000D01*
X475999Y346000D01*
Y346999D01*
X474999Y347999D01*
X473000D01*
X472000Y346999D01*
X477998Y342001D02*
X479998D01*
X478998D01*
Y347999D01*
X477998Y346999D01*
X267001Y533003D02*
X271999D01*
X272999Y534002D01*
Y536002D01*
X271999Y537001D01*
X267001D01*
X272999Y542999D02*
Y539001D01*
X269000Y542999D01*
X268001D01*
X267001Y542000D01*
Y540000D01*
X268001Y539001D01*
Y544999D02*
X267001Y545998D01*
Y547998D01*
X268001Y548997D01*
X271999D01*
X272999Y547998D01*
Y545998D01*
X271999Y544999D01*
X268001D01*
X134402Y549169D02*
Y544170D01*
X135402Y543171D01*
X137401D01*
X138401Y544170D01*
Y549169D01*
X140400Y543171D02*
X142400D01*
X141400D01*
Y549169D01*
X140400Y548169D01*
X145399Y544170D02*
X146398Y543171D01*
X148398D01*
X149397Y544170D01*
Y548169D01*
X148398Y549169D01*
X146398D01*
X145399Y548169D01*
Y547169D01*
X146398Y546170D01*
X149397D01*
X211502Y347999D02*
Y343001D01*
X212502Y342001D01*
X214501D01*
X215501Y343001D01*
Y347999D01*
X217500Y342001D02*
X219500D01*
X218500D01*
Y347999D01*
X217500Y346999D01*
X226498Y347999D02*
X222499D01*
Y345000D01*
X224498Y346000D01*
X225498D01*
X226498Y345000D01*
Y343001D01*
X225498Y342001D01*
X223498D01*
X222499Y343001D01*
X374502Y772163D02*
Y767164D01*
X375502Y766165D01*
X377501D01*
X378501Y767164D01*
Y772163D01*
X380500Y766165D02*
X382500D01*
X381500D01*
Y772163D01*
X380500Y771163D01*
X388498Y766165D02*
Y772163D01*
X385499Y769164D01*
X389498D01*
X121001Y740502D02*
X125999D01*
X126999Y741502D01*
Y743501D01*
X125999Y744501D01*
X121001D01*
X126999Y746500D02*
Y748500D01*
Y747500D01*
X121001D01*
X122001Y746500D01*
X126999Y751498D02*
Y753498D01*
Y752498D01*
X121001D01*
X122001Y751498D01*
X541002Y713999D02*
Y709001D01*
X542002Y708001D01*
X544002D01*
X545001Y709001D01*
Y713999D01*
X547001Y708001D02*
X549000D01*
X548000D01*
Y713999D01*
X547001Y712999D01*
X551999D02*
X552999Y713999D01*
X554998D01*
X555998Y712999D01*
Y709001D01*
X554998Y708001D01*
X552999D01*
X551999Y709001D01*
Y712999D01*
X694002Y708999D02*
Y704001D01*
X695001Y703001D01*
X697001D01*
X698000Y704001D01*
Y708999D01*
X700000Y704001D02*
X700999Y703001D01*
X702999D01*
X703998Y704001D01*
Y707999D01*
X702999Y708999D01*
X700999D01*
X700000Y707999D01*
Y707000D01*
X700999Y706000D01*
X703998D01*
X713002Y475999D02*
Y471001D01*
X714001Y470001D01*
X716001D01*
X717000Y471001D01*
Y475999D01*
X722998D02*
X719000D01*
Y473000D01*
X720999Y474000D01*
X721999D01*
X722998Y473000D01*
Y471001D01*
X721999Y470001D01*
X719999D01*
X719000Y471001D01*
X612503Y143999D02*
Y139001D01*
X613502Y138001D01*
X615502D01*
X616501Y139001D01*
Y143999D01*
X618501Y138001D02*
X620500D01*
X619500D01*
Y143999D01*
X618501Y142999D01*
X623499Y143999D02*
Y138001D01*
X626498D01*
X627498Y139001D01*
Y142999D01*
X626498Y143999D01*
X623499D01*
X496502Y141999D02*
Y137001D01*
X497502Y136001D01*
X499501D01*
X500501Y137001D01*
Y141999D01*
X502500Y136001D02*
X504500D01*
X503500D01*
Y141999D01*
X502500Y140999D01*
X511498D02*
X510498Y141999D01*
X508499D01*
X507499Y140999D01*
Y137001D01*
X508499Y136001D01*
X510498D01*
X511498Y137001D01*
X383001Y178502D02*
X387999D01*
X388999Y179502D01*
Y181502D01*
X387999Y182501D01*
X383001D01*
X388999Y184501D02*
Y186500D01*
Y185500D01*
X383001D01*
X384001Y184501D01*
X383001Y189499D02*
X388999D01*
Y192498D01*
X387999Y193498D01*
X387000D01*
X386000Y192498D01*
Y189499D01*
Y192498D01*
X385000Y193498D01*
X384001D01*
X383001Y192498D01*
Y189499D01*
X263866Y178502D02*
X268864D01*
X269864Y179502D01*
Y181501D01*
X268864Y182501D01*
X263866D01*
X269864Y184501D02*
Y186500D01*
Y185500D01*
X263866D01*
X264866Y184501D01*
X269864Y189499D02*
X265865D01*
X263866Y191498D01*
X265865Y193498D01*
X269864D01*
X266865D01*
Y189499D01*
X651003Y691001D02*
Y696999D01*
X654002D01*
X655001Y695999D01*
Y694000D01*
X654002Y693000D01*
X651003D01*
X653002D02*
X655001Y691001D01*
X657001Y692001D02*
X658000Y691001D01*
X660000D01*
X660999Y692001D01*
Y695999D01*
X660000Y696999D01*
X658000D01*
X657001Y695999D01*
Y695000D01*
X658000Y694000D01*
X660999D01*
X662999Y695999D02*
X663998Y696999D01*
X665998D01*
X666997Y695999D01*
Y695000D01*
X665998Y694000D01*
X664998D01*
X665998D01*
X666997Y693000D01*
Y692001D01*
X665998Y691001D01*
X663998D01*
X662999Y692001D01*
X798683Y689197D02*
X792685D01*
Y692196D01*
X793685Y693196D01*
X795685D01*
X796684Y692196D01*
Y689197D01*
Y691196D02*
X798683Y693196D01*
X797684Y695195D02*
X798683Y696195D01*
Y698194D01*
X797684Y699194D01*
X793685D01*
X792685Y698194D01*
Y696195D01*
X793685Y695195D01*
X794685D01*
X795685Y696195D01*
Y699194D01*
X798683Y705192D02*
Y701193D01*
X794685Y705192D01*
X793685D01*
X792685Y704192D01*
Y702193D01*
X793685Y701193D01*
X593002Y528001D02*
Y533999D01*
X596001D01*
X597001Y532999D01*
Y531000D01*
X596001Y530000D01*
X593002D01*
X595002D02*
X597001Y528001D01*
X599000Y529001D02*
X600000Y528001D01*
X601999D01*
X602999Y529001D01*
Y532999D01*
X601999Y533999D01*
X600000D01*
X599000Y532999D01*
Y532000D01*
X600000Y531000D01*
X602999D01*
X604998Y528001D02*
X606998D01*
X605998D01*
Y533999D01*
X604998Y532999D01*
X489827Y536665D02*
X483829D01*
Y539664D01*
X484829Y540663D01*
X486828D01*
X487828Y539664D01*
Y536665D01*
Y538664D02*
X489827Y540663D01*
X488828Y542663D02*
X489827Y543662D01*
Y545662D01*
X488828Y546661D01*
X484829D01*
X483829Y545662D01*
Y543662D01*
X484829Y542663D01*
X485829D01*
X486828Y543662D01*
Y546661D01*
X484829Y548661D02*
X483829Y549660D01*
Y551660D01*
X484829Y552659D01*
X488828D01*
X489827Y551660D01*
Y549660D01*
X488828Y548661D01*
X484829D01*
X362503Y533251D02*
Y539249D01*
X365502D01*
X366501Y538249D01*
Y536250D01*
X365502Y535250D01*
X362503D01*
X364502D02*
X366501Y533251D01*
X368501Y538249D02*
X369500Y539249D01*
X371500D01*
X372499Y538249D01*
Y537250D01*
X371500Y536250D01*
X372499Y535250D01*
Y534251D01*
X371500Y533251D01*
X369500D01*
X368501Y534251D01*
Y535250D01*
X369500Y536250D01*
X368501Y537250D01*
Y538249D01*
X369500Y536250D02*
X371500D01*
X374499Y534251D02*
X375498Y533251D01*
X377498D01*
X378497Y534251D01*
Y538249D01*
X377498Y539249D01*
X375498D01*
X374499Y538249D01*
Y537250D01*
X375498Y536250D01*
X378497D01*
X239003Y532001D02*
Y537999D01*
X242002D01*
X243001Y536999D01*
Y535000D01*
X242002Y534000D01*
X239003D01*
X241002D02*
X243001Y532001D01*
X245001Y536999D02*
X246000Y537999D01*
X248000D01*
X248999Y536999D01*
Y536000D01*
X248000Y535000D01*
X248999Y534000D01*
Y533001D01*
X248000Y532001D01*
X246000D01*
X245001Y533001D01*
Y534000D01*
X246000Y535000D01*
X245001Y536000D01*
Y536999D01*
X246000Y535000D02*
X248000D01*
X250999Y536999D02*
X251998Y537999D01*
X253998D01*
X254997Y536999D01*
Y536000D01*
X253998Y535000D01*
X254997Y534000D01*
Y533001D01*
X253998Y532001D01*
X251998D01*
X250999Y533001D01*
Y534000D01*
X251998Y535000D01*
X250999Y536000D01*
Y536999D01*
X251998Y535000D02*
X253998D01*
X520001Y273997D02*
X525999D01*
Y270998D01*
X524999Y269999D01*
X523000D01*
X522000Y270998D01*
Y273997D01*
Y271998D02*
X520001Y269999D01*
X524999Y267999D02*
X525999Y267000D01*
Y265000D01*
X524999Y264001D01*
X524000D01*
X523000Y265000D01*
X522000Y264001D01*
X521001D01*
X520001Y265000D01*
Y267000D01*
X521001Y267999D01*
X522000D01*
X523000Y267000D01*
X524000Y267999D01*
X524999D01*
X523000Y267000D02*
Y265000D01*
X525999Y262001D02*
Y258003D01*
X524999D01*
X521001Y262001D01*
X520001D01*
X246003Y269501D02*
Y275499D01*
X249002D01*
X250001Y274499D01*
Y272500D01*
X249002Y271500D01*
X246003D01*
X248002D02*
X250001Y269501D01*
X252001Y274499D02*
X253000Y275499D01*
X255000D01*
X255999Y274499D01*
Y273500D01*
X255000Y272500D01*
X255999Y271500D01*
Y270501D01*
X255000Y269501D01*
X253000D01*
X252001Y270501D01*
Y271500D01*
X253000Y272500D01*
X252001Y273500D01*
Y274499D01*
X253000Y272500D02*
X255000D01*
X261998Y275499D02*
X259998Y274499D01*
X257999Y272500D01*
Y270501D01*
X258998Y269501D01*
X260998D01*
X261998Y270501D01*
Y271500D01*
X260998Y272500D01*
X257999D01*
X342001Y665997D02*
X347999D01*
Y662998D01*
X346999Y661999D01*
X345000D01*
X344000Y662998D01*
Y665997D01*
Y663998D02*
X342001Y661999D01*
X346999Y659999D02*
X347999Y659000D01*
Y657000D01*
X346999Y656001D01*
X346000D01*
X345000Y657000D01*
X344000Y656001D01*
X343001D01*
X342001Y657000D01*
Y659000D01*
X343001Y659999D01*
X344000D01*
X345000Y659000D01*
X346000Y659999D01*
X346999D01*
X345000Y659000D02*
Y657000D01*
X347999Y650003D02*
Y654001D01*
X345000D01*
X346000Y652002D01*
Y651002D01*
X345000Y650003D01*
X343001D01*
X342001Y651002D01*
Y653002D01*
X343001Y654001D01*
X53003Y704001D02*
Y709999D01*
X56002D01*
X57001Y708999D01*
Y707000D01*
X56002Y706000D01*
X53003D01*
X55002D02*
X57001Y704001D01*
X59001Y708999D02*
X60000Y709999D01*
X62000D01*
X62999Y708999D01*
Y708000D01*
X62000Y707000D01*
X62999Y706000D01*
Y705001D01*
X62000Y704001D01*
X60000D01*
X59001Y705001D01*
Y706000D01*
X60000Y707000D01*
X59001Y708000D01*
Y708999D01*
X60000Y707000D02*
X62000D01*
X67998Y704001D02*
Y709999D01*
X64999Y707000D01*
X68997D01*
X799999Y416003D02*
X794001D01*
Y419002D01*
X795001Y420001D01*
X797000D01*
X798000Y419002D01*
Y416003D01*
Y418002D02*
X799999Y420001D01*
X795001Y422001D02*
X794001Y423000D01*
Y425000D01*
X795001Y425999D01*
X796000D01*
X797000Y425000D01*
X798000Y425999D01*
X798999D01*
X799999Y425000D01*
Y423000D01*
X798999Y422001D01*
X798000D01*
X797000Y423000D01*
X796000Y422001D01*
X795001D01*
X797000Y423000D02*
Y425000D01*
X795001Y427999D02*
X794001Y428998D01*
Y430998D01*
X795001Y431997D01*
X796000D01*
X797000Y430998D01*
Y429998D01*
Y430998D01*
X798000Y431997D01*
X798999D01*
X799999Y430998D01*
Y428998D01*
X798999Y427999D01*
X759503Y395501D02*
Y401499D01*
X762502D01*
X763501Y400499D01*
Y398500D01*
X762502Y397500D01*
X759503D01*
X761502D02*
X763501Y395501D01*
X765501Y400499D02*
X766500Y401499D01*
X768500D01*
X769499Y400499D01*
Y399500D01*
X768500Y398500D01*
X769499Y397500D01*
Y396501D01*
X768500Y395501D01*
X766500D01*
X765501Y396501D01*
Y397500D01*
X766500Y398500D01*
X765501Y399500D01*
Y400499D01*
X766500Y398500D02*
X768500D01*
X775497Y395501D02*
X771499D01*
X775497Y399500D01*
Y400499D01*
X774498Y401499D01*
X772498D01*
X771499Y400499D01*
X43503Y210501D02*
Y216499D01*
X46502D01*
X47501Y215499D01*
Y213500D01*
X46502Y212500D01*
X43503D01*
X45502D02*
X47501Y210501D01*
X49501Y216499D02*
X53499D01*
Y215499D01*
X49501Y211501D01*
Y210501D01*
X55499Y211501D02*
X56498Y210501D01*
X58498D01*
X59497Y211501D01*
Y215499D01*
X58498Y216499D01*
X56498D01*
X55499Y215499D01*
Y214500D01*
X56498Y213500D01*
X59497D01*
X179003Y227001D02*
Y232999D01*
X182002D01*
X183001Y231999D01*
Y230000D01*
X182002Y229000D01*
X179003D01*
X181002D02*
X183001Y227001D01*
X185001Y232999D02*
X188999D01*
Y231999D01*
X185001Y228001D01*
Y227001D01*
X190999Y231999D02*
X191998Y232999D01*
X193998D01*
X194997Y231999D01*
Y231000D01*
X193998Y230000D01*
X194997Y229000D01*
Y228001D01*
X193998Y227001D01*
X191998D01*
X190999Y228001D01*
Y229000D01*
X191998Y230000D01*
X190999Y231000D01*
Y231999D01*
X191998Y230000D02*
X193998D01*
X182003Y171001D02*
Y176999D01*
X185002D01*
X186001Y175999D01*
Y174000D01*
X185002Y173000D01*
X182003D01*
X184002D02*
X186001Y171001D01*
X188001Y176999D02*
X191999D01*
Y175999D01*
X188001Y172001D01*
Y171001D01*
X193999Y176999D02*
X197997D01*
Y175999D01*
X193999Y172001D01*
Y171001D01*
X43503Y194501D02*
Y200499D01*
X46502D01*
X47501Y199499D01*
Y197500D01*
X46502Y196500D01*
X43503D01*
X45502D02*
X47501Y194501D01*
X49501Y200499D02*
X53499D01*
Y199499D01*
X49501Y195501D01*
Y194501D01*
X59497Y200499D02*
X57498Y199499D01*
X55499Y197500D01*
Y195501D01*
X56498Y194501D01*
X58498D01*
X59497Y195501D01*
Y196500D01*
X58498Y197500D01*
X55499D01*
X211999Y195003D02*
X206001D01*
Y198002D01*
X207001Y199001D01*
X209000D01*
X210000Y198002D01*
Y195003D01*
Y197002D02*
X211999Y199001D01*
X206001Y201001D02*
Y204999D01*
X207001D01*
X210999Y201001D01*
X211999D01*
X206001Y210997D02*
Y206999D01*
X209000D01*
X208000Y208998D01*
Y209998D01*
X209000Y210997D01*
X210999D01*
X211999Y209998D01*
Y207998D01*
X210999Y206999D01*
X43503Y226501D02*
Y232499D01*
X46502D01*
X47501Y231499D01*
Y229500D01*
X46502Y228500D01*
X43503D01*
X45502D02*
X47501Y226501D01*
X49501Y232499D02*
X53499D01*
Y231499D01*
X49501Y227501D01*
Y226501D01*
X58498D02*
Y232499D01*
X55499Y229500D01*
X59497D01*
X830999Y215004D02*
X825001D01*
Y218003D01*
X826001Y219002D01*
X828000D01*
X829000Y218003D01*
Y215004D01*
Y217003D02*
X830999Y219002D01*
X825001Y221002D02*
Y225000D01*
X826001D01*
X829999Y221002D01*
X830999D01*
X826001Y227000D02*
X825001Y227999D01*
Y229999D01*
X826001Y230998D01*
X827000D01*
X828000Y229999D01*
Y228999D01*
Y229999D01*
X829000Y230998D01*
X829999D01*
X830999Y229999D01*
Y227999D01*
X829999Y227000D01*
X825001Y232998D02*
X830999D01*
Y235997D01*
X829999Y236996D01*
X829000D01*
X828000Y235997D01*
Y232998D01*
Y235997D01*
X827000Y236996D01*
X826001D01*
X825001Y235997D01*
Y232998D01*
X706004Y311001D02*
Y316999D01*
X709003D01*
X710002Y315999D01*
Y314000D01*
X709003Y313000D01*
X706004D01*
X708003D02*
X710002Y311001D01*
X712002Y316999D02*
X716000D01*
Y315999D01*
X712002Y312001D01*
Y311001D01*
X718000Y315999D02*
X718999Y316999D01*
X720999D01*
X721998Y315999D01*
Y315000D01*
X720999Y314000D01*
X719999D01*
X720999D01*
X721998Y313000D01*
Y312001D01*
X720999Y311001D01*
X718999D01*
X718000Y312001D01*
X723998Y311001D02*
Y315000D01*
X725997Y316999D01*
X727996Y315000D01*
Y311001D01*
Y314000D01*
X723998D01*
X810004Y275001D02*
Y280999D01*
X813003D01*
X814002Y279999D01*
Y278000D01*
X813003Y277000D01*
X810004D01*
X812003D02*
X814002Y275001D01*
X816002Y280999D02*
X820000D01*
Y279999D01*
X816002Y276001D01*
Y275001D01*
X825998D02*
X822000D01*
X825998Y279000D01*
Y279999D01*
X824999Y280999D01*
X822999D01*
X822000Y279999D01*
X827998Y280999D02*
Y275001D01*
X830997D01*
X831997Y276001D01*
Y277000D01*
X830997Y278000D01*
X827998D01*
X830997D01*
X831997Y279000D01*
Y279999D01*
X830997Y280999D01*
X827998D01*
X760749Y364841D02*
X754751D01*
Y367840D01*
X755751Y368840D01*
X757750D01*
X758750Y367840D01*
Y364841D01*
Y366841D02*
X760749Y368840D01*
X754751Y370839D02*
Y374838D01*
X755751D01*
X759749Y370839D01*
X760749D01*
Y380836D02*
Y376837D01*
X756750Y380836D01*
X755751D01*
X754751Y379836D01*
Y377837D01*
X755751Y376837D01*
X760749Y382836D02*
X756750D01*
X754751Y384835D01*
X756750Y386834D01*
X760749D01*
X757750D01*
Y382836D01*
X727503Y218001D02*
Y223999D01*
X730502D01*
X731502Y222999D01*
Y221000D01*
X730502Y220000D01*
X727503D01*
X729503D02*
X731502Y218001D01*
X733502Y223999D02*
X737500D01*
Y222999D01*
X733502Y219001D01*
Y218001D01*
X739500D02*
X741499D01*
X740499D01*
Y223999D01*
X739500Y222999D01*
X744498Y223999D02*
Y218001D01*
X747497D01*
X748497Y219001D01*
Y220000D01*
X747497Y221000D01*
X744498D01*
X747497D01*
X748497Y222000D01*
Y222999D01*
X747497Y223999D01*
X744498D01*
X706503Y324001D02*
Y329999D01*
X709502D01*
X710502Y328999D01*
Y327000D01*
X709502Y326000D01*
X706503D01*
X708503D02*
X710502Y324001D01*
X712502Y329999D02*
X716500D01*
Y328999D01*
X712502Y325001D01*
Y324001D01*
X718500D02*
X720499D01*
X719499D01*
Y329999D01*
X718500Y328999D01*
X723498Y324001D02*
Y328000D01*
X725497Y329999D01*
X727497Y328000D01*
Y324001D01*
Y327000D01*
X723498D01*
X752999Y168004D02*
X747001D01*
Y171003D01*
X748001Y172002D01*
X750000D01*
X751000Y171003D01*
Y168004D01*
Y170003D02*
X752999Y172002D01*
X747001Y174002D02*
Y178000D01*
X748001D01*
X751999Y174002D01*
X752999D01*
X748001Y180000D02*
X747001Y180999D01*
Y182999D01*
X748001Y183998D01*
X751999D01*
X752999Y182999D01*
Y180999D01*
X751999Y180000D01*
X748001D01*
X747001Y185998D02*
X752999D01*
Y188997D01*
X751999Y189996D01*
X751000D01*
X750000Y188997D01*
Y185998D01*
Y188997D01*
X749000Y189996D01*
X748001D01*
X747001Y188997D01*
Y185998D01*
X631999Y349004D02*
X626001D01*
Y352003D01*
X627001Y353002D01*
X629000D01*
X630000Y352003D01*
Y349004D01*
Y351003D02*
X631999Y353002D01*
X626001Y355002D02*
Y359000D01*
X627001D01*
X630999Y355002D01*
X631999D01*
X627001Y361000D02*
X626001Y361999D01*
Y363999D01*
X627001Y364998D01*
X630999D01*
X631999Y363999D01*
Y361999D01*
X630999Y361000D01*
X627001D01*
X631999Y366998D02*
X628000D01*
X626001Y368997D01*
X628000Y370996D01*
X631999D01*
X629000D01*
Y366998D01*
X570003Y629001D02*
Y634999D01*
X573002D01*
X574001Y633999D01*
Y632000D01*
X573002Y631000D01*
X570003D01*
X572002D02*
X574001Y629001D01*
X579999Y634999D02*
X578000Y633999D01*
X576001Y632000D01*
Y630001D01*
X577000Y629001D01*
X579000D01*
X579999Y630001D01*
Y631000D01*
X579000Y632000D01*
X576001D01*
X581999Y630001D02*
X582998Y629001D01*
X584998D01*
X585997Y630001D01*
Y633999D01*
X584998Y634999D01*
X582998D01*
X581999Y633999D01*
Y633000D01*
X582998Y632000D01*
X585997D01*
X447003Y627001D02*
Y632999D01*
X450002D01*
X451001Y631999D01*
Y630000D01*
X450002Y629000D01*
X447003D01*
X449002D02*
X451001Y627001D01*
X456999Y632999D02*
X455000Y631999D01*
X453001Y630000D01*
Y628001D01*
X454000Y627001D01*
X456000D01*
X456999Y628001D01*
Y629000D01*
X456000Y630000D01*
X453001D01*
X458999Y631999D02*
X459998Y632999D01*
X461998D01*
X462997Y631999D01*
Y631000D01*
X461998Y630000D01*
X462997Y629000D01*
Y628001D01*
X461998Y627001D01*
X459998D01*
X458999Y628001D01*
Y629000D01*
X459998Y630000D01*
X458999Y631000D01*
Y631999D01*
X459998Y630000D02*
X461998D01*
X590003Y609001D02*
Y614999D01*
X593002D01*
X594001Y613999D01*
Y612000D01*
X593002Y611000D01*
X590003D01*
X592002D02*
X594001Y609001D01*
X599999Y614999D02*
X598000Y613999D01*
X596001Y612000D01*
Y610001D01*
X597000Y609001D01*
X599000D01*
X599999Y610001D01*
Y611000D01*
X599000Y612000D01*
X596001D01*
X601999Y614999D02*
X605997D01*
Y613999D01*
X601999Y610001D01*
Y609001D01*
X464503Y607001D02*
Y612999D01*
X467502D01*
X468501Y611999D01*
Y610000D01*
X467502Y609000D01*
X464503D01*
X466502D02*
X468501Y607001D01*
X474499Y612999D02*
X472500Y611999D01*
X470501Y610000D01*
Y608001D01*
X471500Y607001D01*
X473500D01*
X474499Y608001D01*
Y609000D01*
X473500Y610000D01*
X470501D01*
X480497Y612999D02*
X478498Y611999D01*
X476499Y610000D01*
Y608001D01*
X477498Y607001D01*
X479498D01*
X480497Y608001D01*
Y609000D01*
X479498Y610000D01*
X476499D01*
X515003Y488001D02*
Y493999D01*
X518002D01*
X519001Y492999D01*
Y491000D01*
X518002Y490000D01*
X515003D01*
X517002D02*
X519001Y488001D01*
X524999Y493999D02*
X523000Y492999D01*
X521001Y491000D01*
Y489001D01*
X522000Y488001D01*
X524000D01*
X524999Y489001D01*
Y490000D01*
X524000Y491000D01*
X521001D01*
X530997Y493999D02*
X526999D01*
Y491000D01*
X528998Y492000D01*
X529998D01*
X530997Y491000D01*
Y489001D01*
X529998Y488001D01*
X527998D01*
X526999Y489001D01*
X567003Y487001D02*
Y492999D01*
X570002D01*
X571001Y491999D01*
Y490000D01*
X570002Y489000D01*
X567003D01*
X569002D02*
X571001Y487001D01*
X576999Y492999D02*
X575000Y491999D01*
X573001Y490000D01*
Y488001D01*
X574000Y487001D01*
X576000D01*
X576999Y488001D01*
Y489000D01*
X576000Y490000D01*
X573001D01*
X581998Y487001D02*
Y492999D01*
X578999Y490000D01*
X582997D01*
X545003Y487001D02*
Y492999D01*
X548002D01*
X549001Y491999D01*
Y490000D01*
X548002Y489000D01*
X545003D01*
X547002D02*
X549001Y487001D01*
X554999Y492999D02*
X553000Y491999D01*
X551001Y490000D01*
Y488001D01*
X552000Y487001D01*
X554000D01*
X554999Y488001D01*
Y489000D01*
X554000Y490000D01*
X551001D01*
X556999Y491999D02*
X557998Y492999D01*
X559998D01*
X560997Y491999D01*
Y491000D01*
X559998Y490000D01*
X558998D01*
X559998D01*
X560997Y489000D01*
Y488001D01*
X559998Y487001D01*
X557998D01*
X556999Y488001D01*
X440003Y488001D02*
Y493999D01*
X443002D01*
X444001Y492999D01*
Y491000D01*
X443002Y490000D01*
X440003D01*
X442002D02*
X444001Y488001D01*
X449999Y493999D02*
X448000Y492999D01*
X446001Y491000D01*
Y489001D01*
X447000Y488001D01*
X449000D01*
X449999Y489001D01*
Y490000D01*
X449000Y491000D01*
X446001D01*
X455997Y488001D02*
X451999D01*
X455997Y492000D01*
Y492999D01*
X454998Y493999D01*
X452998D01*
X451999Y492999D01*
X421002Y488001D02*
Y493999D01*
X424001D01*
X425001Y492999D01*
Y491000D01*
X424001Y490000D01*
X421002D01*
X423002D02*
X425001Y488001D01*
X430999Y493999D02*
X429000Y492999D01*
X427000Y491000D01*
Y489001D01*
X428000Y488001D01*
X429999D01*
X430999Y489001D01*
Y490000D01*
X429999Y491000D01*
X427000D01*
X432998Y488001D02*
X434998D01*
X433998D01*
Y493999D01*
X432998Y492999D01*
X471999Y277003D02*
X466001D01*
Y280002D01*
X467001Y281001D01*
X469000D01*
X470000Y280002D01*
Y277003D01*
Y279002D02*
X471999Y281001D01*
X466001Y286999D02*
X467001Y285000D01*
X469000Y283001D01*
X470999D01*
X471999Y284000D01*
Y286000D01*
X470999Y286999D01*
X470000D01*
X469000Y286000D01*
Y283001D01*
X467001Y288999D02*
X466001Y289998D01*
Y291998D01*
X467001Y292997D01*
X470999D01*
X471999Y291998D01*
Y289998D01*
X470999Y288999D01*
X467001D01*
X425999Y256628D02*
X420001D01*
Y259627D01*
X421001Y260626D01*
X423000D01*
X424000Y259627D01*
Y256628D01*
Y258627D02*
X425999Y260626D01*
X420001Y266624D02*
Y262626D01*
X423000D01*
X422000Y264625D01*
Y265625D01*
X423000Y266624D01*
X424999D01*
X425999Y265625D01*
Y263625D01*
X424999Y262626D01*
Y268624D02*
X425999Y269623D01*
Y271623D01*
X424999Y272622D01*
X421001D01*
X420001Y271623D01*
Y269623D01*
X421001Y268624D01*
X422000D01*
X423000Y269623D01*
Y272622D01*
X500001Y274997D02*
X505999D01*
Y271998D01*
X504999Y270999D01*
X503000D01*
X502000Y271998D01*
Y274997D01*
Y272998D02*
X500001Y270999D01*
X505999Y265001D02*
Y268999D01*
X503000D01*
X504000Y267000D01*
Y266000D01*
X503000Y265001D01*
X501001D01*
X500001Y266000D01*
Y268000D01*
X501001Y268999D01*
X504999Y263001D02*
X505999Y262002D01*
Y260002D01*
X504999Y259003D01*
X504000D01*
X503000Y260002D01*
X502000Y259003D01*
X501001D01*
X500001Y260002D01*
Y262002D01*
X501001Y263001D01*
X502000D01*
X503000Y262002D01*
X504000Y263001D01*
X504999D01*
X503000Y262002D02*
Y260002D01*
X320003Y619001D02*
Y624999D01*
X323002D01*
X324001Y623999D01*
Y622000D01*
X323002Y621000D01*
X320003D01*
X322002D02*
X324001Y619001D01*
X329999Y624999D02*
X326001D01*
Y622000D01*
X328000Y623000D01*
X329000D01*
X329999Y622000D01*
Y620001D01*
X329000Y619001D01*
X327000D01*
X326001Y620001D01*
X335997Y624999D02*
X331999D01*
Y622000D01*
X333998Y623000D01*
X334998D01*
X335997Y622000D01*
Y620001D01*
X334998Y619001D01*
X332998D01*
X331999Y620001D01*
X197024Y620550D02*
Y626548D01*
X200023D01*
X201023Y625548D01*
Y623549D01*
X200023Y622549D01*
X197024D01*
X199023D02*
X201023Y620550D01*
X207021Y626548D02*
X203022D01*
Y623549D01*
X205022Y624549D01*
X206021D01*
X207021Y623549D01*
Y621550D01*
X206021Y620550D01*
X204022D01*
X203022Y621550D01*
X212019Y620550D02*
Y626548D01*
X209020Y623549D01*
X213019D01*
X341253Y599251D02*
Y605249D01*
X344252D01*
X345251Y604249D01*
Y602250D01*
X344252Y601250D01*
X341253D01*
X343252D02*
X345251Y599251D01*
X351249Y605249D02*
X347251D01*
Y602250D01*
X349250Y603250D01*
X350250D01*
X351249Y602250D01*
Y600251D01*
X350250Y599251D01*
X348250D01*
X347251Y600251D01*
X353249Y604249D02*
X354248Y605249D01*
X356248D01*
X357247Y604249D01*
Y603250D01*
X356248Y602250D01*
X355248D01*
X356248D01*
X357247Y601250D01*
Y600251D01*
X356248Y599251D01*
X354248D01*
X353249Y600251D01*
X222003Y599001D02*
Y604999D01*
X225002D01*
X226001Y603999D01*
Y602000D01*
X225002Y601000D01*
X222003D01*
X224002D02*
X226001Y599001D01*
X231999Y604999D02*
X228001D01*
Y602000D01*
X230000Y603000D01*
X231000D01*
X231999Y602000D01*
Y600001D01*
X231000Y599001D01*
X229000D01*
X228001Y600001D01*
X237997Y599001D02*
X233999D01*
X237997Y603000D01*
Y603999D01*
X236998Y604999D01*
X234998D01*
X233999Y603999D01*
X335002Y425001D02*
Y430999D01*
X338001D01*
X339001Y429999D01*
Y428000D01*
X338001Y427000D01*
X335002D01*
X337002D02*
X339001Y425001D01*
X344999Y430999D02*
X341000D01*
Y428000D01*
X343000Y429000D01*
X343999D01*
X344999Y428000D01*
Y426001D01*
X343999Y425001D01*
X342000D01*
X341000Y426001D01*
X346998Y425001D02*
X348998D01*
X347998D01*
Y430999D01*
X346998Y429999D01*
X317003Y478001D02*
Y483999D01*
X320002D01*
X321001Y482999D01*
Y481000D01*
X320002Y480000D01*
X317003D01*
X319002D02*
X321001Y478001D01*
X326999Y483999D02*
X323001D01*
Y481000D01*
X325000Y482000D01*
X326000D01*
X326999Y481000D01*
Y479001D01*
X326000Y478001D01*
X324000D01*
X323001Y479001D01*
X328999Y482999D02*
X329998Y483999D01*
X331998D01*
X332998Y482999D01*
Y479001D01*
X331998Y478001D01*
X329998D01*
X328999Y479001D01*
Y482999D01*
X297003Y478001D02*
Y483999D01*
X300002D01*
X301001Y482999D01*
Y481000D01*
X300002Y480000D01*
X297003D01*
X299002D02*
X301001Y478001D01*
X306000D02*
Y483999D01*
X303001Y481000D01*
X306999D01*
X308999Y479001D02*
X309998Y478001D01*
X311998D01*
X312997Y479001D01*
Y482999D01*
X311998Y483999D01*
X309998D01*
X308999Y482999D01*
Y482000D01*
X309998Y481000D01*
X312997D01*
X194003Y478001D02*
Y483999D01*
X197002D01*
X198001Y482999D01*
Y481000D01*
X197002Y480000D01*
X194003D01*
X196002D02*
X198001Y478001D01*
X203000D02*
Y483999D01*
X200001Y481000D01*
X203999D01*
X205999Y482999D02*
X206998Y483999D01*
X208998D01*
X209998Y482999D01*
Y482000D01*
X208998Y481000D01*
X209998Y480000D01*
Y479001D01*
X208998Y478001D01*
X206998D01*
X205999Y479001D01*
Y480000D01*
X206998Y481000D01*
X205999Y482000D01*
Y482999D01*
X206998Y481000D02*
X208998D01*
X174003Y478001D02*
Y483999D01*
X177002D01*
X178001Y482999D01*
Y481000D01*
X177002Y480000D01*
X174003D01*
X176002D02*
X178001Y478001D01*
X183000D02*
Y483999D01*
X180001Y481000D01*
X183999D01*
X185999Y483999D02*
X189998D01*
Y482999D01*
X185999Y479001D01*
Y478001D01*
X198749Y256503D02*
X192751D01*
Y259502D01*
X193751Y260501D01*
X195750D01*
X196750Y259502D01*
Y256503D01*
Y258502D02*
X198749Y260501D01*
Y265500D02*
X192751D01*
X195750Y262501D01*
Y266499D01*
X192751Y272497D02*
X193751Y270498D01*
X195750Y268499D01*
X197749D01*
X198749Y269498D01*
Y271498D01*
X197749Y272497D01*
X196750D01*
X195750Y271498D01*
Y268499D01*
X166249Y257003D02*
X160251D01*
Y260002D01*
X161251Y261001D01*
X163250D01*
X164250Y260002D01*
Y257003D01*
Y259002D02*
X166249Y261001D01*
Y266000D02*
X160251D01*
X163250Y263001D01*
Y266999D01*
X160251Y272997D02*
Y268999D01*
X163250D01*
X162250Y270998D01*
Y271998D01*
X163250Y272997D01*
X165249D01*
X166249Y271998D01*
Y269998D01*
X165249Y268999D01*
X224003Y270001D02*
Y275999D01*
X227002D01*
X228001Y274999D01*
Y273000D01*
X227002Y272000D01*
X224003D01*
X226002D02*
X228001Y270001D01*
X233000D02*
Y275999D01*
X230001Y273000D01*
X233999D01*
X238998Y270001D02*
Y275999D01*
X235999Y273000D01*
X239998D01*
X317002Y710001D02*
Y715999D01*
X320001D01*
X321001Y714999D01*
Y713000D01*
X320001Y712000D01*
X317002D01*
X319002D02*
X321001Y710001D01*
X325999D02*
Y715999D01*
X323000Y713000D01*
X326999D01*
X328998Y710001D02*
X330998D01*
X329998D01*
Y715999D01*
X328998Y714999D01*
X370003Y666665D02*
Y672663D01*
X373002D01*
X374001Y671663D01*
Y669664D01*
X373002Y668664D01*
X370003D01*
X372002D02*
X374001Y666665D01*
X379000D02*
Y672663D01*
X376001Y669664D01*
X379999D01*
X381999Y671663D02*
X382998Y672663D01*
X384998D01*
X385997Y671663D01*
Y667664D01*
X384998Y666665D01*
X382998D01*
X381999Y667664D01*
Y671663D01*
X452003Y759501D02*
Y765499D01*
X455002D01*
X456001Y764499D01*
Y762500D01*
X455002Y761500D01*
X452003D01*
X454002D02*
X456001Y759501D01*
X458001Y764499D02*
X459000Y765499D01*
X461000D01*
X461999Y764499D01*
Y763500D01*
X461000Y762500D01*
X460000D01*
X461000D01*
X461999Y761500D01*
Y760501D01*
X461000Y759501D01*
X459000D01*
X458001Y760501D01*
X463999D02*
X464998Y759501D01*
X466998D01*
X467997Y760501D01*
Y764499D01*
X466998Y765499D01*
X464998D01*
X463999Y764499D01*
Y763500D01*
X464998Y762500D01*
X467997D01*
X319039Y729150D02*
X313041D01*
Y732149D01*
X314040Y733149D01*
X316040D01*
X317039Y732149D01*
Y729150D01*
Y731149D02*
X319039Y733149D01*
X314040Y735148D02*
X313041Y736148D01*
Y738147D01*
X314040Y739147D01*
X315040D01*
X316040Y738147D01*
Y737147D01*
Y738147D01*
X317039Y739147D01*
X318039D01*
X319039Y738147D01*
Y736148D01*
X318039Y735148D01*
X313041Y745145D02*
X314040Y743146D01*
X316040Y741146D01*
X318039D01*
X319039Y742146D01*
Y744145D01*
X318039Y745145D01*
X317039D01*
X316040Y744145D01*
Y741146D01*
X319716Y752964D02*
X313717D01*
Y755963D01*
X314717Y756963D01*
X316716D01*
X317716Y755963D01*
Y752964D01*
Y754963D02*
X319716Y756963D01*
X314717Y758962D02*
X313717Y759962D01*
Y761961D01*
X314717Y762961D01*
X315717D01*
X316716Y761961D01*
Y760961D01*
Y761961D01*
X317716Y762961D01*
X318716D01*
X319716Y761961D01*
Y759962D01*
X318716Y758962D01*
X313717Y768959D02*
Y764960D01*
X316716D01*
X315717Y766960D01*
Y767959D01*
X316716Y768959D01*
X318716D01*
X319716Y767959D01*
Y765960D01*
X318716Y764960D01*
X308565Y775061D02*
Y781060D01*
X311564D01*
X312564Y780060D01*
Y778061D01*
X311564Y777061D01*
X308565D01*
X310565D02*
X312564Y775061D01*
X314563Y780060D02*
X315563Y781060D01*
X317562D01*
X318562Y780060D01*
Y779060D01*
X317562Y778061D01*
X316563D01*
X317562D01*
X318562Y777061D01*
Y776061D01*
X317562Y775061D01*
X315563D01*
X314563Y776061D01*
X323560Y775061D02*
Y781060D01*
X320561Y778061D01*
X324560D01*
X278384Y762518D02*
Y768516D01*
X281383D01*
X282383Y767517D01*
Y765517D01*
X281383Y764518D01*
X278384D01*
X280383D02*
X282383Y762518D01*
X284382Y767517D02*
X285382Y768516D01*
X287381D01*
X288381Y767517D01*
Y766517D01*
X287381Y765517D01*
X286381D01*
X287381D01*
X288381Y764518D01*
Y763518D01*
X287381Y762518D01*
X285382D01*
X284382Y763518D01*
X290380Y767517D02*
X291380Y768516D01*
X293379D01*
X294379Y767517D01*
Y766517D01*
X293379Y765517D01*
X292379D01*
X293379D01*
X294379Y764518D01*
Y763518D01*
X293379Y762518D01*
X291380D01*
X290380Y763518D01*
X25503Y748501D02*
Y754499D01*
X28502D01*
X29501Y753499D01*
Y751500D01*
X28502Y750500D01*
X25503D01*
X27502D02*
X29501Y748501D01*
X31501Y753499D02*
X32500Y754499D01*
X34500D01*
X35499Y753499D01*
Y752500D01*
X34500Y751500D01*
X33500D01*
X34500D01*
X35499Y750500D01*
Y749501D01*
X34500Y748501D01*
X32500D01*
X31501Y749501D01*
X41497Y748501D02*
X37499D01*
X41497Y752500D01*
Y753499D01*
X40498Y754499D01*
X38498D01*
X37499Y753499D01*
X28252Y782501D02*
Y788499D01*
X31251D01*
X32251Y787499D01*
Y785500D01*
X31251Y784500D01*
X28252D01*
X30252D02*
X32251Y782501D01*
X34250Y787499D02*
X35250Y788499D01*
X37249D01*
X38249Y787499D01*
Y786500D01*
X37249Y785500D01*
X36250D01*
X37249D01*
X38249Y784500D01*
Y783501D01*
X37249Y782501D01*
X35250D01*
X34250Y783501D01*
X40248Y782501D02*
X42248D01*
X41248D01*
Y788499D01*
X40248Y787499D01*
X322001Y665997D02*
X327999D01*
Y662998D01*
X326999Y661999D01*
X325000D01*
X324000Y662998D01*
Y665997D01*
Y663998D02*
X322001Y661999D01*
X326999Y659999D02*
X327999Y659000D01*
Y657000D01*
X326999Y656001D01*
X326000D01*
X325000Y657000D01*
Y658000D01*
Y657000D01*
X324000Y656001D01*
X323001D01*
X322001Y657000D01*
Y659000D01*
X323001Y659999D01*
X326999Y654001D02*
X327999Y653002D01*
Y651002D01*
X326999Y650003D01*
X323001D01*
X322001Y651002D01*
Y653002D01*
X323001Y654001D01*
X326999D01*
X608003Y780001D02*
Y785999D01*
X611002D01*
X612001Y784999D01*
Y783000D01*
X611002Y782000D01*
X608003D01*
X610002D02*
X612001Y780001D01*
X617999D02*
X614001D01*
X617999Y784000D01*
Y784999D01*
X617000Y785999D01*
X615000D01*
X614001Y784999D01*
X619999Y785999D02*
X623997D01*
Y784999D01*
X619999Y781001D01*
Y780001D01*
X751955Y779436D02*
Y785434D01*
X754954D01*
X755954Y784435D01*
Y782435D01*
X754954Y781436D01*
X751955D01*
X753954D02*
X755954Y779436D01*
X761952D02*
X757953D01*
X761952Y783435D01*
Y784435D01*
X760952Y785434D01*
X758952D01*
X757953Y784435D01*
X767950Y785434D02*
X765950Y784435D01*
X763951Y782435D01*
Y780436D01*
X764951Y779436D01*
X766950D01*
X767950Y780436D01*
Y781436D01*
X766950Y782435D01*
X763951D01*
X623003Y759001D02*
Y764999D01*
X626002D01*
X627001Y763999D01*
Y762000D01*
X626002Y761000D01*
X623003D01*
X625002D02*
X627001Y759001D01*
X632999D02*
X629001D01*
X632999Y763000D01*
Y763999D01*
X632000Y764999D01*
X630000D01*
X629001Y763999D01*
X638997Y764999D02*
X634999D01*
Y762000D01*
X636998Y763000D01*
X637998D01*
X638997Y762000D01*
Y760001D01*
X637998Y759001D01*
X635998D01*
X634999Y760001D01*
X769606Y758987D02*
Y764985D01*
X772605D01*
X773604Y763985D01*
Y761986D01*
X772605Y760986D01*
X769606D01*
X771605D02*
X773604Y758987D01*
X779602D02*
X775604D01*
X779602Y762986D01*
Y763985D01*
X778603Y764985D01*
X776603D01*
X775604Y763985D01*
X784601Y758987D02*
Y764985D01*
X781602Y761986D01*
X785601D01*
X636247Y645249D02*
Y639251D01*
X633248D01*
X632249Y640251D01*
Y642250D01*
X633248Y643250D01*
X636247D01*
X634248D02*
X632249Y645249D01*
X626251D02*
X630249D01*
X626251Y641250D01*
Y640251D01*
X627250Y639251D01*
X629250D01*
X630249Y640251D01*
X624251D02*
X623252Y639251D01*
X621252D01*
X620253Y640251D01*
Y641250D01*
X621252Y642250D01*
X622252D01*
X621252D01*
X620253Y643250D01*
Y644249D01*
X621252Y645249D01*
X623252D01*
X624251Y644249D01*
X613997Y646249D02*
Y640251D01*
X610998D01*
X609999Y641251D01*
Y643250D01*
X610998Y644250D01*
X613997D01*
X611998D02*
X609999Y646249D01*
X604001D02*
X607999D01*
X604001Y642250D01*
Y641251D01*
X605000Y640251D01*
X607000D01*
X607999Y641251D01*
X598003Y646249D02*
X602001D01*
X598003Y642250D01*
Y641251D01*
X599002Y640251D01*
X601002D01*
X602001Y641251D01*
X760502Y622001D02*
Y627999D01*
X763501D01*
X764501Y626999D01*
Y625000D01*
X763501Y624000D01*
X760502D01*
X762502D02*
X764501Y622001D01*
X770499D02*
X766500D01*
X770499Y626000D01*
Y626999D01*
X769499Y627999D01*
X767500D01*
X766500Y626999D01*
X772498Y622001D02*
X774498D01*
X773498D01*
Y627999D01*
X772498Y626999D01*
X737003Y622001D02*
Y627999D01*
X740002D01*
X741001Y626999D01*
Y625000D01*
X740002Y624000D01*
X737003D01*
X739002D02*
X741001Y622001D01*
X746999D02*
X743001D01*
X746999Y626000D01*
Y626999D01*
X746000Y627999D01*
X744000D01*
X743001Y626999D01*
X748999D02*
X749998Y627999D01*
X751998D01*
X752997Y626999D01*
Y623001D01*
X751998Y622001D01*
X749998D01*
X748999Y623001D01*
Y626999D01*
X697503Y394501D02*
Y400499D01*
X700501D01*
X701501Y399499D01*
Y397500D01*
X700501Y396500D01*
X697503D01*
X699502D02*
X701501Y394501D01*
X703501D02*
X705500D01*
X704500D01*
Y400499D01*
X703501Y399499D01*
X708499Y395501D02*
X709499Y394501D01*
X711498D01*
X712498Y395501D01*
Y399499D01*
X711498Y400499D01*
X709499D01*
X708499Y399499D01*
Y398500D01*
X709499Y397500D01*
X712498D01*
X652503Y394501D02*
Y400499D01*
X655501D01*
X656501Y399499D01*
Y397500D01*
X655501Y396500D01*
X652503D01*
X654502D02*
X656501Y394501D01*
X658501D02*
X660500D01*
X659500D01*
Y400499D01*
X658501Y399499D01*
X663499D02*
X664499Y400499D01*
X666498D01*
X667498Y399499D01*
Y398500D01*
X666498Y397500D01*
X667498Y396500D01*
Y395501D01*
X666498Y394501D01*
X664499D01*
X663499Y395501D01*
Y396500D01*
X664499Y397500D01*
X663499Y398500D01*
Y399499D01*
X664499Y397500D02*
X666498D01*
X740003Y395501D02*
Y401499D01*
X743001D01*
X744001Y400499D01*
Y398500D01*
X743001Y397500D01*
X740003D01*
X742002D02*
X744001Y395501D01*
X746001D02*
X748000D01*
X747000D01*
Y401499D01*
X746001Y400499D01*
X750999Y401499D02*
X754998D01*
Y400499D01*
X750999Y396501D01*
Y395501D01*
X122164Y154751D02*
Y160749D01*
X125163D01*
X126163Y159749D01*
Y157750D01*
X125163Y156750D01*
X122164D01*
X124164D02*
X126163Y154751D01*
X128162D02*
X130162D01*
X129162D01*
Y160749D01*
X128162Y159749D01*
X136160Y154751D02*
Y160749D01*
X133161Y157750D01*
X137159D01*
X182395Y153822D02*
Y159821D01*
X185394D01*
X186394Y158821D01*
Y156822D01*
X185394Y155822D01*
X182395D01*
X184395D02*
X186394Y153822D01*
X188393D02*
X190393D01*
X189393D01*
Y159821D01*
X188393Y158821D01*
X193392D02*
X194391Y159821D01*
X196391D01*
X197390Y158821D01*
Y157821D01*
X196391Y156822D01*
X195391D01*
X196391D01*
X197390Y155822D01*
Y154822D01*
X196391Y153822D01*
X194391D01*
X193392Y154822D01*
X66303Y153501D02*
Y159499D01*
X69303D01*
X70302Y158499D01*
Y156500D01*
X69303Y155500D01*
X66303D01*
X68303D02*
X70302Y153501D01*
X72302D02*
X74301D01*
X73301D01*
Y159499D01*
X72302Y158499D01*
X81299Y153501D02*
X77300D01*
X81299Y157500D01*
Y158499D01*
X80299Y159499D01*
X78299D01*
X77300Y158499D01*
X661753Y197001D02*
Y202999D01*
X664752D01*
X665751Y201999D01*
Y200000D01*
X664752Y199000D01*
X661753D01*
X663752D02*
X665751Y197001D01*
X671749Y202999D02*
X669750Y201999D01*
X667751Y200000D01*
Y198001D01*
X668750Y197001D01*
X670750D01*
X671749Y198001D01*
Y199000D01*
X670750Y200000D01*
X667751D01*
X673749Y202999D02*
Y197001D01*
X676748D01*
X677747Y198001D01*
Y201999D01*
X676748Y202999D01*
X673749D01*
X508003Y183001D02*
Y188999D01*
X511002D01*
X512001Y187999D01*
Y186000D01*
X511002Y185000D01*
X508003D01*
X510002D02*
X512001Y183001D01*
X517999Y188999D02*
X516000Y187999D01*
X514001Y186000D01*
Y184001D01*
X515000Y183001D01*
X517000D01*
X517999Y184001D01*
Y185000D01*
X517000Y186000D01*
X514001D01*
X523997Y187999D02*
X522998Y188999D01*
X520998D01*
X519999Y187999D01*
Y184001D01*
X520998Y183001D01*
X522998D01*
X523997Y184001D01*
X407749Y177003D02*
X401751D01*
Y180002D01*
X402751Y181001D01*
X404750D01*
X405750Y180002D01*
Y177003D01*
Y179002D02*
X407749Y181001D01*
X401751Y186999D02*
X402751Y185000D01*
X404750Y183001D01*
X406749D01*
X407749Y184000D01*
Y186000D01*
X406749Y186999D01*
X405750D01*
X404750Y186000D01*
Y183001D01*
X401751Y188999D02*
X407749D01*
Y191998D01*
X406749Y192997D01*
X405750D01*
X404750Y191998D01*
Y188999D01*
Y191998D01*
X403750Y192997D01*
X402751D01*
X401751Y191998D01*
Y188999D01*
X294999Y176003D02*
X289001D01*
Y179002D01*
X290001Y180001D01*
X292000D01*
X293000Y179002D01*
Y176003D01*
Y178002D02*
X294999Y180001D01*
X289001Y185999D02*
X290001Y184000D01*
X292000Y182001D01*
X293999D01*
X294999Y183000D01*
Y185000D01*
X293999Y185999D01*
X293000D01*
X292000Y185000D01*
Y182001D01*
X294999Y187999D02*
X291000D01*
X289001Y189998D01*
X291000Y191997D01*
X294999D01*
X292000D01*
Y187999D01*
X647001Y248997D02*
X652999D01*
Y245998D01*
X651999Y244999D01*
X650000D01*
X649000Y245998D01*
Y248997D01*
Y246998D02*
X647001Y244999D01*
X652999Y239001D02*
Y242999D01*
X650000D01*
X651000Y241000D01*
Y240000D01*
X650000Y239001D01*
X648001D01*
X647001Y240000D01*
Y242000D01*
X648001Y242999D01*
X652999Y237001D02*
X647001D01*
Y234002D01*
X648001Y233003D01*
X651999D01*
X652999Y234002D01*
Y237001D01*
X519003Y216001D02*
Y221999D01*
X522002D01*
X523001Y220999D01*
Y219000D01*
X522002Y218000D01*
X519003D01*
X521002D02*
X523001Y216001D01*
X528999Y221999D02*
X525001D01*
Y219000D01*
X527000Y220000D01*
X528000D01*
X528999Y219000D01*
Y217001D01*
X528000Y216001D01*
X526000D01*
X525001Y217001D01*
X534997Y220999D02*
X533998Y221999D01*
X531998D01*
X530999Y220999D01*
Y217001D01*
X531998Y216001D01*
X533998D01*
X534997Y217001D01*
X397999Y198753D02*
X392001D01*
Y201752D01*
X393001Y202751D01*
X395000D01*
X396000Y201752D01*
Y198753D01*
Y200752D02*
X397999Y202751D01*
X392001Y208749D02*
Y204751D01*
X395000D01*
X394000Y206750D01*
Y207750D01*
X395000Y208749D01*
X396999D01*
X397999Y207750D01*
Y205750D01*
X396999Y204751D01*
X392001Y210749D02*
X397999D01*
Y213748D01*
X396999Y214747D01*
X396000D01*
X395000Y213748D01*
Y210749D01*
Y213748D01*
X394000Y214747D01*
X393001D01*
X392001Y213748D01*
Y210749D01*
X283749Y197753D02*
X277751D01*
Y200752D01*
X278751Y201751D01*
X280750D01*
X281750Y200752D01*
Y197753D01*
Y199752D02*
X283749Y201751D01*
X277751Y207749D02*
Y203751D01*
X280750D01*
X279750Y205750D01*
Y206750D01*
X280750Y207749D01*
X282749D01*
X283749Y206750D01*
Y204750D01*
X282749Y203751D01*
X283749Y209749D02*
X279750D01*
X277751Y211748D01*
X279750Y213747D01*
X283749D01*
X280750D01*
Y209749D01*
X580003Y122001D02*
Y127999D01*
X583002D01*
X584001Y126999D01*
Y125000D01*
X583002Y124000D01*
X580003D01*
X582002D02*
X584001Y122001D01*
X589000D02*
Y127999D01*
X586001Y125000D01*
X589999D01*
X591999Y127999D02*
Y122001D01*
X594998D01*
X595997Y123001D01*
Y126999D01*
X594998Y127999D01*
X591999D01*
X466003Y121001D02*
Y126999D01*
X469002D01*
X470001Y125999D01*
Y124000D01*
X469002Y123000D01*
X466003D01*
X468002D02*
X470001Y121001D01*
X475000D02*
Y126999D01*
X472001Y124000D01*
X475999D01*
X481997Y125999D02*
X480998Y126999D01*
X478998D01*
X477999Y125999D01*
Y122001D01*
X478998Y121001D01*
X480998D01*
X481997Y122001D01*
X350003Y121001D02*
Y126999D01*
X353002D01*
X354001Y125999D01*
Y124000D01*
X353002Y123000D01*
X350003D01*
X352002D02*
X354001Y121001D01*
X359000D02*
Y126999D01*
X356001Y124000D01*
X359999D01*
X361999Y126999D02*
Y121001D01*
X364998D01*
X365997Y122001D01*
Y123000D01*
X364998Y124000D01*
X361999D01*
X364998D01*
X365997Y125000D01*
Y125999D01*
X364998Y126999D01*
X361999D01*
X234003Y122001D02*
Y127999D01*
X237002D01*
X238001Y126999D01*
Y125000D01*
X237002Y124000D01*
X234003D01*
X236002D02*
X238001Y122001D01*
X243000D02*
Y127999D01*
X240001Y125000D01*
X243999D01*
X245999Y122001D02*
Y126000D01*
X247998Y127999D01*
X249997Y126000D01*
Y122001D01*
Y125000D01*
X245999D01*
X684499Y158003D02*
X678501D01*
Y161002D01*
X679501Y162001D01*
X681500D01*
X682500Y161002D01*
Y158003D01*
Y160002D02*
X684499Y162001D01*
X679501Y164001D02*
X678501Y165000D01*
Y167000D01*
X679501Y167999D01*
X680500D01*
X681500Y167000D01*
Y166000D01*
Y167000D01*
X682500Y167999D01*
X683499D01*
X684499Y167000D01*
Y165000D01*
X683499Y164001D01*
X678501Y169999D02*
X684499D01*
Y172998D01*
X683499Y173997D01*
X679501D01*
X678501Y172998D01*
Y169999D01*
X563003Y163001D02*
Y168999D01*
X566002D01*
X567001Y167999D01*
Y166000D01*
X566002Y165000D01*
X563003D01*
X565002D02*
X567001Y163001D01*
X569001Y167999D02*
X570000Y168999D01*
X572000D01*
X572999Y167999D01*
Y167000D01*
X572000Y166000D01*
X571000D01*
X572000D01*
X572999Y165000D01*
Y164001D01*
X572000Y163001D01*
X570000D01*
X569001Y164001D01*
X578997Y167999D02*
X577998Y168999D01*
X575998D01*
X574999Y167999D01*
Y164001D01*
X575998Y163001D01*
X577998D01*
X578997Y164001D01*
X448003Y164001D02*
Y169999D01*
X451002D01*
X452001Y168999D01*
Y167000D01*
X451002Y166000D01*
X448003D01*
X450002D02*
X452001Y164001D01*
X454001Y168999D02*
X455000Y169999D01*
X457000D01*
X457999Y168999D01*
Y168000D01*
X457000Y167000D01*
X456000D01*
X457000D01*
X457999Y166000D01*
Y165001D01*
X457000Y164001D01*
X455000D01*
X454001Y165001D01*
X459999Y169999D02*
Y164001D01*
X462998D01*
X463997Y165001D01*
Y166000D01*
X462998Y167000D01*
X459999D01*
X462998D01*
X463997Y168000D01*
Y168999D01*
X462998Y169999D01*
X459999D01*
X333253Y165001D02*
Y170999D01*
X336252D01*
X337251Y169999D01*
Y168000D01*
X336252Y167000D01*
X333253D01*
X335252D02*
X337251Y165001D01*
X339251Y169999D02*
X340250Y170999D01*
X342250D01*
X343249Y169999D01*
Y169000D01*
X342250Y168000D01*
X341250D01*
X342250D01*
X343249Y167000D01*
Y166001D01*
X342250Y165001D01*
X340250D01*
X339251Y166001D01*
X345249Y165001D02*
Y169000D01*
X347248Y170999D01*
X349247Y169000D01*
Y165001D01*
Y168000D01*
X345249D01*
X661003Y129001D02*
Y134999D01*
X664002D01*
X665001Y133999D01*
Y132000D01*
X664002Y131000D01*
X661003D01*
X663002D02*
X665001Y129001D01*
X670999D02*
X667001D01*
X670999Y133000D01*
Y133999D01*
X670000Y134999D01*
X668000D01*
X667001Y133999D01*
X672999Y134999D02*
Y129001D01*
X675998D01*
X676997Y130001D01*
Y133999D01*
X675998Y134999D01*
X672999D01*
X550003Y129001D02*
Y134999D01*
X553002D01*
X554001Y133999D01*
Y132000D01*
X553002Y131000D01*
X550003D01*
X552002D02*
X554001Y129001D01*
X559999D02*
X556001D01*
X559999Y133000D01*
Y133999D01*
X559000Y134999D01*
X557000D01*
X556001Y133999D01*
X565997D02*
X564998Y134999D01*
X562998D01*
X561999Y133999D01*
Y130001D01*
X562998Y129001D01*
X564998D01*
X565997Y130001D01*
X320003Y128001D02*
Y133999D01*
X323002D01*
X324001Y132999D01*
Y131000D01*
X323002Y130000D01*
X320003D01*
X322002D02*
X324001Y128001D01*
X329999D02*
X326001D01*
X329999Y132000D01*
Y132999D01*
X329000Y133999D01*
X327000D01*
X326001Y132999D01*
X331999Y128001D02*
Y132000D01*
X333998Y133999D01*
X335997Y132000D01*
Y128001D01*
Y131000D01*
X331999D01*
X662001Y115247D02*
X667999D01*
Y112248D01*
X666999Y111249D01*
X665000D01*
X664000Y112248D01*
Y115247D01*
Y113248D02*
X662001Y111249D01*
Y109249D02*
Y107250D01*
Y108250D01*
X667999D01*
X666999Y109249D01*
X667999Y104251D02*
X662001D01*
Y101252D01*
X663001Y100252D01*
X666999D01*
X667999Y101252D01*
Y104251D01*
X545001Y117498D02*
X550999D01*
Y114499D01*
X549999Y113499D01*
X548000D01*
X547000Y114499D01*
Y117498D01*
Y115498D02*
X545001Y113499D01*
Y111500D02*
Y109500D01*
Y110500D01*
X550999D01*
X549999Y111500D01*
Y102502D02*
X550999Y103502D01*
Y105501D01*
X549999Y106501D01*
X546001D01*
X545001Y105501D01*
Y103502D01*
X546001Y102502D01*
X430001Y116497D02*
X435999D01*
Y113498D01*
X434999Y112499D01*
X433000D01*
X432000Y113498D01*
Y116497D01*
Y114498D02*
X430001Y112499D01*
Y110499D02*
Y108500D01*
Y109500D01*
X435999D01*
X434999Y110499D01*
X435999Y105501D02*
X430001D01*
Y102502D01*
X431001Y101502D01*
X432000D01*
X433000Y102502D01*
Y105501D01*
Y102502D01*
X434000Y101502D01*
X434999D01*
X435999Y102502D01*
Y105501D01*
X316001Y117498D02*
X321999D01*
Y114499D01*
X320999Y113499D01*
X319000D01*
X318000Y114499D01*
Y117498D01*
Y115498D02*
X316001Y113499D01*
Y111500D02*
Y109500D01*
Y110500D01*
X321999D01*
X320999Y111500D01*
X316001Y106501D02*
X320000D01*
X321999Y104502D01*
X320000Y102502D01*
X316001D01*
X319000D01*
Y106501D01*
X714999Y264001D02*
X711001D01*
X710001Y263002D01*
Y261002D01*
X711001Y260003D01*
X714999D01*
X715999Y261002D01*
Y263002D01*
X714000Y262002D02*
X715999Y264001D01*
Y263002D02*
X714999Y264001D01*
X711001Y266001D02*
X710001Y267000D01*
Y269000D01*
X711001Y269999D01*
X712000D01*
X713000Y269000D01*
Y268000D01*
Y269000D01*
X714000Y269999D01*
X714999D01*
X715999Y269000D01*
Y267000D01*
X714999Y266001D01*
X710001Y271999D02*
X715999D01*
Y274998D01*
X714999Y275997D01*
X714000D01*
X713000Y274998D01*
Y271999D01*
Y274998D01*
X712000Y275997D01*
X711001D01*
X710001Y274998D01*
Y271999D01*
X721001Y391001D02*
Y394999D01*
X720002Y395999D01*
X718002D01*
X717003Y394999D01*
Y391001D01*
X718002Y390001D01*
X720002D01*
X719002Y392000D02*
X721001Y390001D01*
X720002D02*
X721001Y391001D01*
X723001Y394999D02*
X724000Y395999D01*
X726000D01*
X726999Y394999D01*
Y394000D01*
X726000Y393000D01*
X725000D01*
X726000D01*
X726999Y392000D01*
Y391001D01*
X726000Y390001D01*
X724000D01*
X723001Y391001D01*
X728999Y390001D02*
Y394000D01*
X730998Y395999D01*
X732997Y394000D01*
Y390001D01*
Y393000D01*
X728999D01*
X295000Y662001D02*
Y665999D01*
X294000Y666999D01*
X292001D01*
X291001Y665999D01*
Y662001D01*
X292001Y661001D01*
X294000D01*
X293001Y663000D02*
X295000Y661001D01*
X294000D02*
X295000Y662001D01*
X296999Y661001D02*
X298999D01*
X297999D01*
Y666999D01*
X296999Y665999D01*
X382002Y478999D02*
Y473001D01*
X386000D01*
X391998Y478999D02*
X388000D01*
Y476000D01*
X389999Y477000D01*
X390999D01*
X391998Y476000D01*
Y474001D01*
X390999Y473001D01*
X388999D01*
X388000Y474001D01*
X110501Y453502D02*
X116499D01*
Y457500D01*
Y462499D02*
X110501D01*
X113500Y459500D01*
Y463498D01*
X199708Y810162D02*
Y804163D01*
X203707D01*
X205706Y809162D02*
X206706Y810162D01*
X208705D01*
X209705Y809162D01*
Y808162D01*
X208705Y807162D01*
X207705D01*
X208705D01*
X209705Y806163D01*
Y805163D01*
X208705Y804163D01*
X206706D01*
X205706Y805163D01*
X629002Y603249D02*
Y597251D01*
X633000D01*
X638998D02*
X635000D01*
X638998Y601250D01*
Y602249D01*
X637999Y603249D01*
X635999D01*
X635000Y602249D01*
X713687Y85348D02*
Y83348D01*
Y84348D01*
X718685D01*
X719685Y83348D01*
Y82349D01*
X718685Y81349D01*
X719685Y91346D02*
Y87347D01*
X715686Y91346D01*
X714687D01*
X713687Y90346D01*
Y88347D01*
X714687Y87347D01*
X54002Y617999D02*
Y612001D01*
X57001D01*
X58000Y613001D01*
Y616999D01*
X57001Y617999D01*
X54002D01*
X60000Y613001D02*
X60999Y612001D01*
X62999D01*
X63998Y613001D01*
Y616999D01*
X62999Y617999D01*
X60999D01*
X60000Y616999D01*
Y616000D01*
X60999Y615000D01*
X63998D01*
X92002Y617999D02*
Y612001D01*
X95001D01*
X96000Y613001D01*
Y616999D01*
X95001Y617999D01*
X92002D01*
X98000Y616999D02*
X98999Y617999D01*
X100999D01*
X101998Y616999D01*
Y616000D01*
X100999Y615000D01*
X101998Y614000D01*
Y613001D01*
X100999Y612001D01*
X98999D01*
X98000Y613001D01*
Y614000D01*
X98999Y615000D01*
X98000Y616000D01*
Y616999D01*
X98999Y615000D02*
X100999D01*
X572253Y156749D02*
Y150751D01*
X575252D01*
X576251Y151751D01*
Y155749D01*
X575252Y156749D01*
X572253D01*
X578251Y155749D02*
X579250Y156749D01*
X581250D01*
X582249Y155749D01*
Y154750D01*
X581250Y153750D01*
X582249Y152750D01*
Y151751D01*
X581250Y150751D01*
X579250D01*
X578251Y151751D01*
Y152750D01*
X579250Y153750D01*
X578251Y154750D01*
Y155749D01*
X579250Y153750D02*
X581250D01*
X584249Y156749D02*
Y150751D01*
X587248D01*
X588247Y151751D01*
Y155749D01*
X587248Y156749D01*
X584249D01*
X456253Y156999D02*
Y151001D01*
X459252D01*
X460251Y152001D01*
Y155999D01*
X459252Y156999D01*
X456253D01*
X462251Y155999D02*
X463250Y156999D01*
X465250D01*
X466249Y155999D01*
Y155000D01*
X465250Y154000D01*
X466249Y153000D01*
Y152001D01*
X465250Y151001D01*
X463250D01*
X462251Y152001D01*
Y153000D01*
X463250Y154000D01*
X462251Y155000D01*
Y155999D01*
X463250Y154000D02*
X465250D01*
X472247Y155999D02*
X471248Y156999D01*
X469248D01*
X468249Y155999D01*
Y152001D01*
X469248Y151001D01*
X471248D01*
X472247Y152001D01*
X338370Y157381D02*
Y151383D01*
X341369D01*
X342369Y152382D01*
Y156381D01*
X341369Y157381D01*
X338370D01*
X344368Y156381D02*
X345368Y157381D01*
X347367D01*
X348367Y156381D01*
Y155381D01*
X347367Y154382D01*
X348367Y153382D01*
Y152382D01*
X347367Y151383D01*
X345368D01*
X344368Y152382D01*
Y153382D01*
X345368Y154382D01*
X344368Y155381D01*
Y156381D01*
X345368Y154382D02*
X347367D01*
X350366Y157381D02*
Y151383D01*
X353365D01*
X354365Y152382D01*
Y153382D01*
X353365Y154382D01*
X350366D01*
X353365D01*
X354365Y155381D01*
Y156381D01*
X353365Y157381D01*
X350366D01*
X226003Y156999D02*
Y151001D01*
X229002D01*
X230001Y152001D01*
Y155999D01*
X229002Y156999D01*
X226003D01*
X232001Y155999D02*
X233000Y156999D01*
X235000D01*
X235999Y155999D01*
Y155000D01*
X235000Y154000D01*
X235999Y153000D01*
Y152001D01*
X235000Y151001D01*
X233000D01*
X232001Y152001D01*
Y153000D01*
X233000Y154000D01*
X232001Y155000D01*
Y155999D01*
X233000Y154000D02*
X235000D01*
X237999Y151001D02*
Y155000D01*
X239998Y156999D01*
X241997Y155000D01*
Y151001D01*
Y154000D01*
X237999D01*
X465002Y510999D02*
Y505001D01*
X468001D01*
X469000Y506001D01*
Y509999D01*
X468001Y510999D01*
X465002D01*
X471000D02*
X474998D01*
Y509999D01*
X471000Y506001D01*
Y505001D01*
X356002Y430999D02*
Y425001D01*
X359001D01*
X360000Y426001D01*
Y429999D01*
X359001Y430999D01*
X356002D01*
X365998D02*
X363999Y429999D01*
X362000Y428000D01*
Y426001D01*
X362999Y425001D01*
X364999D01*
X365998Y426001D01*
Y427000D01*
X364999Y428000D01*
X362000D01*
X103664Y160749D02*
Y154751D01*
X106663D01*
X107662Y155751D01*
Y159749D01*
X106663Y160749D01*
X103664D01*
X112661Y154751D02*
Y160749D01*
X109662Y157750D01*
X113660D01*
X165164Y159749D02*
Y153751D01*
X168163D01*
X169162Y154751D01*
Y158749D01*
X168163Y159749D01*
X165164D01*
X171162Y158749D02*
X172161Y159749D01*
X174161D01*
X175161Y158749D01*
Y157750D01*
X174161Y156750D01*
X173161D01*
X174161D01*
X175161Y155750D01*
Y154751D01*
X174161Y153751D01*
X172161D01*
X171162Y154751D01*
X48803Y159499D02*
Y153501D01*
X51802D01*
X52801Y154501D01*
Y158499D01*
X51802Y159499D01*
X48803D01*
X58799Y153501D02*
X54801D01*
X58799Y157500D01*
Y158499D01*
X57800Y159499D01*
X55800D01*
X54801Y158499D01*
X539001Y584502D02*
X538001Y583503D01*
Y581503D01*
X539001Y580503D01*
X542999D01*
X543999Y581503D01*
Y583503D01*
X542999Y584502D01*
X543999Y586502D02*
Y588501D01*
Y587501D01*
X538001D01*
X539001Y586502D01*
Y591500D02*
X538001Y592500D01*
Y594499D01*
X539001Y595499D01*
X542999D01*
X543999Y594499D01*
Y592500D01*
X542999Y591500D01*
X539001D01*
Y597498D02*
X538001Y598498D01*
Y600497D01*
X539001Y601497D01*
X540000D01*
X541000Y600497D01*
X542000Y601497D01*
X542999D01*
X543999Y600497D01*
Y598498D01*
X542999Y597498D01*
X542000D01*
X541000Y598498D01*
X540000Y597498D01*
X539001D01*
X541000Y598498D02*
Y600497D01*
X410001Y583502D02*
X409001Y582502D01*
Y580503D01*
X410001Y579503D01*
X413999D01*
X414999Y580503D01*
Y582502D01*
X413999Y583502D01*
X414999Y585502D02*
Y587501D01*
Y586501D01*
X409001D01*
X410001Y585502D01*
Y590500D02*
X409001Y591499D01*
Y593499D01*
X410001Y594498D01*
X413999D01*
X414999Y593499D01*
Y591499D01*
X413999Y590500D01*
X410001D01*
X409001Y596498D02*
Y600497D01*
X410001D01*
X413999Y596498D01*
X414999D01*
X288001Y573502D02*
X287001Y572503D01*
Y570503D01*
X288001Y569503D01*
X291999D01*
X292999Y570503D01*
Y572503D01*
X291999Y573502D01*
X292999Y575502D02*
Y577501D01*
Y576501D01*
X287001D01*
X288001Y575502D01*
Y580500D02*
X287001Y581499D01*
Y583499D01*
X288001Y584499D01*
X291999D01*
X292999Y583499D01*
Y581499D01*
X291999Y580500D01*
X288001D01*
X287001Y590497D02*
X288001Y588497D01*
X290000Y586498D01*
X291999D01*
X292999Y587498D01*
Y589497D01*
X291999Y590497D01*
X291000D01*
X290000Y589497D01*
Y586498D01*
X111502Y575999D02*
X110502Y576999D01*
X108503D01*
X107503Y575999D01*
Y572001D01*
X108503Y571001D01*
X110502D01*
X111502Y572001D01*
X113502Y571001D02*
X115501D01*
X114501D01*
Y576999D01*
X113502Y575999D01*
X118500D02*
X119500Y576999D01*
X121499D01*
X122499Y575999D01*
Y572001D01*
X121499Y571001D01*
X119500D01*
X118500Y572001D01*
Y575999D01*
X128497Y576999D02*
X124498D01*
Y574000D01*
X126497Y575000D01*
X127497D01*
X128497Y574000D01*
Y572001D01*
X127497Y571001D01*
X125498D01*
X124498Y572001D01*
X405502Y669336D02*
X404502Y670335D01*
X402503D01*
X401503Y669336D01*
Y665337D01*
X402503Y664337D01*
X404502D01*
X405502Y665337D01*
X407501Y664337D02*
X409501D01*
X408501D01*
Y670335D01*
X407501Y669336D01*
X412500D02*
X413499Y670335D01*
X415499D01*
X416498Y669336D01*
Y665337D01*
X415499Y664337D01*
X413499D01*
X412500Y665337D01*
Y669336D01*
X421497Y664337D02*
Y670335D01*
X418498Y667336D01*
X422497D01*
X664502Y736999D02*
X663503Y737999D01*
X661503D01*
X660503Y736999D01*
Y733001D01*
X661503Y732001D01*
X663503D01*
X664502Y733001D01*
X666501Y732001D02*
X668501D01*
X667501D01*
Y737999D01*
X666501Y736999D01*
X671500D02*
X672499Y737999D01*
X674499D01*
X675499Y736999D01*
Y733001D01*
X674499Y732001D01*
X672499D01*
X671500Y733001D01*
Y736999D01*
X677498D02*
X678498Y737999D01*
X680497D01*
X681497Y736999D01*
Y736000D01*
X680497Y735000D01*
X679497D01*
X680497D01*
X681497Y734000D01*
Y733001D01*
X680497Y732001D01*
X678498D01*
X677498Y733001D01*
X512502Y741999D02*
X511502Y742999D01*
X509503D01*
X508503Y741999D01*
Y738001D01*
X509503Y737001D01*
X511502D01*
X512502Y738001D01*
X514501Y737001D02*
X516501D01*
X515501D01*
Y742999D01*
X514501Y741999D01*
X519500D02*
X520499Y742999D01*
X522499D01*
X523498Y741999D01*
Y738001D01*
X522499Y737001D01*
X520499D01*
X519500Y738001D01*
Y741999D01*
X529497Y737001D02*
X525498D01*
X529497Y741000D01*
Y741999D01*
X528497Y742999D01*
X526498D01*
X525498Y741999D01*
X596001Y249003D02*
X595001Y248003D01*
Y246004D01*
X596001Y245004D01*
X599999D01*
X600999Y246004D01*
Y248003D01*
X599999Y249003D01*
X600999Y251002D02*
Y253002D01*
Y252002D01*
X595001D01*
X596001Y251002D01*
Y256001D02*
X595001Y257000D01*
Y259000D01*
X596001Y259999D01*
X599999D01*
X600999Y259000D01*
Y257000D01*
X599999Y256001D01*
X596001D01*
X600999Y261999D02*
Y263998D01*
Y262998D01*
X595001D01*
X596001Y261999D01*
X595001Y266997D02*
X600999D01*
Y269996D01*
X599999Y270996D01*
X596001D01*
X595001Y269996D01*
Y266997D01*
X480003Y251999D02*
X479003Y252999D01*
X477004D01*
X476004Y251999D01*
Y248001D01*
X477004Y247001D01*
X479003D01*
X480003Y248001D01*
X482002Y247001D02*
X484002D01*
X483002D01*
Y252999D01*
X482002Y251999D01*
X487001D02*
X488000Y252999D01*
X490000D01*
X490999Y251999D01*
Y248001D01*
X490000Y247001D01*
X488000D01*
X487001Y248001D01*
Y251999D01*
X492999Y247001D02*
X494998D01*
X493998D01*
Y252999D01*
X492999Y251999D01*
X501996D02*
X500996Y252999D01*
X498997D01*
X497997Y251999D01*
Y248001D01*
X498997Y247001D01*
X500996D01*
X501996Y248001D01*
X366003Y249999D02*
X365003Y250999D01*
X363004D01*
X362004Y249999D01*
Y246001D01*
X363004Y245001D01*
X365003D01*
X366003Y246001D01*
X368002Y245001D02*
X370002D01*
X369002D01*
Y250999D01*
X368002Y249999D01*
X373001D02*
X374000Y250999D01*
X376000D01*
X376999Y249999D01*
Y246001D01*
X376000Y245001D01*
X374000D01*
X373001Y246001D01*
Y249999D01*
X378999Y245001D02*
X380998D01*
X379998D01*
Y250999D01*
X378999Y249999D01*
X383997Y250999D02*
Y245001D01*
X386996D01*
X387996Y246001D01*
Y247000D01*
X386996Y248000D01*
X383997D01*
X386996D01*
X387996Y249000D01*
Y249999D01*
X386996Y250999D01*
X383997D01*
X252003Y249999D02*
X251003Y250999D01*
X249004D01*
X248004Y249999D01*
Y246001D01*
X249004Y245001D01*
X251003D01*
X252003Y246001D01*
X254002Y245001D02*
X256002D01*
X255002D01*
Y250999D01*
X254002Y249999D01*
X259001D02*
X260000Y250999D01*
X262000D01*
X262999Y249999D01*
Y246001D01*
X262000Y245001D01*
X260000D01*
X259001Y246001D01*
Y249999D01*
X264999Y245001D02*
X266998D01*
X265998D01*
Y250999D01*
X264999Y249999D01*
X269997Y245001D02*
Y249000D01*
X271996Y250999D01*
X273996Y249000D01*
Y245001D01*
Y248000D01*
X269997D01*
X137363Y248821D02*
X136364Y249820D01*
X134364D01*
X133365Y248821D01*
Y244822D01*
X134364Y243822D01*
X136364D01*
X137363Y244822D01*
X139363D02*
X140362Y243822D01*
X142362D01*
X143361Y244822D01*
Y248821D01*
X142362Y249820D01*
X140362D01*
X139363Y248821D01*
Y247821D01*
X140362Y246821D01*
X143361D01*
X145361Y248821D02*
X146360Y249820D01*
X148360D01*
X149359Y248821D01*
Y244822D01*
X148360Y243822D01*
X146360D01*
X145361Y244822D01*
Y248821D01*
X801002Y202999D02*
X800003Y203999D01*
X798003D01*
X797004Y202999D01*
Y199001D01*
X798003Y198001D01*
X800003D01*
X801002Y199001D01*
X803002Y202999D02*
X804001Y203999D01*
X806001D01*
X807000Y202999D01*
Y202000D01*
X806001Y201000D01*
X807000Y200000D01*
Y199001D01*
X806001Y198001D01*
X804001D01*
X803002Y199001D01*
Y200000D01*
X804001Y201000D01*
X803002Y202000D01*
Y202999D01*
X804001Y201000D02*
X806001D01*
X809000Y199001D02*
X809999Y198001D01*
X811999D01*
X812998Y199001D01*
Y202999D01*
X811999Y203999D01*
X809999D01*
X809000Y202999D01*
Y202000D01*
X809999Y201000D01*
X812998D01*
X814998Y203999D02*
Y198001D01*
X817997D01*
X818997Y199001D01*
Y200000D01*
X817997Y201000D01*
X814998D01*
X817997D01*
X818997Y202000D01*
Y202999D01*
X817997Y203999D01*
X814998D01*
X732002Y303999D02*
X731003Y304999D01*
X729003D01*
X728004Y303999D01*
Y300001D01*
X729003Y299001D01*
X731003D01*
X732002Y300001D01*
X734002Y303999D02*
X735001Y304999D01*
X737001D01*
X738000Y303999D01*
Y303000D01*
X737001Y302000D01*
X738000Y301000D01*
Y300001D01*
X737001Y299001D01*
X735001D01*
X734002Y300001D01*
Y301000D01*
X735001Y302000D01*
X734002Y303000D01*
Y303999D01*
X735001Y302000D02*
X737001D01*
X740000Y300001D02*
X740999Y299001D01*
X742999D01*
X743998Y300001D01*
Y303999D01*
X742999Y304999D01*
X740999D01*
X740000Y303999D01*
Y303000D01*
X740999Y302000D01*
X743998D01*
X745998Y299001D02*
Y303000D01*
X747997Y304999D01*
X749996Y303000D01*
Y299001D01*
Y302000D01*
X745998D01*
X697002Y160999D02*
X696003Y161999D01*
X694003D01*
X693004Y160999D01*
Y157001D01*
X694003Y156001D01*
X696003D01*
X697002Y157001D01*
X699002Y160999D02*
X700001Y161999D01*
X702001D01*
X703000Y160999D01*
Y160000D01*
X702001Y159000D01*
X703000Y158000D01*
Y157001D01*
X702001Y156001D01*
X700001D01*
X699002Y157001D01*
Y158000D01*
X700001Y159000D01*
X699002Y160000D01*
Y160999D01*
X700001Y159000D02*
X702001D01*
X705000Y160999D02*
X705999Y161999D01*
X707999D01*
X708998Y160999D01*
Y160000D01*
X707999Y159000D01*
X708998Y158000D01*
Y157001D01*
X707999Y156001D01*
X705999D01*
X705000Y157001D01*
Y158000D01*
X705999Y159000D01*
X705000Y160000D01*
Y160999D01*
X705999Y159000D02*
X707999D01*
X710998Y161999D02*
Y156001D01*
X713997D01*
X714996Y157001D01*
Y158000D01*
X713997Y159000D01*
X710998D01*
X713997D01*
X714996Y160000D01*
Y160999D01*
X713997Y161999D01*
X710998D01*
X659502Y380249D02*
X658503Y381249D01*
X656503D01*
X655504Y380249D01*
Y376251D01*
X656503Y375251D01*
X658503D01*
X659502Y376251D01*
X661502Y380249D02*
X662501Y381249D01*
X664501D01*
X665500Y380249D01*
Y379250D01*
X664501Y378250D01*
X665500Y377250D01*
Y376251D01*
X664501Y375251D01*
X662501D01*
X661502Y376251D01*
Y377250D01*
X662501Y378250D01*
X661502Y379250D01*
Y380249D01*
X662501Y378250D02*
X664501D01*
X667500Y380249D02*
X668499Y381249D01*
X670499D01*
X671498Y380249D01*
Y379250D01*
X670499Y378250D01*
X671498Y377250D01*
Y376251D01*
X670499Y375251D01*
X668499D01*
X667500Y376251D01*
Y377250D01*
X668499Y378250D01*
X667500Y379250D01*
Y380249D01*
X668499Y378250D02*
X670499D01*
X673498Y375251D02*
Y379250D01*
X675497Y381249D01*
X677496Y379250D01*
Y375251D01*
Y378250D01*
X673498D01*
X615001Y566001D02*
X614001Y565002D01*
Y563002D01*
X615001Y562003D01*
X618999D01*
X619999Y563002D01*
Y565002D01*
X618999Y566001D01*
X615001Y568001D02*
X614001Y569000D01*
Y571000D01*
X615001Y571999D01*
X616000D01*
X617000Y571000D01*
X618000Y571999D01*
X618999D01*
X619999Y571000D01*
Y569000D01*
X618999Y568001D01*
X618000D01*
X617000Y569000D01*
X616000Y568001D01*
X615001D01*
X617000Y569000D02*
Y571000D01*
X614001Y573999D02*
Y577997D01*
X615001D01*
X618999Y573999D01*
X619999D01*
X486501Y564001D02*
X485501Y563002D01*
Y561002D01*
X486501Y560003D01*
X490499D01*
X491499Y561002D01*
Y563002D01*
X490499Y564001D01*
X486501Y566001D02*
X485501Y567000D01*
Y569000D01*
X486501Y569999D01*
X487500D01*
X488500Y569000D01*
X489500Y569999D01*
X490499D01*
X491499Y569000D01*
Y567000D01*
X490499Y566001D01*
X489500D01*
X488500Y567000D01*
X487500Y566001D01*
X486501D01*
X488500Y567000D02*
Y569000D01*
X485501Y575997D02*
X486501Y573998D01*
X488500Y571999D01*
X490499D01*
X491499Y572998D01*
Y574998D01*
X490499Y575997D01*
X489500D01*
X488500Y574998D01*
Y571999D01*
X599001Y592999D02*
X598002Y593999D01*
X596002D01*
X595003Y592999D01*
Y589001D01*
X596002Y588001D01*
X598002D01*
X599001Y589001D01*
X601001Y592999D02*
X602000Y593999D01*
X604000D01*
X604999Y592999D01*
Y592000D01*
X604000Y591000D01*
X604999Y590000D01*
Y589001D01*
X604000Y588001D01*
X602000D01*
X601001Y589001D01*
Y590000D01*
X602000Y591000D01*
X601001Y592000D01*
Y592999D01*
X602000Y591000D02*
X604000D01*
X610997Y593999D02*
X606999D01*
Y591000D01*
X608998Y592000D01*
X609998D01*
X610997Y591000D01*
Y589001D01*
X609998Y588001D01*
X607998D01*
X606999Y589001D01*
X470501Y590999D02*
X469502Y591999D01*
X467502D01*
X466503Y590999D01*
Y587001D01*
X467502Y586001D01*
X469502D01*
X470501Y587001D01*
X472501Y590999D02*
X473500Y591999D01*
X475500D01*
X476499Y590999D01*
Y590000D01*
X475500Y589000D01*
X476499Y588000D01*
Y587001D01*
X475500Y586001D01*
X473500D01*
X472501Y587001D01*
Y588000D01*
X473500Y589000D01*
X472501Y590000D01*
Y590999D01*
X473500Y589000D02*
X475500D01*
X481498Y586001D02*
Y591999D01*
X478499Y589000D01*
X482497D01*
X492001Y524999D02*
X491002Y525999D01*
X489002D01*
X488003Y524999D01*
Y521001D01*
X489002Y520001D01*
X491002D01*
X492001Y521001D01*
X494001Y524999D02*
X495000Y525999D01*
X497000D01*
X497999Y524999D01*
Y524000D01*
X497000Y523000D01*
X497999Y522000D01*
Y521001D01*
X497000Y520001D01*
X495000D01*
X494001Y521001D01*
Y522000D01*
X495000Y523000D01*
X494001Y524000D01*
Y524999D01*
X495000Y523000D02*
X497000D01*
X499999Y524999D02*
X500998Y525999D01*
X502998D01*
X503997Y524999D01*
Y524000D01*
X502998Y523000D01*
X501998D01*
X502998D01*
X503997Y522000D01*
Y521001D01*
X502998Y520001D01*
X500998D01*
X499999Y521001D01*
X391220Y508999D02*
X390220Y509999D01*
X388221D01*
X387221Y508999D01*
Y505001D01*
X388221Y504001D01*
X390220D01*
X391220Y505001D01*
X393219Y508999D02*
X394219Y509999D01*
X396218D01*
X397218Y508999D01*
Y508000D01*
X396218Y507000D01*
X397218Y506000D01*
Y505001D01*
X396218Y504001D01*
X394219D01*
X393219Y505001D01*
Y506000D01*
X394219Y507000D01*
X393219Y508000D01*
Y508999D01*
X394219Y507000D02*
X396218D01*
X403216Y504001D02*
X399217D01*
X403216Y508000D01*
Y508999D01*
X402216Y509999D01*
X400217D01*
X399217Y508999D01*
X438001Y260371D02*
X437001Y259371D01*
Y257372D01*
X438001Y256372D01*
X441999D01*
X442999Y257372D01*
Y259371D01*
X441999Y260371D01*
X438001Y262370D02*
X437001Y263370D01*
Y265369D01*
X438001Y266369D01*
X439000D01*
X440000Y265369D01*
X441000Y266369D01*
X441999D01*
X442999Y265369D01*
Y263370D01*
X441999Y262370D01*
X441000D01*
X440000Y263370D01*
X439000Y262370D01*
X438001D01*
X440000Y263370D02*
Y265369D01*
X442999Y268368D02*
Y270368D01*
Y269368D01*
X437001D01*
X438001Y268368D01*
X491001Y425251D02*
X490001Y424252D01*
Y422252D01*
X491001Y421253D01*
X494999D01*
X495999Y422252D01*
Y424252D01*
X494999Y425251D01*
X491001Y427251D02*
X490001Y428250D01*
Y430250D01*
X491001Y431249D01*
X492000D01*
X493000Y430250D01*
X494000Y431249D01*
X494999D01*
X495999Y430250D01*
Y428250D01*
X494999Y427251D01*
X494000D01*
X493000Y428250D01*
X492000Y427251D01*
X491001D01*
X493000Y428250D02*
Y430250D01*
X491001Y433249D02*
X490001Y434248D01*
Y436248D01*
X491001Y437247D01*
X494999D01*
X495999Y436248D01*
Y434248D01*
X494999Y433249D01*
X491001D01*
X512001Y417501D02*
X511001Y416502D01*
Y414502D01*
X512001Y413503D01*
X515999D01*
X516999Y414502D01*
Y416502D01*
X515999Y417501D01*
X511001Y419501D02*
Y423499D01*
X512001D01*
X515999Y419501D01*
X516999D01*
X515999Y425499D02*
X516999Y426498D01*
Y428498D01*
X515999Y429497D01*
X512001D01*
X511001Y428498D01*
Y426498D01*
X512001Y425499D01*
X513000D01*
X514000Y426498D01*
Y429497D01*
X539751Y413499D02*
X538752Y414499D01*
X536752D01*
X535753Y413499D01*
Y409501D01*
X536752Y408501D01*
X538752D01*
X539751Y409501D01*
X541751Y414499D02*
X545749D01*
Y413499D01*
X541751Y409501D01*
Y408501D01*
X547749Y413499D02*
X548748Y414499D01*
X550748D01*
X551747Y413499D01*
Y412500D01*
X550748Y411500D01*
X551747Y410500D01*
Y409501D01*
X550748Y408501D01*
X548748D01*
X547749Y409501D01*
Y410500D01*
X548748Y411500D01*
X547749Y412500D01*
Y413499D01*
X548748Y411500D02*
X550748D01*
X602001Y424001D02*
X601001Y423002D01*
Y421002D01*
X602001Y420003D01*
X605999D01*
X606999Y421002D01*
Y423002D01*
X605999Y424001D01*
X601001Y426001D02*
Y429999D01*
X602001D01*
X605999Y426001D01*
X606999D01*
X601001Y431999D02*
Y435997D01*
X602001D01*
X605999Y431999D01*
X606999D01*
X388001Y336999D02*
X387002Y337999D01*
X385002D01*
X384003Y336999D01*
Y333001D01*
X385002Y332001D01*
X387002D01*
X388001Y333001D01*
X390001Y337999D02*
X393999D01*
Y336999D01*
X390001Y333001D01*
Y332001D01*
X399997Y337999D02*
X397998Y336999D01*
X395999Y335000D01*
Y333001D01*
X396998Y332001D01*
X398998D01*
X399997Y333001D01*
Y334000D01*
X398998Y335000D01*
X395999D01*
X387501Y314999D02*
X386502Y315999D01*
X384502D01*
X383503Y314999D01*
Y311001D01*
X384502Y310001D01*
X386502D01*
X387501Y311001D01*
X389501Y315999D02*
X393499D01*
Y314999D01*
X389501Y311001D01*
Y310001D01*
X399497Y315999D02*
X395499D01*
Y313000D01*
X397498Y314000D01*
X398498D01*
X399497Y313000D01*
Y311001D01*
X398498Y310001D01*
X396498D01*
X395499Y311001D01*
X491001Y356001D02*
X490001Y355002D01*
Y353002D01*
X491001Y352003D01*
X494999D01*
X495999Y353002D01*
Y355002D01*
X494999Y356001D01*
X490001Y358001D02*
Y361999D01*
X491001D01*
X494999Y358001D01*
X495999D01*
Y366998D02*
X490001D01*
X493000Y363999D01*
Y367997D01*
X511001Y382499D02*
X510002Y383499D01*
X508002D01*
X507003Y382499D01*
Y378501D01*
X508002Y377501D01*
X510002D01*
X511001Y378501D01*
X513001Y383499D02*
X516999D01*
Y382499D01*
X513001Y378501D01*
Y377501D01*
X518999Y382499D02*
X519998Y383499D01*
X521998D01*
X522997Y382499D01*
Y381500D01*
X521998Y380500D01*
X520998D01*
X521998D01*
X522997Y379500D01*
Y378501D01*
X521998Y377501D01*
X519998D01*
X518999Y378501D01*
X544001Y382249D02*
X543001Y383249D01*
X541002D01*
X540002Y382249D01*
Y378251D01*
X541002Y377251D01*
X543001D01*
X544001Y378251D01*
X546000Y383249D02*
X549999D01*
Y382249D01*
X546000Y378251D01*
Y377251D01*
X551998D02*
X553998D01*
X552998D01*
Y383249D01*
X551998Y382249D01*
X363918Y554001D02*
X362918Y553002D01*
Y551002D01*
X363918Y550003D01*
X367916D01*
X368916Y551002D01*
Y553002D01*
X367916Y554001D01*
X362918Y556001D02*
Y559999D01*
X363918D01*
X367916Y556001D01*
X368916D01*
X363918Y561999D02*
X362918Y562998D01*
Y564998D01*
X363918Y565997D01*
X367916D01*
X368916Y564998D01*
Y562998D01*
X367916Y561999D01*
X363918D01*
X243001Y560999D02*
X242002Y561999D01*
X240002D01*
X239003Y560999D01*
Y557001D01*
X240002Y556001D01*
X242002D01*
X243001Y557001D01*
X248999Y561999D02*
X247000Y560999D01*
X245001Y559000D01*
Y557001D01*
X246000Y556001D01*
X248000D01*
X248999Y557001D01*
Y558000D01*
X248000Y559000D01*
X245001D01*
X250999Y557001D02*
X251998Y556001D01*
X253998D01*
X254997Y557001D01*
Y560999D01*
X253998Y561999D01*
X251998D01*
X250999Y560999D01*
Y560000D01*
X251998Y559000D01*
X254997D01*
X348001Y581999D02*
X347002Y582999D01*
X345002D01*
X344003Y581999D01*
Y578001D01*
X345002Y577001D01*
X347002D01*
X348001Y578001D01*
X353999Y582999D02*
X352000Y581999D01*
X350001Y580000D01*
Y578001D01*
X351000Y577001D01*
X353000D01*
X353999Y578001D01*
Y579000D01*
X353000Y580000D01*
X350001D01*
X355999Y581999D02*
X356998Y582999D01*
X358998D01*
X359997Y581999D01*
Y581000D01*
X358998Y580000D01*
X359997Y579000D01*
Y578001D01*
X358998Y577001D01*
X356998D01*
X355999Y578001D01*
Y579000D01*
X356998Y580000D01*
X355999Y581000D01*
Y581999D01*
X356998Y580000D02*
X358998D01*
X227001Y582999D02*
X226002Y583999D01*
X224002D01*
X223003Y582999D01*
Y579001D01*
X224002Y578001D01*
X226002D01*
X227001Y579001D01*
X232999Y583999D02*
X231000Y582999D01*
X229001Y581000D01*
Y579001D01*
X230000Y578001D01*
X232000D01*
X232999Y579001D01*
Y580000D01*
X232000Y581000D01*
X229001D01*
X234999Y583999D02*
X238997D01*
Y582999D01*
X234999Y579001D01*
Y578001D01*
X239001Y513999D02*
X238002Y514999D01*
X236002D01*
X235003Y513999D01*
Y510001D01*
X236002Y509001D01*
X238002D01*
X239001Y510001D01*
X244999Y514999D02*
X243000Y513999D01*
X241001Y512000D01*
Y510001D01*
X242000Y509001D01*
X244000D01*
X244999Y510001D01*
Y511000D01*
X244000Y512000D01*
X241001D01*
X250997Y514999D02*
X248998Y513999D01*
X246999Y512000D01*
Y510001D01*
X247998Y509001D01*
X249998D01*
X250997Y510001D01*
Y511000D01*
X249998Y512000D01*
X246999D01*
X115593Y516716D02*
X114593Y517716D01*
X112594D01*
X111594Y516716D01*
Y512718D01*
X112594Y511718D01*
X114593D01*
X115593Y512718D01*
X121591Y517716D02*
X119592Y516716D01*
X117592Y514717D01*
Y512718D01*
X118592Y511718D01*
X120591D01*
X121591Y512718D01*
Y513717D01*
X120591Y514717D01*
X117592D01*
X127589Y517716D02*
X123590D01*
Y514717D01*
X125590Y515717D01*
X126589D01*
X127589Y514717D01*
Y512718D01*
X126589Y511718D01*
X124590D01*
X123590Y512718D01*
X178251Y258746D02*
X177251Y257747D01*
Y255747D01*
X178251Y254748D01*
X182249D01*
X183249Y255747D01*
Y257747D01*
X182249Y258746D01*
X177251Y264744D02*
X178251Y262745D01*
X180250Y260746D01*
X182249D01*
X183249Y261745D01*
Y263745D01*
X182249Y264744D01*
X181250D01*
X180250Y263745D01*
Y260746D01*
X183249Y269743D02*
X177251D01*
X180250Y266744D01*
Y270742D01*
X232637Y425287D02*
X231637Y424287D01*
Y422288D01*
X232637Y421288D01*
X236636D01*
X237635Y422288D01*
Y424287D01*
X236636Y425287D01*
X231637Y431285D02*
X232637Y429285D01*
X234636Y427286D01*
X236636D01*
X237635Y428286D01*
Y430285D01*
X236636Y431285D01*
X235636D01*
X234636Y430285D01*
Y427286D01*
X232637Y433284D02*
X231637Y434284D01*
Y436283D01*
X232637Y437283D01*
X233637D01*
X234636Y436283D01*
Y435284D01*
Y436283D01*
X235636Y437283D01*
X236636D01*
X237635Y436283D01*
Y434284D01*
X236636Y433284D01*
X251983Y418676D02*
X250984Y417676D01*
Y415677D01*
X251983Y414677D01*
X255982D01*
X256982Y415677D01*
Y417676D01*
X255982Y418676D01*
X250984Y424674D02*
X251983Y422674D01*
X253983Y420675D01*
X255982D01*
X256982Y421675D01*
Y423674D01*
X255982Y424674D01*
X254982D01*
X253983Y423674D01*
Y420675D01*
X256982Y430672D02*
Y426673D01*
X252983Y430672D01*
X251983D01*
X250984Y429672D01*
Y427673D01*
X251983Y426673D01*
X277649Y414426D02*
X276649Y413426D01*
Y411427D01*
X277649Y410427D01*
X281648D01*
X282647Y411427D01*
Y413426D01*
X281648Y414426D01*
X276649Y420424D02*
X277649Y418424D01*
X279648Y416425D01*
X281648D01*
X282647Y417425D01*
Y419424D01*
X281648Y420424D01*
X280648D01*
X279648Y419424D01*
Y416425D01*
X282647Y422423D02*
Y424422D01*
Y423423D01*
X276649D01*
X277649Y422423D01*
X308001Y401001D02*
X307001Y400002D01*
Y398002D01*
X308001Y397003D01*
X311999D01*
X312999Y398002D01*
Y400002D01*
X311999Y401001D01*
X307001Y406999D02*
X308001Y405000D01*
X310000Y403001D01*
X311999D01*
X312999Y404000D01*
Y406000D01*
X311999Y406999D01*
X311000D01*
X310000Y406000D01*
Y403001D01*
X308001Y408999D02*
X307001Y409998D01*
Y411998D01*
X308001Y412997D01*
X311999D01*
X312999Y411998D01*
Y409998D01*
X311999Y408999D01*
X308001D01*
X131001Y336999D02*
X130002Y337999D01*
X128002D01*
X127003Y336999D01*
Y333001D01*
X128002Y332001D01*
X130002D01*
X131001Y333001D01*
X136999Y337999D02*
X133001D01*
Y335000D01*
X135000Y336000D01*
X136000D01*
X136999Y335000D01*
Y333001D01*
X136000Y332001D01*
X134000D01*
X133001Y333001D01*
X138999D02*
X139998Y332001D01*
X141998D01*
X142997Y333001D01*
Y336999D01*
X141998Y337999D01*
X139998D01*
X138999Y336999D01*
Y336000D01*
X139998Y335000D01*
X142997D01*
X129501Y315999D02*
X128502Y316999D01*
X126502D01*
X125503Y315999D01*
Y312001D01*
X126502Y311001D01*
X128502D01*
X129501Y312001D01*
X135499Y316999D02*
X131501D01*
Y314000D01*
X133500Y315000D01*
X134500D01*
X135499Y314000D01*
Y312001D01*
X134500Y311001D01*
X132500D01*
X131501Y312001D01*
X137499Y315999D02*
X138498Y316999D01*
X140498D01*
X141497Y315999D01*
Y315000D01*
X140498Y314000D01*
X141497Y313000D01*
Y312001D01*
X140498Y311001D01*
X138498D01*
X137499Y312001D01*
Y313000D01*
X138498Y314000D01*
X137499Y315000D01*
Y315999D01*
X138498Y314000D02*
X140498D01*
X237001Y353501D02*
X236001Y352502D01*
Y350502D01*
X237001Y349503D01*
X240999D01*
X241999Y350502D01*
Y352502D01*
X240999Y353501D01*
X236001Y359499D02*
Y355501D01*
X239000D01*
X238000Y357500D01*
Y358500D01*
X239000Y359499D01*
X240999D01*
X241999Y358500D01*
Y356500D01*
X240999Y355501D01*
X236001Y361499D02*
Y365497D01*
X237001D01*
X240999Y361499D01*
X241999D01*
X288001Y382499D02*
X287002Y383499D01*
X285002D01*
X284003Y382499D01*
Y378501D01*
X285002Y377501D01*
X287002D01*
X288001Y378501D01*
X293999Y383499D02*
X290001D01*
Y380500D01*
X292000Y381500D01*
X293000D01*
X293999Y380500D01*
Y378501D01*
X293000Y377501D01*
X291000D01*
X290001Y378501D01*
X299998Y383499D02*
X297998Y382499D01*
X295999Y380500D01*
Y378501D01*
X296999Y377501D01*
X298998D01*
X299998Y378501D01*
Y379500D01*
X298998Y380500D01*
X295999D01*
X257001Y381999D02*
X256002Y382999D01*
X254002D01*
X253003Y381999D01*
Y378001D01*
X254002Y377001D01*
X256002D01*
X257001Y378001D01*
X262999Y382999D02*
X259001D01*
Y380000D01*
X261000Y381000D01*
X262000D01*
X262999Y380000D01*
Y378001D01*
X262000Y377001D01*
X260000D01*
X259001Y378001D01*
X268997Y382999D02*
X264999D01*
Y380000D01*
X266998Y381000D01*
X267998D01*
X268997Y380000D01*
Y378001D01*
X267998Y377001D01*
X265998D01*
X264999Y378001D01*
X413501Y801163D02*
X412502Y802163D01*
X410502D01*
X409503Y801163D01*
Y797164D01*
X410502Y796165D01*
X412502D01*
X413501Y797164D01*
X419499Y802163D02*
X415501D01*
Y799164D01*
X417500Y800163D01*
X418500D01*
X419499Y799164D01*
Y797164D01*
X418500Y796165D01*
X416500D01*
X415501Y797164D01*
X421499Y801163D02*
X422498Y802163D01*
X424498D01*
X425497Y801163D01*
Y800163D01*
X424498Y799164D01*
X423498D01*
X424498D01*
X425497Y798164D01*
Y797164D01*
X424498Y796165D01*
X422498D01*
X421499Y797164D01*
X462499Y745335D02*
X463499Y746335D01*
Y748334D01*
X462499Y749334D01*
X458501D01*
X457501Y748334D01*
Y746335D01*
X458501Y745335D01*
X463499Y739337D02*
Y743336D01*
X460500D01*
X461500Y741336D01*
Y740337D01*
X460500Y739337D01*
X458501D01*
X457501Y740337D01*
Y742336D01*
X458501Y743336D01*
X457501Y733339D02*
Y737337D01*
X461500Y733339D01*
X462499D01*
X463499Y734339D01*
Y736338D01*
X462499Y737337D01*
X30251Y770499D02*
X29251Y771499D01*
X27252D01*
X26252Y770499D01*
Y766501D01*
X27252Y765501D01*
X29251D01*
X30251Y766501D01*
X36249Y771499D02*
X32250D01*
Y768500D01*
X34250Y769500D01*
X35249D01*
X36249Y768500D01*
Y766501D01*
X35249Y765501D01*
X33250D01*
X32250Y766501D01*
X38248Y765501D02*
X40248D01*
X39248D01*
Y771499D01*
X38248Y770499D01*
X201251Y734251D02*
X200251Y733252D01*
Y731252D01*
X201251Y730253D01*
X205249D01*
X206249Y731252D01*
Y733252D01*
X205249Y734251D01*
X200251Y740249D02*
Y736251D01*
X203250D01*
X202250Y738250D01*
Y739250D01*
X203250Y740249D01*
X205249D01*
X206249Y739250D01*
Y737250D01*
X205249Y736251D01*
X201251Y742249D02*
X200251Y743248D01*
Y745248D01*
X201251Y746247D01*
X205249D01*
X206249Y745248D01*
Y743248D01*
X205249Y742249D01*
X201251D01*
X258001Y725001D02*
X257001Y724002D01*
Y722002D01*
X258001Y721003D01*
X261999D01*
X262999Y722002D01*
Y724002D01*
X261999Y725001D01*
X262999Y730000D02*
X257001D01*
X260000Y727001D01*
Y730999D01*
X261999Y732999D02*
X262999Y733998D01*
Y735998D01*
X261999Y736997D01*
X258001D01*
X257001Y735998D01*
Y733998D01*
X258001Y732999D01*
X259000D01*
X260000Y733998D01*
Y736997D01*
X226007Y725047D02*
X225007Y724048D01*
Y722048D01*
X226007Y721049D01*
X230005D01*
X231005Y722048D01*
Y724048D01*
X230005Y725047D01*
X231005Y730046D02*
X225007D01*
X228006Y727047D01*
Y731045D01*
X226007Y733045D02*
X225007Y734044D01*
Y736044D01*
X226007Y737044D01*
X227006D01*
X228006Y736044D01*
X229006Y737044D01*
X230005D01*
X231005Y736044D01*
Y734044D01*
X230005Y733045D01*
X229006D01*
X228006Y734044D01*
X227006Y733045D01*
X226007D01*
X228006Y734044D02*
Y736044D01*
X104001Y818999D02*
X103002Y819999D01*
X101002D01*
X100003Y818999D01*
Y815001D01*
X101002Y814001D01*
X103002D01*
X104001Y815001D01*
X109000Y814001D02*
Y819999D01*
X106001Y817000D01*
X109999D01*
X111999Y819999D02*
X115997D01*
Y818999D01*
X111999Y815001D01*
Y814001D01*
X81001Y814999D02*
X80002Y815999D01*
X78002D01*
X77003Y814999D01*
Y811001D01*
X78002Y810001D01*
X80002D01*
X81001Y811001D01*
X86000Y810001D02*
Y815999D01*
X83001Y813000D01*
X86999D01*
X92997Y815999D02*
X90998Y814999D01*
X88999Y813000D01*
Y811001D01*
X89998Y810001D01*
X91998D01*
X92997Y811001D01*
Y812000D01*
X91998Y813000D01*
X88999D01*
X131590Y727899D02*
X130590Y728899D01*
X128591D01*
X127591Y727899D01*
Y723901D01*
X128591Y722901D01*
X130590D01*
X131590Y723901D01*
X136588Y722901D02*
Y728899D01*
X133589Y725900D01*
X137588D01*
X143586Y728899D02*
X139587D01*
Y725900D01*
X141587Y726900D01*
X142586D01*
X143586Y725900D01*
Y723901D01*
X142586Y722901D01*
X140587D01*
X139587Y723901D01*
X147001Y703999D02*
X146002Y704999D01*
X144002D01*
X143003Y703999D01*
Y700001D01*
X144002Y699001D01*
X146002D01*
X147001Y700001D01*
X152000Y699001D02*
Y704999D01*
X149001Y702000D01*
X152999D01*
X157998Y699001D02*
Y704999D01*
X154999Y702000D01*
X158997D01*
X147001Y672999D02*
X146002Y673999D01*
X144002D01*
X143003Y672999D01*
Y669001D01*
X144002Y668001D01*
X146002D01*
X147001Y669001D01*
X152000Y668001D02*
Y673999D01*
X149001Y671000D01*
X152999D01*
X154999Y672999D02*
X155998Y673999D01*
X157998D01*
X158997Y672999D01*
Y672000D01*
X157998Y671000D01*
X156998D01*
X157998D01*
X158997Y670000D01*
Y669001D01*
X157998Y668001D01*
X155998D01*
X154999Y669001D01*
X655001Y721999D02*
X654001Y722999D01*
X652002D01*
X651002Y721999D01*
Y718001D01*
X652002Y717001D01*
X654001D01*
X655001Y718001D01*
X659999Y717001D02*
Y722999D01*
X657000Y720000D01*
X660999D01*
X662998Y717001D02*
X664998D01*
X663998D01*
Y722999D01*
X662998Y721999D01*
X793900Y715152D02*
X792901Y714152D01*
Y712153D01*
X793900Y711153D01*
X797899D01*
X798899Y712153D01*
Y714152D01*
X797899Y715152D01*
X798899Y720150D02*
X792901D01*
X795900Y717151D01*
Y721150D01*
X793900Y723149D02*
X792901Y724149D01*
Y726148D01*
X793900Y727148D01*
X797899D01*
X798899Y726148D01*
Y724149D01*
X797899Y723149D01*
X793900D01*
X632001Y744999D02*
X631002Y745999D01*
X629002D01*
X628003Y744999D01*
Y741001D01*
X629002Y740001D01*
X631002D01*
X632001Y741001D01*
X634001Y744999D02*
X635000Y745999D01*
X637000D01*
X637999Y744999D01*
Y744000D01*
X637000Y743000D01*
X636000D01*
X637000D01*
X637999Y742000D01*
Y741001D01*
X637000Y740001D01*
X635000D01*
X634001Y741001D01*
X639999D02*
X640998Y740001D01*
X642998D01*
X643997Y741001D01*
Y744999D01*
X642998Y745999D01*
X640998D01*
X639999Y744999D01*
Y744000D01*
X640998Y743000D01*
X643997D01*
X529001Y679999D02*
X528002Y680999D01*
X526002D01*
X525003Y679999D01*
Y676001D01*
X526002Y675001D01*
X528002D01*
X529001Y676001D01*
X531001Y679999D02*
X532000Y680999D01*
X534000D01*
X534999Y679999D01*
Y679000D01*
X534000Y678000D01*
X533000D01*
X534000D01*
X534999Y677000D01*
Y676001D01*
X534000Y675001D01*
X532000D01*
X531001Y676001D01*
X536999Y679999D02*
X537998Y680999D01*
X539998D01*
X540997Y679999D01*
Y679000D01*
X539998Y678000D01*
X540997Y677000D01*
Y676001D01*
X539998Y675001D01*
X537998D01*
X536999Y676001D01*
Y677000D01*
X537998Y678000D01*
X536999Y679000D01*
Y679999D01*
X537998Y678000D02*
X539998D01*
X776403Y743321D02*
X775403Y744321D01*
X773404D01*
X772404Y743321D01*
Y739322D01*
X773404Y738323D01*
X775403D01*
X776403Y739322D01*
X778402Y743321D02*
X779402Y744321D01*
X781401D01*
X782401Y743321D01*
Y742321D01*
X781401Y741322D01*
X780401D01*
X781401D01*
X782401Y740322D01*
Y739322D01*
X781401Y738323D01*
X779402D01*
X778402Y739322D01*
X784400Y744321D02*
X788399D01*
Y743321D01*
X784400Y739322D01*
Y738323D01*
X673001Y676999D02*
X672002Y677999D01*
X670002D01*
X669003Y676999D01*
Y673001D01*
X670002Y672001D01*
X672002D01*
X673001Y673001D01*
X675001Y676999D02*
X676000Y677999D01*
X678000D01*
X678999Y676999D01*
Y676000D01*
X678000Y675000D01*
X677000D01*
X678000D01*
X678999Y674000D01*
Y673001D01*
X678000Y672001D01*
X676000D01*
X675001Y673001D01*
X684997Y677999D02*
X682998Y676999D01*
X680999Y675000D01*
Y673001D01*
X681998Y672001D01*
X683998D01*
X684997Y673001D01*
Y674000D01*
X683998Y675000D01*
X680999D01*
X678501Y399499D02*
X677502Y400499D01*
X675502D01*
X674503Y399499D01*
Y395501D01*
X675502Y394501D01*
X677502D01*
X678501Y395501D01*
X680501Y399499D02*
X681500Y400499D01*
X683500D01*
X684499Y399499D01*
Y398500D01*
X683500Y397500D01*
X682500D01*
X683500D01*
X684499Y396500D01*
Y395501D01*
X683500Y394501D01*
X681500D01*
X680501Y395501D01*
X690497Y400499D02*
X686499D01*
Y397500D01*
X688498Y398500D01*
X689498D01*
X690497Y397500D01*
Y395501D01*
X689498Y394501D01*
X687498D01*
X686499Y395501D01*
X735001Y552001D02*
X734001Y551002D01*
Y549002D01*
X735001Y548003D01*
X738999D01*
X739999Y549002D01*
Y551002D01*
X738999Y552001D01*
X735001Y554001D02*
X734001Y555000D01*
Y557000D01*
X735001Y557999D01*
X736000D01*
X737000Y557000D01*
Y556000D01*
Y557000D01*
X738000Y557999D01*
X738999D01*
X739999Y557000D01*
Y555000D01*
X738999Y554001D01*
X739999Y562998D02*
X734001D01*
X737000Y559999D01*
Y563997D01*
X776001Y545001D02*
X775001Y544002D01*
Y542002D01*
X776001Y541003D01*
X779999D01*
X780999Y542002D01*
Y544002D01*
X779999Y545001D01*
X776001Y547001D02*
X775001Y548000D01*
Y550000D01*
X776001Y550999D01*
X777000D01*
X778000Y550000D01*
Y549000D01*
Y550000D01*
X779000Y550999D01*
X779999D01*
X780999Y550000D01*
Y548000D01*
X779999Y547001D01*
X776001Y552999D02*
X775001Y553998D01*
Y555998D01*
X776001Y556997D01*
X777000D01*
X778000Y555998D01*
Y554998D01*
Y555998D01*
X779000Y556997D01*
X779999D01*
X780999Y555998D01*
Y553998D01*
X779999Y552999D01*
X755001Y545001D02*
X754001Y544002D01*
Y542002D01*
X755001Y541003D01*
X758999D01*
X759999Y542002D01*
Y544002D01*
X758999Y545001D01*
X755001Y547001D02*
X754001Y548000D01*
Y550000D01*
X755001Y550999D01*
X756000D01*
X757000Y550000D01*
Y549000D01*
Y550000D01*
X758000Y550999D01*
X758999D01*
X759999Y550000D01*
Y548000D01*
X758999Y547001D01*
X759999Y556997D02*
Y552999D01*
X756000Y556997D01*
X755001D01*
X754001Y555998D01*
Y553998D01*
X755001Y552999D01*
X830001Y559001D02*
X829001Y558001D01*
Y556002D01*
X830001Y555002D01*
X833999D01*
X834999Y556002D01*
Y558001D01*
X833999Y559001D01*
X830001Y561000D02*
X829001Y562000D01*
Y563999D01*
X830001Y564999D01*
X831000D01*
X832000Y563999D01*
Y563000D01*
Y563999D01*
X833000Y564999D01*
X833999D01*
X834999Y563999D01*
Y562000D01*
X833999Y561000D01*
X834999Y566998D02*
Y568998D01*
Y567998D01*
X829001D01*
X830001Y566998D01*
X636001Y466999D02*
X635002Y467999D01*
X633002D01*
X632003Y466999D01*
Y463001D01*
X633002Y462001D01*
X635002D01*
X636001Y463001D01*
X638001Y466999D02*
X639000Y467999D01*
X641000D01*
X641999Y466999D01*
Y466000D01*
X641000Y465000D01*
X640000D01*
X641000D01*
X641999Y464000D01*
Y463001D01*
X641000Y462001D01*
X639000D01*
X638001Y463001D01*
X643999Y466999D02*
X644998Y467999D01*
X646998D01*
X647997Y466999D01*
Y463001D01*
X646998Y462001D01*
X644998D01*
X643999Y463001D01*
Y466999D01*
X634001Y445999D02*
X633002Y446999D01*
X631002D01*
X630003Y445999D01*
Y442001D01*
X631002Y441001D01*
X633002D01*
X634001Y442001D01*
X639999Y441001D02*
X636001D01*
X639999Y445000D01*
Y445999D01*
X639000Y446999D01*
X637000D01*
X636001Y445999D01*
X641999Y442001D02*
X642998Y441001D01*
X644998D01*
X645997Y442001D01*
Y445999D01*
X644998Y446999D01*
X642998D01*
X641999Y445999D01*
Y445000D01*
X642998Y444000D01*
X645997D01*
X740499Y491499D02*
X741499Y492498D01*
Y494498D01*
X740499Y495497D01*
X736501D01*
X735501Y494498D01*
Y492498D01*
X736501Y491499D01*
X735501Y485501D02*
Y489499D01*
X739500Y485501D01*
X740499D01*
X741499Y486500D01*
Y488500D01*
X740499Y489499D01*
Y483501D02*
X741499Y482502D01*
Y480502D01*
X740499Y479503D01*
X739500D01*
X738500Y480502D01*
X737500Y479503D01*
X736501D01*
X735501Y480502D01*
Y482502D01*
X736501Y483501D01*
X737500D01*
X738500Y482502D01*
X739500Y483501D01*
X740499D01*
X738500Y482502D02*
Y480502D01*
X788001Y511999D02*
X787002Y512999D01*
X785002D01*
X784003Y511999D01*
Y508001D01*
X785002Y507001D01*
X787002D01*
X788001Y508001D01*
X793999Y507001D02*
X790001D01*
X793999Y511000D01*
Y511999D01*
X793000Y512999D01*
X791000D01*
X790001Y511999D01*
X795999Y512999D02*
X799997D01*
Y511999D01*
X795999Y508001D01*
Y507001D01*
X757001Y511999D02*
X756002Y512999D01*
X754002D01*
X753003Y511999D01*
Y508001D01*
X754002Y507001D01*
X756002D01*
X757001Y508001D01*
X762999Y507001D02*
X759001D01*
X762999Y511000D01*
Y511999D01*
X762000Y512999D01*
X760000D01*
X759001Y511999D01*
X768997Y512999D02*
X766998Y511999D01*
X764999Y510000D01*
Y508001D01*
X765998Y507001D01*
X767998D01*
X768997Y508001D01*
Y509000D01*
X767998Y510000D01*
X764999D01*
X358428Y357434D02*
X357428Y356435D01*
Y354435D01*
X358428Y353435D01*
X362427D01*
X363426Y354435D01*
Y356435D01*
X362427Y357434D01*
X363426Y359434D02*
Y361433D01*
Y360433D01*
X357428D01*
X358428Y359434D01*
Y364432D02*
X357428Y365432D01*
Y367431D01*
X358428Y368431D01*
X359427D01*
X360427Y367431D01*
X361427Y368431D01*
X362427D01*
X363426Y367431D01*
Y365432D01*
X362427Y364432D01*
X361427D01*
X360427Y365432D01*
X359427Y364432D01*
X358428D01*
X360427Y365432D02*
Y367431D01*
X392501Y282999D02*
X391502Y283999D01*
X389502D01*
X388502Y282999D01*
Y279001D01*
X389502Y278001D01*
X391502D01*
X392501Y279001D01*
X394501Y278001D02*
X396500D01*
X395500D01*
Y283999D01*
X394501Y282999D01*
X399499D02*
X400499Y283999D01*
X402498D01*
X403498Y282999D01*
Y282000D01*
X402498Y281000D01*
X401498D01*
X402498D01*
X403498Y280000D01*
Y279001D01*
X402498Y278001D01*
X400499D01*
X399499Y279001D01*
X354001Y295501D02*
X353001Y294501D01*
Y292502D01*
X354001Y291502D01*
X357999D01*
X358999Y292502D01*
Y294501D01*
X357999Y295501D01*
X358999Y297500D02*
Y299500D01*
Y298500D01*
X353001D01*
X354001Y297500D01*
X358999Y306498D02*
Y302499D01*
X355000Y306498D01*
X354001D01*
X353001Y305498D01*
Y303499D01*
X354001Y302499D01*
X612001Y187999D02*
X611002Y188999D01*
X609002D01*
X608003Y187999D01*
Y184001D01*
X609002Y183001D01*
X611002D01*
X612001Y184001D01*
X614001Y187999D02*
X615000Y188999D01*
X617000D01*
X617999Y187999D01*
Y187000D01*
X617000Y186000D01*
X616000D01*
X617000D01*
X617999Y185000D01*
Y184001D01*
X617000Y183001D01*
X615000D01*
X614001Y184001D01*
X619999Y188999D02*
Y183001D01*
X622998D01*
X623997Y184001D01*
Y187999D01*
X622998Y188999D01*
X619999D01*
X473001Y176999D02*
X472002Y177999D01*
X470002D01*
X469003Y176999D01*
Y173001D01*
X470002Y172001D01*
X472002D01*
X473001Y173001D01*
X475001Y176999D02*
X476000Y177999D01*
X478000D01*
X478999Y176999D01*
Y176000D01*
X478000Y175000D01*
X477000D01*
X478000D01*
X478999Y174000D01*
Y173001D01*
X478000Y172001D01*
X476000D01*
X475001Y173001D01*
X484997Y176999D02*
X483998Y177999D01*
X481998D01*
X480999Y176999D01*
Y173001D01*
X481998Y172001D01*
X483998D01*
X484997Y173001D01*
X342001Y201999D02*
X341002Y202999D01*
X339002D01*
X338003Y201999D01*
Y198001D01*
X339002Y197001D01*
X341002D01*
X342001Y198001D01*
X344001Y201999D02*
X345000Y202999D01*
X347000D01*
X347999Y201999D01*
Y201000D01*
X347000Y200000D01*
X346000D01*
X347000D01*
X347999Y199000D01*
Y198001D01*
X347000Y197001D01*
X345000D01*
X344001Y198001D01*
X349999Y202999D02*
Y197001D01*
X352998D01*
X353997Y198001D01*
Y199000D01*
X352998Y200000D01*
X349999D01*
X352998D01*
X353997Y201000D01*
Y201999D01*
X352998Y202999D01*
X349999D01*
X228001Y199999D02*
X227002Y200999D01*
X225002D01*
X224003Y199999D01*
Y196001D01*
X225002Y195001D01*
X227002D01*
X228001Y196001D01*
X230001Y199999D02*
X231000Y200999D01*
X233000D01*
X233999Y199999D01*
Y199000D01*
X233000Y198000D01*
X232000D01*
X233000D01*
X233999Y197000D01*
Y196001D01*
X233000Y195001D01*
X231000D01*
X230001Y196001D01*
X235999Y195001D02*
Y199000D01*
X237998Y200999D01*
X239997Y199000D01*
Y195001D01*
Y198000D01*
X235999D01*
X575001Y249001D02*
X574001Y248002D01*
Y246002D01*
X575001Y245003D01*
X578999D01*
X579999Y246002D01*
Y248002D01*
X578999Y249001D01*
X579999Y254999D02*
Y251001D01*
X576000Y254999D01*
X575001D01*
X574001Y254000D01*
Y252000D01*
X575001Y251001D01*
X574001Y256999D02*
X579999D01*
Y259998D01*
X578999Y260997D01*
X575001D01*
X574001Y259998D01*
Y256999D01*
X459001Y251999D02*
X458002Y252999D01*
X456002D01*
X455003Y251999D01*
Y248001D01*
X456002Y247001D01*
X458002D01*
X459001Y248001D01*
X464999Y247001D02*
X461001D01*
X464999Y251000D01*
Y251999D01*
X464000Y252999D01*
X462000D01*
X461001Y251999D01*
X470997D02*
X469998Y252999D01*
X467998D01*
X466999Y251999D01*
Y248001D01*
X467998Y247001D01*
X469998D01*
X470997Y248001D01*
X342001Y249999D02*
X341002Y250999D01*
X339002D01*
X338003Y249999D01*
Y246001D01*
X339002Y245001D01*
X341002D01*
X342001Y246001D01*
X347999Y245001D02*
X344001D01*
X347999Y249000D01*
Y249999D01*
X347000Y250999D01*
X345000D01*
X344001Y249999D01*
X349999Y250999D02*
Y245001D01*
X352998D01*
X353997Y246001D01*
Y247000D01*
X352998Y248000D01*
X349999D01*
X352998D01*
X353997Y249000D01*
Y249999D01*
X352998Y250999D01*
X349999D01*
X228001Y249999D02*
X227002Y250999D01*
X225002D01*
X224003Y249999D01*
Y246001D01*
X225002Y245001D01*
X227002D01*
X228001Y246001D01*
X233999Y245001D02*
X230001D01*
X233999Y249000D01*
Y249999D01*
X233000Y250999D01*
X231000D01*
X230001Y249999D01*
X235999Y245001D02*
Y249000D01*
X237998Y250999D01*
X239997Y249000D01*
Y245001D01*
Y248000D01*
X235999D01*
X584501Y105999D02*
X583502Y106999D01*
X581502D01*
X580502Y105999D01*
Y102001D01*
X581502Y101001D01*
X583502D01*
X584501Y102001D01*
X586501Y101001D02*
X588500D01*
X587500D01*
Y106999D01*
X586501Y105999D01*
X591499Y106999D02*
Y101001D01*
X594498D01*
X595498Y102001D01*
Y105999D01*
X594498Y106999D01*
X591499D01*
X468501Y104999D02*
X467501Y105999D01*
X465502D01*
X464502Y104999D01*
Y101001D01*
X465502Y100001D01*
X467501D01*
X468501Y101001D01*
X470500Y100001D02*
X472500D01*
X471500D01*
Y105999D01*
X470500Y104999D01*
X479498D02*
X478498Y105999D01*
X476498D01*
X475499Y104999D01*
Y101001D01*
X476498Y100001D01*
X478498D01*
X479498Y101001D01*
X353501Y104999D02*
X352501Y105999D01*
X350502D01*
X349502Y104999D01*
Y101001D01*
X350502Y100001D01*
X352501D01*
X353501Y101001D01*
X355500Y100001D02*
X357500D01*
X356500D01*
Y105999D01*
X355500Y104999D01*
X360499Y105999D02*
Y100001D01*
X363498D01*
X364498Y101001D01*
Y102000D01*
X363498Y103000D01*
X360499D01*
X363498D01*
X364498Y104000D01*
Y104999D01*
X363498Y105999D01*
X360499D01*
X238501Y104999D02*
X237502Y105999D01*
X235502D01*
X234503Y104999D01*
Y101001D01*
X235502Y100001D01*
X237502D01*
X238501Y101001D01*
X240501Y100001D02*
X242500D01*
X241500D01*
Y105999D01*
X240501Y104999D01*
X245499Y100001D02*
Y104000D01*
X247498Y105999D01*
X249498Y104000D01*
Y100001D01*
Y103000D01*
X245499D01*
X818250Y721749D02*
X816251D01*
X817250D01*
Y716751D01*
X816251Y715751D01*
X815251D01*
X814251Y716751D01*
X820249Y715751D02*
X822249D01*
X821249D01*
Y721749D01*
X820249Y720749D01*
X565001Y81000D02*
Y79001D01*
Y80001D01*
X569999D01*
X570999Y79001D01*
Y78001D01*
X569999Y77002D01*
X565001Y86998D02*
X566001Y84999D01*
X568000Y83000D01*
X569999D01*
X570999Y83999D01*
Y85999D01*
X569999Y86998D01*
X569000D01*
X568000Y85999D01*
Y83000D01*
X462000Y76999D02*
X460001D01*
X461001D01*
Y72001D01*
X460001Y71001D01*
X459001D01*
X458002Y72001D01*
X467998Y76999D02*
X464000D01*
Y74000D01*
X465999Y75000D01*
X466999D01*
X467998Y74000D01*
Y72001D01*
X466999Y71001D01*
X464999D01*
X464000Y72001D01*
X348000Y76999D02*
X346001D01*
X347001D01*
Y72001D01*
X346001Y71001D01*
X345001D01*
X344002Y72001D01*
X352999Y71001D02*
Y76999D01*
X350000Y74000D01*
X353998D01*
X231000Y74999D02*
X229001D01*
X230001D01*
Y70001D01*
X229001Y69001D01*
X228001D01*
X227002Y70001D01*
X233000Y73999D02*
X233999Y74999D01*
X235999D01*
X236998Y73999D01*
Y73000D01*
X235999Y72000D01*
X234999D01*
X235999D01*
X236998Y71000D01*
Y70001D01*
X235999Y69001D01*
X233999D01*
X233000Y70001D01*
X819000Y433749D02*
X817001D01*
X818001D01*
Y428751D01*
X817001Y427751D01*
X816001D01*
X815002Y428751D01*
X821000Y433749D02*
X824998D01*
Y432749D01*
X821000Y428751D01*
Y427751D01*
D14*
X119500Y192150D02*
X149500D01*
X119500Y222850D02*
X149500D01*
X734000Y352000D02*
X735500D01*
Y362165D01*
Y374135D02*
Y385000D01*
X734000D02*
X735500D01*
X702500D02*
X704000D01*
X702500Y374135D02*
Y385000D01*
Y352000D02*
Y362165D01*
Y352000D02*
X704000D01*
X781200Y264000D02*
X784800D01*
X781200Y280000D02*
X784800D01*
X787200Y368000D02*
X790800D01*
X787200Y384000D02*
X790800D01*
X752000Y250000D02*
X753500D01*
Y260165D01*
Y272135D02*
Y283000D01*
X752000D02*
X753500D01*
X720500D02*
X722000D01*
X720500Y272135D02*
Y283000D01*
Y250000D02*
Y260165D01*
Y250000D02*
X722000D01*
M02*
