M48
;Layer_Color=9474304
;FILE_FORMAT=4:4
METRIC,LZ
;TYPE=PLATED
T01F00S00C0.3000
T02F00S00C0.8000
T03F00S00C0.8900
T04F00S00C3.2000
;TYPE=NON_PLATED
T05F00S00C0.9906
T06F00S00C2.3749
%
T01
X0075715Y0008935
X0076985
Y0010205
Y0011475
Y0012745
Y0014015
X00769657Y00193135
X00788645Y00192862
X00785Y002175
X0082275Y002395
X0072Y00251
X00714
Y00257
X0072
X00708
Y00251
X00722641Y00215235
X00714177Y0019941
X007Y002
X0069275Y001635
X00745Y0016975
X0083464Y00067063
X008509Y000738
X0086716Y00067063
X008739Y000508
X0086716Y00034536
X008509Y000278
X0083464Y00034536
X008279Y000508
X006765Y0014575
Y0016575
X00675054Y00198269
X00665Y002025
X005885Y00203
X00581
X005735
X00566
Y001955
X005735
X00581
X00566Y00188
X00562728Y00163196
X00562Y0014907
X00569Y0013875
X005895Y00159625
X0058675Y00107
X0057925
Y000995
X0058675
X0059425
Y00107
Y00092
Y000845
Y00077
X0058675
X0057925
Y000845
X0058675
Y00092
X0057925
X0061Y001245
X0063225Y00144
X0051725
X0052395Y0016388
X0051025Y001905
X0051Y00241
X0053425Y0024125
X0052014Y0026584
X005375Y00285
Y002925
X00545
X005525
X0056
X005675
X00575
Y00285
X005675
X0056
X005525
X00545
X00574Y0026475
X00465574Y00280706
X0041325Y0028575
X00385555Y00280909
X0037675Y0027025
X00369435Y00270472
X0036125Y0027
X00327192Y0027032
X0031875Y0027025
X0031175Y0026775
X00329309Y00276888
X0029625Y0022275
X00311679Y00165166
X00316Y00156
X00332Y00145
X00340504Y00138173
X00357Y00154
X003565Y00107
Y000995
Y00092
X00364
Y000995
Y00107
X00349
Y000995
Y00092
Y000845
X003565
X00364
Y00077
X003565
X00349
X00317345Y0012195
X00380746Y00130213
X00402Y00144
X00432Y00157
X00425793Y0017483
X00452Y00177
X00459
X00466
Y0017
X00459
X00452
Y00163
X00459
X00466
X00473857Y00154157
X00455Y00138
X00447986Y00144494
X00452Y00184
Y00191
X00411033Y00219028
X00378Y0021375
X00366811Y00196841
X0046425Y00107
X0047175
X0047925
Y000995
X0047175
X0046425
Y00092
Y000845
Y00077
X0047175
X0047925
Y000845
X0047175
Y00092
X0047925
X00502037Y00124489
X00287Y00144
X00242Y00154
X00234Y00172
X00227
X0022
X00213
X00213Y00196
Y00203
Y0021
Y00217
X0022
Y0021
Y00203
Y00196
X00227
Y00203
X00234
Y00196
X00241
Y00203
X00248
X00255
X00189842Y00193574
X00171Y0020225
X00163Y00235
X00129385Y00235146
X00100232Y00194998
X000935Y0019775
X0007667Y00204831
X0006875Y001835
X0007075Y002475
X00075625Y00276125
X0015375Y002905
X00196958Y00269968
X00228348Y00268772
X0023875Y00292992
X00279586Y00254125
X0022435Y00138176
X00234Y00107
X002415
X00249
Y000995
Y00092
Y000845
Y00077
X002415
X00234
Y000845
X002415
Y00092
X00234
Y000995
X002415
X00189662Y00115338
X00169662
X0012875Y0011525
X001085Y0011425
X00073801Y00115588
X00053801
X0005Y00073
X0003374Y00066263
X00027Y0005
X0003374Y00033737
X0005Y00027
X0006626Y00033737
X00073Y0005
X0006626Y00066263
X00161021Y00314177
X00263631Y003015
X00292732Y0030275
X00279Y00379
X00270689Y00390248
X00261Y003915
X002535
Y00384
Y003765
X00261
Y00384
Y00399
X002535
Y004065
Y00414
Y004215
Y00429
X00261
Y004215
Y00414
X002685
Y004215
Y00429
X00276
Y004215
Y00414
X002835
X00291
Y004215
Y00429
X002835
Y004215
Y004065
X00276
X002685
X00261
X002685Y00399
X00276
X002835
X00291
Y004065
X0028575Y00493
X00255767Y00474766
X00235Y00445
X00202099Y00485178
X00188Y0052375
X00217379Y0052882
X00238Y00535
X00258Y0053266
Y00541
X00267
Y0053266
Y0055
X00258
Y00559
X00267
X00285Y00551
Y00542
X00246Y00578
X00237
Y00587
X00228
Y00596
X00237
X00246
Y00587
Y00605
X00237
X00228
Y00614
X00237
X00246
X00255
Y00605
Y00637624
X00246
Y00646624
X00237
Y00655624
X00228
Y00646624
Y00637624
X00237
X00246Y00655624
X00255
Y00646624
X00264
Y00637624
X00273
Y00646624
Y00655624
X00264
X00290403Y00639544
X0021Y00666
X00199337Y0068565
X0017845Y00624423
X00167Y00634
X001575Y006225
Y00615
Y006075
X0015
X001425
Y00615
X00135
Y006225
X001275
Y0063
X0012
Y006375
X001275
X00135
Y0063
X001425
Y006225
X0015
Y00615
X001425Y006375
X00138Y00652
X00135Y00555
Y005475
Y0054
Y005325
Y00525
X001275Y005325
Y0054
X0012
Y005475
X001275
Y00555
X0012
Y005625
X001275
X001425Y005475
Y0054
Y005325
X0012
X0004Y006
X00303293Y0062828
X00327818Y0063975
X00335864Y00658026
X00355Y00674
X0034841Y0068584
X00352541Y00624
X0036
Y00615
X00352541
Y0060646
X0036Y00606
Y00597
X00352541Y00597
X0036Y00588
X00369
Y00597
Y00606
Y00615
X00378
Y00624
X00369
X00335392Y00616349
X00316Y00566
X00303Y00551
Y00542
X00294
Y00551
X00303851Y00525
X003225Y0053625
X003355Y00513
X00324165Y00479915
X00352411Y00450655
X0036425Y0042175
X00364509Y0040675
X00352Y00409
X00345
X00338
Y00402
X00345
X00352
Y00395
X00345
X00338
Y00388
X00345
X00352
X003646Y00365831
X00364073Y00355745
X00358433Y00303688
X00359302Y00296993
X0038183Y0030443
X00387105Y00300632
X00393484Y00301894
X00400389Y00315238
X00418687Y00420151
X00440625Y00418224
X00440139Y0042622
X00454838Y00427605
X00451748Y00416099
X00463586Y0042032
X00436266Y00411963
X005Y004055
X005075
X00515
X005225
X0053
X005375
Y00413
Y004205
Y00428
X0053
Y004205
Y00413
X005225
Y004205
X00515
Y00428
X005225
X00515Y004385
X0049925Y0043275
X0050525Y0041925
X00515Y00413
Y00398
X005225
X0053
X005225Y003905
X00515
X005075
Y00398
X005
Y003905
Y00383
X005075
X00515
X0054225Y00377
X0054275Y003915
X00545Y003075
Y003
X005375
Y003075
X005525
Y003
X0056
X005675
X00575
Y003075
X005675
X0056
X005225Y0032
X0052Y00295
X00608Y00361
X00642Y00359
X0066225Y0037525
X00671Y00388
X00656755Y00410005
X00642Y0045225
X00574Y00472
X00582172Y00484726
X00586Y00512
X00587213Y00556429
X006Y00581
X00592339Y00590584
X00618Y00582
X0061293Y00576186
X00632251Y00587124
X00647Y00608
X00647595Y00631799
X00628536Y00643
X00628Y00663
X0062083Y00664516
X0064275Y0068275
X00593454Y00685343
X0058656Y00684773
X00581356Y00671963
X005415Y0067825
X00539Y0064125
X005605Y00642
X005685Y006225
X00504Y00624
Y00615
X00495
Y00606
X00486
Y00597
Y00588
X00495
Y00597
X00477
Y00606
Y00615
X00486
Y00624
X00495
X00477
X0046372Y0062275
X00446129Y00630491
X00424875Y00649125
X00416577Y00643936
X004325Y006775
Y00685
X0044
X004475
Y006775
X0044
X004575Y006875
X00505Y00688
X00495Y00672
X0046525Y005895
X0048575Y0056825
X00507Y00569
X00516
Y0056
X00507
Y00551
X00516
X00534258Y00552
X00543
X00551888
X00552Y00561
X00543
X00534258
X00549648Y00534024
X00558Y00542
X00482412Y00544662
X0046325Y005315
X0044621Y00512182
X00425873Y00533765
X00426Y00552
Y00561
X00417
Y00552
X00408
Y00561
X0039Y0056
Y00569
X00381
Y0056
Y00551
Y00542
X0039
Y00551
X00494Y0048925
X0051575Y0048325
X00511Y00473
X00532Y0048
X00306Y00429
Y004215
X002985
Y00414
Y004065
Y00429
X00308498Y00389549
X0030625Y00376
X0030725Y00365
X0069Y00359
Y00353
X0066Y00314
X00730449Y00317425
X007505Y0030275
X00756Y003285
X00792295Y00329
X0077997Y00294376
X00839Y00335
Y00344
Y00353
Y00362
Y00371
X00848
Y00362
Y00353
Y00344
Y00335
X008385Y004435
Y00451
Y004585
X00831
X008235
Y00466
X00831
X008385
X00831Y00451
X008235
X00816
Y004585
Y00466
Y004435
X008235
X00831
X00792295Y004185
X00767985Y00394843
X00736983Y00412201
X0070937Y0041975
X00705286Y00394272
X00702Y00359
X00696
Y00353
X00702
X007425Y005175
X0075
X007575
X00765
X007725
X0078
X0078Y005275
X007725
X00765
X007575
X0075
X007425
X007425Y005375
X0075
X007575
X00765
X007725
X0078
X0078Y005475
X007725
X00765
X007575
X0075
X007425
X0074Y006025
X007325
Y0061
Y006175
X0074
Y0061
X007475
Y006025
X00755
Y0061
X007625
X0077
Y006025
X007775
Y0061
Y006175
X0077
X007625
X00755
X007475
X007475Y00645
X0077575Y006375
X00797365Y00657884
X00797086Y00668
X0076Y006775
X00747Y00684
X007325Y006775
X00696Y006895
X007625Y006025
X00797336Y00696304
X00805907Y00690783
X00797086Y00718304
X00772Y00741
X0076975Y00762
X00755Y00786
X007435Y00792
X00714926Y00788233
X00696Y00712
Y007045
Y00697
X0080924Y00891836
X008255Y008851
X0084176Y00891836
X008485Y009081
X0084176Y00924363
X008255Y009311
X0080924Y00924363
X008025Y009081
X00632091Y00797249
X0064025Y00771
X00622219Y00762117
X00628759Y00742911
X006425Y007325
X006885Y00712
Y007045
Y00697
X00556Y00696
X005485
X00541
Y007035
X005485
X00556
Y00711
X005485
X00541
Y007185
X005485
X00556
X005485Y00726
X00541
X005335
X005335Y007185
Y00711
Y007035
Y00696
X004625Y006975
Y007075
Y007175
Y007275
Y007375
X004525
Y007475
X004625
Y007575
X004525
Y007675
X004625
X004525Y007775
X004475Y00725
X0044
Y007175
Y0071
X004475
Y007175
Y007025
X0044
X004325
Y0071
Y007175
Y00725
X00425
X004175
X0041
X00404Y00756
X00360964Y00732282
X00335334Y00741844
X00323869Y00722489
X00330844Y00713947
X00366993Y00702433
X00394375Y0069525
X004325Y006925
X0044
X004475
X0053686Y00770702
X0058375Y00799
X00600623Y00793157
X0035625Y007845
X0026075Y007865
X00258Y0074
X00258Y00733
X00258Y00726
X00258Y00719
X002505
X002505Y00726
X002505Y00733
X002505Y0074
X00243
X00243Y00733
X00243Y00726
X00243Y00719
X002355
X002355Y00726
X002355Y00733
X002355Y0074
X00228
X00228Y00733
X00228Y00726
X00228Y00719
X002205
X002205Y00726
X002205Y00733
X002205Y0074
X00213
X00213Y00733
X00213Y00726
X00213Y00719
X002055
X002055Y00726
X002055Y00733
X002055Y0074
X00198
X00198Y00733
X00198Y00726
X00198Y00719
X001545Y007155
Y00723
X00147
Y007155
Y00708
X001545
Y007005
Y00693
X00147
Y007005
X0013925Y0073675
X00163Y00772
X00207Y00795
X00074Y00801
X0005Y00795
X00050806Y00744136
X00042886Y00721949
X000845Y007225
X00073Y00832
X0007264Y00891836
X000889Y008851
X0010516Y00891836
X001119Y009081
X0010516Y00924363
X000889Y009311
X0007264Y00924363
X000659Y009081
X00284593Y00703116
T02
X0007Y0037118
X0009
Y0039118
X0007
Y0041118
X0009
Y0043118
Y0045118
X0007
Y0043118
Y0047118
Y0049118
X0009
Y0047118
Y0051118
X0007
Y0053118
X0009
Y0055118
X0007
T03
X006985Y008319
Y008573
X007239
X007493
X007747
Y008319
X007493
X007239
Y008827
X006985
Y009081
X007239
X007493
X007747
Y008827
X007493
X006731
Y008573
X006477
Y008319
X006223
X005969
Y008573
X006223
Y008827
X006477
Y009081
X006731
X006223
X005969
Y008827
X005715
Y008573
Y008319
X005461
Y008573
X005207
Y008319
X004953
X004699
X004445
X004191
X003937
Y008573
Y008827
Y009081
X004191
Y008827
Y008573
X004445
X004699
X004953
Y008827
X004699
X004445
Y009081
X004699
X004953
X005207
X005461
X005715
X005461Y008827
X005207
X003683
Y008573
Y008319
X003429
X003175
Y008573
X003429
Y008827
X003175
Y009081
X003429
X003683
X006731Y008319
X002921
X002667
Y008573
X002413
X002159
Y008319
X002413
X001905
X001651
X001397
Y008573
X001651
X001905
Y008827
X001651
X001397
Y009081
X001651
X001905
X002159
X002413
X002667
Y008827
X002921
Y008573
Y009081
X002413Y008827
X002159
T04
X008509Y000508
X0005Y0005
X008255Y009081
X000889
T05
X007635Y0007665
X0075335Y0015285
X0077365
T06
X007381Y0007665
X007889
Y001338
X007381
M30
