G04*
G04 #@! TF.GenerationSoftware,Altium Limited,Altium Designer,26.2.0 (7)*
G04*
G04 Layer_Color=16776960*
%FSLAX44Y44*%
%MOMM*%
G71*
G04*
G04 #@! TF.SameCoordinates,D5DFED66-1DDD-4205-BACF-39BFCEB3ABE1*
G04*
G04*
G04 #@! TF.FilePolarity,Positive*
G04*
G01*
G75*
%ADD12C,0.1000*%
D12*
X0Y10500D02*
G03*
X10500Y-0I10500J0D01*
G01*
X901700Y948400D02*
G03*
X891200Y958900I-10500J0D01*
G01*
X10500D02*
G03*
X0Y948400I0J-10500D01*
G01*
X712850Y12000D02*
G03*
X700850Y24000I-12000J0D01*
G01*
X712850Y12000D02*
G03*
X724850Y0I12000J0D01*
G01*
X200850Y24000D02*
G03*
X188850Y12000I0J-12000D01*
G01*
X176850Y-0D02*
G03*
X188850Y12000I0J12000D01*
G01*
X891200Y0D02*
G03*
X901700Y10500I0J10500D01*
G01*
X901700Y205733D02*
G03*
X889700Y217733I-12000J0D01*
G01*
X877700Y229733D02*
G03*
X889700Y217733I12000J0D01*
G01*
X889700Y741733D02*
G03*
X901700Y753733I0J12000D01*
G01*
X889700Y741733D02*
G03*
X877700Y729733I0J-12000D01*
G01*
X724850Y958900D02*
G03*
X712850Y946900I0J-12000D01*
G01*
X700850Y934900D02*
G03*
X712850Y946900I0J12000D01*
G01*
X188850Y946900D02*
G03*
X176850Y958900I-12000J0D01*
G01*
X188850Y946900D02*
G03*
X200850Y934900I12000J0D01*
G01*
X-0Y753733D02*
G03*
X12000Y741733I12000J0D01*
G01*
X12000Y217733D02*
G03*
X24000Y229733I0J12000D01*
G01*
X12000Y217733D02*
G03*
X-0Y205733I0J-12000D01*
G01*
X24000Y729733D02*
G03*
X12000Y741733I-12000J0D01*
G01*
X306900Y24000D02*
X365500D01*
X10500Y-0D02*
Y-0D01*
X200850Y24000D02*
X700850Y24000D01*
X10500Y-0D02*
X176850D01*
X724850Y0D02*
X891200D01*
Y0D02*
Y0D01*
X877700Y730733D02*
X877700Y230733D01*
X901700Y753733D02*
Y948400D01*
X901700Y205733D02*
X901700D01*
X901700Y10500D02*
Y205733D01*
X10500Y958900D02*
X176850D01*
X724850Y958900D02*
X891200D01*
X200850Y934900D02*
X700850Y934900D01*
X536200D02*
X594800D01*
X0Y10500D02*
Y205733D01*
X-0D02*
X0D01*
X-0Y753733D02*
Y948400D01*
X24000Y229733D02*
X24000Y729733D01*
M02*
