G04*
G04 #@! TF.GenerationSoftware,Altium Limited,Altium Designer,26.2.0 (7)*
G04*
G04 Layer_Physical_Order=3*
G04 Layer_Color=16440176*
%FSLAX44Y44*%
%MOMM*%
G71*
G04*
G04 #@! TF.SameCoordinates,D5DFED66-1DDD-4205-BACF-39BFCEB3ABE1*
G04*
G04*
G04 #@! TF.FilePolarity,Positive*
G04*
G01*
G75*
%ADD10C,0.2540*%
%ADD11C,0.2000*%
%ADD92C,1.5000*%
%ADD93C,6.0000*%
%ADD94C,1.3980*%
%ADD95C,0.9906*%
%ADD96C,2.3749*%
%ADD97R,1.3980X1.3980*%
%ADD98C,0.5000*%
G36*
X383573Y302638D02*
X383481Y302535D01*
X383399Y302413D01*
X383327Y302272D01*
X383264Y302114D01*
X383211Y301936D01*
X383167Y301740D01*
X383133Y301526D01*
X383109Y301293D01*
X383090Y300771D01*
X380550Y300783D01*
X380545Y301053D01*
X380507Y301538D01*
X380474Y301752D01*
X380431Y301949D01*
X380378Y302126D01*
X380316Y302285D01*
X380245Y302426D01*
X380163Y302548D01*
X380073Y302652D01*
X383573Y302638D01*
D02*
G37*
G36*
X395142Y300005D02*
X395061Y299883D01*
X394989Y299743D01*
X394926Y299583D01*
X394874Y299406D01*
X394830Y299210D01*
X394797Y298995D01*
X394773Y298762D01*
X394754Y298240D01*
X392214D01*
X392209Y298510D01*
X392170Y298995D01*
X392137Y299210D01*
X392094Y299406D01*
X392041Y299583D01*
X391978Y299743D01*
X391906Y299883D01*
X391825Y300005D01*
X391734Y300108D01*
X395234D01*
X395142Y300005D01*
D02*
G37*
G36*
X389100Y299107D02*
X389046Y298988D01*
X388999Y298849D01*
X388958Y298691D01*
X388924Y298513D01*
X388873Y298101D01*
X388858Y297865D01*
X388845Y297337D01*
X386305Y296763D01*
X386299Y297032D01*
X386253Y297511D01*
X386212Y297720D01*
X386159Y297908D01*
X386095Y298077D01*
X386019Y298225D01*
X385932Y298353D01*
X385833Y298461D01*
X385722Y298549D01*
X389159Y299207D01*
X389100Y299107D01*
D02*
G37*
G36*
X155639Y292159D02*
X155761Y292077D01*
X155901Y292005D01*
X156060Y291943D01*
X156238Y291890D01*
X156434Y291847D01*
X156648Y291813D01*
X156881Y291789D01*
X157403Y291770D01*
Y289230D01*
X157133Y289225D01*
X156648Y289187D01*
X156434Y289153D01*
X156238Y289110D01*
X156060Y289057D01*
X155901Y288995D01*
X155761Y288923D01*
X155639Y288841D01*
X155535Y288750D01*
Y292250D01*
X155639Y292159D01*
D02*
G37*
G36*
X327516Y280105D02*
X327700Y279953D01*
X327888Y279819D01*
X328078Y279703D01*
X328271Y279605D01*
X328468Y279525D01*
X328667Y279463D01*
X328870Y279420D01*
X329075Y279395D01*
X329284Y279388D01*
X326809Y276913D01*
X326802Y277122D01*
X326777Y277327D01*
X326733Y277530D01*
X326672Y277729D01*
X326592Y277925D01*
X326494Y278119D01*
X326378Y278309D01*
X326244Y278496D01*
X326091Y278681D01*
X325921Y278862D01*
X327335Y280276D01*
X327516Y280105D01*
D02*
G37*
G36*
X378030Y273897D02*
X378035Y273627D01*
X378073Y273142D01*
X378106Y272927D01*
X378149Y272731D01*
X378202Y272554D01*
X378264Y272395D01*
X378335Y272254D01*
X378416Y272132D01*
X378507Y272028D01*
X375007Y272042D01*
X375099Y272146D01*
X375181Y272267D01*
X375253Y272408D01*
X375316Y272566D01*
X375369Y272744D01*
X375413Y272940D01*
X375447Y273154D01*
X375471Y273387D01*
X375490Y273909D01*
X378030Y273897D01*
D02*
G37*
G36*
X372917Y272158D02*
X372729Y271963D01*
X372413Y271593D01*
X372285Y271418D01*
X372177Y271248D01*
X372089Y271085D01*
X372021Y270929D01*
X371972Y270779D01*
X371944Y270635D01*
X371935Y270497D01*
X369460Y272972D01*
X369598Y272981D01*
X369742Y273009D01*
X369892Y273058D01*
X370048Y273126D01*
X370211Y273214D01*
X370381Y273322D01*
X370556Y273450D01*
X370738Y273598D01*
X371120Y273954D01*
X372917Y272158D01*
D02*
G37*
G36*
X325399Y273537D02*
X325583Y273385D01*
X325771Y273251D01*
X325961Y273134D01*
X326155Y273036D01*
X326351Y272957D01*
X326550Y272895D01*
X326753Y272852D01*
X326958Y272827D01*
X327167Y272820D01*
X324692Y270345D01*
X324685Y270553D01*
X324660Y270759D01*
X324616Y270961D01*
X324555Y271161D01*
X324475Y271357D01*
X324377Y271551D01*
X324261Y271741D01*
X324127Y271928D01*
X323974Y272112D01*
X323804Y272294D01*
X325218Y273708D01*
X325399Y273537D01*
D02*
G37*
G36*
X316957Y273467D02*
X317142Y273315D01*
X317329Y273181D01*
X317519Y273064D01*
X317713Y272967D01*
X317909Y272887D01*
X318109Y272825D01*
X318311Y272782D01*
X318517Y272757D01*
X318725Y272750D01*
X316250Y270275D01*
X316243Y270483D01*
X316218Y270689D01*
X316175Y270891D01*
X316113Y271091D01*
X316033Y271287D01*
X315935Y271481D01*
X315819Y271671D01*
X315685Y271858D01*
X315533Y272043D01*
X315362Y272224D01*
X316776Y273638D01*
X316957Y273467D01*
D02*
G37*
G36*
X309958Y270967D02*
X310142Y270815D01*
X310329Y270681D01*
X310519Y270564D01*
X310713Y270467D01*
X310909Y270387D01*
X311108Y270325D01*
X311311Y270282D01*
X311516Y270257D01*
X311725Y270250D01*
X309250Y267775D01*
X309243Y267983D01*
X309218Y268189D01*
X309175Y268391D01*
X309113Y268591D01*
X309033Y268787D01*
X308936Y268981D01*
X308819Y269171D01*
X308685Y269358D01*
X308533Y269543D01*
X308362Y269724D01*
X309776Y271138D01*
X309958Y270967D01*
D02*
G37*
G36*
X296225Y220250D02*
X296087Y220242D01*
X295944Y220213D01*
X295793Y220165D01*
X295637Y220096D01*
X295474Y220008D01*
X295305Y219900D01*
X295129Y219772D01*
X294947Y219624D01*
X294565Y219269D01*
X292769Y221065D01*
X292956Y221259D01*
X293272Y221629D01*
X293400Y221805D01*
X293508Y221974D01*
X293596Y222137D01*
X293665Y222293D01*
X293713Y222444D01*
X293741Y222587D01*
X293750Y222725D01*
X296225Y220250D01*
D02*
G37*
G36*
X411008Y216528D02*
X410871Y216519D01*
X410727Y216491D01*
X410577Y216442D01*
X410420Y216374D01*
X410257Y216286D01*
X410088Y216178D01*
X409912Y216050D01*
X409730Y215902D01*
X409348Y215546D01*
X407552Y217342D01*
X407739Y217537D01*
X408055Y217907D01*
X408183Y218082D01*
X408291Y218251D01*
X408380Y218414D01*
X408448Y218571D01*
X408496Y218721D01*
X408525Y218865D01*
X408533Y219003D01*
X411008Y216528D01*
D02*
G37*
G36*
X57282Y117274D02*
X57095Y117079D01*
X56779Y116709D01*
X56651Y116534D01*
X56543Y116364D01*
X56455Y116201D01*
X56386Y116045D01*
X56338Y115895D01*
X56309Y115751D01*
X56301Y115613D01*
X53826Y118088D01*
X53963Y118097D01*
X54107Y118125D01*
X54258Y118174D01*
X54414Y118242D01*
X54577Y118330D01*
X54746Y118438D01*
X54922Y118566D01*
X55104Y118714D01*
X55486Y119070D01*
X57282Y117274D01*
D02*
G37*
G36*
X172170Y115176D02*
X172199Y115032D01*
X172247Y114882D01*
X172316Y114725D01*
X172404Y114562D01*
X172512Y114393D01*
X172640Y114217D01*
X172788Y114036D01*
X173143Y113653D01*
X171347Y111857D01*
X171153Y112045D01*
X170783Y112360D01*
X170607Y112488D01*
X170438Y112596D01*
X170275Y112685D01*
X170119Y112753D01*
X169968Y112801D01*
X169824Y112830D01*
X169687Y112838D01*
X172162Y115313D01*
X172170Y115176D01*
D02*
G37*
G36*
X464693Y423794D02*
X464735Y423311D01*
X464772Y423098D01*
X464819Y422904D01*
X464877Y422729D01*
X464945Y422573D01*
X465023Y422436D01*
X465112Y422318D01*
X465212Y422219D01*
X461720Y421984D01*
X461801Y422089D01*
X461874Y422213D01*
X461938Y422355D01*
X461994Y422515D01*
X462041Y422694D01*
X462079Y422892D01*
X462109Y423107D01*
X462144Y423594D01*
X462148Y423865D01*
X464688Y424064D01*
X464693Y423794D01*
D02*
G37*
G36*
X416935Y418368D02*
X416838Y418450D01*
X416721Y418523D01*
X416585Y418587D01*
X416429Y418643D01*
X416254Y418691D01*
X416059Y418729D01*
X415845Y418759D01*
X415358Y418794D01*
X415085Y418798D01*
X414987Y421338D01*
X415259Y421343D01*
X415744Y421381D01*
X415957Y421414D01*
X416150Y421457D01*
X416324Y421510D01*
X416478Y421571D01*
X416612Y421643D01*
X416726Y421724D01*
X416820Y421814D01*
X416935Y418368D01*
D02*
G37*
G36*
X452554Y419698D02*
X452600Y419219D01*
X452641Y419010D01*
X452694Y418822D01*
X452758Y418653D01*
X452834Y418505D01*
X452921Y418377D01*
X453020Y418269D01*
X453131Y418181D01*
X449693Y417523D01*
X449753Y417623D01*
X449807Y417743D01*
X449854Y417882D01*
X449895Y418040D01*
X449929Y418218D01*
X449980Y418630D01*
X449995Y418865D01*
X450008Y419394D01*
X452548Y419967D01*
X452554Y419698D01*
D02*
G37*
G36*
X439201Y416169D02*
X439101Y416228D01*
X438981Y416282D01*
X438843Y416329D01*
X438684Y416370D01*
X438507Y416404D01*
X438094Y416455D01*
X437859Y416470D01*
X437331Y416483D01*
X436756Y419023D01*
X437026Y419029D01*
X437505Y419075D01*
X437714Y419116D01*
X437902Y419169D01*
X438071Y419233D01*
X438219Y419309D01*
X438347Y419396D01*
X438455Y419495D01*
X438542Y419606D01*
X439201Y416169D01*
D02*
G37*
G36*
X436438Y409469D02*
X436308Y409450D01*
X436170Y409413D01*
X436025Y409357D01*
X435873Y409282D01*
X435714Y409188D01*
X435548Y409075D01*
X435374Y408943D01*
X435006Y408622D01*
X434811Y408433D01*
X432850Y410064D01*
X433037Y410259D01*
X433348Y410630D01*
X433472Y410806D01*
X433575Y410977D01*
X433657Y411142D01*
X433718Y411300D01*
X433759Y411453D01*
X433778Y411600D01*
X433776Y411741D01*
X436438Y409469D01*
D02*
G37*
G36*
X415121Y287428D02*
X415243Y287348D01*
X415384Y287277D01*
X415544Y287216D01*
X415722Y287164D01*
X415918Y287121D01*
X416133Y287088D01*
X416618Y287050D01*
X416888Y287045D01*
X416918Y284506D01*
X416648Y284501D01*
X416163Y284462D01*
X415949Y284428D01*
X415753Y284384D01*
X415576Y284330D01*
X415418Y284267D01*
X415277Y284194D01*
X415156Y284111D01*
X415053Y284018D01*
X415017Y287518D01*
X415121Y287428D01*
D02*
G37*
G36*
X512739Y190833D02*
X512785Y190711D01*
X512850Y190579D01*
X512933Y190438D01*
X513034Y190289D01*
X513290Y189961D01*
X513446Y189784D01*
X513810Y189401D01*
X512420Y187199D01*
X512226Y187386D01*
X511854Y187691D01*
X511678Y187810D01*
X511507Y187906D01*
X511343Y187980D01*
X511184Y188031D01*
X511032Y188060D01*
X510886Y188066D01*
X510745Y188050D01*
X512710Y190946D01*
X512739Y190833D01*
D02*
G37*
G36*
X755465Y92831D02*
X755659Y92644D01*
X756029Y92328D01*
X756205Y92200D01*
X756374Y92092D01*
X756537Y92004D01*
X756693Y91935D01*
X756844Y91887D01*
X756988Y91858D01*
X757125Y91850D01*
X754650Y89375D01*
X754642Y89513D01*
X754613Y89656D01*
X754565Y89807D01*
X754496Y89963D01*
X754408Y90126D01*
X754300Y90295D01*
X754172Y90471D01*
X754024Y90653D01*
X753669Y91035D01*
X755465Y92831D01*
D02*
G37*
G36*
X773503Y100780D02*
X773233Y100775D01*
X772748Y100737D01*
X772534Y100703D01*
X772338Y100660D01*
X772160Y100607D01*
X772001Y100545D01*
X771861Y100473D01*
X771739Y100391D01*
X771636Y100300D01*
Y103800D01*
X771739Y103709D01*
X771861Y103627D01*
X772001Y103555D01*
X772160Y103493D01*
X772338Y103440D01*
X772534Y103397D01*
X772748Y103363D01*
X772981Y103339D01*
X773503Y103320D01*
Y100780D01*
D02*
G37*
G36*
X766528Y125324D02*
X766714Y125519D01*
X767021Y125890D01*
X767140Y126067D01*
X767238Y126237D01*
X767313Y126402D01*
X767366Y126561D01*
X767396Y126714D01*
X767405Y126860D01*
X767391Y127001D01*
X770250Y124982D01*
X770133Y124955D01*
X770007Y124909D01*
X769873Y124846D01*
X769730Y124764D01*
X769578Y124664D01*
X769248Y124409D01*
X769070Y124255D01*
X768687Y123891D01*
X766528Y125324D01*
D02*
G37*
G36*
X783315Y220981D02*
X783509Y220794D01*
X783879Y220478D01*
X784055Y220350D01*
X784224Y220242D01*
X784387Y220154D01*
X784543Y220085D01*
X784694Y220037D01*
X784837Y220009D01*
X784975Y220000D01*
X782500Y217525D01*
X782492Y217663D01*
X782463Y217806D01*
X782415Y217957D01*
X782346Y218113D01*
X782258Y218276D01*
X782150Y218445D01*
X782022Y218621D01*
X781874Y218803D01*
X781519Y219185D01*
X783315Y220981D01*
D02*
G37*
G36*
X518870Y262187D02*
X518865Y262457D01*
X518827Y262942D01*
X518793Y263156D01*
X518750Y263352D01*
X518697Y263530D01*
X518635Y263689D01*
X518563Y263829D01*
X518481Y263951D01*
X518390Y264055D01*
X521890D01*
X521799Y263951D01*
X521717Y263829D01*
X521645Y263689D01*
X521583Y263530D01*
X521530Y263352D01*
X521487Y263156D01*
X521453Y262942D01*
X521429Y262709D01*
X521410Y262187D01*
X518870D01*
D02*
G37*
G36*
X660408Y408735D02*
X660138Y408730D01*
X659653Y408692D01*
X659439Y408658D01*
X659243Y408615D01*
X659065Y408562D01*
X658906Y408500D01*
X658766Y408428D01*
X658644Y408346D01*
X658540Y408255D01*
Y411755D01*
X658644Y411664D01*
X658766Y411582D01*
X658906Y411510D01*
X659065Y411448D01*
X659243Y411395D01*
X659439Y411352D01*
X659653Y411318D01*
X659886Y411294D01*
X660408Y411275D01*
Y408735D01*
D02*
G37*
G36*
X752519Y326815D02*
X752706Y327009D01*
X753022Y327379D01*
X753150Y327555D01*
X753258Y327724D01*
X753346Y327887D01*
X753415Y328043D01*
X753463Y328194D01*
X753492Y328337D01*
X753500Y328475D01*
X755975Y326000D01*
X755837Y325992D01*
X755694Y325963D01*
X755543Y325915D01*
X755387Y325846D01*
X755224Y325758D01*
X755055Y325650D01*
X754879Y325522D01*
X754697Y325374D01*
X754315Y325019D01*
X752519Y326815D01*
D02*
G37*
G36*
X77731Y442035D02*
X77347Y442358D01*
X76879Y442646D01*
X76326Y442899D01*
X75687Y443117D01*
X74964Y443299D01*
X74156Y443446D01*
X73263Y443557D01*
X71223Y443675D01*
X70075Y443680D01*
X77500Y451105D01*
X77505Y449957D01*
X77623Y447917D01*
X77734Y447024D01*
X77881Y446216D01*
X78063Y445493D01*
X78281Y444854D01*
X78534Y444301D01*
X78822Y443833D01*
X79145Y443449D01*
X77731Y442035D01*
D02*
G37*
G36*
X101933Y450180D02*
X101433Y450137D01*
X100898Y450010D01*
X100328Y449798D01*
X99723Y449500D01*
X99083Y449118D01*
X98408Y448650D01*
X97698Y448097D01*
X96172Y446738D01*
X95356Y445930D01*
Y456430D01*
X96172Y455622D01*
X97698Y454263D01*
X98408Y453710D01*
X99083Y453242D01*
X99723Y452860D01*
X100328Y452562D01*
X100898Y452350D01*
X101433Y452223D01*
X101933Y452180D01*
Y450180D01*
D02*
G37*
G36*
X77731Y462035D02*
X77347Y462358D01*
X76879Y462646D01*
X76326Y462899D01*
X75687Y463117D01*
X74964Y463299D01*
X74156Y463446D01*
X73263Y463557D01*
X71223Y463675D01*
X70075Y463680D01*
X77500Y471105D01*
X77505Y469957D01*
X77623Y467917D01*
X77734Y467024D01*
X77881Y466216D01*
X78063Y465493D01*
X78281Y464854D01*
X78534Y464301D01*
X78822Y463833D01*
X79145Y463449D01*
X77731Y462035D01*
D02*
G37*
G36*
X101933Y470180D02*
X101433Y470137D01*
X100898Y470010D01*
X100328Y469798D01*
X99723Y469500D01*
X99083Y469118D01*
X98408Y468650D01*
X97698Y468097D01*
X96172Y466738D01*
X95356Y465930D01*
Y476430D01*
X96172Y475622D01*
X97698Y474263D01*
X98408Y473710D01*
X99083Y473242D01*
X99723Y472860D01*
X100328Y472562D01*
X100898Y472350D01*
X101433Y472223D01*
X101933Y472180D01*
Y470180D01*
D02*
G37*
G36*
X191653Y522480D02*
X191383Y522475D01*
X190898Y522437D01*
X190684Y522403D01*
X190488Y522360D01*
X190310Y522307D01*
X190151Y522245D01*
X190011Y522173D01*
X189889Y522091D01*
X189785Y522000D01*
Y525500D01*
X189889Y525409D01*
X190011Y525327D01*
X190151Y525255D01*
X190310Y525193D01*
X190488Y525140D01*
X190684Y525097D01*
X190898Y525063D01*
X191131Y525039D01*
X191653Y525020D01*
Y522480D01*
D02*
G37*
G36*
X252286Y473080D02*
X252474Y473275D01*
X252789Y473645D01*
X252917Y473820D01*
X253025Y473989D01*
X253114Y474152D01*
X253182Y474309D01*
X253230Y474459D01*
X253259Y474603D01*
X253267Y474741D01*
X255742Y472266D01*
X255605Y472257D01*
X255461Y472229D01*
X255310Y472180D01*
X255154Y472112D01*
X254991Y472024D01*
X254822Y471916D01*
X254646Y471788D01*
X254465Y471640D01*
X254082Y471284D01*
X252286Y473080D01*
D02*
G37*
G36*
X302581Y521347D02*
X302576Y521617D01*
X302537Y522102D01*
X302504Y522316D01*
X302461Y522512D01*
X302408Y522690D01*
X302345Y522849D01*
X302273Y522989D01*
X302192Y523111D01*
X302101Y523215D01*
X305601D01*
X305509Y523111D01*
X305428Y522989D01*
X305356Y522849D01*
X305293Y522690D01*
X305241Y522512D01*
X305197Y522316D01*
X305164Y522102D01*
X305140Y521869D01*
X305121Y521347D01*
X302581D01*
D02*
G37*
G36*
X221055Y526320D02*
X218171Y526449D01*
X219794Y529465D01*
X219839Y529350D01*
X219909Y529247D01*
X220004Y529156D01*
X220125Y529078D01*
X220271Y529011D01*
X220442Y528957D01*
X220638Y528914D01*
X220860Y528884D01*
X221106Y528866D01*
X221378Y528860D01*
X221055Y526320D01*
D02*
G37*
G36*
X86185Y719019D02*
X85991Y719206D01*
X85621Y719522D01*
X85445Y719650D01*
X85276Y719758D01*
X85113Y719846D01*
X84957Y719915D01*
X84806Y719963D01*
X84663Y719992D01*
X84525Y720000D01*
X87000Y722475D01*
X87008Y722337D01*
X87037Y722194D01*
X87085Y722043D01*
X87154Y721887D01*
X87242Y721724D01*
X87350Y721555D01*
X87478Y721379D01*
X87626Y721197D01*
X87981Y720815D01*
X86185Y719019D01*
D02*
G37*
G36*
X53653Y793730D02*
X53383Y793725D01*
X52898Y793687D01*
X52684Y793653D01*
X52488Y793610D01*
X52310Y793557D01*
X52151Y793495D01*
X52011Y793423D01*
X51889Y793341D01*
X51785Y793250D01*
Y796750D01*
X51889Y796659D01*
X52011Y796577D01*
X52151Y796505D01*
X52310Y796443D01*
X52488Y796390D01*
X52684Y796347D01*
X52898Y796313D01*
X53131Y796289D01*
X53653Y796270D01*
Y793730D01*
D02*
G37*
G36*
X203347Y796270D02*
X203617Y796275D01*
X204102Y796313D01*
X204316Y796347D01*
X204512Y796390D01*
X204690Y796443D01*
X204849Y796505D01*
X204989Y796577D01*
X205111Y796659D01*
X205215Y796750D01*
Y793250D01*
X205111Y793341D01*
X204989Y793423D01*
X204849Y793495D01*
X204690Y793557D01*
X204512Y793610D01*
X204316Y793653D01*
X204102Y793687D01*
X203869Y793711D01*
X203347Y793730D01*
Y796270D01*
D02*
G37*
G36*
X324185Y532769D02*
X323991Y532956D01*
X323621Y533272D01*
X323445Y533400D01*
X323276Y533508D01*
X323113Y533596D01*
X322957Y533665D01*
X322807Y533713D01*
X322663Y533741D01*
X322525Y533750D01*
X325000Y536225D01*
X325009Y536087D01*
X325037Y535943D01*
X325085Y535793D01*
X325154Y535637D01*
X325242Y535474D01*
X325350Y535305D01*
X325478Y535129D01*
X325626Y534947D01*
X325981Y534565D01*
X324185Y532769D01*
D02*
G37*
G36*
X347140Y682187D02*
X347135Y682457D01*
X347096Y682942D01*
X347063Y683157D01*
X347020Y683353D01*
X346967Y683530D01*
X346904Y683689D01*
X346833Y683830D01*
X346751Y683952D01*
X346660Y684055D01*
X350160D01*
X350069Y683952D01*
X349987Y683830D01*
X349915Y683689D01*
X349852Y683530D01*
X349800Y683353D01*
X349757Y683157D01*
X349723Y682942D01*
X349699Y682709D01*
X349680Y682187D01*
X347140D01*
D02*
G37*
G36*
X359694Y728629D02*
X359689Y728899D01*
X359651Y729384D01*
X359617Y729599D01*
X359574Y729795D01*
X359521Y729972D01*
X359459Y730131D01*
X359387Y730272D01*
X359305Y730394D01*
X359214Y730497D01*
X362714D01*
X362623Y730394D01*
X362541Y730272D01*
X362469Y730131D01*
X362407Y729972D01*
X362354Y729795D01*
X362311Y729599D01*
X362277Y729384D01*
X362253Y729151D01*
X362234Y728629D01*
X359694D01*
D02*
G37*
G36*
X438024Y429547D02*
X438218Y429361D01*
X438590Y429054D01*
X438767Y428934D01*
X438937Y428837D01*
X439102Y428761D01*
X439261Y428708D01*
X439414Y428677D01*
X439560Y428668D01*
X439701Y428681D01*
X437669Y425831D01*
X437643Y425949D01*
X437597Y426076D01*
X437534Y426211D01*
X437453Y426354D01*
X437353Y426507D01*
X437235Y426667D01*
X436944Y427015D01*
X436581Y427397D01*
X438024Y429547D01*
D02*
G37*
G36*
X453153Y431087D02*
X453347Y430899D01*
X453717Y430583D01*
X453893Y430455D01*
X454062Y430347D01*
X454225Y430259D01*
X454381Y430191D01*
X454531Y430142D01*
X454675Y430114D01*
X454813Y430105D01*
X452338Y427630D01*
X452329Y427768D01*
X452301Y427912D01*
X452253Y428062D01*
X452184Y428218D01*
X452096Y428381D01*
X451988Y428550D01*
X451860Y428726D01*
X451712Y428908D01*
X451357Y429291D01*
X453153Y431087D01*
D02*
G37*
G36*
X507519Y471315D02*
X507706Y471509D01*
X508022Y471879D01*
X508150Y472055D01*
X508258Y472224D01*
X508346Y472387D01*
X508415Y472543D01*
X508463Y472693D01*
X508492Y472837D01*
X508500Y472975D01*
X510975Y470500D01*
X510837Y470491D01*
X510694Y470463D01*
X510543Y470415D01*
X510387Y470346D01*
X510224Y470258D01*
X510055Y470150D01*
X509879Y470022D01*
X509697Y469874D01*
X509315Y469519D01*
X507519Y471315D01*
D02*
G37*
G36*
X519217Y484990D02*
X519029Y484795D01*
X518715Y484425D01*
X518588Y484249D01*
X518481Y484080D01*
X518394Y483916D01*
X518327Y483759D01*
X518281Y483608D01*
X518255Y483463D01*
X518249Y483324D01*
X515726Y485750D01*
X515862Y485761D01*
X516005Y485792D01*
X516154Y485842D01*
X516310Y485912D01*
X516472Y486002D01*
X516640Y486111D01*
X516815Y486240D01*
X517185Y486557D01*
X517380Y486745D01*
X519217Y484990D01*
D02*
G37*
G36*
X424603Y530112D02*
X424599Y530382D01*
X424560Y530867D01*
X424527Y531082D01*
X424483Y531278D01*
X424431Y531455D01*
X424368Y531614D01*
X424296Y531755D01*
X424215Y531877D01*
X424123Y531980D01*
X427623D01*
X427532Y531877D01*
X427451Y531755D01*
X427379Y531614D01*
X427316Y531455D01*
X427263Y531278D01*
X427220Y531082D01*
X427187Y530867D01*
X427163Y530634D01*
X427143Y530112D01*
X424603D01*
D02*
G37*
G36*
X462148Y527756D02*
X462143Y528026D01*
X462101Y528509D01*
X462064Y528722D01*
X462017Y528915D01*
X461959Y529091D01*
X461891Y529247D01*
X461813Y529384D01*
X461723Y529502D01*
X461624Y529601D01*
X465116Y529836D01*
X465035Y529731D01*
X464962Y529607D01*
X464898Y529465D01*
X464842Y529305D01*
X464795Y529126D01*
X464756Y528928D01*
X464726Y528713D01*
X464692Y528226D01*
X464688Y527955D01*
X462148Y527756D01*
D02*
G37*
G36*
X497653Y487980D02*
X497383Y487975D01*
X496898Y487937D01*
X496684Y487903D01*
X496488Y487860D01*
X496310Y487807D01*
X496151Y487745D01*
X496011Y487673D01*
X495889Y487591D01*
X495785Y487500D01*
Y491000D01*
X495889Y490909D01*
X496011Y490827D01*
X496151Y490755D01*
X496310Y490693D01*
X496488Y490640D01*
X496684Y490597D01*
X496898Y490563D01*
X497131Y490539D01*
X497653Y490520D01*
Y487980D01*
D02*
G37*
G36*
X723830Y850310D02*
X722848Y850302D01*
X721082Y850176D01*
X720298Y850057D01*
X719579Y849902D01*
X718926Y849710D01*
X718339Y849482D01*
X717818Y849217D01*
X717362Y848915D01*
X716972Y848576D01*
X715176Y850372D01*
X715515Y850762D01*
X715817Y851218D01*
X716082Y851739D01*
X716310Y852326D01*
X716502Y852979D01*
X716657Y853698D01*
X716776Y854482D01*
X716857Y855332D01*
X716910Y857230D01*
X723830Y850310D01*
D02*
G37*
G36*
X698430D02*
X697448Y850302D01*
X695682Y850176D01*
X694898Y850057D01*
X694179Y849902D01*
X693526Y849710D01*
X692939Y849482D01*
X692418Y849217D01*
X691962Y848915D01*
X691572Y848576D01*
X689776Y850372D01*
X690115Y850762D01*
X690417Y851218D01*
X690682Y851739D01*
X690910Y852326D01*
X691102Y852979D01*
X691257Y853698D01*
X691376Y854482D01*
X691457Y855332D01*
X691510Y857230D01*
X698430Y850310D01*
D02*
G37*
G36*
X595112Y683454D02*
X595031Y683333D01*
X594959Y683192D01*
X594896Y683033D01*
X594844Y682856D01*
X594800Y682659D01*
X594767Y682445D01*
X594743Y682212D01*
X594724Y681690D01*
X592184D01*
X592179Y681960D01*
X592140Y682445D01*
X592107Y682659D01*
X592064Y682856D01*
X592011Y683033D01*
X591948Y683192D01*
X591876Y683333D01*
X591795Y683454D01*
X591704Y683558D01*
X595204D01*
X595112Y683454D01*
D02*
G37*
G36*
X588219Y682884D02*
X588138Y682763D01*
X588065Y682622D01*
X588003Y682463D01*
X587950Y682286D01*
X587907Y682089D01*
X587874Y681875D01*
X587850Y681642D01*
X587830Y681120D01*
X585290D01*
X585285Y681390D01*
X585247Y681875D01*
X585214Y682089D01*
X585170Y682286D01*
X585117Y682463D01*
X585055Y682622D01*
X584983Y682763D01*
X584902Y682884D01*
X584810Y682988D01*
X588310D01*
X588219Y682884D01*
D02*
G37*
G36*
X755030Y600000D02*
X754894Y599989D01*
X754751Y599958D01*
X754602Y599907D01*
X754447Y599837D01*
X754285Y599747D01*
X754116Y599637D01*
X753941Y599508D01*
X753572Y599191D01*
X753377Y599003D01*
X751535Y600754D01*
X751723Y600948D01*
X752037Y601318D01*
X752164Y601494D01*
X752271Y601664D01*
X752357Y601828D01*
X752423Y601985D01*
X752470Y602136D01*
X752495Y602281D01*
X752501Y602420D01*
X755030Y600000D01*
D02*
G37*
G36*
X619275Y585383D02*
X619313Y584898D01*
X619347Y584684D01*
X619390Y584488D01*
X619443Y584310D01*
X619505Y584151D01*
X619577Y584011D01*
X619659Y583889D01*
X619750Y583785D01*
X616250D01*
X616341Y583889D01*
X616423Y584011D01*
X616495Y584151D01*
X616557Y584310D01*
X616610Y584488D01*
X616653Y584684D01*
X616687Y584898D01*
X616711Y585131D01*
X616730Y585653D01*
X619270D01*
X619275Y585383D01*
D02*
G37*
G36*
X614205Y579570D02*
X614243Y579085D01*
X614277Y578870D01*
X614320Y578674D01*
X614373Y578497D01*
X614435Y578338D01*
X614507Y578197D01*
X614589Y578075D01*
X614680Y577972D01*
X611180D01*
X611271Y578075D01*
X611353Y578197D01*
X611425Y578338D01*
X611487Y578497D01*
X611540Y578674D01*
X611583Y578870D01*
X611617Y579085D01*
X611641Y579318D01*
X611660Y579840D01*
X614200D01*
X614205Y579570D01*
D02*
G37*
D10*
X50000Y795000D02*
X207000D01*
X732802Y433281D02*
Y580224D01*
X755000Y602422D01*
X709526Y410005D02*
X732802Y433281D01*
X492310Y322554D02*
Y454310D01*
X455531Y285776D02*
X492310Y322554D01*
Y454310D02*
X511000Y473000D01*
X245000Y463998D02*
X255767Y474766D01*
X245000Y330000D02*
Y463998D01*
X205500Y290500D02*
X245000Y330000D01*
X153750Y290500D02*
X205500D01*
X686278Y809508D02*
Y845078D01*
X676160Y799390D02*
X686278Y809508D01*
X676160Y619653D02*
Y799390D01*
X686278Y845078D02*
X698500Y857300D01*
X680000Y790000D02*
X710000Y820000D01*
Y843400D01*
X680000Y618063D02*
Y790000D01*
X710000Y843400D02*
X723900Y857300D01*
X515750Y483319D02*
X546181Y513750D01*
X515750Y483250D02*
Y483319D01*
X546181Y513750D02*
X575687D01*
X516250Y489250D02*
X545250Y518250D01*
X494000Y489250D02*
X516250D01*
X545250Y518250D02*
X574757D01*
X413275Y285776D02*
X455531D01*
X416417Y412932D02*
X427754D01*
X432575Y417753D01*
X440154D01*
X440625Y418224D01*
X439555Y426220D02*
X440139D01*
X351668Y514107D02*
X439555Y426220D01*
X463418Y420488D02*
Y531332D01*
X463250Y531500D02*
X463418Y531332D01*
Y420488D02*
X463586Y420320D01*
X694002Y110358D02*
X694450Y109910D01*
X693583Y110358D02*
X694002D01*
X736590Y109910D02*
X757150Y89350D01*
X634941Y169000D02*
X693583Y110358D01*
X694450Y109910D02*
X736590D01*
X381820Y304420D02*
X381830Y304430D01*
X409677Y267070D02*
X471790D01*
X381820Y294928D02*
X409677Y267070D01*
X381820Y294928D02*
Y304420D01*
X492352Y201228D02*
Y246508D01*
Y201228D02*
X524580Y169000D01*
X471790Y267070D02*
X492352Y246508D01*
X524580Y169000D02*
X634941D01*
X520140Y188741D02*
Y265840D01*
X531981Y176900D02*
X791100D01*
X520140Y188741D02*
X531981Y176900D01*
X791100D02*
X811000Y157000D01*
Y119000D02*
Y157000D01*
X794050Y102050D02*
X811000Y119000D01*
X769850Y102050D02*
X794050D01*
X769850Y126850D02*
Y127450D01*
X756750Y113750D02*
X769850Y126850D01*
X696040Y113750D02*
X756750D01*
X510250Y190500D02*
X510916D01*
X528576Y172840D01*
X636950D01*
X696040Y113750D01*
X656755Y410005D02*
X709526D01*
X355780Y517749D02*
X451278Y422251D01*
Y416569D02*
Y422251D01*
X355780Y517749D02*
Y554341D01*
X425873Y456570D02*
X454838Y427605D01*
X425873Y456570D02*
Y533765D01*
X413250Y285750D02*
X413275Y285776D01*
X303851Y520067D02*
X415168Y408750D01*
X303851Y520067D02*
Y525000D01*
X310070Y150070D02*
X342076D01*
X277000Y117000D02*
X310070Y150070D01*
X229000Y117000D02*
X277000D01*
X221000Y109000D02*
X229000Y117000D01*
X176000Y109000D02*
X221000D01*
X169662Y115338D02*
X176000Y109000D01*
X618000Y582000D02*
Y649431D01*
X593454Y673977D02*
X618000Y649431D01*
X593454Y673977D02*
Y685343D01*
X586560Y675440D02*
X612930Y649070D01*
Y576186D02*
Y649070D01*
X586560Y675440D02*
Y684773D01*
X574757Y518250D02*
X676160Y619653D01*
X575687Y513750D02*
X680000Y618063D01*
X415168Y408750D02*
X433332D01*
X341910Y487439D02*
X416417Y412932D01*
X289307Y523750D02*
X372920Y440137D01*
X188000Y523750D02*
X289307D01*
X376760Y270298D02*
Y441728D01*
X372920Y273957D02*
Y440137D01*
X219274Y527590D02*
X290898D01*
X414711Y420068D02*
X418604D01*
X290898Y527590D02*
X376760Y441728D01*
X341910Y487439D02*
Y516840D01*
X345750Y489029D02*
X414711Y420068D01*
X345750Y489029D02*
Y542000D01*
X218044Y528820D02*
X219274Y527590D01*
X217379Y528820D02*
X218044D01*
X433332Y408750D02*
X436266Y411684D01*
Y411963D01*
X387575Y294675D02*
X411340Y270910D01*
X376731Y270269D02*
X376760Y270298D01*
X387575Y294675D02*
Y300161D01*
X369435Y270472D02*
X372920Y273957D01*
X387105Y300632D02*
X387575Y300161D01*
X342076Y150070D02*
X411033Y219028D01*
X731590Y270910D02*
X785000Y217500D01*
X702250Y274750D02*
X756000Y328500D01*
X411340Y270910D02*
X731590D01*
X393484Y294306D02*
X413039Y274750D01*
X702250D01*
X126717Y188504D02*
X262004D01*
X53801Y115588D02*
X126717Y188504D01*
X262004D02*
X296250Y222750D01*
X393484Y294306D02*
Y301894D01*
X451278Y416569D02*
X451748Y416099D01*
X346000Y564121D02*
X355780Y554341D01*
X346000Y564121D02*
Y647250D01*
X360964Y662214D01*
Y732282D01*
X321750Y566000D02*
X345750Y542000D01*
X321750Y566000D02*
Y625362D01*
X133250Y673750D02*
X273362D01*
X321750Y625362D01*
X84500Y722500D02*
X133250Y673750D01*
X322500Y536250D02*
X341910Y516840D01*
X351668Y514107D02*
Y553023D01*
X342160Y562530D02*
X351668Y553023D01*
X342160Y648841D02*
X348410Y655090D01*
Y685840D01*
X342160Y562530D02*
Y648841D01*
D11*
X106620Y461380D02*
X123811Y444189D01*
Y303246D02*
Y444189D01*
X79800Y461380D02*
X106620D01*
X90000Y471180D02*
X112820D01*
X127111Y304613D02*
Y456889D01*
X112820Y471180D02*
X127111Y456889D01*
X70000Y471180D02*
X79800Y461380D01*
X145448Y281609D02*
X315903D01*
X123811Y303246D02*
X145448Y281609D01*
X315903D02*
X327192Y270320D01*
X142714Y275009D02*
X304491D01*
X310691Y278309D02*
X318750Y270250D01*
X321288Y284909D02*
X329309Y276888D01*
X146815Y284909D02*
X321288D01*
X144081Y278309D02*
X310691D01*
X304491Y275009D02*
X311750Y267750D01*
X117211Y300512D02*
X142714Y275009D01*
X120511Y301879D02*
X144081Y278309D01*
X127111Y304613D02*
X146815Y284909D01*
X105700Y451180D02*
X120511Y436370D01*
X90000Y451180D02*
X105700D01*
X120511Y301879D02*
Y436370D01*
X111213Y441000D02*
X117211Y435003D01*
Y300512D02*
Y435003D01*
X80180Y441000D02*
X111213D01*
X70000Y451180D02*
X80180Y441000D01*
D92*
X70000Y371180D02*
D03*
Y391180D02*
D03*
X90000Y431180D02*
D03*
X70000D02*
D03*
X90000Y491180D02*
D03*
X70000D02*
D03*
X90000Y511180D02*
D03*
X70000D02*
D03*
X90000Y371180D02*
D03*
Y391180D02*
D03*
Y411180D02*
D03*
X70000D02*
D03*
X90000Y451180D02*
D03*
X70000D02*
D03*
X90000Y471180D02*
D03*
X70000D02*
D03*
X90000Y531180D02*
D03*
X70000D02*
D03*
X90000Y551180D02*
D03*
X70000D02*
D03*
D93*
X850900Y50800D02*
D03*
X88900Y908100D02*
D03*
X825500D02*
D03*
X50000Y50000D02*
D03*
D94*
X393700Y908100D02*
D03*
X419100Y882700D02*
D03*
X393700D02*
D03*
X419100Y908100D02*
D03*
X393700Y857300D02*
D03*
X419100Y831900D02*
D03*
X393700D02*
D03*
X419100Y857300D02*
D03*
X215900D02*
D03*
Y831900D02*
D03*
X139700D02*
D03*
Y857300D02*
D03*
X165100Y831900D02*
D03*
X241300Y857300D02*
D03*
X292100Y831900D02*
D03*
X266700D02*
D03*
Y857300D02*
D03*
X292100D02*
D03*
X317500Y831900D02*
D03*
X368300D02*
D03*
X342900D02*
D03*
X317500Y857300D02*
D03*
X342900D02*
D03*
X241300Y831900D02*
D03*
X190500Y857300D02*
D03*
Y831900D02*
D03*
X165100Y857300D02*
D03*
X444500D02*
D03*
Y831900D02*
D03*
X368300Y857300D02*
D03*
X469900Y831900D02*
D03*
Y857300D02*
D03*
X495300Y831900D02*
D03*
X647700Y857300D02*
D03*
Y831900D02*
D03*
X596900D02*
D03*
Y857300D02*
D03*
X622300Y831900D02*
D03*
X673100D02*
D03*
Y857300D02*
D03*
X571500Y831900D02*
D03*
X622300Y857300D02*
D03*
X546100D02*
D03*
X698500Y831900D02*
D03*
X571500Y857300D02*
D03*
X723900D02*
D03*
X749300Y831900D02*
D03*
Y857300D02*
D03*
X774700Y831900D02*
D03*
X698500Y857300D02*
D03*
X723900Y831900D02*
D03*
X546100D02*
D03*
X520700Y857300D02*
D03*
Y831900D02*
D03*
X495300Y857300D02*
D03*
X139700Y882700D02*
D03*
Y908100D02*
D03*
X165100Y882700D02*
D03*
X241300Y908100D02*
D03*
X292100Y882700D02*
D03*
X266700D02*
D03*
Y908100D02*
D03*
X292100D02*
D03*
X317500Y882700D02*
D03*
X368300D02*
D03*
X342900D02*
D03*
X317500Y908100D02*
D03*
X342900D02*
D03*
X241300Y882700D02*
D03*
X190500Y908100D02*
D03*
X215900Y882700D02*
D03*
Y908100D02*
D03*
X190500Y882700D02*
D03*
X165100Y908100D02*
D03*
X444500D02*
D03*
Y882700D02*
D03*
X368300Y908100D02*
D03*
X469900Y882700D02*
D03*
Y908100D02*
D03*
X495300Y882700D02*
D03*
X647700Y908100D02*
D03*
Y882700D02*
D03*
X596900D02*
D03*
Y908100D02*
D03*
X622300Y882700D02*
D03*
X673100D02*
D03*
Y908100D02*
D03*
X571500Y882700D02*
D03*
X622300Y908100D02*
D03*
X546100D02*
D03*
X698500Y882700D02*
D03*
X571500Y908100D02*
D03*
X723900D02*
D03*
X749300Y882700D02*
D03*
Y908100D02*
D03*
X774700Y882700D02*
D03*
X698500Y908100D02*
D03*
X723900Y882700D02*
D03*
X546100D02*
D03*
X520700Y908100D02*
D03*
Y882700D02*
D03*
X495300Y908100D02*
D03*
D95*
X763500Y76650D02*
D03*
X753350Y152850D02*
D03*
X773650D02*
D03*
D96*
X738100Y76650D02*
D03*
Y133800D02*
D03*
X788900Y76650D02*
D03*
Y133800D02*
D03*
D97*
X774700Y857300D02*
D03*
Y908100D02*
D03*
D98*
X499250Y432750D02*
D03*
X258000Y719000D02*
D03*
X250500D02*
D03*
X235500D02*
D03*
X243000D02*
D03*
X228000D02*
D03*
X213000D02*
D03*
X220500D02*
D03*
X198000D02*
D03*
X205500D02*
D03*
X258000Y726000D02*
D03*
X250500D02*
D03*
X235500D02*
D03*
X243000D02*
D03*
X228000D02*
D03*
X213000D02*
D03*
X220500D02*
D03*
X198000D02*
D03*
X205500D02*
D03*
X260750Y786500D02*
D03*
X73000Y832000D02*
D03*
X50000Y795000D02*
D03*
X207000D02*
D03*
X154500Y723000D02*
D03*
X147000D02*
D03*
X167000Y634000D02*
D03*
X750500Y302750D02*
D03*
X640250Y771000D02*
D03*
X463720Y622750D02*
D03*
X366993Y702433D02*
D03*
X335864Y658026D02*
D03*
X755000Y786000D02*
D03*
X139250Y736750D02*
D03*
X199337Y685650D02*
D03*
X505000Y688000D02*
D03*
X600000Y581000D02*
D03*
X620830Y664516D02*
D03*
X335392Y616349D02*
D03*
X308498Y389549D02*
D03*
X769657Y193135D02*
D03*
X154500Y693000D02*
D03*
Y700500D02*
D03*
Y708000D02*
D03*
Y715500D02*
D03*
X253500Y376500D02*
D03*
Y384000D02*
D03*
Y399000D02*
D03*
Y391500D02*
D03*
Y406500D02*
D03*
Y414000D02*
D03*
Y421500D02*
D03*
Y429000D02*
D03*
X537500Y420500D02*
D03*
Y428000D02*
D03*
Y405500D02*
D03*
Y413000D02*
D03*
X515000Y438500D02*
D03*
X530000Y413000D02*
D03*
Y398000D02*
D03*
Y405500D02*
D03*
Y428000D02*
D03*
Y420500D02*
D03*
X235000Y445000D02*
D03*
X298500Y406500D02*
D03*
Y414000D02*
D03*
X306000Y421500D02*
D03*
X298500D02*
D03*
X306000Y429000D02*
D03*
X298500D02*
D03*
X317345Y121950D02*
D03*
X287000Y144000D02*
D03*
X380746Y130213D02*
D03*
X447986Y144494D02*
D03*
X502037Y124489D02*
D03*
X610000Y124500D02*
D03*
X100232Y194998D02*
D03*
X129385Y235146D02*
D03*
X224350Y138176D02*
D03*
X242000Y154000D02*
D03*
X238000Y535000D02*
D03*
X258000Y541000D02*
D03*
X267000D02*
D03*
Y550000D02*
D03*
X258000Y559000D02*
D03*
Y550000D02*
D03*
X267000Y559000D02*
D03*
X340504Y138173D02*
D03*
X332000Y145000D02*
D03*
X357000Y154000D02*
D03*
X285000Y542000D02*
D03*
X303000D02*
D03*
X294000D02*
D03*
X285000Y551000D02*
D03*
X303000D02*
D03*
X294000D02*
D03*
X381000Y542000D02*
D03*
X390000Y569000D02*
D03*
X381000D02*
D03*
X390000Y551000D02*
D03*
X426000Y552000D02*
D03*
X417000D02*
D03*
X408000D02*
D03*
Y561000D02*
D03*
X426000D02*
D03*
X417000D02*
D03*
X40000Y600000D02*
D03*
X42886Y721949D02*
D03*
X228000Y587000D02*
D03*
Y596000D02*
D03*
X237000Y578000D02*
D03*
X246000D02*
D03*
Y587000D02*
D03*
X237000Y596000D02*
D03*
Y587000D02*
D03*
X246000Y596000D02*
D03*
X205500Y733000D02*
D03*
X198000D02*
D03*
X246000Y605000D02*
D03*
X237000D02*
D03*
X228000D02*
D03*
Y614000D02*
D03*
X246000D02*
D03*
X237000D02*
D03*
X50806Y744136D02*
D03*
X74000Y801000D02*
D03*
X220500Y733000D02*
D03*
X213000D02*
D03*
X205500Y740000D02*
D03*
X220500D02*
D03*
X213000D02*
D03*
X228000Y733000D02*
D03*
X243000D02*
D03*
X235500D02*
D03*
X228000Y740000D02*
D03*
X243000D02*
D03*
X235500D02*
D03*
X198000D02*
D03*
X255000Y605000D02*
D03*
Y614000D02*
D03*
X360000Y588000D02*
D03*
Y597000D02*
D03*
Y615000D02*
D03*
Y606000D02*
D03*
X369000Y615000D02*
D03*
Y597000D02*
D03*
Y588000D02*
D03*
Y606000D02*
D03*
X378000Y615000D02*
D03*
X360000Y624000D02*
D03*
X378000D02*
D03*
X369000D02*
D03*
X355000Y674000D02*
D03*
X432500Y692500D02*
D03*
Y677500D02*
D03*
Y685000D02*
D03*
X284593Y703116D02*
D03*
X250500Y733000D02*
D03*
X258000D02*
D03*
X250500Y740000D02*
D03*
X330844Y713947D02*
D03*
X335334Y741844D02*
D03*
X569000Y138750D02*
D03*
X562000Y149070D02*
D03*
X589500Y159625D02*
D03*
X642000Y452250D02*
D03*
X730449Y317425D02*
D03*
X822750Y239500D02*
D03*
X662250Y375250D02*
D03*
X705286Y394272D02*
D03*
X709370Y419750D02*
D03*
X767985Y394843D02*
D03*
X736983Y412201D02*
D03*
X465250Y589500D02*
D03*
X485750Y568250D02*
D03*
X486000Y588000D02*
D03*
X477000Y597000D02*
D03*
X486000D02*
D03*
X495000Y606000D02*
D03*
X486000Y615000D02*
D03*
Y606000D02*
D03*
X495000Y615000D02*
D03*
Y597000D02*
D03*
X504000Y615000D02*
D03*
X440000Y692500D02*
D03*
Y677500D02*
D03*
Y685000D02*
D03*
X446129Y630491D02*
D03*
X447500Y677500D02*
D03*
Y685000D02*
D03*
Y692500D02*
D03*
X457500Y687500D02*
D03*
X462500Y697500D02*
D03*
X452500Y757500D02*
D03*
Y747500D02*
D03*
Y777500D02*
D03*
Y767500D02*
D03*
X462500Y707500D02*
D03*
Y717500D02*
D03*
Y757500D02*
D03*
Y737500D02*
D03*
Y747500D02*
D03*
X486000Y624000D02*
D03*
X504000D02*
D03*
X495000D02*
D03*
X477000D02*
D03*
X742500Y517500D02*
D03*
X742500Y527500D02*
D03*
X750000Y537500D02*
D03*
X742500Y547500D02*
D03*
X742500Y537500D02*
D03*
X750000Y547500D02*
D03*
X750000Y517500D02*
D03*
X765000D02*
D03*
X757500D02*
D03*
X750000Y527500D02*
D03*
X765000D02*
D03*
X757500D02*
D03*
X772500Y517500D02*
D03*
X780000D02*
D03*
X780000Y527500D02*
D03*
X772500D02*
D03*
X780000Y537500D02*
D03*
X757500D02*
D03*
X765000D02*
D03*
X765000Y547500D02*
D03*
X757500D02*
D03*
X772500D02*
D03*
X772500Y537500D02*
D03*
X780000Y547500D02*
D03*
X775750Y637500D02*
D03*
X642750Y682750D02*
D03*
X642500Y732500D02*
D03*
X600623Y793157D02*
D03*
X622219Y762117D02*
D03*
X632091Y797249D02*
D03*
X560500Y642000D02*
D03*
X424875Y649125D02*
D03*
X676500Y145750D02*
D03*
X745000Y169750D02*
D03*
X390000Y560000D02*
D03*
X582172Y484726D02*
D03*
X477000Y615000D02*
D03*
Y606000D02*
D03*
X462500Y767500D02*
D03*
X452500Y737500D02*
D03*
X462500Y727500D02*
D03*
X543000Y561000D02*
D03*
X381000Y560000D02*
D03*
X390000Y542000D02*
D03*
X381000Y551000D02*
D03*
X303293Y628280D02*
D03*
X335500Y513000D02*
D03*
X541500Y678250D02*
D03*
X258000Y740000D02*
D03*
X279586Y254125D02*
D03*
X292732Y302750D02*
D03*
X263631Y301500D02*
D03*
X359302Y296993D02*
D03*
X378000Y213750D02*
D03*
X108500Y114250D02*
D03*
X70750Y247500D02*
D03*
X542250Y377000D02*
D03*
X202099Y485178D02*
D03*
X465574Y280706D02*
D03*
X161021Y314177D02*
D03*
X306250Y376000D02*
D03*
X307250Y365000D02*
D03*
X574000Y264750D02*
D03*
X534250Y241250D02*
D03*
X356250Y784500D02*
D03*
X258000Y532660D02*
D03*
X267000D02*
D03*
X364509Y406750D02*
D03*
X324165Y479915D02*
D03*
X520000Y295000D02*
D03*
X792295Y418500D02*
D03*
Y329000D02*
D03*
X696000Y704500D02*
D03*
Y697000D02*
D03*
X688500Y712000D02*
D03*
Y697000D02*
D03*
Y704500D02*
D03*
X696000Y712000D02*
D03*
Y689500D02*
D03*
X495000Y672000D02*
D03*
X138000Y652000D02*
D03*
X394375Y695250D02*
D03*
X352541Y606460D02*
D03*
Y615000D02*
D03*
Y624000D02*
D03*
Y597000D02*
D03*
X543000Y552000D02*
D03*
X551888D02*
D03*
X552000Y561000D02*
D03*
X534258D02*
D03*
Y552000D02*
D03*
X516000Y560000D02*
D03*
Y569000D02*
D03*
X507000Y560000D02*
D03*
Y569000D02*
D03*
Y551000D02*
D03*
X495000Y588000D02*
D03*
X482412Y544662D02*
D03*
X446210Y512182D02*
D03*
X516000Y551000D02*
D03*
X279000Y379000D02*
D03*
X769750Y762000D02*
D03*
X743500Y792000D02*
D03*
X747000Y684000D02*
D03*
X628000Y663000D02*
D03*
X632251Y587124D02*
D03*
X647595Y631799D02*
D03*
X628536Y643000D02*
D03*
X473857Y154157D02*
D03*
X455000Y138000D02*
D03*
X364000Y92000D02*
D03*
X356500D02*
D03*
X349000D02*
D03*
X364000Y99500D02*
D03*
X356500D02*
D03*
X349000D02*
D03*
X364000Y107000D02*
D03*
X356500D02*
D03*
X349000D02*
D03*
Y84500D02*
D03*
X356500D02*
D03*
X364000D02*
D03*
X349000Y77000D02*
D03*
X356500D02*
D03*
X364000D02*
D03*
X249000D02*
D03*
X241500D02*
D03*
X234000D02*
D03*
X249000Y84500D02*
D03*
X241500D02*
D03*
X234000D02*
D03*
Y107000D02*
D03*
X241500D02*
D03*
X249000D02*
D03*
X234000Y92000D02*
D03*
X241500D02*
D03*
X249000D02*
D03*
X479250Y77000D02*
D03*
X471750D02*
D03*
X464250D02*
D03*
X479250Y84500D02*
D03*
X471750D02*
D03*
X464250D02*
D03*
Y107000D02*
D03*
X471750D02*
D03*
X479250D02*
D03*
X464250Y99500D02*
D03*
X471750D02*
D03*
X479250D02*
D03*
X464250Y92000D02*
D03*
X471750D02*
D03*
X479250D02*
D03*
X594250Y77000D02*
D03*
X586750D02*
D03*
X579250D02*
D03*
X594250Y84500D02*
D03*
X586750D02*
D03*
X579250D02*
D03*
Y107000D02*
D03*
X586750D02*
D03*
X594250D02*
D03*
X579250Y99500D02*
D03*
X586750D02*
D03*
X594250D02*
D03*
X579250Y92000D02*
D03*
X586750D02*
D03*
X594250D02*
D03*
X522500Y420500D02*
D03*
X515000D02*
D03*
X522500Y428000D02*
D03*
X515000D02*
D03*
Y405500D02*
D03*
X522500D02*
D03*
X515000Y398000D02*
D03*
X522500D02*
D03*
X515000Y413000D02*
D03*
X522500D02*
D03*
X507500Y405500D02*
D03*
Y398000D02*
D03*
Y390500D02*
D03*
X500000Y405500D02*
D03*
Y398000D02*
D03*
Y390500D02*
D03*
Y383000D02*
D03*
X507500D02*
D03*
X515000D02*
D03*
Y390500D02*
D03*
X522500D02*
D03*
X261000Y429000D02*
D03*
Y421500D02*
D03*
Y414000D02*
D03*
X268500Y429000D02*
D03*
Y421500D02*
D03*
Y414000D02*
D03*
X276000Y429000D02*
D03*
Y421500D02*
D03*
Y414000D02*
D03*
X291000D02*
D03*
Y421500D02*
D03*
Y429000D02*
D03*
X283500Y414000D02*
D03*
Y421500D02*
D03*
Y429000D02*
D03*
X261000Y406500D02*
D03*
Y391500D02*
D03*
Y399000D02*
D03*
Y384000D02*
D03*
Y376500D02*
D03*
X276000Y406500D02*
D03*
X268500D02*
D03*
X291000D02*
D03*
X283500D02*
D03*
X276000Y399000D02*
D03*
X268500D02*
D03*
X291000D02*
D03*
X283500D02*
D03*
X628759Y742911D02*
D03*
X210000Y666000D02*
D03*
X587213Y556429D02*
D03*
X581356Y671963D02*
D03*
X327818Y639750D02*
D03*
X660000Y314000D02*
D03*
X608000Y361000D02*
D03*
X76670Y204831D02*
D03*
X163000Y772000D02*
D03*
X178450Y624423D02*
D03*
X249000Y99500D02*
D03*
X241500D02*
D03*
X234000D02*
D03*
X867160Y34536D02*
D03*
X834640D02*
D03*
Y67063D02*
D03*
X867160D02*
D03*
X850900Y73800D02*
D03*
X827900Y50800D02*
D03*
X850900Y27800D02*
D03*
X873900Y50800D02*
D03*
X105160Y891836D02*
D03*
X72640D02*
D03*
Y924363D02*
D03*
X105160D02*
D03*
X88900Y931100D02*
D03*
X65900Y908100D02*
D03*
X88900Y885100D02*
D03*
X111900Y908100D02*
D03*
X841760Y891836D02*
D03*
X809240D02*
D03*
Y924363D02*
D03*
X841760D02*
D03*
X825500Y931100D02*
D03*
X802500Y908100D02*
D03*
X825500Y885100D02*
D03*
X848500Y908100D02*
D03*
X66260Y33737D02*
D03*
X33740D02*
D03*
Y66263D02*
D03*
X66260D02*
D03*
X50000Y73000D02*
D03*
X27000Y50000D02*
D03*
X50000Y27000D02*
D03*
X73000Y50000D02*
D03*
X772000Y741000D02*
D03*
X797086Y718304D02*
D03*
X797336Y696304D02*
D03*
X805907Y690783D02*
D03*
X135000Y540000D02*
D03*
Y532500D02*
D03*
Y525000D02*
D03*
X127500Y532500D02*
D03*
Y540000D02*
D03*
X120000D02*
D03*
Y547500D02*
D03*
X127500D02*
D03*
X135000D02*
D03*
X120000Y555000D02*
D03*
X127500D02*
D03*
X135000D02*
D03*
X120000Y562500D02*
D03*
X127500D02*
D03*
X142500Y547500D02*
D03*
Y540000D02*
D03*
Y532500D02*
D03*
X352411Y450655D02*
D03*
X400389Y315238D02*
D03*
X592339Y590584D02*
D03*
X586000Y512000D02*
D03*
X385555Y280909D02*
D03*
X779970Y294376D02*
D03*
X788645Y192862D02*
D03*
X722641Y215235D02*
D03*
X700000Y200000D02*
D03*
X690000Y359000D02*
D03*
X702000D02*
D03*
X696000D02*
D03*
X690000Y353000D02*
D03*
X696000D02*
D03*
X702000D02*
D03*
X720000Y251000D02*
D03*
X714000D02*
D03*
X708000D02*
D03*
X714000Y257000D02*
D03*
X720000D02*
D03*
X708000D02*
D03*
X196958Y269968D02*
D03*
X228348Y268772D02*
D03*
X213000Y217000D02*
D03*
Y210000D02*
D03*
X220000Y217000D02*
D03*
Y210000D02*
D03*
X213000Y203000D02*
D03*
Y196000D02*
D03*
X220000Y203000D02*
D03*
Y196000D02*
D03*
X227000Y203000D02*
D03*
Y196000D02*
D03*
X234000Y203000D02*
D03*
Y196000D02*
D03*
X241000Y203000D02*
D03*
X248000D02*
D03*
X241000Y196000D02*
D03*
X255000Y203000D02*
D03*
X213000Y172000D02*
D03*
X220000D02*
D03*
X227000D02*
D03*
X234000D02*
D03*
X452000Y177000D02*
D03*
X459000D02*
D03*
X466000D02*
D03*
X452000Y170000D02*
D03*
X459000D02*
D03*
X466000D02*
D03*
X452000Y163000D02*
D03*
X459000D02*
D03*
X466000D02*
D03*
X452000Y184000D02*
D03*
Y191000D02*
D03*
X675054Y198269D02*
D03*
X566000Y203000D02*
D03*
X573500D02*
D03*
X581000D02*
D03*
X588500D02*
D03*
X566000Y195500D02*
D03*
X573500D02*
D03*
X581000D02*
D03*
X566000Y188000D02*
D03*
X316000Y566000D02*
D03*
X364600Y365831D02*
D03*
X120000Y532500D02*
D03*
X536860Y770702D02*
D03*
X541000Y711000D02*
D03*
X533500Y718500D02*
D03*
X541000D02*
D03*
X548500D02*
D03*
X533500Y711000D02*
D03*
X548500D02*
D03*
Y703500D02*
D03*
X541000D02*
D03*
X533500D02*
D03*
X548500Y696000D02*
D03*
X541000D02*
D03*
X533500D02*
D03*
X533500Y726000D02*
D03*
X541000D02*
D03*
X548500D02*
D03*
X556000Y696000D02*
D03*
Y718500D02*
D03*
Y711000D02*
D03*
Y703500D02*
D03*
X769850Y114750D02*
D03*
Y140150D02*
D03*
X147000Y715500D02*
D03*
Y708000D02*
D03*
Y700500D02*
D03*
Y693000D02*
D03*
X511000Y473000D02*
D03*
X255767Y474766D02*
D03*
X440625Y418224D02*
D03*
X440139Y426220D02*
D03*
X463586Y420320D02*
D03*
X381830Y304430D02*
D03*
X757150Y89350D02*
D03*
X769850Y102050D02*
D03*
X520140Y265840D02*
D03*
X769850Y127450D02*
D03*
X510250Y190500D02*
D03*
X364250Y421750D02*
D03*
X769850Y89350D02*
D03*
X163000Y235000D02*
D03*
X732500Y610000D02*
D03*
Y602500D02*
D03*
Y617500D02*
D03*
X740000Y610000D02*
D03*
Y602500D02*
D03*
Y617500D02*
D03*
X747500Y602500D02*
D03*
X755000D02*
D03*
X747500Y610000D02*
D03*
X762500D02*
D03*
X755000D02*
D03*
X770000Y602500D02*
D03*
X777500D02*
D03*
Y610000D02*
D03*
X770000D02*
D03*
X747500Y617500D02*
D03*
X755000D02*
D03*
X747500Y645000D02*
D03*
X770000Y617500D02*
D03*
X777500D02*
D03*
X762500D02*
D03*
X361250Y270000D02*
D03*
X128750Y115250D02*
D03*
X73801Y115588D02*
D03*
X189662Y115338D02*
D03*
X68750Y183500D02*
D03*
X75625Y276125D02*
D03*
X542750Y391500D02*
D03*
X358433Y303688D02*
D03*
X656755Y410005D02*
D03*
X505250Y419250D02*
D03*
X323869Y722489D02*
D03*
X762500Y602500D02*
D03*
X562728Y163196D02*
D03*
X676500Y165750D02*
D03*
X270689Y390248D02*
D03*
X366811Y196841D02*
D03*
X316000Y156000D02*
D03*
X510000Y241000D02*
D03*
X647000Y608000D02*
D03*
X189842Y193574D02*
D03*
X432000Y157000D02*
D03*
X364073Y355745D02*
D03*
X537500Y300000D02*
D03*
X545000D02*
D03*
X552500D02*
D03*
X560000D02*
D03*
X567500D02*
D03*
X575000D02*
D03*
X537500Y292500D02*
D03*
X545000D02*
D03*
X552500D02*
D03*
X560000D02*
D03*
X567500D02*
D03*
X575000D02*
D03*
X537500Y285000D02*
D03*
X545000D02*
D03*
X552500D02*
D03*
X560000D02*
D03*
X567500D02*
D03*
X575000D02*
D03*
Y307500D02*
D03*
X567500D02*
D03*
X560000D02*
D03*
X552500D02*
D03*
X545000D02*
D03*
X537500D02*
D03*
X338000Y409000D02*
D03*
X345000D02*
D03*
X352000D02*
D03*
X338000Y402000D02*
D03*
X345000D02*
D03*
X352000D02*
D03*
Y395000D02*
D03*
X345000D02*
D03*
X338000D02*
D03*
X352000Y388000D02*
D03*
X345000D02*
D03*
X338000D02*
D03*
X839000Y371000D02*
D03*
X848000D02*
D03*
Y362000D02*
D03*
X839000D02*
D03*
Y353000D02*
D03*
X848000D02*
D03*
X839000Y344000D02*
D03*
X848000D02*
D03*
X839000Y335000D02*
D03*
X848000D02*
D03*
X838500Y458500D02*
D03*
X831000D02*
D03*
X823500D02*
D03*
X838500Y466000D02*
D03*
X831000D02*
D03*
X823500D02*
D03*
X838500Y451000D02*
D03*
X831000D02*
D03*
X823500D02*
D03*
X816000Y466000D02*
D03*
Y458500D02*
D03*
Y451000D02*
D03*
X838500Y443500D02*
D03*
X831000D02*
D03*
X823500D02*
D03*
X816000D02*
D03*
X327192Y270320D02*
D03*
X642000Y359000D02*
D03*
X671000Y388000D02*
D03*
X692750Y163500D02*
D03*
X714177Y199410D02*
D03*
X574000Y472000D02*
D03*
X532000Y480000D02*
D03*
X413250Y285750D02*
D03*
X612930Y576186D02*
D03*
X618000Y582000D02*
D03*
X558000Y542000D02*
D03*
X549648Y534024D02*
D03*
X714926Y788233D02*
D03*
X418687Y420151D02*
D03*
X797086Y668000D02*
D03*
X797365Y657884D02*
D03*
X522500Y320000D02*
D03*
X217379Y528820D02*
D03*
X303851Y525000D02*
D03*
X387105Y300632D02*
D03*
X285750Y493000D02*
D03*
X411033Y219028D02*
D03*
X169662Y115338D02*
D03*
X296250Y222750D02*
D03*
X376750Y270250D02*
D03*
X238750Y292992D02*
D03*
X393484Y301894D02*
D03*
X463250Y531500D02*
D03*
X153750Y290500D02*
D03*
X369435Y270472D02*
D03*
X53801Y115588D02*
D03*
X329309Y276888D02*
D03*
X785000Y217500D02*
D03*
X586560Y684773D02*
D03*
X517250Y144000D02*
D03*
X515750Y483250D02*
D03*
X756000Y328500D02*
D03*
X451748Y416099D02*
D03*
X360964Y732282D02*
D03*
X665000Y202500D02*
D03*
X402000Y144000D02*
D03*
X494000Y489250D02*
D03*
X425793Y174830D02*
D03*
X593454Y685343D02*
D03*
X523950Y163880D02*
D03*
X93500Y197750D02*
D03*
X171000Y202250D02*
D03*
X318750Y270250D02*
D03*
X568500Y622500D02*
D03*
X84500Y722500D02*
D03*
X436266Y411963D02*
D03*
X732500Y677500D02*
D03*
X760000D02*
D03*
X311750Y267750D02*
D03*
X322500Y536250D02*
D03*
X188000Y523750D02*
D03*
X348410Y685840D02*
D03*
X454838Y427605D02*
D03*
X425873Y533765D02*
D03*
X632250Y144000D02*
D03*
X311679Y165166D02*
D03*
X255000Y637624D02*
D03*
X246000D02*
D03*
X237000Y646624D02*
D03*
X228000Y655624D02*
D03*
X246000Y646624D02*
D03*
X237000Y655624D02*
D03*
X246000D02*
D03*
X264000Y637624D02*
D03*
X255000Y646624D02*
D03*
Y655624D02*
D03*
X273000Y637624D02*
D03*
X264000Y646624D02*
D03*
X273000D02*
D03*
X264000Y655624D02*
D03*
X290403Y639544D02*
D03*
X273000Y655624D02*
D03*
X120000Y630000D02*
D03*
X404000Y756000D02*
D03*
X416577Y643936D02*
D03*
X539000Y641250D02*
D03*
X583750Y799000D02*
D03*
X228000Y646624D02*
D03*
X142500Y607500D02*
D03*
X157500Y622500D02*
D03*
Y615000D02*
D03*
Y607500D02*
D03*
X150000D02*
D03*
X135000Y615000D02*
D03*
X142500D02*
D03*
X150000D02*
D03*
Y622500D02*
D03*
X127500D02*
D03*
X135000D02*
D03*
X142500D02*
D03*
Y630000D02*
D03*
X135000D02*
D03*
X127500D02*
D03*
X142500Y637500D02*
D03*
X135000D02*
D03*
X127500D02*
D03*
X120000D02*
D03*
X447500Y702500D02*
D03*
X440000D02*
D03*
X432500D02*
D03*
X410000Y725000D02*
D03*
X417500D02*
D03*
X425000D02*
D03*
X447500Y710000D02*
D03*
X440000D02*
D03*
X432500D02*
D03*
X447500Y717500D02*
D03*
X440000D02*
D03*
X432500D02*
D03*
X447500Y725000D02*
D03*
X440000D02*
D03*
X432500D02*
D03*
X228000Y637624D02*
D03*
X237000D02*
D03*
M02*
