G04*
G04 #@! TF.GenerationSoftware,Altium Limited,Altium Designer,26.2.0 (7)*
G04*
G04 Layer_Physical_Order=5*
G04 Layer_Color=128*
%FSLAX44Y44*%
%MOMM*%
G71*
G04*
G04 #@! TF.SameCoordinates,D5DFED66-1DDD-4205-BACF-39BFCEB3ABE1*
G04*
G04*
G04 #@! TF.FilePolarity,Negative*
G04*
G01*
G75*
%ADD99C,1.0160*%
G04:AMPARAMS|DCode=100|XSize=1.5778mm|YSize=1.5778mm|CornerRadius=0mm|HoleSize=0mm|Usage=FLASHONLY|Rotation=0.000|XOffset=0mm|YOffset=0mm|HoleType=Round|Shape=Relief|Width=0.0889mm|Gap=0.0889mm|Entries=4|*
%AMTHD100*
7,0,0,1.5778,1.4000,0.0889,45*
%
%ADD100THD100*%
G04:AMPARAMS|DCode=101|XSize=3.9778mm|YSize=3.9778mm|CornerRadius=0mm|HoleSize=0mm|Usage=FLASHONLY|Rotation=0.000|XOffset=0mm|YOffset=0mm|HoleType=Round|Shape=Relief|Width=0.0889mm|Gap=0.0889mm|Entries=4|*
%AMTHD101*
7,0,0,3.9778,3.8000,0.0889,45*
%
%ADD101THD101*%
G04:AMPARAMS|DCode=102|XSize=1.6678mm|YSize=1.6678mm|CornerRadius=0mm|HoleSize=0mm|Usage=FLASHONLY|Rotation=0.000|XOffset=0mm|YOffset=0mm|HoleType=Round|Shape=Relief|Width=0.0889mm|Gap=0.0889mm|Entries=4|*
%AMTHD102*
7,0,0,1.6678,1.4900,0.0889,45*
%
%ADD102THD102*%
%ADD103C,1.1684*%
%ADD104C,2.5527*%
%ADD105C,0.9778*%
%ADD106C,1.0678*%
%ADD107C,0.4778*%
D99*
X176850Y-0D02*
G03*
X188850Y12000I0J12000D01*
G01*
X200850Y24000D02*
G03*
X188850Y12000I0J-12000D01*
G01*
X712850Y12000D02*
G03*
X700850Y24000I-12000J0D01*
G01*
X712850Y12000D02*
G03*
X724850Y0I12000J0D01*
G01*
X891200Y0D02*
G03*
X901700Y10500I0J10500D01*
G01*
X901700Y205733D02*
G03*
X889700Y217733I-12000J0D01*
G01*
X877700Y229733D02*
G03*
X889700Y217733I12000J0D01*
G01*
X889700Y741733D02*
G03*
X877700Y729733I0J-12000D01*
G01*
X889700Y741733D02*
G03*
X901700Y753733I0J12000D01*
G01*
Y948400D02*
G03*
X891200Y958900I-10500J-0D01*
G01*
X724850Y958900D02*
G03*
X712850Y946900I0J-12000D01*
G01*
X700850Y934900D02*
G03*
X712850Y946900I0J12000D01*
G01*
X188850Y946900D02*
G03*
X200850Y934900I12000J0D01*
G01*
X188850Y946900D02*
G03*
X176850Y958900I-12000J-0D01*
G01*
X10500Y958900D02*
G03*
X-0Y948400I0J-10500D01*
G01*
Y753733D02*
G03*
X12000Y741733I12000J0D01*
G01*
X24000Y729733D02*
G03*
X12000Y741732I-12000J0D01*
G01*
X12000Y217733D02*
G03*
X24000Y229733I0J12000D01*
G01*
X12000Y217733D02*
G03*
X0Y205733I0J-12000D01*
G01*
X0Y10500D02*
G03*
X10500Y-0I10500J-0D01*
G01*
X176850Y-0D01*
X200850Y24000D02*
X700850Y24000D01*
X724850Y0D02*
X891200D01*
X901700Y10500D02*
X901700Y205733D01*
X877700Y729733D02*
X877700Y229733D01*
X901700Y753733D02*
Y948400D01*
X724850Y958900D02*
X891200Y958900D01*
X200850Y934900D02*
X700850Y934900D01*
X10500Y958900D02*
X176850Y958900D01*
X-0Y753733D02*
Y948400D01*
X24000Y229733D02*
X24000Y729733D01*
X0Y10500D02*
Y205733D01*
D100*
X70000Y371180D02*
D03*
Y391180D02*
D03*
X90000Y431180D02*
D03*
X70000D02*
D03*
X90000Y491180D02*
D03*
X70000D02*
D03*
X90000Y511180D02*
D03*
X70000D02*
D03*
D101*
X850900Y50800D02*
D03*
X88900Y908100D02*
D03*
X825500D02*
D03*
X50000Y50000D02*
D03*
D102*
X393700Y908100D02*
D03*
X419100Y882700D02*
D03*
X393700D02*
D03*
X419100Y908100D02*
D03*
X393700Y857300D02*
D03*
X419100Y831900D02*
D03*
X393700D02*
D03*
X419100Y857300D02*
D03*
D103*
X763500Y76650D02*
D03*
X753350Y152850D02*
D03*
X773650D02*
D03*
D104*
X738100Y76650D02*
D03*
Y133800D02*
D03*
X788900Y76650D02*
D03*
Y133800D02*
D03*
D105*
X90000Y371180D02*
D03*
Y391180D02*
D03*
Y411180D02*
D03*
X70000D02*
D03*
X90000Y451180D02*
D03*
X70000D02*
D03*
X90000Y471180D02*
D03*
X70000D02*
D03*
X90000Y531180D02*
D03*
X70000D02*
D03*
X90000Y551180D02*
D03*
X70000D02*
D03*
D106*
X215900Y857300D02*
D03*
Y831900D02*
D03*
X139700D02*
D03*
Y857300D02*
D03*
X165100Y831900D02*
D03*
X241300Y857300D02*
D03*
X292100Y831900D02*
D03*
X266700D02*
D03*
Y857300D02*
D03*
X292100D02*
D03*
X317500Y831900D02*
D03*
X368300D02*
D03*
X342900D02*
D03*
X317500Y857300D02*
D03*
X342900D02*
D03*
X241300Y831900D02*
D03*
X190500Y857300D02*
D03*
Y831900D02*
D03*
X165100Y857300D02*
D03*
X444500D02*
D03*
Y831900D02*
D03*
X368300Y857300D02*
D03*
X469900Y831900D02*
D03*
Y857300D02*
D03*
X495300Y831900D02*
D03*
X647700Y857300D02*
D03*
Y831900D02*
D03*
X596900D02*
D03*
Y857300D02*
D03*
X622300Y831900D02*
D03*
X673100D02*
D03*
Y857300D02*
D03*
X571500Y831900D02*
D03*
X622300Y857300D02*
D03*
X546100D02*
D03*
X698500Y831900D02*
D03*
X571500Y857300D02*
D03*
X774700D02*
D03*
X723900D02*
D03*
X749300Y831900D02*
D03*
Y857300D02*
D03*
X774700Y831900D02*
D03*
X698500Y857300D02*
D03*
X723900Y831900D02*
D03*
X546100D02*
D03*
X520700Y857300D02*
D03*
Y831900D02*
D03*
X495300Y857300D02*
D03*
X139700Y882700D02*
D03*
Y908100D02*
D03*
X165100Y882700D02*
D03*
X241300Y908100D02*
D03*
X292100Y882700D02*
D03*
X266700D02*
D03*
Y908100D02*
D03*
X292100D02*
D03*
X317500Y882700D02*
D03*
X368300D02*
D03*
X342900D02*
D03*
X317500Y908100D02*
D03*
X342900D02*
D03*
X241300Y882700D02*
D03*
X190500Y908100D02*
D03*
X215900Y882700D02*
D03*
Y908100D02*
D03*
X190500Y882700D02*
D03*
X165100Y908100D02*
D03*
X444500D02*
D03*
Y882700D02*
D03*
X368300Y908100D02*
D03*
X469900Y882700D02*
D03*
Y908100D02*
D03*
X495300Y882700D02*
D03*
X647700Y908100D02*
D03*
Y882700D02*
D03*
X596900D02*
D03*
Y908100D02*
D03*
X622300Y882700D02*
D03*
X673100D02*
D03*
Y908100D02*
D03*
X571500Y882700D02*
D03*
X622300Y908100D02*
D03*
X546100D02*
D03*
X698500Y882700D02*
D03*
X571500Y908100D02*
D03*
X774700D02*
D03*
X723900D02*
D03*
X749300Y882700D02*
D03*
Y908100D02*
D03*
X774700Y882700D02*
D03*
X698500Y908100D02*
D03*
X723900Y882700D02*
D03*
X546100D02*
D03*
X520700Y908100D02*
D03*
Y882700D02*
D03*
X495300Y908100D02*
D03*
D107*
X260750Y786500D02*
D03*
X50000Y795000D02*
D03*
X207000D02*
D03*
X167000Y634000D02*
D03*
X750500Y302750D02*
D03*
X640250Y771000D02*
D03*
X463720Y622750D02*
D03*
X366993Y702433D02*
D03*
X335864Y658026D02*
D03*
X755000Y786000D02*
D03*
X139250Y736750D02*
D03*
X199337Y685650D02*
D03*
X505000Y688000D02*
D03*
X600000Y581000D02*
D03*
X620830Y664516D02*
D03*
X335392Y616349D02*
D03*
X308498Y389549D02*
D03*
X769657Y193135D02*
D03*
X287000Y144000D02*
D03*
X511000Y473000D02*
D03*
X255767Y474766D02*
D03*
X440625Y418224D02*
D03*
X440139Y426220D02*
D03*
X463586Y420320D02*
D03*
X381830Y304430D02*
D03*
X757150Y89350D02*
D03*
X769850Y102050D02*
D03*
X520140Y265840D02*
D03*
X769850Y127450D02*
D03*
X510250Y190500D02*
D03*
X364250Y421750D02*
D03*
X769850Y89350D02*
D03*
X163000Y235000D02*
D03*
X732500Y610000D02*
D03*
Y602500D02*
D03*
Y617500D02*
D03*
X740000Y610000D02*
D03*
Y602500D02*
D03*
Y617500D02*
D03*
X747500Y602500D02*
D03*
X755000D02*
D03*
X747500Y610000D02*
D03*
X762500D02*
D03*
X755000D02*
D03*
X770000Y602500D02*
D03*
X777500D02*
D03*
Y610000D02*
D03*
X770000D02*
D03*
X747500Y617500D02*
D03*
X755000D02*
D03*
X747500Y645000D02*
D03*
X770000Y617500D02*
D03*
X777500D02*
D03*
X762500D02*
D03*
X361250Y270000D02*
D03*
X128750Y115250D02*
D03*
X73801Y115588D02*
D03*
X189662Y115338D02*
D03*
X68750Y183500D02*
D03*
X75625Y276125D02*
D03*
X542750Y391500D02*
D03*
X358433Y303688D02*
D03*
X656755Y410005D02*
D03*
X505250Y419250D02*
D03*
X323869Y722489D02*
D03*
X762500Y602500D02*
D03*
X562728Y163196D02*
D03*
X676500Y165750D02*
D03*
X270689Y390248D02*
D03*
X366811Y196841D02*
D03*
X316000Y156000D02*
D03*
X510000Y241000D02*
D03*
X647000Y608000D02*
D03*
X189842Y193574D02*
D03*
X432000Y157000D02*
D03*
X364073Y355745D02*
D03*
X537500Y300000D02*
D03*
X545000D02*
D03*
X552500D02*
D03*
X560000D02*
D03*
X567500D02*
D03*
X575000D02*
D03*
X537500Y292500D02*
D03*
X545000D02*
D03*
X552500D02*
D03*
X560000D02*
D03*
X567500D02*
D03*
X575000D02*
D03*
X537500Y285000D02*
D03*
X545000D02*
D03*
X552500D02*
D03*
X560000D02*
D03*
X567500D02*
D03*
X575000D02*
D03*
Y307500D02*
D03*
X567500D02*
D03*
X560000D02*
D03*
X552500D02*
D03*
X545000D02*
D03*
X537500D02*
D03*
X338000Y409000D02*
D03*
X345000D02*
D03*
X352000D02*
D03*
X338000Y402000D02*
D03*
X345000D02*
D03*
X352000D02*
D03*
Y395000D02*
D03*
X345000D02*
D03*
X338000D02*
D03*
X352000Y388000D02*
D03*
X345000D02*
D03*
X338000D02*
D03*
X839000Y371000D02*
D03*
X848000D02*
D03*
Y362000D02*
D03*
X839000D02*
D03*
Y353000D02*
D03*
X848000D02*
D03*
X839000Y344000D02*
D03*
X848000D02*
D03*
X839000Y335000D02*
D03*
X848000D02*
D03*
X838500Y458500D02*
D03*
X831000D02*
D03*
X823500D02*
D03*
X838500Y466000D02*
D03*
X831000D02*
D03*
X823500D02*
D03*
X838500Y451000D02*
D03*
X831000D02*
D03*
X823500D02*
D03*
X816000Y466000D02*
D03*
Y458500D02*
D03*
Y451000D02*
D03*
X838500Y443500D02*
D03*
X831000D02*
D03*
X823500D02*
D03*
X816000D02*
D03*
X327192Y270320D02*
D03*
X642000Y359000D02*
D03*
X671000Y388000D02*
D03*
X692750Y163500D02*
D03*
X714177Y199410D02*
D03*
X574000Y472000D02*
D03*
X532000Y480000D02*
D03*
X413250Y285750D02*
D03*
X612930Y576186D02*
D03*
X618000Y582000D02*
D03*
X558000Y542000D02*
D03*
X549648Y534024D02*
D03*
X714926Y788233D02*
D03*
X418687Y420151D02*
D03*
X797086Y668000D02*
D03*
X797365Y657884D02*
D03*
X522500Y320000D02*
D03*
X217379Y528820D02*
D03*
X303851Y525000D02*
D03*
X387105Y300632D02*
D03*
X285750Y493000D02*
D03*
X411033Y219028D02*
D03*
X169662Y115338D02*
D03*
X296250Y222750D02*
D03*
X376750Y270250D02*
D03*
X238750Y292992D02*
D03*
X393484Y301894D02*
D03*
X463250Y531500D02*
D03*
X153750Y290500D02*
D03*
X369435Y270472D02*
D03*
X53801Y115588D02*
D03*
X329309Y276888D02*
D03*
X785000Y217500D02*
D03*
X586560Y684773D02*
D03*
X517250Y144000D02*
D03*
X515750Y483250D02*
D03*
X756000Y328500D02*
D03*
X451748Y416099D02*
D03*
X360964Y732282D02*
D03*
X665000Y202500D02*
D03*
X402000Y144000D02*
D03*
X494000Y489250D02*
D03*
X425793Y174830D02*
D03*
X593454Y685343D02*
D03*
X523950Y163880D02*
D03*
X93500Y197750D02*
D03*
X171000Y202250D02*
D03*
X318750Y270250D02*
D03*
X568500Y622500D02*
D03*
X84500Y722500D02*
D03*
X436266Y411963D02*
D03*
X732500Y677500D02*
D03*
X760000D02*
D03*
X311750Y267750D02*
D03*
X322500Y536250D02*
D03*
X188000Y523750D02*
D03*
X348410Y685840D02*
D03*
X454838Y427605D02*
D03*
X425873Y533765D02*
D03*
X632250Y144000D02*
D03*
X311679Y165166D02*
D03*
X255000Y637624D02*
D03*
X246000D02*
D03*
X237000Y646624D02*
D03*
X228000Y655624D02*
D03*
X246000Y646624D02*
D03*
X237000Y655624D02*
D03*
X246000D02*
D03*
X264000Y637624D02*
D03*
X255000Y646624D02*
D03*
Y655624D02*
D03*
X273000Y637624D02*
D03*
X264000Y646624D02*
D03*
X273000D02*
D03*
X264000Y655624D02*
D03*
X290403Y639544D02*
D03*
X273000Y655624D02*
D03*
X120000Y630000D02*
D03*
X404000Y756000D02*
D03*
X416577Y643936D02*
D03*
X539000Y641250D02*
D03*
X583750Y799000D02*
D03*
X228000Y646624D02*
D03*
X142500Y607500D02*
D03*
X157500Y622500D02*
D03*
Y615000D02*
D03*
Y607500D02*
D03*
X150000D02*
D03*
X135000Y615000D02*
D03*
X142500D02*
D03*
X150000D02*
D03*
Y622500D02*
D03*
X127500D02*
D03*
X135000D02*
D03*
X142500D02*
D03*
Y630000D02*
D03*
X135000D02*
D03*
X127500D02*
D03*
X142500Y637500D02*
D03*
X135000D02*
D03*
X127500D02*
D03*
X120000D02*
D03*
X447500Y702500D02*
D03*
X440000D02*
D03*
X432500D02*
D03*
X410000Y725000D02*
D03*
X417500D02*
D03*
X425000D02*
D03*
X447500Y710000D02*
D03*
X440000D02*
D03*
X432500D02*
D03*
X447500Y717500D02*
D03*
X440000D02*
D03*
X432500D02*
D03*
X447500Y725000D02*
D03*
X440000D02*
D03*
X432500D02*
D03*
X228000Y637624D02*
D03*
X237000D02*
D03*
M02*
