G04*
G04 #@! TF.GenerationSoftware,Altium Limited,Altium Designer,26.2.0 (7)*
G04*
G04 Layer_Color=16711935*
%FSLAX44Y44*%
%MOMM*%
G71*
G04*
G04 #@! TF.SameCoordinates,D5DFED66-1DDD-4205-BACF-39BFCEB3ABE1*
G04*
G04*
G04 #@! TF.FilePolarity,Positive*
G04*
G01*
G75*
%ADD12C,0.1000*%
D12*
X183000Y644750D02*
X190500D01*
Y684750D01*
X155500D02*
X190500D01*
X155500Y644750D02*
Y684750D01*
Y644750D02*
X183000D01*
X324824Y113983D02*
Y120733D01*
X304824Y113983D02*
X324824D01*
X304824D02*
Y150983D01*
X324824D01*
Y120733D02*
Y150983D01*
X620000Y116500D02*
Y123250D01*
X600000Y116500D02*
X620000D01*
X600000D02*
Y153500D01*
X620000D01*
Y123250D02*
Y153500D01*
X515000Y116500D02*
Y123250D01*
X495000Y116500D02*
X515000D01*
X495000D02*
Y153500D01*
X515000D01*
Y123250D02*
Y153500D01*
X372746Y120213D02*
X379496D01*
X372746D02*
Y140213D01*
X409746D01*
Y120213D02*
Y140213D01*
X379496Y120213D02*
X409746D01*
X317500Y742000D02*
X347750D01*
X317500Y722000D02*
Y742000D01*
Y722000D02*
X354500D01*
Y742000D01*
X347750D02*
X354500D01*
X62500Y571180D02*
X108500D01*
Y351180D02*
Y571180D01*
X51500Y351180D02*
X108500D01*
X51500D02*
Y571180D01*
X62500D01*
X337000Y226000D02*
X511000D01*
Y400000D01*
X337000D02*
X511000D01*
X337000Y226000D02*
Y400000D01*
X716250Y688427D02*
X755750D01*
Y709427D01*
X716250Y688427D02*
Y709427D01*
X755750D01*
X241732Y285000D02*
Y308750D01*
Y285000D02*
X282732D01*
Y318000D01*
X241732D02*
X282732D01*
X241732Y308750D02*
Y318000D01*
X245414Y274000D02*
X268914D01*
Y233500D02*
Y274000D01*
X245414Y233500D02*
Y274000D01*
Y233500D02*
X268914D01*
X558215Y624750D02*
Y652250D01*
X518215Y624750D02*
X558215D01*
X518215D02*
Y659750D01*
X558215D01*
Y652250D02*
Y659750D01*
X425000Y639000D02*
Y666500D01*
X465000D01*
Y631500D02*
Y666500D01*
X425000Y631500D02*
X465000D01*
X425000D02*
Y639000D01*
X568500Y516000D02*
X596000D01*
X568500D02*
Y556000D01*
X603500D01*
Y516000D02*
Y556000D01*
X596000Y516000D02*
X603500D01*
X289500Y633000D02*
X317000D01*
X289500D02*
Y673000D01*
X324500D01*
Y633000D02*
Y673000D01*
X317000Y633000D02*
X324500D01*
X314000Y516500D02*
X341500D01*
X314000D02*
Y556500D01*
X349000D01*
Y516500D02*
Y556500D01*
X341500Y516500D02*
X349000D01*
X375000Y754000D02*
X402500D01*
Y714000D02*
Y754000D01*
X367500Y714000D02*
X402500D01*
X367500D02*
Y754000D01*
X375000D01*
X167000Y769500D02*
X194500D01*
Y729500D02*
Y769500D01*
X159500Y729500D02*
X194500D01*
X159500D02*
Y769500D01*
X167000D01*
X583000Y771500D02*
Y799000D01*
X623000D01*
Y764000D02*
Y799000D01*
X583000Y764000D02*
X623000D01*
X583000D02*
Y771500D01*
X720500Y728677D02*
X748000D01*
X720500D02*
Y768677D01*
X755500D01*
Y728677D02*
Y768677D01*
X748000Y728677D02*
X755500D01*
X668250Y625928D02*
Y653428D01*
X628250Y625928D02*
X668250D01*
X628250D02*
Y660928D01*
X668250D01*
Y653428D02*
Y660928D01*
X559750Y361000D02*
Y369000D01*
Y361000D02*
X628250D01*
Y415000D01*
X559750D02*
X628250D01*
X559750Y369000D02*
Y415000D01*
X53250Y249500D02*
X86750D01*
Y234250D02*
Y249500D01*
X39250Y220500D02*
X72500D01*
X39250D02*
Y235750D01*
X86750Y220500D02*
Y224750D01*
X72500Y220500D02*
X86750D01*
Y224750D02*
Y234250D01*
X39250Y245250D02*
Y249500D01*
X53500D01*
X39250Y235750D02*
Y245250D01*
Y165500D02*
X72750D01*
X39250D02*
Y180750D01*
X53500Y194500D02*
X86750D01*
Y179250D02*
Y194500D01*
X39250Y190250D02*
Y194500D01*
X53500D01*
X39250Y180750D02*
Y190250D01*
X86750Y165500D02*
Y169750D01*
X72500Y165500D02*
X86750D01*
Y169750D02*
Y179250D01*
X558750Y655000D02*
Y661750D01*
X578750D01*
Y624750D02*
Y661750D01*
X558750Y624750D02*
X578750D01*
X558750D02*
Y655000D01*
X465000Y660480D02*
Y667230D01*
X485000D01*
Y630230D02*
Y667230D01*
X465000Y630230D02*
X485000D01*
X465000D02*
Y660480D01*
X290000Y674000D02*
X296750D01*
X290000D02*
Y694000D01*
X327000D01*
Y674000D02*
Y694000D01*
X296750Y674000D02*
X327000D01*
X147750Y688750D02*
X154500D01*
Y668750D02*
Y688750D01*
X117500Y668750D02*
X154500D01*
X117500D02*
Y688750D01*
X147750D01*
X365500Y754000D02*
X372250D01*
X365500D02*
Y774000D01*
X402500D01*
Y754000D02*
Y774000D01*
X372250Y754000D02*
X402500D01*
X583000Y762000D02*
Y768750D01*
X563000Y762000D02*
X583000D01*
X563000D02*
Y799000D01*
X583000D01*
Y768750D02*
Y799000D01*
X597986Y341218D02*
X604736D01*
X597986D02*
Y361218D01*
X634986D01*
Y341218D02*
Y361218D01*
X604736Y341218D02*
X634986D01*
X627000Y444750D02*
Y451500D01*
X647000D01*
Y414500D02*
Y451500D01*
X627000Y414500D02*
X647000D01*
X627000D02*
Y444750D01*
X581500Y476750D02*
Y483500D01*
X561500Y476750D02*
X581500D01*
X561500D02*
Y513750D01*
X581500D01*
Y483500D02*
Y513750D01*
X540000Y483500D02*
Y513750D01*
X524000Y483500D02*
X540000D01*
X524000D02*
Y506250D01*
Y513750D01*
X540000D01*
X327000Y477000D02*
Y483750D01*
X307000Y477000D02*
X327000D01*
X307000D02*
Y514000D01*
X327000D01*
Y483750D02*
Y514000D01*
X266000Y507250D02*
Y514000D01*
X286000D01*
Y477000D02*
Y514000D01*
X266000Y477000D02*
X286000D01*
X266000D02*
Y507250D01*
X215000Y744500D02*
Y751250D01*
X195000Y744500D02*
X215000D01*
X195000D02*
Y781500D01*
X215000D01*
Y751250D02*
Y781500D01*
X237750Y782000D02*
X268000D01*
Y766000D02*
Y782000D01*
X245250Y766000D02*
X268000D01*
X237750D02*
X245250D01*
X237750D02*
Y782000D01*
X637745Y625428D02*
X667995D01*
Y609428D02*
Y625428D01*
X645245Y609428D02*
X667995D01*
X637745D02*
X645245D01*
X637745D02*
Y625428D01*
X637505Y572428D02*
X667755D01*
X637505D02*
Y588428D01*
X660255D01*
X667755D01*
Y572428D02*
Y588428D01*
X721000Y387000D02*
Y417250D01*
X705000Y387000D02*
X721000D01*
X705000D02*
Y409750D01*
Y417250D01*
X721000D01*
Y356255D02*
Y386505D01*
X705000Y356255D02*
X721000D01*
X705000D02*
Y379005D01*
Y386505D01*
X721000D01*
X39250Y266250D02*
X46000D01*
X39250D02*
Y286250D01*
X76250D01*
Y266250D02*
Y286250D01*
X46000Y266250D02*
X76250D01*
X69250Y215000D02*
X76000D01*
Y195000D02*
Y215000D01*
X39000Y195000D02*
X76000D01*
X39000D02*
Y215000D01*
X69250D01*
X748750Y728927D02*
X755500D01*
Y708927D02*
Y728927D01*
X718500Y708927D02*
X755500D01*
X718500D02*
Y728927D01*
X748750D01*
X628750Y368250D02*
X693250D01*
X628750D02*
Y408000D01*
X693250D01*
Y368250D02*
Y408000D01*
X323750Y388750D02*
Y397250D01*
X288250D02*
X323750D01*
X288250Y381750D02*
Y397250D01*
Y381750D02*
X323750D01*
Y388750D01*
X775250Y371250D02*
Y398000D01*
X734750Y371250D02*
X775250D01*
Y398000D02*
Y405000D01*
X734750D02*
X775250D01*
X734750Y371250D02*
Y405000D01*
X518500Y676750D02*
X551000D01*
X518500Y660250D02*
Y676750D01*
X551000Y660250D02*
Y676750D01*
X518500Y660250D02*
X551000D01*
X430750Y613750D02*
X463250D01*
Y630250D01*
X430750Y613750D02*
Y630250D01*
X463250D01*
X570750Y555750D02*
X603250D01*
Y572250D01*
X570750Y555750D02*
Y572250D01*
X603250D01*
X341250Y640750D02*
Y673250D01*
X324750D02*
X341250D01*
X324750Y640750D02*
X341250D01*
X324750D02*
Y673250D01*
X207250Y651500D02*
Y684000D01*
X190750D02*
X207250D01*
X190750Y651500D02*
X207250D01*
X190750D02*
Y684000D01*
X316750Y556750D02*
X349250D01*
Y573250D01*
X316750Y556750D02*
Y573250D01*
X349250D01*
X721750Y769427D02*
X754250D01*
Y785927D01*
X721750Y769427D02*
Y785927D01*
X754250D01*
X623750Y763750D02*
Y796250D01*
Y763750D02*
X640250D01*
X623750Y796250D02*
X640250D01*
Y763750D02*
Y796250D01*
X628000Y628428D02*
Y660928D01*
X611500D02*
X628000D01*
X611500Y628428D02*
X628000D01*
X611500D02*
Y660928D01*
X367750Y713250D02*
X400250D01*
X367750Y696750D02*
Y713250D01*
X400250Y696750D02*
Y713250D01*
X367750Y696750D02*
X400250D01*
X142750Y729250D02*
Y761750D01*
Y729250D02*
X159250D01*
X142750Y761750D02*
X159250D01*
Y729250D02*
Y761750D01*
X600250Y624750D02*
Y664250D01*
X579250D02*
X600250D01*
X579250Y624750D02*
X600250D01*
X579250D02*
Y664250D01*
X505500Y630250D02*
Y669750D01*
X484500D02*
X505500D01*
X484500Y630250D02*
X505500D01*
X484500D02*
Y669750D01*
X287750Y714500D02*
X327250D01*
X287750Y693500D02*
Y714500D01*
X327250Y693500D02*
Y714500D01*
X287750Y693500D02*
X327250D01*
X116250Y645750D02*
X155750D01*
Y666750D01*
X116250Y645750D02*
Y666750D01*
X155750D01*
X540000Y474250D02*
Y513750D01*
Y474250D02*
X561000D01*
X540000Y513750D02*
X561000D01*
Y474250D02*
Y513750D01*
X285500Y474250D02*
Y513750D01*
Y474250D02*
X306500D01*
X285500Y513750D02*
X306500D01*
Y474250D02*
Y513750D01*
X216500Y742750D02*
Y782250D01*
Y742750D02*
X237500D01*
X216500Y782250D02*
X237500D01*
Y742750D02*
Y782250D01*
X628250Y609678D02*
X667750D01*
X628250Y588678D02*
Y609678D01*
X667750Y588678D02*
Y609678D01*
X628250Y588678D02*
X667750D01*
X286232Y281000D02*
X299232D01*
X286232D02*
Y302500D01*
X299232Y281000D02*
Y302500D01*
X286232D02*
X299232D01*
X273086Y254000D02*
X286086D01*
Y232500D02*
Y254000D01*
X273086Y232500D02*
Y254000D01*
Y232500D02*
X286086D01*
X286232Y324500D02*
X299232D01*
Y303000D02*
Y324500D01*
X286232Y303000D02*
Y324500D01*
Y303000D02*
X299232D01*
X273086Y275750D02*
X286086D01*
Y254250D02*
Y275750D01*
X273086Y254250D02*
Y275750D01*
Y254250D02*
X286086D01*
X39250Y266000D02*
X71750D01*
X39250Y249500D02*
Y266000D01*
X71750Y249500D02*
Y266000D01*
X39250Y249500D02*
X71750D01*
X348250Y188500D02*
X387750D01*
Y209500D01*
X348250Y188500D02*
Y209500D01*
X387750D01*
X512250Y234750D02*
Y247750D01*
X533750D01*
X512250Y234750D02*
X533750D01*
Y247750D01*
X559250Y369750D02*
Y402250D01*
X542750D02*
X559250D01*
X542750Y369750D02*
X559250D01*
X542750D02*
Y402250D01*
X354500Y208250D02*
Y221250D01*
X376000D01*
X354500Y208250D02*
X376000D01*
Y221250D01*
X492750Y409500D02*
X505750D01*
X492750D02*
Y431000D01*
X505750Y409500D02*
Y431000D01*
X492750D02*
X505750D01*
X533000Y249750D02*
X572500D01*
Y270750D01*
X533000Y249750D02*
Y270750D01*
X572500D01*
X363000Y795500D02*
X402500D01*
X363000Y774500D02*
Y795500D01*
X402500Y774500D02*
Y795500D01*
X363000Y774500D02*
X402500D01*
X489500Y409500D02*
Y449000D01*
X468500D02*
X489500D01*
X468500Y409500D02*
X489500D01*
X468500D02*
Y449000D01*
X541500Y759500D02*
Y799000D01*
Y759500D02*
X562500D01*
X541500Y799000D02*
X562500D01*
Y759500D02*
Y799000D01*
X288250Y364750D02*
Y397250D01*
X271750D02*
X288250D01*
X271750Y364750D02*
X288250D01*
X271750D02*
Y397250D01*
X322750Y352000D02*
Y365000D01*
X301250Y352000D02*
X322750D01*
X301250Y365000D02*
X322750D01*
X301250Y352000D02*
Y365000D01*
X291250Y365250D02*
X323750D01*
Y381750D01*
X291250Y365250D02*
Y381750D01*
X323750D01*
M02*
