G04*
G04 #@! TF.GenerationSoftware,Altium Limited,Altium Designer,26.2.0 (7)*
G04*
G04 Layer_Color=128*
%FSLAX44Y44*%
%MOMM*%
G71*
G04*
G04 #@! TF.SameCoordinates,D5DFED66-1DDD-4205-BACF-39BFCEB3ABE1*
G04*
G04*
G04 #@! TF.FilePolarity,Positive*
G04*
G01*
G75*
%ADD14C,0.1270*%
D14*
X66000Y371180D02*
X74000D01*
X70000Y367180D02*
Y375180D01*
X66000Y391180D02*
X74000D01*
X70000Y387180D02*
Y395180D01*
X86000Y431180D02*
X94000D01*
X90000Y427180D02*
Y435180D01*
X66000Y431180D02*
X74000D01*
X70000Y427180D02*
Y435180D01*
X86000Y491180D02*
X94000D01*
X90000Y487180D02*
Y495180D01*
X66000Y491180D02*
X74000D01*
X70000Y487180D02*
Y495180D01*
X86000Y511180D02*
X94000D01*
X90000Y507180D02*
Y515180D01*
X66000Y511180D02*
X74000D01*
X70000Y507180D02*
Y515180D01*
X834900Y50800D02*
X866900D01*
X850900Y34800D02*
Y66800D01*
X72900Y908100D02*
X104900D01*
X88900Y892100D02*
Y924100D01*
X809500Y908100D02*
X841500D01*
X825500Y892100D02*
Y924100D01*
X34000Y50000D02*
X66000D01*
X50000Y34000D02*
Y66000D01*
X389250Y908100D02*
X398150D01*
X393700Y903650D02*
Y912550D01*
X414650Y882700D02*
X423550D01*
X419100Y878250D02*
Y887150D01*
X389250Y882700D02*
X398150D01*
X393700Y878250D02*
Y887150D01*
X414650Y908100D02*
X423550D01*
X419100Y903650D02*
Y912550D01*
X389250Y857300D02*
X398150D01*
X393700Y852850D02*
Y861750D01*
X414650Y831900D02*
X423550D01*
X419100Y827450D02*
Y836350D01*
X389250Y831900D02*
X398150D01*
X393700Y827450D02*
Y836350D01*
X414650Y857300D02*
X423550D01*
X419100Y852850D02*
Y861750D01*
X758547Y76650D02*
X768453D01*
X763500Y71697D02*
Y81603D01*
X748397Y152850D02*
X758303D01*
X753350Y147897D02*
Y157803D01*
X768697Y152850D02*
X778603D01*
X773650Y147897D02*
Y157803D01*
X726226Y76650D02*
X749975D01*
X738100Y64776D02*
Y88525D01*
X726226Y133800D02*
X749975D01*
X738100Y121925D02*
Y145674D01*
X777026Y76650D02*
X800775D01*
X788900Y64776D02*
Y88525D01*
X777026Y133800D02*
X800775D01*
X788900Y121925D02*
Y145674D01*
X86000Y371180D02*
X94000D01*
X90000Y367180D02*
Y375180D01*
X86000Y391180D02*
X94000D01*
X90000Y387180D02*
Y395180D01*
X86000Y411180D02*
X94000D01*
X90000Y407180D02*
Y415180D01*
X66000Y411180D02*
X74000D01*
X70000Y407180D02*
Y415180D01*
X86000Y451180D02*
X94000D01*
X90000Y447180D02*
Y455180D01*
X66000Y451180D02*
X74000D01*
X70000Y447180D02*
Y455180D01*
X86000Y471180D02*
X94000D01*
X90000Y467180D02*
Y475180D01*
X66000Y471180D02*
X74000D01*
X70000Y467180D02*
Y475180D01*
X86000Y531180D02*
X94000D01*
X90000Y527180D02*
Y535180D01*
X66000Y531180D02*
X74000D01*
X70000Y527180D02*
Y535180D01*
X86000Y551180D02*
X94000D01*
X90000Y547180D02*
Y555180D01*
X66000Y551180D02*
X74000D01*
X70000Y547180D02*
Y555180D01*
X211450Y857300D02*
X220350D01*
X215900Y852850D02*
Y861750D01*
X211450Y831900D02*
X220350D01*
X215900Y827450D02*
Y836350D01*
X135250Y831900D02*
X144150D01*
X139700Y827450D02*
Y836350D01*
X135250Y857300D02*
X144150D01*
X139700Y852850D02*
Y861750D01*
X160650Y831900D02*
X169550D01*
X165100Y827450D02*
Y836350D01*
X236850Y857300D02*
X245750D01*
X241300Y852850D02*
Y861750D01*
X287650Y831900D02*
X296550D01*
X292100Y827450D02*
Y836350D01*
X262250Y831900D02*
X271150D01*
X266700Y827450D02*
Y836350D01*
X262250Y857300D02*
X271150D01*
X266700Y852850D02*
Y861750D01*
X287650Y857300D02*
X296550D01*
X292100Y852850D02*
Y861750D01*
X313050Y831900D02*
X321950D01*
X317500Y827450D02*
Y836350D01*
X363850Y831900D02*
X372750D01*
X368300Y827450D02*
Y836350D01*
X338450Y831900D02*
X347350D01*
X342900Y827450D02*
Y836350D01*
X313050Y857300D02*
X321950D01*
X317500Y852850D02*
Y861750D01*
X338450Y857300D02*
X347350D01*
X342900Y852850D02*
Y861750D01*
X236850Y831900D02*
X245750D01*
X241300Y827450D02*
Y836350D01*
X186050Y857300D02*
X194950D01*
X190500Y852850D02*
Y861750D01*
X186050Y831900D02*
X194950D01*
X190500Y827450D02*
Y836350D01*
X160650Y857300D02*
X169550D01*
X165100Y852850D02*
Y861750D01*
X440050Y857300D02*
X448950D01*
X444500Y852850D02*
Y861750D01*
X440050Y831900D02*
X448950D01*
X444500Y827450D02*
Y836350D01*
X363850Y857300D02*
X372750D01*
X368300Y852850D02*
Y861750D01*
X465450Y831900D02*
X474350D01*
X469900Y827450D02*
Y836350D01*
X465450Y857300D02*
X474350D01*
X469900Y852850D02*
Y861750D01*
X490850Y831900D02*
X499750D01*
X495300Y827450D02*
Y836350D01*
X643250Y857300D02*
X652150D01*
X647700Y852850D02*
Y861750D01*
X643250Y831900D02*
X652150D01*
X647700Y827450D02*
Y836350D01*
X592450Y831900D02*
X601350D01*
X596900Y827450D02*
Y836350D01*
X592450Y857300D02*
X601350D01*
X596900Y852850D02*
Y861750D01*
X617850Y831900D02*
X626750D01*
X622300Y827450D02*
Y836350D01*
X668650Y831900D02*
X677550D01*
X673100Y827450D02*
Y836350D01*
X668650Y857300D02*
X677550D01*
X673100Y852850D02*
Y861750D01*
X567050Y831900D02*
X575950D01*
X571500Y827450D02*
Y836350D01*
X617850Y857300D02*
X626750D01*
X622300Y852850D02*
Y861750D01*
X541650Y857300D02*
X550550D01*
X546100Y852850D02*
Y861750D01*
X694050Y831900D02*
X702950D01*
X698500Y827450D02*
Y836350D01*
X567050Y857300D02*
X575950D01*
X571500Y852850D02*
Y861750D01*
X770250Y857300D02*
X779150D01*
X774700Y852850D02*
Y861750D01*
X719450Y857300D02*
X728350D01*
X723900Y852850D02*
Y861750D01*
X744850Y831900D02*
X753750D01*
X749300Y827450D02*
Y836350D01*
X744850Y857300D02*
X753750D01*
X749300Y852850D02*
Y861750D01*
X770250Y831900D02*
X779150D01*
X774700Y827450D02*
Y836350D01*
X694050Y857300D02*
X702950D01*
X698500Y852850D02*
Y861750D01*
X719450Y831900D02*
X728350D01*
X723900Y827450D02*
Y836350D01*
X541650Y831900D02*
X550550D01*
X546100Y827450D02*
Y836350D01*
X516250Y857300D02*
X525150D01*
X520700Y852850D02*
Y861750D01*
X516250Y831900D02*
X525150D01*
X520700Y827450D02*
Y836350D01*
X490850Y857300D02*
X499750D01*
X495300Y852850D02*
Y861750D01*
X135250Y882700D02*
X144150D01*
X139700Y878250D02*
Y887150D01*
X135250Y908100D02*
X144150D01*
X139700Y903650D02*
Y912550D01*
X160650Y882700D02*
X169550D01*
X165100Y878250D02*
Y887150D01*
X236850Y908100D02*
X245750D01*
X241300Y903650D02*
Y912550D01*
X287650Y882700D02*
X296550D01*
X292100Y878250D02*
Y887150D01*
X262250Y882700D02*
X271150D01*
X266700Y878250D02*
Y887150D01*
X262250Y908100D02*
X271150D01*
X266700Y903650D02*
Y912550D01*
X287650Y908100D02*
X296550D01*
X292100Y903650D02*
Y912550D01*
X313050Y882700D02*
X321950D01*
X317500Y878250D02*
Y887150D01*
X363850Y882700D02*
X372750D01*
X368300Y878250D02*
Y887150D01*
X338450Y882700D02*
X347350D01*
X342900Y878250D02*
Y887150D01*
X313050Y908100D02*
X321950D01*
X317500Y903650D02*
Y912550D01*
X338450Y908100D02*
X347350D01*
X342900Y903650D02*
Y912550D01*
X236850Y882700D02*
X245750D01*
X241300Y878250D02*
Y887150D01*
X186050Y908100D02*
X194950D01*
X190500Y903650D02*
Y912550D01*
X211450Y882700D02*
X220350D01*
X215900Y878250D02*
Y887150D01*
X211450Y908100D02*
X220350D01*
X215900Y903650D02*
Y912550D01*
X186050Y882700D02*
X194950D01*
X190500Y878250D02*
Y887150D01*
X160650Y908100D02*
X169550D01*
X165100Y903650D02*
Y912550D01*
X440050Y908100D02*
X448950D01*
X444500Y903650D02*
Y912550D01*
X440050Y882700D02*
X448950D01*
X444500Y878250D02*
Y887150D01*
X363850Y908100D02*
X372750D01*
X368300Y903650D02*
Y912550D01*
X465450Y882700D02*
X474350D01*
X469900Y878250D02*
Y887150D01*
X465450Y908100D02*
X474350D01*
X469900Y903650D02*
Y912550D01*
X490850Y882700D02*
X499750D01*
X495300Y878250D02*
Y887150D01*
X643250Y908100D02*
X652150D01*
X647700Y903650D02*
Y912550D01*
X643250Y882700D02*
X652150D01*
X647700Y878250D02*
Y887150D01*
X592450Y882700D02*
X601350D01*
X596900Y878250D02*
Y887150D01*
X592450Y908100D02*
X601350D01*
X596900Y903650D02*
Y912550D01*
X617850Y882700D02*
X626750D01*
X622300Y878250D02*
Y887150D01*
X668650Y882700D02*
X677550D01*
X673100Y878250D02*
Y887150D01*
X668650Y908100D02*
X677550D01*
X673100Y903650D02*
Y912550D01*
X567050Y882700D02*
X575950D01*
X571500Y878250D02*
Y887150D01*
X617850Y908100D02*
X626750D01*
X622300Y903650D02*
Y912550D01*
X541650Y908100D02*
X550550D01*
X546100Y903650D02*
Y912550D01*
X694050Y882700D02*
X702950D01*
X698500Y878250D02*
Y887150D01*
X567050Y908100D02*
X575950D01*
X571500Y903650D02*
Y912550D01*
X770250Y908100D02*
X779150D01*
X774700Y903650D02*
Y912550D01*
X719450Y908100D02*
X728350D01*
X723900Y903650D02*
Y912550D01*
X744850Y882700D02*
X753750D01*
X749300Y878250D02*
Y887150D01*
X744850Y908100D02*
X753750D01*
X749300Y903650D02*
Y912550D01*
X770250Y882700D02*
X779150D01*
X774700Y878250D02*
Y887150D01*
X694050Y908100D02*
X702950D01*
X698500Y903650D02*
Y912550D01*
X719450Y882700D02*
X728350D01*
X723900Y878250D02*
Y887150D01*
X541650Y882700D02*
X550550D01*
X546100Y878250D02*
Y887150D01*
X516250Y908100D02*
X525150D01*
X520700Y903650D02*
Y912550D01*
X516250Y882700D02*
X525150D01*
X520700Y878250D02*
Y887150D01*
X490850Y908100D02*
X499750D01*
X495300Y903650D02*
Y912550D01*
X497750Y432750D02*
X500750D01*
X499250Y431250D02*
Y434250D01*
X256500Y719000D02*
X259500D01*
X258000Y717500D02*
Y720500D01*
X249000Y719000D02*
X252000D01*
X250500Y717500D02*
Y720500D01*
X234000Y719000D02*
X237000D01*
X235500Y717500D02*
Y720500D01*
X241500Y719000D02*
X244500D01*
X243000Y717500D02*
Y720500D01*
X226500Y719000D02*
X229500D01*
X228000Y717500D02*
Y720500D01*
X211500Y719000D02*
X214500D01*
X213000Y717500D02*
Y720500D01*
X219000Y719000D02*
X222000D01*
X220500Y717500D02*
Y720500D01*
X196500Y719000D02*
X199500D01*
X198000Y717500D02*
Y720500D01*
X204000Y719000D02*
X207000D01*
X205500Y717500D02*
Y720500D01*
X256500Y726000D02*
X259500D01*
X258000Y724500D02*
Y727500D01*
X249000Y726000D02*
X252000D01*
X250500Y724500D02*
Y727500D01*
X234000Y726000D02*
X237000D01*
X235500Y724500D02*
Y727500D01*
X241500Y726000D02*
X244500D01*
X243000Y724500D02*
Y727500D01*
X226500Y726000D02*
X229500D01*
X228000Y724500D02*
Y727500D01*
X211500Y726000D02*
X214500D01*
X213000Y724500D02*
Y727500D01*
X219000Y726000D02*
X222000D01*
X220500Y724500D02*
Y727500D01*
X196500Y726000D02*
X199500D01*
X198000Y724500D02*
Y727500D01*
X204000Y726000D02*
X207000D01*
X205500Y724500D02*
Y727500D01*
X259250Y786500D02*
X262250D01*
X260750Y785000D02*
Y788000D01*
X71500Y832000D02*
X74500D01*
X73000Y830500D02*
Y833500D01*
X48500Y795000D02*
X51500D01*
X50000Y793500D02*
Y796500D01*
X205500Y795000D02*
X208500D01*
X207000Y793500D02*
Y796500D01*
X153000Y723000D02*
X156000D01*
X154500Y721500D02*
Y724500D01*
X145500Y723000D02*
X148500D01*
X147000Y721500D02*
Y724500D01*
X165500Y634000D02*
X168500D01*
X167000Y632500D02*
Y635500D01*
X749000Y302750D02*
X752000D01*
X750500Y301250D02*
Y304250D01*
X638750Y771000D02*
X641750D01*
X640250Y769500D02*
Y772500D01*
X462220Y622750D02*
X465220D01*
X463720Y621250D02*
Y624250D01*
X365493Y702433D02*
X368493D01*
X366993Y700933D02*
Y703933D01*
X334364Y658026D02*
X337364D01*
X335864Y656526D02*
Y659526D01*
X753500Y786000D02*
X756500D01*
X755000Y784500D02*
Y787500D01*
X137750Y736750D02*
X140750D01*
X139250Y735250D02*
Y738250D01*
X197837Y685650D02*
X200837D01*
X199337Y684150D02*
Y687150D01*
X503500Y688000D02*
X506500D01*
X505000Y686500D02*
Y689500D01*
X598500Y581000D02*
X601500D01*
X600000Y579500D02*
Y582500D01*
X619330Y664516D02*
X622330D01*
X620830Y663016D02*
Y666016D01*
X333892Y616349D02*
X336892D01*
X335392Y614849D02*
Y617849D01*
X306998Y389549D02*
X309998D01*
X308498Y388049D02*
Y391049D01*
X768157Y193135D02*
X771157D01*
X769657Y191635D02*
Y194635D01*
X153000Y693000D02*
X156000D01*
X154500Y691500D02*
Y694500D01*
X153000Y700500D02*
X156000D01*
X154500Y699000D02*
Y702000D01*
X153000Y708000D02*
X156000D01*
X154500Y706500D02*
Y709500D01*
X153000Y715500D02*
X156000D01*
X154500Y714000D02*
Y717000D01*
X252000Y376500D02*
X255000D01*
X253500Y375000D02*
Y378000D01*
X252000Y384000D02*
X255000D01*
X253500Y382500D02*
Y385500D01*
X252000Y399000D02*
X255000D01*
X253500Y397500D02*
Y400500D01*
X252000Y391500D02*
X255000D01*
X253500Y390000D02*
Y393000D01*
X252000Y406500D02*
X255000D01*
X253500Y405000D02*
Y408000D01*
X252000Y414000D02*
X255000D01*
X253500Y412500D02*
Y415500D01*
X252000Y421500D02*
X255000D01*
X253500Y420000D02*
Y423000D01*
X252000Y429000D02*
X255000D01*
X253500Y427500D02*
Y430500D01*
X536000Y420500D02*
X539000D01*
X537500Y419000D02*
Y422000D01*
X536000Y428000D02*
X539000D01*
X537500Y426500D02*
Y429500D01*
X536000Y405500D02*
X539000D01*
X537500Y404000D02*
Y407000D01*
X536000Y413000D02*
X539000D01*
X537500Y411500D02*
Y414500D01*
X513500Y438500D02*
X516500D01*
X515000Y437000D02*
Y440000D01*
X528500Y413000D02*
X531500D01*
X530000Y411500D02*
Y414500D01*
X528500Y398000D02*
X531500D01*
X530000Y396500D02*
Y399500D01*
X528500Y405500D02*
X531500D01*
X530000Y404000D02*
Y407000D01*
X528500Y428000D02*
X531500D01*
X530000Y426500D02*
Y429500D01*
X528500Y420500D02*
X531500D01*
X530000Y419000D02*
Y422000D01*
X233500Y445000D02*
X236500D01*
X235000Y443500D02*
Y446500D01*
X297000Y406500D02*
X300000D01*
X298500Y405000D02*
Y408000D01*
X297000Y414000D02*
X300000D01*
X298500Y412500D02*
Y415500D01*
X304500Y421500D02*
X307500D01*
X306000Y420000D02*
Y423000D01*
X297000Y421500D02*
X300000D01*
X298500Y420000D02*
Y423000D01*
X304500Y429000D02*
X307500D01*
X306000Y427500D02*
Y430500D01*
X297000Y429000D02*
X300000D01*
X298500Y427500D02*
Y430500D01*
X315845Y121950D02*
X318845D01*
X317345Y120449D02*
Y123449D01*
X285500Y144000D02*
X288500D01*
X287000Y142500D02*
Y145500D01*
X379246Y130213D02*
X382246D01*
X380746Y128713D02*
Y131713D01*
X446487Y144494D02*
X449487D01*
X447986Y142993D02*
Y145993D01*
X500537Y124489D02*
X503537D01*
X502037Y122989D02*
Y125989D01*
X608500Y124500D02*
X611500D01*
X610000Y123000D02*
Y126000D01*
X98732Y194998D02*
X101732D01*
X100232Y193498D02*
Y196498D01*
X127885Y235146D02*
X130885D01*
X129385Y233646D02*
Y236646D01*
X222850Y138176D02*
X225850D01*
X224350Y136676D02*
Y139676D01*
X240500Y154000D02*
X243500D01*
X242000Y152500D02*
Y155500D01*
X236500Y535000D02*
X239500D01*
X238000Y533500D02*
Y536500D01*
X256500Y541000D02*
X259500D01*
X258000Y539500D02*
Y542500D01*
X265500Y541000D02*
X268500D01*
X267000Y539500D02*
Y542500D01*
X265500Y550000D02*
X268500D01*
X267000Y548500D02*
Y551500D01*
X256500Y559000D02*
X259500D01*
X258000Y557500D02*
Y560500D01*
X256500Y550000D02*
X259500D01*
X258000Y548500D02*
Y551500D01*
X265500Y559000D02*
X268500D01*
X267000Y557500D02*
Y560500D01*
X339004Y138173D02*
X342004D01*
X340504Y136673D02*
Y139673D01*
X330500Y145000D02*
X333500D01*
X332000Y143500D02*
Y146500D01*
X355500Y154000D02*
X358500D01*
X357000Y152500D02*
Y155500D01*
X283500Y542000D02*
X286500D01*
X285000Y540500D02*
Y543500D01*
X301500Y542000D02*
X304500D01*
X303000Y540500D02*
Y543500D01*
X292500Y542000D02*
X295500D01*
X294000Y540500D02*
Y543500D01*
X283500Y551000D02*
X286500D01*
X285000Y549500D02*
Y552500D01*
X301500Y551000D02*
X304500D01*
X303000Y549500D02*
Y552500D01*
X292500Y551000D02*
X295500D01*
X294000Y549500D02*
Y552500D01*
X379500Y542000D02*
X382500D01*
X381000Y540500D02*
Y543500D01*
X388500Y569000D02*
X391500D01*
X390000Y567500D02*
Y570500D01*
X379500Y569000D02*
X382500D01*
X381000Y567500D02*
Y570500D01*
X388500Y551000D02*
X391500D01*
X390000Y549500D02*
Y552500D01*
X424500Y552000D02*
X427500D01*
X426000Y550500D02*
Y553500D01*
X415500Y552000D02*
X418500D01*
X417000Y550500D02*
Y553500D01*
X406500Y552000D02*
X409500D01*
X408000Y550500D02*
Y553500D01*
X406500Y561000D02*
X409500D01*
X408000Y559500D02*
Y562500D01*
X424500Y561000D02*
X427500D01*
X426000Y559500D02*
Y562500D01*
X415500Y561000D02*
X418500D01*
X417000Y559500D02*
Y562500D01*
X38500Y600000D02*
X41500D01*
X40000Y598500D02*
Y601500D01*
X41386Y721949D02*
X44386D01*
X42886Y720449D02*
Y723449D01*
X226500Y587000D02*
X229500D01*
X228000Y585500D02*
Y588500D01*
X226500Y596000D02*
X229500D01*
X228000Y594500D02*
Y597500D01*
X235500Y578000D02*
X238500D01*
X237000Y576500D02*
Y579500D01*
X244500Y578000D02*
X247500D01*
X246000Y576500D02*
Y579500D01*
X244500Y587000D02*
X247500D01*
X246000Y585500D02*
Y588500D01*
X235500Y596000D02*
X238500D01*
X237000Y594500D02*
Y597500D01*
X235500Y587000D02*
X238500D01*
X237000Y585500D02*
Y588500D01*
X244500Y596000D02*
X247500D01*
X246000Y594500D02*
Y597500D01*
X204000Y733000D02*
X207000D01*
X205500Y731500D02*
Y734500D01*
X196500Y733000D02*
X199500D01*
X198000Y731500D02*
Y734500D01*
X244500Y605000D02*
X247500D01*
X246000Y603500D02*
Y606500D01*
X235500Y605000D02*
X238500D01*
X237000Y603500D02*
Y606500D01*
X226500Y605000D02*
X229500D01*
X228000Y603500D02*
Y606500D01*
X226500Y614000D02*
X229500D01*
X228000Y612500D02*
Y615500D01*
X244500Y614000D02*
X247500D01*
X246000Y612500D02*
Y615500D01*
X235500Y614000D02*
X238500D01*
X237000Y612500D02*
Y615500D01*
X49306Y744136D02*
X52306D01*
X50806Y742636D02*
Y745636D01*
X72500Y801000D02*
X75500D01*
X74000Y799500D02*
Y802500D01*
X219000Y733000D02*
X222000D01*
X220500Y731500D02*
Y734500D01*
X211500Y733000D02*
X214500D01*
X213000Y731500D02*
Y734500D01*
X204000Y740000D02*
X207000D01*
X205500Y738500D02*
Y741500D01*
X219000Y740000D02*
X222000D01*
X220500Y738500D02*
Y741500D01*
X211500Y740000D02*
X214500D01*
X213000Y738500D02*
Y741500D01*
X226500Y733000D02*
X229500D01*
X228000Y731500D02*
Y734500D01*
X241500Y733000D02*
X244500D01*
X243000Y731500D02*
Y734500D01*
X234000Y733000D02*
X237000D01*
X235500Y731500D02*
Y734500D01*
X226500Y740000D02*
X229500D01*
X228000Y738500D02*
Y741500D01*
X241500Y740000D02*
X244500D01*
X243000Y738500D02*
Y741500D01*
X234000Y740000D02*
X237000D01*
X235500Y738500D02*
Y741500D01*
X196500Y740000D02*
X199500D01*
X198000Y738500D02*
Y741500D01*
X253500Y605000D02*
X256500D01*
X255000Y603500D02*
Y606500D01*
X253500Y614000D02*
X256500D01*
X255000Y612500D02*
Y615500D01*
X358500Y588000D02*
X361500D01*
X360000Y586500D02*
Y589500D01*
X358500Y597000D02*
X361500D01*
X360000Y595500D02*
Y598500D01*
X358500Y615000D02*
X361500D01*
X360000Y613500D02*
Y616500D01*
X358500Y606000D02*
X361500D01*
X360000Y604500D02*
Y607500D01*
X367500Y615000D02*
X370500D01*
X369000Y613500D02*
Y616500D01*
X367500Y597000D02*
X370500D01*
X369000Y595500D02*
Y598500D01*
X367500Y588000D02*
X370500D01*
X369000Y586500D02*
Y589500D01*
X367500Y606000D02*
X370500D01*
X369000Y604500D02*
Y607500D01*
X376500Y615000D02*
X379500D01*
X378000Y613500D02*
Y616500D01*
X358500Y624000D02*
X361500D01*
X360000Y622500D02*
Y625500D01*
X376500Y624000D02*
X379500D01*
X378000Y622500D02*
Y625500D01*
X367500Y624000D02*
X370500D01*
X369000Y622500D02*
Y625500D01*
X353500Y674000D02*
X356500D01*
X355000Y672500D02*
Y675500D01*
X431000Y692500D02*
X434000D01*
X432500Y691000D02*
Y694000D01*
X431000Y677500D02*
X434000D01*
X432500Y676000D02*
Y679000D01*
X431000Y685000D02*
X434000D01*
X432500Y683500D02*
Y686500D01*
X283093Y703116D02*
X286093D01*
X284593Y701616D02*
Y704616D01*
X249000Y733000D02*
X252000D01*
X250500Y731500D02*
Y734500D01*
X256500Y733000D02*
X259500D01*
X258000Y731500D02*
Y734500D01*
X249000Y740000D02*
X252000D01*
X250500Y738500D02*
Y741500D01*
X329344Y713947D02*
X332344D01*
X330844Y712447D02*
Y715447D01*
X333834Y741844D02*
X336834D01*
X335334Y740344D02*
Y743344D01*
X567500Y138750D02*
X570500D01*
X569000Y137250D02*
Y140250D01*
X560500Y149070D02*
X563500D01*
X562000Y147570D02*
Y150570D01*
X588000Y159625D02*
X591000D01*
X589500Y158125D02*
Y161125D01*
X640500Y452250D02*
X643500D01*
X642000Y450750D02*
Y453750D01*
X728949Y317425D02*
X731948D01*
X730449Y315925D02*
Y318925D01*
X821250Y239500D02*
X824250D01*
X822750Y238000D02*
Y241000D01*
X660750Y375250D02*
X663750D01*
X662250Y373750D02*
Y376750D01*
X703786Y394272D02*
X706786D01*
X705286Y392772D02*
Y395772D01*
X707870Y419750D02*
X710870D01*
X709370Y418250D02*
Y421250D01*
X766485Y394843D02*
X769485D01*
X767985Y393344D02*
Y396343D01*
X735483Y412201D02*
X738484D01*
X736983Y410700D02*
Y413700D01*
X463750Y589500D02*
X466750D01*
X465250Y588000D02*
Y591000D01*
X484250Y568250D02*
X487250D01*
X485750Y566750D02*
Y569750D01*
X484500Y588000D02*
X487500D01*
X486000Y586500D02*
Y589500D01*
X475500Y597000D02*
X478500D01*
X477000Y595500D02*
Y598500D01*
X484500Y597000D02*
X487500D01*
X486000Y595500D02*
Y598500D01*
X493500Y606000D02*
X496500D01*
X495000Y604500D02*
Y607500D01*
X484500Y615000D02*
X487500D01*
X486000Y613500D02*
Y616500D01*
X484500Y606000D02*
X487500D01*
X486000Y604500D02*
Y607500D01*
X493500Y615000D02*
X496500D01*
X495000Y613500D02*
Y616500D01*
X493500Y597000D02*
X496500D01*
X495000Y595500D02*
Y598500D01*
X502500Y615000D02*
X505500D01*
X504000Y613500D02*
Y616500D01*
X438500Y692500D02*
X441500D01*
X440000Y691000D02*
Y694000D01*
X438500Y677500D02*
X441500D01*
X440000Y676000D02*
Y679000D01*
X438500Y685000D02*
X441500D01*
X440000Y683500D02*
Y686500D01*
X444630Y630491D02*
X447630D01*
X446129Y628992D02*
Y631992D01*
X446000Y677500D02*
X449000D01*
X447500Y676000D02*
Y679000D01*
X446000Y685000D02*
X449000D01*
X447500Y683500D02*
Y686500D01*
X446000Y692500D02*
X449000D01*
X447500Y691000D02*
Y694000D01*
X456000Y687500D02*
X459000D01*
X457500Y686000D02*
Y689000D01*
X461000Y697500D02*
X464000D01*
X462500Y696000D02*
Y699000D01*
X451000Y757500D02*
X454000D01*
X452500Y756000D02*
Y759000D01*
X451000Y747500D02*
X454000D01*
X452500Y746000D02*
Y749000D01*
X451000Y777500D02*
X454000D01*
X452500Y776000D02*
Y779000D01*
X451000Y767500D02*
X454000D01*
X452500Y766000D02*
Y769000D01*
X461000Y707500D02*
X464000D01*
X462500Y706000D02*
Y709000D01*
X461000Y717500D02*
X464000D01*
X462500Y716000D02*
Y719000D01*
X461000Y757500D02*
X464000D01*
X462500Y756000D02*
Y759000D01*
X461000Y737500D02*
X464000D01*
X462500Y736000D02*
Y739000D01*
X461000Y747500D02*
X464000D01*
X462500Y746000D02*
Y749000D01*
X484500Y624000D02*
X487500D01*
X486000Y622500D02*
Y625500D01*
X502500Y624000D02*
X505500D01*
X504000Y622500D02*
Y625500D01*
X493500Y624000D02*
X496500D01*
X495000Y622500D02*
Y625500D01*
X475500Y624000D02*
X478500D01*
X477000Y622500D02*
Y625500D01*
X741000Y517500D02*
X744000D01*
X742500Y516000D02*
Y519000D01*
X741000Y527500D02*
X744000D01*
X742500Y526000D02*
Y529000D01*
X748500Y537500D02*
X751500D01*
X750000Y536000D02*
Y539000D01*
X741000Y547500D02*
X744000D01*
X742500Y546000D02*
Y549000D01*
X741000Y537500D02*
X744000D01*
X742500Y536000D02*
Y539000D01*
X748500Y547500D02*
X751500D01*
X750000Y546000D02*
Y549000D01*
X748500Y517500D02*
X751500D01*
X750000Y516000D02*
Y519000D01*
X763500Y517500D02*
X766500D01*
X765000Y516000D02*
Y519000D01*
X756000Y517500D02*
X759000D01*
X757500Y516000D02*
Y519000D01*
X748500Y527500D02*
X751500D01*
X750000Y526000D02*
Y529000D01*
X763500Y527500D02*
X766500D01*
X765000Y526000D02*
Y529000D01*
X756000Y527500D02*
X759000D01*
X757500Y526000D02*
Y529000D01*
X771000Y517500D02*
X774000D01*
X772500Y516000D02*
Y519000D01*
X778500Y517500D02*
X781500D01*
X780000Y516000D02*
Y519000D01*
X778500Y527500D02*
X781500D01*
X780000Y526000D02*
Y529000D01*
X771000Y527500D02*
X774000D01*
X772500Y526000D02*
Y529000D01*
X778500Y537500D02*
X781500D01*
X780000Y536000D02*
Y539000D01*
X756000Y537500D02*
X759000D01*
X757500Y536000D02*
Y539000D01*
X763500Y537500D02*
X766500D01*
X765000Y536000D02*
Y539000D01*
X763500Y547500D02*
X766500D01*
X765000Y546000D02*
Y549000D01*
X756000Y547500D02*
X759000D01*
X757500Y546000D02*
Y549000D01*
X771000Y547500D02*
X774000D01*
X772500Y546000D02*
Y549000D01*
X771000Y537500D02*
X774000D01*
X772500Y536000D02*
Y539000D01*
X778500Y547500D02*
X781500D01*
X780000Y546000D02*
Y549000D01*
X774250Y637500D02*
X777250D01*
X775750Y636000D02*
Y639000D01*
X641250Y682750D02*
X644250D01*
X642750Y681250D02*
Y684250D01*
X641000Y732500D02*
X644000D01*
X642500Y731000D02*
Y734000D01*
X599123Y793157D02*
X602123D01*
X600623Y791657D02*
Y794657D01*
X620718Y762117D02*
X623718D01*
X622219Y760617D02*
Y763617D01*
X630591Y797249D02*
X633591D01*
X632091Y795749D02*
Y798749D01*
X559000Y642000D02*
X562000D01*
X560500Y640500D02*
Y643500D01*
X423375Y649125D02*
X426375D01*
X424875Y647625D02*
Y650625D01*
X675000Y145750D02*
X678000D01*
X676500Y144250D02*
Y147250D01*
X743500Y169750D02*
X746500D01*
X745000Y168250D02*
Y171250D01*
X388500Y560000D02*
X391500D01*
X390000Y558500D02*
Y561500D01*
X580672Y484726D02*
X583671D01*
X582172Y483226D02*
Y486226D01*
X475500Y615000D02*
X478500D01*
X477000Y613500D02*
Y616500D01*
X475500Y606000D02*
X478500D01*
X477000Y604500D02*
Y607500D01*
X461000Y767500D02*
X464000D01*
X462500Y766000D02*
Y769000D01*
X451000Y737500D02*
X454000D01*
X452500Y736000D02*
Y739000D01*
X461000Y727500D02*
X464000D01*
X462500Y726000D02*
Y729000D01*
X541500Y561000D02*
X544500D01*
X543000Y559500D02*
Y562500D01*
X379500Y560000D02*
X382500D01*
X381000Y558500D02*
Y561500D01*
X388500Y542000D02*
X391500D01*
X390000Y540500D02*
Y543500D01*
X379500Y551000D02*
X382500D01*
X381000Y549500D02*
Y552500D01*
X301793Y628280D02*
X304793D01*
X303293Y626780D02*
Y629780D01*
X334000Y513000D02*
X337000D01*
X335500Y511500D02*
Y514500D01*
X540000Y678250D02*
X543000D01*
X541500Y676750D02*
Y679750D01*
X256500Y740000D02*
X259500D01*
X258000Y738500D02*
Y741500D01*
X278086Y254125D02*
X281086D01*
X279586Y252625D02*
Y255625D01*
X291232Y302750D02*
X294232D01*
X292732Y301250D02*
Y304250D01*
X262131Y301500D02*
X265131D01*
X263631Y300000D02*
Y303000D01*
X357802Y296993D02*
X360802D01*
X359302Y295493D02*
Y298493D01*
X376500Y213750D02*
X379500D01*
X378000Y212250D02*
Y215250D01*
X107000Y114250D02*
X110000D01*
X108500Y112750D02*
Y115750D01*
X69250Y247500D02*
X72250D01*
X70750Y246000D02*
Y249000D01*
X540750Y377000D02*
X543750D01*
X542250Y375500D02*
Y378500D01*
X200599Y485178D02*
X203599D01*
X202099Y483678D02*
Y486678D01*
X464073Y280706D02*
X467074D01*
X465574Y279205D02*
Y282206D01*
X159521Y314177D02*
X162521D01*
X161021Y312677D02*
Y315677D01*
X304750Y376000D02*
X307750D01*
X306250Y374500D02*
Y377500D01*
X305750Y365000D02*
X308750D01*
X307250Y363500D02*
Y366500D01*
X572500Y264750D02*
X575500D01*
X574000Y263250D02*
Y266250D01*
X532750Y241250D02*
X535750D01*
X534250Y239750D02*
Y242750D01*
X354750Y784500D02*
X357750D01*
X356250Y783000D02*
Y786000D01*
X256500Y532660D02*
X259500D01*
X258000Y531160D02*
Y534160D01*
X265500Y532660D02*
X268500D01*
X267000Y531160D02*
Y534160D01*
X363009Y406750D02*
X366009D01*
X364509Y405250D02*
Y408250D01*
X322665Y479915D02*
X325665D01*
X324165Y478415D02*
Y481415D01*
X518500Y295000D02*
X521500D01*
X520000Y293500D02*
Y296500D01*
X790795Y418500D02*
X793795D01*
X792295Y417000D02*
Y420000D01*
X790795Y329000D02*
X793795D01*
X792295Y327500D02*
Y330500D01*
X694500Y704500D02*
X697500D01*
X696000Y703000D02*
Y706000D01*
X694500Y697000D02*
X697500D01*
X696000Y695500D02*
Y698500D01*
X687000Y712000D02*
X690000D01*
X688500Y710500D02*
Y713500D01*
X687000Y697000D02*
X690000D01*
X688500Y695500D02*
Y698500D01*
X687000Y704500D02*
X690000D01*
X688500Y703000D02*
Y706000D01*
X694500Y712000D02*
X697500D01*
X696000Y710500D02*
Y713500D01*
X694500Y689500D02*
X697500D01*
X696000Y688000D02*
Y691000D01*
X493500Y672000D02*
X496500D01*
X495000Y670500D02*
Y673500D01*
X136500Y652000D02*
X139500D01*
X138000Y650500D02*
Y653500D01*
X392875Y695250D02*
X395875D01*
X394375Y693751D02*
Y696750D01*
X351041Y606460D02*
X354041D01*
X352541Y604960D02*
Y607960D01*
X351041Y615000D02*
X354041D01*
X352541Y613500D02*
Y616500D01*
X351041Y624000D02*
X354041D01*
X352541Y622500D02*
Y625500D01*
X351041Y597000D02*
X354041D01*
X352541Y595500D02*
Y598500D01*
X541500Y552000D02*
X544500D01*
X543000Y550500D02*
Y553500D01*
X550388Y552000D02*
X553388D01*
X551888Y550500D02*
Y553500D01*
X550500Y561000D02*
X553500D01*
X552000Y559500D02*
Y562500D01*
X532758Y561000D02*
X535758D01*
X534258Y559500D02*
Y562500D01*
X532758Y552000D02*
X535758D01*
X534258Y550500D02*
Y553500D01*
X514500Y560000D02*
X517500D01*
X516000Y558500D02*
Y561500D01*
X514500Y569000D02*
X517500D01*
X516000Y567500D02*
Y570500D01*
X505500Y560000D02*
X508500D01*
X507000Y558500D02*
Y561500D01*
X505500Y569000D02*
X508500D01*
X507000Y567500D02*
Y570500D01*
X505500Y551000D02*
X508500D01*
X507000Y549500D02*
Y552500D01*
X493500Y588000D02*
X496500D01*
X495000Y586500D02*
Y589500D01*
X480912Y544662D02*
X483912D01*
X482412Y543162D02*
Y546162D01*
X444710Y512182D02*
X447710D01*
X446210Y510682D02*
Y513682D01*
X514500Y551000D02*
X517500D01*
X516000Y549500D02*
Y552500D01*
X277500Y379000D02*
X280500D01*
X279000Y377500D02*
Y380500D01*
X768250Y762000D02*
X771250D01*
X769750Y760500D02*
Y763500D01*
X742000Y792000D02*
X745000D01*
X743500Y790500D02*
Y793500D01*
X745500Y684000D02*
X748500D01*
X747000Y682500D02*
Y685500D01*
X626500Y663000D02*
X629500D01*
X628000Y661500D02*
Y664500D01*
X630751Y587124D02*
X633751D01*
X632251Y585624D02*
Y588624D01*
X646095Y631799D02*
X649095D01*
X647595Y630299D02*
Y633298D01*
X627036Y643000D02*
X630036D01*
X628536Y641500D02*
Y644500D01*
X472357Y154157D02*
X475357D01*
X473857Y152657D02*
Y155657D01*
X453500Y138000D02*
X456500D01*
X455000Y136500D02*
Y139500D01*
X362500Y92000D02*
X365500D01*
X364000Y90500D02*
Y93500D01*
X355000Y92000D02*
X358000D01*
X356500Y90500D02*
Y93500D01*
X347500Y92000D02*
X350500D01*
X349000Y90500D02*
Y93500D01*
X362500Y99500D02*
X365500D01*
X364000Y98000D02*
Y101000D01*
X355000Y99500D02*
X358000D01*
X356500Y98000D02*
Y101000D01*
X347500Y99500D02*
X350500D01*
X349000Y98000D02*
Y101000D01*
X362500Y107000D02*
X365500D01*
X364000Y105500D02*
Y108500D01*
X355000Y107000D02*
X358000D01*
X356500Y105500D02*
Y108500D01*
X347500Y107000D02*
X350500D01*
X349000Y105500D02*
Y108500D01*
X347500Y84500D02*
X350500D01*
X349000Y83000D02*
Y86000D01*
X355000Y84500D02*
X358000D01*
X356500Y83000D02*
Y86000D01*
X362500Y84500D02*
X365500D01*
X364000Y83000D02*
Y86000D01*
X347500Y77000D02*
X350500D01*
X349000Y75500D02*
Y78500D01*
X355000Y77000D02*
X358000D01*
X356500Y75500D02*
Y78500D01*
X362500Y77000D02*
X365500D01*
X364000Y75500D02*
Y78500D01*
X247500Y77000D02*
X250500D01*
X249000Y75500D02*
Y78500D01*
X240000Y77000D02*
X243000D01*
X241500Y75500D02*
Y78500D01*
X232500Y77000D02*
X235500D01*
X234000Y75500D02*
Y78500D01*
X247500Y84500D02*
X250500D01*
X249000Y83000D02*
Y86000D01*
X240000Y84500D02*
X243000D01*
X241500Y83000D02*
Y86000D01*
X232500Y84500D02*
X235500D01*
X234000Y83000D02*
Y86000D01*
X232500Y107000D02*
X235500D01*
X234000Y105500D02*
Y108500D01*
X240000Y107000D02*
X243000D01*
X241500Y105500D02*
Y108500D01*
X247500Y107000D02*
X250500D01*
X249000Y105500D02*
Y108500D01*
X232500Y92000D02*
X235500D01*
X234000Y90500D02*
Y93500D01*
X240000Y92000D02*
X243000D01*
X241500Y90500D02*
Y93500D01*
X247500Y92000D02*
X250500D01*
X249000Y90500D02*
Y93500D01*
X477750Y77000D02*
X480750D01*
X479250Y75500D02*
Y78500D01*
X470250Y77000D02*
X473250D01*
X471750Y75500D02*
Y78500D01*
X462750Y77000D02*
X465750D01*
X464250Y75500D02*
Y78500D01*
X477750Y84500D02*
X480750D01*
X479250Y83000D02*
Y86000D01*
X470250Y84500D02*
X473250D01*
X471750Y83000D02*
Y86000D01*
X462750Y84500D02*
X465750D01*
X464250Y83000D02*
Y86000D01*
X462750Y107000D02*
X465750D01*
X464250Y105500D02*
Y108500D01*
X470250Y107000D02*
X473250D01*
X471750Y105500D02*
Y108500D01*
X477750Y107000D02*
X480750D01*
X479250Y105500D02*
Y108500D01*
X462750Y99500D02*
X465750D01*
X464250Y98000D02*
Y101000D01*
X470250Y99500D02*
X473250D01*
X471750Y98000D02*
Y101000D01*
X477750Y99500D02*
X480750D01*
X479250Y98000D02*
Y101000D01*
X462750Y92000D02*
X465750D01*
X464250Y90500D02*
Y93500D01*
X470250Y92000D02*
X473250D01*
X471750Y90500D02*
Y93500D01*
X477750Y92000D02*
X480750D01*
X479250Y90500D02*
Y93500D01*
X592750Y77000D02*
X595750D01*
X594250Y75500D02*
Y78500D01*
X585250Y77000D02*
X588250D01*
X586750Y75500D02*
Y78500D01*
X577750Y77000D02*
X580750D01*
X579250Y75500D02*
Y78500D01*
X592750Y84500D02*
X595750D01*
X594250Y83000D02*
Y86000D01*
X585250Y84500D02*
X588250D01*
X586750Y83000D02*
Y86000D01*
X577750Y84500D02*
X580750D01*
X579250Y83000D02*
Y86000D01*
X577750Y107000D02*
X580750D01*
X579250Y105500D02*
Y108500D01*
X585250Y107000D02*
X588250D01*
X586750Y105500D02*
Y108500D01*
X592750Y107000D02*
X595750D01*
X594250Y105500D02*
Y108500D01*
X577750Y99500D02*
X580750D01*
X579250Y98000D02*
Y101000D01*
X585250Y99500D02*
X588250D01*
X586750Y98000D02*
Y101000D01*
X592750Y99500D02*
X595750D01*
X594250Y98000D02*
Y101000D01*
X577750Y92000D02*
X580750D01*
X579250Y90500D02*
Y93500D01*
X585250Y92000D02*
X588250D01*
X586750Y90500D02*
Y93500D01*
X592750Y92000D02*
X595750D01*
X594250Y90500D02*
Y93500D01*
X521000Y420500D02*
X524000D01*
X522500Y419000D02*
Y422000D01*
X513500Y420500D02*
X516500D01*
X515000Y419000D02*
Y422000D01*
X521000Y428000D02*
X524000D01*
X522500Y426500D02*
Y429500D01*
X513500Y428000D02*
X516500D01*
X515000Y426500D02*
Y429500D01*
X513500Y405500D02*
X516500D01*
X515000Y404000D02*
Y407000D01*
X521000Y405500D02*
X524000D01*
X522500Y404000D02*
Y407000D01*
X513500Y398000D02*
X516500D01*
X515000Y396500D02*
Y399500D01*
X521000Y398000D02*
X524000D01*
X522500Y396500D02*
Y399500D01*
X513500Y413000D02*
X516500D01*
X515000Y411500D02*
Y414500D01*
X521000Y413000D02*
X524000D01*
X522500Y411500D02*
Y414500D01*
X506000Y405500D02*
X509000D01*
X507500Y404000D02*
Y407000D01*
X506000Y398000D02*
X509000D01*
X507500Y396500D02*
Y399500D01*
X506000Y390500D02*
X509000D01*
X507500Y389000D02*
Y392000D01*
X498500Y405500D02*
X501500D01*
X500000Y404000D02*
Y407000D01*
X498500Y398000D02*
X501500D01*
X500000Y396500D02*
Y399500D01*
X498500Y390500D02*
X501500D01*
X500000Y389000D02*
Y392000D01*
X498500Y383000D02*
X501500D01*
X500000Y381500D02*
Y384500D01*
X506000Y383000D02*
X509000D01*
X507500Y381500D02*
Y384500D01*
X513500Y383000D02*
X516500D01*
X515000Y381500D02*
Y384500D01*
X513500Y390500D02*
X516500D01*
X515000Y389000D02*
Y392000D01*
X521000Y390500D02*
X524000D01*
X522500Y389000D02*
Y392000D01*
X259500Y429000D02*
X262500D01*
X261000Y427500D02*
Y430500D01*
X259500Y421500D02*
X262500D01*
X261000Y420000D02*
Y423000D01*
X259500Y414000D02*
X262500D01*
X261000Y412500D02*
Y415500D01*
X267000Y429000D02*
X270000D01*
X268500Y427500D02*
Y430500D01*
X267000Y421500D02*
X270000D01*
X268500Y420000D02*
Y423000D01*
X267000Y414000D02*
X270000D01*
X268500Y412500D02*
Y415500D01*
X274500Y429000D02*
X277500D01*
X276000Y427500D02*
Y430500D01*
X274500Y421500D02*
X277500D01*
X276000Y420000D02*
Y423000D01*
X274500Y414000D02*
X277500D01*
X276000Y412500D02*
Y415500D01*
X289500Y414000D02*
X292500D01*
X291000Y412500D02*
Y415500D01*
X289500Y421500D02*
X292500D01*
X291000Y420000D02*
Y423000D01*
X289500Y429000D02*
X292500D01*
X291000Y427500D02*
Y430500D01*
X282000Y414000D02*
X285000D01*
X283500Y412500D02*
Y415500D01*
X282000Y421500D02*
X285000D01*
X283500Y420000D02*
Y423000D01*
X282000Y429000D02*
X285000D01*
X283500Y427500D02*
Y430500D01*
X259500Y406500D02*
X262500D01*
X261000Y405000D02*
Y408000D01*
X259500Y391500D02*
X262500D01*
X261000Y390000D02*
Y393000D01*
X259500Y399000D02*
X262500D01*
X261000Y397500D02*
Y400500D01*
X259500Y384000D02*
X262500D01*
X261000Y382500D02*
Y385500D01*
X259500Y376500D02*
X262500D01*
X261000Y375000D02*
Y378000D01*
X274500Y406500D02*
X277500D01*
X276000Y405000D02*
Y408000D01*
X267000Y406500D02*
X270000D01*
X268500Y405000D02*
Y408000D01*
X289500Y406500D02*
X292500D01*
X291000Y405000D02*
Y408000D01*
X282000Y406500D02*
X285000D01*
X283500Y405000D02*
Y408000D01*
X274500Y399000D02*
X277500D01*
X276000Y397500D02*
Y400500D01*
X267000Y399000D02*
X270000D01*
X268500Y397500D02*
Y400500D01*
X289500Y399000D02*
X292500D01*
X291000Y397500D02*
Y400500D01*
X282000Y399000D02*
X285000D01*
X283500Y397500D02*
Y400500D01*
X627259Y742911D02*
X630259D01*
X628759Y741411D02*
Y744411D01*
X208500Y666000D02*
X211500D01*
X210000Y664500D02*
Y667500D01*
X585713Y556429D02*
X588713D01*
X587213Y554929D02*
Y557929D01*
X579856Y671963D02*
X582856D01*
X581356Y670463D02*
Y673463D01*
X326318Y639750D02*
X329318D01*
X327818Y638250D02*
Y641250D01*
X658500Y314000D02*
X661500D01*
X660000Y312500D02*
Y315500D01*
X606500Y361000D02*
X609500D01*
X608000Y359500D02*
Y362500D01*
X75170Y204831D02*
X78170D01*
X76670Y203331D02*
Y206331D01*
X161500Y772000D02*
X164500D01*
X163000Y770500D02*
Y773500D01*
X176950Y624423D02*
X179950D01*
X178450Y622923D02*
Y625923D01*
X247500Y99500D02*
X250500D01*
X249000Y98000D02*
Y101000D01*
X240000Y99500D02*
X243000D01*
X241500Y98000D02*
Y101000D01*
X232500Y99500D02*
X235500D01*
X234000Y98000D02*
Y101000D01*
X865660Y34536D02*
X868660D01*
X867160Y33036D02*
Y36037D01*
X833140Y34536D02*
X836140D01*
X834640Y33036D02*
Y36037D01*
X833140Y67063D02*
X836140D01*
X834640Y65564D02*
Y68563D01*
X865660Y67063D02*
X868660D01*
X867160Y65564D02*
Y68563D01*
X849400Y73800D02*
X852400D01*
X850900Y72300D02*
Y75300D01*
X826400Y50800D02*
X829400D01*
X827900Y49300D02*
Y52300D01*
X849400Y27800D02*
X852400D01*
X850900Y26300D02*
Y29300D01*
X872400Y50800D02*
X875400D01*
X873900Y49300D02*
Y52300D01*
X103660Y891836D02*
X106660D01*
X105160Y890337D02*
Y893336D01*
X71140Y891836D02*
X74140D01*
X72640Y890337D02*
Y893336D01*
X71140Y924363D02*
X74140D01*
X72640Y922863D02*
Y925863D01*
X103660Y924363D02*
X106660D01*
X105160Y922863D02*
Y925863D01*
X87400Y931100D02*
X90400D01*
X88900Y929600D02*
Y932600D01*
X64400Y908100D02*
X67400D01*
X65900Y906600D02*
Y909600D01*
X87400Y885100D02*
X90400D01*
X88900Y883600D02*
Y886600D01*
X110400Y908100D02*
X113400D01*
X111900Y906600D02*
Y909600D01*
X840260Y891836D02*
X843260D01*
X841760Y890337D02*
Y893336D01*
X807740Y891836D02*
X810740D01*
X809240Y890337D02*
Y893336D01*
X807740Y924363D02*
X810740D01*
X809240Y922863D02*
Y925863D01*
X840260Y924363D02*
X843260D01*
X841760Y922863D02*
Y925863D01*
X824000Y931100D02*
X827000D01*
X825500Y929600D02*
Y932600D01*
X801000Y908100D02*
X804000D01*
X802500Y906600D02*
Y909600D01*
X824000Y885100D02*
X827000D01*
X825500Y883600D02*
Y886600D01*
X847000Y908100D02*
X850000D01*
X848500Y906600D02*
Y909600D01*
X64760Y33737D02*
X67760D01*
X66260Y32236D02*
Y35236D01*
X32240Y33737D02*
X35240D01*
X33740Y32236D02*
Y35236D01*
X32240Y66263D02*
X35240D01*
X33740Y64763D02*
Y67764D01*
X64760Y66263D02*
X67760D01*
X66260Y64763D02*
Y67764D01*
X48500Y73000D02*
X51500D01*
X50000Y71500D02*
Y74500D01*
X25500Y50000D02*
X28500D01*
X27000Y48500D02*
Y51500D01*
X48500Y27000D02*
X51500D01*
X50000Y25500D02*
Y28500D01*
X71500Y50000D02*
X74500D01*
X73000Y48500D02*
Y51500D01*
X770500Y741000D02*
X773500D01*
X772000Y739500D02*
Y742500D01*
X795586Y718304D02*
X798586D01*
X797086Y716804D02*
Y719804D01*
X795836Y696304D02*
X798836D01*
X797336Y694804D02*
Y697804D01*
X804407Y690783D02*
X807407D01*
X805907Y689283D02*
Y692283D01*
X133500Y540000D02*
X136500D01*
X135000Y538500D02*
Y541500D01*
X133500Y532500D02*
X136500D01*
X135000Y531000D02*
Y534000D01*
X133500Y525000D02*
X136500D01*
X135000Y523500D02*
Y526500D01*
X126000Y532500D02*
X129000D01*
X127500Y531000D02*
Y534000D01*
X126000Y540000D02*
X129000D01*
X127500Y538500D02*
Y541500D01*
X118500Y540000D02*
X121500D01*
X120000Y538500D02*
Y541500D01*
X118500Y547500D02*
X121500D01*
X120000Y546000D02*
Y549000D01*
X126000Y547500D02*
X129000D01*
X127500Y546000D02*
Y549000D01*
X133500Y547500D02*
X136500D01*
X135000Y546000D02*
Y549000D01*
X118500Y555000D02*
X121500D01*
X120000Y553500D02*
Y556500D01*
X126000Y555000D02*
X129000D01*
X127500Y553500D02*
Y556500D01*
X133500Y555000D02*
X136500D01*
X135000Y553500D02*
Y556500D01*
X118500Y562500D02*
X121500D01*
X120000Y561000D02*
Y564000D01*
X126000Y562500D02*
X129000D01*
X127500Y561000D02*
Y564000D01*
X141000Y547500D02*
X144000D01*
X142500Y546000D02*
Y549000D01*
X141000Y540000D02*
X144000D01*
X142500Y538500D02*
Y541500D01*
X141000Y532500D02*
X144000D01*
X142500Y531000D02*
Y534000D01*
X350911Y450655D02*
X353911D01*
X352411Y449155D02*
Y452155D01*
X398889Y315238D02*
X401889D01*
X400389Y313738D02*
Y316738D01*
X590839Y590584D02*
X593839D01*
X592339Y589084D02*
Y592084D01*
X584500Y512000D02*
X587500D01*
X586000Y510500D02*
Y513500D01*
X384055Y280909D02*
X387055D01*
X385555Y279409D02*
Y282409D01*
X778470Y294376D02*
X781470D01*
X779970Y292876D02*
Y295876D01*
X787145Y192862D02*
X790145D01*
X788645Y191362D02*
Y194362D01*
X721141Y215235D02*
X724141D01*
X722641Y213735D02*
Y216735D01*
X698500Y200000D02*
X701500D01*
X700000Y198500D02*
Y201500D01*
X688500Y359000D02*
X691500D01*
X690000Y357500D02*
Y360500D01*
X700500Y359000D02*
X703500D01*
X702000Y357500D02*
Y360500D01*
X694500Y359000D02*
X697500D01*
X696000Y357500D02*
Y360500D01*
X688500Y353000D02*
X691500D01*
X690000Y351500D02*
Y354500D01*
X694500Y353000D02*
X697500D01*
X696000Y351500D02*
Y354500D01*
X700500Y353000D02*
X703500D01*
X702000Y351500D02*
Y354500D01*
X718500Y251000D02*
X721500D01*
X720000Y249500D02*
Y252500D01*
X712500Y251000D02*
X715500D01*
X714000Y249500D02*
Y252500D01*
X706500Y251000D02*
X709500D01*
X708000Y249500D02*
Y252500D01*
X712500Y257000D02*
X715500D01*
X714000Y255500D02*
Y258500D01*
X718500Y257000D02*
X721500D01*
X720000Y255500D02*
Y258500D01*
X706500Y257000D02*
X709500D01*
X708000Y255500D02*
Y258500D01*
X195458Y269968D02*
X198458D01*
X196958Y268468D02*
Y271468D01*
X226848Y268772D02*
X229848D01*
X228348Y267272D02*
Y270272D01*
X211500Y217000D02*
X214500D01*
X213000Y215500D02*
Y218500D01*
X211500Y210000D02*
X214500D01*
X213000Y208500D02*
Y211500D01*
X218500Y217000D02*
X221500D01*
X220000Y215500D02*
Y218500D01*
X218500Y210000D02*
X221500D01*
X220000Y208500D02*
Y211500D01*
X211500Y203000D02*
X214500D01*
X213000Y201500D02*
Y204500D01*
X211500Y196000D02*
X214500D01*
X213000Y194500D02*
Y197500D01*
X218500Y203000D02*
X221500D01*
X220000Y201500D02*
Y204500D01*
X218500Y196000D02*
X221500D01*
X220000Y194500D02*
Y197500D01*
X225500Y203000D02*
X228500D01*
X227000Y201500D02*
Y204500D01*
X225500Y196000D02*
X228500D01*
X227000Y194500D02*
Y197500D01*
X232500Y203000D02*
X235500D01*
X234000Y201500D02*
Y204500D01*
X232500Y196000D02*
X235500D01*
X234000Y194500D02*
Y197500D01*
X239500Y203000D02*
X242500D01*
X241000Y201500D02*
Y204500D01*
X246500Y203000D02*
X249500D01*
X248000Y201500D02*
Y204500D01*
X239500Y196000D02*
X242500D01*
X241000Y194500D02*
Y197500D01*
X253500Y203000D02*
X256500D01*
X255000Y201500D02*
Y204500D01*
X211500Y172000D02*
X214500D01*
X213000Y170500D02*
Y173500D01*
X218500Y172000D02*
X221500D01*
X220000Y170500D02*
Y173500D01*
X225500Y172000D02*
X228500D01*
X227000Y170500D02*
Y173500D01*
X232500Y172000D02*
X235500D01*
X234000Y170500D02*
Y173500D01*
X450500Y177000D02*
X453500D01*
X452000Y175500D02*
Y178500D01*
X457500Y177000D02*
X460500D01*
X459000Y175500D02*
Y178500D01*
X464500Y177000D02*
X467500D01*
X466000Y175500D02*
Y178500D01*
X450500Y170000D02*
X453500D01*
X452000Y168500D02*
Y171500D01*
X457500Y170000D02*
X460500D01*
X459000Y168500D02*
Y171500D01*
X464500Y170000D02*
X467500D01*
X466000Y168500D02*
Y171500D01*
X450500Y163000D02*
X453500D01*
X452000Y161500D02*
Y164500D01*
X457500Y163000D02*
X460500D01*
X459000Y161500D02*
Y164500D01*
X464500Y163000D02*
X467500D01*
X466000Y161500D02*
Y164500D01*
X450500Y184000D02*
X453500D01*
X452000Y182500D02*
Y185500D01*
X450500Y191000D02*
X453500D01*
X452000Y189500D02*
Y192500D01*
X673554Y198269D02*
X676554D01*
X675054Y196769D02*
Y199769D01*
X564500Y203000D02*
X567500D01*
X566000Y201500D02*
Y204500D01*
X572000Y203000D02*
X575000D01*
X573500Y201500D02*
Y204500D01*
X579500Y203000D02*
X582500D01*
X581000Y201500D02*
Y204500D01*
X587000Y203000D02*
X590000D01*
X588500Y201500D02*
Y204500D01*
X564500Y195500D02*
X567500D01*
X566000Y194000D02*
Y197000D01*
X572000Y195500D02*
X575000D01*
X573500Y194000D02*
Y197000D01*
X579500Y195500D02*
X582500D01*
X581000Y194000D02*
Y197000D01*
X564500Y188000D02*
X567500D01*
X566000Y186500D02*
Y189500D01*
X314500Y566000D02*
X317500D01*
X316000Y564500D02*
Y567500D01*
X363100Y365831D02*
X366100D01*
X364600Y364331D02*
Y367331D01*
X118500Y532500D02*
X121500D01*
X120000Y531000D02*
Y534000D01*
X535360Y770702D02*
X538360D01*
X536860Y769202D02*
Y772202D01*
X539500Y711000D02*
X542500D01*
X541000Y709500D02*
Y712500D01*
X532000Y718500D02*
X535000D01*
X533500Y717000D02*
Y720000D01*
X539500Y718500D02*
X542500D01*
X541000Y717000D02*
Y720000D01*
X547000Y718500D02*
X550000D01*
X548500Y717000D02*
Y720000D01*
X532000Y711000D02*
X535000D01*
X533500Y709500D02*
Y712500D01*
X547000Y711000D02*
X550000D01*
X548500Y709500D02*
Y712500D01*
X547000Y703500D02*
X550000D01*
X548500Y702000D02*
Y705000D01*
X539500Y703500D02*
X542500D01*
X541000Y702000D02*
Y705000D01*
X532000Y703500D02*
X535000D01*
X533500Y702000D02*
Y705000D01*
X547000Y696000D02*
X550000D01*
X548500Y694500D02*
Y697500D01*
X539500Y696000D02*
X542500D01*
X541000Y694500D02*
Y697500D01*
X532000Y696000D02*
X535000D01*
X533500Y694500D02*
Y697500D01*
X532000Y726000D02*
X535000D01*
X533500Y724500D02*
Y727500D01*
X539500Y726000D02*
X542500D01*
X541000Y724500D02*
Y727500D01*
X547000Y726000D02*
X550000D01*
X548500Y724500D02*
Y727500D01*
X554500Y696000D02*
X557500D01*
X556000Y694500D02*
Y697500D01*
X554500Y718500D02*
X557500D01*
X556000Y717000D02*
Y720000D01*
X554500Y711000D02*
X557500D01*
X556000Y709500D02*
Y712500D01*
X554500Y703500D02*
X557500D01*
X556000Y702000D02*
Y705000D01*
X768350Y114750D02*
X771350D01*
X769850Y113250D02*
Y116250D01*
X768350Y140150D02*
X771350D01*
X769850Y138650D02*
Y141650D01*
X145500Y715500D02*
X148500D01*
X147000Y714000D02*
Y717000D01*
X145500Y708000D02*
X148500D01*
X147000Y706500D02*
Y709500D01*
X145500Y700500D02*
X148500D01*
X147000Y699000D02*
Y702000D01*
X145500Y693000D02*
X148500D01*
X147000Y691500D02*
Y694500D01*
X509500Y473000D02*
X512500D01*
X511000Y471500D02*
Y474500D01*
X254267Y474766D02*
X257267D01*
X255767Y473266D02*
Y476265D01*
X439125Y418224D02*
X442125D01*
X440625Y416724D02*
Y419724D01*
X438639Y426220D02*
X441639D01*
X440139Y424720D02*
Y427720D01*
X462086Y420320D02*
X465086D01*
X463586Y418820D02*
Y421820D01*
X380330Y304430D02*
X383330D01*
X381830Y302930D02*
Y305930D01*
X755650Y89350D02*
X758650D01*
X757150Y87850D02*
Y90850D01*
X768350Y102050D02*
X771350D01*
X769850Y100550D02*
Y103550D01*
X518640Y265840D02*
X521640D01*
X520140Y264340D02*
Y267340D01*
X768350Y127450D02*
X771350D01*
X769850Y125950D02*
Y128950D01*
X508750Y190500D02*
X511750D01*
X510250Y189000D02*
Y192000D01*
X362750Y421750D02*
X365750D01*
X364250Y420250D02*
Y423250D01*
X768350Y89350D02*
X771350D01*
X769850Y87850D02*
Y90850D01*
X161500Y235000D02*
X164500D01*
X163000Y233500D02*
Y236500D01*
X731000Y610000D02*
X734000D01*
X732500Y608500D02*
Y611500D01*
X731000Y602500D02*
X734000D01*
X732500Y601000D02*
Y604000D01*
X731000Y617500D02*
X734000D01*
X732500Y616000D02*
Y619000D01*
X738500Y610000D02*
X741500D01*
X740000Y608500D02*
Y611500D01*
X738500Y602500D02*
X741500D01*
X740000Y601000D02*
Y604000D01*
X738500Y617500D02*
X741500D01*
X740000Y616000D02*
Y619000D01*
X746000Y602500D02*
X749000D01*
X747500Y601000D02*
Y604000D01*
X753500Y602500D02*
X756500D01*
X755000Y601000D02*
Y604000D01*
X746000Y610000D02*
X749000D01*
X747500Y608500D02*
Y611500D01*
X761000Y610000D02*
X764000D01*
X762500Y608500D02*
Y611500D01*
X753500Y610000D02*
X756500D01*
X755000Y608500D02*
Y611500D01*
X768500Y602500D02*
X771500D01*
X770000Y601000D02*
Y604000D01*
X776000Y602500D02*
X779000D01*
X777500Y601000D02*
Y604000D01*
X776000Y610000D02*
X779000D01*
X777500Y608500D02*
Y611500D01*
X768500Y610000D02*
X771500D01*
X770000Y608500D02*
Y611500D01*
X746000Y617500D02*
X749000D01*
X747500Y616000D02*
Y619000D01*
X753500Y617500D02*
X756500D01*
X755000Y616000D02*
Y619000D01*
X746000Y645000D02*
X749000D01*
X747500Y643500D02*
Y646500D01*
X768500Y617500D02*
X771500D01*
X770000Y616000D02*
Y619000D01*
X776000Y617500D02*
X779000D01*
X777500Y616000D02*
Y619000D01*
X761000Y617500D02*
X764000D01*
X762500Y616000D02*
Y619000D01*
X359750Y270000D02*
X362750D01*
X361250Y268500D02*
Y271500D01*
X127250Y115250D02*
X130250D01*
X128750Y113750D02*
Y116750D01*
X72301Y115588D02*
X75301D01*
X73801Y114088D02*
Y117088D01*
X188162Y115338D02*
X191162D01*
X189662Y113838D02*
Y116838D01*
X67250Y183500D02*
X70250D01*
X68750Y182000D02*
Y185000D01*
X74125Y276125D02*
X77125D01*
X75625Y274625D02*
Y277625D01*
X541250Y391500D02*
X544250D01*
X542750Y390000D02*
Y393000D01*
X356932Y303688D02*
X359933D01*
X358433Y302188D02*
Y305188D01*
X655255Y410005D02*
X658255D01*
X656755Y408505D02*
Y411505D01*
X503750Y419250D02*
X506750D01*
X505250Y417750D02*
Y420750D01*
X322369Y722489D02*
X325369D01*
X323869Y720989D02*
Y723989D01*
X761000Y602500D02*
X764000D01*
X762500Y601000D02*
Y604000D01*
X561228Y163196D02*
X564228D01*
X562728Y161696D02*
Y164696D01*
X675000Y165750D02*
X678000D01*
X676500Y164250D02*
Y167250D01*
X269189Y390248D02*
X272189D01*
X270689Y388748D02*
Y391748D01*
X365311Y196841D02*
X368311D01*
X366811Y195341D02*
Y198341D01*
X314500Y156000D02*
X317500D01*
X316000Y154500D02*
Y157500D01*
X508500Y241000D02*
X511500D01*
X510000Y239500D02*
Y242500D01*
X645500Y608000D02*
X648500D01*
X647000Y606500D02*
Y609500D01*
X188342Y193574D02*
X191342D01*
X189842Y192074D02*
Y195074D01*
X430500Y157000D02*
X433500D01*
X432000Y155500D02*
Y158500D01*
X362573Y355745D02*
X365573D01*
X364073Y354245D02*
Y357245D01*
X536000Y300000D02*
X539000D01*
X537500Y298500D02*
Y301500D01*
X543500Y300000D02*
X546500D01*
X545000Y298500D02*
Y301500D01*
X551000Y300000D02*
X554000D01*
X552500Y298500D02*
Y301500D01*
X558500Y300000D02*
X561500D01*
X560000Y298500D02*
Y301500D01*
X566000Y300000D02*
X569000D01*
X567500Y298500D02*
Y301500D01*
X573500Y300000D02*
X576500D01*
X575000Y298500D02*
Y301500D01*
X536000Y292500D02*
X539000D01*
X537500Y291000D02*
Y294000D01*
X543500Y292500D02*
X546500D01*
X545000Y291000D02*
Y294000D01*
X551000Y292500D02*
X554000D01*
X552500Y291000D02*
Y294000D01*
X558500Y292500D02*
X561500D01*
X560000Y291000D02*
Y294000D01*
X566000Y292500D02*
X569000D01*
X567500Y291000D02*
Y294000D01*
X573500Y292500D02*
X576500D01*
X575000Y291000D02*
Y294000D01*
X536000Y285000D02*
X539000D01*
X537500Y283500D02*
Y286500D01*
X543500Y285000D02*
X546500D01*
X545000Y283500D02*
Y286500D01*
X551000Y285000D02*
X554000D01*
X552500Y283500D02*
Y286500D01*
X558500Y285000D02*
X561500D01*
X560000Y283500D02*
Y286500D01*
X566000Y285000D02*
X569000D01*
X567500Y283500D02*
Y286500D01*
X573500Y285000D02*
X576500D01*
X575000Y283500D02*
Y286500D01*
X573500Y307500D02*
X576500D01*
X575000Y306000D02*
Y309000D01*
X566000Y307500D02*
X569000D01*
X567500Y306000D02*
Y309000D01*
X558500Y307500D02*
X561500D01*
X560000Y306000D02*
Y309000D01*
X551000Y307500D02*
X554000D01*
X552500Y306000D02*
Y309000D01*
X543500Y307500D02*
X546500D01*
X545000Y306000D02*
Y309000D01*
X536000Y307500D02*
X539000D01*
X537500Y306000D02*
Y309000D01*
X336500Y409000D02*
X339500D01*
X338000Y407500D02*
Y410500D01*
X343500Y409000D02*
X346500D01*
X345000Y407500D02*
Y410500D01*
X350500Y409000D02*
X353500D01*
X352000Y407500D02*
Y410500D01*
X336500Y402000D02*
X339500D01*
X338000Y400500D02*
Y403500D01*
X343500Y402000D02*
X346500D01*
X345000Y400500D02*
Y403500D01*
X350500Y402000D02*
X353500D01*
X352000Y400500D02*
Y403500D01*
X350500Y395000D02*
X353500D01*
X352000Y393500D02*
Y396500D01*
X343500Y395000D02*
X346500D01*
X345000Y393500D02*
Y396500D01*
X336500Y395000D02*
X339500D01*
X338000Y393500D02*
Y396500D01*
X350500Y388000D02*
X353500D01*
X352000Y386500D02*
Y389500D01*
X343500Y388000D02*
X346500D01*
X345000Y386500D02*
Y389500D01*
X336500Y388000D02*
X339500D01*
X338000Y386500D02*
Y389500D01*
X837500Y371000D02*
X840500D01*
X839000Y369500D02*
Y372500D01*
X846500Y371000D02*
X849500D01*
X848000Y369500D02*
Y372500D01*
X846500Y362000D02*
X849500D01*
X848000Y360500D02*
Y363500D01*
X837500Y362000D02*
X840500D01*
X839000Y360500D02*
Y363500D01*
X837500Y353000D02*
X840500D01*
X839000Y351500D02*
Y354500D01*
X846500Y353000D02*
X849500D01*
X848000Y351500D02*
Y354500D01*
X837500Y344000D02*
X840500D01*
X839000Y342500D02*
Y345500D01*
X846500Y344000D02*
X849500D01*
X848000Y342500D02*
Y345500D01*
X837500Y335000D02*
X840500D01*
X839000Y333500D02*
Y336500D01*
X846500Y335000D02*
X849500D01*
X848000Y333500D02*
Y336500D01*
X837000Y458500D02*
X840000D01*
X838500Y457000D02*
Y460000D01*
X829500Y458500D02*
X832500D01*
X831000Y457000D02*
Y460000D01*
X822000Y458500D02*
X825000D01*
X823500Y457000D02*
Y460000D01*
X837000Y466000D02*
X840000D01*
X838500Y464500D02*
Y467500D01*
X829500Y466000D02*
X832500D01*
X831000Y464500D02*
Y467500D01*
X822000Y466000D02*
X825000D01*
X823500Y464500D02*
Y467500D01*
X837000Y451000D02*
X840000D01*
X838500Y449500D02*
Y452500D01*
X829500Y451000D02*
X832500D01*
X831000Y449500D02*
Y452500D01*
X822000Y451000D02*
X825000D01*
X823500Y449500D02*
Y452500D01*
X814500Y466000D02*
X817500D01*
X816000Y464500D02*
Y467500D01*
X814500Y458500D02*
X817500D01*
X816000Y457000D02*
Y460000D01*
X814500Y451000D02*
X817500D01*
X816000Y449500D02*
Y452500D01*
X837000Y443500D02*
X840000D01*
X838500Y442000D02*
Y445000D01*
X829500Y443500D02*
X832500D01*
X831000Y442000D02*
Y445000D01*
X822000Y443500D02*
X825000D01*
X823500Y442000D02*
Y445000D01*
X814500Y443500D02*
X817500D01*
X816000Y442000D02*
Y445000D01*
X325692Y270320D02*
X328692D01*
X327192Y268820D02*
Y271820D01*
X640500Y359000D02*
X643500D01*
X642000Y357500D02*
Y360500D01*
X669500Y388000D02*
X672500D01*
X671000Y386500D02*
Y389500D01*
X691250Y163500D02*
X694250D01*
X692750Y162000D02*
Y165000D01*
X712677Y199410D02*
X715677D01*
X714177Y197910D02*
Y200910D01*
X572500Y472000D02*
X575500D01*
X574000Y470500D02*
Y473500D01*
X530500Y480000D02*
X533500D01*
X532000Y478500D02*
Y481500D01*
X411750Y285750D02*
X414750D01*
X413250Y284250D02*
Y287250D01*
X611430Y576186D02*
X614430D01*
X612930Y574687D02*
Y577687D01*
X616500Y582000D02*
X619500D01*
X618000Y580500D02*
Y583500D01*
X556500Y542000D02*
X559500D01*
X558000Y540500D02*
Y543500D01*
X548148Y534024D02*
X551148D01*
X549648Y532524D02*
Y535524D01*
X713426Y788233D02*
X716426D01*
X714926Y786733D02*
Y789733D01*
X417187Y420151D02*
X420187D01*
X418687Y418652D02*
Y421651D01*
X795586Y668000D02*
X798586D01*
X797086Y666500D02*
Y669500D01*
X795864Y657884D02*
X798865D01*
X797365Y656384D02*
Y659384D01*
X521000Y320000D02*
X524000D01*
X522500Y318500D02*
Y321500D01*
X215879Y528820D02*
X218878D01*
X217379Y527320D02*
Y530320D01*
X302351Y525000D02*
X305351D01*
X303851Y523500D02*
Y526500D01*
X385605Y300632D02*
X388605D01*
X387105Y299132D02*
Y302132D01*
X284250Y493000D02*
X287250D01*
X285750Y491500D02*
Y494500D01*
X409533Y219028D02*
X412533D01*
X411033Y217528D02*
Y220528D01*
X168162Y115338D02*
X171162D01*
X169662Y113838D02*
Y116838D01*
X294750Y222750D02*
X297750D01*
X296250Y221250D02*
Y224250D01*
X375250Y270250D02*
X378250D01*
X376750Y268750D02*
Y271750D01*
X237250Y292992D02*
X240250D01*
X238750Y291492D02*
Y294492D01*
X391984Y301894D02*
X394984D01*
X393484Y300394D02*
Y303393D01*
X461750Y531500D02*
X464750D01*
X463250Y530000D02*
Y533000D01*
X152250Y290500D02*
X155250D01*
X153750Y289000D02*
Y292000D01*
X367935Y270472D02*
X370935D01*
X369435Y268972D02*
Y271972D01*
X52301Y115588D02*
X55301D01*
X53801Y114088D02*
Y117088D01*
X327809Y276888D02*
X330809D01*
X329309Y275388D02*
Y278388D01*
X783500Y217500D02*
X786500D01*
X785000Y216000D02*
Y219000D01*
X585060Y684773D02*
X588060D01*
X586560Y683273D02*
Y686273D01*
X515750Y144000D02*
X518750D01*
X517250Y142500D02*
Y145500D01*
X514250Y483250D02*
X517250D01*
X515750Y481750D02*
Y484750D01*
X754500Y328500D02*
X757500D01*
X756000Y327000D02*
Y330000D01*
X450248Y416099D02*
X453248D01*
X451748Y414599D02*
Y417599D01*
X359464Y732282D02*
X362464D01*
X360964Y730782D02*
Y733782D01*
X663500Y202500D02*
X666500D01*
X665000Y201000D02*
Y204000D01*
X400500Y144000D02*
X403500D01*
X402000Y142500D02*
Y145500D01*
X492500Y489250D02*
X495500D01*
X494000Y487750D02*
Y490750D01*
X424293Y174830D02*
X427293D01*
X425793Y173330D02*
Y176330D01*
X591954Y685343D02*
X594954D01*
X593454Y683843D02*
Y686843D01*
X522450Y163880D02*
X525450D01*
X523950Y162380D02*
Y165380D01*
X92000Y197750D02*
X95000D01*
X93500Y196250D02*
Y199250D01*
X169500Y202250D02*
X172500D01*
X171000Y200750D02*
Y203750D01*
X317250Y270250D02*
X320250D01*
X318750Y268750D02*
Y271750D01*
X567000Y622500D02*
X570000D01*
X568500Y621000D02*
Y624000D01*
X83000Y722500D02*
X86000D01*
X84500Y721000D02*
Y724000D01*
X434766Y411963D02*
X437766D01*
X436266Y410463D02*
Y413463D01*
X731000Y677500D02*
X734000D01*
X732500Y676000D02*
Y679000D01*
X758500Y677500D02*
X761500D01*
X760000Y676000D02*
Y679000D01*
X310250Y267750D02*
X313250D01*
X311750Y266250D02*
Y269250D01*
X321000Y536250D02*
X324000D01*
X322500Y534750D02*
Y537750D01*
X186500Y523750D02*
X189500D01*
X188000Y522250D02*
Y525250D01*
X346910Y685840D02*
X349910D01*
X348410Y684340D02*
Y687340D01*
X453338Y427605D02*
X456338D01*
X454838Y426105D02*
Y429105D01*
X424373Y533765D02*
X427373D01*
X425873Y532265D02*
Y535265D01*
X630750Y144000D02*
X633750D01*
X632250Y142500D02*
Y145500D01*
X310179Y165166D02*
X313179D01*
X311679Y163666D02*
Y166666D01*
X253500Y637624D02*
X256500D01*
X255000Y636124D02*
Y639124D01*
X244500Y637624D02*
X247500D01*
X246000Y636124D02*
Y639124D01*
X235500Y646624D02*
X238500D01*
X237000Y645124D02*
Y648124D01*
X226500Y655624D02*
X229500D01*
X228000Y654124D02*
Y657124D01*
X244500Y646624D02*
X247500D01*
X246000Y645124D02*
Y648124D01*
X235500Y655624D02*
X238500D01*
X237000Y654124D02*
Y657124D01*
X244500Y655624D02*
X247500D01*
X246000Y654124D02*
Y657124D01*
X262500Y637624D02*
X265500D01*
X264000Y636124D02*
Y639124D01*
X253500Y646624D02*
X256500D01*
X255000Y645124D02*
Y648124D01*
X253500Y655624D02*
X256500D01*
X255000Y654124D02*
Y657124D01*
X271500Y637624D02*
X274500D01*
X273000Y636124D02*
Y639124D01*
X262500Y646624D02*
X265500D01*
X264000Y645124D02*
Y648124D01*
X271500Y646624D02*
X274500D01*
X273000Y645124D02*
Y648124D01*
X262500Y655624D02*
X265500D01*
X264000Y654124D02*
Y657124D01*
X288903Y639544D02*
X291903D01*
X290403Y638045D02*
Y641044D01*
X271500Y655624D02*
X274500D01*
X273000Y654124D02*
Y657124D01*
X118500Y630000D02*
X121500D01*
X120000Y628500D02*
Y631500D01*
X402500Y756000D02*
X405500D01*
X404000Y754500D02*
Y757500D01*
X415077Y643936D02*
X418077D01*
X416577Y642436D02*
Y645436D01*
X537500Y641250D02*
X540500D01*
X539000Y639750D02*
Y642750D01*
X582250Y799000D02*
X585250D01*
X583750Y797500D02*
Y800500D01*
X226500Y646624D02*
X229500D01*
X228000Y645124D02*
Y648124D01*
X141000Y607500D02*
X144000D01*
X142500Y606000D02*
Y609000D01*
X156000Y622500D02*
X159000D01*
X157500Y621000D02*
Y624000D01*
X156000Y615000D02*
X159000D01*
X157500Y613500D02*
Y616500D01*
X156000Y607500D02*
X159000D01*
X157500Y606000D02*
Y609000D01*
X148500Y607500D02*
X151500D01*
X150000Y606000D02*
Y609000D01*
X133500Y615000D02*
X136500D01*
X135000Y613500D02*
Y616500D01*
X141000Y615000D02*
X144000D01*
X142500Y613500D02*
Y616500D01*
X148500Y615000D02*
X151500D01*
X150000Y613500D02*
Y616500D01*
X148500Y622500D02*
X151500D01*
X150000Y621000D02*
Y624000D01*
X126000Y622500D02*
X129000D01*
X127500Y621000D02*
Y624000D01*
X133500Y622500D02*
X136500D01*
X135000Y621000D02*
Y624000D01*
X141000Y622500D02*
X144000D01*
X142500Y621000D02*
Y624000D01*
X141000Y630000D02*
X144000D01*
X142500Y628500D02*
Y631500D01*
X133500Y630000D02*
X136500D01*
X135000Y628500D02*
Y631500D01*
X126000Y630000D02*
X129000D01*
X127500Y628500D02*
Y631500D01*
X141000Y637500D02*
X144000D01*
X142500Y636000D02*
Y639000D01*
X133500Y637500D02*
X136500D01*
X135000Y636000D02*
Y639000D01*
X126000Y637500D02*
X129000D01*
X127500Y636000D02*
Y639000D01*
X118500Y637500D02*
X121500D01*
X120000Y636000D02*
Y639000D01*
X446000Y702500D02*
X449000D01*
X447500Y701000D02*
Y704000D01*
X438500Y702500D02*
X441500D01*
X440000Y701000D02*
Y704000D01*
X431000Y702500D02*
X434000D01*
X432500Y701000D02*
Y704000D01*
X408500Y725000D02*
X411500D01*
X410000Y723500D02*
Y726500D01*
X416000Y725000D02*
X419000D01*
X417500Y723500D02*
Y726500D01*
X423500Y725000D02*
X426500D01*
X425000Y723500D02*
Y726500D01*
X446000Y710000D02*
X449000D01*
X447500Y708500D02*
Y711500D01*
X438500Y710000D02*
X441500D01*
X440000Y708500D02*
Y711500D01*
X431000Y710000D02*
X434000D01*
X432500Y708500D02*
Y711500D01*
X446000Y717500D02*
X449000D01*
X447500Y716000D02*
Y719000D01*
X438500Y717500D02*
X441500D01*
X440000Y716000D02*
Y719000D01*
X431000Y717500D02*
X434000D01*
X432500Y716000D02*
Y719000D01*
X446000Y725000D02*
X449000D01*
X447500Y723500D02*
Y726500D01*
X438500Y725000D02*
X441500D01*
X440000Y723500D02*
Y726500D01*
X431000Y725000D02*
X434000D01*
X432500Y723500D02*
Y726500D01*
X226500Y637624D02*
X229500D01*
X228000Y636124D02*
Y639124D01*
X235500Y637624D02*
X238500D01*
X237000Y636124D02*
Y639124D01*
M02*
