G04*
G04 #@! TF.GenerationSoftware,Altium Limited,Altium Designer,26.2.0 (7)*
G04*
G04 Layer_Color=8388736*
%FSLAX44Y44*%
%MOMM*%
G71*
G04*
G04 #@! TF.SameCoordinates,D5DFED66-1DDD-4205-BACF-39BFCEB3ABE1*
G04*
G04*
G04 #@! TF.FilePolarity,Negative*
G04*
G01*
G75*
%ADD46R,1.0500X1.4500*%
%ADD47R,1.1500X0.7700*%
%ADD48R,2.5500X1.6500*%
%ADD49R,1.2500X1.0500*%
%ADD50R,1.0500X1.2500*%
%ADD51R,2.0000X1.7000*%
%ADD52R,1.0000X1.0750*%
G04:AMPARAMS|DCode=53|XSize=0.39mm|YSize=2.49mm|CornerRadius=0.06mm|HoleSize=0mm|Usage=FLASHONLY|Rotation=180.000|XOffset=0mm|YOffset=0mm|HoleType=Round|Shape=RoundedRectangle|*
%AMROUNDEDRECTD53*
21,1,0.3900,2.3700,0,0,180.0*
21,1,0.2700,2.4900,0,0,180.0*
1,1,0.1200,-0.1350,1.1850*
1,1,0.1200,0.1350,1.1850*
1,1,0.1200,0.1350,-1.1850*
1,1,0.1200,-0.1350,-1.1850*
%
%ADD53ROUNDEDRECTD53*%
%ADD54R,0.3900X0.7500*%
G04:AMPARAMS|DCode=55|XSize=1.95mm|YSize=2.65mm|CornerRadius=0.165mm|HoleSize=0mm|Usage=FLASHONLY|Rotation=270.000|XOffset=0mm|YOffset=0mm|HoleType=Round|Shape=RoundedRectangle|*
%AMROUNDEDRECTD55*
21,1,1.9500,2.3200,0,0,270.0*
21,1,1.6200,2.6500,0,0,270.0*
1,1,0.3300,-1.1600,-0.8100*
1,1,0.3300,-1.1600,0.8100*
1,1,0.3300,1.1600,0.8100*
1,1,0.3300,1.1600,-0.8100*
%
%ADD55ROUNDEDRECTD55*%
G04:AMPARAMS|DCode=56|XSize=1.6mm|YSize=0.53mm|CornerRadius=0.1038mm|HoleSize=0mm|Usage=FLASHONLY|Rotation=0.000|XOffset=0mm|YOffset=0mm|HoleType=Round|Shape=RoundedRectangle|*
%AMROUNDEDRECTD56*
21,1,1.6000,0.3225,0,0,0.0*
21,1,1.3925,0.5300,0,0,0.0*
1,1,0.2075,0.6963,-0.1613*
1,1,0.2075,-0.6963,-0.1613*
1,1,0.2075,-0.6963,0.1613*
1,1,0.2075,0.6963,0.1613*
%
%ADD56ROUNDEDRECTD56*%
%ADD57R,1.2500X1.7000*%
%ADD58R,1.7000X1.2500*%
%ADD59R,0.9000X0.6500*%
%ADD60R,0.6500X0.9000*%
%ADD61R,1.6500X2.5500*%
%ADD62R,1.4500X1.0500*%
%ADD63R,0.7000X0.7000*%
%ADD64R,0.6000X0.8000*%
%ADD65R,1.7000X0.9000*%
%ADD66R,0.9000X1.7000*%
%ADD67R,0.5200X0.7600*%
%ADD68R,1.0750X1.0000*%
G04:AMPARAMS|DCode=69|XSize=0.69mm|YSize=0.34mm|CornerRadius=0.0575mm|HoleSize=0mm|Usage=FLASHONLY|Rotation=180.000|XOffset=0mm|YOffset=0mm|HoleType=Round|Shape=RoundedRectangle|*
%AMROUNDEDRECTD69*
21,1,0.6900,0.2250,0,0,180.0*
21,1,0.5750,0.3400,0,0,180.0*
1,1,0.1150,-0.2875,0.1125*
1,1,0.1150,0.2875,0.1125*
1,1,0.1150,0.2875,-0.1125*
1,1,0.1150,-0.2875,-0.1125*
%
%ADD69ROUNDEDRECTD69*%
G04:AMPARAMS|DCode=70|XSize=0.77mm|YSize=0.4mm|CornerRadius=0.065mm|HoleSize=0mm|Usage=FLASHONLY|Rotation=0.000|XOffset=0mm|YOffset=0mm|HoleType=Round|Shape=RoundedRectangle|*
%AMROUNDEDRECTD70*
21,1,0.7700,0.2700,0,0,0.0*
21,1,0.6400,0.4000,0,0,0.0*
1,1,0.1300,0.3200,-0.1350*
1,1,0.1300,-0.3200,-0.1350*
1,1,0.1300,-0.3200,0.1350*
1,1,0.1300,0.3200,0.1350*
%
%ADD70ROUNDEDRECTD70*%
G04:AMPARAMS|DCode=71|XSize=0.77mm|YSize=0.4mm|CornerRadius=0.065mm|HoleSize=0mm|Usage=FLASHONLY|Rotation=270.000|XOffset=0mm|YOffset=0mm|HoleType=Round|Shape=RoundedRectangle|*
%AMROUNDEDRECTD71*
21,1,0.7700,0.2700,0,0,270.0*
21,1,0.6400,0.4000,0,0,270.0*
1,1,0.1300,-0.1350,-0.3200*
1,1,0.1300,-0.1350,0.3200*
1,1,0.1300,0.1350,0.3200*
1,1,0.1300,0.1350,-0.3200*
%
%ADD71ROUNDEDRECTD71*%
%ADD72R,0.7700X1.1500*%
%ADD73C,0.8874*%
%ADD74R,5.1000X2.2500*%
%ADD75R,1.9000X1.2500*%
%ADD76R,3.1000X2.2000*%
%ADD77R,2.2000X3.1000*%
%ADD78C,1.6000*%
%ADD79C,6.1500*%
%ADD80C,1.4980*%
%ADD81C,1.0906*%
%ADD82C,2.4749*%
%ADD83R,1.4980X1.4980*%
%ADD84C,0.6500*%
G36*
X392588Y763607D02*
X392673Y763582D01*
X392751Y763540D01*
X392820Y763484D01*
X392876Y763415D01*
X392918Y763337D01*
X392943Y763252D01*
X392952Y763164D01*
X392952Y760116D01*
X396000D01*
X396088Y760107D01*
X396173Y760082D01*
X396251Y760040D01*
X396320Y759984D01*
X396376Y759915D01*
X396418Y759837D01*
X396443Y759752D01*
X396452Y759664D01*
Y756664D01*
X396443Y756576D01*
X396418Y756491D01*
X396376Y756413D01*
X396320Y756344D01*
X396251Y756288D01*
X396173Y756246D01*
X396088Y756220D01*
X396000Y756212D01*
X390000D01*
X389912Y756220D01*
X389827Y756246D01*
X389749Y756288D01*
X389680Y756344D01*
X389624Y756413D01*
X389582Y756491D01*
X389557Y756576D01*
X389548Y756664D01*
Y763164D01*
X389557Y763252D01*
X389582Y763337D01*
X389624Y763415D01*
X389680Y763484D01*
X389749Y763540D01*
X389827Y763582D01*
X389912Y763607D01*
X390000Y763616D01*
X392500D01*
X392588Y763607D01*
D02*
G37*
G36*
X378088D02*
X378173Y763582D01*
X378251Y763540D01*
X378320Y763484D01*
X378376Y763415D01*
X378418Y763337D01*
X378443Y763252D01*
X378452Y763164D01*
Y756664D01*
X378443Y756576D01*
X378418Y756491D01*
X378376Y756413D01*
X378320Y756344D01*
X378251Y756288D01*
X378173Y756246D01*
X378088Y756220D01*
X378000Y756212D01*
X372000D01*
X371912Y756220D01*
X371827Y756246D01*
X371749Y756288D01*
X371680Y756344D01*
X371624Y756413D01*
X371582Y756491D01*
X371557Y756576D01*
X371548Y756664D01*
Y759664D01*
X371557Y759752D01*
X371582Y759837D01*
X371624Y759915D01*
X371680Y759984D01*
X371749Y760040D01*
X371827Y760082D01*
X371912Y760107D01*
X372000Y760116D01*
X375048D01*
X375048Y763164D01*
X375056Y763252D01*
X375082Y763337D01*
X375124Y763415D01*
X375180Y763484D01*
X375249Y763540D01*
X375327Y763582D01*
X375412Y763607D01*
X375500Y763616D01*
X378000D01*
X378088Y763607D01*
D02*
G37*
G36*
X396088Y746107D02*
X396173Y746081D01*
X396251Y746040D01*
X396320Y745984D01*
X396376Y745915D01*
X396418Y745837D01*
X396443Y745752D01*
X396452Y745664D01*
Y742664D01*
X396443Y742576D01*
X396418Y742491D01*
X396376Y742412D01*
X396320Y742344D01*
X396251Y742288D01*
X396173Y742246D01*
X396088Y742220D01*
X396000Y742212D01*
X392952D01*
X392952Y739164D01*
X392943Y739075D01*
X392918Y738991D01*
X392876Y738913D01*
X392820Y738844D01*
X392751Y738788D01*
X392673Y738746D01*
X392588Y738720D01*
X392500Y738711D01*
X390000D01*
X389912Y738720D01*
X389827Y738746D01*
X389749Y738788D01*
X389680Y738844D01*
X389624Y738913D01*
X389582Y738991D01*
X389557Y739075D01*
X389548Y739164D01*
Y745664D01*
X389557Y745752D01*
X389582Y745837D01*
X389624Y745915D01*
X389680Y745984D01*
X389749Y746040D01*
X389827Y746081D01*
X389912Y746107D01*
X390000Y746116D01*
X396000D01*
X396088Y746107D01*
D02*
G37*
G36*
X378088D02*
X378173Y746081D01*
X378251Y746040D01*
X378320Y745984D01*
X378376Y745915D01*
X378418Y745837D01*
X378443Y745752D01*
X378452Y745664D01*
Y739164D01*
X378443Y739075D01*
X378418Y738991D01*
X378376Y738913D01*
X378320Y738844D01*
X378251Y738788D01*
X378173Y738746D01*
X378088Y738720D01*
X378000Y738711D01*
X375500D01*
X375412Y738720D01*
X375327Y738746D01*
X375249Y738788D01*
X375180Y738844D01*
X375124Y738913D01*
X375082Y738991D01*
X375056Y739075D01*
X375048Y739164D01*
X375048Y742212D01*
X372000D01*
X371912Y742220D01*
X371827Y742246D01*
X371749Y742288D01*
X371680Y742344D01*
X371624Y742412D01*
X371582Y742491D01*
X371557Y742576D01*
X371548Y742664D01*
Y745664D01*
X371557Y745752D01*
X371582Y745837D01*
X371624Y745915D01*
X371680Y745984D01*
X371749Y746040D01*
X371827Y746081D01*
X371912Y746107D01*
X372000Y746116D01*
X378000D01*
X378088Y746107D01*
D02*
G37*
G36*
X591118Y718993D02*
X591232Y718966D01*
X591342Y718920D01*
X591442Y718859D01*
X591532Y718782D01*
X591609Y718692D01*
X591670Y718592D01*
X591716Y718483D01*
X591743Y718368D01*
X591752Y718250D01*
Y714502D01*
X596000D01*
X596118Y714493D01*
X596232Y714465D01*
X596342Y714420D01*
X596442Y714359D01*
X596532Y714282D01*
X596609Y714192D01*
X596670Y714092D01*
X596716Y713982D01*
X596743Y713868D01*
X596752Y713750D01*
Y711250D01*
X596743Y711132D01*
X596716Y711018D01*
X596670Y710909D01*
X596609Y710808D01*
X596532Y710718D01*
X596442Y710641D01*
X596342Y710580D01*
X596232Y710535D01*
X596118Y710507D01*
X596000Y710498D01*
X591752D01*
Y709502D01*
X596000D01*
X596118Y709493D01*
X596232Y709465D01*
X596342Y709420D01*
X596442Y709359D01*
X596532Y709282D01*
X596609Y709192D01*
X596670Y709091D01*
X596716Y708982D01*
X596743Y708868D01*
X596752Y708750D01*
Y706250D01*
X596743Y706132D01*
X596716Y706018D01*
X596670Y705908D01*
X596609Y705808D01*
X596532Y705718D01*
X596442Y705641D01*
X596342Y705580D01*
X596232Y705535D01*
X596118Y705507D01*
X596000Y705498D01*
X591752D01*
Y701750D01*
X591743Y701632D01*
X591716Y701517D01*
X591670Y701408D01*
X591609Y701308D01*
X591532Y701218D01*
X591442Y701141D01*
X591342Y701080D01*
X591232Y701034D01*
X591118Y701007D01*
X591000Y700998D01*
X567000D01*
X566882Y701007D01*
X566768Y701034D01*
X566659Y701080D01*
X566558Y701141D01*
X566468Y701218D01*
X566391Y701308D01*
X566330Y701408D01*
X566284Y701517D01*
X566257Y701632D01*
X566248Y701750D01*
Y705498D01*
X562000D01*
X561882Y705507D01*
X561768Y705535D01*
X561659Y705580D01*
X561558Y705641D01*
X561468Y705718D01*
X561391Y705808D01*
X561330Y705908D01*
X561284Y706018D01*
X561257Y706132D01*
X561248Y706250D01*
Y708750D01*
X561257Y708868D01*
X561284Y708982D01*
X561330Y709091D01*
X561391Y709192D01*
X561468Y709282D01*
X561558Y709359D01*
X561659Y709420D01*
X561768Y709465D01*
X561882Y709493D01*
X562000Y709502D01*
X566248D01*
Y710498D01*
X562000D01*
X561882Y710507D01*
X561768Y710535D01*
X561659Y710580D01*
X561558Y710641D01*
X561468Y710718D01*
X561391Y710808D01*
X561330Y710909D01*
X561284Y711018D01*
X561257Y711132D01*
X561248Y711250D01*
Y713750D01*
X561257Y713868D01*
X561284Y713982D01*
X561330Y714092D01*
X561391Y714192D01*
X561468Y714282D01*
X561558Y714359D01*
X561659Y714420D01*
X561768Y714465D01*
X561882Y714493D01*
X562000Y714502D01*
X566248D01*
Y718250D01*
X566257Y718368D01*
X566284Y718483D01*
X566330Y718592D01*
X566391Y718692D01*
X566468Y718782D01*
X566558Y718859D01*
X566659Y718920D01*
X566768Y718966D01*
X566882Y718993D01*
X567000Y719002D01*
X591000D01*
X591118Y718993D01*
D02*
G37*
G36*
X737118Y714993D02*
X737233Y714966D01*
X737342Y714920D01*
X737442Y714859D01*
X737532Y714782D01*
X737609Y714692D01*
X737670Y714592D01*
X737716Y714482D01*
X737743Y714368D01*
X737752Y714250D01*
Y710502D01*
X742000D01*
X742118Y710493D01*
X742233Y710465D01*
X742342Y710420D01*
X742442Y710359D01*
X742532Y710282D01*
X742609Y710192D01*
X742670Y710092D01*
X742716Y709983D01*
X742743Y709868D01*
X742752Y709750D01*
Y707250D01*
X742743Y707132D01*
X742716Y707018D01*
X742670Y706908D01*
X742609Y706808D01*
X742532Y706718D01*
X742442Y706641D01*
X742342Y706580D01*
X742233Y706535D01*
X742118Y706507D01*
X742000Y706498D01*
X737752D01*
Y705502D01*
X742000D01*
X742118Y705493D01*
X742233Y705465D01*
X742342Y705420D01*
X742442Y705359D01*
X742532Y705282D01*
X742609Y705192D01*
X742670Y705092D01*
X742716Y704983D01*
X742743Y704868D01*
X742752Y704750D01*
Y702250D01*
X742743Y702132D01*
X742716Y702018D01*
X742670Y701908D01*
X742609Y701808D01*
X742532Y701718D01*
X742442Y701641D01*
X742342Y701580D01*
X742233Y701535D01*
X742118Y701507D01*
X742000Y701498D01*
X737752D01*
Y697750D01*
X737743Y697632D01*
X737716Y697517D01*
X737670Y697409D01*
X737609Y697308D01*
X737532Y697218D01*
X737442Y697141D01*
X737342Y697080D01*
X737233Y697035D01*
X737118Y697007D01*
X737000Y696998D01*
X713000D01*
X712882Y697007D01*
X712767Y697035D01*
X712658Y697080D01*
X712558Y697141D01*
X712468Y697218D01*
X712391Y697308D01*
X712330Y697409D01*
X712284Y697517D01*
X712257Y697632D01*
X712248Y697750D01*
Y701498D01*
X708000D01*
X707882Y701507D01*
X707767Y701535D01*
X707658Y701580D01*
X707558Y701641D01*
X707468Y701718D01*
X707391Y701808D01*
X707330Y701908D01*
X707284Y702018D01*
X707257Y702132D01*
X707248Y702250D01*
Y704750D01*
X707257Y704868D01*
X707284Y704983D01*
X707330Y705092D01*
X707391Y705192D01*
X707468Y705282D01*
X707558Y705359D01*
X707658Y705420D01*
X707767Y705465D01*
X707882Y705493D01*
X708000Y705502D01*
X712248D01*
Y706498D01*
X708000D01*
X707882Y706507D01*
X707767Y706535D01*
X707658Y706580D01*
X707558Y706641D01*
X707468Y706718D01*
X707391Y706808D01*
X707330Y706908D01*
X707284Y707018D01*
X707257Y707132D01*
X707248Y707250D01*
Y709750D01*
X707257Y709868D01*
X707284Y709983D01*
X707330Y710092D01*
X707391Y710192D01*
X707468Y710282D01*
X707558Y710359D01*
X707658Y710420D01*
X707767Y710465D01*
X707882Y710493D01*
X708000Y710502D01*
X712248D01*
Y714250D01*
X712257Y714368D01*
X712284Y714482D01*
X712330Y714592D01*
X712391Y714692D01*
X712468Y714782D01*
X712558Y714859D01*
X712658Y714920D01*
X712767Y714966D01*
X712882Y714993D01*
X713000Y715002D01*
X737000D01*
X737118Y714993D01*
D02*
G37*
G36*
X555118Y564993D02*
X555233Y564966D01*
X555341Y564920D01*
X555442Y564859D01*
X555532Y564782D01*
X555609Y564692D01*
X555670Y564592D01*
X555715Y564482D01*
X555743Y564368D01*
X555752Y564250D01*
Y560502D01*
X560000D01*
X560118Y560493D01*
X560233Y560466D01*
X560341Y560420D01*
X560442Y560359D01*
X560532Y560282D01*
X560609Y560192D01*
X560670Y560092D01*
X560715Y559982D01*
X560743Y559868D01*
X560752Y559750D01*
Y557250D01*
X560743Y557132D01*
X560715Y557018D01*
X560670Y556908D01*
X560609Y556808D01*
X560532Y556718D01*
X560442Y556641D01*
X560341Y556580D01*
X560233Y556535D01*
X560118Y556507D01*
X560000Y556498D01*
X555752D01*
Y555502D01*
X560000D01*
X560118Y555493D01*
X560233Y555466D01*
X560341Y555420D01*
X560442Y555359D01*
X560532Y555282D01*
X560609Y555192D01*
X560670Y555092D01*
X560715Y554982D01*
X560743Y554868D01*
X560752Y554750D01*
Y552250D01*
X560743Y552132D01*
X560715Y552018D01*
X560670Y551908D01*
X560609Y551808D01*
X560532Y551718D01*
X560442Y551641D01*
X560341Y551580D01*
X560233Y551535D01*
X560118Y551507D01*
X560000Y551498D01*
X555752D01*
Y547750D01*
X555743Y547632D01*
X555715Y547518D01*
X555670Y547408D01*
X555609Y547308D01*
X555532Y547218D01*
X555442Y547141D01*
X555341Y547080D01*
X555233Y547034D01*
X555118Y547007D01*
X555000Y546998D01*
X531000D01*
X530882Y547007D01*
X530768Y547034D01*
X530658Y547080D01*
X530558Y547141D01*
X530468Y547218D01*
X530391Y547308D01*
X530330Y547408D01*
X530285Y547518D01*
X530257Y547632D01*
X530248Y547750D01*
Y551498D01*
X526000D01*
X525882Y551507D01*
X525768Y551535D01*
X525658Y551580D01*
X525558Y551641D01*
X525468Y551718D01*
X525391Y551808D01*
X525330Y551908D01*
X525285Y552018D01*
X525257Y552132D01*
X525248Y552250D01*
Y554750D01*
X525257Y554868D01*
X525285Y554982D01*
X525330Y555092D01*
X525391Y555192D01*
X525468Y555282D01*
X525558Y555359D01*
X525658Y555420D01*
X525768Y555466D01*
X525882Y555493D01*
X526000Y555502D01*
X530248D01*
Y556498D01*
X526000D01*
X525882Y556507D01*
X525768Y556535D01*
X525658Y556580D01*
X525558Y556641D01*
X525468Y556718D01*
X525391Y556808D01*
X525330Y556908D01*
X525285Y557018D01*
X525257Y557132D01*
X525248Y557250D01*
Y559750D01*
X525257Y559868D01*
X525285Y559982D01*
X525330Y560092D01*
X525391Y560192D01*
X525468Y560282D01*
X525558Y560359D01*
X525658Y560420D01*
X525768Y560466D01*
X525882Y560493D01*
X526000Y560502D01*
X530248D01*
Y564250D01*
X530257Y564368D01*
X530285Y564482D01*
X530330Y564592D01*
X530391Y564692D01*
X530468Y564782D01*
X530558Y564859D01*
X530658Y564920D01*
X530768Y564966D01*
X530882Y564993D01*
X531000Y565002D01*
X555000D01*
X555118Y564993D01*
D02*
G37*
G36*
X429118D02*
X429232Y564966D01*
X429342Y564920D01*
X429442Y564859D01*
X429532Y564782D01*
X429609Y564692D01*
X429670Y564592D01*
X429715Y564482D01*
X429743Y564368D01*
X429752Y564250D01*
Y560502D01*
X434000D01*
X434118Y560493D01*
X434232Y560466D01*
X434342Y560420D01*
X434442Y560359D01*
X434532Y560282D01*
X434609Y560192D01*
X434670Y560092D01*
X434715Y559982D01*
X434743Y559868D01*
X434752Y559750D01*
Y557250D01*
X434743Y557132D01*
X434715Y557018D01*
X434670Y556908D01*
X434609Y556808D01*
X434532Y556718D01*
X434442Y556641D01*
X434342Y556580D01*
X434232Y556535D01*
X434118Y556507D01*
X434000Y556498D01*
X429752D01*
Y555502D01*
X434000D01*
X434118Y555493D01*
X434232Y555466D01*
X434342Y555420D01*
X434442Y555359D01*
X434532Y555282D01*
X434609Y555192D01*
X434670Y555092D01*
X434715Y554982D01*
X434743Y554868D01*
X434752Y554750D01*
Y552250D01*
X434743Y552132D01*
X434715Y552018D01*
X434670Y551908D01*
X434609Y551808D01*
X434532Y551718D01*
X434442Y551641D01*
X434342Y551580D01*
X434232Y551535D01*
X434118Y551507D01*
X434000Y551498D01*
X429752D01*
Y547750D01*
X429743Y547632D01*
X429715Y547518D01*
X429670Y547408D01*
X429609Y547308D01*
X429532Y547218D01*
X429442Y547141D01*
X429342Y547080D01*
X429232Y547034D01*
X429118Y547007D01*
X429000Y546998D01*
X405000D01*
X404882Y547007D01*
X404767Y547034D01*
X404658Y547080D01*
X404558Y547141D01*
X404468Y547218D01*
X404391Y547308D01*
X404330Y547408D01*
X404285Y547518D01*
X404257Y547632D01*
X404248Y547750D01*
Y551498D01*
X400000D01*
X399882Y551507D01*
X399767Y551535D01*
X399658Y551580D01*
X399558Y551641D01*
X399468Y551718D01*
X399391Y551808D01*
X399330Y551908D01*
X399285Y552018D01*
X399257Y552132D01*
X399248Y552250D01*
Y554750D01*
X399257Y554868D01*
X399285Y554982D01*
X399330Y555092D01*
X399391Y555192D01*
X399468Y555282D01*
X399558Y555359D01*
X399658Y555420D01*
X399767Y555466D01*
X399882Y555493D01*
X400000Y555502D01*
X404248D01*
Y556498D01*
X400000D01*
X399882Y556507D01*
X399767Y556535D01*
X399658Y556580D01*
X399558Y556641D01*
X399468Y556718D01*
X399391Y556808D01*
X399330Y556908D01*
X399285Y557018D01*
X399257Y557132D01*
X399248Y557250D01*
Y559750D01*
X399257Y559868D01*
X399285Y559982D01*
X399330Y560092D01*
X399391Y560192D01*
X399468Y560282D01*
X399558Y560359D01*
X399658Y560420D01*
X399767Y560466D01*
X399882Y560493D01*
X400000Y560502D01*
X404248D01*
Y564250D01*
X404257Y564368D01*
X404285Y564482D01*
X404330Y564592D01*
X404391Y564692D01*
X404468Y564782D01*
X404558Y564859D01*
X404658Y564920D01*
X404767Y564966D01*
X404882Y564993D01*
X405000Y565002D01*
X429000D01*
X429118Y564993D01*
D02*
G37*
G36*
X306118Y554993D02*
X306232Y554966D01*
X306342Y554920D01*
X306442Y554859D01*
X306532Y554782D01*
X306609Y554692D01*
X306670Y554592D01*
X306716Y554482D01*
X306743Y554368D01*
X306752Y554250D01*
Y550502D01*
X311000D01*
X311118Y550493D01*
X311232Y550466D01*
X311342Y550420D01*
X311442Y550359D01*
X311532Y550282D01*
X311609Y550192D01*
X311670Y550092D01*
X311716Y549982D01*
X311743Y549868D01*
X311752Y549750D01*
Y547250D01*
X311743Y547132D01*
X311716Y547018D01*
X311670Y546908D01*
X311609Y546808D01*
X311532Y546718D01*
X311442Y546641D01*
X311342Y546580D01*
X311232Y546535D01*
X311118Y546507D01*
X311000Y546498D01*
X306752D01*
Y545502D01*
X311000D01*
X311118Y545493D01*
X311232Y545466D01*
X311342Y545420D01*
X311442Y545359D01*
X311532Y545282D01*
X311609Y545192D01*
X311670Y545092D01*
X311716Y544982D01*
X311743Y544868D01*
X311752Y544750D01*
Y542250D01*
X311743Y542132D01*
X311716Y542018D01*
X311670Y541908D01*
X311609Y541808D01*
X311532Y541718D01*
X311442Y541641D01*
X311342Y541580D01*
X311232Y541535D01*
X311118Y541507D01*
X311000Y541498D01*
X306752D01*
Y537750D01*
X306743Y537632D01*
X306716Y537518D01*
X306670Y537408D01*
X306609Y537308D01*
X306532Y537218D01*
X306442Y537141D01*
X306342Y537080D01*
X306232Y537034D01*
X306118Y537007D01*
X306000Y536998D01*
X282000D01*
X281882Y537007D01*
X281768Y537034D01*
X281658Y537080D01*
X281558Y537141D01*
X281468Y537218D01*
X281391Y537308D01*
X281330Y537408D01*
X281285Y537518D01*
X281257Y537632D01*
X281248Y537750D01*
Y541498D01*
X277000D01*
X276882Y541507D01*
X276768Y541535D01*
X276658Y541580D01*
X276558Y541641D01*
X276468Y541718D01*
X276391Y541808D01*
X276330Y541908D01*
X276285Y542018D01*
X276257Y542132D01*
X276248Y542250D01*
Y544750D01*
X276257Y544868D01*
X276285Y544982D01*
X276330Y545092D01*
X276391Y545192D01*
X276468Y545282D01*
X276558Y545359D01*
X276658Y545420D01*
X276768Y545466D01*
X276882Y545493D01*
X277000Y545502D01*
X281248D01*
Y546498D01*
X277000D01*
X276882Y546507D01*
X276768Y546535D01*
X276658Y546580D01*
X276558Y546641D01*
X276468Y546718D01*
X276391Y546808D01*
X276330Y546908D01*
X276285Y547018D01*
X276257Y547132D01*
X276248Y547250D01*
Y549750D01*
X276257Y549868D01*
X276285Y549982D01*
X276330Y550092D01*
X276391Y550192D01*
X276468Y550282D01*
X276558Y550359D01*
X276658Y550420D01*
X276768Y550466D01*
X276882Y550493D01*
X277000Y550502D01*
X281248D01*
Y554250D01*
X281257Y554368D01*
X281285Y554482D01*
X281330Y554592D01*
X281391Y554692D01*
X281468Y554782D01*
X281558Y554859D01*
X281658Y554920D01*
X281768Y554966D01*
X281882Y554993D01*
X282000Y555002D01*
X306000D01*
X306118Y554993D01*
D02*
G37*
G36*
X183118Y554993D02*
X183232Y554966D01*
X183342Y554920D01*
X183442Y554859D01*
X183532Y554782D01*
X183609Y554692D01*
X183670Y554591D01*
X183715Y554482D01*
X183743Y554368D01*
X183752Y554250D01*
Y550502D01*
X188000D01*
X188118Y550493D01*
X188232Y550466D01*
X188342Y550420D01*
X188442Y550359D01*
X188532Y550282D01*
X188609Y550192D01*
X188670Y550092D01*
X188715Y549982D01*
X188743Y549868D01*
X188752Y549750D01*
Y547250D01*
X188743Y547132D01*
X188715Y547018D01*
X188670Y546908D01*
X188609Y546808D01*
X188532Y546718D01*
X188442Y546641D01*
X188342Y546580D01*
X188232Y546535D01*
X188118Y546507D01*
X188000Y546498D01*
X183752D01*
Y545502D01*
X188000D01*
X188118Y545493D01*
X188232Y545466D01*
X188342Y545420D01*
X188442Y545359D01*
X188532Y545282D01*
X188609Y545192D01*
X188670Y545092D01*
X188715Y544982D01*
X188743Y544868D01*
X188752Y544750D01*
Y542250D01*
X188743Y542132D01*
X188715Y542018D01*
X188670Y541908D01*
X188609Y541808D01*
X188532Y541718D01*
X188442Y541641D01*
X188342Y541580D01*
X188232Y541535D01*
X188118Y541507D01*
X188000Y541498D01*
X183752D01*
Y537750D01*
X183743Y537632D01*
X183715Y537518D01*
X183670Y537408D01*
X183609Y537308D01*
X183532Y537218D01*
X183442Y537141D01*
X183342Y537080D01*
X183232Y537034D01*
X183118Y537007D01*
X183000Y536998D01*
X159000D01*
X158882Y537007D01*
X158767Y537034D01*
X158659Y537080D01*
X158558Y537141D01*
X158468Y537218D01*
X158391Y537308D01*
X158330Y537408D01*
X158285Y537518D01*
X158257Y537632D01*
X158248Y537750D01*
Y541498D01*
X154000D01*
X153882Y541507D01*
X153767Y541535D01*
X153659Y541580D01*
X153558Y541641D01*
X153468Y541718D01*
X153391Y541808D01*
X153330Y541908D01*
X153285Y542018D01*
X153257Y542132D01*
X153248Y542250D01*
Y544750D01*
X153257Y544868D01*
X153285Y544982D01*
X153330Y545092D01*
X153391Y545192D01*
X153468Y545282D01*
X153558Y545359D01*
X153659Y545420D01*
X153767Y545466D01*
X153882Y545493D01*
X154000Y545502D01*
X158248D01*
Y546498D01*
X154000D01*
X153882Y546507D01*
X153767Y546535D01*
X153659Y546580D01*
X153558Y546641D01*
X153468Y546718D01*
X153391Y546808D01*
X153330Y546908D01*
X153285Y547018D01*
X153257Y547132D01*
X153248Y547250D01*
Y549750D01*
X153257Y549868D01*
X153285Y549982D01*
X153330Y550092D01*
X153391Y550192D01*
X153468Y550282D01*
X153558Y550359D01*
X153659Y550420D01*
X153767Y550466D01*
X153882Y550493D01*
X154000Y550502D01*
X158248D01*
Y554250D01*
X158257Y554368D01*
X158285Y554482D01*
X158330Y554591D01*
X158391Y554692D01*
X158468Y554782D01*
X158558Y554859D01*
X158659Y554920D01*
X158767Y554966D01*
X158882Y554993D01*
X159000Y555002D01*
X183000D01*
X183118Y554993D01*
D02*
G37*
G36*
X730948Y386993D02*
X731042Y386964D01*
X731129Y386918D01*
X731205Y386855D01*
X731268Y386779D01*
X731314Y386692D01*
X731343Y386598D01*
X731352Y386500D01*
Y371502D01*
X736300D01*
X736398Y371493D01*
X736492Y371464D01*
X736579Y371418D01*
X736655Y371355D01*
X736718Y371279D01*
X736764Y371192D01*
X736793Y371098D01*
X736802Y371000D01*
Y365300D01*
X736793Y365202D01*
X736764Y365108D01*
X736718Y365021D01*
X736655Y364945D01*
X736579Y364882D01*
X736492Y364836D01*
X736398Y364807D01*
X736300Y364798D01*
X731352D01*
Y363500D01*
X731343Y363402D01*
X731314Y363308D01*
X731268Y363221D01*
X731205Y363145D01*
X731129Y363082D01*
X731042Y363036D01*
X730948Y363007D01*
X730850Y362998D01*
X707150D01*
X707052Y363007D01*
X706958Y363036D01*
X706871Y363082D01*
X706795Y363145D01*
X706732Y363221D01*
X706686Y363308D01*
X706657Y363402D01*
X706648Y363500D01*
Y364798D01*
X701700D01*
X701602Y364807D01*
X701508Y364836D01*
X701421Y364882D01*
X701345Y364945D01*
X701282Y365021D01*
X701236Y365108D01*
X701207Y365202D01*
X701198Y365300D01*
Y371000D01*
X701207Y371098D01*
X701236Y371192D01*
X701282Y371279D01*
X701345Y371355D01*
X701421Y371418D01*
X701508Y371464D01*
X701602Y371493D01*
X701700Y371502D01*
X706648D01*
Y386500D01*
X706657Y386598D01*
X706686Y386692D01*
X706732Y386779D01*
X706795Y386855D01*
X706871Y386918D01*
X706958Y386964D01*
X707052Y386993D01*
X707150Y387002D01*
X711350D01*
X711448Y386993D01*
X711542Y386964D01*
X711629Y386918D01*
X711705Y386855D01*
X711768Y386779D01*
X711814Y386692D01*
X711843Y386598D01*
X711852Y386500D01*
Y382302D01*
X713148D01*
Y386500D01*
X713157Y386598D01*
X713186Y386692D01*
X713232Y386779D01*
X713295Y386855D01*
X713371Y386918D01*
X713458Y386964D01*
X713552Y386993D01*
X713650Y387002D01*
X717850D01*
X717948Y386993D01*
X718042Y386964D01*
X718129Y386918D01*
X718205Y386855D01*
X718268Y386779D01*
X718314Y386692D01*
X718343Y386598D01*
X718352Y386500D01*
Y382302D01*
X719648D01*
Y386500D01*
X719657Y386598D01*
X719686Y386692D01*
X719732Y386779D01*
X719795Y386855D01*
X719871Y386918D01*
X719958Y386964D01*
X720052Y386993D01*
X720150Y387002D01*
X724350D01*
X724448Y386993D01*
X724542Y386964D01*
X724629Y386918D01*
X724705Y386855D01*
X724768Y386779D01*
X724814Y386692D01*
X724843Y386598D01*
X724852Y386500D01*
Y382302D01*
X726148D01*
Y386500D01*
X726157Y386598D01*
X726186Y386692D01*
X726232Y386779D01*
X726295Y386855D01*
X726371Y386918D01*
X726458Y386964D01*
X726552Y386993D01*
X726650Y387002D01*
X730850D01*
X730948Y386993D01*
D02*
G37*
G36*
X748948Y284993D02*
X749042Y284964D01*
X749129Y284918D01*
X749205Y284855D01*
X749268Y284779D01*
X749314Y284692D01*
X749343Y284598D01*
X749352Y284500D01*
Y269502D01*
X754300D01*
X754398Y269493D01*
X754492Y269464D01*
X754579Y269418D01*
X754655Y269355D01*
X754718Y269279D01*
X754764Y269192D01*
X754793Y269098D01*
X754802Y269000D01*
Y263300D01*
X754793Y263202D01*
X754764Y263108D01*
X754718Y263021D01*
X754655Y262945D01*
X754579Y262882D01*
X754492Y262836D01*
X754398Y262807D01*
X754300Y262798D01*
X749352D01*
Y261500D01*
X749343Y261402D01*
X749314Y261308D01*
X749268Y261221D01*
X749205Y261145D01*
X749129Y261082D01*
X749042Y261036D01*
X748948Y261007D01*
X748850Y260998D01*
X725150D01*
X725052Y261007D01*
X724958Y261036D01*
X724871Y261082D01*
X724795Y261145D01*
X724732Y261221D01*
X724686Y261308D01*
X724657Y261402D01*
X724648Y261500D01*
Y262798D01*
X719700D01*
X719602Y262807D01*
X719508Y262836D01*
X719421Y262882D01*
X719345Y262945D01*
X719282Y263021D01*
X719236Y263108D01*
X719207Y263202D01*
X719198Y263300D01*
Y269000D01*
X719207Y269098D01*
X719236Y269192D01*
X719282Y269279D01*
X719345Y269355D01*
X719421Y269418D01*
X719508Y269464D01*
X719602Y269493D01*
X719700Y269502D01*
X724648D01*
Y284500D01*
X724657Y284598D01*
X724686Y284692D01*
X724732Y284779D01*
X724795Y284855D01*
X724871Y284918D01*
X724958Y284964D01*
X725052Y284993D01*
X725150Y285002D01*
X729350D01*
X729448Y284993D01*
X729542Y284964D01*
X729629Y284918D01*
X729705Y284855D01*
X729768Y284779D01*
X729814Y284692D01*
X729843Y284598D01*
X729852Y284500D01*
Y280302D01*
X731148D01*
Y284500D01*
X731157Y284598D01*
X731186Y284692D01*
X731232Y284779D01*
X731295Y284855D01*
X731371Y284918D01*
X731458Y284964D01*
X731552Y284993D01*
X731650Y285002D01*
X735850D01*
X735948Y284993D01*
X736042Y284964D01*
X736129Y284918D01*
X736205Y284855D01*
X736268Y284779D01*
X736314Y284692D01*
X736343Y284598D01*
X736352Y284500D01*
Y280302D01*
X737648D01*
Y284500D01*
X737657Y284598D01*
X737686Y284692D01*
X737732Y284779D01*
X737795Y284855D01*
X737871Y284918D01*
X737958Y284964D01*
X738052Y284993D01*
X738150Y285002D01*
X742350D01*
X742448Y284993D01*
X742542Y284964D01*
X742629Y284918D01*
X742705Y284855D01*
X742768Y284779D01*
X742814Y284692D01*
X742843Y284598D01*
X742852Y284500D01*
Y280302D01*
X744148D01*
Y284500D01*
X744157Y284598D01*
X744186Y284692D01*
X744232Y284779D01*
X744295Y284855D01*
X744371Y284918D01*
X744458Y284964D01*
X744552Y284993D01*
X744650Y285002D01*
X748850D01*
X748948Y284993D01*
D02*
G37*
G36*
X630203Y174694D02*
X630288Y174668D01*
X630366Y174626D01*
X630435Y174570D01*
X630491Y174501D01*
X630533Y174423D01*
X630559Y174338D01*
X630567Y174250D01*
X630567Y171202D01*
X633615D01*
X633703Y171194D01*
X633788Y171168D01*
X633866Y171126D01*
X633935Y171070D01*
X633991Y171001D01*
X634033Y170923D01*
X634058Y170838D01*
X634067Y170750D01*
Y167750D01*
X634058Y167662D01*
X634033Y167577D01*
X633991Y167499D01*
X633935Y167430D01*
X633866Y167374D01*
X633788Y167332D01*
X633703Y167306D01*
X633615Y167298D01*
X627615D01*
X627527Y167306D01*
X627442Y167332D01*
X627364Y167374D01*
X627295Y167430D01*
X627239Y167499D01*
X627197Y167577D01*
X627172Y167662D01*
X627163Y167750D01*
Y174250D01*
X627172Y174338D01*
X627197Y174423D01*
X627239Y174501D01*
X627295Y174570D01*
X627364Y174626D01*
X627442Y174668D01*
X627527Y174694D01*
X627615Y174702D01*
X630115D01*
X630203Y174694D01*
D02*
G37*
G36*
X615703D02*
X615788Y174668D01*
X615866Y174626D01*
X615935Y174570D01*
X615991Y174501D01*
X616033Y174423D01*
X616059Y174338D01*
X616067Y174250D01*
Y167750D01*
X616059Y167662D01*
X616033Y167577D01*
X615991Y167499D01*
X615935Y167430D01*
X615866Y167374D01*
X615788Y167332D01*
X615703Y167306D01*
X615615Y167298D01*
X609615D01*
X609527Y167306D01*
X609442Y167332D01*
X609364Y167374D01*
X609295Y167430D01*
X609239Y167499D01*
X609197Y167577D01*
X609171Y167662D01*
X609163Y167750D01*
Y170750D01*
X609171Y170838D01*
X609197Y170923D01*
X609239Y171001D01*
X609295Y171070D01*
X609364Y171126D01*
X609442Y171168D01*
X609527Y171194D01*
X609615Y171202D01*
X612663D01*
X612663Y174250D01*
X612672Y174338D01*
X612697Y174423D01*
X612739Y174501D01*
X612795Y174570D01*
X612864Y174626D01*
X612942Y174668D01*
X613027Y174694D01*
X613115Y174702D01*
X615615D01*
X615703Y174694D01*
D02*
G37*
G36*
X515203D02*
X515288Y174668D01*
X515366Y174626D01*
X515435Y174570D01*
X515491Y174501D01*
X515533Y174423D01*
X515559Y174338D01*
X515567Y174250D01*
X515567Y171202D01*
X518615D01*
X518703Y171194D01*
X518788Y171168D01*
X518866Y171126D01*
X518935Y171070D01*
X518991Y171001D01*
X519033Y170923D01*
X519058Y170838D01*
X519067Y170750D01*
Y167750D01*
X519058Y167662D01*
X519033Y167577D01*
X518991Y167499D01*
X518935Y167430D01*
X518866Y167374D01*
X518788Y167332D01*
X518703Y167306D01*
X518615Y167298D01*
X512615D01*
X512527Y167306D01*
X512442Y167332D01*
X512364Y167374D01*
X512295Y167430D01*
X512239Y167499D01*
X512197Y167577D01*
X512172Y167662D01*
X512163Y167750D01*
Y174250D01*
X512172Y174338D01*
X512197Y174423D01*
X512239Y174501D01*
X512295Y174570D01*
X512364Y174626D01*
X512442Y174668D01*
X512527Y174694D01*
X512615Y174702D01*
X515115D01*
X515203Y174694D01*
D02*
G37*
G36*
X500703D02*
X500788Y174668D01*
X500866Y174626D01*
X500935Y174570D01*
X500991Y174501D01*
X501033Y174423D01*
X501059Y174338D01*
X501067Y174250D01*
Y167750D01*
X501059Y167662D01*
X501033Y167577D01*
X500991Y167499D01*
X500935Y167430D01*
X500866Y167374D01*
X500788Y167332D01*
X500703Y167306D01*
X500615Y167298D01*
X494615D01*
X494527Y167306D01*
X494442Y167332D01*
X494364Y167374D01*
X494295Y167430D01*
X494239Y167499D01*
X494197Y167577D01*
X494171Y167662D01*
X494163Y167750D01*
Y170750D01*
X494171Y170838D01*
X494197Y170923D01*
X494239Y171001D01*
X494295Y171070D01*
X494364Y171126D01*
X494442Y171168D01*
X494527Y171194D01*
X494615Y171202D01*
X497663D01*
X497663Y174250D01*
X497672Y174338D01*
X497697Y174423D01*
X497739Y174501D01*
X497795Y174570D01*
X497864Y174626D01*
X497942Y174668D01*
X498027Y174694D01*
X498115Y174702D01*
X500615D01*
X500703Y174694D01*
D02*
G37*
G36*
X399953D02*
X400038Y174668D01*
X400116Y174626D01*
X400185Y174570D01*
X400241Y174501D01*
X400283Y174423D01*
X400308Y174338D01*
X400317Y174250D01*
X400317Y171202D01*
X403365D01*
X403453Y171194D01*
X403538Y171168D01*
X403616Y171126D01*
X403685Y171070D01*
X403741Y171001D01*
X403783Y170923D01*
X403809Y170838D01*
X403817Y170750D01*
Y167750D01*
X403809Y167662D01*
X403783Y167577D01*
X403741Y167499D01*
X403685Y167430D01*
X403616Y167374D01*
X403538Y167332D01*
X403453Y167306D01*
X403365Y167298D01*
X397365D01*
X397277Y167306D01*
X397192Y167332D01*
X397114Y167374D01*
X397045Y167430D01*
X396989Y167499D01*
X396947Y167577D01*
X396922Y167662D01*
X396913Y167750D01*
Y174250D01*
X396922Y174338D01*
X396947Y174423D01*
X396989Y174501D01*
X397045Y174570D01*
X397114Y174626D01*
X397192Y174668D01*
X397277Y174694D01*
X397365Y174702D01*
X399865D01*
X399953Y174694D01*
D02*
G37*
G36*
X385453D02*
X385538Y174668D01*
X385616Y174626D01*
X385685Y174570D01*
X385741Y174501D01*
X385783Y174423D01*
X385808Y174338D01*
X385817Y174250D01*
Y167750D01*
X385808Y167662D01*
X385783Y167577D01*
X385741Y167499D01*
X385685Y167430D01*
X385616Y167374D01*
X385538Y167332D01*
X385453Y167306D01*
X385365Y167298D01*
X379365D01*
X379277Y167306D01*
X379192Y167332D01*
X379114Y167374D01*
X379045Y167430D01*
X378989Y167499D01*
X378947Y167577D01*
X378922Y167662D01*
X378913Y167750D01*
Y170750D01*
X378922Y170838D01*
X378947Y170923D01*
X378989Y171001D01*
X379045Y171070D01*
X379114Y171126D01*
X379192Y171168D01*
X379277Y171194D01*
X379365Y171202D01*
X382413D01*
X382413Y174250D01*
X382421Y174338D01*
X382447Y174423D01*
X382489Y174501D01*
X382545Y174570D01*
X382614Y174626D01*
X382692Y174668D01*
X382777Y174694D01*
X382865Y174702D01*
X385365D01*
X385453Y174694D01*
D02*
G37*
G36*
X284953D02*
X285038Y174668D01*
X285116Y174626D01*
X285185Y174570D01*
X285241Y174501D01*
X285283Y174423D01*
X285308Y174338D01*
X285317Y174250D01*
X285317Y171202D01*
X288365D01*
X288453Y171194D01*
X288538Y171168D01*
X288616Y171126D01*
X288685Y171070D01*
X288741Y171001D01*
X288783Y170923D01*
X288808Y170838D01*
X288817Y170750D01*
Y167750D01*
X288808Y167662D01*
X288783Y167577D01*
X288741Y167499D01*
X288685Y167430D01*
X288616Y167374D01*
X288538Y167332D01*
X288453Y167306D01*
X288365Y167298D01*
X282365D01*
X282277Y167306D01*
X282192Y167332D01*
X282114Y167374D01*
X282045Y167430D01*
X281989Y167499D01*
X281947Y167577D01*
X281922Y167662D01*
X281913Y167750D01*
Y174250D01*
X281922Y174338D01*
X281947Y174423D01*
X281989Y174501D01*
X282045Y174570D01*
X282114Y174626D01*
X282192Y174668D01*
X282277Y174694D01*
X282365Y174702D01*
X284865D01*
X284953Y174694D01*
D02*
G37*
G36*
X270453D02*
X270538Y174668D01*
X270616Y174626D01*
X270685Y174570D01*
X270741Y174501D01*
X270783Y174423D01*
X270809Y174338D01*
X270817Y174250D01*
Y167750D01*
X270809Y167662D01*
X270783Y167577D01*
X270741Y167499D01*
X270685Y167430D01*
X270616Y167374D01*
X270538Y167332D01*
X270453Y167306D01*
X270365Y167298D01*
X264365D01*
X264277Y167306D01*
X264192Y167332D01*
X264114Y167374D01*
X264045Y167430D01*
X263989Y167499D01*
X263947Y167577D01*
X263922Y167662D01*
X263913Y167750D01*
Y170750D01*
X263922Y170838D01*
X263947Y170923D01*
X263989Y171001D01*
X264045Y171070D01*
X264114Y171126D01*
X264192Y171168D01*
X264277Y171194D01*
X264365Y171202D01*
X267413D01*
X267413Y174250D01*
X267421Y174338D01*
X267447Y174423D01*
X267489Y174501D01*
X267545Y174570D01*
X267614Y174626D01*
X267692Y174668D01*
X267777Y174694D01*
X267865Y174702D01*
X270365D01*
X270453Y174694D01*
D02*
G37*
G36*
X633703Y157193D02*
X633788Y157168D01*
X633866Y157126D01*
X633935Y157070D01*
X633991Y157001D01*
X634033Y156923D01*
X634058Y156838D01*
X634067Y156750D01*
Y153750D01*
X634058Y153662D01*
X634033Y153577D01*
X633991Y153499D01*
X633935Y153430D01*
X633866Y153374D01*
X633788Y153332D01*
X633703Y153306D01*
X633615Y153298D01*
X630567D01*
X630567Y150250D01*
X630559Y150162D01*
X630533Y150077D01*
X630491Y149999D01*
X630435Y149930D01*
X630366Y149874D01*
X630288Y149832D01*
X630203Y149806D01*
X630115Y149798D01*
X627615D01*
X627527Y149806D01*
X627442Y149832D01*
X627364Y149874D01*
X627295Y149930D01*
X627239Y149999D01*
X627197Y150077D01*
X627172Y150162D01*
X627163Y150250D01*
Y156750D01*
X627172Y156838D01*
X627197Y156923D01*
X627239Y157001D01*
X627295Y157070D01*
X627364Y157126D01*
X627442Y157168D01*
X627527Y157193D01*
X627615Y157202D01*
X633615D01*
X633703Y157193D01*
D02*
G37*
G36*
X615703D02*
X615788Y157168D01*
X615866Y157126D01*
X615935Y157070D01*
X615991Y157001D01*
X616033Y156923D01*
X616059Y156838D01*
X616067Y156750D01*
Y150250D01*
X616059Y150162D01*
X616033Y150077D01*
X615991Y149999D01*
X615935Y149930D01*
X615866Y149874D01*
X615788Y149832D01*
X615703Y149806D01*
X615615Y149798D01*
X613115D01*
X613027Y149806D01*
X612942Y149832D01*
X612864Y149874D01*
X612795Y149930D01*
X612739Y149999D01*
X612697Y150077D01*
X612672Y150162D01*
X612663Y150250D01*
X612663Y153298D01*
X609615D01*
X609527Y153306D01*
X609442Y153332D01*
X609364Y153374D01*
X609295Y153430D01*
X609239Y153499D01*
X609197Y153577D01*
X609171Y153662D01*
X609163Y153750D01*
Y156750D01*
X609171Y156838D01*
X609197Y156923D01*
X609239Y157001D01*
X609295Y157070D01*
X609364Y157126D01*
X609442Y157168D01*
X609527Y157193D01*
X609615Y157202D01*
X615615D01*
X615703Y157193D01*
D02*
G37*
G36*
X518703D02*
X518788Y157168D01*
X518866Y157126D01*
X518935Y157070D01*
X518991Y157001D01*
X519033Y156923D01*
X519058Y156838D01*
X519067Y156750D01*
Y153750D01*
X519058Y153662D01*
X519033Y153577D01*
X518991Y153499D01*
X518935Y153430D01*
X518866Y153374D01*
X518788Y153332D01*
X518703Y153306D01*
X518615Y153298D01*
X515567D01*
X515567Y150250D01*
X515559Y150162D01*
X515533Y150077D01*
X515491Y149999D01*
X515435Y149930D01*
X515366Y149874D01*
X515288Y149832D01*
X515203Y149806D01*
X515115Y149798D01*
X512615D01*
X512527Y149806D01*
X512442Y149832D01*
X512364Y149874D01*
X512295Y149930D01*
X512239Y149999D01*
X512197Y150077D01*
X512172Y150162D01*
X512163Y150250D01*
Y156750D01*
X512172Y156838D01*
X512197Y156923D01*
X512239Y157001D01*
X512295Y157070D01*
X512364Y157126D01*
X512442Y157168D01*
X512527Y157193D01*
X512615Y157202D01*
X518615D01*
X518703Y157193D01*
D02*
G37*
G36*
X500703D02*
X500788Y157168D01*
X500866Y157126D01*
X500935Y157070D01*
X500991Y157001D01*
X501033Y156923D01*
X501059Y156838D01*
X501067Y156750D01*
Y150250D01*
X501059Y150162D01*
X501033Y150077D01*
X500991Y149999D01*
X500935Y149930D01*
X500866Y149874D01*
X500788Y149832D01*
X500703Y149806D01*
X500615Y149798D01*
X498115D01*
X498027Y149806D01*
X497942Y149832D01*
X497864Y149874D01*
X497795Y149930D01*
X497739Y149999D01*
X497697Y150077D01*
X497672Y150162D01*
X497663Y150250D01*
X497663Y153298D01*
X494615D01*
X494527Y153306D01*
X494442Y153332D01*
X494364Y153374D01*
X494295Y153430D01*
X494239Y153499D01*
X494197Y153577D01*
X494171Y153662D01*
X494163Y153750D01*
Y156750D01*
X494171Y156838D01*
X494197Y156923D01*
X494239Y157001D01*
X494295Y157070D01*
X494364Y157126D01*
X494442Y157168D01*
X494527Y157193D01*
X494615Y157202D01*
X500615D01*
X500703Y157193D01*
D02*
G37*
G36*
X403453D02*
X403538Y157168D01*
X403616Y157126D01*
X403685Y157070D01*
X403741Y157001D01*
X403783Y156923D01*
X403809Y156838D01*
X403817Y156750D01*
Y153750D01*
X403809Y153662D01*
X403783Y153577D01*
X403741Y153499D01*
X403685Y153430D01*
X403616Y153374D01*
X403538Y153332D01*
X403453Y153306D01*
X403365Y153298D01*
X400317D01*
X400317Y150250D01*
X400308Y150162D01*
X400283Y150077D01*
X400241Y149999D01*
X400185Y149930D01*
X400116Y149874D01*
X400038Y149832D01*
X399953Y149806D01*
X399865Y149798D01*
X397365D01*
X397277Y149806D01*
X397192Y149832D01*
X397114Y149874D01*
X397045Y149930D01*
X396989Y149999D01*
X396947Y150077D01*
X396922Y150162D01*
X396913Y150250D01*
Y156750D01*
X396922Y156838D01*
X396947Y156923D01*
X396989Y157001D01*
X397045Y157070D01*
X397114Y157126D01*
X397192Y157168D01*
X397277Y157193D01*
X397365Y157202D01*
X403365D01*
X403453Y157193D01*
D02*
G37*
G36*
X385453D02*
X385538Y157168D01*
X385616Y157126D01*
X385685Y157070D01*
X385741Y157001D01*
X385783Y156923D01*
X385808Y156838D01*
X385817Y156750D01*
Y150250D01*
X385808Y150162D01*
X385783Y150077D01*
X385741Y149999D01*
X385685Y149930D01*
X385616Y149874D01*
X385538Y149832D01*
X385453Y149806D01*
X385365Y149798D01*
X382865D01*
X382777Y149806D01*
X382692Y149832D01*
X382614Y149874D01*
X382545Y149930D01*
X382489Y149999D01*
X382447Y150077D01*
X382421Y150162D01*
X382413Y150250D01*
X382413Y153298D01*
X379365D01*
X379277Y153306D01*
X379192Y153332D01*
X379114Y153374D01*
X379045Y153430D01*
X378989Y153499D01*
X378947Y153577D01*
X378922Y153662D01*
X378913Y153750D01*
Y156750D01*
X378922Y156838D01*
X378947Y156923D01*
X378989Y157001D01*
X379045Y157070D01*
X379114Y157126D01*
X379192Y157168D01*
X379277Y157193D01*
X379365Y157202D01*
X385365D01*
X385453Y157193D01*
D02*
G37*
G36*
X288453D02*
X288538Y157168D01*
X288616Y157126D01*
X288685Y157070D01*
X288741Y157001D01*
X288783Y156923D01*
X288808Y156838D01*
X288817Y156750D01*
Y153750D01*
X288808Y153662D01*
X288783Y153577D01*
X288741Y153499D01*
X288685Y153430D01*
X288616Y153374D01*
X288538Y153332D01*
X288453Y153306D01*
X288365Y153298D01*
X285317D01*
X285317Y150250D01*
X285308Y150162D01*
X285283Y150077D01*
X285241Y149999D01*
X285185Y149930D01*
X285116Y149874D01*
X285038Y149832D01*
X284953Y149806D01*
X284865Y149798D01*
X282365D01*
X282277Y149806D01*
X282192Y149832D01*
X282114Y149874D01*
X282045Y149930D01*
X281989Y149999D01*
X281947Y150077D01*
X281922Y150162D01*
X281913Y150250D01*
Y156750D01*
X281922Y156838D01*
X281947Y156923D01*
X281989Y157001D01*
X282045Y157070D01*
X282114Y157126D01*
X282192Y157168D01*
X282277Y157193D01*
X282365Y157202D01*
X288365D01*
X288453Y157193D01*
D02*
G37*
G36*
X270453D02*
X270538Y157168D01*
X270616Y157126D01*
X270685Y157070D01*
X270741Y157001D01*
X270783Y156923D01*
X270809Y156838D01*
X270817Y156750D01*
Y150250D01*
X270809Y150162D01*
X270783Y150077D01*
X270741Y149999D01*
X270685Y149930D01*
X270616Y149874D01*
X270538Y149832D01*
X270453Y149806D01*
X270365Y149798D01*
X267865D01*
X267777Y149806D01*
X267692Y149832D01*
X267614Y149874D01*
X267545Y149930D01*
X267489Y149999D01*
X267447Y150077D01*
X267421Y150162D01*
X267413Y150250D01*
X267413Y153298D01*
X264365D01*
X264277Y153306D01*
X264192Y153332D01*
X264114Y153374D01*
X264045Y153430D01*
X263989Y153499D01*
X263947Y153577D01*
X263922Y153662D01*
X263913Y153750D01*
Y156750D01*
X263922Y156838D01*
X263947Y156923D01*
X263989Y157001D01*
X264045Y157070D01*
X264114Y157126D01*
X264192Y157168D01*
X264277Y157193D01*
X264365Y157202D01*
X270365D01*
X270453Y157193D01*
D02*
G37*
D46*
X64250Y852282D02*
D03*
X43250D02*
D03*
Y832282D02*
D03*
X64250D02*
D03*
X283734Y750688D02*
D03*
X167522Y623549D02*
D03*
X418000Y145000D02*
D03*
X439000D02*
D03*
X504750Y508000D02*
D03*
X324000Y145000D02*
D03*
X553500Y146000D02*
D03*
X668500D02*
D03*
X232000Y138000D02*
D03*
X347500D02*
D03*
X463000D02*
D03*
X577500D02*
D03*
X324000Y185000D02*
D03*
X439000D02*
D03*
X553500Y186000D02*
D03*
X668500D02*
D03*
X760250Y762000D02*
D03*
X613750D02*
D03*
X743500Y782500D02*
D03*
X598000D02*
D03*
X327000Y740164D02*
D03*
X437000Y762164D02*
D03*
X338500Y713164D02*
D03*
X209500Y602000D02*
D03*
X332250D02*
D03*
X188522Y623549D02*
D03*
X311000Y622000D02*
D03*
X455000Y610000D02*
D03*
X580750Y612000D02*
D03*
X438000Y630000D02*
D03*
X560500Y632000D02*
D03*
X50250Y722000D02*
D03*
X230250Y535000D02*
D03*
X353750Y536000D02*
D03*
X474328Y544662D02*
D03*
X601500Y546000D02*
D03*
X783500Y696000D02*
D03*
X642750Y694000D02*
D03*
X324000Y165000D02*
D03*
X439000D02*
D03*
X553500Y166000D02*
D03*
X668500D02*
D03*
X504750Y490750D02*
D03*
X621750Y694000D02*
D03*
X762500Y696000D02*
D03*
X580500Y546000D02*
D03*
X453329Y544662D02*
D03*
X332750Y536000D02*
D03*
X209250Y535000D02*
D03*
X71250Y722000D02*
D03*
X539500Y632000D02*
D03*
X417000Y630000D02*
D03*
X559750Y612000D02*
D03*
X434000Y610000D02*
D03*
X483750Y490750D02*
D03*
X290000Y622000D02*
D03*
X311250Y602000D02*
D03*
X188500D02*
D03*
X359500Y713164D02*
D03*
X416000Y762164D02*
D03*
X348000Y740164D02*
D03*
X328500Y760164D02*
D03*
X349500D02*
D03*
X304734Y750688D02*
D03*
X577000Y782500D02*
D03*
X722500D02*
D03*
X592750Y762000D02*
D03*
X739250D02*
D03*
X647500Y186000D02*
D03*
X532500D02*
D03*
X418000Y185000D02*
D03*
X303000D02*
D03*
X522500Y206250D02*
D03*
X543500D02*
D03*
X408000Y205750D02*
D03*
X429000D02*
D03*
X293000Y205250D02*
D03*
X314000D02*
D03*
X598500Y138000D02*
D03*
X484000D02*
D03*
X368500D02*
D03*
X253000D02*
D03*
X647500Y166000D02*
D03*
X532500D02*
D03*
X418000Y165000D02*
D03*
X303000D02*
D03*
X647500Y146000D02*
D03*
X532500D02*
D03*
X303000Y145000D02*
D03*
X483750Y508000D02*
D03*
D47*
X280250Y732500D02*
D03*
X305250Y722500D02*
D03*
X280250Y712500D02*
D03*
X281664Y686500D02*
D03*
X760000Y319250D02*
D03*
X770000Y218000D02*
D03*
X306664Y696500D02*
D03*
X785000Y328750D02*
D03*
X795000Y227500D02*
D03*
X770000Y237000D02*
D03*
X795000D02*
D03*
Y218000D02*
D03*
X760000Y338250D02*
D03*
X785000D02*
D03*
Y319250D02*
D03*
X306664Y676500D02*
D03*
D48*
X260294Y777992D02*
D03*
X228827Y778083D02*
D03*
X260294Y749992D02*
D03*
X228827Y750083D02*
D03*
X545048Y427787D02*
D03*
Y455787D02*
D03*
X280000Y436000D02*
D03*
Y464000D02*
D03*
X310000Y425000D02*
D03*
Y453000D02*
D03*
X761000Y495250D02*
D03*
X792000D02*
D03*
X261000Y365500D02*
D03*
X292000D02*
D03*
X546000D02*
D03*
X515000D02*
D03*
X415000Y683500D02*
D03*
X761000Y467250D02*
D03*
X792000D02*
D03*
X261000Y337500D02*
D03*
X292000D02*
D03*
X546000D02*
D03*
X515000D02*
D03*
X415000Y711500D02*
D03*
D49*
X204279Y776484D02*
D03*
X738000Y573000D02*
D03*
X204279Y758484D02*
D03*
X235000Y446000D02*
D03*
X493000Y445250D02*
D03*
X738000Y591000D02*
D03*
X682500Y407750D02*
D03*
X440000Y278370D02*
D03*
X493000Y463250D02*
D03*
X440000Y296370D02*
D03*
X180250Y296745D02*
D03*
Y278745D02*
D03*
X235000Y464000D02*
D03*
X682500Y425750D02*
D03*
D50*
X48250Y768500D02*
D03*
X759750Y302750D02*
D03*
X770000Y202000D02*
D03*
X695000Y675000D02*
D03*
X551000Y677500D02*
D03*
X137000Y515000D02*
D03*
X261000Y512000D02*
D03*
X387000Y520000D02*
D03*
X513000Y523000D02*
D03*
X662500Y366250D02*
D03*
X777750Y302750D02*
D03*
X788000Y202000D02*
D03*
X137000Y235000D02*
D03*
X541000Y740000D02*
D03*
X690000Y735000D02*
D03*
X137000Y574000D02*
D03*
X259000D02*
D03*
X382000Y584000D02*
D03*
X509000Y585000D02*
D03*
X713000Y173000D02*
D03*
X713000Y675000D02*
D03*
X569000Y677500D02*
D03*
X155000Y235000D02*
D03*
X695000Y173000D02*
D03*
X680500Y366250D02*
D03*
X531000Y523000D02*
D03*
X405000Y520000D02*
D03*
X527000Y585000D02*
D03*
X400000Y584000D02*
D03*
X277000Y574000D02*
D03*
X155000D02*
D03*
X708000Y735000D02*
D03*
X559000Y740000D02*
D03*
X408000Y335000D02*
D03*
X426000D02*
D03*
X279000Y512000D02*
D03*
X155000Y515000D02*
D03*
X152500Y335000D02*
D03*
X170500D02*
D03*
X66250Y768500D02*
D03*
X122250Y804000D02*
D03*
X104250D02*
D03*
X657000Y465000D02*
D03*
X675000D02*
D03*
D51*
X183206Y784162D02*
D03*
X142206D02*
D03*
D52*
X50505Y785500D02*
D03*
X332903Y778183D02*
D03*
X50755Y751500D02*
D03*
X68755Y229500D02*
D03*
X197245Y202500D02*
D03*
X68755Y197500D02*
D03*
X197245Y186500D02*
D03*
Y218500D02*
D03*
X68755Y213500D02*
D03*
X729005Y233250D02*
D03*
X84245Y213500D02*
D03*
X181755Y218500D02*
D03*
Y186500D02*
D03*
X84245Y197500D02*
D03*
X181755Y202500D02*
D03*
X84245Y229500D02*
D03*
X744495Y233250D02*
D03*
X708005Y339000D02*
D03*
X723495D02*
D03*
X348393Y778183D02*
D03*
X66245Y751500D02*
D03*
X65995Y785500D02*
D03*
D53*
X381500Y751164D02*
D03*
X386500D02*
D03*
X619115Y162250D02*
D03*
X624115D02*
D03*
X504115D02*
D03*
X509115D02*
D03*
X388865D02*
D03*
X393865D02*
D03*
X273865D02*
D03*
X278865D02*
D03*
D54*
X166000Y560000D02*
D03*
X720000Y692000D02*
D03*
X715000D02*
D03*
X574000Y696000D02*
D03*
X569000D02*
D03*
X538000Y542000D02*
D03*
X533000D02*
D03*
X407000D02*
D03*
X412000D02*
D03*
X543000D02*
D03*
X553000D02*
D03*
X548000D02*
D03*
X553000Y570000D02*
D03*
X548000D02*
D03*
X533000D02*
D03*
X538000D02*
D03*
X543000D02*
D03*
X427000Y542000D02*
D03*
X422000D02*
D03*
X427000Y570000D02*
D03*
X422000D02*
D03*
X407000D02*
D03*
X412000D02*
D03*
X417000D02*
D03*
Y542000D02*
D03*
X284000Y532000D02*
D03*
X289000D02*
D03*
X304000D02*
D03*
X299000D02*
D03*
X304000Y560000D02*
D03*
X299000D02*
D03*
X284000D02*
D03*
X289000D02*
D03*
X294000D02*
D03*
Y532000D02*
D03*
X161000Y532000D02*
D03*
X166000D02*
D03*
X181000D02*
D03*
X176000D02*
D03*
X181000Y560000D02*
D03*
X176000D02*
D03*
X161000D02*
D03*
X171000D02*
D03*
Y532000D02*
D03*
X589000Y696000D02*
D03*
X584000D02*
D03*
X589000Y724000D02*
D03*
X584000D02*
D03*
X569000D02*
D03*
X574000D02*
D03*
X579000D02*
D03*
Y696000D02*
D03*
X735000Y692000D02*
D03*
X730000D02*
D03*
X735000Y720000D02*
D03*
X730000D02*
D03*
X715000D02*
D03*
X720000D02*
D03*
X725000D02*
D03*
Y692000D02*
D03*
D55*
X808000Y535750D02*
D03*
Y585750D02*
D03*
X580000Y405000D02*
D03*
Y455000D02*
D03*
D56*
X113000Y197750D02*
D03*
X156000Y217250D02*
D03*
Y197750D02*
D03*
Y204250D02*
D03*
Y210750D02*
D03*
X113000Y204250D02*
D03*
Y210750D02*
D03*
Y217250D02*
D03*
D57*
X262250Y101500D02*
D03*
X376750Y102000D02*
D03*
X491750D02*
D03*
X606500Y102250D02*
D03*
X230500Y184000D02*
D03*
X345000D02*
D03*
X464570Y190212D02*
D03*
X575000Y184000D02*
D03*
X656000Y445000D02*
D03*
X762500Y741000D02*
D03*
X617657Y743122D02*
D03*
X783250Y718000D02*
D03*
X641500Y720000D02*
D03*
X439500Y741000D02*
D03*
Y784164D02*
D03*
X151000Y315000D02*
D03*
X211750Y581000D02*
D03*
X334500D02*
D03*
X230000Y558000D02*
D03*
X353500D02*
D03*
X409000Y314000D02*
D03*
X457000Y589000D02*
D03*
X583000Y591000D02*
D03*
X476500Y568000D02*
D03*
X601250D02*
D03*
X130500Y593000D02*
D03*
X253500D02*
D03*
X376500Y603000D02*
D03*
X503000Y604000D02*
D03*
X536000Y760000D02*
D03*
X685000Y755000D02*
D03*
X708000D02*
D03*
X559000Y760000D02*
D03*
X526000Y604000D02*
D03*
X399500Y603000D02*
D03*
X276500Y593000D02*
D03*
X153500D02*
D03*
X578250Y568000D02*
D03*
X453500D02*
D03*
X560000Y591000D02*
D03*
X434000Y589000D02*
D03*
X432000Y314000D02*
D03*
X330500Y558000D02*
D03*
X207000D02*
D03*
X311500Y581000D02*
D03*
X188750D02*
D03*
X174000Y315000D02*
D03*
X416500Y784164D02*
D03*
Y741000D02*
D03*
X618500Y720000D02*
D03*
X760250Y718000D02*
D03*
X594656Y743122D02*
D03*
X739500Y741000D02*
D03*
X679000Y445000D02*
D03*
X598000Y184000D02*
D03*
X487570Y190212D02*
D03*
X368000Y184000D02*
D03*
X253500D02*
D03*
X629500Y102250D02*
D03*
X514750Y102000D02*
D03*
X399750D02*
D03*
X285250Y101500D02*
D03*
D58*
X232000Y212500D02*
D03*
X347000D02*
D03*
X463000D02*
D03*
X577000D02*
D03*
X757000Y567000D02*
D03*
X778000D02*
D03*
X84500Y801000D02*
D03*
X254569Y439714D02*
D03*
X515000Y438500D02*
D03*
X254000Y212500D02*
D03*
X368000D02*
D03*
X484000D02*
D03*
X598000D02*
D03*
X757000Y590000D02*
D03*
X778000D02*
D03*
X515000Y461500D02*
D03*
X598000Y235500D02*
D03*
X484000D02*
D03*
X368000D02*
D03*
X254000D02*
D03*
X254569Y462714D02*
D03*
X84500Y778000D02*
D03*
X577000Y235500D02*
D03*
X463000D02*
D03*
X347000D02*
D03*
X232000D02*
D03*
D59*
X366000Y293500D02*
D03*
X738500Y473000D02*
D03*
X239000Y343000D02*
D03*
X493000D02*
D03*
X372427Y366433D02*
D03*
X366000Y304500D02*
D03*
X372427Y355433D02*
D03*
X738500Y462000D02*
D03*
X239000Y332000D02*
D03*
X493000D02*
D03*
D60*
X379750Y281250D02*
D03*
X121000Y726000D02*
D03*
X368750Y281250D02*
D03*
X110000Y726000D02*
D03*
D61*
X131000Y671000D02*
D03*
Y703000D02*
D03*
X103000Y671000D02*
D03*
Y703000D02*
D03*
D62*
X108662Y123750D02*
D03*
X747500Y412000D02*
D03*
X765000Y637000D02*
D03*
X627250Y655250D02*
D03*
X232000Y284500D02*
D03*
X202000Y493500D02*
D03*
X325000D02*
D03*
X503000Y283500D02*
D03*
X448000Y503500D02*
D03*
X734000Y170000D02*
D03*
X742250Y317250D02*
D03*
X812500Y239250D02*
D03*
X345164Y674000D02*
D03*
X252000Y284500D02*
D03*
X523000Y283500D02*
D03*
X361500Y460000D02*
D03*
X574000Y503500D02*
D03*
X642500Y371000D02*
D03*
X73801Y124000D02*
D03*
X189662Y123750D02*
D03*
X128662D02*
D03*
X745000Y637000D02*
D03*
X607000Y655250D02*
D03*
X767500Y412000D02*
D03*
X642500Y350000D02*
D03*
X734000Y191000D02*
D03*
X554000Y503500D02*
D03*
X428000D02*
D03*
X574000Y524500D02*
D03*
X554000D02*
D03*
X361500Y439000D02*
D03*
X341500D02*
D03*
X523000Y304500D02*
D03*
X252000Y305500D02*
D03*
X345164Y695000D02*
D03*
X767500Y433000D02*
D03*
X812500Y218250D02*
D03*
X742250Y338250D02*
D03*
X448000Y524500D02*
D03*
X428000D02*
D03*
X503000Y304500D02*
D03*
X341500Y460000D02*
D03*
X325000Y514500D02*
D03*
X305000D02*
D03*
Y493500D02*
D03*
X202000Y514500D02*
D03*
X182000D02*
D03*
Y493500D02*
D03*
X232000Y305500D02*
D03*
X380500Y681664D02*
D03*
Y702664D02*
D03*
X325164Y675000D02*
D03*
Y696000D02*
D03*
X627250Y676250D02*
D03*
X607000D02*
D03*
X765000Y658000D02*
D03*
X745000D02*
D03*
X747500Y433000D02*
D03*
X128662Y144750D02*
D03*
X189662D02*
D03*
X73801Y145000D02*
D03*
X649750Y204250D02*
D03*
Y225250D02*
D03*
Y127500D02*
D03*
Y106500D02*
D03*
X534500Y127250D02*
D03*
Y106250D02*
D03*
X419500Y126750D02*
D03*
Y105750D02*
D03*
X304750Y126250D02*
D03*
Y105250D02*
D03*
X108662Y144750D02*
D03*
X169662Y123750D02*
D03*
Y144750D02*
D03*
X53801Y145000D02*
D03*
Y124000D02*
D03*
D63*
X109000Y599989D02*
D03*
X47000Y600011D02*
D03*
X85000Y600000D02*
D03*
X71000D02*
D03*
D64*
X248000Y154000D02*
D03*
X363000D02*
D03*
X479000D02*
D03*
X594000D02*
D03*
X602000D02*
D03*
X487000D02*
D03*
X371000D02*
D03*
X256000D02*
D03*
D65*
X825000Y691750D02*
D03*
Y654250D02*
D03*
Y333250D02*
D03*
Y345750D02*
D03*
Y358250D02*
D03*
Y370750D02*
D03*
Y395750D02*
D03*
Y383250D02*
D03*
Y320750D02*
D03*
Y308250D02*
D03*
Y679250D02*
D03*
Y666750D02*
D03*
D66*
X258250Y76000D02*
D03*
X270750D02*
D03*
X373250D02*
D03*
X385750D02*
D03*
X488500D02*
D03*
X501000D02*
D03*
X603500D02*
D03*
X616000D02*
D03*
X641000D02*
D03*
X628500D02*
D03*
X526000D02*
D03*
X513500D02*
D03*
X410750D02*
D03*
X398250D02*
D03*
X295750D02*
D03*
X283250D02*
D03*
D67*
X727250Y251800D02*
D03*
X733750D02*
D03*
X740250D02*
D03*
X709250Y353800D02*
D03*
X715750D02*
D03*
X722250D02*
D03*
X728750D02*
D03*
X746750Y251800D02*
D03*
D68*
X699500Y410255D02*
D03*
X196750Y280755D02*
D03*
X457000Y280875D02*
D03*
X785500Y418255D02*
D03*
X665500Y410005D02*
D03*
X423000Y280625D02*
D03*
X785500Y433745D02*
D03*
X457000Y296365D02*
D03*
X423000Y296115D02*
D03*
X196750Y296245D02*
D03*
X163250Y296490D02*
D03*
Y281000D02*
D03*
X699500Y425745D02*
D03*
X665500Y425495D02*
D03*
D69*
X267365Y164500D02*
D03*
X382365D02*
D03*
X497615D02*
D03*
X612615D02*
D03*
X393000Y748914D02*
D03*
Y753414D02*
D03*
X375000D02*
D03*
Y748914D02*
D03*
X612615Y160000D02*
D03*
X630615D02*
D03*
Y164500D02*
D03*
X497615Y160000D02*
D03*
X515615D02*
D03*
Y164500D02*
D03*
X382365Y160000D02*
D03*
X400365D02*
D03*
Y164500D02*
D03*
X267365Y160000D02*
D03*
X285365D02*
D03*
Y164500D02*
D03*
D70*
X725800Y462750D02*
D03*
X226400Y335500D02*
D03*
X480400Y334750D02*
D03*
X725800Y457750D02*
D03*
X226400Y330500D02*
D03*
X480400Y329750D02*
D03*
X465600Y334750D02*
D03*
Y329750D02*
D03*
Y324750D02*
D03*
X480400D02*
D03*
Y319750D02*
D03*
X465600D02*
D03*
X211600Y335500D02*
D03*
Y330500D02*
D03*
Y325500D02*
D03*
X226400D02*
D03*
Y320500D02*
D03*
X211600D02*
D03*
X711000Y462750D02*
D03*
Y457750D02*
D03*
Y452750D02*
D03*
X725800D02*
D03*
Y447750D02*
D03*
X711000D02*
D03*
D71*
X100500Y738600D02*
D03*
X115500D02*
D03*
X110500D02*
D03*
X115500Y753400D02*
D03*
X110500D02*
D03*
X105500D02*
D03*
Y738600D02*
D03*
X100500Y753400D02*
D03*
D72*
X670000Y350500D02*
D03*
X660500Y325500D02*
D03*
X705500Y190000D02*
D03*
X715000Y215000D02*
D03*
X696000D02*
D03*
X715000Y190000D02*
D03*
X696000D02*
D03*
X679500Y350500D02*
D03*
Y325500D02*
D03*
X660500Y350500D02*
D03*
D73*
X769850Y114750D02*
D03*
Y140150D02*
D03*
Y89350D02*
D03*
Y102050D02*
D03*
Y127450D02*
D03*
X757150Y140150D02*
D03*
Y127450D02*
D03*
Y114750D02*
D03*
Y102050D02*
D03*
Y89350D02*
D03*
D74*
X430000Y378250D02*
D03*
Y461750D02*
D03*
X675000Y584250D02*
D03*
X172500Y375750D02*
D03*
Y459250D02*
D03*
X675000Y500750D02*
D03*
D75*
X796750Y265000D02*
D03*
X769250D02*
D03*
X796750Y279000D02*
D03*
X769250D02*
D03*
X802750Y369000D02*
D03*
X775250D02*
D03*
X802750Y383000D02*
D03*
X775250D02*
D03*
D76*
X854000Y282750D02*
D03*
Y421250D02*
D03*
Y628750D02*
D03*
Y717250D02*
D03*
D77*
X578000Y47000D02*
D03*
X666500D02*
D03*
X463000D02*
D03*
X551500D02*
D03*
X347750D02*
D03*
X436250D02*
D03*
X232750D02*
D03*
X321250D02*
D03*
D78*
X70000Y371180D02*
D03*
Y391180D02*
D03*
X90000Y431180D02*
D03*
X70000D02*
D03*
X90000Y491180D02*
D03*
X70000D02*
D03*
X90000Y511180D02*
D03*
X70000D02*
D03*
X90000Y371180D02*
D03*
Y391180D02*
D03*
Y411180D02*
D03*
X70000D02*
D03*
X90000Y451180D02*
D03*
X70000D02*
D03*
X90000Y471180D02*
D03*
X70000D02*
D03*
X90000Y531180D02*
D03*
X70000D02*
D03*
X90000Y551180D02*
D03*
X70000D02*
D03*
D79*
X850900Y50800D02*
D03*
X88900Y908100D02*
D03*
X825500D02*
D03*
X50000Y50000D02*
D03*
D80*
X393700Y908100D02*
D03*
X419100Y882700D02*
D03*
X393700D02*
D03*
X419100Y908100D02*
D03*
X393700Y857300D02*
D03*
X419100Y831900D02*
D03*
X393700D02*
D03*
X419100Y857300D02*
D03*
X215900D02*
D03*
Y831900D02*
D03*
X139700D02*
D03*
Y857300D02*
D03*
X165100Y831900D02*
D03*
X241300Y857300D02*
D03*
X292100Y831900D02*
D03*
X266700D02*
D03*
Y857300D02*
D03*
X292100D02*
D03*
X317500Y831900D02*
D03*
X368300D02*
D03*
X342900D02*
D03*
X317500Y857300D02*
D03*
X342900D02*
D03*
X241300Y831900D02*
D03*
X190500Y857300D02*
D03*
Y831900D02*
D03*
X165100Y857300D02*
D03*
X444500D02*
D03*
Y831900D02*
D03*
X368300Y857300D02*
D03*
X469900Y831900D02*
D03*
Y857300D02*
D03*
X495300Y831900D02*
D03*
X647700Y857300D02*
D03*
Y831900D02*
D03*
X596900D02*
D03*
Y857300D02*
D03*
X622300Y831900D02*
D03*
X673100D02*
D03*
Y857300D02*
D03*
X571500Y831900D02*
D03*
X622300Y857300D02*
D03*
X546100D02*
D03*
X698500Y831900D02*
D03*
X571500Y857300D02*
D03*
X723900D02*
D03*
X749300Y831900D02*
D03*
Y857300D02*
D03*
X774700Y831900D02*
D03*
X698500Y857300D02*
D03*
X723900Y831900D02*
D03*
X546100D02*
D03*
X520700Y857300D02*
D03*
Y831900D02*
D03*
X495300Y857300D02*
D03*
X139700Y882700D02*
D03*
Y908100D02*
D03*
X165100Y882700D02*
D03*
X241300Y908100D02*
D03*
X292100Y882700D02*
D03*
X266700D02*
D03*
Y908100D02*
D03*
X292100D02*
D03*
X317500Y882700D02*
D03*
X368300D02*
D03*
X342900D02*
D03*
X317500Y908100D02*
D03*
X342900D02*
D03*
X241300Y882700D02*
D03*
X190500Y908100D02*
D03*
X215900Y882700D02*
D03*
Y908100D02*
D03*
X190500Y882700D02*
D03*
X165100Y908100D02*
D03*
X444500D02*
D03*
Y882700D02*
D03*
X368300Y908100D02*
D03*
X469900Y882700D02*
D03*
Y908100D02*
D03*
X495300Y882700D02*
D03*
X647700Y908100D02*
D03*
Y882700D02*
D03*
X596900D02*
D03*
Y908100D02*
D03*
X622300Y882700D02*
D03*
X673100D02*
D03*
Y908100D02*
D03*
X571500Y882700D02*
D03*
X622300Y908100D02*
D03*
X546100D02*
D03*
X698500Y882700D02*
D03*
X571500Y908100D02*
D03*
X723900D02*
D03*
X749300Y882700D02*
D03*
Y908100D02*
D03*
X774700Y882700D02*
D03*
X698500Y908100D02*
D03*
X723900Y882700D02*
D03*
X546100D02*
D03*
X520700Y908100D02*
D03*
Y882700D02*
D03*
X495300Y908100D02*
D03*
D81*
X763500Y76650D02*
D03*
X753350Y152850D02*
D03*
X773650D02*
D03*
D82*
X738100Y76650D02*
D03*
Y133800D02*
D03*
X788900Y76650D02*
D03*
Y133800D02*
D03*
D83*
X774700Y857300D02*
D03*
Y908100D02*
D03*
D84*
X867160Y34536D02*
D03*
X834640D02*
D03*
Y67063D02*
D03*
X867160D02*
D03*
X850900Y73800D02*
D03*
X827900Y50800D02*
D03*
X850900Y27800D02*
D03*
X873900Y50800D02*
D03*
X105160Y891836D02*
D03*
X72640D02*
D03*
Y924363D02*
D03*
X105160D02*
D03*
X88900Y931100D02*
D03*
X65900Y908100D02*
D03*
X88900Y885100D02*
D03*
X111900Y908100D02*
D03*
X841760Y891836D02*
D03*
X809240D02*
D03*
Y924363D02*
D03*
X841760D02*
D03*
X825500Y931100D02*
D03*
X802500Y908100D02*
D03*
X825500Y885100D02*
D03*
X848500Y908100D02*
D03*
X66260Y33737D02*
D03*
X33740D02*
D03*
Y66263D02*
D03*
X66260D02*
D03*
X50000Y73000D02*
D03*
X27000Y50000D02*
D03*
X50000Y27000D02*
D03*
X73000Y50000D02*
D03*
M02*
