G04*
G04 #@! TF.GenerationSoftware,Altium Limited,Altium Designer,26.2.0 (7)*
G04*
G04 Layer_Color=65280*
%FSLAX44Y44*%
%MOMM*%
G71*
G04*
G04 #@! TF.SameCoordinates,D5DFED66-1DDD-4205-BACF-39BFCEB3ABE1*
G04*
G04*
G04 #@! TF.FilePolarity,Positive*
G04*
G01*
G75*
%ADD11C,0.2000*%
%ADD12C,0.1000*%
%ADD129C,0.0500*%
D11*
X792950Y867650D02*
Y905400D01*
X121450Y867650D02*
Y923150D01*
X792950D01*
Y901400D02*
Y923150D01*
Y834600D02*
Y872350D01*
X121450Y816850D02*
Y872350D01*
Y816850D02*
X792950D01*
Y838600D01*
D12*
X42000Y862282D02*
X72250D01*
Y842282D02*
Y862282D01*
X35250Y842282D02*
X72250D01*
X35250D02*
Y862282D01*
X42000D01*
X35250Y822282D02*
X65500D01*
X35250D02*
Y842282D01*
X72250D01*
Y822282D02*
Y842282D01*
X65500Y822282D02*
X72250D01*
X312750Y712500D02*
Y740000D01*
X272750D02*
X312750D01*
X272750Y705000D02*
Y740000D01*
Y705000D02*
X312750D01*
Y712500D01*
X275294Y738992D02*
X275794D01*
Y788992D01*
X244794D02*
X275794D01*
X244794Y738992D02*
Y788992D01*
Y738992D02*
X275294D01*
X243827Y739083D02*
X244327D01*
Y789083D01*
X213327D02*
X244327D01*
X213327Y739083D02*
Y789083D01*
Y739083D02*
X243827D01*
X789250Y524000D02*
Y588250D01*
Y524000D02*
X826750D01*
Y597750D01*
X789250D02*
X826750D01*
X789250Y588500D02*
Y597750D01*
X560048Y416787D02*
X560548D01*
Y466787D01*
X529548D02*
X560548D01*
X529548Y416787D02*
Y466787D01*
Y416787D02*
X560048D01*
X295000Y425000D02*
X295500D01*
Y475000D01*
X264500D02*
X295500D01*
X264500Y425000D02*
Y475000D01*
Y425000D02*
X295000D01*
X325000Y414000D02*
X325500D01*
Y464000D01*
X294500D02*
X325500D01*
X294500Y414000D02*
Y464000D01*
Y414000D02*
X325000D01*
X410000Y135000D02*
X440250D01*
X410000D02*
Y155000D01*
X447000D01*
Y135000D02*
Y155000D01*
X440250Y135000D02*
X447000D01*
X377250Y365000D02*
X482750D01*
X377250D02*
Y475000D01*
X482750D01*
Y365000D02*
Y475000D01*
X102750Y224500D02*
X166250D01*
Y190500D02*
Y224500D01*
X102750Y190500D02*
Y224500D01*
Y190500D02*
X166250D01*
X652500Y372250D02*
Y379000D01*
X632500D02*
X652500D01*
X632500Y342000D02*
Y379000D01*
Y342000D02*
X652500D01*
Y372250D01*
X365927Y350183D02*
X378927D01*
Y371683D01*
X365927Y350183D02*
Y371683D01*
X378927D01*
X687750Y164750D02*
X720250D01*
X687750D02*
Y181250D01*
X720250Y164750D02*
Y181250D01*
X687750D02*
X720250D01*
X695500Y182500D02*
X723000D01*
Y222500D01*
X688000D02*
X723000D01*
X688000Y182500D02*
Y222500D01*
Y182500D02*
X695500D01*
X564000Y495500D02*
Y502250D01*
Y495500D02*
X584000D01*
Y532500D01*
X564000D02*
X584000D01*
X564000Y502250D02*
Y532500D01*
X371500Y461250D02*
Y468000D01*
X351500D02*
X371500D01*
X351500Y431000D02*
Y468000D01*
Y431000D02*
X371500D01*
Y461250D01*
X699000Y347750D02*
Y389250D01*
X739000D01*
Y347750D02*
Y389250D01*
X699000Y347750D02*
X739000D01*
X802500Y217500D02*
Y245000D01*
X762500D02*
X802500D01*
X762500Y210000D02*
Y245000D01*
Y210000D02*
X802500D01*
Y217500D01*
X792500Y318750D02*
Y346250D01*
X752500D02*
X792500D01*
X752500Y311250D02*
Y346250D01*
Y311250D02*
X792500D01*
Y318750D01*
X652500Y358000D02*
X680000D01*
X652500Y318000D02*
Y358000D01*
Y318000D02*
X687500D01*
Y358000D01*
X680000D02*
X687500D01*
X523250Y536250D02*
X536000D01*
X523250D02*
Y575750D01*
X562750D01*
Y536250D02*
Y575750D01*
X533000Y536250D02*
X562750D01*
X397250D02*
X410000D01*
X397250D02*
Y575750D01*
X436750D01*
Y536250D02*
Y575750D01*
X407000Y536250D02*
X436750D01*
X459750Y339750D02*
X480000D01*
X459750Y335250D02*
Y339750D01*
X466000Y314750D02*
X486250D01*
Y319250D01*
Y339750D01*
X480000D02*
X486250D01*
X459750Y314750D02*
X466000D01*
X459750D02*
Y335250D01*
X274250Y526250D02*
X287000D01*
X274250D02*
Y565750D01*
X313750D01*
Y526250D02*
Y565750D01*
X284000Y526250D02*
X313750D01*
X151250Y526250D02*
X164000D01*
X151250D02*
Y565750D01*
X190750D01*
Y526250D02*
Y565750D01*
X161000Y526250D02*
X190750D01*
X205750Y340500D02*
X226000D01*
X205750Y336000D02*
Y340500D01*
X212000Y315500D02*
X232250D01*
Y320000D01*
Y340500D01*
X226000D02*
X232250D01*
X205750Y315500D02*
X212000D01*
X205750D02*
Y336000D01*
X369500Y757664D02*
Y765664D01*
X398500D01*
Y736664D02*
Y765664D01*
X369500Y736664D02*
X398500D01*
X369500D02*
Y757664D01*
X120500Y739000D02*
Y759250D01*
X116000D02*
X120500D01*
X95500Y732750D02*
Y753000D01*
Y732750D02*
X100000D01*
X120500D01*
Y739000D01*
X95500Y753000D02*
Y759250D01*
X116000D01*
X559250Y690250D02*
X572000D01*
X559250D02*
Y729750D01*
X598750D01*
Y690250D02*
Y729750D01*
X569000Y690250D02*
X598750D01*
X705250Y686250D02*
X718000D01*
X705250D02*
Y725750D01*
X744750D01*
Y686250D02*
Y725750D01*
X715000Y686250D02*
X744750D01*
X705150Y467750D02*
X725400D01*
X705150Y463250D02*
Y467750D01*
X711400Y442750D02*
X731650D01*
Y447250D01*
Y467750D01*
X725400D02*
X731650D01*
X705150Y442750D02*
X711400D01*
X705150D02*
Y463250D01*
X636115Y147750D02*
Y155750D01*
X607115Y147750D02*
X636115D01*
X607115D02*
Y176750D01*
X636115D01*
Y155750D02*
Y176750D01*
X521115Y147750D02*
Y155750D01*
X492115Y147750D02*
X521115D01*
X492115D02*
Y176750D01*
X521115D01*
Y155750D02*
Y176750D01*
X405865Y147750D02*
Y155750D01*
X376865Y147750D02*
X405865D01*
X376865D02*
Y176750D01*
X405865D01*
Y155750D02*
Y176750D01*
X290865Y147750D02*
Y155750D01*
X261865Y147750D02*
X290865D01*
X261865D02*
Y176750D01*
X290865D01*
Y155750D02*
Y176750D01*
X644000Y684000D02*
X650750D01*
Y704000D01*
X613750D02*
X650750D01*
X613750Y684000D02*
Y704000D01*
Y684000D02*
X644000D01*
X784750Y686000D02*
X791500D01*
Y706000D01*
X754500D02*
X791500D01*
X754500Y686000D02*
Y706000D01*
Y686000D02*
X784750D01*
X602750Y536000D02*
X609500D01*
Y556000D01*
X572500D02*
X609500D01*
X572500Y536000D02*
Y556000D01*
Y536000D02*
X602750D01*
X475578Y534662D02*
X482328D01*
Y554662D01*
X445328D02*
X482328D01*
X445328Y534662D02*
Y554662D01*
Y534662D02*
X475578D01*
X355000Y526000D02*
X361750D01*
Y546000D01*
X324750D02*
X361750D01*
X324750Y526000D02*
Y546000D01*
Y526000D02*
X355000D01*
X231500Y525000D02*
X238250D01*
Y545000D01*
X201250D02*
X238250D01*
X201250Y525000D02*
Y545000D01*
Y525000D02*
X231500D01*
X513000Y275500D02*
Y282250D01*
Y275500D02*
X533000D01*
Y312500D01*
X513000D02*
X533000D01*
X513000Y282250D02*
Y312500D01*
X242000Y276500D02*
Y283250D01*
Y276500D02*
X262000D01*
Y313500D01*
X242000D02*
X262000D01*
X242000Y283250D02*
Y313500D01*
X335164Y666000D02*
Y672750D01*
Y666000D02*
X355164D01*
Y703000D01*
X335164D02*
X355164D01*
X335164Y672750D02*
Y703000D01*
X42250Y732000D02*
X49000D01*
X42250Y712000D02*
Y732000D01*
Y712000D02*
X79250D01*
Y732000D01*
X49000D02*
X79250D01*
X793500Y410750D02*
Y441000D01*
X777500D02*
X793500D01*
X777500Y418250D02*
Y441000D01*
Y410750D02*
Y418250D01*
Y410750D02*
X793500D01*
X777500Y434250D02*
Y441000D01*
X757500D02*
X777500D01*
X757500Y404000D02*
Y441000D01*
Y404000D02*
X777500D01*
Y434250D01*
X61500Y221500D02*
X91750D01*
X61500Y205500D02*
Y221500D01*
Y205500D02*
X84250D01*
X91750D01*
Y221500D01*
X174250Y210500D02*
X204500D01*
Y226500D01*
X181750D02*
X204500D01*
X174250D02*
X181750D01*
X174250Y210500D02*
Y226500D01*
Y178500D02*
X204500D01*
Y194500D01*
X181750D02*
X204500D01*
X174250D02*
X181750D01*
X174250Y178500D02*
Y194500D01*
X61500Y205500D02*
X91750D01*
X61500Y189500D02*
Y205500D01*
Y189500D02*
X84250D01*
X91750D01*
Y205500D01*
X174250Y194500D02*
X204500D01*
Y210500D01*
X181750D02*
X204500D01*
X174250D02*
X181750D01*
X174250Y194500D02*
Y210500D01*
X61500Y237500D02*
X91750D01*
X61500Y221500D02*
Y237500D01*
Y221500D02*
X84250D01*
X91750D01*
Y237500D01*
X822500Y240500D02*
Y247250D01*
X802500D02*
X822500D01*
X802500Y210250D02*
Y247250D01*
Y210250D02*
X822500D01*
Y240500D01*
X732250Y309250D02*
Y316000D01*
Y309250D02*
X752250D01*
Y346250D01*
X732250D02*
X752250D01*
X732250Y316000D02*
Y346250D01*
X721500Y225250D02*
X751750D01*
Y241250D01*
X729000D02*
X751750D01*
X721500D02*
X729000D01*
X721500Y225250D02*
Y241250D01*
X700500Y331000D02*
X730750D01*
Y347000D01*
X708000D02*
X730750D01*
X700500D02*
X708000D01*
X700500Y331000D02*
Y347000D01*
X724000Y162000D02*
Y168750D01*
Y162000D02*
X744000D01*
Y199000D01*
X724000D02*
X744000D01*
X724000Y168750D02*
Y199000D01*
X561750Y622000D02*
X568500D01*
Y642000D01*
X531500D02*
X568500D01*
X531500Y622000D02*
Y642000D01*
Y622000D02*
X561750D01*
X439250Y620000D02*
X446000D01*
Y640000D01*
X409000D02*
X446000D01*
X409000Y620000D02*
Y640000D01*
Y620000D02*
X439250D01*
X582000Y602000D02*
X588750D01*
Y622000D01*
X551750D02*
X588750D01*
X551750Y602000D02*
Y622000D01*
Y602000D02*
X582000D01*
X456250Y600000D02*
X463000D01*
Y620000D01*
X426000D02*
X463000D01*
X426000Y600000D02*
Y620000D01*
Y600000D02*
X456250D01*
X475750Y500750D02*
X482500D01*
X475750Y480750D02*
Y500750D01*
Y480750D02*
X512750D01*
Y500750D01*
X482500D02*
X512750D01*
X564000Y525750D02*
Y532500D01*
X544000D02*
X564000D01*
X544000Y495500D02*
Y532500D01*
Y495500D02*
X564000D01*
Y525750D01*
X438000Y495500D02*
Y502250D01*
Y495500D02*
X458000D01*
Y532500D01*
X438000D02*
X458000D01*
X438000Y502250D02*
Y532500D01*
Y525750D02*
Y532500D01*
X418000D02*
X438000D01*
X418000Y495500D02*
Y532500D01*
Y495500D02*
X438000D01*
Y525750D01*
X465000Y273370D02*
Y303620D01*
X449000D02*
X465000D01*
X449000Y280870D02*
Y303620D01*
Y273370D02*
Y280870D01*
Y273370D02*
X465000D01*
X415000D02*
Y303620D01*
Y273370D02*
X431000D01*
Y296120D01*
Y303620D01*
X415000D02*
X431000D01*
X493000Y275500D02*
Y282250D01*
Y275500D02*
X513000D01*
Y312500D01*
X493000D02*
X513000D01*
X493000Y282250D02*
Y312500D01*
X312250Y612000D02*
X319000D01*
Y632000D01*
X282000D02*
X319000D01*
X282000Y612000D02*
Y632000D01*
Y612000D02*
X312250D01*
X189772Y613549D02*
X196522D01*
Y633549D01*
X159522D02*
X196522D01*
X159522Y613549D02*
Y633549D01*
Y613549D02*
X189772D01*
X333500Y592000D02*
X340250D01*
Y612000D01*
X303250D02*
X340250D01*
X303250Y592000D02*
Y612000D01*
Y592000D02*
X333500D01*
X210750D02*
X217500D01*
Y612000D01*
X180500D02*
X217500D01*
X180500Y592000D02*
Y612000D01*
Y592000D02*
X210750D01*
X331500Y431000D02*
Y437750D01*
Y431000D02*
X351500D01*
Y468000D01*
X331500D02*
X351500D01*
X331500Y437750D02*
Y468000D01*
X315000Y485500D02*
Y492250D01*
Y485500D02*
X335000D01*
Y522500D01*
X315000D02*
X335000D01*
X315000Y492250D02*
Y522500D01*
X315000Y515750D02*
Y522500D01*
X295000D02*
X315000D01*
X295000Y485500D02*
Y522500D01*
Y485500D02*
X315000D01*
Y515750D01*
X192000Y485500D02*
Y492250D01*
Y485500D02*
X212000D01*
Y522500D01*
X192000D02*
X212000D01*
X192000Y492250D02*
Y522500D01*
Y515750D02*
Y522500D01*
X172000D02*
X192000D01*
X172000Y485500D02*
Y522500D01*
Y485500D02*
X192000D01*
Y515750D01*
X204750Y273250D02*
Y303500D01*
X188750D02*
X204750D01*
X188750Y280750D02*
Y303500D01*
Y273250D02*
Y280750D01*
Y273250D02*
X204750D01*
X155250Y273745D02*
Y303995D01*
Y273745D02*
X171250D01*
Y296495D01*
Y303995D01*
X155250D02*
X171250D01*
X222000Y276500D02*
Y283250D01*
Y276500D02*
X242000D01*
Y313500D01*
X222000D02*
X242000D01*
X222000Y283250D02*
Y313500D01*
X330500Y723164D02*
X337250D01*
X330500Y703164D02*
Y723164D01*
Y703164D02*
X367500D01*
Y723164D01*
X337250D02*
X367500D01*
X370500Y673664D02*
Y680414D01*
Y673664D02*
X390500D01*
Y710664D01*
X370500D02*
X390500D01*
X370500Y680414D02*
Y710664D01*
X438250Y752164D02*
X445000D01*
Y772164D01*
X408000D02*
X445000D01*
X408000Y752164D02*
Y772164D01*
Y752164D02*
X438250D01*
X319000Y750164D02*
X325750D01*
X319000Y730164D02*
Y750164D01*
Y730164D02*
X356000D01*
Y750164D01*
X325750D02*
X356000D01*
X320500Y770164D02*
X327250D01*
X320500Y750164D02*
Y770164D01*
Y750164D02*
X357500D01*
Y770164D01*
X327250D02*
X357500D01*
X325648Y786183D02*
X355898D01*
X325648Y770183D02*
Y786183D01*
Y770183D02*
X348398D01*
X355898D01*
Y786183D01*
X275734Y760688D02*
X282484D01*
X275734Y740688D02*
Y760688D01*
Y740688D02*
X312734D01*
Y760688D01*
X282484D02*
X312734D01*
X43250Y743500D02*
X73500D01*
Y759500D01*
X50750D02*
X73500D01*
X43250D02*
X50750D01*
X43250Y743500D02*
Y759500D01*
Y793500D02*
X73500D01*
X43250Y777500D02*
Y793500D01*
Y777500D02*
X66000D01*
X73500D01*
Y793500D01*
X315164Y667000D02*
Y673750D01*
Y667000D02*
X335164D01*
Y704000D01*
X315164D02*
X335164D01*
X315164Y673750D02*
Y704000D01*
X599250Y772500D02*
X606000D01*
Y792500D01*
X569000D02*
X606000D01*
X569000Y772500D02*
Y792500D01*
Y772500D02*
X599250D01*
X744750D02*
X751500D01*
Y792500D01*
X714500D02*
X751500D01*
X714500Y772500D02*
Y792500D01*
Y772500D02*
X744750D01*
X615000Y752000D02*
X621750D01*
Y772000D01*
X584750D02*
X621750D01*
X584750Y752000D02*
Y772000D01*
Y752000D02*
X615000D01*
X761500D02*
X768250D01*
Y772000D01*
X731250D02*
X768250D01*
X731250Y752000D02*
Y772000D01*
Y752000D02*
X761500D01*
X617250Y647250D02*
Y654000D01*
Y647250D02*
X637250D01*
Y684250D01*
X617250D02*
X637250D01*
X617250Y654000D02*
Y684250D01*
X617000Y677500D02*
Y684250D01*
X597000D02*
X617000D01*
X597000Y647250D02*
Y684250D01*
Y647250D02*
X617000D01*
Y677500D01*
X755000Y629000D02*
Y635750D01*
Y629000D02*
X775000D01*
Y666000D01*
X755000D02*
X775000D01*
X755000Y635750D02*
Y666000D01*
X755000Y659250D02*
Y666000D01*
X735000D02*
X755000D01*
X735000Y629000D02*
Y666000D01*
Y629000D02*
X755000D01*
Y659250D01*
X707500Y402750D02*
Y433000D01*
X691500D02*
X707500D01*
X691500Y410250D02*
Y433000D01*
Y402750D02*
Y410250D01*
Y402750D02*
X707500D01*
X657500D02*
Y433000D01*
Y402750D02*
X673500D01*
Y425500D01*
Y433000D01*
X657500D02*
X673500D01*
X737500Y404000D02*
Y410750D01*
Y404000D02*
X757500D01*
Y441000D01*
X737500D02*
X757500D01*
X737500Y410750D02*
Y441000D01*
X138662Y146000D02*
Y152750D01*
X118662D02*
X138662D01*
X118662Y115750D02*
Y152750D01*
Y115750D02*
X138662D01*
Y146000D01*
X199662D02*
Y152750D01*
X179662D02*
X199662D01*
X179662Y115750D02*
Y152750D01*
Y115750D02*
X199662D01*
Y146000D01*
X83801Y146250D02*
Y153000D01*
X63801D02*
X83801D01*
X63801Y116000D02*
Y153000D01*
Y116000D02*
X83801D01*
Y146250D01*
X669750Y176000D02*
X676500D01*
Y196000D01*
X639500D02*
X676500D01*
X639500Y176000D02*
Y196000D01*
Y176000D02*
X669750D01*
X554750D02*
X561500D01*
Y196000D01*
X524500D02*
X561500D01*
X524500Y176000D02*
Y196000D01*
Y176000D02*
X554750D01*
X440250Y175000D02*
X447000D01*
Y195000D01*
X410000D02*
X447000D01*
X410000Y175000D02*
Y195000D01*
Y175000D02*
X440250D01*
X325250D02*
X332000D01*
Y195000D01*
X295000D02*
X332000D01*
X295000Y175000D02*
Y195000D01*
Y175000D02*
X325250D01*
X639750Y196250D02*
Y203000D01*
Y196250D02*
X659750D01*
Y233250D01*
X639750D02*
X659750D01*
X639750Y203000D02*
Y233250D01*
X514500Y216250D02*
X521250D01*
X514500Y196250D02*
Y216250D01*
Y196250D02*
X551500D01*
Y216250D01*
X521250D02*
X551500D01*
X400000Y215750D02*
X406750D01*
X400000Y195750D02*
Y215750D01*
Y195750D02*
X437000D01*
Y215750D01*
X406750D02*
X437000D01*
X285000Y215250D02*
X291750D01*
X285000Y195250D02*
Y215250D01*
Y195250D02*
X322000D01*
Y215250D01*
X291750D02*
X322000D01*
X569500Y148000D02*
X576250D01*
X569500Y128000D02*
Y148000D01*
Y128000D02*
X606500D01*
Y148000D01*
X576250D02*
X606500D01*
X455000D02*
X461750D01*
X455000Y128000D02*
Y148000D01*
Y128000D02*
X492000D01*
Y148000D01*
X461750D02*
X492000D01*
X339500D02*
X346250D01*
X339500Y128000D02*
Y148000D01*
Y128000D02*
X376500D01*
Y148000D01*
X346250D02*
X376500D01*
X224000D02*
X230750D01*
X224000Y128000D02*
Y148000D01*
Y128000D02*
X261000D01*
Y148000D01*
X230750D02*
X261000D01*
X639500Y176000D02*
X646250D01*
X639500Y156000D02*
Y176000D01*
Y156000D02*
X676500D01*
Y176000D01*
X646250D02*
X676500D01*
X524500D02*
X531250D01*
X524500Y156000D02*
Y176000D01*
Y156000D02*
X561500D01*
Y176000D01*
X531250D02*
X561500D01*
X410000Y175000D02*
X416750D01*
X410000Y155000D02*
Y175000D01*
Y155000D02*
X447000D01*
Y175000D01*
X416750D02*
X447000D01*
X295000D02*
X301750D01*
X295000Y155000D02*
Y175000D01*
Y155000D02*
X332000D01*
Y175000D01*
X301750D02*
X332000D01*
X669750Y136000D02*
X676500D01*
Y156000D01*
X639500D02*
X676500D01*
X639500Y136000D02*
Y156000D01*
Y136000D02*
X669750D01*
X554750D02*
X561500D01*
Y156000D01*
X524500D02*
X561500D01*
X524500Y136000D02*
Y156000D01*
Y136000D02*
X554750D01*
X325250Y135000D02*
X332000D01*
Y155000D01*
X295000D02*
X332000D01*
X295000Y135000D02*
Y155000D01*
Y135000D02*
X325250D01*
X659750Y128750D02*
Y135500D01*
X639750D02*
X659750D01*
X639750Y98500D02*
Y135500D01*
Y98500D02*
X659750D01*
Y128750D01*
X544500Y128500D02*
Y135250D01*
X524500D02*
X544500D01*
X524500Y98250D02*
Y135250D01*
Y98250D02*
X544500D01*
Y128500D01*
X429500Y128000D02*
Y134750D01*
X409500D02*
X429500D01*
X409500Y97750D02*
Y134750D01*
Y97750D02*
X429500D01*
Y128000D01*
X314750Y127500D02*
Y134250D01*
X294750D02*
X314750D01*
X294750Y97250D02*
Y134250D01*
Y97250D02*
X314750D01*
Y127500D01*
X717000Y245750D02*
Y287250D01*
X757000D01*
Y245750D02*
Y287250D01*
X717000Y245750D02*
X757000D01*
X274164Y696500D02*
Y704000D01*
X314164D01*
Y669000D02*
Y704000D01*
X274164Y669000D02*
X314164D01*
X274164D02*
Y696500D01*
X225250Y362500D02*
Y472500D01*
X119750D02*
X225250D01*
X119750Y362500D02*
Y472500D01*
Y362500D02*
X225250D01*
X130206Y755662D02*
Y782412D01*
Y755662D02*
X195206D01*
Y812662D01*
X130206D02*
X195206D01*
X130206Y782412D02*
Y812662D01*
X727750Y487500D02*
Y597500D01*
X622250D02*
X727750D01*
X622250Y487500D02*
Y597500D01*
Y487500D02*
X727750D01*
X814500Y269750D02*
Y434250D01*
X877750Y269750D02*
Y434250D01*
X814500Y269750D02*
X877750D01*
X814500Y434250D02*
X877750D01*
X679500Y23250D02*
Y86500D01*
X564750D02*
X679500D01*
X564750Y23250D02*
X679500D01*
X564750D02*
Y86500D01*
X564500Y23250D02*
Y86500D01*
X449750D02*
X564500D01*
X449750Y23250D02*
X564500D01*
X449750D02*
Y86500D01*
X449250Y23250D02*
Y86500D01*
X334500D02*
X449250D01*
X334500Y23250D02*
X449250D01*
X334500D02*
Y86500D01*
X334250Y23250D02*
Y86500D01*
X219500D02*
X334250D01*
X219500Y23250D02*
X334250D01*
X219500D02*
Y86500D01*
X814500Y730250D02*
X877750D01*
X814500Y615500D02*
Y730250D01*
X877750Y615500D02*
Y730250D01*
X814500Y615500D02*
X877750D01*
X77500Y590250D02*
Y600500D01*
X58750Y590250D02*
X77500D01*
X40500D02*
X58750D01*
X40500D02*
Y609750D01*
X77500D01*
Y600500D02*
Y609750D01*
X589000Y153500D02*
Y160000D01*
X607000D01*
Y148000D02*
Y160000D01*
X589000Y148000D02*
X607000D01*
X589000D02*
Y153500D01*
X474000D02*
Y160000D01*
X492000D01*
Y148000D02*
Y160000D01*
X474000Y148000D02*
X492000D01*
X474000D02*
Y153500D01*
X358000D02*
Y160000D01*
X376000D01*
Y148000D02*
Y160000D01*
X358000Y148000D02*
X376000D01*
X358000D02*
Y153500D01*
X243000D02*
Y160000D01*
X261000D01*
Y148000D02*
Y160000D01*
X243000Y148000D02*
X261000D01*
X243000D02*
Y153500D01*
X78500Y599500D02*
Y609750D01*
X97250D01*
X115500D01*
Y590250D02*
Y609750D01*
X78500Y590250D02*
X115500D01*
X78500D02*
Y599500D01*
X506000Y498000D02*
X512750D01*
Y518000D01*
X475750D02*
X512750D01*
X475750Y498000D02*
Y518000D01*
Y498000D02*
X506000D01*
X98662Y115750D02*
Y122500D01*
Y115750D02*
X118662D01*
Y152750D01*
X98662D02*
X118662D01*
X98662Y122500D02*
Y152750D01*
X159662Y115750D02*
Y122500D01*
Y115750D02*
X179662D01*
Y152750D01*
X159662D02*
X179662D01*
X159662Y122500D02*
Y152750D01*
X43801Y122750D02*
Y153000D01*
X63801D01*
Y116000D02*
Y153000D01*
X43801Y116000D02*
X63801D01*
X43801D02*
Y122750D01*
X676750Y744500D02*
X716250D01*
X676750D02*
Y765500D01*
X716250Y744500D02*
Y765500D01*
X676750D02*
X716250D01*
X527750Y749500D02*
X567250D01*
X527750D02*
Y770500D01*
X567250Y749500D02*
Y770500D01*
X527750D02*
X567250D01*
X494750Y593500D02*
X534250D01*
X494750D02*
Y614500D01*
X534250Y593500D02*
Y614500D01*
X494750D02*
X534250D01*
X368250Y592500D02*
X407750D01*
X368250D02*
Y613500D01*
X407750Y592500D02*
Y613500D01*
X368250D02*
X407750D01*
X245250Y582500D02*
X284750D01*
X245250D02*
Y603500D01*
X284750Y582500D02*
Y603500D01*
X245250D02*
X284750D01*
X122250Y582500D02*
X161750D01*
X122250D02*
Y603500D01*
X161750Y582500D02*
Y603500D01*
X122250D02*
X161750D01*
X501750Y593250D02*
X534250D01*
Y576750D02*
Y593250D01*
X501750Y576750D02*
Y593250D01*
Y576750D02*
X534250D01*
X374750Y592250D02*
X407250D01*
Y575750D02*
Y592250D01*
X374750Y575750D02*
Y592250D01*
Y575750D02*
X407250D01*
X251750Y582250D02*
X284250D01*
Y565750D02*
Y582250D01*
X251750Y565750D02*
Y582250D01*
Y565750D02*
X284250D01*
X129750Y582250D02*
X162250D01*
Y565750D02*
Y582250D01*
X129750Y565750D02*
Y582250D01*
Y565750D02*
X162250D01*
X430000Y672500D02*
X430500D01*
Y722500D01*
X399500D02*
X430500D01*
X399500Y672500D02*
Y722500D01*
Y672500D02*
X430000D01*
X682750Y743250D02*
X715250D01*
Y726750D02*
Y743250D01*
X682750Y726750D02*
Y743250D01*
Y726750D02*
X715250D01*
X533750Y748250D02*
X566250D01*
Y731750D02*
Y748250D01*
X533750Y731750D02*
Y748250D01*
Y731750D02*
X566250D01*
X608500Y204250D02*
Y243750D01*
X587500Y204250D02*
X608500D01*
X587500Y243750D02*
X608500D01*
X587500Y204250D02*
Y243750D01*
X494500Y204250D02*
Y243750D01*
X473500Y204250D02*
X494500D01*
X473500Y243750D02*
X494500D01*
X473500Y204250D02*
Y243750D01*
X378500Y204250D02*
Y243750D01*
X357500Y204250D02*
X378500D01*
X357500Y243750D02*
X378500D01*
X357500Y204250D02*
Y243750D01*
X264500Y204250D02*
Y243750D01*
X243500Y204250D02*
X264500D01*
X243500Y243750D02*
X264500D01*
X243500Y204250D02*
Y243750D01*
X129750Y243250D02*
X162250D01*
Y226750D02*
Y243250D01*
X129750Y226750D02*
Y243250D01*
Y226750D02*
X162250D01*
X762750Y193750D02*
X795250D01*
X762750D02*
Y210250D01*
X795250Y193750D02*
Y210250D01*
X762750D02*
X795250D01*
X752500Y294500D02*
X785000D01*
X752500D02*
Y311000D01*
X785000Y294500D02*
Y311000D01*
X752500D02*
X785000D01*
X655250Y374500D02*
X687750D01*
Y358000D02*
Y374500D01*
X655250Y358000D02*
Y374500D01*
Y358000D02*
X687750D01*
X570000Y578500D02*
X609500D01*
Y557500D02*
Y578500D01*
X570000Y557500D02*
Y578500D01*
Y557500D02*
X609500D01*
X445250Y578500D02*
X484750D01*
Y557500D02*
Y578500D01*
X445250Y557500D02*
Y578500D01*
Y557500D02*
X484750D01*
X551750Y601500D02*
X591250D01*
Y580500D02*
Y601500D01*
X551750Y580500D02*
Y601500D01*
Y580500D02*
X591250D01*
X425750Y599500D02*
X465250D01*
Y578500D02*
Y599500D01*
X425750Y578500D02*
Y599500D01*
Y578500D02*
X465250D01*
X505750Y531250D02*
X538250D01*
Y514750D02*
Y531250D01*
X505750Y514750D02*
Y531250D01*
Y514750D02*
X538250D01*
X379750Y528250D02*
X412250D01*
Y511750D02*
Y528250D01*
X379750Y511750D02*
Y528250D01*
Y511750D02*
X412250D01*
X448250Y271120D02*
Y303620D01*
X431750Y271120D02*
X448250D01*
X431750Y303620D02*
X448250D01*
X431750Y271120D02*
Y303620D01*
X484750Y438000D02*
Y470500D01*
X501250D01*
X484750Y438000D02*
X501250D01*
Y470500D01*
X525500Y430250D02*
Y469750D01*
X504500Y430250D02*
X525500D01*
X504500Y469750D02*
X525500D01*
X504500Y430250D02*
Y469750D01*
X561250Y393250D02*
Y457500D01*
Y393250D02*
X598750D01*
Y467000D01*
X561250D02*
X598750D01*
X561250Y457750D02*
Y467000D01*
X400750Y343250D02*
X433250D01*
Y326750D02*
Y343250D01*
X400750Y326750D02*
Y343250D01*
Y326750D02*
X433250D01*
X400750Y303500D02*
X440250D01*
X400750D02*
Y324500D01*
X440250Y303500D02*
Y324500D01*
X400750D02*
X440250D01*
X486500Y326750D02*
X499500D01*
Y348250D01*
X486500Y326750D02*
Y348250D01*
X499500D01*
X499500Y376500D02*
X500000D01*
X499500Y326500D02*
Y376500D01*
Y326500D02*
X530500D01*
Y376500D01*
X500000D02*
X530500D01*
X530500D02*
X531000D01*
X530500Y326500D02*
Y376500D01*
Y326500D02*
X561500D01*
Y376500D01*
X531000D02*
X561500D01*
X322250Y568500D02*
X361750D01*
Y547500D02*
Y568500D01*
X322250Y547500D02*
Y568500D01*
Y547500D02*
X361750D01*
X198750Y568500D02*
X238250D01*
Y547500D02*
Y568500D01*
X198750Y547500D02*
Y568500D01*
Y547500D02*
X238250D01*
X303250Y591500D02*
X342750D01*
Y570500D02*
Y591500D01*
X303250Y570500D02*
Y591500D01*
Y570500D02*
X342750D01*
X180500Y591500D02*
X220000D01*
Y570500D02*
Y591500D01*
X180500Y570500D02*
Y591500D01*
Y570500D02*
X220000D01*
X253750Y520250D02*
X286250D01*
Y503750D02*
Y520250D01*
X253750Y503750D02*
Y520250D01*
Y503750D02*
X286250D01*
X129750Y523250D02*
X162250D01*
Y506750D02*
Y523250D01*
X129750Y506750D02*
Y523250D01*
Y506750D02*
X162250D01*
X188500Y271495D02*
Y303995D01*
X172000Y271495D02*
X188500D01*
X172000Y303995D02*
X188500D01*
X172000Y271495D02*
Y303995D01*
X226750Y438750D02*
Y471250D01*
X243250D01*
X226750Y438750D02*
X243250D01*
Y471250D01*
X265068Y431464D02*
Y470964D01*
X244069Y431464D02*
X265068D01*
X244069Y470964D02*
X265068D01*
X244069Y431464D02*
Y470964D01*
X145250Y343250D02*
X177750D01*
Y326750D02*
Y343250D01*
X145250Y326750D02*
Y343250D01*
Y326750D02*
X177750D01*
X142750Y304500D02*
X182250D01*
X142750D02*
Y325500D01*
X182250Y304500D02*
Y325500D01*
X142750D02*
X182250D01*
X232500Y326750D02*
X245500D01*
Y348250D01*
X232500Y326750D02*
Y348250D01*
X245500D01*
X276500Y376500D02*
X277000D01*
X276500Y326500D02*
Y376500D01*
Y326500D02*
X307500D01*
Y376500D01*
X277000D02*
X307500D01*
X245500D02*
X246000D01*
X245500Y326500D02*
Y376500D01*
Y326500D02*
X276500D01*
Y376500D01*
X246000D02*
X276500D01*
X408250Y794664D02*
X447750D01*
Y773664D02*
Y794664D01*
X408250Y773664D02*
Y794664D01*
Y773664D02*
X447750D01*
X408250Y751500D02*
X447750D01*
Y730500D02*
Y751500D01*
X408250Y730500D02*
Y751500D01*
Y730500D02*
X447750D01*
X41000Y760250D02*
X73500D01*
X41000D02*
Y776750D01*
X73500Y760250D02*
Y776750D01*
X41000D02*
X73500D01*
X196029Y751234D02*
Y783734D01*
X212529D01*
X196029Y751234D02*
X212529D01*
Y783734D01*
X97000Y795750D02*
X129500D01*
X97000D02*
Y812250D01*
X129500Y795750D02*
Y812250D01*
X97000D02*
X129500D01*
X74000Y769750D02*
Y809250D01*
X95000D01*
X74000Y769750D02*
X95000D01*
Y809250D01*
X104750Y719500D02*
Y732500D01*
Y719500D02*
X126250D01*
X104750Y732500D02*
X126250D01*
Y719500D02*
Y732500D01*
X142000Y718000D02*
Y718500D01*
X92000D02*
X142000D01*
X92000Y687500D02*
Y718500D01*
Y687500D02*
X142000D01*
Y718000D01*
Y686000D02*
Y686500D01*
X92000D02*
X142000D01*
X92000Y655500D02*
Y686500D01*
Y655500D02*
X142000D01*
Y686000D01*
X610250Y730500D02*
X649750D01*
Y709500D02*
Y730500D01*
X610250Y709500D02*
Y730500D01*
Y709500D02*
X649750D01*
X752000Y728500D02*
X791500D01*
Y707500D02*
Y728500D01*
X752000Y707500D02*
Y728500D01*
Y707500D02*
X791500D01*
X586407Y753622D02*
X625906D01*
Y732622D02*
Y753622D01*
X586407Y732622D02*
Y753622D01*
Y732622D02*
X625906D01*
X543750Y685750D02*
X576250D01*
Y669250D02*
Y685750D01*
X543750Y669250D02*
Y685750D01*
Y669250D02*
X576250D01*
X731250Y751500D02*
X770750D01*
Y730500D02*
Y751500D01*
X731250Y730500D02*
Y751500D01*
Y730500D02*
X770750D01*
X687750Y683250D02*
X720250D01*
Y666750D02*
Y683250D01*
X687750Y666750D02*
Y683250D01*
Y666750D02*
X720250D01*
X690750Y400500D02*
Y433000D01*
X674250Y400500D02*
X690750D01*
X674250Y433000D02*
X690750D01*
X674250Y400500D02*
Y433000D01*
X729750Y565750D02*
Y598250D01*
X746250D01*
X729750Y565750D02*
X746250D01*
Y598250D01*
X788500Y558750D02*
Y598250D01*
X767500Y558750D02*
X788500D01*
X767500Y598250D02*
X788500D01*
X767500Y558750D02*
Y598250D01*
Y558750D02*
Y598250D01*
X746500Y558750D02*
X767500D01*
X746500Y598250D02*
X767500D01*
X746500Y558750D02*
Y598250D01*
X649750Y473250D02*
X682250D01*
Y456750D02*
Y473250D01*
X649750Y456750D02*
Y473250D01*
Y456750D02*
X682250D01*
X647750Y434500D02*
X687250D01*
X647750D02*
Y455500D01*
X687250Y434500D02*
Y455500D01*
X647750D02*
X687250D01*
X732000Y456750D02*
X745000D01*
Y478250D01*
X732000Y456750D02*
Y478250D01*
X745000D01*
X776500Y506250D02*
X777000D01*
X776500Y456250D02*
Y506250D01*
Y456250D02*
X807500D01*
Y506250D01*
X777000D02*
X807500D01*
X745500D02*
X746000D01*
X745500Y456250D02*
Y506250D01*
Y456250D02*
X776500D01*
Y506250D01*
X746000D02*
X776500D01*
X363500Y274750D02*
Y287750D01*
Y274750D02*
X385000D01*
X363500Y287750D02*
X385000D01*
Y274750D02*
Y287750D01*
X359500Y309750D02*
X372500D01*
X359500Y288250D02*
Y309750D01*
X372500Y288250D02*
Y309750D01*
X359500Y288250D02*
X372500D01*
X566750Y173500D02*
X606250D01*
X566750D02*
Y194500D01*
X606250Y173500D02*
Y194500D01*
X566750D02*
X606250D01*
X456320Y179712D02*
X495820D01*
X456320D02*
Y200712D01*
X495820Y179712D02*
Y200712D01*
X456320D02*
X495820D01*
X336750Y173500D02*
X376250D01*
X336750D02*
Y194500D01*
X376250Y173500D02*
Y194500D01*
X336750D02*
X376250D01*
X222250Y173500D02*
X261750D01*
X222250D02*
Y194500D01*
X261750Y173500D02*
Y194500D01*
X222250D02*
X261750D01*
X587500Y204250D02*
Y243750D01*
X566500Y204250D02*
X587500D01*
X566500Y243750D02*
X587500D01*
X566500Y204250D02*
Y243750D01*
X473500Y204250D02*
Y243750D01*
X452500Y204250D02*
X473500D01*
X452500Y243750D02*
X473500D01*
X452500Y204250D02*
Y243750D01*
X357500Y204250D02*
Y243750D01*
X336500Y204250D02*
X357500D01*
X336500Y243750D02*
X357500D01*
X336500Y204250D02*
Y243750D01*
X242500Y204250D02*
Y243750D01*
X221500Y204250D02*
X242500D01*
X221500Y243750D02*
X242500D01*
X221500Y204250D02*
Y243750D01*
X598250Y91750D02*
X637750D01*
X598250D02*
Y112750D01*
X637750Y91750D02*
Y112750D01*
X598250D02*
X637750D01*
X483500Y91500D02*
X523000D01*
X483500D02*
Y112500D01*
X523000Y91500D02*
Y112500D01*
X483500D02*
X523000D01*
X368500Y91500D02*
X408000D01*
X368500D02*
Y112500D01*
X408000Y91500D02*
Y112500D01*
X368500D02*
X408000D01*
X254000Y91000D02*
X293500D01*
X254000D02*
Y112000D01*
X293500Y91000D02*
Y112000D01*
X254000D02*
X293500D01*
D129*
X723750Y160250D02*
X803250D01*
X723750Y62250D02*
Y160250D01*
X803250Y62250D02*
Y160250D01*
X723750Y62250D02*
X803250D01*
M02*
