G04*
G04 #@! TF.GenerationSoftware,Altium Limited,Altium Designer,26.2.0 (7)*
G04*
G04 Layer_Color=0*
%FSLAX44Y44*%
%MOMM*%
G71*
G04*
G04 #@! TF.SameCoordinates,D5DFED66-1DDD-4205-BACF-39BFCEB3ABE1*
G04*
G04*
G04 #@! TF.FilePolarity,Positive*
G04*
G01*
G75*
%ADD12C,0.1000*%
D12*
X53750Y852282D02*
Y856282D01*
Y852282D02*
Y856282D01*
X49750Y852282D02*
X53750D01*
X49750D02*
X57750D01*
X53750D02*
X57750D01*
X53750Y848282D02*
Y852282D01*
Y828282D02*
Y832282D01*
Y828282D02*
Y832282D01*
X57750D01*
X49750D02*
X57750D01*
X49750D02*
X53750D01*
Y836282D01*
X287750Y722500D02*
X292750D01*
Y727500D01*
Y722500D02*
X297750D01*
X292750Y717500D02*
Y722500D01*
X257794Y763992D02*
X260294D01*
X257794D02*
X260294D01*
Y766492D01*
Y761492D02*
Y766492D01*
Y761492D02*
Y763992D01*
X262794D01*
X226327Y764083D02*
X228827D01*
X226327D02*
X228827D01*
Y766583D01*
Y761583D02*
Y766583D01*
Y761583D02*
Y764083D01*
X231327D01*
X805500Y560750D02*
X808000D01*
Y563250D01*
Y558250D02*
Y563250D01*
Y558250D02*
Y560750D01*
X810500D01*
X808000D02*
X810500D01*
X542548Y441787D02*
X545048D01*
X542548D02*
X545048D01*
Y444287D01*
Y439287D02*
Y444287D01*
Y439287D02*
Y441787D01*
X547548D01*
X277500Y450000D02*
X280000D01*
X277500D02*
X280000D01*
Y452500D01*
Y447500D02*
Y452500D01*
Y447500D02*
Y450000D01*
X282500D01*
X307500Y439000D02*
X310000D01*
X307500D02*
X310000D01*
Y441500D01*
Y436500D02*
Y441500D01*
Y436500D02*
Y439000D01*
X312500D01*
X428500Y141000D02*
Y145000D01*
Y141000D02*
Y145000D01*
X432500D01*
X424500D02*
X432500D01*
X424500D02*
X428500D01*
Y149000D01*
X427500Y420000D02*
X430000D01*
X427500D02*
X430000D01*
Y422500D01*
Y417500D02*
Y422500D01*
Y417500D02*
Y420000D01*
X432500D01*
X761000Y114750D02*
X763500D01*
X761000D02*
X763500D01*
Y117250D01*
Y112250D02*
Y117250D01*
Y112250D02*
Y114750D01*
X766000D01*
X134500Y205000D02*
Y207500D01*
X132000D02*
X134500D01*
X132000D02*
X137000D01*
X134500D02*
X137000D01*
X134500D02*
Y210000D01*
Y207500D02*
Y210000D01*
X638500Y360500D02*
X642500D01*
Y356500D02*
Y360500D01*
Y356500D02*
Y364500D01*
Y360500D02*
Y364500D01*
Y360500D02*
X646500D01*
X642500D02*
X646500D01*
X369927Y360933D02*
X372427D01*
Y363433D01*
Y360933D02*
Y363433D01*
Y358433D02*
Y360933D01*
Y358433D02*
Y360933D01*
X374927D01*
X372427D02*
X374927D01*
X704000Y170500D02*
Y173000D01*
Y170500D02*
Y173000D01*
X706500D01*
X704000D02*
X706500D01*
X704000D02*
Y175500D01*
Y173000D02*
Y175500D01*
X701500Y173000D02*
X704000D01*
X705500Y202500D02*
Y205000D01*
Y202500D02*
Y205000D01*
Y202500D02*
X708000D01*
X703000D02*
X708000D01*
X703000D02*
X705500D01*
Y200000D02*
Y202500D01*
X574000Y514000D02*
X578000D01*
X574000D02*
Y518000D01*
Y510000D02*
Y518000D01*
Y510000D02*
Y514000D01*
X570000D02*
X574000D01*
X570000D02*
X574000D01*
X357500Y449500D02*
X361500D01*
Y445500D02*
Y449500D01*
Y445500D02*
Y453500D01*
Y449500D02*
Y453500D01*
Y449500D02*
X365500D01*
X361500D02*
X365500D01*
X716500Y368500D02*
X719000D01*
X716500D02*
X719000D01*
Y371000D01*
Y366000D02*
Y371000D01*
Y366000D02*
Y368500D01*
X721500D01*
X780000Y227500D02*
X782500D01*
X780000D02*
X782500D01*
Y230000D01*
Y225000D02*
Y230000D01*
Y225000D02*
Y227500D01*
X785000D01*
X770000Y328750D02*
X772500D01*
X770000D02*
X772500D01*
Y331250D01*
Y326250D02*
Y331250D01*
Y326250D02*
Y328750D01*
X775000D01*
X670000Y335500D02*
Y338000D01*
Y335500D02*
Y338000D01*
X667500D02*
X670000D01*
X667500D02*
X672500D01*
X670000D02*
X672500D01*
X670000D02*
Y340500D01*
X540500Y556000D02*
X543000D01*
X540500D02*
X543000D01*
Y558500D01*
Y553500D02*
Y558500D01*
Y553500D02*
Y556000D01*
X545500D01*
X414500D02*
X417000D01*
X414500D02*
X417000D01*
Y558500D01*
Y553500D02*
Y558500D01*
Y553500D02*
Y556000D01*
X419500D01*
X473000Y327250D02*
Y329750D01*
Y327250D02*
X475500D01*
X470500D02*
X475500D01*
X470500D02*
X473000D01*
Y324750D02*
Y327250D01*
Y324750D02*
Y327250D01*
X291500Y546000D02*
X294000D01*
X291500D02*
X294000D01*
Y548500D01*
Y543500D02*
Y548500D01*
Y543500D02*
Y546000D01*
X296500D01*
X168500Y546000D02*
X171000D01*
X168500D02*
X171000D01*
Y548500D01*
Y543500D02*
Y548500D01*
Y543500D02*
Y546000D01*
X173500D01*
X219000Y328000D02*
Y330500D01*
Y328000D02*
X221500D01*
X216500D02*
X221500D01*
X216500D02*
X219000D01*
Y325500D02*
Y328000D01*
Y325500D02*
Y328000D01*
X384000Y751164D02*
Y753664D01*
Y751164D02*
Y753664D01*
Y751164D02*
X386500D01*
X381500D02*
X386500D01*
X381500D02*
X384000D01*
Y748664D02*
Y751164D01*
X108000Y746000D02*
X110500D01*
X108000Y743500D02*
Y746000D01*
Y743500D02*
Y748500D01*
Y746000D02*
Y748500D01*
X105500Y746000D02*
X108000D01*
X105500D02*
X108000D01*
X576500Y710000D02*
X579000D01*
X576500D02*
X579000D01*
Y712500D01*
Y707500D02*
Y712500D01*
Y707500D02*
Y710000D01*
X581500D01*
X722500Y706000D02*
X725000D01*
X722500D02*
X725000D01*
Y708500D01*
Y703500D02*
Y708500D01*
Y703500D02*
Y706000D01*
X727500D01*
X718400Y455250D02*
Y457750D01*
Y455250D02*
X720900D01*
X715900D02*
X720900D01*
X715900D02*
X718400D01*
Y452750D02*
Y455250D01*
Y452750D02*
Y455250D01*
X621615Y159750D02*
Y162250D01*
Y159750D02*
Y162250D01*
X619115D02*
X621615D01*
X619115D02*
X624115D01*
X621615D02*
X624115D01*
X621615D02*
Y164750D01*
X506615Y159750D02*
Y162250D01*
Y159750D02*
Y162250D01*
X504115D02*
X506615D01*
X504115D02*
X509115D01*
X506615D02*
X509115D01*
X506615D02*
Y164750D01*
X391365Y159750D02*
Y162250D01*
Y159750D02*
Y162250D01*
X388865D02*
X391365D01*
X388865D02*
X393865D01*
X391365D02*
X393865D01*
X391365D02*
Y164750D01*
X276365Y159750D02*
Y162250D01*
Y159750D02*
Y162250D01*
X273865D02*
X276365D01*
X273865D02*
X278865D01*
X276365D02*
X278865D01*
X276365D02*
Y164750D01*
X632250Y694000D02*
Y698000D01*
X628250Y694000D02*
X632250D01*
X628250D02*
X636250D01*
X632250D02*
X636250D01*
X632250Y690000D02*
Y694000D01*
Y690000D02*
Y694000D01*
X773000Y696000D02*
Y700000D01*
X769000Y696000D02*
X773000D01*
X769000D02*
X777000D01*
X773000D02*
X777000D01*
X773000Y692000D02*
Y696000D01*
Y692000D02*
Y696000D01*
X591000Y546000D02*
Y550000D01*
X587000Y546000D02*
X591000D01*
X587000D02*
X595000D01*
X591000D02*
X595000D01*
X591000Y542000D02*
Y546000D01*
Y542000D02*
Y546000D01*
X463829Y544662D02*
Y548662D01*
X459828Y544662D02*
X463829D01*
X459828D02*
X467828D01*
X463829D02*
X467828D01*
X463829Y540662D02*
Y544662D01*
Y540662D02*
Y544662D01*
X343250Y536000D02*
Y540000D01*
X339250Y536000D02*
X343250D01*
X339250D02*
X347250D01*
X343250D02*
X347250D01*
X343250Y532000D02*
Y536000D01*
Y532000D02*
Y536000D01*
X219750Y535000D02*
Y539000D01*
X215750Y535000D02*
X219750D01*
X215750D02*
X223750D01*
X219750D02*
X223750D01*
X219750Y531000D02*
Y535000D01*
Y531000D02*
Y535000D01*
X523000Y294000D02*
X527000D01*
X523000D02*
Y298000D01*
Y290000D02*
Y298000D01*
Y290000D02*
Y294000D01*
X519000D02*
X523000D01*
X519000D02*
X523000D01*
X252000Y295000D02*
X256000D01*
X252000D02*
Y299000D01*
Y291000D02*
Y299000D01*
Y291000D02*
Y295000D01*
X248000D02*
X252000D01*
X248000D02*
X252000D01*
X345164Y684500D02*
X349164D01*
X345164D02*
Y688500D01*
Y680500D02*
Y688500D01*
Y680500D02*
Y684500D01*
X341164D02*
X345164D01*
X341164D02*
X345164D01*
X60750Y718000D02*
Y722000D01*
X64750D01*
X56750D02*
X64750D01*
X56750D02*
X60750D01*
Y726000D01*
Y722000D02*
Y726000D01*
X785500Y422000D02*
Y426000D01*
X789500D01*
X785500D02*
Y430000D01*
Y426000D02*
Y430000D01*
X781500Y426000D02*
X785500D01*
X763500Y422500D02*
X767500D01*
Y418500D02*
Y422500D01*
Y418500D02*
Y426500D01*
Y422500D02*
Y426500D01*
Y422500D02*
X771500D01*
X767500D02*
X771500D01*
X76500Y213500D02*
X80500D01*
X76500D02*
Y217500D01*
X72500Y213500D02*
X76500D01*
X72500D02*
X76500D01*
Y209500D02*
Y213500D01*
X185500Y218500D02*
X189500D01*
Y214500D02*
Y218500D01*
X193500D01*
X189500D02*
X193500D01*
X189500D02*
Y222500D01*
X185500Y186500D02*
X189500D01*
Y182500D02*
Y186500D01*
X193500D01*
X189500D02*
X193500D01*
X189500D02*
Y190500D01*
X76500Y197500D02*
X80500D01*
X76500D02*
Y201500D01*
X72500Y197500D02*
X76500D01*
X72500D02*
X76500D01*
Y193500D02*
Y197500D01*
X185500Y202500D02*
X189500D01*
Y198500D02*
Y202500D01*
X193500D01*
X189500D02*
X193500D01*
X189500D02*
Y206500D01*
X76500Y229500D02*
X80500D01*
X76500D02*
Y233500D01*
X72500Y229500D02*
X76500D01*
X72500D02*
X76500D01*
Y225500D02*
Y229500D01*
X808500Y228750D02*
X812500D01*
Y224750D02*
Y228750D01*
Y224750D02*
Y232750D01*
Y228750D02*
Y232750D01*
Y228750D02*
X816500D01*
X812500D02*
X816500D01*
X742250Y327750D02*
X746250D01*
X742250D02*
Y331750D01*
Y323750D02*
Y331750D01*
Y323750D02*
Y327750D01*
X738250D02*
X742250D01*
X738250D02*
X742250D01*
X783000Y269500D02*
Y272000D01*
X780500D02*
X783000D01*
X780500D02*
X783000D01*
X785500D01*
X783000D02*
X785500D01*
X783000D02*
Y274500D01*
X789000Y373500D02*
Y376000D01*
X786500D02*
X789000D01*
X786500D02*
X789000D01*
X791500D01*
X789000D02*
X791500D01*
X789000D02*
Y378500D01*
X732750Y233250D02*
X736750D01*
Y229250D02*
Y233250D01*
X740750D01*
X736750D02*
X740750D01*
X736750D02*
Y237250D01*
X711750Y339000D02*
X715750D01*
Y335000D02*
Y339000D01*
X719750D01*
X715750D02*
X719750D01*
X715750D02*
Y343000D01*
X734000Y180500D02*
X738000D01*
X734000D02*
Y184500D01*
Y176500D02*
Y184500D01*
Y176500D02*
Y180500D01*
X730000D02*
X734000D01*
X730000D02*
X734000D01*
X550000Y632000D02*
Y636000D01*
X546000Y632000D02*
X550000D01*
X546000D02*
X554000D01*
X550000D02*
X554000D01*
X550000Y628000D02*
Y632000D01*
Y628000D02*
Y632000D01*
X427500Y630000D02*
Y634000D01*
X423500Y630000D02*
X427500D01*
X423500D02*
X431500D01*
X427500D02*
X431500D01*
X427500Y626000D02*
Y630000D01*
Y626000D02*
Y630000D01*
X570250Y612000D02*
Y616000D01*
X566250Y612000D02*
X570250D01*
X566250D02*
X574250D01*
X570250D02*
X574250D01*
X570250Y608000D02*
Y612000D01*
Y608000D02*
Y612000D01*
X444500Y610000D02*
Y614000D01*
X440500Y610000D02*
X444500D01*
X440500D02*
X448500D01*
X444500D02*
X448500D01*
X444500Y606000D02*
Y610000D01*
Y606000D02*
Y610000D01*
X494250Y486750D02*
Y490750D01*
X498250D01*
X490250D02*
X498250D01*
X490250D02*
X494250D01*
Y494750D01*
Y490750D02*
Y494750D01*
X550000Y514000D02*
X554000D01*
Y510000D02*
Y514000D01*
Y510000D02*
Y518000D01*
Y514000D02*
Y518000D01*
Y514000D02*
X558000D01*
X554000D02*
X558000D01*
X448000D02*
X452000D01*
X448000D02*
Y518000D01*
Y510000D02*
Y518000D01*
Y510000D02*
Y514000D01*
X444000D02*
X448000D01*
X444000D02*
X448000D01*
X424000D02*
X428000D01*
Y510000D02*
Y514000D01*
Y510000D02*
Y518000D01*
Y514000D02*
Y518000D01*
Y514000D02*
X432000D01*
X428000D02*
X432000D01*
X457000Y284620D02*
Y288620D01*
X461000D01*
X457000D02*
Y292620D01*
Y288620D02*
Y292620D01*
X453000Y288620D02*
X457000D01*
X423000Y288370D02*
Y292370D01*
X419000Y288370D02*
X423000D01*
Y284370D02*
Y288370D01*
Y284370D02*
Y288370D01*
X427000D01*
X503000Y294000D02*
X507000D01*
X503000D02*
Y298000D01*
Y290000D02*
Y298000D01*
Y290000D02*
Y294000D01*
X499000D02*
X503000D01*
X499000D02*
X503000D01*
X300500Y622000D02*
Y626000D01*
X296500Y622000D02*
X300500D01*
X296500D02*
X304500D01*
X300500D02*
X304500D01*
X300500Y618000D02*
Y622000D01*
Y618000D02*
Y622000D01*
X178022Y623549D02*
Y627549D01*
X174022Y623549D02*
X178022D01*
X174022D02*
X182022D01*
X178022D02*
X182022D01*
X178022Y619549D02*
Y623549D01*
Y619549D02*
Y623549D01*
X321750Y602000D02*
Y606000D01*
X317750Y602000D02*
X321750D01*
X317750D02*
X325750D01*
X321750D02*
X325750D01*
X321750Y598000D02*
Y602000D01*
Y598000D02*
Y602000D01*
X199000D02*
Y606000D01*
X195000Y602000D02*
X199000D01*
X195000D02*
X203000D01*
X199000D02*
X203000D01*
X199000Y598000D02*
Y602000D01*
Y598000D02*
Y602000D01*
X341500Y449500D02*
X345500D01*
X341500D02*
Y453500D01*
Y445500D02*
Y453500D01*
Y445500D02*
Y449500D01*
X337500D02*
X341500D01*
X337500D02*
X341500D01*
X325000Y504000D02*
X329000D01*
X325000D02*
Y508000D01*
Y500000D02*
Y508000D01*
Y500000D02*
Y504000D01*
X321000D02*
X325000D01*
X321000D02*
X325000D01*
X301000D02*
X305000D01*
Y500000D02*
Y504000D01*
Y500000D02*
Y508000D01*
Y504000D02*
Y508000D01*
Y504000D02*
X309000D01*
X305000D02*
X309000D01*
X202000D02*
X206000D01*
X202000D02*
Y508000D01*
Y500000D02*
Y508000D01*
Y500000D02*
Y504000D01*
X198000D02*
X202000D01*
X198000D02*
X202000D01*
X178000D02*
X182000D01*
Y500000D02*
Y504000D01*
Y500000D02*
Y508000D01*
Y504000D02*
Y508000D01*
Y504000D02*
X186000D01*
X182000D02*
X186000D01*
X196750Y284500D02*
Y288500D01*
X200750D01*
X196750D02*
Y292500D01*
Y288500D02*
Y292500D01*
X192750Y288500D02*
X196750D01*
X163250Y288745D02*
Y292745D01*
X159250Y288745D02*
X163250D01*
Y284745D02*
Y288745D01*
Y284745D02*
Y288745D01*
X167250D01*
X232000Y295000D02*
X236000D01*
X232000D02*
Y299000D01*
Y291000D02*
Y299000D01*
Y291000D02*
Y295000D01*
X228000D02*
X232000D01*
X228000D02*
X232000D01*
X349000Y709164D02*
Y713164D01*
X353000D01*
X345000D02*
X353000D01*
X345000D02*
X349000D01*
Y717164D01*
Y713164D02*
Y717164D01*
X380500Y692164D02*
X384500D01*
X380500D02*
Y696164D01*
Y688164D02*
Y696164D01*
Y688164D02*
Y692164D01*
X376500D02*
X380500D01*
X376500D02*
X380500D01*
X426500Y762164D02*
Y766164D01*
X422500Y762164D02*
X426500D01*
X422500D02*
X430500D01*
X426500D02*
X430500D01*
X426500Y758164D02*
Y762164D01*
Y758164D02*
Y762164D01*
X337500Y736164D02*
Y740164D01*
X341500D01*
X333500D02*
X341500D01*
X333500D02*
X337500D01*
Y744164D01*
Y740164D02*
Y744164D01*
X339000Y756164D02*
Y760164D01*
X343000D01*
X335000D02*
X343000D01*
X335000D02*
X339000D01*
Y764164D01*
Y760164D02*
Y764164D01*
X340648Y778183D02*
X344648D01*
X340648D02*
Y782183D01*
X336648Y778183D02*
X340648D01*
X336648D02*
X340648D01*
Y774183D02*
Y778183D01*
X294234Y746688D02*
Y750688D01*
X298234D01*
X290234D02*
X298234D01*
X290234D02*
X294234D01*
Y754688D01*
Y750688D02*
Y754688D01*
X54500Y751500D02*
X58500D01*
Y747500D02*
Y751500D01*
X62500D01*
X58500D02*
X62500D01*
X58500D02*
Y755500D01*
X58250Y785500D02*
X62250D01*
X58250D02*
Y789500D01*
X54250Y785500D02*
X58250D01*
X54250D02*
X58250D01*
Y781500D02*
Y785500D01*
X325164Y685500D02*
X329164D01*
X325164D02*
Y689500D01*
Y681500D02*
Y689500D01*
Y681500D02*
Y685500D01*
X321164D02*
X325164D01*
X321164D02*
X325164D01*
X587500Y782500D02*
Y786500D01*
X583500Y782500D02*
X587500D01*
X583500D02*
X591500D01*
X587500D02*
X591500D01*
X587500Y778500D02*
Y782500D01*
Y778500D02*
Y782500D01*
X733000D02*
Y786500D01*
X729000Y782500D02*
X733000D01*
X729000D02*
X737000D01*
X733000D02*
X737000D01*
X733000Y778500D02*
Y782500D01*
Y778500D02*
Y782500D01*
X603250Y762000D02*
Y766000D01*
X599250Y762000D02*
X603250D01*
X599250D02*
X607250D01*
X603250D02*
X607250D01*
X603250Y758000D02*
Y762000D01*
Y758000D02*
Y762000D01*
X749750D02*
Y766000D01*
X745750Y762000D02*
X749750D01*
X745750D02*
X753750D01*
X749750D02*
X753750D01*
X749750Y758000D02*
Y762000D01*
Y758000D02*
Y762000D01*
X627250Y665750D02*
X631250D01*
X627250D02*
Y669750D01*
Y661750D02*
Y669750D01*
Y661750D02*
Y665750D01*
X623250D02*
X627250D01*
X623250D02*
X627250D01*
X603000D02*
X607000D01*
Y661750D02*
Y665750D01*
Y661750D02*
Y669750D01*
Y665750D02*
Y669750D01*
Y665750D02*
X611000D01*
X607000D02*
X611000D01*
X765000Y647500D02*
X769000D01*
X765000D02*
Y651500D01*
Y643500D02*
Y651500D01*
Y643500D02*
Y647500D01*
X761000D02*
X765000D01*
X761000D02*
X765000D01*
X741000D02*
X745000D01*
Y643500D02*
Y647500D01*
Y643500D02*
Y651500D01*
Y647500D02*
Y651500D01*
Y647500D02*
X749000D01*
X745000D02*
X749000D01*
X699500Y414000D02*
Y418000D01*
X703500D01*
X699500D02*
Y422000D01*
Y418000D02*
Y422000D01*
X695500Y418000D02*
X699500D01*
X665500Y417750D02*
Y421750D01*
X661500Y417750D02*
X665500D01*
Y413750D02*
Y417750D01*
Y413750D02*
Y417750D01*
X669500D01*
X747500Y422500D02*
X751500D01*
X747500D02*
Y426500D01*
Y418500D02*
Y426500D01*
Y418500D02*
Y422500D01*
X743500D02*
X747500D01*
X743500D02*
X747500D01*
X124662Y134250D02*
X128662D01*
Y130250D02*
Y134250D01*
Y130250D02*
Y138250D01*
Y134250D02*
Y138250D01*
Y134250D02*
X132662D01*
X128662D02*
X132662D01*
X185662D02*
X189662D01*
Y130250D02*
Y134250D01*
Y130250D02*
Y138250D01*
Y134250D02*
Y138250D01*
Y134250D02*
X193662D01*
X189662D02*
X193662D01*
X69801Y134500D02*
X73801D01*
Y130500D02*
Y134500D01*
Y130500D02*
Y138500D01*
Y134500D02*
Y138500D01*
Y134500D02*
X77801D01*
X73801D02*
X77801D01*
X658000Y186000D02*
Y190000D01*
X654000Y186000D02*
X658000D01*
X654000D02*
X662000D01*
X658000D02*
X662000D01*
X658000Y182000D02*
Y186000D01*
Y182000D02*
Y186000D01*
X543000D02*
Y190000D01*
X539000Y186000D02*
X543000D01*
X539000D02*
X547000D01*
X543000D02*
X547000D01*
X543000Y182000D02*
Y186000D01*
Y182000D02*
Y186000D01*
X428500Y185000D02*
Y189000D01*
X424500Y185000D02*
X428500D01*
X424500D02*
X432500D01*
X428500D02*
X432500D01*
X428500Y181000D02*
Y185000D01*
Y181000D02*
Y185000D01*
X313500D02*
Y189000D01*
X309500Y185000D02*
X313500D01*
X309500D02*
X317500D01*
X313500D02*
X317500D01*
X313500Y181000D02*
Y185000D01*
Y181000D02*
Y185000D01*
X649750Y214750D02*
X653750D01*
X649750D02*
Y218750D01*
Y210750D02*
Y218750D01*
Y210750D02*
Y214750D01*
X645750D02*
X649750D01*
X645750D02*
X649750D01*
X533000Y202250D02*
Y206250D01*
X537000D01*
X529000D02*
X537000D01*
X529000D02*
X533000D01*
Y210250D01*
Y206250D02*
Y210250D01*
X418500Y201750D02*
Y205750D01*
X422500D01*
X414500D02*
X422500D01*
X414500D02*
X418500D01*
Y209750D01*
Y205750D02*
Y209750D01*
X303500Y201250D02*
Y205250D01*
X307500D01*
X299500D02*
X307500D01*
X299500D02*
X303500D01*
Y209250D01*
Y205250D02*
Y209250D01*
X588000Y134000D02*
Y138000D01*
X592000D01*
X584000D02*
X592000D01*
X584000D02*
X588000D01*
Y142000D01*
Y138000D02*
Y142000D01*
X473500Y134000D02*
Y138000D01*
X477500D01*
X469500D02*
X477500D01*
X469500D02*
X473500D01*
Y142000D01*
Y138000D02*
Y142000D01*
X358000Y134000D02*
Y138000D01*
X362000D01*
X354000D02*
X362000D01*
X354000D02*
X358000D01*
Y142000D01*
Y138000D02*
Y142000D01*
X242500Y134000D02*
Y138000D01*
X246500D01*
X238500D02*
X246500D01*
X238500D02*
X242500D01*
Y142000D01*
Y138000D02*
Y142000D01*
X658000Y162000D02*
Y166000D01*
X662000D01*
X654000D02*
X662000D01*
X654000D02*
X658000D01*
Y170000D01*
Y166000D02*
Y170000D01*
X543000Y162000D02*
Y166000D01*
X547000D01*
X539000D02*
X547000D01*
X539000D02*
X543000D01*
Y170000D01*
Y166000D02*
Y170000D01*
X428500Y161000D02*
Y165000D01*
X432500D01*
X424500D02*
X432500D01*
X424500D02*
X428500D01*
Y169000D01*
Y165000D02*
Y169000D01*
X313500Y161000D02*
Y165000D01*
X317500D01*
X309500D02*
X317500D01*
X309500D02*
X313500D01*
Y169000D01*
Y165000D02*
Y169000D01*
X658000Y146000D02*
Y150000D01*
X654000Y146000D02*
X658000D01*
X654000D02*
X662000D01*
X658000D02*
X662000D01*
X658000Y142000D02*
Y146000D01*
Y142000D02*
Y146000D01*
X543000D02*
Y150000D01*
X539000Y146000D02*
X543000D01*
X539000D02*
X547000D01*
X543000D02*
X547000D01*
X543000Y142000D02*
Y146000D01*
Y142000D02*
Y146000D01*
X313500Y145000D02*
Y149000D01*
X309500Y145000D02*
X313500D01*
X309500D02*
X317500D01*
X313500D02*
X317500D01*
X313500Y141000D02*
Y145000D01*
Y141000D02*
Y145000D01*
X645750Y117000D02*
X649750D01*
Y113000D02*
Y117000D01*
Y113000D02*
Y121000D01*
Y117000D02*
Y121000D01*
Y117000D02*
X653750D01*
X649750D02*
X653750D01*
X530500Y116750D02*
X534500D01*
Y112750D02*
Y116750D01*
Y112750D02*
Y120750D01*
Y116750D02*
Y120750D01*
Y116750D02*
X538500D01*
X534500D02*
X538500D01*
X415500Y116250D02*
X419500D01*
Y112250D02*
Y116250D01*
Y112250D02*
Y120250D01*
Y116250D02*
Y120250D01*
Y116250D02*
X423500D01*
X419500D02*
X423500D01*
X300750Y115750D02*
X304750D01*
Y111750D02*
Y115750D01*
Y111750D02*
Y119750D01*
Y115750D02*
Y119750D01*
Y115750D02*
X308750D01*
X304750D02*
X308750D01*
X734500Y266500D02*
X737000D01*
X734500D02*
X737000D01*
Y269000D01*
Y264000D02*
Y269000D01*
Y264000D02*
Y266500D01*
X739500D01*
X294164Y686500D02*
Y691500D01*
X289164Y686500D02*
X294164D01*
Y681500D02*
Y686500D01*
X299164D01*
X457200Y870000D02*
Y872500D01*
Y870000D02*
X459700D01*
X454700D02*
X459700D01*
X454700D02*
X457200D01*
Y867500D02*
Y870000D01*
Y867500D02*
Y870000D01*
X172500Y417500D02*
X175000D01*
X172500Y415000D02*
Y417500D01*
Y415000D02*
Y420000D01*
Y417500D02*
Y420000D01*
X170000Y417500D02*
X172500D01*
X170000D02*
X172500D01*
X162706Y781662D02*
Y784162D01*
X160206D02*
X162706D01*
X160206D02*
X162706D01*
X165206D01*
X162706D02*
X165206D01*
X162706D02*
Y786662D01*
Y784162D02*
Y786662D01*
X675000Y542500D02*
X677500D01*
X675000Y540000D02*
Y542500D01*
Y540000D02*
Y545000D01*
Y542500D02*
Y545000D01*
X672500Y542500D02*
X675000D01*
X672500D02*
X675000D01*
X849000Y352000D02*
X851500D01*
X849000Y349500D02*
Y352000D01*
Y349500D02*
Y352000D01*
Y354500D01*
Y352000D02*
Y354500D01*
X846500Y352000D02*
X849000D01*
X846500D02*
X849000D01*
X59000Y600000D02*
X63000D01*
X59000Y596000D02*
Y600000D01*
X55000D02*
X59000D01*
Y604000D01*
X598000Y154000D02*
Y156500D01*
Y154000D02*
Y156500D01*
Y154000D02*
X600500D01*
X595500D02*
X600500D01*
X595500D02*
X598000D01*
Y151500D02*
Y154000D01*
X483000D02*
Y156500D01*
Y154000D02*
Y156500D01*
Y154000D02*
X485500D01*
X480500D02*
X485500D01*
X480500D02*
X483000D01*
Y151500D02*
Y154000D01*
X367000D02*
Y156500D01*
Y154000D02*
Y156500D01*
Y154000D02*
X369500D01*
X364500D02*
X369500D01*
X364500D02*
X367000D01*
Y151500D02*
Y154000D01*
X252000D02*
Y156500D01*
Y154000D02*
Y156500D01*
Y154000D02*
X254500D01*
X249500D02*
X254500D01*
X249500D02*
X252000D01*
Y151500D02*
Y154000D01*
X93000Y600000D02*
X97000D01*
Y604000D01*
Y600000D02*
X101000D01*
X97000Y596000D02*
Y600000D01*
X494250Y508000D02*
Y512000D01*
X490250Y508000D02*
X494250D01*
X490250D02*
X498250D01*
X494250D02*
X498250D01*
X494250Y504000D02*
Y508000D01*
Y504000D02*
Y508000D01*
X108662Y134250D02*
X112662D01*
X108662D02*
Y138250D01*
Y130250D02*
Y138250D01*
Y130250D02*
Y134250D01*
X104662D02*
X108662D01*
X104662D02*
X108662D01*
X169662D02*
X173662D01*
X169662D02*
Y138250D01*
Y130250D02*
Y138250D01*
Y130250D02*
Y134250D01*
X165662D02*
X169662D01*
X165662D02*
X169662D01*
X49801Y134500D02*
X53801D01*
X49801D02*
X53801D01*
Y130500D02*
Y134500D01*
Y130500D02*
Y138500D01*
Y134500D02*
Y138500D01*
Y134500D02*
X57801D01*
X696500Y752500D02*
Y755000D01*
X694000D02*
X696500D01*
X694000D02*
X699000D01*
X696500D02*
X699000D01*
X696500D02*
Y757500D01*
Y755000D02*
Y757500D01*
X547500Y757500D02*
Y760000D01*
X545000D02*
X547500D01*
X545000D02*
X550000D01*
X547500D02*
X550000D01*
X547500D02*
Y762500D01*
Y760000D02*
Y762500D01*
X514500Y601500D02*
Y604000D01*
X512000D02*
X514500D01*
X512000D02*
X517000D01*
X514500D02*
X517000D01*
X514500D02*
Y606500D01*
Y604000D02*
Y606500D01*
X388000Y600500D02*
Y603000D01*
X385500D02*
X388000D01*
X385500D02*
X390500D01*
X388000D02*
X390500D01*
X388000D02*
Y605500D01*
Y603000D02*
Y605500D01*
X265000Y590500D02*
Y593000D01*
X262500D02*
X265000D01*
X262500D02*
X267500D01*
X265000D02*
X267500D01*
X265000D02*
Y595500D01*
Y593000D02*
Y595500D01*
X142000Y590500D02*
Y593000D01*
X139500D02*
X142000D01*
X139500D02*
X144500D01*
X142000D02*
X144500D01*
X142000D02*
Y595500D01*
Y593000D02*
Y595500D01*
X518000Y585000D02*
Y587500D01*
Y585000D02*
Y587500D01*
X515500Y585000D02*
X518000D01*
X515500D02*
X518000D01*
Y582500D02*
Y585000D01*
Y582500D02*
Y585000D01*
X520500D01*
X391000Y584000D02*
Y586500D01*
Y584000D02*
Y586500D01*
X388500Y584000D02*
X391000D01*
X388500D02*
X391000D01*
Y581500D02*
Y584000D01*
Y581500D02*
Y584000D01*
X393500D01*
X268000Y574000D02*
Y576500D01*
Y574000D02*
Y576500D01*
X265500Y574000D02*
X268000D01*
X265500D02*
X268000D01*
Y571500D02*
Y574000D01*
Y571500D02*
Y574000D01*
X270500D01*
X146000D02*
Y576500D01*
Y574000D02*
Y576500D01*
X143500Y574000D02*
X146000D01*
X143500D02*
X146000D01*
Y571500D02*
Y574000D01*
Y571500D02*
Y574000D01*
X148500D01*
X412500Y697500D02*
X415000D01*
X412500D02*
X415000D01*
Y700000D01*
Y695000D02*
Y700000D01*
Y695000D02*
Y697500D01*
X417500D01*
X699000Y735000D02*
Y737500D01*
Y735000D02*
Y737500D01*
X696500Y735000D02*
X699000D01*
X696500D02*
X699000D01*
Y732500D02*
Y735000D01*
Y732500D02*
Y735000D01*
X701500D01*
X550000Y740000D02*
Y742500D01*
Y740000D02*
Y742500D01*
X547500Y740000D02*
X550000D01*
X547500D02*
X550000D01*
Y737500D02*
Y740000D01*
Y737500D02*
Y740000D01*
X552500D01*
X598000Y224000D02*
X600500D01*
X598000Y221500D02*
Y224000D01*
Y221500D02*
Y226500D01*
Y224000D02*
Y226500D01*
X595500Y224000D02*
X598000D01*
X595500D02*
X598000D01*
X484000D02*
X486500D01*
X484000Y221500D02*
Y224000D01*
Y221500D02*
Y226500D01*
Y224000D02*
Y226500D01*
X481500Y224000D02*
X484000D01*
X481500D02*
X484000D01*
X368000D02*
X370500D01*
X368000Y221500D02*
Y224000D01*
Y221500D02*
Y226500D01*
Y224000D02*
Y226500D01*
X365500Y224000D02*
X368000D01*
X365500D02*
X368000D01*
X254000D02*
X256500D01*
X254000Y221500D02*
Y224000D01*
Y221500D02*
Y226500D01*
Y224000D02*
Y226500D01*
X251500Y224000D02*
X254000D01*
X251500D02*
X254000D01*
X146000Y235000D02*
Y237500D01*
Y235000D02*
Y237500D01*
X143500Y235000D02*
X146000D01*
X143500D02*
X146000D01*
Y232500D02*
Y235000D01*
Y232500D02*
Y235000D01*
X148500D01*
X779000Y199500D02*
Y202000D01*
Y199500D02*
Y202000D01*
X781500D01*
X779000D02*
X781500D01*
X779000D02*
Y204500D01*
Y202000D02*
Y204500D01*
X776500Y202000D02*
X779000D01*
X768750Y300250D02*
Y302750D01*
Y300250D02*
Y302750D01*
X771250D01*
X768750D02*
X771250D01*
X768750D02*
Y305250D01*
Y302750D02*
Y305250D01*
X766250Y302750D02*
X768750D01*
X671500Y366250D02*
Y368750D01*
Y366250D02*
Y368750D01*
X669000Y366250D02*
X671500D01*
X669000D02*
X671500D01*
Y363750D02*
Y366250D01*
Y363750D02*
Y366250D01*
X674000D01*
X589750Y568000D02*
Y570500D01*
Y568000D02*
X592250D01*
X587250D02*
X592250D01*
X587250D02*
X589750D01*
Y565500D02*
Y568000D01*
Y565500D02*
Y568000D01*
X465000D02*
Y570500D01*
Y568000D02*
X467500D01*
X462500D02*
X467500D01*
X462500D02*
X465000D01*
Y565500D02*
Y568000D01*
Y565500D02*
Y568000D01*
X571500Y591000D02*
Y593500D01*
Y591000D02*
X574000D01*
X569000D02*
X574000D01*
X569000D02*
X571500D01*
Y588500D02*
Y591000D01*
Y588500D02*
Y591000D01*
X445500Y589000D02*
Y591500D01*
Y589000D02*
X448000D01*
X443000D02*
X448000D01*
X443000D02*
X445500D01*
Y586500D02*
Y589000D01*
Y586500D02*
Y589000D01*
X522000Y523000D02*
Y525500D01*
Y523000D02*
Y525500D01*
X519500Y523000D02*
X522000D01*
X519500D02*
X522000D01*
Y520500D02*
Y523000D01*
Y520500D02*
Y523000D01*
X524500D01*
X396000Y520000D02*
Y522500D01*
Y520000D02*
Y522500D01*
X393500Y520000D02*
X396000D01*
X393500D02*
X396000D01*
Y517500D02*
Y520000D01*
Y517500D02*
Y520000D01*
X398500D01*
X440000Y287370D02*
X442500D01*
X440000D02*
X442500D01*
X440000D02*
Y289870D01*
Y287370D02*
Y289870D01*
X437500Y287370D02*
X440000D01*
X437500D02*
X440000D01*
Y284870D02*
Y287370D01*
X490500Y454250D02*
X493000D01*
X490500D02*
X493000D01*
Y451750D02*
Y454250D01*
Y451750D02*
Y454250D01*
X495500D01*
X493000D02*
X495500D01*
X493000D02*
Y456750D01*
X515000Y450000D02*
X517500D01*
X515000Y447500D02*
Y450000D01*
Y447500D02*
Y452500D01*
Y450000D02*
Y452500D01*
X512500Y450000D02*
X515000D01*
X512500D02*
X515000D01*
X577500Y430000D02*
X580000D01*
Y432500D01*
Y427500D02*
Y432500D01*
Y427500D02*
Y430000D01*
X582500D01*
X580000D02*
X582500D01*
X417000Y335000D02*
Y337500D01*
Y335000D02*
Y337500D01*
X414500Y335000D02*
X417000D01*
X414500D02*
X417000D01*
Y332500D02*
Y335000D01*
Y332500D02*
Y335000D01*
X419500D01*
X420500Y311500D02*
Y314000D01*
X418000D02*
X420500D01*
X418000D02*
X423000D01*
X420500D02*
X423000D01*
X420500D02*
Y316500D01*
Y314000D02*
Y316500D01*
X490500Y337500D02*
X493000D01*
Y340000D01*
Y337500D02*
Y340000D01*
Y335000D02*
Y337500D01*
Y335000D02*
Y337500D01*
X495500D01*
X493000D02*
X495500D01*
X515000Y351500D02*
X517500D01*
X515000D02*
X517500D01*
X515000Y349000D02*
Y351500D01*
Y349000D02*
Y354000D01*
Y351500D02*
Y354000D01*
X512500Y351500D02*
X515000D01*
X546000D02*
X548500D01*
X546000D02*
X548500D01*
X546000Y349000D02*
Y351500D01*
Y349000D02*
Y354000D01*
Y351500D02*
Y354000D01*
X543500Y351500D02*
X546000D01*
X342000Y558000D02*
Y560500D01*
Y558000D02*
X344500D01*
X339500D02*
X344500D01*
X339500D02*
X342000D01*
Y555500D02*
Y558000D01*
Y555500D02*
Y558000D01*
X218500D02*
Y560500D01*
Y558000D02*
X221000D01*
X216000D02*
X221000D01*
X216000D02*
X218500D01*
Y555500D02*
Y558000D01*
Y555500D02*
Y558000D01*
X323000Y581000D02*
Y583500D01*
Y581000D02*
X325500D01*
X320500D02*
X325500D01*
X320500D02*
X323000D01*
Y578500D02*
Y581000D01*
Y578500D02*
Y581000D01*
X200250D02*
Y583500D01*
Y581000D02*
X202750D01*
X197750D02*
X202750D01*
X197750D02*
X200250D01*
Y578500D02*
Y581000D01*
Y578500D02*
Y581000D01*
X270000Y512000D02*
Y514500D01*
Y512000D02*
Y514500D01*
X267500Y512000D02*
X270000D01*
X267500D02*
X270000D01*
Y509500D02*
Y512000D01*
Y509500D02*
Y512000D01*
X272500D01*
X146000Y515000D02*
Y517500D01*
Y515000D02*
Y517500D01*
X143500Y515000D02*
X146000D01*
X143500D02*
X146000D01*
Y512500D02*
Y515000D01*
Y512500D02*
Y515000D01*
X148500D01*
X180250Y287745D02*
X182750D01*
X180250D02*
X182750D01*
X180250D02*
Y290245D01*
Y287745D02*
Y290245D01*
X177750Y287745D02*
X180250D01*
X177750D02*
X180250D01*
Y285245D02*
Y287745D01*
X232500Y455000D02*
X235000D01*
X232500D02*
X235000D01*
Y452500D02*
Y455000D01*
Y452500D02*
Y455000D01*
X237500D01*
X235000D02*
X237500D01*
X235000D02*
Y457500D01*
X254569Y451214D02*
X257069D01*
X254569Y448714D02*
Y451214D01*
Y448714D02*
Y453714D01*
Y451214D02*
Y453714D01*
X252069Y451214D02*
X254569D01*
X252069D02*
X254569D01*
X161500Y335000D02*
Y337500D01*
Y335000D02*
Y337500D01*
X159000Y335000D02*
X161500D01*
X159000D02*
X161500D01*
Y332500D02*
Y335000D01*
Y332500D02*
Y335000D01*
X164000D01*
X162500Y312500D02*
Y315000D01*
X160000D02*
X162500D01*
X160000D02*
X165000D01*
X162500D02*
X165000D01*
X162500D02*
Y317500D01*
Y315000D02*
Y317500D01*
X236500Y337500D02*
X239000D01*
Y340000D01*
Y337500D02*
Y340000D01*
Y335000D02*
Y337500D01*
Y335000D02*
Y337500D01*
X241500D01*
X239000D02*
X241500D01*
X292000Y351500D02*
X294500D01*
X292000D02*
X294500D01*
X292000Y349000D02*
Y351500D01*
Y349000D02*
Y354000D01*
Y351500D02*
Y354000D01*
X289500Y351500D02*
X292000D01*
X261000D02*
X263500D01*
X261000D02*
X263500D01*
X261000Y349000D02*
Y351500D01*
Y349000D02*
Y354000D01*
Y351500D02*
Y354000D01*
X258500Y351500D02*
X261000D01*
X428000Y784164D02*
Y786664D01*
Y784164D02*
X430500D01*
X425500D02*
X430500D01*
X425500D02*
X428000D01*
Y781664D02*
Y784164D01*
Y781664D02*
Y784164D01*
Y741000D02*
Y743500D01*
Y741000D02*
X430500D01*
X425500D02*
X430500D01*
X425500D02*
X428000D01*
Y738500D02*
Y741000D01*
Y738500D02*
Y741000D01*
X57250Y766000D02*
Y768500D01*
Y766000D02*
Y768500D01*
X59750D01*
X57250D02*
X59750D01*
X57250D02*
Y771000D01*
Y768500D02*
Y771000D01*
X54750Y768500D02*
X57250D01*
X201779Y767484D02*
X204279D01*
X201779D02*
X204279D01*
Y764984D02*
Y767484D01*
Y764984D02*
Y767484D01*
X206779D01*
X204279D02*
X206779D01*
X204279D02*
Y769984D01*
X113250Y801500D02*
Y804000D01*
Y801500D02*
Y804000D01*
X115750D01*
X113250D02*
X115750D01*
X113250D02*
Y806500D01*
Y804000D02*
Y806500D01*
X110750Y804000D02*
X113250D01*
X82000Y789500D02*
X84500D01*
Y792000D01*
Y787000D02*
Y792000D01*
Y787000D02*
Y789500D01*
X87000D01*
X84500D02*
X87000D01*
X115500Y726000D02*
Y728500D01*
Y726000D02*
X118000D01*
X115500D02*
X118000D01*
X113000D02*
X115500D01*
X113000D02*
X115500D01*
Y723500D02*
Y726000D01*
Y723500D02*
Y726000D01*
X117000Y700500D02*
Y703000D01*
Y700500D02*
Y703000D01*
X114500D02*
X117000D01*
X114500D02*
X119500D01*
X117000D02*
X119500D01*
X117000D02*
Y705500D01*
Y668500D02*
Y671000D01*
Y668500D02*
Y671000D01*
X114500D02*
X117000D01*
X114500D02*
X119500D01*
X117000D02*
X119500D01*
X117000D02*
Y673500D01*
X630000Y720000D02*
Y722500D01*
Y720000D02*
X632500D01*
X627500D02*
X632500D01*
X627500D02*
X630000D01*
Y717500D02*
Y720000D01*
Y717500D02*
Y720000D01*
X771750Y718000D02*
Y720500D01*
Y718000D02*
X774250D01*
X769250D02*
X774250D01*
X769250D02*
X771750D01*
Y715500D02*
Y718000D01*
Y715500D02*
Y718000D01*
X606157Y743122D02*
Y745622D01*
Y743122D02*
X608657D01*
X603657D02*
X608657D01*
X603657D02*
X606157D01*
Y740622D02*
Y743122D01*
Y740622D02*
Y743122D01*
X560000Y677500D02*
Y680000D01*
Y677500D02*
Y680000D01*
X557500Y677500D02*
X560000D01*
X557500D02*
X560000D01*
Y675000D02*
Y677500D01*
Y675000D02*
Y677500D01*
X562500D01*
X751000Y741000D02*
Y743500D01*
Y741000D02*
X753500D01*
X748500D02*
X753500D01*
X748500D02*
X751000D01*
Y738500D02*
Y741000D01*
Y738500D02*
Y741000D01*
X704000Y675000D02*
Y677500D01*
Y675000D02*
Y677500D01*
X701500Y675000D02*
X704000D01*
X701500D02*
X704000D01*
Y672500D02*
Y675000D01*
Y672500D02*
Y675000D01*
X706500D01*
X682500Y416750D02*
X685000D01*
X682500D02*
X685000D01*
X682500D02*
Y419250D01*
Y416750D02*
Y419250D01*
X680000Y416750D02*
X682500D01*
X680000D02*
X682500D01*
Y414250D02*
Y416750D01*
X735500Y582000D02*
X738000D01*
X735500D02*
X738000D01*
Y579500D02*
Y582000D01*
Y579500D02*
Y582000D01*
X740500D01*
X738000D02*
X740500D01*
X738000D02*
Y584500D01*
X778000Y578500D02*
X780500D01*
X778000Y576000D02*
Y578500D01*
Y576000D02*
Y581000D01*
Y578500D02*
Y581000D01*
X775500Y578500D02*
X778000D01*
X775500D02*
X778000D01*
X757000D02*
X759500D01*
X757000Y576000D02*
Y578500D01*
Y576000D02*
Y581000D01*
Y578500D02*
Y581000D01*
X754500Y578500D02*
X757000D01*
X754500D02*
X757000D01*
X666000Y465000D02*
Y467500D01*
Y465000D02*
Y467500D01*
X663500Y465000D02*
X666000D01*
X663500D02*
X666000D01*
Y462500D02*
Y465000D01*
Y462500D02*
Y465000D01*
X668500D01*
X667500Y442500D02*
Y445000D01*
X665000D02*
X667500D01*
X665000D02*
X670000D01*
X667500D02*
X670000D01*
X667500D02*
Y447500D01*
Y445000D02*
Y447500D01*
X736000Y467500D02*
X738500D01*
Y470000D01*
Y467500D02*
Y470000D01*
Y465000D02*
Y467500D01*
Y465000D02*
Y467500D01*
X741000D01*
X738500D02*
X741000D01*
X792000Y481250D02*
X794500D01*
X792000D02*
X794500D01*
X792000Y478750D02*
Y481250D01*
Y478750D02*
Y483750D01*
Y481250D02*
Y483750D01*
X789500Y481250D02*
X792000D01*
X761000D02*
X763500D01*
X761000D02*
X763500D01*
X761000Y478750D02*
Y481250D01*
Y478750D02*
Y483750D01*
Y481250D02*
Y483750D01*
X758500Y481250D02*
X761000D01*
X374250Y281250D02*
Y283750D01*
Y281250D02*
X376750D01*
X374250D02*
X376750D01*
X371750D02*
X374250D01*
X371750D02*
X374250D01*
Y278750D02*
Y281250D01*
Y278750D02*
Y281250D01*
X366000Y299000D02*
X368500D01*
X366000Y296500D02*
Y299000D01*
Y296500D02*
Y299000D01*
Y301500D01*
Y299000D02*
Y301500D01*
X363500Y299000D02*
X366000D01*
X363500D02*
X366000D01*
X586500Y181500D02*
Y184000D01*
X584000D02*
X586500D01*
X584000D02*
X589000D01*
X586500D02*
X589000D01*
X586500D02*
Y186500D01*
Y184000D02*
Y186500D01*
X476070Y187712D02*
Y190212D01*
X473570D02*
X476070D01*
X473570D02*
X478570D01*
X476070D02*
X478570D01*
X476070D02*
Y192712D01*
Y190212D02*
Y192712D01*
X356500Y181500D02*
Y184000D01*
X354000D02*
X356500D01*
X354000D02*
X359000D01*
X356500D02*
X359000D01*
X356500D02*
Y186500D01*
Y184000D02*
Y186500D01*
X242000Y181500D02*
Y184000D01*
X239500D02*
X242000D01*
X239500D02*
X244500D01*
X242000D02*
X244500D01*
X242000D02*
Y186500D01*
Y184000D02*
Y186500D01*
X577000Y224000D02*
X579500D01*
X577000Y221500D02*
Y224000D01*
Y221500D02*
Y226500D01*
Y224000D02*
Y226500D01*
X574500Y224000D02*
X577000D01*
X574500D02*
X577000D01*
X463000D02*
X465500D01*
X463000Y221500D02*
Y224000D01*
Y221500D02*
Y226500D01*
Y224000D02*
Y226500D01*
X460500Y224000D02*
X463000D01*
X460500D02*
X463000D01*
X347000D02*
X349500D01*
X347000Y221500D02*
Y224000D01*
Y221500D02*
Y226500D01*
Y224000D02*
Y226500D01*
X344500Y224000D02*
X347000D01*
X344500D02*
X347000D01*
X232000D02*
X234500D01*
X232000Y221500D02*
Y224000D01*
Y221500D02*
Y226500D01*
Y224000D02*
Y226500D01*
X229500Y224000D02*
X232000D01*
X229500D02*
X232000D01*
X618000Y99750D02*
Y102250D01*
X615500D02*
X618000D01*
X615500D02*
X620500D01*
X618000D02*
X620500D01*
X618000D02*
Y104750D01*
Y102250D02*
Y104750D01*
X503250Y99500D02*
Y102000D01*
X500750D02*
X503250D01*
X500750D02*
X505750D01*
X503250D02*
X505750D01*
X503250D02*
Y104500D01*
Y102000D02*
Y104500D01*
X388250Y99500D02*
Y102000D01*
X385750D02*
X388250D01*
X385750D02*
X390750D01*
X388250D02*
X390750D01*
X388250D02*
Y104500D01*
Y102000D02*
Y104500D01*
X273750Y99000D02*
Y101500D01*
X271250D02*
X273750D01*
X271250D02*
X276250D01*
X273750D02*
X276250D01*
X273750D02*
Y104000D01*
Y101500D02*
Y104000D01*
M02*
