G04*
G04 #@! TF.GenerationSoftware,Altium Limited,Altium Designer,26.2.0 (7)*
G04*
G04 Layer_Color=2752767*
%FSLAX44Y44*%
%MOMM*%
G71*
G04*
G04 #@! TF.SameCoordinates,D5DFED66-1DDD-4205-BACF-39BFCEB3ABE1*
G04*
G04*
G04 #@! TF.FilePolarity,Positive*
G04*
G01*
G75*
%ADD14C,0.1270*%
%ADD132C,0.1693*%
D14*
X848360Y48260D02*
Y45720D01*
X853440D01*
Y48260D01*
X855980D01*
Y53340D01*
X853440D01*
Y55880D01*
X848360D01*
Y53340D01*
X845820D01*
Y48260D01*
X848360D01*
X86360Y905560D02*
Y903020D01*
X91440D01*
Y905560D01*
X93980D01*
Y910640D01*
X91440D01*
Y913180D01*
X86360D01*
Y910640D01*
X83820D01*
Y905560D01*
X86360D01*
X822960D02*
Y903020D01*
X828040D01*
Y905560D01*
X830580D01*
Y910640D01*
X828040D01*
Y913180D01*
X822960D01*
Y910640D01*
X820420D01*
Y905560D01*
X822960D01*
X47460Y47460D02*
Y44920D01*
X52540D01*
Y47460D01*
X55080D01*
Y52540D01*
X52540D01*
Y55080D01*
X47460D01*
Y52540D01*
X44920D01*
Y47460D01*
X47460D01*
X388620Y903020D02*
Y913180D01*
X398780D01*
Y903020D01*
X388620D01*
X414020Y877620D02*
Y887780D01*
X424180D01*
Y877620D01*
X414020D01*
X388620D02*
Y887780D01*
X398780D01*
Y877620D01*
X388620D01*
X414020Y903020D02*
Y913180D01*
X424180D01*
Y903020D01*
X414020D01*
X388620Y852220D02*
Y862380D01*
X398780D01*
Y852220D01*
X388620D01*
X414020Y826820D02*
Y836980D01*
X424180D01*
Y826820D01*
X414020D01*
X388620D02*
Y836980D01*
X398780D01*
Y826820D01*
X388620D01*
X414020Y852220D02*
Y862380D01*
X424180D01*
Y852220D01*
X414020D01*
X758420Y71570D02*
X760960Y76650D01*
X758420Y81730D01*
X763500Y79190D01*
X768580Y81730D01*
X766040Y76650D01*
X768580Y71570D01*
X763500Y74110D01*
X758420Y71570D01*
X748270Y147770D02*
X750810Y152850D01*
X748270Y157930D01*
X753350Y155390D01*
X758430Y157930D01*
X755890Y152850D01*
X758430Y147770D01*
X753350Y150310D01*
X748270Y147770D01*
X768570D02*
X771110Y152850D01*
X768570Y157930D01*
X773650Y155390D01*
X778730Y157930D01*
X776190Y152850D01*
X778730Y147770D01*
X773650Y150310D01*
X768570Y147770D01*
X738100Y71570D02*
X740640Y74110D01*
X743180D01*
X740640Y76650D01*
X743180Y79190D01*
X740640D01*
X738100Y81730D01*
X735560Y79190D01*
X733020D01*
X735560Y76650D01*
X733020Y74110D01*
X735560D01*
X738100Y71570D01*
Y128720D02*
X740640Y131260D01*
X743180D01*
X740640Y133800D01*
X743180Y136340D01*
X740640D01*
X738100Y138880D01*
X735560Y136340D01*
X733020D01*
X735560Y133800D01*
X733020Y131260D01*
X735560D01*
X738100Y128720D01*
X788900Y71570D02*
X791440Y74110D01*
X793980D01*
X791440Y76650D01*
X793980Y79190D01*
X791440D01*
X788900Y81730D01*
X786360Y79190D01*
X783820D01*
X786360Y76650D01*
X783820Y74110D01*
X786360D01*
X788900Y71570D01*
Y128720D02*
X791440Y131260D01*
X793980D01*
X791440Y133800D01*
X793980Y136340D01*
X791440D01*
X788900Y138880D01*
X786360Y136340D01*
X783820D01*
X786360Y133800D01*
X783820Y131260D01*
X786360D01*
X788900Y128720D01*
X210820Y852220D02*
Y862380D01*
X220980D01*
Y852220D01*
X210820D01*
Y826820D02*
Y836980D01*
X220980D01*
Y826820D01*
X210820D01*
X134620D02*
Y836980D01*
X144780D01*
Y826820D01*
X134620D01*
Y852220D02*
Y862380D01*
X144780D01*
Y852220D01*
X134620D01*
X160020Y826820D02*
Y836980D01*
X170180D01*
Y826820D01*
X160020D01*
X236220Y852220D02*
Y862380D01*
X246380D01*
Y852220D01*
X236220D01*
X287020Y826820D02*
Y836980D01*
X297180D01*
Y826820D01*
X287020D01*
X261620D02*
Y836980D01*
X271780D01*
Y826820D01*
X261620D01*
Y852220D02*
Y862380D01*
X271780D01*
Y852220D01*
X261620D01*
X287020D02*
Y862380D01*
X297180D01*
Y852220D01*
X287020D01*
X312420Y826820D02*
Y836980D01*
X322580D01*
Y826820D01*
X312420D01*
X363220D02*
Y836980D01*
X373380D01*
Y826820D01*
X363220D01*
X337820D02*
Y836980D01*
X347980D01*
Y826820D01*
X337820D01*
X312420Y852220D02*
Y862380D01*
X322580D01*
Y852220D01*
X312420D01*
X337820D02*
Y862380D01*
X347980D01*
Y852220D01*
X337820D01*
X236220Y826820D02*
Y836980D01*
X246380D01*
Y826820D01*
X236220D01*
X185420Y852220D02*
Y862380D01*
X195580D01*
Y852220D01*
X185420D01*
Y826820D02*
Y836980D01*
X195580D01*
Y826820D01*
X185420D01*
X160020Y852220D02*
Y862380D01*
X170180D01*
Y852220D01*
X160020D01*
X439420D02*
Y862380D01*
X449580D01*
Y852220D01*
X439420D01*
Y826820D02*
Y836980D01*
X449580D01*
Y826820D01*
X439420D01*
X363220Y852220D02*
Y862380D01*
X373380D01*
Y852220D01*
X363220D01*
X464820Y826820D02*
Y836980D01*
X474980D01*
Y826820D01*
X464820D01*
Y852220D02*
Y862380D01*
X474980D01*
Y852220D01*
X464820D01*
X490220Y826820D02*
Y836980D01*
X500380D01*
Y826820D01*
X490220D01*
X642620Y852220D02*
Y862380D01*
X652780D01*
Y852220D01*
X642620D01*
Y826820D02*
Y836980D01*
X652780D01*
Y826820D01*
X642620D01*
X591820D02*
Y836980D01*
X601980D01*
Y826820D01*
X591820D01*
Y852220D02*
Y862380D01*
X601980D01*
Y852220D01*
X591820D01*
X617220Y826820D02*
Y836980D01*
X627380D01*
Y826820D01*
X617220D01*
X668020D02*
Y836980D01*
X678180D01*
Y826820D01*
X668020D01*
Y852220D02*
Y862380D01*
X678180D01*
Y852220D01*
X668020D01*
X566420Y826820D02*
Y836980D01*
X576580D01*
Y826820D01*
X566420D01*
X617220Y852220D02*
Y862380D01*
X627380D01*
Y852220D01*
X617220D01*
X541020D02*
Y862380D01*
X551180D01*
Y852220D01*
X541020D01*
X693420Y826820D02*
Y836980D01*
X703580D01*
Y826820D01*
X693420D01*
X566420Y852220D02*
Y862380D01*
X576580D01*
Y852220D01*
X566420D01*
X769620D02*
Y862380D01*
X779780D01*
Y852220D01*
X769620D01*
X718820D02*
Y862380D01*
X728980D01*
Y852220D01*
X718820D01*
X744220Y826820D02*
Y836980D01*
X754380D01*
Y826820D01*
X744220D01*
Y852220D02*
Y862380D01*
X754380D01*
Y852220D01*
X744220D01*
X769620Y826820D02*
Y836980D01*
X779780D01*
Y826820D01*
X769620D01*
X693420Y852220D02*
Y862380D01*
X703580D01*
Y852220D01*
X693420D01*
X718820Y826820D02*
Y836980D01*
X728980D01*
Y826820D01*
X718820D01*
X541020D02*
Y836980D01*
X551180D01*
Y826820D01*
X541020D01*
X515620Y852220D02*
Y862380D01*
X525780D01*
Y852220D01*
X515620D01*
Y826820D02*
Y836980D01*
X525780D01*
Y826820D01*
X515620D01*
X490220Y852220D02*
Y862380D01*
X500380D01*
Y852220D01*
X490220D01*
X134620Y877620D02*
Y887780D01*
X144780D01*
Y877620D01*
X134620D01*
Y903020D02*
Y913180D01*
X144780D01*
Y903020D01*
X134620D01*
X160020Y877620D02*
Y887780D01*
X170180D01*
Y877620D01*
X160020D01*
X236220Y903020D02*
Y913180D01*
X246380D01*
Y903020D01*
X236220D01*
X287020Y877620D02*
Y887780D01*
X297180D01*
Y877620D01*
X287020D01*
X261620D02*
Y887780D01*
X271780D01*
Y877620D01*
X261620D01*
Y903020D02*
Y913180D01*
X271780D01*
Y903020D01*
X261620D01*
X287020D02*
Y913180D01*
X297180D01*
Y903020D01*
X287020D01*
X312420Y877620D02*
Y887780D01*
X322580D01*
Y877620D01*
X312420D01*
X363220D02*
Y887780D01*
X373380D01*
Y877620D01*
X363220D01*
X337820D02*
Y887780D01*
X347980D01*
Y877620D01*
X337820D01*
X312420Y903020D02*
Y913180D01*
X322580D01*
Y903020D01*
X312420D01*
X337820D02*
Y913180D01*
X347980D01*
Y903020D01*
X337820D01*
X236220Y877620D02*
Y887780D01*
X246380D01*
Y877620D01*
X236220D01*
X185420Y903020D02*
Y913180D01*
X195580D01*
Y903020D01*
X185420D01*
X210820Y877620D02*
Y887780D01*
X220980D01*
Y877620D01*
X210820D01*
Y903020D02*
Y913180D01*
X220980D01*
Y903020D01*
X210820D01*
X185420Y877620D02*
Y887780D01*
X195580D01*
Y877620D01*
X185420D01*
X160020Y903020D02*
Y913180D01*
X170180D01*
Y903020D01*
X160020D01*
X439420D02*
Y913180D01*
X449580D01*
Y903020D01*
X439420D01*
Y877620D02*
Y887780D01*
X449580D01*
Y877620D01*
X439420D01*
X363220Y903020D02*
Y913180D01*
X373380D01*
Y903020D01*
X363220D01*
X464820Y877620D02*
Y887780D01*
X474980D01*
Y877620D01*
X464820D01*
Y903020D02*
Y913180D01*
X474980D01*
Y903020D01*
X464820D01*
X490220Y877620D02*
Y887780D01*
X500380D01*
Y877620D01*
X490220D01*
X642620Y903020D02*
Y913180D01*
X652780D01*
Y903020D01*
X642620D01*
Y877620D02*
Y887780D01*
X652780D01*
Y877620D01*
X642620D01*
X591820D02*
Y887780D01*
X601980D01*
Y877620D01*
X591820D01*
Y903020D02*
Y913180D01*
X601980D01*
Y903020D01*
X591820D01*
X617220Y877620D02*
Y887780D01*
X627380D01*
Y877620D01*
X617220D01*
X668020D02*
Y887780D01*
X678180D01*
Y877620D01*
X668020D01*
Y903020D02*
Y913180D01*
X678180D01*
Y903020D01*
X668020D01*
X566420Y877620D02*
Y887780D01*
X576580D01*
Y877620D01*
X566420D01*
X617220Y903020D02*
Y913180D01*
X627380D01*
Y903020D01*
X617220D01*
X541020D02*
Y913180D01*
X551180D01*
Y903020D01*
X541020D01*
X693420Y877620D02*
Y887780D01*
X703580D01*
Y877620D01*
X693420D01*
X566420Y903020D02*
Y913180D01*
X576580D01*
Y903020D01*
X566420D01*
X769620D02*
Y913180D01*
X779780D01*
Y903020D01*
X769620D01*
X718820D02*
Y913180D01*
X728980D01*
Y903020D01*
X718820D01*
X744220Y877620D02*
Y887780D01*
X754380D01*
Y877620D01*
X744220D01*
Y903020D02*
Y913180D01*
X754380D01*
Y903020D01*
X744220D01*
X769620Y877620D02*
Y887780D01*
X779780D01*
Y877620D01*
X769620D01*
X693420Y903020D02*
Y913180D01*
X703580D01*
Y903020D01*
X693420D01*
X718820Y877620D02*
Y887780D01*
X728980D01*
Y877620D01*
X718820D01*
X541020D02*
Y887780D01*
X551180D01*
Y877620D01*
X541020D01*
X515620Y903020D02*
Y913180D01*
X525780D01*
Y903020D01*
X515620D01*
Y877620D02*
Y887780D01*
X525780D01*
Y877620D01*
X515620D01*
X490220Y903020D02*
Y913180D01*
X500380D01*
Y903020D01*
X490220D01*
X499250Y427670D02*
X494170Y437830D01*
X504330D01*
X499250Y427670D01*
X258000Y713920D02*
X252920Y724080D01*
X263080D01*
X258000Y713920D01*
X250500D02*
X245420Y724080D01*
X255580D01*
X250500Y713920D01*
X235500D02*
X230420Y724080D01*
X240580D01*
X235500Y713920D01*
X243000D02*
X237920Y724080D01*
X248080D01*
X243000Y713920D01*
X228000D02*
X222920Y724080D01*
X233080D01*
X228000Y713920D01*
X213000D02*
X207920Y724080D01*
X218080D01*
X213000Y713920D01*
X220500D02*
X215420Y724080D01*
X225580D01*
X220500Y713920D01*
X198000D02*
X192920Y724080D01*
X203080D01*
X198000Y713920D01*
X205500D02*
X200420Y724080D01*
X210580D01*
X205500Y713920D01*
X258000Y720920D02*
X252920Y731080D01*
X263080D01*
X258000Y720920D01*
X250500D02*
X245420Y731080D01*
X255580D01*
X250500Y720920D01*
X235500D02*
X230420Y731080D01*
X240580D01*
X235500Y720920D01*
X243000D02*
X237920Y731080D01*
X248080D01*
X243000Y720920D01*
X228000D02*
X222920Y731080D01*
X233080D01*
X228000Y720920D01*
X213000D02*
X207920Y731080D01*
X218080D01*
X213000Y720920D01*
X220500D02*
X215420Y731080D01*
X225580D01*
X220500Y720920D01*
X198000D02*
X192920Y731080D01*
X203080D01*
X198000Y720920D01*
X205500D02*
X200420Y731080D01*
X210580D01*
X205500Y720920D01*
X260750Y781420D02*
X255670Y791580D01*
X265830D01*
X260750Y781420D01*
X73000Y826920D02*
X67920Y837080D01*
X78080D01*
X73000Y826920D01*
X50000Y789920D02*
X44920Y800080D01*
X55080D01*
X50000Y789920D01*
X207000D02*
X201920Y800080D01*
X212080D01*
X207000Y789920D01*
X154500Y717920D02*
X149420Y728080D01*
X159580D01*
X154500Y717920D01*
X147000D02*
X141920Y728080D01*
X152080D01*
X147000Y717920D01*
X167000Y628920D02*
X161920Y639080D01*
X172080D01*
X167000Y628920D01*
X750500Y297670D02*
X745420Y307830D01*
X755580D01*
X750500Y297670D01*
X640250Y765920D02*
X635170Y776080D01*
X645330D01*
X640250Y765920D01*
X463720Y617670D02*
X458640Y627830D01*
X468800D01*
X463720Y617670D01*
X366993Y697353D02*
X361913Y707513D01*
X372073D01*
X366993Y697353D01*
X335864Y652946D02*
X330784Y663106D01*
X340944D01*
X335864Y652946D01*
X755000Y780920D02*
X749920Y791080D01*
X760080D01*
X755000Y780920D01*
X139250Y731670D02*
X134170Y741830D01*
X144330D01*
X139250Y731670D01*
X199337Y680570D02*
X194257Y690730D01*
X204417D01*
X199337Y680570D01*
X505000Y682920D02*
X499920Y693080D01*
X510080D01*
X505000Y682920D01*
X600000Y575920D02*
X594920Y586080D01*
X605080D01*
X600000Y575920D01*
X620830Y659436D02*
X615750Y669596D01*
X625910D01*
X620830Y659436D01*
X335392Y611269D02*
X330312Y621429D01*
X340472D01*
X335392Y611269D01*
X308498Y384469D02*
X303418Y394629D01*
X313578D01*
X308498Y384469D01*
X769657Y188055D02*
X764577Y198215D01*
X774737D01*
X769657Y188055D01*
X154500Y687920D02*
X149420Y698080D01*
X159580D01*
X154500Y687920D01*
Y695420D02*
X149420Y705580D01*
X159580D01*
X154500Y695420D01*
Y702920D02*
X149420Y713080D01*
X159580D01*
X154500Y702920D01*
Y710420D02*
X149420Y720580D01*
X159580D01*
X154500Y710420D01*
X253500Y371420D02*
X248420Y381580D01*
X258580D01*
X253500Y371420D01*
Y378920D02*
X248420Y389080D01*
X258580D01*
X253500Y378920D01*
Y393920D02*
X248420Y404080D01*
X258580D01*
X253500Y393920D01*
Y386420D02*
X248420Y396580D01*
X258580D01*
X253500Y386420D01*
Y401420D02*
X248420Y411580D01*
X258580D01*
X253500Y401420D01*
Y408920D02*
X248420Y419080D01*
X258580D01*
X253500Y408920D01*
Y416420D02*
X248420Y426580D01*
X258580D01*
X253500Y416420D01*
Y423920D02*
X248420Y434080D01*
X258580D01*
X253500Y423920D01*
X537500Y415420D02*
X532420Y425580D01*
X542580D01*
X537500Y415420D01*
Y422920D02*
X532420Y433080D01*
X542580D01*
X537500Y422920D01*
Y400420D02*
X532420Y410580D01*
X542580D01*
X537500Y400420D01*
Y407920D02*
X532420Y418080D01*
X542580D01*
X537500Y407920D01*
X515000Y433420D02*
X509920Y443580D01*
X520080D01*
X515000Y433420D01*
X530000Y407920D02*
X524920Y418080D01*
X535080D01*
X530000Y407920D01*
Y392920D02*
X524920Y403080D01*
X535080D01*
X530000Y392920D01*
Y400420D02*
X524920Y410580D01*
X535080D01*
X530000Y400420D01*
Y422920D02*
X524920Y433080D01*
X535080D01*
X530000Y422920D01*
Y415420D02*
X524920Y425580D01*
X535080D01*
X530000Y415420D01*
X235000Y439920D02*
X229920Y450080D01*
X240080D01*
X235000Y439920D01*
X298500Y401420D02*
X293420Y411580D01*
X303580D01*
X298500Y401420D01*
Y408920D02*
X293420Y419080D01*
X303580D01*
X298500Y408920D01*
X306000Y416420D02*
X300920Y426580D01*
X311080D01*
X306000Y416420D01*
X298500D02*
X293420Y426580D01*
X303580D01*
X298500Y416420D01*
X306000Y423920D02*
X300920Y434080D01*
X311080D01*
X306000Y423920D01*
X298500D02*
X293420Y434080D01*
X303580D01*
X298500Y423920D01*
X317345Y116869D02*
X312265Y127029D01*
X322425D01*
X317345Y116869D01*
X287000Y138920D02*
X281920Y149080D01*
X292080D01*
X287000Y138920D01*
X380746Y125133D02*
X375666Y135293D01*
X385826D01*
X380746Y125133D01*
X447986Y139413D02*
X442906Y149573D01*
X453066D01*
X447986Y139413D01*
X502037Y119409D02*
X496957Y129569D01*
X507117D01*
X502037Y119409D01*
X610000Y119420D02*
X604920Y129580D01*
X615080D01*
X610000Y119420D01*
X100232Y189918D02*
X95152Y200078D01*
X105312D01*
X100232Y189918D01*
X129385Y230066D02*
X124305Y240226D01*
X134465D01*
X129385Y230066D01*
X224350Y133096D02*
X219270Y143256D01*
X229430D01*
X224350Y133096D01*
X242000Y148920D02*
X236920Y159080D01*
X247080D01*
X242000Y148920D01*
X238000Y529920D02*
X232920Y540080D01*
X243080D01*
X238000Y529920D01*
X258000Y535920D02*
X252920Y546080D01*
X263080D01*
X258000Y535920D01*
X267000D02*
X261920Y546080D01*
X272080D01*
X267000Y535920D01*
Y544920D02*
X261920Y555080D01*
X272080D01*
X267000Y544920D01*
X258000Y553920D02*
X252920Y564080D01*
X263080D01*
X258000Y553920D01*
Y544920D02*
X252920Y555080D01*
X263080D01*
X258000Y544920D01*
X267000Y553920D02*
X261920Y564080D01*
X272080D01*
X267000Y553920D01*
X340504Y133093D02*
X335424Y143253D01*
X345584D01*
X340504Y133093D01*
X332000Y139920D02*
X326920Y150080D01*
X337080D01*
X332000Y139920D01*
X357000Y148920D02*
X351920Y159080D01*
X362080D01*
X357000Y148920D01*
X285000Y536920D02*
X279920Y547080D01*
X290080D01*
X285000Y536920D01*
X303000D02*
X297920Y547080D01*
X308080D01*
X303000Y536920D01*
X294000D02*
X288920Y547080D01*
X299080D01*
X294000Y536920D01*
X285000Y545920D02*
X279920Y556080D01*
X290080D01*
X285000Y545920D01*
X303000D02*
X297920Y556080D01*
X308080D01*
X303000Y545920D01*
X294000D02*
X288920Y556080D01*
X299080D01*
X294000Y545920D01*
X381000Y536920D02*
X375920Y547080D01*
X386080D01*
X381000Y536920D01*
X390000Y563920D02*
X384920Y574080D01*
X395080D01*
X390000Y563920D01*
X381000D02*
X375920Y574080D01*
X386080D01*
X381000Y563920D01*
X390000Y545920D02*
X384920Y556080D01*
X395080D01*
X390000Y545920D01*
X426000Y546920D02*
X420920Y557080D01*
X431080D01*
X426000Y546920D01*
X417000D02*
X411920Y557080D01*
X422080D01*
X417000Y546920D01*
X408000D02*
X402920Y557080D01*
X413080D01*
X408000Y546920D01*
Y555920D02*
X402920Y566080D01*
X413080D01*
X408000Y555920D01*
X426000D02*
X420920Y566080D01*
X431080D01*
X426000Y555920D01*
X417000D02*
X411920Y566080D01*
X422080D01*
X417000Y555920D01*
X40000Y594920D02*
X34920Y605080D01*
X45080D01*
X40000Y594920D01*
X42886Y716869D02*
X37806Y727029D01*
X47966D01*
X42886Y716869D01*
X228000Y581920D02*
X222920Y592080D01*
X233080D01*
X228000Y581920D01*
Y590920D02*
X222920Y601080D01*
X233080D01*
X228000Y590920D01*
X237000Y572920D02*
X231920Y583080D01*
X242080D01*
X237000Y572920D01*
X246000D02*
X240920Y583080D01*
X251080D01*
X246000Y572920D01*
Y581920D02*
X240920Y592080D01*
X251080D01*
X246000Y581920D01*
X237000Y590920D02*
X231920Y601080D01*
X242080D01*
X237000Y590920D01*
Y581920D02*
X231920Y592080D01*
X242080D01*
X237000Y581920D01*
X246000Y590920D02*
X240920Y601080D01*
X251080D01*
X246000Y590920D01*
X205500Y727920D02*
X200420Y738080D01*
X210580D01*
X205500Y727920D01*
X198000D02*
X192920Y738080D01*
X203080D01*
X198000Y727920D01*
X246000Y599920D02*
X240920Y610080D01*
X251080D01*
X246000Y599920D01*
X237000D02*
X231920Y610080D01*
X242080D01*
X237000Y599920D01*
X228000D02*
X222920Y610080D01*
X233080D01*
X228000Y599920D01*
Y608920D02*
X222920Y619080D01*
X233080D01*
X228000Y608920D01*
X246000D02*
X240920Y619080D01*
X251080D01*
X246000Y608920D01*
X237000D02*
X231920Y619080D01*
X242080D01*
X237000Y608920D01*
X50806Y739056D02*
X45726Y749216D01*
X55886D01*
X50806Y739056D01*
X74000Y795920D02*
X68920Y806080D01*
X79080D01*
X74000Y795920D01*
X220500Y727920D02*
X215420Y738080D01*
X225580D01*
X220500Y727920D01*
X213000D02*
X207920Y738080D01*
X218080D01*
X213000Y727920D01*
X205500Y734920D02*
X200420Y745080D01*
X210580D01*
X205500Y734920D01*
X220500D02*
X215420Y745080D01*
X225580D01*
X220500Y734920D01*
X213000D02*
X207920Y745080D01*
X218080D01*
X213000Y734920D01*
X228000Y727920D02*
X222920Y738080D01*
X233080D01*
X228000Y727920D01*
X243000D02*
X237920Y738080D01*
X248080D01*
X243000Y727920D01*
X235500D02*
X230420Y738080D01*
X240580D01*
X235500Y727920D01*
X228000Y734920D02*
X222920Y745080D01*
X233080D01*
X228000Y734920D01*
X243000D02*
X237920Y745080D01*
X248080D01*
X243000Y734920D01*
X235500D02*
X230420Y745080D01*
X240580D01*
X235500Y734920D01*
X198000D02*
X192920Y745080D01*
X203080D01*
X198000Y734920D01*
X255000Y599920D02*
X249920Y610080D01*
X260080D01*
X255000Y599920D01*
Y608920D02*
X249920Y619080D01*
X260080D01*
X255000Y608920D01*
X360000Y582920D02*
X354920Y593080D01*
X365080D01*
X360000Y582920D01*
Y591920D02*
X354920Y602080D01*
X365080D01*
X360000Y591920D01*
Y609920D02*
X354920Y620080D01*
X365080D01*
X360000Y609920D01*
Y600920D02*
X354920Y611080D01*
X365080D01*
X360000Y600920D01*
X369000Y609920D02*
X363920Y620080D01*
X374080D01*
X369000Y609920D01*
Y591920D02*
X363920Y602080D01*
X374080D01*
X369000Y591920D01*
Y582920D02*
X363920Y593080D01*
X374080D01*
X369000Y582920D01*
Y600920D02*
X363920Y611080D01*
X374080D01*
X369000Y600920D01*
X378000Y609920D02*
X372920Y620080D01*
X383080D01*
X378000Y609920D01*
X360000Y618920D02*
X354920Y629080D01*
X365080D01*
X360000Y618920D01*
X378000D02*
X372920Y629080D01*
X383080D01*
X378000Y618920D01*
X369000D02*
X363920Y629080D01*
X374080D01*
X369000Y618920D01*
X355000Y668920D02*
X349920Y679080D01*
X360080D01*
X355000Y668920D01*
X432500Y687420D02*
X427420Y697580D01*
X437580D01*
X432500Y687420D01*
Y672420D02*
X427420Y682580D01*
X437580D01*
X432500Y672420D01*
Y679920D02*
X427420Y690080D01*
X437580D01*
X432500Y679920D01*
X284593Y698036D02*
X279513Y708196D01*
X289673D01*
X284593Y698036D01*
X250500Y727920D02*
X245420Y738080D01*
X255580D01*
X250500Y727920D01*
X258000D02*
X252920Y738080D01*
X263080D01*
X258000Y727920D01*
X250500Y734920D02*
X245420Y745080D01*
X255580D01*
X250500Y734920D01*
X330844Y708867D02*
X325764Y719027D01*
X335924D01*
X330844Y708867D01*
X335334Y736764D02*
X330254Y746924D01*
X340414D01*
X335334Y736764D01*
X569000Y133670D02*
X563920Y143830D01*
X574080D01*
X569000Y133670D01*
X562000Y143990D02*
X556920Y154150D01*
X567080D01*
X562000Y143990D01*
X589500Y154545D02*
X584420Y164705D01*
X594580D01*
X589500Y154545D01*
X642000Y447170D02*
X636920Y457330D01*
X647080D01*
X642000Y447170D01*
X730449Y312345D02*
X725369Y322505D01*
X735529D01*
X730449Y312345D01*
X822750Y234420D02*
X817670Y244580D01*
X827830D01*
X822750Y234420D01*
X662250Y370170D02*
X657170Y380330D01*
X667330D01*
X662250Y370170D01*
X705286Y389192D02*
X700206Y399352D01*
X710366D01*
X705286Y389192D01*
X709370Y414670D02*
X704290Y424830D01*
X714450D01*
X709370Y414670D01*
X767985Y389763D02*
X762905Y399924D01*
X773065D01*
X767985Y389763D01*
X736983Y407121D02*
X731904Y417281D01*
X742064D01*
X736983Y407121D01*
X465250Y584420D02*
X460170Y594580D01*
X470330D01*
X465250Y584420D01*
X485750Y563170D02*
X480670Y573330D01*
X490830D01*
X485750Y563170D01*
X486000Y582920D02*
X480920Y593080D01*
X491080D01*
X486000Y582920D01*
X477000Y591920D02*
X471920Y602080D01*
X482080D01*
X477000Y591920D01*
X486000D02*
X480920Y602080D01*
X491080D01*
X486000Y591920D01*
X495000Y600920D02*
X489920Y611080D01*
X500080D01*
X495000Y600920D01*
X486000Y609920D02*
X480920Y620080D01*
X491080D01*
X486000Y609920D01*
Y600920D02*
X480920Y611080D01*
X491080D01*
X486000Y600920D01*
X495000Y609920D02*
X489920Y620080D01*
X500080D01*
X495000Y609920D01*
Y591920D02*
X489920Y602080D01*
X500080D01*
X495000Y591920D01*
X504000Y609920D02*
X498920Y620080D01*
X509080D01*
X504000Y609920D01*
X440000Y687420D02*
X434920Y697580D01*
X445080D01*
X440000Y687420D01*
Y672420D02*
X434920Y682580D01*
X445080D01*
X440000Y672420D01*
Y679920D02*
X434920Y690080D01*
X445080D01*
X440000Y679920D01*
X446129Y625411D02*
X441049Y635572D01*
X451209D01*
X446129Y625411D01*
X447500Y672420D02*
X442420Y682580D01*
X452580D01*
X447500Y672420D01*
Y679920D02*
X442420Y690080D01*
X452580D01*
X447500Y679920D01*
Y687420D02*
X442420Y697580D01*
X452580D01*
X447500Y687420D01*
X457500Y682420D02*
X452420Y692580D01*
X462580D01*
X457500Y682420D01*
X462500Y692420D02*
X457420Y702580D01*
X467580D01*
X462500Y692420D01*
X452500Y752420D02*
X447420Y762580D01*
X457580D01*
X452500Y752420D01*
Y742420D02*
X447420Y752580D01*
X457580D01*
X452500Y742420D01*
Y772420D02*
X447420Y782580D01*
X457580D01*
X452500Y772420D01*
Y762420D02*
X447420Y772580D01*
X457580D01*
X452500Y762420D01*
X462500Y702420D02*
X457420Y712580D01*
X467580D01*
X462500Y702420D01*
Y712420D02*
X457420Y722580D01*
X467580D01*
X462500Y712420D01*
Y752420D02*
X457420Y762580D01*
X467580D01*
X462500Y752420D01*
Y732420D02*
X457420Y742580D01*
X467580D01*
X462500Y732420D01*
Y742420D02*
X457420Y752580D01*
X467580D01*
X462500Y742420D01*
X486000Y618920D02*
X480920Y629080D01*
X491080D01*
X486000Y618920D01*
X504000D02*
X498920Y629080D01*
X509080D01*
X504000Y618920D01*
X495000D02*
X489920Y629080D01*
X500080D01*
X495000Y618920D01*
X477000D02*
X471920Y629080D01*
X482080D01*
X477000Y618920D01*
X742500Y512420D02*
X737420Y522580D01*
X747580D01*
X742500Y512420D01*
X742500Y522420D02*
X737420Y532580D01*
X747580D01*
X742500Y522420D01*
X750000Y532420D02*
X744920Y542580D01*
X755080D01*
X750000Y532420D01*
X742500Y542420D02*
X737420Y552580D01*
X747580D01*
X742500Y542420D01*
X742500Y532420D02*
X737420Y542580D01*
X747580D01*
X742500Y532420D01*
X750000Y542420D02*
X744920Y552580D01*
X755080D01*
X750000Y542420D01*
X750000Y512420D02*
X744920Y522580D01*
X755080D01*
X750000Y512420D01*
X765000D02*
X759920Y522580D01*
X770080D01*
X765000Y512420D01*
X757500D02*
X752420Y522580D01*
X762580D01*
X757500Y512420D01*
X750000Y522420D02*
X744920Y532580D01*
X755080D01*
X750000Y522420D01*
X765000D02*
X759920Y532580D01*
X770080D01*
X765000Y522420D01*
X757500D02*
X752420Y532580D01*
X762580D01*
X757500Y522420D01*
X772500Y512420D02*
X767420Y522580D01*
X777580D01*
X772500Y512420D01*
X780000D02*
X774920Y522580D01*
X785080D01*
X780000Y512420D01*
X780000Y522420D02*
X774920Y532580D01*
X785080D01*
X780000Y522420D01*
X772500D02*
X767420Y532580D01*
X777580D01*
X772500Y522420D01*
X780000Y532420D02*
X774920Y542580D01*
X785080D01*
X780000Y532420D01*
X757500D02*
X752420Y542580D01*
X762580D01*
X757500Y532420D01*
X765000D02*
X759920Y542580D01*
X770080D01*
X765000Y532420D01*
X765000Y542420D02*
X759920Y552580D01*
X770080D01*
X765000Y542420D01*
X757500D02*
X752420Y552580D01*
X762580D01*
X757500Y542420D01*
X772500D02*
X767420Y552580D01*
X777580D01*
X772500Y542420D01*
X772500Y532420D02*
X767420Y542580D01*
X777580D01*
X772500Y532420D01*
X780000Y542420D02*
X774920Y552580D01*
X785080D01*
X780000Y542420D01*
X775750Y632420D02*
X770670Y642580D01*
X780830D01*
X775750Y632420D01*
X642750Y677670D02*
X637670Y687830D01*
X647830D01*
X642750Y677670D01*
X642500Y727420D02*
X637420Y737580D01*
X647580D01*
X642500Y727420D01*
X600623Y788077D02*
X595543Y798237D01*
X605703D01*
X600623Y788077D01*
X622219Y757037D02*
X617138Y767197D01*
X627299D01*
X622219Y757037D01*
X632091Y792169D02*
X627011Y802329D01*
X637171D01*
X632091Y792169D01*
X560500Y636920D02*
X555420Y647080D01*
X565580D01*
X560500Y636920D01*
X424875Y644045D02*
X419795Y654205D01*
X429955D01*
X424875Y644045D01*
X676500Y140670D02*
X671420Y150830D01*
X681580D01*
X676500Y140670D01*
X745000Y164670D02*
X739920Y174830D01*
X750080D01*
X745000Y164670D01*
X390000Y554920D02*
X384920Y565080D01*
X395080D01*
X390000Y554920D01*
X582172Y479646D02*
X577091Y489806D01*
X587252D01*
X582172Y479646D01*
X477000Y609920D02*
X471920Y620080D01*
X482080D01*
X477000Y609920D01*
Y600920D02*
X471920Y611080D01*
X482080D01*
X477000Y600920D01*
X462500Y762420D02*
X457420Y772580D01*
X467580D01*
X462500Y762420D01*
X452500Y732420D02*
X447420Y742580D01*
X457580D01*
X452500Y732420D01*
X462500Y722420D02*
X457420Y732580D01*
X467580D01*
X462500Y722420D01*
X543000Y555920D02*
X537920Y566080D01*
X548080D01*
X543000Y555920D01*
X381000Y554920D02*
X375920Y565080D01*
X386080D01*
X381000Y554920D01*
X390000Y536920D02*
X384920Y547080D01*
X395080D01*
X390000Y536920D01*
X381000Y545920D02*
X375920Y556080D01*
X386080D01*
X381000Y545920D01*
X303293Y623200D02*
X298214Y633360D01*
X308374D01*
X303293Y623200D01*
X335500Y507920D02*
X330420Y518080D01*
X340580D01*
X335500Y507920D01*
X541500Y673170D02*
X536420Y683330D01*
X546580D01*
X541500Y673170D01*
X258000Y734920D02*
X252920Y745080D01*
X263080D01*
X258000Y734920D01*
X279586Y249045D02*
X274506Y259205D01*
X284666D01*
X279586Y249045D01*
X292732Y297670D02*
X287652Y307830D01*
X297812D01*
X292732Y297670D01*
X263631Y296420D02*
X258550Y306580D01*
X268710D01*
X263631Y296420D01*
X359302Y291913D02*
X354222Y302073D01*
X364382D01*
X359302Y291913D01*
X378000Y208670D02*
X372920Y218830D01*
X383080D01*
X378000Y208670D01*
X108500Y109170D02*
X103420Y119330D01*
X113580D01*
X108500Y109170D01*
X70750Y242420D02*
X65670Y252580D01*
X75830D01*
X70750Y242420D01*
X542250Y371920D02*
X537170Y382080D01*
X547330D01*
X542250Y371920D01*
X202099Y480098D02*
X197019Y490258D01*
X207179D01*
X202099Y480098D01*
X465574Y275625D02*
X460494Y285786D01*
X470653D01*
X465574Y275625D01*
X161021Y309097D02*
X155941Y319257D01*
X166101D01*
X161021Y309097D01*
X306250Y370920D02*
X301170Y381080D01*
X311330D01*
X306250Y370920D01*
X307250Y359920D02*
X302170Y370080D01*
X312330D01*
X307250Y359920D01*
X574000Y259670D02*
X568920Y269830D01*
X579080D01*
X574000Y259670D01*
X534250Y236170D02*
X529170Y246330D01*
X539330D01*
X534250Y236170D01*
X356250Y779420D02*
X351170Y789580D01*
X361330D01*
X356250Y779420D01*
X258000Y527580D02*
X252920Y537740D01*
X263080D01*
X258000Y527580D01*
X267000D02*
X261920Y537740D01*
X272080D01*
X267000Y527580D01*
X364509Y401670D02*
X359429Y411830D01*
X369589D01*
X364509Y401670D01*
X324165Y474835D02*
X319085Y484995D01*
X329245D01*
X324165Y474835D01*
X520000Y289920D02*
X514920Y300080D01*
X525080D01*
X520000Y289920D01*
X792295Y413420D02*
X787215Y423580D01*
X797375D01*
X792295Y413420D01*
Y323920D02*
X787215Y334080D01*
X797375D01*
X792295Y323920D01*
X696000Y699420D02*
X690920Y709580D01*
X701080D01*
X696000Y699420D01*
Y691920D02*
X690920Y702080D01*
X701080D01*
X696000Y691920D01*
X688500Y706920D02*
X683420Y717080D01*
X693580D01*
X688500Y706920D01*
Y691920D02*
X683420Y702080D01*
X693580D01*
X688500Y691920D01*
Y699420D02*
X683420Y709580D01*
X693580D01*
X688500Y699420D01*
X696000Y706920D02*
X690920Y717080D01*
X701080D01*
X696000Y706920D01*
Y684420D02*
X690920Y694580D01*
X701080D01*
X696000Y684420D01*
X495000Y666920D02*
X489920Y677080D01*
X500080D01*
X495000Y666920D01*
X138000Y646920D02*
X132920Y657080D01*
X143080D01*
X138000Y646920D01*
X394375Y690171D02*
X389295Y700331D01*
X399455D01*
X394375Y690171D01*
X352541Y601380D02*
X347461Y611540D01*
X357621D01*
X352541Y601380D01*
Y609920D02*
X347461Y620080D01*
X357621D01*
X352541Y609920D01*
Y618920D02*
X347461Y629080D01*
X357621D01*
X352541Y618920D01*
Y591920D02*
X347461Y602080D01*
X357621D01*
X352541Y591920D01*
X543000Y546920D02*
X537920Y557080D01*
X548080D01*
X543000Y546920D01*
X551888D02*
X546808Y557080D01*
X556968D01*
X551888Y546920D01*
X552000Y555920D02*
X546920Y566080D01*
X557080D01*
X552000Y555920D01*
X534258D02*
X529178Y566080D01*
X539338D01*
X534258Y555920D01*
Y546920D02*
X529178Y557080D01*
X539338D01*
X534258Y546920D01*
X516000Y554920D02*
X510920Y565080D01*
X521080D01*
X516000Y554920D01*
Y563920D02*
X510920Y574080D01*
X521080D01*
X516000Y563920D01*
X507000Y554920D02*
X501920Y565080D01*
X512080D01*
X507000Y554920D01*
Y563920D02*
X501920Y574080D01*
X512080D01*
X507000Y563920D01*
Y545920D02*
X501920Y556080D01*
X512080D01*
X507000Y545920D01*
X495000Y582920D02*
X489920Y593080D01*
X500080D01*
X495000Y582920D01*
X482412Y539582D02*
X477332Y549742D01*
X487492D01*
X482412Y539582D01*
X446210Y507102D02*
X441130Y517262D01*
X451290D01*
X446210Y507102D01*
X516000Y545920D02*
X510920Y556080D01*
X521080D01*
X516000Y545920D01*
X279000Y373920D02*
X273920Y384080D01*
X284080D01*
X279000Y373920D01*
X769750Y756920D02*
X764670Y767080D01*
X774830D01*
X769750Y756920D01*
X743500Y786920D02*
X738420Y797080D01*
X748580D01*
X743500Y786920D01*
X747000Y678920D02*
X741920Y689080D01*
X752080D01*
X747000Y678920D01*
X628000Y657920D02*
X622920Y668080D01*
X633080D01*
X628000Y657920D01*
X632251Y582044D02*
X627171Y592204D01*
X637331D01*
X632251Y582044D01*
X647595Y626718D02*
X642515Y636879D01*
X652675D01*
X647595Y626718D01*
X628536Y637920D02*
X623456Y648080D01*
X633616D01*
X628536Y637920D01*
X473857Y149077D02*
X468777Y159237D01*
X478937D01*
X473857Y149077D01*
X455000Y132920D02*
X449920Y143080D01*
X460080D01*
X455000Y132920D01*
X364000Y86920D02*
X358920Y97080D01*
X369080D01*
X364000Y86920D01*
X356500D02*
X351420Y97080D01*
X361580D01*
X356500Y86920D01*
X349000D02*
X343920Y97080D01*
X354080D01*
X349000Y86920D01*
X364000Y94420D02*
X358920Y104580D01*
X369080D01*
X364000Y94420D01*
X356500D02*
X351420Y104580D01*
X361580D01*
X356500Y94420D01*
X349000D02*
X343920Y104580D01*
X354080D01*
X349000Y94420D01*
X364000Y101920D02*
X358920Y112080D01*
X369080D01*
X364000Y101920D01*
X356500D02*
X351420Y112080D01*
X361580D01*
X356500Y101920D01*
X349000D02*
X343920Y112080D01*
X354080D01*
X349000Y101920D01*
Y79420D02*
X343920Y89580D01*
X354080D01*
X349000Y79420D01*
X356500D02*
X351420Y89580D01*
X361580D01*
X356500Y79420D01*
X364000D02*
X358920Y89580D01*
X369080D01*
X364000Y79420D01*
X349000Y71920D02*
X343920Y82080D01*
X354080D01*
X349000Y71920D01*
X356500D02*
X351420Y82080D01*
X361580D01*
X356500Y71920D01*
X364000D02*
X358920Y82080D01*
X369080D01*
X364000Y71920D01*
X249000D02*
X243920Y82080D01*
X254080D01*
X249000Y71920D01*
X241500D02*
X236420Y82080D01*
X246580D01*
X241500Y71920D01*
X234000D02*
X228920Y82080D01*
X239080D01*
X234000Y71920D01*
X249000Y79420D02*
X243920Y89580D01*
X254080D01*
X249000Y79420D01*
X241500D02*
X236420Y89580D01*
X246580D01*
X241500Y79420D01*
X234000D02*
X228920Y89580D01*
X239080D01*
X234000Y79420D01*
Y101920D02*
X228920Y112080D01*
X239080D01*
X234000Y101920D01*
X241500D02*
X236420Y112080D01*
X246580D01*
X241500Y101920D01*
X249000D02*
X243920Y112080D01*
X254080D01*
X249000Y101920D01*
X234000Y86920D02*
X228920Y97080D01*
X239080D01*
X234000Y86920D01*
X241500D02*
X236420Y97080D01*
X246580D01*
X241500Y86920D01*
X249000D02*
X243920Y97080D01*
X254080D01*
X249000Y86920D01*
X479250Y71920D02*
X474170Y82080D01*
X484330D01*
X479250Y71920D01*
X471750D02*
X466670Y82080D01*
X476830D01*
X471750Y71920D01*
X464250D02*
X459170Y82080D01*
X469330D01*
X464250Y71920D01*
X479250Y79420D02*
X474170Y89580D01*
X484330D01*
X479250Y79420D01*
X471750D02*
X466670Y89580D01*
X476830D01*
X471750Y79420D01*
X464250D02*
X459170Y89580D01*
X469330D01*
X464250Y79420D01*
Y101920D02*
X459170Y112080D01*
X469330D01*
X464250Y101920D01*
X471750D02*
X466670Y112080D01*
X476830D01*
X471750Y101920D01*
X479250D02*
X474170Y112080D01*
X484330D01*
X479250Y101920D01*
X464250Y94420D02*
X459170Y104580D01*
X469330D01*
X464250Y94420D01*
X471750D02*
X466670Y104580D01*
X476830D01*
X471750Y94420D01*
X479250D02*
X474170Y104580D01*
X484330D01*
X479250Y94420D01*
X464250Y86920D02*
X459170Y97080D01*
X469330D01*
X464250Y86920D01*
X471750D02*
X466670Y97080D01*
X476830D01*
X471750Y86920D01*
X479250D02*
X474170Y97080D01*
X484330D01*
X479250Y86920D01*
X594250Y71920D02*
X589170Y82080D01*
X599330D01*
X594250Y71920D01*
X586750D02*
X581670Y82080D01*
X591830D01*
X586750Y71920D01*
X579250D02*
X574170Y82080D01*
X584330D01*
X579250Y71920D01*
X594250Y79420D02*
X589170Y89580D01*
X599330D01*
X594250Y79420D01*
X586750D02*
X581670Y89580D01*
X591830D01*
X586750Y79420D01*
X579250D02*
X574170Y89580D01*
X584330D01*
X579250Y79420D01*
Y101920D02*
X574170Y112080D01*
X584330D01*
X579250Y101920D01*
X586750D02*
X581670Y112080D01*
X591830D01*
X586750Y101920D01*
X594250D02*
X589170Y112080D01*
X599330D01*
X594250Y101920D01*
X579250Y94420D02*
X574170Y104580D01*
X584330D01*
X579250Y94420D01*
X586750D02*
X581670Y104580D01*
X591830D01*
X586750Y94420D01*
X594250D02*
X589170Y104580D01*
X599330D01*
X594250Y94420D01*
X579250Y86920D02*
X574170Y97080D01*
X584330D01*
X579250Y86920D01*
X586750D02*
X581670Y97080D01*
X591830D01*
X586750Y86920D01*
X594250D02*
X589170Y97080D01*
X599330D01*
X594250Y86920D01*
X522500Y415420D02*
X517420Y425580D01*
X527580D01*
X522500Y415420D01*
X515000D02*
X509920Y425580D01*
X520080D01*
X515000Y415420D01*
X522500Y422920D02*
X517420Y433080D01*
X527580D01*
X522500Y422920D01*
X515000D02*
X509920Y433080D01*
X520080D01*
X515000Y422920D01*
Y400420D02*
X509920Y410580D01*
X520080D01*
X515000Y400420D01*
X522500D02*
X517420Y410580D01*
X527580D01*
X522500Y400420D01*
X515000Y392920D02*
X509920Y403080D01*
X520080D01*
X515000Y392920D01*
X522500D02*
X517420Y403080D01*
X527580D01*
X522500Y392920D01*
X515000Y407920D02*
X509920Y418080D01*
X520080D01*
X515000Y407920D01*
X522500D02*
X517420Y418080D01*
X527580D01*
X522500Y407920D01*
X507500Y400420D02*
X502420Y410580D01*
X512580D01*
X507500Y400420D01*
Y392920D02*
X502420Y403080D01*
X512580D01*
X507500Y392920D01*
Y385420D02*
X502420Y395580D01*
X512580D01*
X507500Y385420D01*
X500000Y400420D02*
X494920Y410580D01*
X505080D01*
X500000Y400420D01*
Y392920D02*
X494920Y403080D01*
X505080D01*
X500000Y392920D01*
Y385420D02*
X494920Y395580D01*
X505080D01*
X500000Y385420D01*
Y377920D02*
X494920Y388080D01*
X505080D01*
X500000Y377920D01*
X507500D02*
X502420Y388080D01*
X512580D01*
X507500Y377920D01*
X515000D02*
X509920Y388080D01*
X520080D01*
X515000Y377920D01*
Y385420D02*
X509920Y395580D01*
X520080D01*
X515000Y385420D01*
X522500D02*
X517420Y395580D01*
X527580D01*
X522500Y385420D01*
X261000Y423920D02*
X255920Y434080D01*
X266080D01*
X261000Y423920D01*
Y416420D02*
X255920Y426580D01*
X266080D01*
X261000Y416420D01*
Y408920D02*
X255920Y419080D01*
X266080D01*
X261000Y408920D01*
X268500Y423920D02*
X263420Y434080D01*
X273580D01*
X268500Y423920D01*
Y416420D02*
X263420Y426580D01*
X273580D01*
X268500Y416420D01*
Y408920D02*
X263420Y419080D01*
X273580D01*
X268500Y408920D01*
X276000Y423920D02*
X270920Y434080D01*
X281080D01*
X276000Y423920D01*
Y416420D02*
X270920Y426580D01*
X281080D01*
X276000Y416420D01*
Y408920D02*
X270920Y419080D01*
X281080D01*
X276000Y408920D01*
X291000D02*
X285920Y419080D01*
X296080D01*
X291000Y408920D01*
Y416420D02*
X285920Y426580D01*
X296080D01*
X291000Y416420D01*
Y423920D02*
X285920Y434080D01*
X296080D01*
X291000Y423920D01*
X283500Y408920D02*
X278420Y419080D01*
X288580D01*
X283500Y408920D01*
Y416420D02*
X278420Y426580D01*
X288580D01*
X283500Y416420D01*
Y423920D02*
X278420Y434080D01*
X288580D01*
X283500Y423920D01*
X261000Y401420D02*
X255920Y411580D01*
X266080D01*
X261000Y401420D01*
Y386420D02*
X255920Y396580D01*
X266080D01*
X261000Y386420D01*
Y393920D02*
X255920Y404080D01*
X266080D01*
X261000Y393920D01*
Y378920D02*
X255920Y389080D01*
X266080D01*
X261000Y378920D01*
Y371420D02*
X255920Y381580D01*
X266080D01*
X261000Y371420D01*
X276000Y401420D02*
X270920Y411580D01*
X281080D01*
X276000Y401420D01*
X268500D02*
X263420Y411580D01*
X273580D01*
X268500Y401420D01*
X291000D02*
X285920Y411580D01*
X296080D01*
X291000Y401420D01*
X283500D02*
X278420Y411580D01*
X288580D01*
X283500Y401420D01*
X276000Y393920D02*
X270920Y404080D01*
X281080D01*
X276000Y393920D01*
X268500D02*
X263420Y404080D01*
X273580D01*
X268500Y393920D01*
X291000D02*
X285920Y404080D01*
X296080D01*
X291000Y393920D01*
X283500D02*
X278420Y404080D01*
X288580D01*
X283500Y393920D01*
X628759Y737831D02*
X623679Y747991D01*
X633839D01*
X628759Y737831D01*
X210000Y660920D02*
X204920Y671080D01*
X215080D01*
X210000Y660920D01*
X587213Y551349D02*
X582133Y561509D01*
X592293D01*
X587213Y551349D01*
X581356Y666883D02*
X576276Y677043D01*
X586436D01*
X581356Y666883D01*
X327818Y634670D02*
X322738Y644830D01*
X332898D01*
X327818Y634670D01*
X660000Y308920D02*
X654920Y319080D01*
X665080D01*
X660000Y308920D01*
X608000Y355920D02*
X602920Y366080D01*
X613080D01*
X608000Y355920D01*
X76670Y199751D02*
X71590Y209911D01*
X81750D01*
X76670Y199751D01*
X163000Y766920D02*
X157920Y777080D01*
X168080D01*
X163000Y766920D01*
X178450Y619343D02*
X173370Y629503D01*
X183530D01*
X178450Y619343D01*
X249000Y94420D02*
X243920Y104580D01*
X254080D01*
X249000Y94420D01*
X241500D02*
X236420Y104580D01*
X246580D01*
X241500Y94420D01*
X234000D02*
X228920Y104580D01*
X239080D01*
X234000Y94420D01*
X867160Y29457D02*
X862080Y39616D01*
X872240D01*
X867160Y29457D01*
X834640D02*
X829560Y39616D01*
X839720D01*
X834640Y29457D01*
Y61983D02*
X829560Y72144D01*
X839720D01*
X834640Y61983D01*
X867160D02*
X862080Y72144D01*
X872240D01*
X867160Y61983D01*
X850900Y68720D02*
X845820Y78880D01*
X855980D01*
X850900Y68720D01*
X827900Y45720D02*
X822820Y55880D01*
X832980D01*
X827900Y45720D01*
X850900Y22720D02*
X845820Y32880D01*
X855980D01*
X850900Y22720D01*
X873900Y45720D02*
X868820Y55880D01*
X878980D01*
X873900Y45720D01*
X105160Y886757D02*
X100080Y896917D01*
X110240D01*
X105160Y886757D01*
X72640D02*
X67560Y896917D01*
X77720D01*
X72640Y886757D01*
Y919284D02*
X67560Y929444D01*
X77720D01*
X72640Y919284D01*
X105160D02*
X100080Y929444D01*
X110240D01*
X105160Y919284D01*
X88900Y926020D02*
X83820Y936180D01*
X93980D01*
X88900Y926020D01*
X65900Y903020D02*
X60820Y913180D01*
X70980D01*
X65900Y903020D01*
X88900Y880020D02*
X83820Y890180D01*
X93980D01*
X88900Y880020D01*
X111900Y903020D02*
X106820Y913180D01*
X116980D01*
X111900Y903020D01*
X841760Y886757D02*
X836680Y896917D01*
X846840D01*
X841760Y886757D01*
X809240D02*
X804160Y896917D01*
X814320D01*
X809240Y886757D01*
Y919284D02*
X804160Y929444D01*
X814320D01*
X809240Y919284D01*
X841760D02*
X836680Y929444D01*
X846840D01*
X841760Y919284D01*
X825500Y926020D02*
X820420Y936180D01*
X830580D01*
X825500Y926020D01*
X802500Y903020D02*
X797420Y913180D01*
X807580D01*
X802500Y903020D01*
X825500Y880020D02*
X820420Y890180D01*
X830580D01*
X825500Y880020D01*
X848500Y903020D02*
X843420Y913180D01*
X853580D01*
X848500Y903020D01*
X66260Y28656D02*
X61180Y38816D01*
X71340D01*
X66260Y28656D01*
X33740D02*
X28660Y38816D01*
X38820D01*
X33740Y28656D01*
Y61184D02*
X28660Y71343D01*
X38820D01*
X33740Y61184D01*
X66260D02*
X61180Y71343D01*
X71340D01*
X66260Y61184D01*
X50000Y67920D02*
X44920Y78080D01*
X55080D01*
X50000Y67920D01*
X27000Y44920D02*
X21920Y55080D01*
X32080D01*
X27000Y44920D01*
X50000Y21920D02*
X44920Y32080D01*
X55080D01*
X50000Y21920D01*
X73000Y44920D02*
X67920Y55080D01*
X78080D01*
X73000Y44920D01*
X772000Y735920D02*
X766920Y746080D01*
X777080D01*
X772000Y735920D01*
X797086Y713224D02*
X792006Y723384D01*
X802166D01*
X797086Y713224D01*
X797336Y691224D02*
X792256Y701384D01*
X802416D01*
X797336Y691224D01*
X805907Y685703D02*
X800827Y695863D01*
X810987D01*
X805907Y685703D01*
X135000Y534920D02*
X129920Y545080D01*
X140080D01*
X135000Y534920D01*
Y527420D02*
X129920Y537580D01*
X140080D01*
X135000Y527420D01*
Y519920D02*
X129920Y530080D01*
X140080D01*
X135000Y519920D01*
X127500Y527420D02*
X122420Y537580D01*
X132580D01*
X127500Y527420D01*
Y534920D02*
X122420Y545080D01*
X132580D01*
X127500Y534920D01*
X120000D02*
X114920Y545080D01*
X125080D01*
X120000Y534920D01*
Y542420D02*
X114920Y552580D01*
X125080D01*
X120000Y542420D01*
X127500D02*
X122420Y552580D01*
X132580D01*
X127500Y542420D01*
X135000D02*
X129920Y552580D01*
X140080D01*
X135000Y542420D01*
X120000Y549920D02*
X114920Y560080D01*
X125080D01*
X120000Y549920D01*
X127500D02*
X122420Y560080D01*
X132580D01*
X127500Y549920D01*
X135000D02*
X129920Y560080D01*
X140080D01*
X135000Y549920D01*
X120000Y557420D02*
X114920Y567580D01*
X125080D01*
X120000Y557420D01*
X127500D02*
X122420Y567580D01*
X132580D01*
X127500Y557420D01*
X142500Y542420D02*
X137420Y552580D01*
X147580D01*
X142500Y542420D01*
Y534920D02*
X137420Y545080D01*
X147580D01*
X142500Y534920D01*
Y527420D02*
X137420Y537580D01*
X147580D01*
X142500Y527420D01*
X352411Y445575D02*
X347331Y455735D01*
X357491D01*
X352411Y445575D01*
X400389Y310158D02*
X395309Y320318D01*
X405469D01*
X400389Y310158D01*
X592339Y585504D02*
X587259Y595664D01*
X597419D01*
X592339Y585504D01*
X586000Y506920D02*
X580920Y517080D01*
X591080D01*
X586000Y506920D01*
X385555Y275829D02*
X380475Y285989D01*
X390635D01*
X385555Y275829D01*
X779970Y289296D02*
X774890Y299456D01*
X785050D01*
X779970Y289296D01*
X788645Y187782D02*
X783565Y197942D01*
X793725D01*
X788645Y187782D01*
X722641Y210155D02*
X717561Y220315D01*
X727721D01*
X722641Y210155D01*
X700000Y194920D02*
X694920Y205080D01*
X705080D01*
X700000Y194920D01*
X690000Y353920D02*
X684920Y364080D01*
X695080D01*
X690000Y353920D01*
X702000D02*
X696920Y364080D01*
X707080D01*
X702000Y353920D01*
X696000D02*
X690920Y364080D01*
X701080D01*
X696000Y353920D01*
X690000Y347920D02*
X684920Y358080D01*
X695080D01*
X690000Y347920D01*
X696000D02*
X690920Y358080D01*
X701080D01*
X696000Y347920D01*
X702000D02*
X696920Y358080D01*
X707080D01*
X702000Y347920D01*
X720000Y245920D02*
X714920Y256080D01*
X725080D01*
X720000Y245920D01*
X714000D02*
X708920Y256080D01*
X719080D01*
X714000Y245920D01*
X708000D02*
X702920Y256080D01*
X713080D01*
X708000Y245920D01*
X714000Y251920D02*
X708920Y262080D01*
X719080D01*
X714000Y251920D01*
X720000D02*
X714920Y262080D01*
X725080D01*
X720000Y251920D01*
X708000D02*
X702920Y262080D01*
X713080D01*
X708000Y251920D01*
X196958Y264888D02*
X191878Y275048D01*
X202038D01*
X196958Y264888D01*
X228348Y263692D02*
X223268Y273852D01*
X233428D01*
X228348Y263692D01*
X213000Y211920D02*
X207920Y222080D01*
X218080D01*
X213000Y211920D01*
Y204920D02*
X207920Y215080D01*
X218080D01*
X213000Y204920D01*
X220000Y211920D02*
X214920Y222080D01*
X225080D01*
X220000Y211920D01*
Y204920D02*
X214920Y215080D01*
X225080D01*
X220000Y204920D01*
X213000Y197920D02*
X207920Y208080D01*
X218080D01*
X213000Y197920D01*
Y190920D02*
X207920Y201080D01*
X218080D01*
X213000Y190920D01*
X220000Y197920D02*
X214920Y208080D01*
X225080D01*
X220000Y197920D01*
Y190920D02*
X214920Y201080D01*
X225080D01*
X220000Y190920D01*
X227000Y197920D02*
X221920Y208080D01*
X232080D01*
X227000Y197920D01*
Y190920D02*
X221920Y201080D01*
X232080D01*
X227000Y190920D01*
X234000Y197920D02*
X228920Y208080D01*
X239080D01*
X234000Y197920D01*
Y190920D02*
X228920Y201080D01*
X239080D01*
X234000Y190920D01*
X241000Y197920D02*
X235920Y208080D01*
X246080D01*
X241000Y197920D01*
X248000D02*
X242920Y208080D01*
X253080D01*
X248000Y197920D01*
X241000Y190920D02*
X235920Y201080D01*
X246080D01*
X241000Y190920D01*
X255000Y197920D02*
X249920Y208080D01*
X260080D01*
X255000Y197920D01*
X213000Y166920D02*
X207920Y177080D01*
X218080D01*
X213000Y166920D01*
X220000D02*
X214920Y177080D01*
X225080D01*
X220000Y166920D01*
X227000D02*
X221920Y177080D01*
X232080D01*
X227000Y166920D01*
X234000D02*
X228920Y177080D01*
X239080D01*
X234000Y166920D01*
X452000Y171920D02*
X446920Y182080D01*
X457080D01*
X452000Y171920D01*
X459000D02*
X453920Y182080D01*
X464080D01*
X459000Y171920D01*
X466000D02*
X460920Y182080D01*
X471080D01*
X466000Y171920D01*
X452000Y164920D02*
X446920Y175080D01*
X457080D01*
X452000Y164920D01*
X459000D02*
X453920Y175080D01*
X464080D01*
X459000Y164920D01*
X466000D02*
X460920Y175080D01*
X471080D01*
X466000Y164920D01*
X452000Y157920D02*
X446920Y168080D01*
X457080D01*
X452000Y157920D01*
X459000D02*
X453920Y168080D01*
X464080D01*
X459000Y157920D01*
X466000D02*
X460920Y168080D01*
X471080D01*
X466000Y157920D01*
X452000Y178920D02*
X446920Y189080D01*
X457080D01*
X452000Y178920D01*
Y185920D02*
X446920Y196080D01*
X457080D01*
X452000Y185920D01*
X675054Y193189D02*
X669974Y203349D01*
X680134D01*
X675054Y193189D01*
X566000Y197920D02*
X560920Y208080D01*
X571080D01*
X566000Y197920D01*
X573500D02*
X568420Y208080D01*
X578580D01*
X573500Y197920D01*
X581000D02*
X575920Y208080D01*
X586080D01*
X581000Y197920D01*
X588500D02*
X583420Y208080D01*
X593580D01*
X588500Y197920D01*
X566000Y190420D02*
X560920Y200580D01*
X571080D01*
X566000Y190420D01*
X573500D02*
X568420Y200580D01*
X578580D01*
X573500Y190420D01*
X581000D02*
X575920Y200580D01*
X586080D01*
X581000Y190420D01*
X566000Y182920D02*
X560920Y193080D01*
X571080D01*
X566000Y182920D01*
X316000Y560920D02*
X310920Y571080D01*
X321080D01*
X316000Y560920D01*
X364600Y360751D02*
X359520Y370911D01*
X369680D01*
X364600Y360751D01*
X120000Y527420D02*
X114920Y537580D01*
X125080D01*
X120000Y527420D01*
X536860Y765621D02*
X531780Y775781D01*
X541940D01*
X536860Y765621D01*
X541000Y705920D02*
X535920Y716080D01*
X546080D01*
X541000Y705920D01*
X533500Y713420D02*
X528420Y723580D01*
X538580D01*
X533500Y713420D01*
X541000D02*
X535920Y723580D01*
X546080D01*
X541000Y713420D01*
X548500D02*
X543420Y723580D01*
X553580D01*
X548500Y713420D01*
X533500Y705920D02*
X528420Y716080D01*
X538580D01*
X533500Y705920D01*
X548500D02*
X543420Y716080D01*
X553580D01*
X548500Y705920D01*
Y698420D02*
X543420Y708580D01*
X553580D01*
X548500Y698420D01*
X541000D02*
X535920Y708580D01*
X546080D01*
X541000Y698420D01*
X533500D02*
X528420Y708580D01*
X538580D01*
X533500Y698420D01*
X548500Y690920D02*
X543420Y701080D01*
X553580D01*
X548500Y690920D01*
X541000D02*
X535920Y701080D01*
X546080D01*
X541000Y690920D01*
X533500D02*
X528420Y701080D01*
X538580D01*
X533500Y690920D01*
X533500Y720920D02*
X528420Y731080D01*
X538580D01*
X533500Y720920D01*
X541000D02*
X535920Y731080D01*
X546080D01*
X541000Y720920D01*
X548500D02*
X543420Y731080D01*
X553580D01*
X548500Y720920D01*
X556000Y690920D02*
X550920Y701080D01*
X561080D01*
X556000Y690920D01*
Y713420D02*
X550920Y723580D01*
X561080D01*
X556000Y713420D01*
Y705920D02*
X550920Y716080D01*
X561080D01*
X556000Y705920D01*
Y698420D02*
X550920Y708580D01*
X561080D01*
X556000Y698420D01*
X769850Y109670D02*
X764770Y119830D01*
X774930D01*
X769850Y109670D01*
Y135070D02*
X764770Y145230D01*
X774930D01*
X769850Y135070D01*
X147000Y710420D02*
X141920Y720580D01*
X152080D01*
X147000Y710420D01*
Y702920D02*
X141920Y713080D01*
X152080D01*
X147000Y702920D01*
Y695420D02*
X141920Y705580D01*
X152080D01*
X147000Y695420D01*
Y687920D02*
X141920Y698080D01*
X152080D01*
X147000Y687920D01*
X511000Y467920D02*
X505920Y478080D01*
X516080D01*
X511000Y467920D01*
X255767Y469686D02*
X250687Y479846D01*
X260847D01*
X255767Y469686D01*
X440625Y413144D02*
X435545Y423304D01*
X445705D01*
X440625Y413144D01*
X440139Y421140D02*
X435059Y431300D01*
X445219D01*
X440139Y421140D01*
X463586Y415240D02*
X458506Y425400D01*
X468666D01*
X463586Y415240D01*
X381830Y299350D02*
X376750Y309510D01*
X386910D01*
X381830Y299350D01*
X757150Y84270D02*
X752070Y94430D01*
X762230D01*
X757150Y84270D01*
X769850Y96970D02*
X764770Y107130D01*
X774930D01*
X769850Y96970D01*
X520140Y260760D02*
X515060Y270920D01*
X525220D01*
X520140Y260760D01*
X769850Y122370D02*
X764770Y132530D01*
X774930D01*
X769850Y122370D01*
X510250Y185420D02*
X505170Y195580D01*
X515330D01*
X510250Y185420D01*
X364250Y416670D02*
X359170Y426830D01*
X369330D01*
X364250Y416670D01*
X769850Y84270D02*
X764770Y94430D01*
X774930D01*
X769850Y84270D01*
X163000Y229920D02*
X157920Y240080D01*
X168080D01*
X163000Y229920D01*
X732500Y604920D02*
X727420Y615080D01*
X737580D01*
X732500Y604920D01*
Y597420D02*
X727420Y607580D01*
X737580D01*
X732500Y597420D01*
Y612420D02*
X727420Y622580D01*
X737580D01*
X732500Y612420D01*
X740000Y604920D02*
X734920Y615080D01*
X745080D01*
X740000Y604920D01*
Y597420D02*
X734920Y607580D01*
X745080D01*
X740000Y597420D01*
Y612420D02*
X734920Y622580D01*
X745080D01*
X740000Y612420D01*
X747500Y597420D02*
X742420Y607580D01*
X752580D01*
X747500Y597420D01*
X755000D02*
X749920Y607580D01*
X760080D01*
X755000Y597420D01*
X747500Y604920D02*
X742420Y615080D01*
X752580D01*
X747500Y604920D01*
X762500D02*
X757420Y615080D01*
X767580D01*
X762500Y604920D01*
X755000D02*
X749920Y615080D01*
X760080D01*
X755000Y604920D01*
X770000Y597420D02*
X764920Y607580D01*
X775080D01*
X770000Y597420D01*
X777500D02*
X772420Y607580D01*
X782580D01*
X777500Y597420D01*
Y604920D02*
X772420Y615080D01*
X782580D01*
X777500Y604920D01*
X770000D02*
X764920Y615080D01*
X775080D01*
X770000Y604920D01*
X747500Y612420D02*
X742420Y622580D01*
X752580D01*
X747500Y612420D01*
X755000D02*
X749920Y622580D01*
X760080D01*
X755000Y612420D01*
X747500Y639920D02*
X742420Y650080D01*
X752580D01*
X747500Y639920D01*
X770000Y612420D02*
X764920Y622580D01*
X775080D01*
X770000Y612420D01*
X777500D02*
X772420Y622580D01*
X782580D01*
X777500Y612420D01*
X762500D02*
X757420Y622580D01*
X767580D01*
X762500Y612420D01*
X361250Y264920D02*
X356170Y275080D01*
X366330D01*
X361250Y264920D01*
X128750Y110170D02*
X123670Y120330D01*
X133830D01*
X128750Y110170D01*
X73801Y110508D02*
X68721Y120668D01*
X78881D01*
X73801Y110508D01*
X189662Y110258D02*
X184582Y120418D01*
X194742D01*
X189662Y110258D01*
X68750Y178420D02*
X63670Y188580D01*
X73830D01*
X68750Y178420D01*
X75625Y271045D02*
X70545Y281205D01*
X80705D01*
X75625Y271045D01*
X542750Y386420D02*
X537670Y396580D01*
X547830D01*
X542750Y386420D01*
X358433Y298608D02*
X353353Y308768D01*
X363512D01*
X358433Y298608D01*
X656755Y404925D02*
X651675Y415085D01*
X661835D01*
X656755Y404925D01*
X505250Y414170D02*
X500170Y424330D01*
X510330D01*
X505250Y414170D01*
X323869Y717409D02*
X318789Y727569D01*
X328949D01*
X323869Y717409D01*
X762500Y597420D02*
X757420Y607580D01*
X767580D01*
X762500Y597420D01*
X562728Y158116D02*
X557648Y168276D01*
X567808D01*
X562728Y158116D01*
X676500Y160670D02*
X671420Y170830D01*
X681580D01*
X676500Y160670D01*
X270689Y385168D02*
X265609Y395328D01*
X275769D01*
X270689Y385168D01*
X366811Y191761D02*
X361731Y201921D01*
X371891D01*
X366811Y191761D01*
X316000Y150920D02*
X310920Y161080D01*
X321080D01*
X316000Y150920D01*
X510000Y235920D02*
X504920Y246080D01*
X515080D01*
X510000Y235920D01*
X647000Y602920D02*
X641920Y613080D01*
X652080D01*
X647000Y602920D01*
X189842Y188494D02*
X184762Y198654D01*
X194922D01*
X189842Y188494D01*
X432000Y151920D02*
X426920Y162080D01*
X437080D01*
X432000Y151920D01*
X364073Y350665D02*
X358993Y360825D01*
X369153D01*
X364073Y350665D01*
X537500Y294920D02*
X532420Y305080D01*
X542580D01*
X537500Y294920D01*
X545000D02*
X539920Y305080D01*
X550080D01*
X545000Y294920D01*
X552500D02*
X547420Y305080D01*
X557580D01*
X552500Y294920D01*
X560000D02*
X554920Y305080D01*
X565080D01*
X560000Y294920D01*
X567500D02*
X562420Y305080D01*
X572580D01*
X567500Y294920D01*
X575000D02*
X569920Y305080D01*
X580080D01*
X575000Y294920D01*
X537500Y287420D02*
X532420Y297580D01*
X542580D01*
X537500Y287420D01*
X545000D02*
X539920Y297580D01*
X550080D01*
X545000Y287420D01*
X552500D02*
X547420Y297580D01*
X557580D01*
X552500Y287420D01*
X560000D02*
X554920Y297580D01*
X565080D01*
X560000Y287420D01*
X567500D02*
X562420Y297580D01*
X572580D01*
X567500Y287420D01*
X575000D02*
X569920Y297580D01*
X580080D01*
X575000Y287420D01*
X537500Y279920D02*
X532420Y290080D01*
X542580D01*
X537500Y279920D01*
X545000D02*
X539920Y290080D01*
X550080D01*
X545000Y279920D01*
X552500D02*
X547420Y290080D01*
X557580D01*
X552500Y279920D01*
X560000D02*
X554920Y290080D01*
X565080D01*
X560000Y279920D01*
X567500D02*
X562420Y290080D01*
X572580D01*
X567500Y279920D01*
X575000D02*
X569920Y290080D01*
X580080D01*
X575000Y279920D01*
Y302420D02*
X569920Y312580D01*
X580080D01*
X575000Y302420D01*
X567500D02*
X562420Y312580D01*
X572580D01*
X567500Y302420D01*
X560000D02*
X554920Y312580D01*
X565080D01*
X560000Y302420D01*
X552500D02*
X547420Y312580D01*
X557580D01*
X552500Y302420D01*
X545000D02*
X539920Y312580D01*
X550080D01*
X545000Y302420D01*
X537500D02*
X532420Y312580D01*
X542580D01*
X537500Y302420D01*
X338000Y403920D02*
X332920Y414080D01*
X343080D01*
X338000Y403920D01*
X345000D02*
X339920Y414080D01*
X350080D01*
X345000Y403920D01*
X352000D02*
X346920Y414080D01*
X357080D01*
X352000Y403920D01*
X338000Y396920D02*
X332920Y407080D01*
X343080D01*
X338000Y396920D01*
X345000D02*
X339920Y407080D01*
X350080D01*
X345000Y396920D01*
X352000D02*
X346920Y407080D01*
X357080D01*
X352000Y396920D01*
Y389920D02*
X346920Y400080D01*
X357080D01*
X352000Y389920D01*
X345000D02*
X339920Y400080D01*
X350080D01*
X345000Y389920D01*
X338000D02*
X332920Y400080D01*
X343080D01*
X338000Y389920D01*
X352000Y382920D02*
X346920Y393080D01*
X357080D01*
X352000Y382920D01*
X345000D02*
X339920Y393080D01*
X350080D01*
X345000Y382920D01*
X338000D02*
X332920Y393080D01*
X343080D01*
X338000Y382920D01*
X839000Y365920D02*
X833920Y376080D01*
X844080D01*
X839000Y365920D01*
X848000D02*
X842920Y376080D01*
X853080D01*
X848000Y365920D01*
Y356920D02*
X842920Y367080D01*
X853080D01*
X848000Y356920D01*
X839000D02*
X833920Y367080D01*
X844080D01*
X839000Y356920D01*
Y347920D02*
X833920Y358080D01*
X844080D01*
X839000Y347920D01*
X848000D02*
X842920Y358080D01*
X853080D01*
X848000Y347920D01*
X839000Y338920D02*
X833920Y349080D01*
X844080D01*
X839000Y338920D01*
X848000D02*
X842920Y349080D01*
X853080D01*
X848000Y338920D01*
X839000Y329920D02*
X833920Y340080D01*
X844080D01*
X839000Y329920D01*
X848000D02*
X842920Y340080D01*
X853080D01*
X848000Y329920D01*
X838500Y453420D02*
X833420Y463580D01*
X843580D01*
X838500Y453420D01*
X831000D02*
X825920Y463580D01*
X836080D01*
X831000Y453420D01*
X823500D02*
X818420Y463580D01*
X828580D01*
X823500Y453420D01*
X838500Y460920D02*
X833420Y471080D01*
X843580D01*
X838500Y460920D01*
X831000D02*
X825920Y471080D01*
X836080D01*
X831000Y460920D01*
X823500D02*
X818420Y471080D01*
X828580D01*
X823500Y460920D01*
X838500Y445920D02*
X833420Y456080D01*
X843580D01*
X838500Y445920D01*
X831000D02*
X825920Y456080D01*
X836080D01*
X831000Y445920D01*
X823500D02*
X818420Y456080D01*
X828580D01*
X823500Y445920D01*
X816000Y460920D02*
X810920Y471080D01*
X821080D01*
X816000Y460920D01*
Y453420D02*
X810920Y463580D01*
X821080D01*
X816000Y453420D01*
Y445920D02*
X810920Y456080D01*
X821080D01*
X816000Y445920D01*
X838500Y438420D02*
X833420Y448580D01*
X843580D01*
X838500Y438420D01*
X831000D02*
X825920Y448580D01*
X836080D01*
X831000Y438420D01*
X823500D02*
X818420Y448580D01*
X828580D01*
X823500Y438420D01*
X816000D02*
X810920Y448580D01*
X821080D01*
X816000Y438420D01*
X327192Y265240D02*
X322112Y275400D01*
X332272D01*
X327192Y265240D01*
X642000Y353920D02*
X636920Y364080D01*
X647080D01*
X642000Y353920D01*
X671000Y382920D02*
X665920Y393080D01*
X676080D01*
X671000Y382920D01*
X692750Y158420D02*
X687670Y168580D01*
X697830D01*
X692750Y158420D01*
X714177Y194330D02*
X709097Y204490D01*
X719257D01*
X714177Y194330D01*
X574000Y466920D02*
X568920Y477080D01*
X579080D01*
X574000Y466920D01*
X532000Y474920D02*
X526920Y485080D01*
X537080D01*
X532000Y474920D01*
X413250Y280670D02*
X408170Y290830D01*
X418330D01*
X413250Y280670D01*
X612930Y571106D02*
X607850Y581267D01*
X618010D01*
X612930Y571106D01*
X618000Y576920D02*
X612920Y587080D01*
X623080D01*
X618000Y576920D01*
X558000Y536920D02*
X552920Y547080D01*
X563080D01*
X558000Y536920D01*
X549648Y528944D02*
X544568Y539104D01*
X554728D01*
X549648Y528944D01*
X714926Y783154D02*
X709846Y793314D01*
X720006D01*
X714926Y783154D01*
X418687Y415071D02*
X413607Y425232D01*
X423767D01*
X418687Y415071D01*
X797086Y662920D02*
X792006Y673080D01*
X802166D01*
X797086Y662920D01*
X797365Y652804D02*
X792284Y662964D01*
X802445D01*
X797365Y652804D01*
X522500Y314920D02*
X517420Y325080D01*
X527580D01*
X522500Y314920D01*
X217379Y523740D02*
X212299Y533900D01*
X222458D01*
X217379Y523740D01*
X303851Y519920D02*
X298771Y530080D01*
X308931D01*
X303851Y519920D01*
X387105Y295551D02*
X382025Y305711D01*
X392185D01*
X387105Y295551D01*
X285750Y487920D02*
X280670Y498080D01*
X290830D01*
X285750Y487920D01*
X411033Y213948D02*
X405953Y224108D01*
X416113D01*
X411033Y213948D01*
X169662Y110258D02*
X164582Y120418D01*
X174742D01*
X169662Y110258D01*
X296250Y217670D02*
X291170Y227830D01*
X301330D01*
X296250Y217670D01*
X376750Y265170D02*
X371670Y275330D01*
X381830D01*
X376750Y265170D01*
X238750Y287912D02*
X233670Y298072D01*
X243830D01*
X238750Y287912D01*
X393484Y296814D02*
X388404Y306973D01*
X398564D01*
X393484Y296814D01*
X463250Y526420D02*
X458170Y536580D01*
X468330D01*
X463250Y526420D01*
X153750Y285420D02*
X148670Y295580D01*
X158830D01*
X153750Y285420D01*
X369435Y265392D02*
X364355Y275552D01*
X374515D01*
X369435Y265392D01*
X53801Y110508D02*
X48721Y120668D01*
X58881D01*
X53801Y110508D01*
X329309Y271808D02*
X324229Y281968D01*
X334389D01*
X329309Y271808D01*
X785000Y212420D02*
X779920Y222580D01*
X790080D01*
X785000Y212420D01*
X586560Y679693D02*
X581480Y689853D01*
X591640D01*
X586560Y679693D01*
X517250Y138920D02*
X512170Y149080D01*
X522330D01*
X517250Y138920D01*
X515750Y478170D02*
X510670Y488330D01*
X520830D01*
X515750Y478170D01*
X756000Y323420D02*
X750920Y333580D01*
X761080D01*
X756000Y323420D01*
X451748Y411019D02*
X446668Y421179D01*
X456828D01*
X451748Y411019D01*
X360964Y727202D02*
X355884Y737362D01*
X366044D01*
X360964Y727202D01*
X665000Y197420D02*
X659920Y207580D01*
X670080D01*
X665000Y197420D01*
X402000Y138920D02*
X396920Y149080D01*
X407080D01*
X402000Y138920D01*
X494000Y484170D02*
X488920Y494330D01*
X499080D01*
X494000Y484170D01*
X425793Y169750D02*
X420713Y179910D01*
X430873D01*
X425793Y169750D01*
X593454Y680263D02*
X588374Y690423D01*
X598534D01*
X593454Y680263D01*
X523950Y158800D02*
X518870Y168960D01*
X529030D01*
X523950Y158800D01*
X93500Y192670D02*
X88420Y202830D01*
X98580D01*
X93500Y192670D01*
X171000Y197170D02*
X165920Y207330D01*
X176080D01*
X171000Y197170D01*
X318750Y265170D02*
X313670Y275330D01*
X323830D01*
X318750Y265170D01*
X568500Y617420D02*
X563420Y627580D01*
X573580D01*
X568500Y617420D01*
X84500Y717420D02*
X79420Y727580D01*
X89580D01*
X84500Y717420D01*
X436266Y406883D02*
X431186Y417043D01*
X441346D01*
X436266Y406883D01*
X732500Y672420D02*
X727420Y682580D01*
X737580D01*
X732500Y672420D01*
X760000D02*
X754920Y682580D01*
X765080D01*
X760000Y672420D01*
X311750Y262670D02*
X306670Y272830D01*
X316830D01*
X311750Y262670D01*
X322500Y531170D02*
X317420Y541330D01*
X327580D01*
X322500Y531170D01*
X188000Y518670D02*
X182920Y528830D01*
X193080D01*
X188000Y518670D01*
X348410Y680760D02*
X343330Y690920D01*
X353490D01*
X348410Y680760D01*
X454838Y422525D02*
X449758Y432685D01*
X459918D01*
X454838Y422525D01*
X425873Y528685D02*
X420793Y538845D01*
X430953D01*
X425873Y528685D01*
X632250Y138920D02*
X627170Y149080D01*
X637330D01*
X632250Y138920D01*
X311679Y160086D02*
X306599Y170246D01*
X316759D01*
X311679Y160086D01*
X255000Y632544D02*
X249920Y642704D01*
X260080D01*
X255000Y632544D01*
X246000D02*
X240920Y642704D01*
X251080D01*
X246000Y632544D01*
X237000Y641544D02*
X231920Y651704D01*
X242080D01*
X237000Y641544D01*
X228000Y650544D02*
X222920Y660704D01*
X233080D01*
X228000Y650544D01*
X246000Y641544D02*
X240920Y651704D01*
X251080D01*
X246000Y641544D01*
X237000Y650544D02*
X231920Y660704D01*
X242080D01*
X237000Y650544D01*
X246000D02*
X240920Y660704D01*
X251080D01*
X246000Y650544D01*
X264000Y632544D02*
X258920Y642704D01*
X269080D01*
X264000Y632544D01*
X255000Y641544D02*
X249920Y651704D01*
X260080D01*
X255000Y641544D01*
Y650544D02*
X249920Y660704D01*
X260080D01*
X255000Y650544D01*
X273000Y632544D02*
X267920Y642704D01*
X278080D01*
X273000Y632544D01*
X264000Y641544D02*
X258920Y651704D01*
X269080D01*
X264000Y641544D01*
X273000D02*
X267920Y651704D01*
X278080D01*
X273000Y641544D01*
X264000Y650544D02*
X258920Y660704D01*
X269080D01*
X264000Y650544D01*
X290403Y634464D02*
X285323Y644624D01*
X295483D01*
X290403Y634464D01*
X273000Y650544D02*
X267920Y660704D01*
X278080D01*
X273000Y650544D01*
X120000Y624920D02*
X114920Y635080D01*
X125080D01*
X120000Y624920D01*
X404000Y750920D02*
X398920Y761080D01*
X409080D01*
X404000Y750920D01*
X416577Y638856D02*
X411497Y649016D01*
X421657D01*
X416577Y638856D01*
X539000Y636170D02*
X533920Y646330D01*
X544080D01*
X539000Y636170D01*
X583750Y793920D02*
X578670Y804080D01*
X588830D01*
X583750Y793920D01*
X228000Y641544D02*
X222920Y651704D01*
X233080D01*
X228000Y641544D01*
X142500Y602420D02*
X137420Y612580D01*
X147580D01*
X142500Y602420D01*
X157500Y617420D02*
X152420Y627580D01*
X162580D01*
X157500Y617420D01*
Y609920D02*
X152420Y620080D01*
X162580D01*
X157500Y609920D01*
Y602420D02*
X152420Y612580D01*
X162580D01*
X157500Y602420D01*
X150000D02*
X144920Y612580D01*
X155080D01*
X150000Y602420D01*
X135000Y609920D02*
X129920Y620080D01*
X140080D01*
X135000Y609920D01*
X142500D02*
X137420Y620080D01*
X147580D01*
X142500Y609920D01*
X150000D02*
X144920Y620080D01*
X155080D01*
X150000Y609920D01*
Y617420D02*
X144920Y627580D01*
X155080D01*
X150000Y617420D01*
X127500D02*
X122420Y627580D01*
X132580D01*
X127500Y617420D01*
X135000D02*
X129920Y627580D01*
X140080D01*
X135000Y617420D01*
X142500D02*
X137420Y627580D01*
X147580D01*
X142500Y617420D01*
Y624920D02*
X137420Y635080D01*
X147580D01*
X142500Y624920D01*
X135000D02*
X129920Y635080D01*
X140080D01*
X135000Y624920D01*
X127500D02*
X122420Y635080D01*
X132580D01*
X127500Y624920D01*
X142500Y632420D02*
X137420Y642580D01*
X147580D01*
X142500Y632420D01*
X135000D02*
X129920Y642580D01*
X140080D01*
X135000Y632420D01*
X127500D02*
X122420Y642580D01*
X132580D01*
X127500Y632420D01*
X120000D02*
X114920Y642580D01*
X125080D01*
X120000Y632420D01*
X447500Y697420D02*
X442420Y707580D01*
X452580D01*
X447500Y697420D01*
X440000D02*
X434920Y707580D01*
X445080D01*
X440000Y697420D01*
X432500D02*
X427420Y707580D01*
X437580D01*
X432500Y697420D01*
X410000Y719920D02*
X404920Y730080D01*
X415080D01*
X410000Y719920D01*
X417500D02*
X412420Y730080D01*
X422580D01*
X417500Y719920D01*
X425000D02*
X419920Y730080D01*
X430080D01*
X425000Y719920D01*
X447500Y704920D02*
X442420Y715080D01*
X452580D01*
X447500Y704920D01*
X440000D02*
X434920Y715080D01*
X445080D01*
X440000Y704920D01*
X432500D02*
X427420Y715080D01*
X437580D01*
X432500Y704920D01*
X447500Y712420D02*
X442420Y722580D01*
X452580D01*
X447500Y712420D01*
X440000D02*
X434920Y722580D01*
X445080D01*
X440000Y712420D01*
X432500D02*
X427420Y722580D01*
X437580D01*
X432500Y712420D01*
X447500Y719920D02*
X442420Y730080D01*
X452580D01*
X447500Y719920D01*
X440000D02*
X434920Y730080D01*
X445080D01*
X440000Y719920D01*
X432500D02*
X427420Y730080D01*
X437580D01*
X432500Y719920D01*
X228000Y632544D02*
X222920Y642704D01*
X233080D01*
X228000Y632544D01*
X237000D02*
X231920Y642704D01*
X242080D01*
X237000Y632544D01*
D132*
X75080Y371180D02*
G03*
X75080Y371180I-5080J0D01*
G01*
Y391180D02*
G03*
X75080Y391180I-5080J0D01*
G01*
X95080Y431180D02*
G03*
X95080Y431180I-5080J0D01*
G01*
X75080D02*
G03*
X75080Y431180I-5080J0D01*
G01*
X95080Y491180D02*
G03*
X95080Y491180I-5080J0D01*
G01*
X75080D02*
G03*
X75080Y491180I-5080J0D01*
G01*
X95080Y511180D02*
G03*
X95080Y511180I-5080J0D01*
G01*
X75080D02*
G03*
X75080Y511180I-5080J0D01*
G01*
X95080Y371180D02*
G03*
X95080Y371180I-5080J0D01*
G01*
Y391180D02*
G03*
X95080Y391180I-5080J0D01*
G01*
Y411180D02*
G03*
X95080Y411180I-5080J0D01*
G01*
X75080D02*
G03*
X75080Y411180I-5080J0D01*
G01*
X95080Y451180D02*
G03*
X95080Y451180I-5080J0D01*
G01*
X75080D02*
G03*
X75080Y451180I-5080J0D01*
G01*
X95080Y471180D02*
G03*
X95080Y471180I-5080J0D01*
G01*
X75080D02*
G03*
X75080Y471180I-5080J0D01*
G01*
X95080Y531180D02*
G03*
X95080Y531180I-5080J0D01*
G01*
X75080D02*
G03*
X75080Y531180I-5080J0D01*
G01*
X95080Y551180D02*
G03*
X95080Y551180I-5080J0D01*
G01*
X75080D02*
G03*
X75080Y551180I-5080J0D01*
G01*
M02*
