G04*
G04 #@! TF.GenerationSoftware,Altium Limited,Altium Designer,26.2.0 (7)*
G04*
G04 Layer_Color=16711935*
%FSLAX44Y44*%
%MOMM*%
G71*
G04*
G04 #@! TF.SameCoordinates,D5DFED66-1DDD-4205-BACF-39BFCEB3ABE1*
G04*
G04*
G04 #@! TF.FilePolarity,Positive*
G04*
G01*
G75*
%ADD10C,0.2540*%
%ADD11C,0.2000*%
%ADD12C,0.1000*%
%ADD14C,0.1270*%
%ADD129C,0.0500*%
G36*
X299489Y720404D02*
X299475D01*
X299418D01*
X299334D01*
X299221Y720418D01*
X299094Y720432D01*
X298953Y720460D01*
X298812Y720488D01*
X298657Y720545D01*
X298643D01*
X298629Y720559D01*
X298544Y720587D01*
X298417Y720643D01*
X298248Y720728D01*
X298051Y720841D01*
X297825Y720982D01*
X297600Y721137D01*
X297360Y721334D01*
X297346D01*
X297332Y721362D01*
X297247Y721433D01*
X297120Y721560D01*
X296937Y721743D01*
X296726Y721954D01*
X296472Y722222D01*
X296190Y722546D01*
X295894Y722899D01*
X295880Y722913D01*
X295837Y722969D01*
X295767Y723054D01*
X295683Y723153D01*
X295570Y723279D01*
X295443Y723435D01*
X295302Y723590D01*
X295147Y723773D01*
X294809Y724125D01*
X294470Y724478D01*
X294301Y724647D01*
X294132Y724802D01*
X293977Y724943D01*
X293822Y725056D01*
X293808D01*
X293794Y725084D01*
X293751Y725112D01*
X293695Y725140D01*
X293540Y725239D01*
X293356Y725352D01*
X293131Y725450D01*
X292891Y725549D01*
X292623Y725605D01*
X292370Y725634D01*
X292356D01*
X292341D01*
X292257Y725620D01*
X292116Y725605D01*
X291961Y725563D01*
X291763Y725507D01*
X291566Y725408D01*
X291369Y725281D01*
X291171Y725112D01*
X291143Y725084D01*
X291087Y725013D01*
X291016Y724915D01*
X290918Y724760D01*
X290833Y724562D01*
X290749Y724337D01*
X290692Y724069D01*
X290678Y723773D01*
Y723688D01*
X290692Y723632D01*
X290706Y723463D01*
X290749Y723265D01*
X290805Y723054D01*
X290904Y722814D01*
X291031Y722589D01*
X291200Y722377D01*
X291228Y722349D01*
X291298Y722293D01*
X291411Y722208D01*
X291580Y722123D01*
X291778Y722025D01*
X292031Y721940D01*
X292313Y721884D01*
X292638Y721856D01*
X292511Y720629D01*
X292496D01*
X292454Y720643D01*
X292384D01*
X292285Y720657D01*
X292172Y720686D01*
X292045Y720714D01*
X291890Y720756D01*
X291735Y720798D01*
X291397Y720911D01*
X291059Y721080D01*
X290889Y721179D01*
X290720Y721306D01*
X290565Y721433D01*
X290424Y721574D01*
X290410Y721588D01*
X290396Y721616D01*
X290354Y721658D01*
X290312Y721729D01*
X290255Y721813D01*
X290199Y721912D01*
X290128Y722025D01*
X290058Y722166D01*
X289987Y722321D01*
X289917Y722490D01*
X289860Y722673D01*
X289804Y722871D01*
X289762Y723082D01*
X289719Y723308D01*
X289705Y723547D01*
X289691Y723801D01*
Y723942D01*
X289705Y724041D01*
X289719Y724154D01*
X289734Y724294D01*
X289762Y724449D01*
X289790Y724605D01*
X289889Y724971D01*
X290030Y725338D01*
X290114Y725521D01*
X290213Y725704D01*
X290340Y725873D01*
X290481Y726028D01*
X290495Y726042D01*
X290509Y726071D01*
X290565Y726099D01*
X290622Y726155D01*
X290692Y726226D01*
X290791Y726296D01*
X290889Y726367D01*
X291016Y726451D01*
X291284Y726592D01*
X291623Y726733D01*
X291792Y726790D01*
X291989Y726818D01*
X292186Y726846D01*
X292398Y726860D01*
X292426D01*
X292496D01*
X292609Y726846D01*
X292764Y726832D01*
X292934Y726804D01*
X293131Y726747D01*
X293342Y726691D01*
X293554Y726606D01*
X293582Y726592D01*
X293652Y726564D01*
X293765Y726508D01*
X293920Y726423D01*
X294090Y726310D01*
X294301Y726169D01*
X294512Y726000D01*
X294752Y725803D01*
X294780Y725775D01*
X294865Y725704D01*
X294935Y725634D01*
X295006Y725563D01*
X295090Y725479D01*
X295203Y725366D01*
X295316Y725253D01*
X295443Y725112D01*
X295584Y724971D01*
X295739Y724802D01*
X295894Y724619D01*
X296077Y724421D01*
X296260Y724196D01*
X296458Y723970D01*
X296472Y723956D01*
X296500Y723928D01*
X296542Y723872D01*
X296599Y723801D01*
X296683Y723717D01*
X296768Y723618D01*
X296951Y723392D01*
X297163Y723153D01*
X297374Y722927D01*
X297557Y722730D01*
X297628Y722645D01*
X297698Y722575D01*
X297712Y722561D01*
X297755Y722518D01*
X297811Y722462D01*
X297896Y722391D01*
X297994Y722321D01*
X298093Y722236D01*
X298333Y722067D01*
Y726874D01*
X299489D01*
Y720404D01*
D02*
G37*
G36*
X300250Y719135D02*
Y719121D01*
X300236Y719093D01*
X300208Y719036D01*
X300179Y718952D01*
X300137Y718853D01*
X300081Y718740D01*
X300024Y718613D01*
X299954Y718472D01*
X299785Y718162D01*
X299587Y717810D01*
X299334Y717429D01*
X299052Y717035D01*
Y717020D01*
X299080Y716992D01*
X299108Y716922D01*
X299150Y716851D01*
X299193Y716738D01*
X299249Y716626D01*
X299291Y716485D01*
X299348Y716330D01*
X299404Y716161D01*
X299461Y715977D01*
X299559Y715568D01*
X299630Y715117D01*
X299644Y714878D01*
X299658Y714638D01*
Y714511D01*
X299644Y714412D01*
Y714300D01*
X299630Y714159D01*
X299601Y714004D01*
X299573Y713835D01*
X299503Y713468D01*
X299390Y713059D01*
X299235Y712636D01*
X299136Y712439D01*
X299023Y712227D01*
X299009Y712213D01*
X298995Y712185D01*
X298953Y712129D01*
X298911Y712058D01*
X298840Y711960D01*
X298756Y711861D01*
X298558Y711621D01*
X298305Y711353D01*
X297994Y711086D01*
X297642Y710818D01*
X297233Y710578D01*
X297219D01*
X297177Y710550D01*
X297120Y710522D01*
X297036Y710493D01*
X296923Y710451D01*
X296796Y710395D01*
X296641Y710338D01*
X296472Y710296D01*
X296289Y710240D01*
X296091Y710183D01*
X295880Y710141D01*
X295640Y710085D01*
X295147Y710028D01*
X294625Y710000D01*
X294611D01*
X294555D01*
X294484D01*
X294386Y710014D01*
X294259D01*
X294104Y710028D01*
X293934Y710042D01*
X293751Y710071D01*
X293342Y710141D01*
X292905Y710240D01*
X292440Y710381D01*
X291989Y710578D01*
X291975Y710592D01*
X291933Y710606D01*
X291876Y710634D01*
X291792Y710691D01*
X291693Y710747D01*
X291580Y710818D01*
X291312Y711015D01*
X291031Y711241D01*
X290734Y711537D01*
X290438Y711861D01*
X290185Y712242D01*
X290170Y712256D01*
X290156Y712298D01*
X290128Y712354D01*
X290086Y712439D01*
X290044Y712538D01*
X289987Y712650D01*
X289931Y712791D01*
X289874Y712946D01*
X289818Y713130D01*
X289762Y713313D01*
X289663Y713722D01*
X289593Y714173D01*
X289564Y714412D01*
Y714793D01*
X289578Y714892D01*
Y715019D01*
X289593Y715145D01*
X289621Y715315D01*
X289649Y715484D01*
X289719Y715850D01*
X289832Y716273D01*
X290001Y716682D01*
X290100Y716893D01*
X290213Y717105D01*
X290227Y717119D01*
X290241Y717147D01*
X290283Y717204D01*
X290326Y717288D01*
X290396Y717373D01*
X290481Y717486D01*
X290678Y717725D01*
X290932Y717979D01*
X291242Y718261D01*
X291608Y718529D01*
X292017Y718754D01*
X292031D01*
X292074Y718783D01*
X292130Y718811D01*
X292215Y718839D01*
X292327Y718895D01*
X292454Y718938D01*
X292609Y718994D01*
X292778Y719050D01*
X292962Y719093D01*
X293159Y719149D01*
X293371Y719205D01*
X293596Y719248D01*
X294090Y719304D01*
X294611Y719332D01*
X294625D01*
X294667D01*
X294724D01*
X294809D01*
X294921Y719318D01*
X295048D01*
X295189Y719304D01*
X295330Y719290D01*
X295668Y719248D01*
X296035Y719177D01*
X296416Y719093D01*
X296782Y718966D01*
X296796D01*
X296824Y718952D01*
X296881Y718923D01*
X296937Y718895D01*
X297022Y718853D01*
X297120Y718811D01*
X297346Y718698D01*
X297614Y718543D01*
X297896Y718345D01*
X298178Y718120D01*
X298460Y717866D01*
Y717880D01*
X298488Y717908D01*
X298516Y717951D01*
X298558Y718021D01*
X298615Y718092D01*
X298671Y718190D01*
X298798Y718402D01*
X298953Y718656D01*
X299108Y718938D01*
X299235Y719234D01*
X299362Y719516D01*
X300250Y719135D01*
D02*
G37*
G36*
X292528Y698986D02*
X292655D01*
X292810Y698972D01*
X292979Y698958D01*
X293162Y698929D01*
X293571Y698859D01*
X294008Y698760D01*
X294473Y698619D01*
X294925Y698422D01*
X294939Y698408D01*
X294981Y698394D01*
X295037Y698366D01*
X295122Y698309D01*
X295221Y698253D01*
X295333Y698182D01*
X295601Y697985D01*
X295883Y697759D01*
X296179Y697463D01*
X296475Y697139D01*
X296729Y696758D01*
X296743Y696744D01*
X296757Y696702D01*
X296785Y696646D01*
X296828Y696561D01*
X296870Y696462D01*
X296926Y696350D01*
X296983Y696209D01*
X297039Y696054D01*
X297096Y695870D01*
X297152Y695687D01*
X297251Y695278D01*
X297321Y694827D01*
X297349Y694588D01*
Y694207D01*
X297335Y694108D01*
Y693981D01*
X297321Y693855D01*
X297293Y693685D01*
X297265Y693516D01*
X297194Y693150D01*
X297081Y692727D01*
X296912Y692318D01*
X296814Y692106D01*
X296701Y691895D01*
X296687Y691881D01*
X296673Y691853D01*
X296630Y691796D01*
X296588Y691712D01*
X296518Y691627D01*
X296433Y691514D01*
X296236Y691275D01*
X295982Y691021D01*
X295672Y690739D01*
X295305Y690471D01*
X294896Y690246D01*
X294882D01*
X294840Y690218D01*
X294784Y690189D01*
X294699Y690161D01*
X294586Y690105D01*
X294459Y690062D01*
X294304Y690006D01*
X294135Y689950D01*
X293952Y689907D01*
X293755Y689851D01*
X293543Y689795D01*
X293318Y689752D01*
X292824Y689696D01*
X292303Y689668D01*
X292288D01*
X292246D01*
X292190D01*
X292105D01*
X291992Y689682D01*
X291866D01*
X291725Y689696D01*
X291584Y689710D01*
X291245Y689752D01*
X290879Y689823D01*
X290498Y689907D01*
X290132Y690034D01*
X290117D01*
X290089Y690048D01*
X290033Y690077D01*
X289977Y690105D01*
X289892Y690147D01*
X289793Y690189D01*
X289568Y690302D01*
X289300Y690457D01*
X289018Y690655D01*
X288736Y690880D01*
X288454Y691134D01*
Y691120D01*
X288426Y691092D01*
X288398Y691049D01*
X288355Y690979D01*
X288299Y690908D01*
X288243Y690810D01*
X288116Y690598D01*
X287961Y690344D01*
X287806Y690062D01*
X287679Y689766D01*
X287552Y689484D01*
X286664Y689865D01*
Y689879D01*
X286678Y689907D01*
X286706Y689964D01*
X286734Y690048D01*
X286777Y690147D01*
X286833Y690260D01*
X286889Y690387D01*
X286960Y690528D01*
X287129Y690838D01*
X287326Y691190D01*
X287580Y691571D01*
X287862Y691965D01*
Y691980D01*
X287834Y692008D01*
X287806Y692078D01*
X287763Y692149D01*
X287721Y692262D01*
X287665Y692374D01*
X287622Y692515D01*
X287566Y692670D01*
X287510Y692840D01*
X287453Y693023D01*
X287355Y693432D01*
X287284Y693883D01*
X287270Y694122D01*
X287256Y694362D01*
Y694489D01*
X287270Y694588D01*
Y694700D01*
X287284Y694841D01*
X287312Y694996D01*
X287340Y695165D01*
X287411Y695532D01*
X287524Y695941D01*
X287679Y696364D01*
X287777Y696561D01*
X287890Y696773D01*
X287904Y696787D01*
X287918Y696815D01*
X287961Y696871D01*
X288003Y696942D01*
X288074Y697040D01*
X288158Y697139D01*
X288355Y697379D01*
X288609Y697647D01*
X288919Y697915D01*
X289272Y698182D01*
X289681Y698422D01*
X289695D01*
X289737Y698450D01*
X289793Y698478D01*
X289878Y698506D01*
X289991Y698549D01*
X290117Y698605D01*
X290273Y698662D01*
X290442Y698704D01*
X290625Y698760D01*
X290822Y698817D01*
X291034Y698859D01*
X291273Y698915D01*
X291767Y698972D01*
X292288Y699000D01*
X292303D01*
X292359D01*
X292429D01*
X292528Y698986D01*
D02*
G37*
G36*
X294769Y687497D02*
X294798Y687469D01*
X294812Y687412D01*
X294854Y687342D01*
X294896Y687257D01*
X294953Y687158D01*
X295094Y686919D01*
X295249Y686637D01*
X295446Y686355D01*
X295672Y686059D01*
X295911Y685763D01*
X295926Y685749D01*
X295940Y685735D01*
X295982Y685692D01*
X296024Y685636D01*
X296165Y685509D01*
X296334Y685340D01*
X296532Y685171D01*
X296757Y684987D01*
X296983Y684832D01*
X297222Y684691D01*
Y683916D01*
X287425D01*
Y685114D01*
X295051D01*
X295037Y685128D01*
X294981Y685199D01*
X294896Y685284D01*
X294798Y685424D01*
X294671Y685580D01*
X294530Y685777D01*
X294375Y686003D01*
X294220Y686256D01*
Y686270D01*
X294206Y686284D01*
X294149Y686369D01*
X294079Y686510D01*
X293994Y686679D01*
X293895Y686877D01*
X293797Y687088D01*
X293698Y687299D01*
X293614Y687511D01*
X294769D01*
Y687497D01*
D02*
G37*
%LPC*%
G36*
X294625Y718007D02*
X294611D01*
X294569D01*
X294512D01*
X294428D01*
X294315Y717993D01*
X294202D01*
X294061Y717979D01*
X293920Y717951D01*
X293596Y717908D01*
X293244Y717838D01*
X292891Y717739D01*
X292553Y717598D01*
X292539D01*
X292511Y717584D01*
X292468Y717556D01*
X292412Y717528D01*
X292243Y717429D01*
X292045Y717302D01*
X291820Y717133D01*
X291594Y716922D01*
X291369Y716682D01*
X291171Y716414D01*
Y716400D01*
X291143Y716386D01*
X291129Y716344D01*
X291087Y716273D01*
X291059Y716203D01*
X291016Y716118D01*
X290918Y715907D01*
X290833Y715653D01*
X290749Y715357D01*
X290692Y715019D01*
X290678Y714666D01*
Y714525D01*
X290692Y714426D01*
X290706Y714300D01*
X290734Y714159D01*
X290763Y714004D01*
X290805Y713835D01*
X290861Y713637D01*
X290918Y713454D01*
X291002Y713257D01*
X291101Y713045D01*
X291214Y712848D01*
X291355Y712650D01*
X291496Y712453D01*
X291679Y712270D01*
X291693Y712256D01*
X291721Y712227D01*
X291778Y712185D01*
X291862Y712129D01*
X291961Y712044D01*
X292088Y711974D01*
X292243Y711889D01*
X292412Y711805D01*
X292609Y711706D01*
X292835Y711621D01*
X293074Y711551D01*
X293342Y711480D01*
X293624Y711410D01*
X293934Y711367D01*
X294273Y711339D01*
X294625Y711325D01*
X294653D01*
X294710D01*
X294809D01*
X294935Y711339D01*
X295090Y711353D01*
X295274Y711382D01*
X295485Y711410D01*
X295697Y711438D01*
X296176Y711551D01*
X296416Y711621D01*
X296655Y711720D01*
X296895Y711819D01*
X297120Y711945D01*
X297346Y712086D01*
X297543Y712256D01*
X297557Y712270D01*
X297586Y712298D01*
X297642Y712354D01*
X297698Y712425D01*
X297783Y712523D01*
X297868Y712636D01*
X297952Y712763D01*
X298051Y712918D01*
X298149Y713073D01*
X298234Y713257D01*
X298319Y713454D01*
X298403Y713665D01*
X298460Y713905D01*
X298516Y714145D01*
X298544Y714398D01*
X298558Y714666D01*
Y714793D01*
X298544Y714920D01*
X298530Y715089D01*
X298502Y715301D01*
X298445Y715512D01*
X298389Y715752D01*
X298305Y715977D01*
X298290Y715949D01*
X298234Y715879D01*
X298164Y715752D01*
X298079Y715597D01*
X297994Y715399D01*
X297896Y715188D01*
X297811Y714948D01*
X297741Y714694D01*
X296810Y715019D01*
Y715033D01*
X296824Y715075D01*
X296838Y715131D01*
X296867Y715202D01*
X296895Y715301D01*
X296937Y715413D01*
X297036Y715667D01*
X297177Y715963D01*
X297332Y716273D01*
X297515Y716569D01*
X297741Y716865D01*
X297726Y716879D01*
X297698Y716922D01*
X297628Y716978D01*
X297543Y717049D01*
X297430Y717133D01*
X297304Y717232D01*
X297149Y717330D01*
X296965Y717443D01*
X296754Y717542D01*
X296514Y717641D01*
X296260Y717739D01*
X295993Y717824D01*
X295683Y717908D01*
X295358Y717965D01*
X295006Y717993D01*
X294625Y718007D01*
D02*
G37*
G36*
X292288Y697675D02*
X292260D01*
X292204D01*
X292105D01*
X291978Y697661D01*
X291823Y697647D01*
X291640Y697618D01*
X291429Y697590D01*
X291217Y697562D01*
X290738Y697449D01*
X290498Y697379D01*
X290259Y697280D01*
X290019Y697181D01*
X289793Y697055D01*
X289568Y696914D01*
X289370Y696744D01*
X289356Y696730D01*
X289328Y696702D01*
X289272Y696646D01*
X289215Y696575D01*
X289131Y696477D01*
X289046Y696364D01*
X288962Y696237D01*
X288863Y696082D01*
X288764Y695927D01*
X288680Y695743D01*
X288595Y695546D01*
X288510Y695335D01*
X288454Y695095D01*
X288398Y694855D01*
X288370Y694602D01*
X288355Y694334D01*
Y694207D01*
X288370Y694080D01*
X288384Y693911D01*
X288412Y693699D01*
X288468Y693488D01*
X288525Y693248D01*
X288609Y693023D01*
X288623Y693051D01*
X288680Y693121D01*
X288750Y693248D01*
X288835Y693403D01*
X288919Y693601D01*
X289018Y693812D01*
X289102Y694052D01*
X289173Y694306D01*
X290103Y693981D01*
Y693967D01*
X290089Y693925D01*
X290075Y693869D01*
X290047Y693798D01*
X290019Y693699D01*
X289977Y693587D01*
X289878Y693333D01*
X289737Y693037D01*
X289582Y692727D01*
X289399Y692431D01*
X289173Y692135D01*
X289187Y692121D01*
X289215Y692078D01*
X289286Y692022D01*
X289370Y691951D01*
X289483Y691867D01*
X289610Y691768D01*
X289765Y691669D01*
X289948Y691557D01*
X290160Y691458D01*
X290399Y691359D01*
X290653Y691261D01*
X290921Y691176D01*
X291231Y691092D01*
X291555Y691035D01*
X291908Y691007D01*
X292288Y690993D01*
X292303D01*
X292345D01*
X292401D01*
X292486D01*
X292599Y691007D01*
X292711D01*
X292852Y691021D01*
X292993Y691049D01*
X293318Y691092D01*
X293670Y691162D01*
X294022Y691261D01*
X294361Y691402D01*
X294375D01*
X294403Y691416D01*
X294445Y691444D01*
X294502Y691472D01*
X294671Y691571D01*
X294868Y691698D01*
X295094Y691867D01*
X295319Y692078D01*
X295545Y692318D01*
X295742Y692586D01*
Y692600D01*
X295770Y692614D01*
X295784Y692656D01*
X295827Y692727D01*
X295855Y692797D01*
X295897Y692882D01*
X295996Y693093D01*
X296081Y693347D01*
X296165Y693643D01*
X296222Y693981D01*
X296236Y694334D01*
Y694475D01*
X296222Y694574D01*
X296207Y694700D01*
X296179Y694841D01*
X296151Y694996D01*
X296109Y695165D01*
X296052Y695363D01*
X295996Y695546D01*
X295911Y695743D01*
X295813Y695955D01*
X295700Y696152D01*
X295559Y696350D01*
X295418Y696547D01*
X295235Y696730D01*
X295221Y696744D01*
X295193Y696773D01*
X295136Y696815D01*
X295051Y696871D01*
X294953Y696956D01*
X294826Y697026D01*
X294671Y697111D01*
X294502Y697196D01*
X294304Y697294D01*
X294079Y697379D01*
X293839Y697449D01*
X293571Y697520D01*
X293289Y697590D01*
X292979Y697633D01*
X292641Y697661D01*
X292288Y697675D01*
D02*
G37*
%LPD*%
D10*
X533500Y535000D02*
G03*
X533500Y535000I-500J0D01*
G01*
X407500D02*
G03*
X407500Y535000I-500J0D01*
G01*
X284500Y525000D02*
G03*
X284500Y525000I-500J0D01*
G01*
X161500Y525000D02*
G03*
X161500Y525000I-500J0D01*
G01*
X369750Y765664D02*
G03*
X369750Y765664I-250J0D01*
G01*
X569500Y689000D02*
G03*
X569500Y689000I-500J0D01*
G01*
X715500Y685000D02*
G03*
X715500Y685000I-500J0D01*
G01*
X636365Y147750D02*
G03*
X636365Y147750I-250J0D01*
G01*
X521365D02*
G03*
X521365Y147750I-250J0D01*
G01*
X406115D02*
G03*
X406115Y147750I-250J0D01*
G01*
X291115D02*
G03*
X291115Y147750I-250J0D01*
G01*
D11*
X373500Y420000D02*
G03*
X373500Y420000I-1000J0D01*
G01*
X100300Y217250D02*
G03*
X100300Y217250I-1000J0D01*
G01*
X710250Y344500D02*
G03*
X710250Y344500I-1000J0D01*
G01*
X812450Y264700D02*
G03*
X812450Y264700I-1000J0D01*
G01*
X818450Y368700D02*
G03*
X818450Y368700I-1000J0D01*
G01*
X728250Y242500D02*
G03*
X728250Y242500I-1000J0D01*
G01*
X116000Y417500D02*
G03*
X116000Y417500I-1000J0D01*
G01*
X618500Y542500D02*
G03*
X618500Y542500I-1000J0D01*
G01*
X781000Y418250D02*
X790000D01*
X781000Y434000D02*
X790000D01*
X781000Y418250D02*
Y434000D01*
X790000Y418250D02*
Y434000D01*
X84250Y209000D02*
Y218000D01*
X68500Y209000D02*
Y218000D01*
Y209000D02*
X84250D01*
X68500Y218000D02*
X84250D01*
X181750Y214000D02*
Y223000D01*
X197500Y214000D02*
Y223000D01*
X181750D02*
X197500D01*
X181750Y214000D02*
X197500D01*
X181750Y182000D02*
Y191000D01*
X197500Y182000D02*
Y191000D01*
X181750D02*
X197500D01*
X181750Y182000D02*
X197500D01*
X84250Y193000D02*
Y202000D01*
X68500Y193000D02*
Y202000D01*
Y193000D02*
X84250D01*
X68500Y202000D02*
X84250D01*
X181750Y198000D02*
Y207000D01*
X197500Y198000D02*
Y207000D01*
X181750D02*
X197500D01*
X181750Y198000D02*
X197500D01*
X84250Y225000D02*
Y234000D01*
X68500Y225000D02*
Y234000D01*
Y225000D02*
X84250D01*
X68500Y234000D02*
X84250D01*
X729000Y228750D02*
Y237750D01*
X744750Y228750D02*
Y237750D01*
X729000D02*
X744750D01*
X729000Y228750D02*
X744750D01*
X708000Y334500D02*
Y343500D01*
X723750Y334500D02*
Y343500D01*
X708000D02*
X723750D01*
X708000Y334500D02*
X723750D01*
X452500Y280870D02*
X461500D01*
X452500Y296620D02*
X461500D01*
X452500Y280870D02*
Y296620D01*
X461500Y280870D02*
Y296620D01*
X418500Y296120D02*
X427500D01*
X418500Y280370D02*
X427500D01*
Y296120D01*
X418500Y280370D02*
Y296120D01*
X192250Y280750D02*
X201250D01*
X192250Y296500D02*
X201250D01*
X192250Y280750D02*
Y296500D01*
X201250Y280750D02*
Y296500D01*
X158750Y296495D02*
X167750D01*
X158750Y280745D02*
X167750D01*
Y296495D01*
X158750Y280745D02*
Y296495D01*
X348398Y773683D02*
Y782683D01*
X332648Y773683D02*
Y782683D01*
Y773683D02*
X348398D01*
X332648Y782683D02*
X348398D01*
X50750Y747000D02*
Y756000D01*
X66500Y747000D02*
Y756000D01*
X50750D02*
X66500D01*
X50750Y747000D02*
X66500D01*
X66000Y781000D02*
Y790000D01*
X50250Y781000D02*
Y790000D01*
Y781000D02*
X66000D01*
X50250Y790000D02*
X66000D01*
X695000Y410250D02*
X704000D01*
X695000Y426000D02*
X704000D01*
X695000Y410250D02*
Y426000D01*
X704000Y410250D02*
Y426000D01*
X661000Y425500D02*
X670000D01*
X661000Y409750D02*
X670000D01*
Y425500D01*
X661000Y409750D02*
Y425500D01*
X789950Y819850D02*
Y893000D01*
X124450Y819850D02*
X789950D01*
X124450D02*
Y869350D01*
X789950Y887650D02*
Y920150D01*
X124450D02*
X789950D01*
X124450Y870650D02*
Y920150D01*
X114912Y124250D02*
Y144250D01*
X102412Y124250D02*
Y144250D01*
X114912D01*
X102412Y124250D02*
X114912D01*
X175912D02*
Y144250D01*
X163412Y124250D02*
Y144250D01*
X175912D01*
X163412Y124250D02*
X175912D01*
X47551Y124500D02*
X60051D01*
X47551Y144500D02*
X60051D01*
X47551Y124500D02*
Y144500D01*
X60051Y124500D02*
Y144500D01*
X686500Y748750D02*
X706500D01*
X686500Y761250D02*
X706500D01*
Y748750D02*
Y761250D01*
X686500Y748750D02*
Y761250D01*
X537500Y753750D02*
X557500D01*
X537500Y766250D02*
X557500D01*
Y753750D02*
Y766250D01*
X537500Y753750D02*
Y766250D01*
X504500Y597750D02*
X524500D01*
X504500Y610250D02*
X524500D01*
Y597750D02*
Y610250D01*
X504500Y597750D02*
Y610250D01*
X378000Y596750D02*
X398000D01*
X378000Y609250D02*
X398000D01*
Y596750D02*
Y609250D01*
X378000Y596750D02*
Y609250D01*
X255000Y586750D02*
X275000D01*
X255000Y599250D02*
X275000D01*
Y586750D02*
Y599250D01*
X255000Y586750D02*
Y599250D01*
X132000Y586750D02*
X152000D01*
X132000Y599250D02*
X152000D01*
Y586750D02*
Y599250D01*
X132000Y586750D02*
Y599250D01*
X604250Y214000D02*
Y234000D01*
X591750Y214000D02*
Y234000D01*
X604250D01*
X591750Y214000D02*
X604250D01*
X490250D02*
Y234000D01*
X477750Y214000D02*
Y234000D01*
X490250D01*
X477750Y214000D02*
X490250D01*
X374250D02*
Y234000D01*
X361750Y214000D02*
Y234000D01*
X374250D01*
X361750Y214000D02*
X374250D01*
X260250D02*
Y234000D01*
X247750Y214000D02*
Y234000D01*
X260250D01*
X247750Y214000D02*
X260250D01*
X579750Y574250D02*
X599750D01*
X579750Y561750D02*
X599750D01*
X579750D02*
Y574250D01*
X599750Y561750D02*
Y574250D01*
X455000D02*
X475000D01*
X455000Y561750D02*
X475000D01*
X455000D02*
Y574250D01*
X475000Y561750D02*
Y574250D01*
X561500Y597250D02*
X581500D01*
X561500Y584750D02*
X581500D01*
X561500D02*
Y597250D01*
X581500Y584750D02*
Y597250D01*
X435500Y595250D02*
X455500D01*
X435500Y582750D02*
X455500D01*
X435500D02*
Y595250D01*
X455500Y582750D02*
Y595250D01*
X521250Y440000D02*
Y460000D01*
X508750Y440000D02*
Y460000D01*
X521250D01*
X508750Y440000D02*
X521250D01*
X410500Y307750D02*
X430500D01*
X410500Y320250D02*
X430500D01*
Y307750D02*
Y320250D01*
X410500Y307750D02*
Y320250D01*
X332000Y564250D02*
X352000D01*
X332000Y551750D02*
X352000D01*
X332000D02*
Y564250D01*
X352000Y551750D02*
Y564250D01*
X208500D02*
X228500D01*
X208500Y551750D02*
X228500D01*
X208500D02*
Y564250D01*
X228500Y551750D02*
Y564250D01*
X313000Y587250D02*
X333000D01*
X313000Y574750D02*
X333000D01*
X313000D02*
Y587250D01*
X333000Y574750D02*
Y587250D01*
X190250D02*
X210250D01*
X190250Y574750D02*
X210250D01*
X190250D02*
Y587250D01*
X210250Y574750D02*
Y587250D01*
X260819Y441214D02*
Y461214D01*
X248319Y441214D02*
Y461214D01*
X260819D01*
X248319Y441214D02*
X260819D01*
X152500Y308750D02*
X172500D01*
X152500Y321250D02*
X172500D01*
Y308750D02*
Y321250D01*
X152500Y308750D02*
Y321250D01*
X418000Y790414D02*
X438000D01*
X418000Y777914D02*
X438000D01*
X418000D02*
Y790414D01*
X438000Y777914D02*
Y790414D01*
X418000Y747250D02*
X438000D01*
X418000Y734750D02*
X438000D01*
X418000D02*
Y747250D01*
X438000Y734750D02*
Y747250D01*
X78250Y779500D02*
Y799500D01*
X90750Y779500D02*
Y799500D01*
X78250Y779500D02*
X90750D01*
X78250Y799500D02*
X90750D01*
X620000Y726250D02*
X640000D01*
X620000Y713750D02*
X640000D01*
X620000D02*
Y726250D01*
X640000Y713750D02*
Y726250D01*
X761750Y724250D02*
X781750D01*
X761750Y711750D02*
X781750D01*
X761750D02*
Y724250D01*
X781750Y711750D02*
Y724250D01*
X596157Y749372D02*
X616157D01*
X596157Y736872D02*
X616157D01*
X596157D02*
Y749372D01*
X616157Y736872D02*
Y749372D01*
X741000Y747250D02*
X761000D01*
X741000Y734750D02*
X761000D01*
X741000D02*
Y747250D01*
X761000Y734750D02*
Y747250D01*
X784250Y568500D02*
Y588500D01*
X771750Y568500D02*
Y588500D01*
X784250D01*
X771750Y568500D02*
X784250D01*
X763250D02*
Y588500D01*
X750750Y568500D02*
Y588500D01*
X763250D01*
X750750Y568500D02*
X763250D01*
X657500Y438750D02*
X677500D01*
X657500Y451250D02*
X677500D01*
Y438750D02*
Y451250D01*
X657500Y438750D02*
Y451250D01*
X576500Y177750D02*
X596500D01*
X576500Y190250D02*
X596500D01*
Y177750D02*
Y190250D01*
X576500Y177750D02*
Y190250D01*
X466070Y183962D02*
X486070D01*
X466070Y196462D02*
X486070D01*
Y183962D02*
Y196462D01*
X466070Y183962D02*
Y196462D01*
X346500Y177750D02*
X366500D01*
X346500Y190250D02*
X366500D01*
Y177750D02*
Y190250D01*
X346500Y177750D02*
Y190250D01*
X232000Y177750D02*
X252000D01*
X232000Y190250D02*
X252000D01*
Y177750D02*
Y190250D01*
X232000Y177750D02*
Y190250D01*
X583250Y214000D02*
Y234000D01*
X570750Y214000D02*
Y234000D01*
X583250D01*
X570750Y214000D02*
X583250D01*
X469250D02*
Y234000D01*
X456750Y214000D02*
Y234000D01*
X469250D01*
X456750Y214000D02*
X469250D01*
X353250D02*
Y234000D01*
X340750Y214000D02*
Y234000D01*
X353250D01*
X340750Y214000D02*
X353250D01*
X238250D02*
Y234000D01*
X225750Y214000D02*
Y234000D01*
X238250D01*
X225750Y214000D02*
X238250D01*
X608000Y96000D02*
X628000D01*
X608000Y108500D02*
X628000D01*
Y96000D02*
Y108500D01*
X608000Y96000D02*
Y108500D01*
X493250Y95750D02*
X513250D01*
X493250Y108250D02*
X513250D01*
Y95750D02*
Y108250D01*
X493250Y95750D02*
Y108250D01*
X378250Y95750D02*
X398250D01*
X378250Y108250D02*
X398250D01*
Y95750D02*
Y108250D01*
X378250Y95750D02*
Y108250D01*
X263750Y95250D02*
X283750D01*
X263750Y107750D02*
X283750D01*
Y95250D02*
Y107750D01*
X263750Y95250D02*
Y107750D01*
D12*
X479104Y319750D02*
G03*
X479104Y319750I-353J0D01*
G01*
X225104Y320500D02*
G03*
X225104Y320500I-353J0D01*
G01*
X100854Y740250D02*
G03*
X100854Y740250I-353J0D01*
G01*
X724503Y447750D02*
G03*
X724503Y447750I-353J0D01*
G01*
X43750Y846032D02*
X63750D01*
X43750Y858532D02*
X63750D01*
Y846032D02*
Y858532D01*
X43750Y846032D02*
Y858532D01*
Y838532D02*
X63750D01*
X43750Y826032D02*
X63750D01*
X43750D02*
Y838532D01*
X63750Y826032D02*
Y838532D01*
X280250Y707500D02*
X305250D01*
Y737500D01*
X280250D02*
X305250D01*
X280250Y707500D02*
Y737500D01*
X247794Y779992D02*
X272794D01*
X247794Y747992D02*
Y779992D01*
X272794Y747992D02*
Y779992D01*
X247794Y747992D02*
X272794D01*
X216327Y780083D02*
X241327D01*
X216327Y748083D02*
Y780083D01*
X241327Y748083D02*
Y780083D01*
X216327Y748083D02*
X241327D01*
X532548Y457787D02*
X557548D01*
X532548Y425787D02*
Y457787D01*
X557548Y425787D02*
Y457787D01*
X532548Y425787D02*
X557548D01*
X267500Y466000D02*
X292500D01*
X267500Y434000D02*
Y466000D01*
X292500Y434000D02*
Y466000D01*
X267500Y434000D02*
X292500D01*
X297500Y455000D02*
X322500D01*
X297500Y423000D02*
Y455000D01*
X322500Y423000D02*
Y455000D01*
X297500Y423000D02*
X322500D01*
X418500Y151250D02*
X438500D01*
X418500Y138750D02*
X438500D01*
X418500D02*
Y151250D01*
X438500Y138750D02*
Y151250D01*
X380000Y370000D02*
Y470000D01*
Y370000D02*
X480000D01*
Y470000D01*
X380000D02*
X480000D01*
X119500Y222500D02*
X149500D01*
X119500Y192500D02*
X149500D01*
X119500D02*
Y222500D01*
X149500Y192500D02*
Y222500D01*
X636250Y370500D02*
X648750D01*
X636250Y350500D02*
X648750D01*
Y370500D01*
X636250Y350500D02*
Y370500D01*
X374967Y355853D02*
Y366013D01*
X369887D02*
X374967D01*
X369887Y355853D02*
Y366013D01*
Y355853D02*
X374967D01*
X696000Y169000D02*
Y177000D01*
X712000D01*
Y169000D02*
Y177000D01*
X696000Y169000D02*
X712000D01*
X690500Y190000D02*
Y215000D01*
Y190000D02*
X720500D01*
Y215000D01*
X690500D02*
X720500D01*
X567750Y504000D02*
X580250D01*
X567750Y524000D02*
X580250D01*
X567750Y504000D02*
Y524000D01*
X580250Y504000D02*
Y524000D01*
X355250Y459500D02*
X367750D01*
X355250Y439500D02*
X367750D01*
Y459500D01*
X355250Y439500D02*
Y459500D01*
X770000Y212500D02*
X795000D01*
Y242500D01*
X770000D02*
X795000D01*
X770000Y212500D02*
Y242500D01*
X760000Y313750D02*
X785000D01*
Y343750D01*
X760000D02*
X785000D01*
X760000Y313750D02*
Y343750D01*
X685000Y325500D02*
Y350500D01*
X655000D02*
X685000D01*
X655000Y325500D02*
Y350500D01*
Y325500D02*
X685000D01*
X528000Y541000D02*
X558000D01*
Y571000D01*
X528000D02*
X558000D01*
X528000Y541000D02*
Y571000D01*
X402000Y541000D02*
X432000D01*
Y571000D01*
X402000D02*
X432000D01*
X402000Y541000D02*
Y571000D01*
X465000Y337750D02*
X471500D01*
X465000Y316750D02*
Y337750D01*
Y316750D02*
X481000D01*
X469000Y337750D02*
X481000D01*
Y316750D02*
Y337750D01*
X279000Y531000D02*
X309000D01*
Y561000D01*
X279000D02*
X309000D01*
X279000Y531000D02*
Y561000D01*
X156000Y531000D02*
X186000D01*
Y561000D01*
X156000D02*
X186000D01*
X156000Y531000D02*
Y561000D01*
X211000Y338500D02*
X217500D01*
X211000Y317500D02*
Y338500D01*
Y317500D02*
X227000D01*
X215000Y338500D02*
X227000D01*
Y317500D02*
Y338500D01*
X374000Y741164D02*
X379250D01*
X374000D02*
Y761164D01*
X394000D01*
Y741164D02*
Y761164D01*
X379250Y741164D02*
X394000D01*
X118500Y747500D02*
Y754000D01*
X97500D02*
X118500D01*
X97500Y738000D02*
Y754000D01*
X118500Y738000D02*
Y750000D01*
X97500Y738000D02*
X118500D01*
X564000Y695000D02*
X594000D01*
Y725000D01*
X564000D02*
X594000D01*
X564000Y695000D02*
Y725000D01*
X710000Y691000D02*
X740000D01*
Y721000D01*
X710000D02*
X740000D01*
X710000Y691000D02*
Y721000D01*
X710400Y465750D02*
X716900D01*
X710400Y444750D02*
Y465750D01*
Y444750D02*
X726400D01*
X714400Y465750D02*
X726400D01*
Y444750D02*
Y465750D01*
X626365Y172250D02*
X631615D01*
Y152250D02*
Y172250D01*
X611615Y152250D02*
X631615D01*
X611615D02*
Y172250D01*
X626365D01*
X511365D02*
X516615D01*
Y152250D02*
Y172250D01*
X496615Y152250D02*
X516615D01*
X496615D02*
Y172250D01*
X511365D01*
X396115D02*
X401365D01*
Y152250D02*
Y172250D01*
X381365Y152250D02*
X401365D01*
X381365D02*
Y172250D01*
X396115D01*
X281115D02*
X286365D01*
Y152250D02*
Y172250D01*
X266365Y152250D02*
X286365D01*
X266365D02*
Y172250D01*
X281115D01*
X642250Y687750D02*
Y700250D01*
X622250Y687750D02*
Y700250D01*
Y687750D02*
X642250D01*
X622250Y700250D02*
X642250D01*
X783000Y689750D02*
Y702250D01*
X763000Y689750D02*
Y702250D01*
Y689750D02*
X783000D01*
X763000Y702250D02*
X783000D01*
X601000Y539750D02*
Y552250D01*
X581000Y539750D02*
Y552250D01*
Y539750D02*
X601000D01*
X581000Y552250D02*
X601000D01*
X473829Y538412D02*
Y550912D01*
X453829Y538412D02*
Y550912D01*
Y538412D02*
X473829D01*
X453829Y550912D02*
X473829D01*
X353250Y529750D02*
Y542250D01*
X333250Y529750D02*
Y542250D01*
Y529750D02*
X353250D01*
X333250Y542250D02*
X353250D01*
X229750Y528750D02*
Y541250D01*
X209750Y528750D02*
Y541250D01*
Y528750D02*
X229750D01*
X209750Y541250D02*
X229750D01*
X516750Y284000D02*
X529250D01*
X516750Y304000D02*
X529250D01*
X516750Y284000D02*
Y304000D01*
X529250Y284000D02*
Y304000D01*
X245750Y285000D02*
X258250D01*
X245750Y305000D02*
X258250D01*
X245750Y285000D02*
Y305000D01*
X258250Y285000D02*
Y305000D01*
X338914Y674500D02*
X351414D01*
X338914Y694500D02*
X351414D01*
X338914Y674500D02*
Y694500D01*
X351414Y674500D02*
Y694500D01*
X50750Y715750D02*
Y728250D01*
X70750Y715750D02*
Y728250D01*
X50750D02*
X70750D01*
X50750Y715750D02*
X70750D01*
X761250Y432500D02*
X773750D01*
X761250Y412500D02*
X773750D01*
Y432500D01*
X761250Y412500D02*
Y432500D01*
X806250Y238750D02*
X818750D01*
X806250Y218750D02*
X818750D01*
Y238750D01*
X806250Y218750D02*
Y238750D01*
X736000Y317750D02*
X748500D01*
X736000Y337750D02*
X748500D01*
X736000Y317750D02*
Y337750D01*
X748500Y317750D02*
Y337750D01*
X727750Y170500D02*
X740250D01*
X727750Y190500D02*
X740250D01*
X727750Y170500D02*
Y190500D01*
X740250Y170500D02*
Y190500D01*
X560000Y625750D02*
Y638250D01*
X540000Y625750D02*
Y638250D01*
Y625750D02*
X560000D01*
X540000Y638250D02*
X560000D01*
X437500Y623750D02*
Y636250D01*
X417500Y623750D02*
Y636250D01*
Y623750D02*
X437500D01*
X417500Y636250D02*
X437500D01*
X580250Y605750D02*
Y618250D01*
X560250Y605750D02*
Y618250D01*
Y605750D02*
X580250D01*
X560250Y618250D02*
X580250D01*
X454500Y603750D02*
Y616250D01*
X434500Y603750D02*
Y616250D01*
Y603750D02*
X454500D01*
X434500Y616250D02*
X454500D01*
X484250Y484500D02*
Y497000D01*
X504250Y484500D02*
Y497000D01*
X484250D02*
X504250D01*
X484250Y484500D02*
X504250D01*
X547750Y524000D02*
X560250D01*
X547750Y504000D02*
X560250D01*
Y524000D01*
X547750Y504000D02*
Y524000D01*
X441750Y504000D02*
X454250D01*
X441750Y524000D02*
X454250D01*
X441750Y504000D02*
Y524000D01*
X454250Y504000D02*
Y524000D01*
X421750D02*
X434250D01*
X421750Y504000D02*
X434250D01*
Y524000D01*
X421750Y504000D02*
Y524000D01*
X496750Y284000D02*
X509250D01*
X496750Y304000D02*
X509250D01*
X496750Y284000D02*
Y304000D01*
X509250Y284000D02*
Y304000D01*
X310500Y615750D02*
Y628250D01*
X290500Y615750D02*
Y628250D01*
Y615750D02*
X310500D01*
X290500Y628250D02*
X310500D01*
X188022Y617299D02*
Y629799D01*
X168022Y617299D02*
Y629799D01*
Y617299D02*
X188022D01*
X168022Y629799D02*
X188022D01*
X331750Y595750D02*
Y608250D01*
X311750Y595750D02*
Y608250D01*
Y595750D02*
X331750D01*
X311750Y608250D02*
X331750D01*
X209000Y595750D02*
Y608250D01*
X189000Y595750D02*
Y608250D01*
Y595750D02*
X209000D01*
X189000Y608250D02*
X209000D01*
X335250Y439500D02*
X347750D01*
X335250Y459500D02*
X347750D01*
X335250Y439500D02*
Y459500D01*
X347750Y439500D02*
Y459500D01*
X318750Y494000D02*
X331250D01*
X318750Y514000D02*
X331250D01*
X318750Y494000D02*
Y514000D01*
X331250Y494000D02*
Y514000D01*
X298750D02*
X311250D01*
X298750Y494000D02*
X311250D01*
Y514000D01*
X298750Y494000D02*
Y514000D01*
X195750Y494000D02*
X208250D01*
X195750Y514000D02*
X208250D01*
X195750Y494000D02*
Y514000D01*
X208250Y494000D02*
Y514000D01*
X175750D02*
X188250D01*
X175750Y494000D02*
X188250D01*
Y514000D01*
X175750Y494000D02*
Y514000D01*
X225750Y285000D02*
X238250D01*
X225750Y305000D02*
X238250D01*
X225750Y285000D02*
Y305000D01*
X238250Y285000D02*
Y305000D01*
X339000Y706914D02*
Y719414D01*
X359000Y706914D02*
Y719414D01*
X339000D02*
X359000D01*
X339000Y706914D02*
X359000D01*
X374250Y682164D02*
X386750D01*
X374250Y702164D02*
X386750D01*
X374250Y682164D02*
Y702164D01*
X386750Y682164D02*
Y702164D01*
X436500Y755914D02*
Y768414D01*
X416500Y755914D02*
Y768414D01*
Y755914D02*
X436500D01*
X416500Y768414D02*
X436500D01*
X327500Y733914D02*
Y746414D01*
X347500Y733914D02*
Y746414D01*
X327500D02*
X347500D01*
X327500Y733914D02*
X347500D01*
X329000Y753914D02*
Y766414D01*
X349000Y753914D02*
Y766414D01*
X329000D02*
X349000D01*
X329000Y753914D02*
X349000D01*
X284234Y744438D02*
Y756938D01*
X304234Y744438D02*
Y756938D01*
X284234D02*
X304234D01*
X284234Y744438D02*
X304234D01*
X318914Y675500D02*
X331414D01*
X318914Y695500D02*
X331414D01*
X318914Y675500D02*
Y695500D01*
X331414Y675500D02*
Y695500D01*
X597500Y776250D02*
Y788750D01*
X577500Y776250D02*
Y788750D01*
Y776250D02*
X597500D01*
X577500Y788750D02*
X597500D01*
X743000Y776250D02*
Y788750D01*
X723000Y776250D02*
Y788750D01*
Y776250D02*
X743000D01*
X723000Y788750D02*
X743000D01*
X613250Y755750D02*
Y768250D01*
X593250Y755750D02*
Y768250D01*
Y755750D02*
X613250D01*
X593250Y768250D02*
X613250D01*
X759750Y755750D02*
Y768250D01*
X739750Y755750D02*
Y768250D01*
Y755750D02*
X759750D01*
X739750Y768250D02*
X759750D01*
X621000Y655750D02*
X633500D01*
X621000Y675750D02*
X633500D01*
X621000Y655750D02*
Y675750D01*
X633500Y655750D02*
Y675750D01*
X600750D02*
X613250D01*
X600750Y655750D02*
X613250D01*
Y675750D01*
X600750Y655750D02*
Y675750D01*
X758750Y637500D02*
X771250D01*
X758750Y657500D02*
X771250D01*
X758750Y637500D02*
Y657500D01*
X771250Y637500D02*
Y657500D01*
X738750D02*
X751250D01*
X738750Y637500D02*
X751250D01*
Y657500D01*
X738750Y637500D02*
Y657500D01*
X741250Y412500D02*
X753750D01*
X741250Y432500D02*
X753750D01*
X741250Y412500D02*
Y432500D01*
X753750Y412500D02*
Y432500D01*
X122412Y144250D02*
X134912D01*
X122412Y124250D02*
X134912D01*
Y144250D01*
X122412Y124250D02*
Y144250D01*
X183412D02*
X195912D01*
X183412Y124250D02*
X195912D01*
Y144250D01*
X183412Y124250D02*
Y144250D01*
X67551Y144500D02*
X80051D01*
X67551Y124500D02*
X80051D01*
Y144500D01*
X67551Y124500D02*
Y144500D01*
X668000Y179750D02*
Y192250D01*
X648000Y179750D02*
Y192250D01*
Y179750D02*
X668000D01*
X648000Y192250D02*
X668000D01*
X553000Y179750D02*
Y192250D01*
X533000Y179750D02*
Y192250D01*
Y179750D02*
X553000D01*
X533000Y192250D02*
X553000D01*
X438500Y178750D02*
Y191250D01*
X418500Y178750D02*
Y191250D01*
Y178750D02*
X438500D01*
X418500Y191250D02*
X438500D01*
X323500Y178750D02*
Y191250D01*
X303500Y178750D02*
Y191250D01*
Y178750D02*
X323500D01*
X303500Y191250D02*
X323500D01*
X643500Y204750D02*
X656000D01*
X643500Y224750D02*
X656000D01*
X643500Y204750D02*
Y224750D01*
X656000Y204750D02*
Y224750D01*
X523000Y200000D02*
Y212500D01*
X543000Y200000D02*
Y212500D01*
X523000D02*
X543000D01*
X523000Y200000D02*
X543000D01*
X408500Y199500D02*
Y212000D01*
X428500Y199500D02*
Y212000D01*
X408500D02*
X428500D01*
X408500Y199500D02*
X428500D01*
X293500Y199000D02*
Y211500D01*
X313500Y199000D02*
Y211500D01*
X293500D02*
X313500D01*
X293500Y199000D02*
X313500D01*
X578000Y131750D02*
Y144250D01*
X598000Y131750D02*
Y144250D01*
X578000D02*
X598000D01*
X578000Y131750D02*
X598000D01*
X463500D02*
Y144250D01*
X483500Y131750D02*
Y144250D01*
X463500D02*
X483500D01*
X463500Y131750D02*
X483500D01*
X348000D02*
Y144250D01*
X368000Y131750D02*
Y144250D01*
X348000D02*
X368000D01*
X348000Y131750D02*
X368000D01*
X232500D02*
Y144250D01*
X252500Y131750D02*
Y144250D01*
X232500D02*
X252500D01*
X232500Y131750D02*
X252500D01*
X648000Y159750D02*
Y172250D01*
X668000Y159750D02*
Y172250D01*
X648000D02*
X668000D01*
X648000Y159750D02*
X668000D01*
X533000D02*
Y172250D01*
X553000Y159750D02*
Y172250D01*
X533000D02*
X553000D01*
X533000Y159750D02*
X553000D01*
X418500Y158750D02*
Y171250D01*
X438500Y158750D02*
Y171250D01*
X418500D02*
X438500D01*
X418500Y158750D02*
X438500D01*
X303500D02*
Y171250D01*
X323500Y158750D02*
Y171250D01*
X303500D02*
X323500D01*
X303500Y158750D02*
X323500D01*
X668000Y139750D02*
Y152250D01*
X648000Y139750D02*
Y152250D01*
Y139750D02*
X668000D01*
X648000Y152250D02*
X668000D01*
X553000Y139750D02*
Y152250D01*
X533000Y139750D02*
Y152250D01*
Y139750D02*
X553000D01*
X533000Y152250D02*
X553000D01*
X323500Y138750D02*
Y151250D01*
X303500Y138750D02*
Y151250D01*
Y138750D02*
X323500D01*
X303500Y151250D02*
X323500D01*
X643500Y127000D02*
X656000D01*
X643500Y107000D02*
X656000D01*
Y127000D01*
X643500Y107000D02*
Y127000D01*
X528250Y126750D02*
X540750D01*
X528250Y106750D02*
X540750D01*
Y126750D01*
X528250Y106750D02*
Y126750D01*
X413250Y126250D02*
X425750D01*
X413250Y106250D02*
X425750D01*
Y126250D01*
X413250Y106250D02*
Y126250D01*
X298500Y125750D02*
X311000D01*
X298500Y105750D02*
X311000D01*
Y125750D01*
X298500Y105750D02*
Y125750D01*
X306664Y671500D02*
Y701500D01*
X281664Y671500D02*
X306664D01*
X281664D02*
Y701500D01*
X306664D01*
X122500Y467500D02*
X222500D01*
Y367500D02*
Y467500D01*
X122500Y367500D02*
X222500D01*
X122500D02*
Y467500D01*
X134706Y757662D02*
Y794662D01*
Y757662D02*
X190706D01*
Y810662D01*
X134706D02*
X190706D01*
X134706Y794662D02*
Y810662D01*
X625000Y592500D02*
X725000D01*
Y492500D02*
Y592500D01*
X625000Y492500D02*
X725000D01*
X625000D02*
Y592500D01*
X673000Y26000D02*
Y78000D01*
X571500D02*
X673000D01*
X571500Y26000D02*
Y78000D01*
Y26000D02*
X673000D01*
X558000D02*
Y78000D01*
X456500D02*
X558000D01*
X456500Y26000D02*
Y78000D01*
Y26000D02*
X558000D01*
X442750D02*
Y78000D01*
X341250D02*
X442750D01*
X341250Y26000D02*
Y78000D01*
Y26000D02*
X442750D01*
X327750D02*
Y78000D01*
X226250D02*
X327750D01*
X226250Y26000D02*
Y78000D01*
Y26000D02*
X327750D01*
X823000Y723750D02*
X875000D01*
X823000Y622250D02*
Y723750D01*
Y622250D02*
X875000D01*
Y723750D01*
X50000Y592750D02*
X59500D01*
X50000D02*
Y607250D01*
X68000D01*
Y592750D02*
Y607250D01*
X59500Y592750D02*
X68000D01*
X603000Y151000D02*
Y157000D01*
X593000Y151000D02*
Y157000D01*
X603000D01*
X597750Y151000D02*
X603000D01*
X593000D02*
X597750D01*
X488000D02*
Y157000D01*
X478000Y151000D02*
Y157000D01*
X488000D01*
X482750Y151000D02*
X488000D01*
X478000D02*
X482750D01*
X372000D02*
Y157000D01*
X362000Y151000D02*
Y157000D01*
X372000D01*
X366750Y151000D02*
X372000D01*
X362000D02*
X366750D01*
X257000D02*
Y157000D01*
X247000Y151000D02*
Y157000D01*
X257000D01*
X251750Y151000D02*
X257000D01*
X247000D02*
X251750D01*
X96500Y607250D02*
X106000D01*
Y592750D02*
Y607250D01*
X88000Y592750D02*
X106000D01*
X88000D02*
Y607250D01*
X96500D01*
X504250Y501750D02*
Y514250D01*
X484250Y501750D02*
Y514250D01*
Y501750D02*
X504250D01*
X484250Y514250D02*
X504250D01*
X526000Y581000D02*
Y589000D01*
X510000Y581000D02*
X526000D01*
X510000D02*
Y589000D01*
X526000D01*
X399000Y580000D02*
Y588000D01*
X383000Y580000D02*
X399000D01*
X383000D02*
Y588000D01*
X399000D01*
X276000Y570000D02*
Y578000D01*
X260000Y570000D02*
X276000D01*
X260000D02*
Y578000D01*
X276000D01*
X154000Y570000D02*
Y578000D01*
X138000Y570000D02*
X154000D01*
X138000D02*
Y578000D01*
X154000D01*
X402500Y713500D02*
X427500D01*
X402500Y681500D02*
Y713500D01*
X427500Y681500D02*
Y713500D01*
X402500Y681500D02*
X427500D01*
X707000Y731000D02*
Y739000D01*
X691000Y731000D02*
X707000D01*
X691000D02*
Y739000D01*
X707000D01*
X558000Y736000D02*
Y744000D01*
X542000Y736000D02*
X558000D01*
X542000D02*
Y744000D01*
X558000D01*
X154000Y231000D02*
Y239000D01*
X138000Y231000D02*
X154000D01*
X138000D02*
Y239000D01*
X154000D01*
X771000Y198000D02*
Y206000D01*
X787000D01*
Y198000D02*
Y206000D01*
X771000Y198000D02*
X787000D01*
X760750Y298750D02*
Y306750D01*
X776750D01*
Y298750D02*
Y306750D01*
X760750Y298750D02*
X776750D01*
X679500Y362250D02*
Y370250D01*
X663500Y362250D02*
X679500D01*
X663500D02*
Y370250D01*
X679500D01*
X530000Y519000D02*
Y527000D01*
X514000Y519000D02*
X530000D01*
X514000D02*
Y527000D01*
X530000D01*
X404000Y516000D02*
Y524000D01*
X388000Y516000D02*
X404000D01*
X388000D02*
Y524000D01*
X404000D01*
X436000Y279370D02*
X444000D01*
X436000D02*
Y295370D01*
X444000D01*
Y279370D02*
Y295370D01*
X489000Y462250D02*
X497000D01*
Y446250D02*
Y462250D01*
X489000Y446250D02*
X497000D01*
X489000D02*
Y462250D01*
X425000Y331000D02*
Y339000D01*
X409000Y331000D02*
X425000D01*
X409000D02*
Y339000D01*
X425000D01*
X495540Y332420D02*
Y342580D01*
X490460D02*
X495540D01*
X490460Y332420D02*
Y342580D01*
Y332420D02*
X495540D01*
X502500Y335500D02*
X527500D01*
Y367500D01*
X502500Y335500D02*
Y367500D01*
X527500D01*
X533500Y335500D02*
X558500D01*
Y367500D01*
X533500Y335500D02*
Y367500D01*
X558500D01*
X278000Y508000D02*
Y516000D01*
X262000Y508000D02*
X278000D01*
X262000D02*
Y516000D01*
X278000D01*
X154000Y511000D02*
Y519000D01*
X138000Y511000D02*
X154000D01*
X138000D02*
Y519000D01*
X154000D01*
X176250Y279745D02*
X184250D01*
X176250D02*
Y295745D01*
X184250D01*
Y279745D02*
Y295745D01*
X231000Y463000D02*
X239000D01*
Y447000D02*
Y463000D01*
X231000Y447000D02*
X239000D01*
X231000D02*
Y463000D01*
X169500Y331000D02*
Y339000D01*
X153500Y331000D02*
X169500D01*
X153500D02*
Y339000D01*
X169500D01*
X241540Y332420D02*
Y342580D01*
X236460D02*
X241540D01*
X236460Y332420D02*
Y342580D01*
Y332420D02*
X241540D01*
X279500Y335500D02*
X304500D01*
Y367500D01*
X279500Y335500D02*
Y367500D01*
X304500D01*
X248500Y335500D02*
X273500D01*
Y367500D01*
X248500Y335500D02*
Y367500D01*
X273500D01*
X49250Y764500D02*
Y772500D01*
X65250D01*
Y764500D02*
Y772500D01*
X49250Y764500D02*
X65250D01*
X200279Y775484D02*
X208279D01*
Y759484D02*
Y775484D01*
X200279Y759484D02*
X208279D01*
X200279D02*
Y775484D01*
X105250Y800000D02*
Y808000D01*
X121250D01*
Y800000D02*
Y808000D01*
X105250Y800000D02*
X121250D01*
X110420Y723460D02*
X120580D01*
Y728540D01*
X110420D02*
X120580D01*
X110420Y723460D02*
Y728540D01*
X101000Y690500D02*
Y715500D01*
Y690500D02*
X133000D01*
X101000Y715500D02*
X133000D01*
Y690500D02*
Y715500D01*
X101000Y658500D02*
Y683500D01*
Y658500D02*
X133000D01*
X101000Y683500D02*
X133000D01*
Y658500D02*
Y683500D01*
X568000Y673500D02*
Y681500D01*
X552000Y673500D02*
X568000D01*
X552000D02*
Y681500D01*
X568000D01*
X712000Y671000D02*
Y679000D01*
X696000Y671000D02*
X712000D01*
X696000D02*
Y679000D01*
X712000D01*
X678500Y408750D02*
X686500D01*
X678500D02*
Y424750D01*
X686500D01*
Y408750D02*
Y424750D01*
X734000Y590000D02*
X742000D01*
Y574000D02*
Y590000D01*
X734000Y574000D02*
X742000D01*
X734000D02*
Y590000D01*
X674000Y461000D02*
Y469000D01*
X658000Y461000D02*
X674000D01*
X658000D02*
Y469000D01*
X674000D01*
X741040Y462420D02*
Y472580D01*
X735960D02*
X741040D01*
X735960Y462420D02*
Y472580D01*
Y462420D02*
X741040D01*
X779500Y465250D02*
X804500D01*
Y497250D01*
X779500Y465250D02*
Y497250D01*
X804500D01*
X748500Y465250D02*
X773500D01*
Y497250D01*
X748500Y465250D02*
Y497250D01*
X773500D01*
X369170Y278710D02*
X379330D01*
Y283790D01*
X369170D02*
X379330D01*
X369170Y278710D02*
Y283790D01*
X363460Y293920D02*
Y304080D01*
Y293920D02*
X368540D01*
Y304080D01*
X363460D02*
X368540D01*
X106914Y126500D02*
X111912D01*
Y128999D01*
X111079Y129832D01*
X107747D01*
X106914Y128999D01*
Y126500D01*
X111912Y133997D02*
X106914D01*
X109413Y131498D01*
Y134831D01*
X167913Y126500D02*
X172912D01*
Y128999D01*
X172079Y129832D01*
X168746D01*
X167913Y128999D01*
Y126500D01*
X168746Y131498D02*
X167913Y132331D01*
Y133997D01*
X168746Y134831D01*
X169580D01*
X170413Y133997D01*
Y133165D01*
Y133997D01*
X171246Y134831D01*
X172079D01*
X172912Y133997D01*
Y132331D01*
X172079Y131498D01*
X52053Y126750D02*
X57051D01*
Y129249D01*
X56218Y130082D01*
X52886D01*
X52053Y129249D01*
Y126750D01*
X57051Y135081D02*
Y131748D01*
X53719Y135081D01*
X52886D01*
X52053Y134248D01*
Y132581D01*
X52886Y131748D01*
D14*
X702500Y352000D02*
X735500D01*
Y385000D01*
X702500D02*
X735500D01*
X702500Y352000D02*
Y385000D01*
X767000Y264000D02*
Y280000D01*
X799000D01*
Y264000D02*
Y280000D01*
X767000Y264000D02*
X799000D01*
X773000Y368000D02*
Y384000D01*
X805000D01*
Y368000D02*
Y384000D01*
X773000Y368000D02*
X805000D01*
X720500Y250000D02*
X753500D01*
Y283000D01*
X720500D02*
X753500D01*
X720500Y250000D02*
Y283000D01*
D129*
X786750Y422250D02*
X784751D01*
Y423250D01*
X785084Y423583D01*
X785750D01*
X786084Y423250D01*
Y422250D01*
Y422916D02*
X786750Y423583D01*
X785084Y424249D02*
X784751Y424583D01*
Y425249D01*
X785084Y425582D01*
X785417D01*
X785750Y425249D01*
X786084Y425582D01*
X786417D01*
X786750Y425249D01*
Y424583D01*
X786417Y424249D01*
X786084D01*
X785750Y424583D01*
X785417Y424249D01*
X785084D01*
X785750Y424583D02*
Y425249D01*
X785084Y426249D02*
X784751Y426582D01*
Y427248D01*
X785084Y427582D01*
X785417D01*
X785750Y427248D01*
Y426915D01*
Y427248D01*
X786084Y427582D01*
X786417D01*
X786750Y427248D01*
Y426582D01*
X786417Y426249D01*
X80250Y214750D02*
Y212751D01*
X79250D01*
X78917Y213084D01*
Y213750D01*
X79250Y214083D01*
X80250D01*
X79584D02*
X78917Y214750D01*
X78251Y212751D02*
X76918D01*
Y213084D01*
X78251Y214417D01*
Y214750D01*
X76251Y214417D02*
X75918Y214750D01*
X75252D01*
X74918Y214417D01*
Y213084D01*
X75252Y212751D01*
X75918D01*
X76251Y213084D01*
Y213417D01*
X75918Y213750D01*
X74918D01*
X185750Y217250D02*
Y219249D01*
X186750D01*
X187083Y218916D01*
Y218250D01*
X186750Y217916D01*
X185750D01*
X186416D02*
X187083Y217250D01*
X187749Y219249D02*
X189082D01*
Y218916D01*
X187749Y217583D01*
Y217250D01*
X189749Y218916D02*
X190082Y219249D01*
X190748D01*
X191082Y218916D01*
Y218583D01*
X190748Y218250D01*
X191082Y217916D01*
Y217583D01*
X190748Y217250D01*
X190082D01*
X189749Y217583D01*
Y217916D01*
X190082Y218250D01*
X189749Y218583D01*
Y218916D01*
X190082Y218250D02*
X190748D01*
X185750Y185250D02*
Y187249D01*
X186750D01*
X187083Y186916D01*
Y186250D01*
X186750Y185916D01*
X185750D01*
X186416D02*
X187083Y185250D01*
X187749Y187249D02*
X189082D01*
Y186916D01*
X187749Y185583D01*
Y185250D01*
X189749Y187249D02*
X191082D01*
Y186916D01*
X189749Y185583D01*
Y185250D01*
X80250Y198750D02*
Y196751D01*
X79250D01*
X78917Y197084D01*
Y197750D01*
X79250Y198083D01*
X80250D01*
X79584D02*
X78917Y198750D01*
X78251Y196751D02*
X76918D01*
Y197084D01*
X78251Y198417D01*
Y198750D01*
X74918Y196751D02*
X75585Y197084D01*
X76251Y197750D01*
Y198417D01*
X75918Y198750D01*
X75252D01*
X74918Y198417D01*
Y198083D01*
X75252Y197750D01*
X76251D01*
X185750Y201250D02*
Y203249D01*
X186750D01*
X187083Y202916D01*
Y202250D01*
X186750Y201916D01*
X185750D01*
X186416D02*
X187083Y201250D01*
X187749Y203249D02*
X189082D01*
Y202916D01*
X187749Y201583D01*
Y201250D01*
X191082Y203249D02*
X189749D01*
Y202250D01*
X190415Y202583D01*
X190748D01*
X191082Y202250D01*
Y201583D01*
X190748Y201250D01*
X190082D01*
X189749Y201583D01*
X80250Y230750D02*
Y228751D01*
X79250D01*
X78917Y229084D01*
Y229750D01*
X79250Y230084D01*
X80250D01*
X79584D02*
X78917Y230750D01*
X78251Y228751D02*
X76918D01*
Y229084D01*
X78251Y230417D01*
Y230750D01*
X75252D02*
Y228751D01*
X76251Y229750D01*
X74918D01*
X733000Y232000D02*
Y233999D01*
X734000D01*
X734333Y233666D01*
Y233000D01*
X734000Y232666D01*
X733000D01*
X733666D02*
X734333Y232000D01*
X734999Y233999D02*
X736332D01*
Y233666D01*
X734999Y232333D01*
Y232000D01*
X736999D02*
X737665D01*
X737332D01*
Y233999D01*
X736999Y233666D01*
X738665Y233999D02*
Y232000D01*
X739665D01*
X739998Y232333D01*
Y232666D01*
X739665Y233000D01*
X738665D01*
X739665D01*
X739998Y233333D01*
Y233666D01*
X739665Y233999D01*
X738665D01*
X712000Y337750D02*
Y339749D01*
X713000D01*
X713333Y339416D01*
Y338750D01*
X713000Y338416D01*
X712000D01*
X712666D02*
X713333Y337750D01*
X713999Y339749D02*
X715332D01*
Y339416D01*
X713999Y338083D01*
Y337750D01*
X715999D02*
X716665D01*
X716332D01*
Y339749D01*
X715999Y339416D01*
X717665Y337750D02*
Y339083D01*
X718331Y339749D01*
X718998Y339083D01*
Y337750D01*
Y338750D01*
X717665D01*
X458250Y284870D02*
X456251D01*
Y285870D01*
X456584Y286203D01*
X457250D01*
X457584Y285870D01*
Y284870D01*
Y285536D02*
X458250Y286203D01*
X456251Y288202D02*
X456584Y287536D01*
X457250Y286869D01*
X457917D01*
X458250Y287203D01*
Y287869D01*
X457917Y288202D01*
X457584D01*
X457250Y287869D01*
Y286869D01*
X456584Y288869D02*
X456251Y289202D01*
Y289868D01*
X456584Y290202D01*
X457917D01*
X458250Y289868D01*
Y289202D01*
X457917Y288869D01*
X456584D01*
X421750Y292120D02*
X423749D01*
Y291120D01*
X423416Y290787D01*
X422750D01*
X422416Y291120D01*
Y292120D01*
Y291454D02*
X421750Y290787D01*
X423749Y288788D02*
Y290121D01*
X422750D01*
X423083Y289454D01*
Y289121D01*
X422750Y288788D01*
X422083D01*
X421750Y289121D01*
Y289787D01*
X422083Y290121D01*
Y288121D02*
X421750Y287788D01*
Y287122D01*
X422083Y286788D01*
X423416D01*
X423749Y287122D01*
Y287788D01*
X423416Y288121D01*
X423083D01*
X422750Y287788D01*
Y286788D01*
X198000Y284750D02*
X196001D01*
Y285750D01*
X196334Y286083D01*
X197000D01*
X197334Y285750D01*
Y284750D01*
Y285416D02*
X198000Y286083D01*
Y287749D02*
X196001D01*
X197000Y286749D01*
Y288082D01*
X196001Y290082D02*
X196334Y289415D01*
X197000Y288749D01*
X197667D01*
X198000Y289082D01*
Y289748D01*
X197667Y290082D01*
X197334D01*
X197000Y289748D01*
Y288749D01*
X162000Y292495D02*
X163999D01*
Y291495D01*
X163666Y291162D01*
X163000D01*
X162666Y291495D01*
Y292495D01*
Y291829D02*
X162000Y291162D01*
Y289496D02*
X163999D01*
X163000Y290496D01*
Y289163D01*
X163999Y287163D02*
Y288496D01*
X163000D01*
X163333Y287830D01*
Y287497D01*
X163000Y287163D01*
X162333D01*
X162000Y287497D01*
Y288163D01*
X162333Y288496D01*
X344398Y779433D02*
Y777433D01*
X343398D01*
X343065Y777767D01*
Y778433D01*
X343398Y778766D01*
X344398D01*
X343731D02*
X343065Y779433D01*
X342398Y777767D02*
X342065Y777433D01*
X341399D01*
X341065Y777767D01*
Y778100D01*
X341399Y778433D01*
X341732D01*
X341399D01*
X341065Y778766D01*
Y779100D01*
X341399Y779433D01*
X342065D01*
X342398Y779100D01*
X339399Y779433D02*
Y777433D01*
X340399Y778433D01*
X339066D01*
X54750Y750250D02*
Y752249D01*
X55750D01*
X56083Y751916D01*
Y751250D01*
X55750Y750916D01*
X54750D01*
X55416D02*
X56083Y750250D01*
X56749Y751916D02*
X57083Y752249D01*
X57749D01*
X58082Y751916D01*
Y751583D01*
X57749Y751250D01*
X57416D01*
X57749D01*
X58082Y750916D01*
Y750583D01*
X57749Y750250D01*
X57083D01*
X56749Y750583D01*
X60082Y750250D02*
X58749D01*
X60082Y751583D01*
Y751916D01*
X59748Y752249D01*
X59082D01*
X58749Y751916D01*
X62000Y786750D02*
Y784751D01*
X61000D01*
X60667Y785084D01*
Y785750D01*
X61000Y786084D01*
X62000D01*
X61333D02*
X60667Y786750D01*
X60001Y785084D02*
X59667Y784751D01*
X59001D01*
X58668Y785084D01*
Y785417D01*
X59001Y785750D01*
X59334D01*
X59001D01*
X58668Y786084D01*
Y786417D01*
X59001Y786750D01*
X59667D01*
X60001Y786417D01*
X58001Y786750D02*
X57335D01*
X57668D01*
Y784751D01*
X58001Y785084D01*
X700750Y414250D02*
X698751D01*
Y415250D01*
X699084Y415583D01*
X699750D01*
X700084Y415250D01*
Y414250D01*
Y414916D02*
X700750Y415583D01*
Y416249D02*
Y416916D01*
Y416583D01*
X698751D01*
X699084Y416249D01*
X700417Y417915D02*
X700750Y418249D01*
Y418915D01*
X700417Y419248D01*
X699084D01*
X698751Y418915D01*
Y418249D01*
X699084Y417915D01*
X699417D01*
X699750Y418249D01*
Y419248D01*
X664250Y421500D02*
X666249D01*
Y420500D01*
X665916Y420167D01*
X665250D01*
X664916Y420500D01*
Y421500D01*
Y420834D02*
X664250Y420167D01*
Y419501D02*
Y418834D01*
Y419167D01*
X666249D01*
X665916Y419501D01*
Y417835D02*
X666249Y417501D01*
Y416835D01*
X665916Y416502D01*
X665583D01*
X665250Y416835D01*
X664916Y416502D01*
X664583D01*
X664250Y416835D01*
Y417501D01*
X664583Y417835D01*
X664916D01*
X665250Y417501D01*
X665583Y417835D01*
X665916D01*
X665250Y417501D02*
Y416835D01*
M02*
