G04*
G04 #@! TF.GenerationSoftware,Altium Limited,Altium Designer,26.2.0 (7)*
G04*
G04 Layer_Color=32896*
%FSLAX44Y44*%
%MOMM*%
G71*
G04*
G04 #@! TF.SameCoordinates,D5DFED66-1DDD-4205-BACF-39BFCEB3ABE1*
G04*
G04*
G04 #@! TF.FilePolarity,Positive*
G04*
G01*
G75*
%ADD12C,0.1000*%
D12*
X173000Y662250D02*
Y664750D01*
X175500D01*
X170500D02*
X175500D01*
X170500D02*
X173000D01*
Y667250D01*
Y664750D02*
Y667250D01*
X310824Y132483D02*
X314824D01*
Y136483D01*
Y128483D02*
Y136483D01*
Y128483D02*
Y132483D01*
X318824D01*
X314824D02*
X318824D01*
X606000Y135000D02*
X610000D01*
Y139000D01*
Y131000D02*
Y139000D01*
Y131000D02*
Y135000D01*
X614000D01*
X610000D02*
X614000D01*
X501000D02*
X505000D01*
Y139000D01*
Y131000D02*
Y139000D01*
Y131000D02*
Y135000D01*
X509000D01*
X505000D02*
X509000D01*
X391246Y130213D02*
Y134213D01*
Y130213D02*
X395246D01*
X387246D02*
X395246D01*
X387246D02*
X391246D01*
Y126213D02*
Y130213D01*
Y126213D02*
Y130213D01*
X336000Y732000D02*
Y736000D01*
Y732000D02*
Y736000D01*
Y732000D02*
X340000D01*
X332000D02*
X340000D01*
X332000D02*
X336000D01*
Y728000D02*
Y732000D01*
X77500Y461180D02*
X80000D01*
X77500D02*
X80000D01*
Y458680D02*
Y461180D01*
Y458680D02*
Y463680D01*
Y461180D02*
Y463680D01*
Y461180D02*
X82500D01*
X424000Y313000D02*
Y315500D01*
X421500Y313000D02*
X424000D01*
X421500D02*
X426500D01*
X424000D02*
X426500D01*
X424000Y310500D02*
Y313000D01*
Y310500D02*
Y313000D01*
X736000Y696427D02*
Y698927D01*
X738500D01*
X733500D02*
X738500D01*
X733500D02*
X736000D01*
Y701427D01*
Y698927D02*
Y701427D01*
X262232Y296500D02*
Y301500D01*
Y296500D02*
Y301500D01*
X267232D01*
X262232D02*
X267232D01*
X257232D02*
X262232D01*
X257232D02*
X262232D01*
Y306500D01*
X257164Y253750D02*
X259664D01*
X257164D02*
Y256250D01*
Y251250D02*
Y256250D01*
Y251250D02*
Y253750D01*
X254664D02*
X257164D01*
X254664D02*
X257164D01*
X535715Y642250D02*
X538215D01*
X535715D02*
X538215D01*
Y639750D02*
Y642250D01*
Y639750D02*
Y644750D01*
Y642250D02*
Y644750D01*
Y642250D02*
X540715D01*
X445000Y649000D02*
X447500D01*
X445000D02*
X447500D01*
X445000D02*
Y651500D01*
Y646500D02*
Y651500D01*
Y646500D02*
Y649000D01*
X442500D02*
X445000D01*
X586000Y536000D02*
Y538500D01*
Y536000D02*
Y538500D01*
X583500Y536000D02*
X586000D01*
X583500D02*
X588500D01*
X586000D02*
X588500D01*
X586000Y533500D02*
Y536000D01*
X307000Y653000D02*
Y655500D01*
Y653000D02*
Y655500D01*
X304500Y653000D02*
X307000D01*
X304500D02*
X309500D01*
X307000D02*
X309500D01*
X307000Y650500D02*
Y653000D01*
X331500Y536500D02*
Y539000D01*
Y536500D02*
Y539000D01*
X329000Y536500D02*
X331500D01*
X329000D02*
X334000D01*
X331500D02*
X334000D01*
X331500Y534000D02*
Y536500D01*
X385000Y731500D02*
Y734000D01*
Y731500D02*
Y734000D01*
X387500D01*
X382500D02*
X387500D01*
X382500D02*
X385000D01*
Y736500D01*
X177000Y747000D02*
Y749500D01*
Y747000D02*
Y749500D01*
X179500D01*
X174500D02*
X179500D01*
X174500D02*
X177000D01*
Y752000D01*
X603000Y781500D02*
X605500D01*
X603000D02*
X605500D01*
X603000D02*
Y784000D01*
Y779000D02*
Y784000D01*
Y779000D02*
Y781500D01*
X600500D02*
X603000D01*
X738000Y748677D02*
Y751177D01*
Y748677D02*
Y751177D01*
X735500Y748677D02*
X738000D01*
X735500D02*
X740500D01*
X738000D02*
X740500D01*
X738000Y746177D02*
Y748677D01*
X645750Y643428D02*
X648250D01*
X645750D02*
X648250D01*
Y640928D02*
Y643428D01*
Y640928D02*
Y645928D01*
Y643428D02*
Y645928D01*
Y643428D02*
X650750D01*
X589000Y388000D02*
X594000D01*
Y383000D02*
Y388000D01*
Y383000D02*
Y393000D01*
Y388000D02*
Y393000D01*
Y388000D02*
X599000D01*
X594000D02*
X599000D01*
X63000Y235000D02*
Y237500D01*
X60500Y235000D02*
X63000D01*
X60500D02*
X65500D01*
X63000D02*
X65500D01*
X63000Y232500D02*
Y235000D01*
Y232500D02*
Y235000D01*
Y177500D02*
Y180000D01*
X65500D01*
X60500D02*
X65500D01*
X60500D02*
X63000D01*
Y182500D01*
Y180000D02*
Y182500D01*
X568750Y643250D02*
X572750D01*
X568750Y639250D02*
Y643250D01*
Y639250D02*
Y647250D01*
Y643250D02*
Y647250D01*
X564750Y643250D02*
X568750D01*
X564750D02*
X568750D01*
X475000Y648730D02*
X479000D01*
X475000Y644730D02*
Y648730D01*
Y644730D02*
Y652730D01*
Y648730D02*
Y652730D01*
X471000Y648730D02*
X475000D01*
X471000D02*
X475000D01*
X308500Y684000D02*
Y688000D01*
Y684000D02*
X312500D01*
X304500D02*
X312500D01*
X304500D02*
X308500D01*
Y680000D02*
Y684000D01*
Y680000D02*
Y684000D01*
X136000Y674750D02*
Y678750D01*
X132000D02*
X136000D01*
X132000D02*
X140000D01*
X136000D02*
X140000D01*
X136000D02*
Y682750D01*
Y678750D02*
Y682750D01*
X384000Y764000D02*
Y768000D01*
Y764000D02*
X388000D01*
X380000D02*
X388000D01*
X380000D02*
X384000D01*
Y760000D02*
Y764000D01*
Y760000D02*
Y764000D01*
X569000Y780500D02*
X573000D01*
Y784500D01*
Y776500D02*
Y784500D01*
Y776500D02*
Y780500D01*
X577000D01*
X573000D02*
X577000D01*
X616486Y351218D02*
Y355218D01*
Y351218D02*
X620486D01*
X612486D02*
X620486D01*
X612486D02*
X616486D01*
Y347218D02*
Y351218D01*
Y347218D02*
Y351218D01*
X637000Y433000D02*
X641000D01*
X637000Y429000D02*
Y433000D01*
Y429000D02*
Y437000D01*
Y433000D02*
Y437000D01*
X633000Y433000D02*
X637000D01*
X633000D02*
X637000D01*
X567500Y495250D02*
X571500D01*
Y499250D01*
Y491250D02*
Y499250D01*
Y491250D02*
Y495250D01*
X575500D01*
X571500D02*
X575500D01*
X532000Y498500D02*
Y502500D01*
Y498500D02*
X536000D01*
X532000Y494500D02*
Y498500D01*
Y494500D02*
Y498500D01*
X528000D02*
X532000D01*
X313000Y495500D02*
X317000D01*
Y499500D01*
Y491500D02*
Y499500D01*
Y491500D02*
Y495500D01*
X321000D01*
X317000D02*
X321000D01*
X276000D02*
X280000D01*
X276000Y491500D02*
Y495500D01*
Y491500D02*
Y499500D01*
Y495500D02*
Y499500D01*
X272000Y495500D02*
X276000D01*
X272000D02*
X276000D01*
X201000Y763000D02*
X205000D01*
Y767000D01*
Y759000D02*
Y767000D01*
Y759000D02*
Y763000D01*
X209000D01*
X205000D02*
X209000D01*
X249000Y774000D02*
X253000D01*
Y778000D01*
Y774000D02*
X257000D01*
X253000D02*
X257000D01*
X253000Y770000D02*
Y774000D01*
X648995Y617428D02*
X652995D01*
Y621428D01*
Y617428D02*
X656995D01*
X652995D02*
X656995D01*
X652995Y613428D02*
Y617428D01*
X652505Y580428D02*
X656505D01*
X652505Y576428D02*
Y580428D01*
X648505D02*
X652505D01*
X648505D02*
X652505D01*
Y584428D01*
X713000Y402000D02*
Y406000D01*
Y402000D02*
X717000D01*
X713000Y398000D02*
Y402000D01*
Y398000D02*
Y402000D01*
X709000D02*
X713000D01*
Y371255D02*
Y375255D01*
Y371255D02*
X717000D01*
X713000Y367255D02*
Y371255D01*
Y367255D02*
Y371255D01*
X709000D02*
X713000D01*
X57750Y276250D02*
Y280250D01*
Y276250D02*
X61750D01*
X53750D02*
X61750D01*
X53750D02*
X57750D01*
Y272250D02*
Y276250D01*
Y272250D02*
Y276250D01*
X57500Y201000D02*
Y205000D01*
X53500D02*
X57500D01*
X53500D02*
X61500D01*
X57500D02*
X61500D01*
X57500D02*
Y209000D01*
Y205000D02*
Y209000D01*
X737000Y714927D02*
Y718927D01*
X733000D02*
X737000D01*
X733000D02*
X741000D01*
X737000D02*
X741000D01*
X737000D02*
Y722927D01*
Y718927D02*
Y722927D01*
X661000Y388000D02*
Y390500D01*
X658500Y388000D02*
X661000D01*
X658500D02*
X663500D01*
X661000D02*
X663500D01*
X661000Y385500D02*
Y388000D01*
Y385500D02*
Y388000D01*
X306000Y389500D02*
Y392000D01*
Y389500D02*
Y392000D01*
X303500Y389500D02*
X306000D01*
X303500D02*
X308500D01*
X306000D02*
X308500D01*
X306000Y387000D02*
Y389500D01*
X755000Y388250D02*
X757500D01*
X755000D02*
Y390750D01*
Y385750D02*
Y390750D01*
Y385750D02*
Y388250D01*
X752500D02*
X755000D01*
X752500D02*
X755000D01*
X534750Y668500D02*
Y671000D01*
Y668500D02*
Y671000D01*
Y668500D02*
X537250D01*
X534750D02*
X537250D01*
X534750Y666000D02*
Y668500D01*
Y666000D02*
Y668500D01*
X532250D02*
X534750D01*
X447000Y619500D02*
Y622000D01*
Y619500D02*
Y622000D01*
X444500D02*
X447000D01*
X444500D02*
X447000D01*
Y624500D01*
Y622000D02*
Y624500D01*
Y622000D02*
X449500D01*
X587000Y561500D02*
Y564000D01*
Y561500D02*
Y564000D01*
X584500D02*
X587000D01*
X584500D02*
X587000D01*
Y566500D01*
Y564000D02*
Y566500D01*
Y564000D02*
X589500D01*
X333000Y657000D02*
X335500D01*
X333000D02*
X335500D01*
X333000Y654500D02*
Y657000D01*
Y654500D02*
Y657000D01*
X330500D02*
X333000D01*
X330500D02*
X333000D01*
Y659500D01*
X199000Y667750D02*
X201500D01*
X199000D02*
X201500D01*
X199000Y665250D02*
Y667750D01*
Y665250D02*
Y667750D01*
X196500D02*
X199000D01*
X196500D02*
X199000D01*
Y670250D01*
X333000Y562500D02*
Y565000D01*
Y562500D02*
Y565000D01*
X330500D02*
X333000D01*
X330500D02*
X333000D01*
Y567500D01*
Y565000D02*
Y567500D01*
Y565000D02*
X335500D01*
X738000Y775177D02*
Y777677D01*
Y775177D02*
Y777677D01*
X735500D02*
X738000D01*
X735500D02*
X738000D01*
Y780177D01*
Y777677D02*
Y780177D01*
Y777677D02*
X740500D01*
X629500Y780000D02*
X632000D01*
X629500D02*
X632000D01*
Y782500D01*
Y780000D02*
Y782500D01*
Y780000D02*
X634500D01*
X632000D02*
X634500D01*
X632000Y777500D02*
Y780000D01*
X619750Y644678D02*
X622250D01*
X619750D02*
X622250D01*
X619750Y642178D02*
Y644678D01*
Y642178D02*
Y644678D01*
X617250D02*
X619750D01*
X617250D02*
X619750D01*
Y647178D01*
X384000Y705000D02*
Y707500D01*
Y705000D02*
Y707500D01*
Y705000D02*
X386500D01*
X384000D02*
X386500D01*
X384000Y702500D02*
Y705000D01*
Y702500D02*
Y705000D01*
X381500D02*
X384000D01*
X148500Y745500D02*
X151000D01*
X148500D02*
X151000D01*
Y748000D01*
Y745500D02*
Y748000D01*
Y745500D02*
X153500D01*
X151000D02*
X153500D01*
X151000Y743000D02*
Y745500D01*
X589750Y644500D02*
X592250D01*
X589750D02*
Y647000D01*
Y642000D02*
Y647000D01*
Y642000D02*
Y644500D01*
X587250D02*
X589750D01*
X587250D02*
X589750D01*
X495000Y650000D02*
X497500D01*
X495000D02*
Y652500D01*
Y647500D02*
Y652500D01*
Y647500D02*
Y650000D01*
X492500D02*
X495000D01*
X492500D02*
X495000D01*
X307500Y704000D02*
Y706500D01*
X305000Y704000D02*
X307500D01*
X305000D02*
X310000D01*
X307500D02*
X310000D01*
X307500Y701500D02*
Y704000D01*
Y701500D02*
Y704000D01*
X136000Y653750D02*
Y656250D01*
X138500D01*
X133500D02*
X138500D01*
X133500D02*
X136000D01*
Y658750D01*
Y656250D02*
Y658750D01*
X548000Y494000D02*
X550500D01*
Y491500D02*
Y494000D01*
Y491500D02*
Y496500D01*
Y494000D02*
Y496500D01*
Y494000D02*
X553000D01*
X550500D02*
X553000D01*
X293500D02*
X296000D01*
Y491500D02*
Y494000D01*
Y491500D02*
Y496500D01*
Y494000D02*
Y496500D01*
Y494000D02*
X298500D01*
X296000D02*
X298500D01*
X224500Y762500D02*
X227000D01*
Y760000D02*
Y762500D01*
Y760000D02*
Y765000D01*
Y762500D02*
Y765000D01*
Y762500D02*
X229500D01*
X227000D02*
X229500D01*
X648000Y599178D02*
Y601678D01*
X645500Y599178D02*
X648000D01*
X645500D02*
X650500D01*
X648000D02*
X650500D01*
X648000Y596678D02*
Y599178D01*
Y596678D02*
Y599178D01*
X292732Y291750D02*
X295232D01*
X292732D02*
Y294250D01*
Y291750D02*
Y294250D01*
Y289250D02*
Y291750D01*
Y289250D02*
Y291750D01*
X290232D02*
X292732D01*
X290232D02*
X292732D01*
X277086Y243250D02*
X279586D01*
Y240750D02*
Y243250D01*
Y240750D02*
Y243250D01*
Y245750D01*
Y243250D02*
Y245750D01*
Y243250D02*
X282086D01*
X279586D02*
X282086D01*
X290232Y313750D02*
X292732D01*
Y311250D02*
Y313750D01*
Y311250D02*
Y313750D01*
Y316250D01*
Y313750D02*
Y316250D01*
Y313750D02*
X295232D01*
X292732D02*
X295232D01*
X277086Y265000D02*
X279586D01*
Y262500D02*
Y265000D01*
Y262500D02*
Y265000D01*
Y267500D01*
Y265000D02*
Y267500D01*
Y265000D02*
X282086D01*
X279586D02*
X282086D01*
X55500Y257750D02*
Y260250D01*
Y257750D02*
Y260250D01*
Y257750D02*
X58000D01*
X55500D02*
X58000D01*
X55500Y255250D02*
Y257750D01*
Y255250D02*
Y257750D01*
X53000D02*
X55500D01*
X368000Y196500D02*
Y199000D01*
X370500D01*
X365500D02*
X370500D01*
X365500D02*
X368000D01*
Y201500D01*
Y199000D02*
Y201500D01*
X523000Y238750D02*
Y241250D01*
X525500D01*
X523000D02*
X525500D01*
X520500D02*
X523000D01*
X520500D02*
X523000D01*
Y243750D01*
Y241250D02*
Y243750D01*
X551000Y386000D02*
X553500D01*
X551000D02*
X553500D01*
X551000Y383500D02*
Y386000D01*
Y383500D02*
Y386000D01*
X548500D02*
X551000D01*
X548500D02*
X551000D01*
Y388500D01*
X365250Y212250D02*
Y214750D01*
X367750D01*
X365250D02*
X367750D01*
X362750D02*
X365250D01*
X362750D02*
X365250D01*
Y217250D01*
Y214750D02*
Y217250D01*
X499250Y420250D02*
X501750D01*
X499250D02*
Y422750D01*
Y420250D02*
Y422750D01*
Y417750D02*
Y420250D01*
Y417750D02*
Y420250D01*
X496750D02*
X499250D01*
X496750D02*
X499250D01*
X552750Y257750D02*
Y260250D01*
X555250D01*
X550250D02*
X555250D01*
X550250D02*
X552750D01*
Y262750D01*
Y260250D02*
Y262750D01*
X382750Y785000D02*
Y787500D01*
X380250Y785000D02*
X382750D01*
X380250D02*
X385250D01*
X382750D02*
X385250D01*
X382750Y782500D02*
Y785000D01*
Y782500D02*
Y785000D01*
X479000Y429250D02*
X481500D01*
X479000D02*
Y431750D01*
Y426750D02*
Y431750D01*
Y426750D02*
Y429250D01*
X476500D02*
X479000D01*
X476500D02*
X479000D01*
X549500Y779250D02*
X552000D01*
Y776750D02*
Y779250D01*
Y776750D02*
Y781750D01*
Y779250D02*
Y781750D01*
Y779250D02*
X554500D01*
X552000D02*
X554500D01*
X280000Y381000D02*
X282500D01*
X280000D02*
X282500D01*
X280000Y378500D02*
Y381000D01*
Y378500D02*
Y381000D01*
X277500D02*
X280000D01*
X277500D02*
X280000D01*
Y383500D01*
X312000Y358500D02*
Y361000D01*
X309500Y358500D02*
X312000D01*
X309500D02*
X312000D01*
X314500D01*
X312000D02*
X314500D01*
X312000Y356000D02*
Y358500D01*
Y356000D02*
Y358500D01*
X307500Y371000D02*
Y373500D01*
Y371000D02*
Y373500D01*
X305000D02*
X307500D01*
X305000D02*
X307500D01*
Y376000D01*
Y373500D02*
Y376000D01*
Y373500D02*
X310000D01*
M02*
