G04*
G04 #@! TF.GenerationSoftware,Altium Limited,Altium Designer,26.2.0 (7)*
G04*
G04 Layer_Color=32768*
%FSLAX44Y44*%
%MOMM*%
G71*
G04*
G04 #@! TF.SameCoordinates,D5DFED66-1DDD-4205-BACF-39BFCEB3ABE1*
G04*
G04*
G04 #@! TF.FilePolarity,Positive*
G04*
G01*
G75*
%ADD11C,0.2000*%
%ADD12C,0.1000*%
%ADD14C,0.1270*%
D11*
X789950Y819850D02*
Y893000D01*
X124450Y819850D02*
X789950D01*
X124450D02*
Y869350D01*
X789950Y887650D02*
Y920150D01*
X124450D02*
X789950D01*
X124450Y870650D02*
Y920150D01*
D12*
X380000Y370000D02*
Y470000D01*
Y370000D02*
X480000D01*
Y470000D01*
X380000D02*
X480000D01*
X119500Y222500D02*
X149500D01*
X119500Y192500D02*
X149500D01*
X119500D02*
Y222500D01*
X149500Y192500D02*
Y222500D01*
X690500Y190000D02*
Y215000D01*
Y190000D02*
X720500D01*
Y215000D01*
X690500D02*
X720500D01*
X770000Y212500D02*
X795000D01*
Y242500D01*
X770000D02*
X795000D01*
X770000Y212500D02*
Y242500D01*
X760000Y313750D02*
X785000D01*
Y343750D01*
X760000D02*
X785000D01*
X760000Y313750D02*
Y343750D01*
X685000Y325500D02*
Y350500D01*
X655000D02*
X685000D01*
X655000Y325500D02*
Y350500D01*
Y325500D02*
X685000D01*
X528000Y541000D02*
X558000D01*
Y571000D01*
X528000D02*
X558000D01*
X528000Y541000D02*
Y571000D01*
X402000Y541000D02*
X432000D01*
Y571000D01*
X402000D02*
X432000D01*
X402000Y541000D02*
Y571000D01*
X465000Y337750D02*
X471500D01*
X465000Y316750D02*
Y337750D01*
Y316750D02*
X481000D01*
X469000Y337750D02*
X481000D01*
Y316750D02*
Y337750D01*
X279000Y531000D02*
X309000D01*
Y561000D01*
X279000D02*
X309000D01*
X279000Y531000D02*
Y561000D01*
X156000Y531000D02*
X186000D01*
Y561000D01*
X156000D02*
X186000D01*
X156000Y531000D02*
Y561000D01*
X211000Y338500D02*
X217500D01*
X211000Y317500D02*
Y338500D01*
Y317500D02*
X227000D01*
X215000Y338500D02*
X227000D01*
Y317500D02*
Y338500D01*
X118500Y747500D02*
Y754000D01*
X97500D02*
X118500D01*
X97500Y738000D02*
Y754000D01*
X118500Y738000D02*
Y750000D01*
X97500Y738000D02*
X118500D01*
X564000Y695000D02*
X594000D01*
Y725000D01*
X564000D02*
X594000D01*
X564000Y695000D02*
Y725000D01*
X710000Y691000D02*
X740000D01*
Y721000D01*
X710000D02*
X740000D01*
X710000Y691000D02*
Y721000D01*
X710400Y465750D02*
X716900D01*
X710400Y444750D02*
Y465750D01*
Y444750D02*
X726400D01*
X714400Y465750D02*
X726400D01*
Y444750D02*
Y465750D01*
X122500Y467500D02*
X222500D01*
Y367500D02*
Y467500D01*
X122500Y367500D02*
X222500D01*
X122500D02*
Y467500D01*
X134706Y757662D02*
Y794662D01*
Y757662D02*
X190706D01*
Y810662D01*
X134706D02*
X190706D01*
X134706Y794662D02*
Y810662D01*
X625000Y592500D02*
X725000D01*
Y492500D02*
Y592500D01*
X625000Y492500D02*
X725000D01*
X625000D02*
Y592500D01*
X823000Y427750D02*
X875000D01*
X823000Y276250D02*
Y427750D01*
Y276250D02*
X875000D01*
Y427750D01*
X603000Y151000D02*
Y157000D01*
X593000Y151000D02*
Y157000D01*
X603000D01*
X597750Y151000D02*
X603000D01*
X593000D02*
X597750D01*
X488000D02*
Y157000D01*
X478000Y151000D02*
Y157000D01*
X488000D01*
X482750Y151000D02*
X488000D01*
X478000D02*
X482750D01*
X372000D02*
Y157000D01*
X362000Y151000D02*
Y157000D01*
X372000D01*
X366750Y151000D02*
X372000D01*
X362000D02*
X366750D01*
X257000D02*
Y157000D01*
X247000Y151000D02*
Y157000D01*
X257000D01*
X251750Y151000D02*
X257000D01*
X247000D02*
X251750D01*
D14*
X702500Y352000D02*
X735500D01*
Y385000D01*
X702500D02*
X735500D01*
X702500Y352000D02*
Y385000D01*
X767000Y264000D02*
Y280000D01*
X799000D01*
Y264000D02*
Y280000D01*
X767000Y264000D02*
X799000D01*
X773000Y368000D02*
Y384000D01*
X805000D01*
Y368000D02*
Y384000D01*
X773000Y368000D02*
X805000D01*
X720500Y250000D02*
X753500D01*
Y283000D01*
X720500D02*
X753500D01*
X720500Y250000D02*
Y283000D01*
M02*
