G04*
G04 #@! TF.GenerationSoftware,Altium Limited,Altium Designer,26.2.0 (7)*
G04*
G04 Layer_Color=16711935*
%FSLAX44Y44*%
%MOMM*%
G71*
G04*
G04 #@! TF.SameCoordinates,D5DFED66-1DDD-4205-BACF-39BFCEB3ABE1*
G04*
G04*
G04 #@! TF.FilePolarity,Negative*
G04*
G01*
G75*
%ADD46R,1.0500X1.4500*%
%ADD47R,1.1500X0.7700*%
%ADD49R,1.2500X1.0500*%
%ADD50R,1.0500X1.2500*%
%ADD52R,1.0000X1.0750*%
%ADD57R,1.2500X1.7000*%
%ADD58R,1.7000X1.2500*%
%ADD59R,0.9000X0.6500*%
%ADD60R,0.6500X0.9000*%
%ADD62R,1.4500X1.0500*%
%ADD68R,1.0750X1.0000*%
%ADD72R,0.7700X1.1500*%
%ADD78C,1.6000*%
%ADD79C,6.1500*%
%ADD80C,1.4980*%
%ADD81C,1.0906*%
%ADD82C,2.4749*%
%ADD83R,1.4980X1.4980*%
%ADD84C,0.6500*%
%ADD119R,1.0500X1.1500*%
%ADD120R,1.6000X0.4000*%
%ADD121R,1.1000X0.7200*%
%ADD122R,0.9500X1.8500*%
%ADD123R,1.2500X0.8500*%
%ADD124R,1.4500X1.2000*%
%ADD125R,0.4000X1.6000*%
%ADD126R,1.9500X1.1500*%
%ADD127R,1.5000X1.0500*%
D46*
X146500Y678750D02*
D03*
X380746Y130213D02*
D03*
X401746D02*
D03*
X68000Y205000D02*
D03*
X605986Y351218D02*
D03*
X346500Y732000D02*
D03*
X325500D02*
D03*
X47250Y276250D02*
D03*
X68250D02*
D03*
X298000Y684000D02*
D03*
X319000D02*
D03*
X125500Y678750D02*
D03*
X373500Y764000D02*
D03*
X394500D02*
D03*
X626986Y351218D02*
D03*
X47000Y205000D02*
D03*
X747500Y718927D02*
D03*
X726500D02*
D03*
D47*
X635750Y652928D02*
D03*
X615500Y772000D02*
D03*
X457500Y639500D02*
D03*
X525715Y651750D02*
D03*
X660750Y643428D02*
D03*
X590500Y781500D02*
D03*
X432500Y649000D02*
D03*
X550715Y642250D02*
D03*
X525715Y632750D02*
D03*
X550715D02*
D03*
Y651750D02*
D03*
X457500Y658500D02*
D03*
X432500D02*
D03*
Y639500D02*
D03*
X615500Y791000D02*
D03*
X590500D02*
D03*
Y772000D02*
D03*
X635750Y633928D02*
D03*
X660750D02*
D03*
Y652928D02*
D03*
D49*
X151000Y736500D02*
D03*
X619750Y653678D02*
D03*
X632000Y771000D02*
D03*
X199000Y676750D02*
D03*
X333000Y666000D02*
D03*
X280000Y372000D02*
D03*
X551000Y377000D02*
D03*
X151000Y754500D02*
D03*
X619750Y635678D02*
D03*
X632000Y789000D02*
D03*
X199000Y658750D02*
D03*
X333000Y648000D02*
D03*
X280000Y390000D02*
D03*
X551000Y395000D02*
D03*
D50*
X316500Y373500D02*
D03*
X375000Y705000D02*
D03*
X747000Y777677D02*
D03*
X342000Y565000D02*
D03*
X596000Y564000D02*
D03*
X456000Y622000D02*
D03*
X525750Y668500D02*
D03*
X298500Y373500D02*
D03*
X64500Y257750D02*
D03*
X393000Y705000D02*
D03*
X729000Y777677D02*
D03*
X324000Y565000D02*
D03*
X578000Y564000D02*
D03*
X438000Y622000D02*
D03*
X543750Y668500D02*
D03*
X46500Y257750D02*
D03*
D52*
X260745Y774000D02*
D03*
X645250Y617428D02*
D03*
X644760Y580428D02*
D03*
X245255Y774000D02*
D03*
X660740Y617428D02*
D03*
X660250Y580428D02*
D03*
D57*
X371250Y785000D02*
D03*
X564250Y260250D02*
D03*
X379500Y199000D02*
D03*
X636500Y599178D02*
D03*
X147500Y656250D02*
D03*
X296000Y704000D02*
D03*
X747500Y698927D02*
D03*
X356500Y199000D02*
D03*
X724500Y698927D02*
D03*
X319000Y704000D02*
D03*
X124500Y656250D02*
D03*
X659500Y599178D02*
D03*
X541250Y260250D02*
D03*
X394250Y785000D02*
D03*
D58*
X552000Y767750D02*
D03*
X479000Y440750D02*
D03*
X227000Y751000D02*
D03*
X296000Y482500D02*
D03*
X550500D02*
D03*
X495000Y661500D02*
D03*
X589750Y656000D02*
D03*
Y633000D02*
D03*
X495000Y638500D02*
D03*
X550500Y505500D02*
D03*
X296000D02*
D03*
X227000Y774000D02*
D03*
X479000Y417750D02*
D03*
X552000Y790750D02*
D03*
D59*
X499250Y425750D02*
D03*
X279586Y259500D02*
D03*
X292732Y308250D02*
D03*
X279586Y248750D02*
D03*
X292732Y297250D02*
D03*
X499250Y414750D02*
D03*
X292732Y286250D02*
D03*
X279586Y237750D02*
D03*
X292732Y319250D02*
D03*
X279586Y270500D02*
D03*
D60*
X317500Y358500D02*
D03*
X306500D02*
D03*
X370750Y214750D02*
D03*
X528500Y241250D02*
D03*
X359750Y214750D02*
D03*
X517500Y241250D02*
D03*
D62*
X314824Y121983D02*
D03*
Y142983D02*
D03*
X610000Y124500D02*
D03*
Y145500D02*
D03*
X505000Y124500D02*
D03*
Y145500D02*
D03*
X205000Y752500D02*
D03*
X317000Y485000D02*
D03*
X571500Y484750D02*
D03*
X637000Y443500D02*
D03*
X568750Y653750D02*
D03*
Y632750D02*
D03*
X475000Y659230D02*
D03*
Y638230D02*
D03*
X573000Y770000D02*
D03*
Y791000D02*
D03*
X637000Y422500D02*
D03*
X571500Y505750D02*
D03*
X317000Y506000D02*
D03*
X276000D02*
D03*
Y485000D02*
D03*
X205000Y773500D02*
D03*
D68*
X713000Y379000D02*
D03*
Y394255D02*
D03*
X532000Y490755D02*
D03*
Y506245D02*
D03*
X713000Y409745D02*
D03*
Y363510D02*
D03*
D72*
X182500Y652250D02*
D03*
X163500D02*
D03*
X182500Y677250D02*
D03*
X163500D02*
D03*
X173000Y652250D02*
D03*
X747500Y761177D02*
D03*
X167500Y737000D02*
D03*
X375500Y721500D02*
D03*
X341000Y549000D02*
D03*
X316500Y665500D02*
D03*
X595500Y548500D02*
D03*
X738000Y736177D02*
D03*
X177000Y762000D02*
D03*
X385000Y746500D02*
D03*
X331500Y524000D02*
D03*
X307000Y640500D02*
D03*
X586000Y523500D02*
D03*
X576500Y548500D02*
D03*
Y523500D02*
D03*
X595500D02*
D03*
X297500Y665500D02*
D03*
Y640500D02*
D03*
X316500D02*
D03*
X322000Y549000D02*
D03*
Y524000D02*
D03*
X341000D02*
D03*
X394500Y721500D02*
D03*
Y746500D02*
D03*
X375500D02*
D03*
X186500Y737000D02*
D03*
Y762000D02*
D03*
X167500D02*
D03*
X728500Y761177D02*
D03*
Y736177D02*
D03*
X747500D02*
D03*
D78*
X70000Y371180D02*
D03*
Y391180D02*
D03*
X90000Y431180D02*
D03*
X70000D02*
D03*
X90000Y491180D02*
D03*
X70000D02*
D03*
X90000Y511180D02*
D03*
X70000D02*
D03*
X90000Y371180D02*
D03*
Y391180D02*
D03*
Y411180D02*
D03*
X70000D02*
D03*
X90000Y451180D02*
D03*
X70000D02*
D03*
X90000Y471180D02*
D03*
X70000D02*
D03*
X90000Y531180D02*
D03*
X70000D02*
D03*
X90000Y551180D02*
D03*
X70000D02*
D03*
D79*
X850900Y50800D02*
D03*
X88900Y908100D02*
D03*
X825500D02*
D03*
X50000Y50000D02*
D03*
D80*
X393700Y908100D02*
D03*
X419100Y882700D02*
D03*
X393700D02*
D03*
X419100Y908100D02*
D03*
X393700Y857300D02*
D03*
X419100Y831900D02*
D03*
X393700D02*
D03*
X419100Y857300D02*
D03*
X215900D02*
D03*
Y831900D02*
D03*
X139700D02*
D03*
Y857300D02*
D03*
X165100Y831900D02*
D03*
X241300Y857300D02*
D03*
X292100Y831900D02*
D03*
X266700D02*
D03*
Y857300D02*
D03*
X292100D02*
D03*
X317500Y831900D02*
D03*
X368300D02*
D03*
X342900D02*
D03*
X317500Y857300D02*
D03*
X342900D02*
D03*
X241300Y831900D02*
D03*
X190500Y857300D02*
D03*
Y831900D02*
D03*
X165100Y857300D02*
D03*
X444500D02*
D03*
Y831900D02*
D03*
X368300Y857300D02*
D03*
X469900Y831900D02*
D03*
Y857300D02*
D03*
X495300Y831900D02*
D03*
X647700Y857300D02*
D03*
Y831900D02*
D03*
X596900D02*
D03*
Y857300D02*
D03*
X622300Y831900D02*
D03*
X673100D02*
D03*
Y857300D02*
D03*
X571500Y831900D02*
D03*
X622300Y857300D02*
D03*
X546100D02*
D03*
X698500Y831900D02*
D03*
X571500Y857300D02*
D03*
X723900D02*
D03*
X749300Y831900D02*
D03*
Y857300D02*
D03*
X774700Y831900D02*
D03*
X698500Y857300D02*
D03*
X723900Y831900D02*
D03*
X546100D02*
D03*
X520700Y857300D02*
D03*
Y831900D02*
D03*
X495300Y857300D02*
D03*
X139700Y882700D02*
D03*
Y908100D02*
D03*
X165100Y882700D02*
D03*
X241300Y908100D02*
D03*
X292100Y882700D02*
D03*
X266700D02*
D03*
Y908100D02*
D03*
X292100D02*
D03*
X317500Y882700D02*
D03*
X368300D02*
D03*
X342900D02*
D03*
X317500Y908100D02*
D03*
X342900D02*
D03*
X241300Y882700D02*
D03*
X190500Y908100D02*
D03*
X215900Y882700D02*
D03*
Y908100D02*
D03*
X190500Y882700D02*
D03*
X165100Y908100D02*
D03*
X444500D02*
D03*
Y882700D02*
D03*
X368300Y908100D02*
D03*
X469900Y882700D02*
D03*
Y908100D02*
D03*
X495300Y882700D02*
D03*
X647700Y908100D02*
D03*
Y882700D02*
D03*
X596900D02*
D03*
Y908100D02*
D03*
X622300Y882700D02*
D03*
X673100D02*
D03*
Y908100D02*
D03*
X571500Y882700D02*
D03*
X622300Y908100D02*
D03*
X546100D02*
D03*
X698500Y882700D02*
D03*
X571500Y908100D02*
D03*
X723900D02*
D03*
X749300Y882700D02*
D03*
Y908100D02*
D03*
X774700Y882700D02*
D03*
X698500Y908100D02*
D03*
X723900Y882700D02*
D03*
X546100D02*
D03*
X520700Y908100D02*
D03*
Y882700D02*
D03*
X495300Y908100D02*
D03*
D81*
X763500Y76650D02*
D03*
X753350Y152850D02*
D03*
X773650D02*
D03*
D82*
X738100Y76650D02*
D03*
Y133800D02*
D03*
X788900Y76650D02*
D03*
Y133800D02*
D03*
D83*
X774700Y857300D02*
D03*
Y908100D02*
D03*
D84*
X867160Y34536D02*
D03*
X834640D02*
D03*
Y67063D02*
D03*
X867160D02*
D03*
X850900Y73800D02*
D03*
X827900Y50800D02*
D03*
X850900Y27800D02*
D03*
X873900Y50800D02*
D03*
X105160Y891836D02*
D03*
X72640D02*
D03*
Y924363D02*
D03*
X105160D02*
D03*
X88900Y931100D02*
D03*
X65900Y908100D02*
D03*
X88900Y885100D02*
D03*
X111900Y908100D02*
D03*
X841760Y891836D02*
D03*
X809240D02*
D03*
Y924363D02*
D03*
X841760D02*
D03*
X825500Y931100D02*
D03*
X802500Y908100D02*
D03*
X825500Y885100D02*
D03*
X848500Y908100D02*
D03*
X66260Y33737D02*
D03*
X33740D02*
D03*
Y66263D02*
D03*
X66260D02*
D03*
X50000Y73000D02*
D03*
X27000Y50000D02*
D03*
X50000Y27000D02*
D03*
X73000Y50000D02*
D03*
D119*
X316500Y389500D02*
D03*
X295500D02*
D03*
D120*
X347000Y358000D02*
D03*
Y353000D02*
D03*
X501000Y258000D02*
D03*
X347000Y348000D02*
D03*
Y298000D02*
D03*
Y318000D02*
D03*
X501000Y268000D02*
D03*
Y253000D02*
D03*
X347000Y343000D02*
D03*
Y303000D02*
D03*
Y278000D02*
D03*
Y268000D02*
D03*
Y253000D02*
D03*
Y258000D02*
D03*
Y263000D02*
D03*
Y273000D02*
D03*
Y283000D02*
D03*
Y288000D02*
D03*
Y293000D02*
D03*
Y308000D02*
D03*
Y313000D02*
D03*
Y323000D02*
D03*
Y328000D02*
D03*
Y333000D02*
D03*
Y338000D02*
D03*
Y363000D02*
D03*
Y368000D02*
D03*
Y373000D02*
D03*
X501000D02*
D03*
Y368000D02*
D03*
Y363000D02*
D03*
Y358000D02*
D03*
Y353000D02*
D03*
Y348000D02*
D03*
Y343000D02*
D03*
Y338000D02*
D03*
Y333000D02*
D03*
Y328000D02*
D03*
Y323000D02*
D03*
Y318000D02*
D03*
Y313000D02*
D03*
Y308000D02*
D03*
Y303000D02*
D03*
Y298000D02*
D03*
Y293000D02*
D03*
Y288000D02*
D03*
Y283000D02*
D03*
Y278000D02*
D03*
Y273000D02*
D03*
Y263000D02*
D03*
D121*
X767500Y388250D02*
D03*
X742500Y398250D02*
D03*
Y378250D02*
D03*
D122*
X80000Y235000D02*
D03*
X46000D02*
D03*
X80000Y180000D02*
D03*
X46000D02*
D03*
D123*
X567950Y381650D02*
D03*
Y394350D02*
D03*
Y368950D02*
D03*
Y407050D02*
D03*
X620050D02*
D03*
Y368950D02*
D03*
Y394350D02*
D03*
Y381650D02*
D03*
D124*
X273732Y310250D02*
D03*
X250732Y292750D02*
D03*
X273732D02*
D03*
X250732Y310250D02*
D03*
D125*
X369000Y236000D02*
D03*
Y390000D02*
D03*
X484000Y236000D02*
D03*
X374000Y390000D02*
D03*
X364000Y236000D02*
D03*
X484000Y390000D02*
D03*
X364000D02*
D03*
X379000D02*
D03*
X384000D02*
D03*
X389000D02*
D03*
X394000D02*
D03*
X399000D02*
D03*
X404000D02*
D03*
X409000D02*
D03*
X414000D02*
D03*
X419000D02*
D03*
X424000D02*
D03*
X429000D02*
D03*
X434000D02*
D03*
X439000D02*
D03*
X444000D02*
D03*
X449000D02*
D03*
X454000D02*
D03*
X459000D02*
D03*
X464000D02*
D03*
X469000D02*
D03*
X474000D02*
D03*
X479000D02*
D03*
Y236000D02*
D03*
X474000D02*
D03*
X469000D02*
D03*
X464000D02*
D03*
X459000D02*
D03*
X454000D02*
D03*
X449000D02*
D03*
X444000D02*
D03*
X439000D02*
D03*
X434000D02*
D03*
X429000D02*
D03*
X424000D02*
D03*
X419000D02*
D03*
X414000D02*
D03*
X409000D02*
D03*
X404000D02*
D03*
X399000D02*
D03*
X394000D02*
D03*
X389000D02*
D03*
X384000D02*
D03*
X379000D02*
D03*
X374000D02*
D03*
D126*
X257164Y266250D02*
D03*
Y241250D02*
D03*
D127*
X638250Y375500D02*
D03*
X683750D02*
D03*
X638250Y400500D02*
D03*
X683750D02*
D03*
M02*
