M48
;Layer_Color=9474304
;FILE_FORMAT=4:4
METRIC,LZ
;TYPE=PLATED
T01F00S00C0.3000
T03F00S00C0.7000
T04F00S00C0.8000
T05F00S00C3.2000
%
T01
X0083374Y00033737
X0085Y00027
X0086626Y00033737
X00873Y0005
X0086626Y00066263
X0085Y00073
X0083374Y00066263
X00827Y0005
X00692113Y0024274
X0069885Y00259
X00692113Y0027526
X0067585Y00282
X00659586Y0027526
X0065285Y00259
X00659586Y0024274
X0067585Y00236
X00467113Y0024274
X0047385Y00259
X00467113Y0027526
X0045085Y00282
X00434586Y0027526
X0042785Y00259
X00434586Y0024274
X0045085Y00236
X00443Y00145
X00433
Y00135
Y00125
X00443
Y00135
Y00115
X00433
Y00105
X00443
X00423
Y00115
X00413
Y00105
Y00125
X00423
Y00135
Y00145
X00413
Y00135
X00242113Y0024274
X0024885Y00259
X00242113Y0027526
X0022585Y00282
X00209587Y0027526
X0020285Y00259
X00209587Y0024274
X0022585Y00236
X0006626Y00066263
X0005Y00073
X0003374Y00066263
X00027Y0005
X0003374Y00033737
X0005Y00027
X0006626Y00033737
X00073Y0005
X0023375Y0036225
Y0037225
X0024375
Y0038225
X0023375
Y0039225
X0024375
Y0040225
Y0041225
X0023375
Y0040225
X0023Y00446
X0024
X0022
Y00495
X0023
X0024
X00239Y00516
X00249
Y00526
X00259
X00269
X00239
Y0053575
Y0054625
Y005565
Y005665
X00249Y0056675
X0028075Y00584
X0028094Y00599033
X00292Y00588
X00293141Y00470438
X00229Y00526
X0022585Y006565
X00209587Y0066324
X0020285Y006795
X0024885
X00242113Y0066324
X00165Y0065
X00155
Y0064
X00165
X00145
Y0065
X00135
Y0064
X00125
Y0065
X00115
Y0064
X00105
X00095
Y0065
X00105
X00085
X00075
X00065
Y0064
X00075
X00085
X0024375Y0036225
X0035775Y00378
X0036775
Y00388
X0035775
Y00398
X0036775
Y00408
X0035775
Y00418
X0036775
X00369Y0046
X0037306Y00465076
X00374279Y0047146
X00370727Y00477103
X0035775Y0049175
X00356Y00506
X00354Y00523
X0035Y00545
Y00555
X0036
Y00565
Y00575
Y00585
X0035
Y00575
Y00565
X0036Y00545
X00325532Y005325
X00314Y00527
X0032417Y00514341
X00324947Y00499749
X00334547Y00499183
X00333047Y00506874
X0032875Y0047799
X00322672
Y0046301
X0032875
X003375Y0046375
Y0047075
Y0047775
X00332436Y00441959
X00325848Y0044373
X00303Y00436
X00417Y00486
X0041Y004975
Y00375
X00391Y00297
X00503Y00413
X0053225Y00388
X00575Y00405
X00603Y0039925
X00605Y00336
X00680566Y00350975
X00687Y00447
X00688137Y00494716
X00644736Y00425651
X00562Y00457
X00523Y00539
X0056743Y00607177
X00659586Y0066324
X0065285Y006795
X0067585Y006565
X00467113Y0066324
X0047385Y006795
X0045085Y006565
X00434586Y0066324
X0042785Y006795
X0069885
X00692113Y0066324
X00732258Y00677277
X0083721Y00638195
X0082Y00575
X0081
Y00565
X008
Y00575
X0079Y00575
X0078
Y00565
X0077
Y00555
X0076Y00555
X0076Y00545
Y00535
X0077
Y00525
X0078
X0079
Y00535
X0078
Y00545
X0079
X008
X0081
X0082
Y00555
X0081
X008Y00555
X0079Y00555
X0078
X0077Y00545
X0075
Y00535
Y00525
X0076
X008
Y00535
X0081
Y00525
X0082
Y00535
X0082Y00565
X0079
X00805952Y00482642
X00774346Y00454023
X00774397Y00434702
X00780397Y00416782
X00766Y0039
X00721374Y00369725
X00715Y00371
X00706095Y00435238
X00697Y00428
X00749Y00462
X00757Y00468
X00734295Y00480671
X00758215Y00699225
X00692113Y0069576
X00814516Y00770839
X00814438Y00777339
X008255Y008851
X0084176Y00891836
X008485Y009081
X0084176Y00924363
X008255Y009311
X0080924Y00924363
X008025Y009081
X0080924Y00891836
X0067585Y007025
X00659586Y0069576
X00467113
X0045085Y007025
X00434586Y0069576
X00242113
X0022585Y007025
X00209587Y0069576
X00051Y00696
X0007264Y00891836
X000889Y008851
X0010516Y00891836
X001119Y009081
X0010516Y00924363
X000889Y009311
X0007264Y00924363
X000659Y009081
T03
X004525Y004175
Y004475
Y005
Y0053
T04
X0007Y00371175
X0009
Y00391175
X0007
Y00411175
X0009
Y00431175
Y00451175
X0007
Y00431175
Y00471175
Y00491175
X0009
Y00471175
Y00511175
X0007
Y00531175
X0009
Y00551175
X0007
T05
X0085Y0005
X0067585Y002595
X0045085
X0022585
X0005Y0005
X0022585Y0068
X0045085
X0067585
X008255Y009081
X000889
M30
