G04*
G04 #@! TF.GenerationSoftware,Altium Limited,Altium Designer,26.2.0 (7)*
G04*
G04 Layer_Color=16711935*
%FSLAX44Y44*%
%MOMM*%
G71*
G04*
G04 #@! TF.SameCoordinates,EA956771-2BF4-40C0-8823-A7A71366CA27*
G04*
G04*
G04 #@! TF.FilePolarity,Positive*
G04*
G01*
G75*
%ADD10C,0.2000*%
%ADD11C,0.3000*%
%ADD13C,0.2540*%
%ADD14C,0.1000*%
%ADD15C,0.1270*%
%ADD16C,0.1524*%
%ADD115C,0.0500*%
G36*
X396507Y334398D02*
X396623Y334387D01*
X396750Y334366D01*
X396898Y334345D01*
X397056Y334313D01*
X397225Y334281D01*
X397405Y334229D01*
X397584Y334165D01*
X397764Y334091D01*
X397944Y334007D01*
X398123Y333912D01*
X398292Y333795D01*
X398461Y333669D01*
X398472Y333658D01*
X398493Y333637D01*
X398535Y333595D01*
X398588Y333531D01*
X398662Y333457D01*
X398736Y333373D01*
X398810Y333267D01*
X398895Y333140D01*
X398979Y333013D01*
X399064Y332865D01*
X399138Y332696D01*
X399212Y332527D01*
X399286Y332337D01*
X399338Y332136D01*
X399381Y331915D01*
X399412Y331693D01*
X398155Y331598D01*
Y331608D01*
X398144Y331640D01*
X398134Y331682D01*
X398123Y331745D01*
X398113Y331819D01*
X398081Y331915D01*
X398028Y332115D01*
X397944Y332337D01*
X397827Y332570D01*
X397690Y332781D01*
X397606Y332876D01*
X397521Y332971D01*
X397510D01*
X397500Y332992D01*
X397468Y333013D01*
X397426Y333045D01*
X397320Y333119D01*
X397172Y333193D01*
X396993Y333278D01*
X396782Y333352D01*
X396549Y333404D01*
X396422Y333415D01*
X396285Y333425D01*
X396200D01*
X396137Y333415D01*
X396063Y333404D01*
X395978Y333394D01*
X395778Y333341D01*
X395545Y333267D01*
X395429Y333214D01*
X395302Y333151D01*
X395175Y333077D01*
X395059Y332992D01*
X394943Y332897D01*
X394827Y332781D01*
X394816Y332770D01*
X394805Y332749D01*
X394774Y332718D01*
X394732Y332665D01*
X394689Y332591D01*
X394636Y332517D01*
X394584Y332422D01*
X394520Y332316D01*
X394467Y332200D01*
X394415Y332073D01*
X394362Y331925D01*
X394319Y331777D01*
X394277Y331608D01*
X394245Y331428D01*
X394235Y331249D01*
X394224Y331048D01*
Y331037D01*
Y331006D01*
Y330953D01*
X394235Y330879D01*
X394245Y330794D01*
X394256Y330689D01*
X394277Y330583D01*
X394298Y330456D01*
X394362Y330203D01*
X394467Y329928D01*
X394531Y329801D01*
X394615Y329674D01*
X394700Y329548D01*
X394805Y329431D01*
X394816Y329421D01*
X394827Y329410D01*
X394869Y329379D01*
X394911Y329336D01*
X394964Y329294D01*
X395038Y329241D01*
X395112Y329188D01*
X395207Y329125D01*
X395313Y329072D01*
X395418Y329019D01*
X395682Y328924D01*
X395820Y328882D01*
X395978Y328850D01*
X396137Y328840D01*
X396306Y328829D01*
X396401D01*
X396517Y328840D01*
X396655Y328861D01*
X396824Y328893D01*
X397003Y328945D01*
X397183Y329009D01*
X397363Y329104D01*
X397384Y329114D01*
X397437Y329146D01*
X397521Y329210D01*
X397627Y329283D01*
X397732Y329389D01*
X397859Y329505D01*
X397976Y329643D01*
X398081Y329791D01*
X399201Y329632D01*
X398261Y324624D01*
X393411D01*
Y325765D01*
X397310D01*
X397827Y328385D01*
X397817Y328375D01*
X397785Y328354D01*
X397743Y328332D01*
X397680Y328290D01*
X397595Y328248D01*
X397500Y328195D01*
X397394Y328132D01*
X397267Y328079D01*
X397141Y328026D01*
X396993Y327963D01*
X396686Y327868D01*
X396517Y327825D01*
X396348Y327794D01*
X396169Y327783D01*
X395989Y327772D01*
X395936D01*
X395862Y327783D01*
X395778D01*
X395672Y327804D01*
X395545Y327815D01*
X395397Y327846D01*
X395249Y327878D01*
X395080Y327931D01*
X394911Y327984D01*
X394732Y328058D01*
X394552Y328142D01*
X394372Y328248D01*
X394193Y328364D01*
X394013Y328502D01*
X393844Y328660D01*
X393833Y328671D01*
X393802Y328702D01*
X393759Y328755D01*
X393707Y328819D01*
X393633Y328903D01*
X393559Y329019D01*
X393485Y329136D01*
X393400Y329273D01*
X393316Y329431D01*
X393242Y329611D01*
X393157Y329791D01*
X393094Y330002D01*
X393041Y330213D01*
X392999Y330446D01*
X392967Y330689D01*
X392956Y330942D01*
Y330953D01*
Y331006D01*
Y331069D01*
X392967Y331164D01*
X392977Y331281D01*
X392999Y331407D01*
X393020Y331555D01*
X393051Y331724D01*
X393094Y331893D01*
X393147Y332084D01*
X393210Y332274D01*
X393284Y332464D01*
X393368Y332654D01*
X393474Y332855D01*
X393590Y333045D01*
X393728Y333225D01*
X393738Y333235D01*
X393770Y333278D01*
X393823Y333330D01*
X393897Y333404D01*
X393992Y333499D01*
X394108Y333595D01*
X394245Y333711D01*
X394404Y333816D01*
X394573Y333922D01*
X394763Y334038D01*
X394975Y334133D01*
X395207Y334218D01*
X395450Y334303D01*
X395714Y334355D01*
X395989Y334398D01*
X396285Y334408D01*
X396412D01*
X396507Y334398D01*
D02*
G37*
G36*
X400913Y334979D02*
X400976Y334958D01*
X401050Y334926D01*
X401145Y334884D01*
X401262Y334841D01*
X401388Y334778D01*
X401526Y334704D01*
X401674Y334630D01*
X401843Y334546D01*
X402191Y334345D01*
X402572Y334102D01*
X402963Y333816D01*
X402973Y333827D01*
X403016Y333838D01*
X403069Y333869D01*
X403153Y333912D01*
X403259Y333954D01*
X403375Y334007D01*
X403512Y334059D01*
X403671Y334112D01*
X403840Y334165D01*
X404030Y334218D01*
X404220Y334271D01*
X404431Y334313D01*
X404886Y334387D01*
X405118Y334398D01*
X405361Y334408D01*
X405488D01*
X405583Y334398D01*
X405700Y334387D01*
X405837Y334376D01*
X405985Y334355D01*
X406154Y334324D01*
X406334Y334292D01*
X406524Y334250D01*
X406724Y334197D01*
X406925Y334144D01*
X407136Y334070D01*
X407348Y333986D01*
X407559Y333890D01*
X407760Y333774D01*
X407771Y333764D01*
X407802Y333742D01*
X407866Y333711D01*
X407940Y333658D01*
X408024Y333595D01*
X408130Y333510D01*
X408246Y333415D01*
X408373Y333309D01*
X408500Y333193D01*
X408637Y333056D01*
X408774Y332908D01*
X408912Y332749D01*
X409049Y332580D01*
X409176Y332401D01*
X409303Y332200D01*
X409419Y331988D01*
X409429Y331978D01*
X409440Y331936D01*
X409472Y331872D01*
X409514Y331788D01*
X409556Y331671D01*
X409599Y331545D01*
X409651Y331397D01*
X409704Y331228D01*
X409768Y331037D01*
X409820Y330837D01*
X409863Y330625D01*
X409905Y330393D01*
X409947Y330160D01*
X409979Y329907D01*
X409990Y329643D01*
X410000Y329379D01*
Y329357D01*
Y329315D01*
Y329241D01*
X409990Y329136D01*
X409979Y329009D01*
X409968Y328861D01*
X409947Y328692D01*
X409926Y328502D01*
X409894Y328311D01*
X409863Y328100D01*
X409757Y327656D01*
X409683Y327434D01*
X409609Y327202D01*
X409524Y326969D01*
X409419Y326748D01*
X409408Y326737D01*
X409387Y326695D01*
X409356Y326631D01*
X409313Y326557D01*
X409250Y326452D01*
X409176Y326335D01*
X409091Y326219D01*
X408996Y326082D01*
X408880Y325934D01*
X408753Y325786D01*
X408626Y325638D01*
X408479Y325490D01*
X408309Y325342D01*
X408140Y325205D01*
X407961Y325067D01*
X407760Y324951D01*
X407749Y324941D01*
X407707Y324920D01*
X407654Y324898D01*
X407570Y324856D01*
X407464Y324803D01*
X407348Y324751D01*
X407200Y324698D01*
X407052Y324634D01*
X406872Y324581D01*
X406693Y324529D01*
X406492Y324476D01*
X406270Y324423D01*
X406048Y324381D01*
X405816Y324360D01*
X405573Y324338D01*
X405330Y324328D01*
X405203D01*
X405108Y324338D01*
X404981Y324349D01*
X404844Y324360D01*
X404696Y324381D01*
X404527Y324412D01*
X404336Y324444D01*
X404146Y324486D01*
X403946Y324539D01*
X403734Y324603D01*
X403523Y324677D01*
X403312Y324761D01*
X403111Y324856D01*
X402899Y324972D01*
X402889Y324983D01*
X402847Y325004D01*
X402794Y325036D01*
X402720Y325089D01*
X402625Y325152D01*
X402530Y325237D01*
X402413Y325332D01*
X402286Y325437D01*
X402149Y325564D01*
X402012Y325691D01*
X401875Y325839D01*
X401737Y325997D01*
X401610Y326177D01*
X401473Y326357D01*
X401357Y326557D01*
X401241Y326769D01*
X401230Y326779D01*
X401219Y326822D01*
X401188Y326885D01*
X401156Y326969D01*
X401103Y327075D01*
X401061Y327212D01*
X401008Y327360D01*
X400955Y327529D01*
X400902Y327709D01*
X400849Y327910D01*
X400797Y328121D01*
X400754Y328354D01*
X400723Y328586D01*
X400691Y328840D01*
X400681Y329104D01*
X400670Y329368D01*
Y329379D01*
Y329421D01*
Y329484D01*
X400681Y329569D01*
Y329674D01*
X400691Y329801D01*
X400702Y329939D01*
X400712Y330087D01*
X400733Y330256D01*
X400765Y330425D01*
X400828Y330794D01*
X400913Y331164D01*
X401040Y331534D01*
Y331545D01*
X401061Y331576D01*
X401082Y331629D01*
X401114Y331693D01*
X401145Y331777D01*
X401198Y331872D01*
X401251Y331988D01*
X401314Y332105D01*
X401473Y332369D01*
X401663Y332644D01*
X401885Y332929D01*
X402149Y333204D01*
X402139Y333214D01*
X402107Y333235D01*
X402065Y333267D01*
X401991Y333309D01*
X401917Y333352D01*
X401822Y333415D01*
X401716Y333478D01*
X401600Y333552D01*
X401346Y333700D01*
X401061Y333848D01*
X400765Y333996D01*
X400480Y334112D01*
X400871Y335000D01*
X400881D01*
X400913Y334979D01*
D02*
G37*
G36*
X473117Y329184D02*
X474438D01*
Y328085D01*
X473117D01*
Y325750D01*
X471923D01*
Y328085D01*
X467675D01*
Y329184D01*
X472135Y335503D01*
X473117D01*
Y329184D01*
D02*
G37*
G36*
X462392Y335662D02*
X462519Y335651D01*
X462656Y335640D01*
X462804Y335619D01*
X462973Y335588D01*
X463164Y335556D01*
X463354Y335514D01*
X463554Y335461D01*
X463766Y335397D01*
X463977Y335323D01*
X464188Y335239D01*
X464389Y335144D01*
X464601Y335028D01*
X464611Y335017D01*
X464654Y334996D01*
X464706Y334964D01*
X464780Y334911D01*
X464875Y334848D01*
X464970Y334763D01*
X465087Y334668D01*
X465214Y334563D01*
X465351Y334436D01*
X465488Y334309D01*
X465626Y334161D01*
X465763Y334003D01*
X465890Y333823D01*
X466027Y333643D01*
X466143Y333443D01*
X466259Y333231D01*
X466270Y333221D01*
X466281Y333178D01*
X466312Y333115D01*
X466344Y333031D01*
X466397Y332925D01*
X466439Y332787D01*
X466492Y332640D01*
X466545Y332471D01*
X466598Y332291D01*
X466651Y332090D01*
X466703Y331879D01*
X466746Y331646D01*
X466777Y331414D01*
X466809Y331160D01*
X466820Y330896D01*
X466830Y330632D01*
Y330621D01*
Y330579D01*
Y330516D01*
X466820Y330431D01*
Y330326D01*
X466809Y330199D01*
X466798Y330061D01*
X466788Y329913D01*
X466767Y329744D01*
X466735Y329575D01*
X466672Y329205D01*
X466587Y328836D01*
X466460Y328466D01*
Y328455D01*
X466439Y328424D01*
X466418Y328371D01*
X466386Y328307D01*
X466355Y328223D01*
X466302Y328128D01*
X466249Y328011D01*
X466186Y327895D01*
X466027Y327631D01*
X465837Y327356D01*
X465615Y327071D01*
X465351Y326796D01*
X465361Y326786D01*
X465393Y326765D01*
X465435Y326733D01*
X465509Y326691D01*
X465583Y326648D01*
X465678Y326585D01*
X465784Y326522D01*
X465900Y326448D01*
X466154Y326300D01*
X466439Y326152D01*
X466735Y326004D01*
X467020Y325888D01*
X466629Y325000D01*
X466619D01*
X466587Y325021D01*
X466524Y325042D01*
X466450Y325074D01*
X466355Y325116D01*
X466238Y325159D01*
X466112Y325222D01*
X465974Y325296D01*
X465826Y325370D01*
X465657Y325454D01*
X465309Y325655D01*
X464928Y325898D01*
X464537Y326183D01*
X464527Y326173D01*
X464484Y326162D01*
X464432Y326131D01*
X464347Y326088D01*
X464241Y326046D01*
X464125Y325993D01*
X463988Y325940D01*
X463829Y325888D01*
X463660Y325835D01*
X463470Y325782D01*
X463280Y325729D01*
X463069Y325687D01*
X462614Y325613D01*
X462382Y325602D01*
X462139Y325592D01*
X462012D01*
X461917Y325602D01*
X461800Y325613D01*
X461663Y325623D01*
X461515Y325645D01*
X461346Y325676D01*
X461166Y325708D01*
X460976Y325750D01*
X460776Y325803D01*
X460575Y325856D01*
X460364Y325930D01*
X460152Y326014D01*
X459941Y326110D01*
X459740Y326226D01*
X459729Y326236D01*
X459698Y326257D01*
X459634Y326289D01*
X459560Y326342D01*
X459476Y326405D01*
X459370Y326490D01*
X459254Y326585D01*
X459127Y326691D01*
X459000Y326807D01*
X458863Y326944D01*
X458726Y327092D01*
X458588Y327251D01*
X458451Y327420D01*
X458324Y327599D01*
X458197Y327800D01*
X458081Y328011D01*
X458071Y328022D01*
X458060Y328064D01*
X458028Y328128D01*
X457986Y328212D01*
X457944Y328328D01*
X457901Y328455D01*
X457849Y328603D01*
X457796Y328772D01*
X457733Y328962D01*
X457680Y329163D01*
X457637Y329375D01*
X457595Y329607D01*
X457553Y329839D01*
X457521Y330093D01*
X457511Y330357D01*
X457500Y330621D01*
Y330643D01*
Y330685D01*
Y330759D01*
X457511Y330864D01*
X457521Y330991D01*
X457532Y331139D01*
X457553Y331308D01*
X457574Y331498D01*
X457606Y331688D01*
X457637Y331900D01*
X457743Y332344D01*
X457817Y332566D01*
X457891Y332798D01*
X457976Y333031D01*
X458081Y333252D01*
X458092Y333263D01*
X458113Y333305D01*
X458144Y333369D01*
X458187Y333443D01*
X458250Y333548D01*
X458324Y333665D01*
X458409Y333781D01*
X458504Y333918D01*
X458620Y334066D01*
X458747Y334214D01*
X458874Y334362D01*
X459022Y334510D01*
X459191Y334658D01*
X459360Y334795D01*
X459539Y334932D01*
X459740Y335049D01*
X459751Y335059D01*
X459793Y335080D01*
X459846Y335102D01*
X459930Y335144D01*
X460036Y335197D01*
X460152Y335249D01*
X460300Y335302D01*
X460448Y335366D01*
X460628Y335419D01*
X460807Y335471D01*
X461008Y335524D01*
X461230Y335577D01*
X461452Y335619D01*
X461684Y335640D01*
X461927Y335662D01*
X462170Y335672D01*
X462297D01*
X462392Y335662D01*
D02*
G37*
G36*
X776864Y734711D02*
X776991D01*
X777146Y734697D01*
X777316Y734683D01*
X777499Y734654D01*
X777908Y734584D01*
X778345Y734485D01*
X778810Y734344D01*
X779261Y734147D01*
X779275Y734133D01*
X779317Y734119D01*
X779374Y734091D01*
X779458Y734034D01*
X779557Y733978D01*
X779670Y733907D01*
X779938Y733710D01*
X780219Y733484D01*
X780516Y733188D01*
X780812Y732864D01*
X781065Y732484D01*
X781079Y732469D01*
X781094Y732427D01*
X781122Y732371D01*
X781164Y732286D01*
X781206Y732188D01*
X781263Y732075D01*
X781319Y731934D01*
X781376Y731779D01*
X781432Y731595D01*
X781488Y731412D01*
X781587Y731003D01*
X781657Y730552D01*
X781686Y730313D01*
Y729932D01*
X781672Y729833D01*
Y729706D01*
X781657Y729580D01*
X781629Y729410D01*
X781601Y729241D01*
X781531Y728875D01*
X781418Y728452D01*
X781249Y728043D01*
X781150Y727831D01*
X781037Y727620D01*
X781023Y727606D01*
X781009Y727578D01*
X780967Y727521D01*
X780924Y727437D01*
X780854Y727352D01*
X780769Y727240D01*
X780572Y727000D01*
X780318Y726746D01*
X780008Y726464D01*
X779641Y726196D01*
X779233Y725971D01*
X779219D01*
X779176Y725943D01*
X779120Y725914D01*
X779035Y725886D01*
X778923Y725830D01*
X778796Y725788D01*
X778641Y725731D01*
X778472Y725675D01*
X778288Y725632D01*
X778091Y725576D01*
X777879Y725520D01*
X777654Y725477D01*
X777160Y725421D01*
X776639Y725393D01*
X776625D01*
X776582D01*
X776526D01*
X776441D01*
X776329Y725407D01*
X776202D01*
X776061Y725421D01*
X775920Y725435D01*
X775582Y725477D01*
X775215Y725548D01*
X774834Y725632D01*
X774468Y725759D01*
X774454D01*
X774426Y725773D01*
X774369Y725802D01*
X774313Y725830D01*
X774228Y725872D01*
X774130Y725914D01*
X773904Y726027D01*
X773636Y726182D01*
X773354Y726379D01*
X773072Y726605D01*
X772790Y726859D01*
Y726845D01*
X772762Y726817D01*
X772734Y726774D01*
X772692Y726704D01*
X772635Y726633D01*
X772579Y726535D01*
X772452Y726323D01*
X772297Y726069D01*
X772142Y725788D01*
X772015Y725491D01*
X771888Y725210D01*
X771000Y725590D01*
Y725604D01*
X771014Y725632D01*
X771042Y725689D01*
X771070Y725773D01*
X771113Y725872D01*
X771169Y725985D01*
X771226Y726112D01*
X771296Y726253D01*
X771465Y726563D01*
X771663Y726915D01*
X771916Y727296D01*
X772198Y727691D01*
Y727705D01*
X772170Y727733D01*
X772142Y727803D01*
X772100Y727874D01*
X772057Y727987D01*
X772001Y728099D01*
X771959Y728240D01*
X771902Y728395D01*
X771846Y728565D01*
X771789Y728748D01*
X771691Y729157D01*
X771620Y729608D01*
X771606Y729847D01*
X771592Y730087D01*
Y730214D01*
X771606Y730313D01*
Y730425D01*
X771620Y730566D01*
X771648Y730721D01*
X771677Y730891D01*
X771747Y731257D01*
X771860Y731666D01*
X772015Y732089D01*
X772114Y732286D01*
X772226Y732498D01*
X772241Y732512D01*
X772255Y732540D01*
X772297Y732596D01*
X772339Y732667D01*
X772410Y732766D01*
X772494Y732864D01*
X772692Y733104D01*
X772945Y733372D01*
X773256Y733640D01*
X773608Y733907D01*
X774017Y734147D01*
X774031D01*
X774073Y734175D01*
X774130Y734203D01*
X774214Y734232D01*
X774327Y734274D01*
X774454Y734330D01*
X774609Y734387D01*
X774778Y734429D01*
X774961Y734485D01*
X775159Y734542D01*
X775370Y734584D01*
X775610Y734640D01*
X776103Y734697D01*
X776625Y734725D01*
X776639D01*
X776695D01*
X776766D01*
X776864Y734711D01*
D02*
G37*
G36*
X779106Y723222D02*
X779134Y723194D01*
X779148Y723137D01*
X779190Y723067D01*
X779233Y722982D01*
X779289Y722884D01*
X779430Y722644D01*
X779585Y722362D01*
X779782Y722080D01*
X780008Y721784D01*
X780248Y721488D01*
X780262Y721474D01*
X780276Y721460D01*
X780318Y721417D01*
X780360Y721361D01*
X780501Y721234D01*
X780671Y721065D01*
X780868Y720896D01*
X781094Y720713D01*
X781319Y720557D01*
X781559Y720416D01*
Y719641D01*
X771761D01*
Y720839D01*
X779388D01*
X779374Y720854D01*
X779317Y720924D01*
X779233Y721009D01*
X779134Y721150D01*
X779007Y721305D01*
X778866Y721502D01*
X778711Y721728D01*
X778556Y721981D01*
Y721995D01*
X778542Y722010D01*
X778486Y722094D01*
X778415Y722235D01*
X778331Y722404D01*
X778232Y722602D01*
X778133Y722813D01*
X778035Y723025D01*
X777950Y723236D01*
X779106D01*
Y723222D01*
D02*
G37*
G36*
X777321Y637959D02*
X777405D01*
X777631Y637916D01*
X777899Y637874D01*
X778181Y637804D01*
X778491Y637705D01*
X778787Y637564D01*
X778801D01*
X778815Y637550D01*
X778857Y637522D01*
X778914Y637494D01*
X779055Y637409D01*
X779238Y637282D01*
X779435Y637127D01*
X779633Y636944D01*
X779830Y636718D01*
X779999Y636479D01*
Y636464D01*
X780013Y636450D01*
X780041Y636408D01*
X780055Y636352D01*
X780126Y636211D01*
X780197Y636027D01*
X780281Y635788D01*
X780337Y635520D01*
X780394Y635224D01*
X780408Y634900D01*
Y634829D01*
X780394Y634759D01*
Y634646D01*
X780380Y634519D01*
X780351Y634378D01*
X780309Y634209D01*
X780267Y634040D01*
X780211Y633842D01*
X780140Y633645D01*
X780055Y633448D01*
X779943Y633236D01*
X779816Y633039D01*
X779675Y632841D01*
X779506Y632644D01*
X779308Y632461D01*
X779294Y632447D01*
X779252Y632419D01*
X779196Y632376D01*
X779097Y632320D01*
X778970Y632235D01*
X778829Y632165D01*
X778646Y632080D01*
X778448Y631996D01*
X778209Y631897D01*
X777941Y631812D01*
X777645Y631742D01*
X777321Y631671D01*
X776954Y631601D01*
X776559Y631559D01*
X776136Y631530D01*
X775685Y631516D01*
X775671D01*
X775657D01*
X775615D01*
X775558D01*
X775418Y631530D01*
X775220D01*
X774995Y631544D01*
X774727Y631573D01*
X774431Y631601D01*
X774107Y631643D01*
X773782Y631700D01*
X773430Y631770D01*
X773092Y631855D01*
X772753Y631953D01*
X772429Y632080D01*
X772119Y632221D01*
X771823Y632376D01*
X771569Y632560D01*
X771555Y632574D01*
X771527Y632602D01*
X771470Y632658D01*
X771386Y632729D01*
X771301Y632813D01*
X771217Y632926D01*
X771104Y633067D01*
X771005Y633208D01*
X770907Y633377D01*
X770794Y633560D01*
X770709Y633772D01*
X770611Y633983D01*
X770540Y634223D01*
X770484Y634477D01*
X770455Y634745D01*
X770441Y635027D01*
Y635139D01*
X770455Y635224D01*
Y635322D01*
X770470Y635435D01*
X770526Y635703D01*
X770596Y635999D01*
X770709Y636309D01*
X770878Y636619D01*
X770977Y636774D01*
X771090Y636916D01*
X771104Y636930D01*
X771118Y636944D01*
X771160Y636986D01*
X771203Y637028D01*
X771273Y637099D01*
X771358Y637155D01*
X771555Y637310D01*
X771809Y637465D01*
X772119Y637606D01*
X772471Y637733D01*
X772866Y637818D01*
X772965Y636619D01*
X772951D01*
X772936Y636605D01*
X772852Y636591D01*
X772725Y636549D01*
X772570Y636493D01*
X772401Y636436D01*
X772232Y636352D01*
X772077Y636253D01*
X771950Y636154D01*
X771921Y636126D01*
X771865Y636070D01*
X771780Y635971D01*
X771682Y635830D01*
X771597Y635647D01*
X771513Y635449D01*
X771456Y635210D01*
X771428Y634956D01*
Y634857D01*
X771442Y634745D01*
X771470Y634618D01*
X771513Y634449D01*
X771569Y634279D01*
X771640Y634110D01*
X771752Y633941D01*
X771767Y633913D01*
X771823Y633842D01*
X771921Y633744D01*
X772063Y633617D01*
X772232Y633476D01*
X772429Y633321D01*
X772683Y633180D01*
X772965Y633039D01*
X772979D01*
X773007Y633025D01*
X773049Y633011D01*
X773106Y632982D01*
X773190Y632968D01*
X773289Y632940D01*
X773402Y632912D01*
X773543Y632884D01*
X773698Y632841D01*
X773867Y632813D01*
X774050Y632785D01*
X774248Y632771D01*
X774473Y632743D01*
X774699Y632729D01*
X774952Y632715D01*
X775206D01*
X775192Y632729D01*
X775107Y632785D01*
X774995Y632884D01*
X774854Y633011D01*
X774685Y633152D01*
X774529Y633335D01*
X774374Y633532D01*
X774233Y633758D01*
Y633772D01*
X774219Y633786D01*
X774177Y633871D01*
X774135Y633997D01*
X774064Y634167D01*
X774008Y634364D01*
X773966Y634590D01*
X773923Y634829D01*
X773909Y635083D01*
Y635196D01*
X773923Y635280D01*
X773937Y635393D01*
X773951Y635506D01*
X773980Y635647D01*
X774022Y635788D01*
X774121Y636112D01*
X774191Y636281D01*
X774290Y636450D01*
X774389Y636619D01*
X774501Y636803D01*
X774642Y636972D01*
X774797Y637127D01*
X774811Y637141D01*
X774840Y637169D01*
X774882Y637211D01*
X774952Y637254D01*
X775051Y637324D01*
X775150Y637395D01*
X775277Y637465D01*
X775418Y637550D01*
X775573Y637634D01*
X775742Y637705D01*
X775939Y637775D01*
X776136Y637846D01*
X776348Y637888D01*
X776588Y637930D01*
X776827Y637959D01*
X777081Y637973D01*
X777095D01*
X777123D01*
X777166D01*
X777236D01*
X777321Y637959D01*
D02*
G37*
G36*
X781000Y630135D02*
Y630121D01*
X780986Y630093D01*
X780958Y630036D01*
X780929Y629952D01*
X780887Y629853D01*
X780831Y629740D01*
X780774Y629613D01*
X780704Y629472D01*
X780535Y629162D01*
X780337Y628810D01*
X780084Y628429D01*
X779802Y628034D01*
Y628020D01*
X779830Y627992D01*
X779858Y627922D01*
X779900Y627851D01*
X779943Y627738D01*
X779999Y627626D01*
X780041Y627485D01*
X780098Y627329D01*
X780154Y627160D01*
X780211Y626977D01*
X780309Y626568D01*
X780380Y626117D01*
X780394Y625877D01*
X780408Y625638D01*
Y625511D01*
X780394Y625412D01*
Y625300D01*
X780380Y625159D01*
X780351Y625004D01*
X780323Y624834D01*
X780253Y624468D01*
X780140Y624059D01*
X779985Y623636D01*
X779886Y623439D01*
X779773Y623227D01*
X779760Y623213D01*
X779745Y623185D01*
X779703Y623129D01*
X779661Y623058D01*
X779590Y622960D01*
X779506Y622861D01*
X779308Y622621D01*
X779055Y622353D01*
X778745Y622085D01*
X778392Y621818D01*
X777983Y621578D01*
X777969D01*
X777927Y621550D01*
X777870Y621522D01*
X777786Y621493D01*
X777673Y621451D01*
X777546Y621395D01*
X777391Y621338D01*
X777222Y621296D01*
X777039Y621240D01*
X776841Y621183D01*
X776630Y621141D01*
X776390Y621085D01*
X775897Y621028D01*
X775375Y621000D01*
X775361D01*
X775305D01*
X775234D01*
X775136Y621014D01*
X775009D01*
X774854Y621028D01*
X774685Y621042D01*
X774501Y621071D01*
X774092Y621141D01*
X773655Y621240D01*
X773190Y621381D01*
X772739Y621578D01*
X772725Y621592D01*
X772683Y621606D01*
X772626Y621634D01*
X772542Y621691D01*
X772443Y621747D01*
X772330Y621818D01*
X772063Y622015D01*
X771780Y622240D01*
X771485Y622537D01*
X771189Y622861D01*
X770935Y623241D01*
X770921Y623256D01*
X770907Y623298D01*
X770878Y623354D01*
X770836Y623439D01*
X770794Y623537D01*
X770737Y623650D01*
X770681Y623791D01*
X770625Y623946D01*
X770568Y624129D01*
X770512Y624313D01*
X770413Y624722D01*
X770343Y625173D01*
X770314Y625412D01*
Y625793D01*
X770329Y625892D01*
Y626018D01*
X770343Y626145D01*
X770371Y626315D01*
X770399Y626484D01*
X770470Y626850D01*
X770582Y627273D01*
X770751Y627682D01*
X770850Y627893D01*
X770963Y628105D01*
X770977Y628119D01*
X770991Y628147D01*
X771033Y628204D01*
X771076Y628288D01*
X771146Y628373D01*
X771231Y628485D01*
X771428Y628725D01*
X771682Y628979D01*
X771992Y629261D01*
X772358Y629529D01*
X772767Y629754D01*
X772781D01*
X772824Y629782D01*
X772880Y629811D01*
X772965Y629839D01*
X773077Y629895D01*
X773204Y629938D01*
X773359Y629994D01*
X773529Y630050D01*
X773712Y630093D01*
X773909Y630149D01*
X774121Y630205D01*
X774346Y630248D01*
X774840Y630304D01*
X775361Y630332D01*
X775375D01*
X775418D01*
X775474D01*
X775558D01*
X775671Y630318D01*
X775798D01*
X775939Y630304D01*
X776080Y630290D01*
X776419Y630248D01*
X776785Y630177D01*
X777166Y630093D01*
X777532Y629966D01*
X777546D01*
X777574Y629952D01*
X777631Y629923D01*
X777687Y629895D01*
X777772Y629853D01*
X777870Y629811D01*
X778096Y629698D01*
X778364Y629543D01*
X778646Y629345D01*
X778928Y629120D01*
X779210Y628866D01*
Y628880D01*
X779238Y628908D01*
X779266Y628951D01*
X779308Y629021D01*
X779365Y629092D01*
X779421Y629190D01*
X779548Y629402D01*
X779703Y629655D01*
X779858Y629938D01*
X779985Y630233D01*
X780112Y630516D01*
X781000Y630135D01*
D02*
G37*
%LPC*%
G36*
X405330Y333309D02*
X405213D01*
X405150Y333299D01*
X405076D01*
X404907Y333278D01*
X404706Y333246D01*
X404484Y333204D01*
X404252Y333140D01*
X404019Y333056D01*
X404030D01*
X404051Y333035D01*
X404083Y333013D01*
X404125Y332992D01*
X404178Y332961D01*
X404252Y332918D01*
X404410Y332834D01*
X404601Y332749D01*
X404812Y332654D01*
X405055Y332570D01*
X405298Y332496D01*
X404991Y331555D01*
X404981D01*
X404939Y331566D01*
X404886Y331587D01*
X404801Y331619D01*
X404706Y331650D01*
X404601Y331693D01*
X404474Y331735D01*
X404336Y331788D01*
X404051Y331925D01*
X403734Y332084D01*
X403428Y332274D01*
X403142Y332485D01*
X403132Y332475D01*
X403090Y332432D01*
X403037Y332379D01*
X402963Y332295D01*
X402878Y332179D01*
X402783Y332052D01*
X402677Y331893D01*
X402572Y331703D01*
X402466Y331502D01*
X402360Y331270D01*
X402265Y331016D01*
X402181Y330731D01*
X402107Y330425D01*
X402054Y330097D01*
X402012Y329748D01*
X402001Y329368D01*
Y329357D01*
Y329315D01*
Y329252D01*
X402012Y329167D01*
Y329062D01*
X402022Y328945D01*
X402033Y328808D01*
X402054Y328671D01*
X402096Y328343D01*
X402170Y327994D01*
X402276Y327646D01*
X402413Y327308D01*
Y327297D01*
X402435Y327265D01*
X402456Y327223D01*
X402487Y327160D01*
X402530Y327086D01*
X402582Y327001D01*
X402709Y326800D01*
X402878Y326578D01*
X403079Y326357D01*
X403312Y326135D01*
X403586Y325934D01*
X403597Y325923D01*
X403618Y325913D01*
X403660Y325892D01*
X403724Y325860D01*
X403797Y325818D01*
X403882Y325775D01*
X403977Y325733D01*
X404093Y325680D01*
X404220Y325638D01*
X404347Y325596D01*
X404643Y325511D01*
X404970Y325458D01*
X405150Y325437D01*
X405393D01*
X405467Y325448D01*
X405573D01*
X405689Y325469D01*
X405837Y325490D01*
X405995Y325522D01*
X406164Y325564D01*
X406355Y325617D01*
X406545Y325680D01*
X406746Y325765D01*
X406946Y325860D01*
X407147Y325966D01*
X407337Y326103D01*
X407538Y326251D01*
X407718Y326431D01*
X407728Y326441D01*
X407760Y326473D01*
X407802Y326536D01*
X407866Y326610D01*
X407940Y326716D01*
X408013Y326843D01*
X408109Y326991D01*
X408193Y327170D01*
X408278Y327360D01*
X408362Y327582D01*
X408447Y327825D01*
X408521Y328089D01*
X408584Y328375D01*
X408626Y328692D01*
X408658Y329019D01*
X408669Y329379D01*
Y329400D01*
Y329463D01*
X408658Y329558D01*
Y329696D01*
X408637Y329854D01*
X408616Y330034D01*
X408595Y330234D01*
X408552Y330456D01*
X408500Y330689D01*
X408436Y330921D01*
X408362Y331164D01*
X408267Y331407D01*
X408162Y331650D01*
X408035Y331883D01*
X407897Y332094D01*
X407728Y332295D01*
X407718Y332305D01*
X407686Y332337D01*
X407633Y332390D01*
X407559Y332453D01*
X407464Y332527D01*
X407358Y332612D01*
X407221Y332707D01*
X407073Y332802D01*
X406915Y332897D01*
X406724Y332992D01*
X406534Y333077D01*
X406323Y333151D01*
X406091Y333214D01*
X405847Y333267D01*
X405594Y333299D01*
X405330Y333309D01*
D02*
G37*
G36*
X471923Y333580D02*
X468848Y329184D01*
X471923D01*
Y333580D01*
D02*
G37*
G36*
X462350Y334563D02*
X462107D01*
X462033Y334552D01*
X461927D01*
X461811Y334531D01*
X461663Y334510D01*
X461505Y334478D01*
X461336Y334436D01*
X461145Y334383D01*
X460955Y334320D01*
X460755Y334235D01*
X460554Y334140D01*
X460353Y334034D01*
X460163Y333897D01*
X459962Y333749D01*
X459782Y333569D01*
X459772Y333559D01*
X459740Y333527D01*
X459698Y333464D01*
X459634Y333390D01*
X459560Y333284D01*
X459487Y333157D01*
X459391Y333009D01*
X459307Y332830D01*
X459222Y332640D01*
X459138Y332418D01*
X459053Y332175D01*
X458979Y331910D01*
X458916Y331625D01*
X458874Y331308D01*
X458842Y330981D01*
X458831Y330621D01*
Y330600D01*
Y330537D01*
X458842Y330442D01*
Y330304D01*
X458863Y330146D01*
X458884Y329966D01*
X458905Y329766D01*
X458948Y329544D01*
X459000Y329311D01*
X459064Y329079D01*
X459138Y328836D01*
X459233Y328593D01*
X459339Y328350D01*
X459465Y328117D01*
X459603Y327906D01*
X459772Y327705D01*
X459782Y327694D01*
X459814Y327663D01*
X459867Y327610D01*
X459941Y327547D01*
X460036Y327472D01*
X460142Y327388D01*
X460279Y327293D01*
X460427Y327198D01*
X460585Y327103D01*
X460776Y327008D01*
X460966Y326923D01*
X461177Y326849D01*
X461410Y326786D01*
X461653Y326733D01*
X461906Y326701D01*
X462170Y326691D01*
X462287D01*
X462350Y326701D01*
X462424D01*
X462593Y326722D01*
X462794Y326754D01*
X463016Y326796D01*
X463248Y326860D01*
X463481Y326944D01*
X463470D01*
X463449Y326965D01*
X463417Y326987D01*
X463375Y327008D01*
X463322Y327039D01*
X463248Y327082D01*
X463090Y327166D01*
X462899Y327251D01*
X462688Y327346D01*
X462445Y327430D01*
X462202Y327504D01*
X462509Y328445D01*
X462519D01*
X462561Y328434D01*
X462614Y328413D01*
X462699Y328381D01*
X462794Y328350D01*
X462899Y328307D01*
X463026Y328265D01*
X463164Y328212D01*
X463449Y328075D01*
X463766Y327916D01*
X464072Y327726D01*
X464358Y327515D01*
X464368Y327525D01*
X464410Y327568D01*
X464463Y327621D01*
X464537Y327705D01*
X464622Y327821D01*
X464717Y327948D01*
X464823Y328106D01*
X464928Y328297D01*
X465034Y328498D01*
X465140Y328730D01*
X465235Y328983D01*
X465319Y329269D01*
X465393Y329575D01*
X465446Y329903D01*
X465488Y330252D01*
X465499Y330632D01*
Y330643D01*
Y330685D01*
Y330748D01*
X465488Y330833D01*
Y330938D01*
X465478Y331055D01*
X465467Y331192D01*
X465446Y331329D01*
X465404Y331657D01*
X465330Y332006D01*
X465224Y332354D01*
X465087Y332692D01*
Y332703D01*
X465065Y332735D01*
X465044Y332777D01*
X465013Y332840D01*
X464970Y332914D01*
X464918Y332999D01*
X464791Y333200D01*
X464622Y333421D01*
X464421Y333643D01*
X464188Y333865D01*
X463914Y334066D01*
X463903Y334076D01*
X463882Y334087D01*
X463840Y334108D01*
X463776Y334140D01*
X463703Y334182D01*
X463618Y334225D01*
X463523Y334267D01*
X463407Y334320D01*
X463280Y334362D01*
X463153Y334404D01*
X462857Y334489D01*
X462530Y334542D01*
X462350Y334563D01*
D02*
G37*
G36*
X776625Y733400D02*
X776597D01*
X776540D01*
X776441D01*
X776315Y733386D01*
X776160Y733372D01*
X775976Y733344D01*
X775765Y733315D01*
X775553Y733287D01*
X775074Y733174D01*
X774834Y733104D01*
X774595Y733005D01*
X774355Y732906D01*
X774130Y732780D01*
X773904Y732639D01*
X773707Y732469D01*
X773693Y732455D01*
X773664Y732427D01*
X773608Y732371D01*
X773552Y732300D01*
X773467Y732202D01*
X773382Y732089D01*
X773298Y731962D01*
X773199Y731807D01*
X773101Y731652D01*
X773016Y731469D01*
X772931Y731271D01*
X772847Y731060D01*
X772790Y730820D01*
X772734Y730581D01*
X772706Y730327D01*
X772692Y730059D01*
Y729932D01*
X772706Y729805D01*
X772720Y729636D01*
X772748Y729425D01*
X772804Y729213D01*
X772861Y728973D01*
X772945Y728748D01*
X772960Y728776D01*
X773016Y728847D01*
X773086Y728973D01*
X773171Y729128D01*
X773256Y729326D01*
X773354Y729537D01*
X773439Y729777D01*
X773509Y730031D01*
X774440Y729706D01*
Y729692D01*
X774426Y729650D01*
X774411Y729594D01*
X774383Y729523D01*
X774355Y729425D01*
X774313Y729312D01*
X774214Y729058D01*
X774073Y728762D01*
X773918Y728452D01*
X773735Y728156D01*
X773509Y727860D01*
X773523Y727846D01*
X773552Y727803D01*
X773622Y727747D01*
X773707Y727676D01*
X773820Y727592D01*
X773946Y727493D01*
X774101Y727394D01*
X774285Y727282D01*
X774496Y727183D01*
X774736Y727084D01*
X774989Y726986D01*
X775257Y726901D01*
X775567Y726817D01*
X775892Y726760D01*
X776244Y726732D01*
X776625Y726718D01*
X776639D01*
X776681D01*
X776738D01*
X776822D01*
X776935Y726732D01*
X777048D01*
X777189Y726746D01*
X777330Y726774D01*
X777654Y726817D01*
X778006Y726887D01*
X778359Y726986D01*
X778697Y727127D01*
X778711D01*
X778739Y727141D01*
X778782Y727169D01*
X778838Y727197D01*
X779007Y727296D01*
X779204Y727423D01*
X779430Y727592D01*
X779656Y727803D01*
X779881Y728043D01*
X780079Y728311D01*
Y728325D01*
X780107Y728339D01*
X780121Y728381D01*
X780163Y728452D01*
X780191Y728522D01*
X780234Y728607D01*
X780332Y728818D01*
X780417Y729072D01*
X780501Y729368D01*
X780558Y729706D01*
X780572Y730059D01*
Y730200D01*
X780558Y730298D01*
X780544Y730425D01*
X780516Y730566D01*
X780487Y730721D01*
X780445Y730891D01*
X780389Y731088D01*
X780332Y731271D01*
X780248Y731469D01*
X780149Y731680D01*
X780036Y731877D01*
X779895Y732075D01*
X779754Y732272D01*
X779571Y732455D01*
X779557Y732469D01*
X779529Y732498D01*
X779472Y732540D01*
X779388Y732596D01*
X779289Y732681D01*
X779162Y732751D01*
X779007Y732836D01*
X778838Y732921D01*
X778641Y733019D01*
X778415Y733104D01*
X778175Y733174D01*
X777908Y733245D01*
X777626Y733315D01*
X777316Y733358D01*
X776977Y733386D01*
X776625Y733400D01*
D02*
G37*
G36*
X777151Y636746D02*
X777137D01*
X777109D01*
X777053D01*
X776982Y636732D01*
X776898D01*
X776799Y636718D01*
X776573Y636676D01*
X776320Y636619D01*
X776052Y636521D01*
X775798Y636380D01*
X775558Y636197D01*
X775530Y636168D01*
X775460Y636098D01*
X775375Y635985D01*
X775263Y635830D01*
X775150Y635633D01*
X775065Y635407D01*
X774995Y635139D01*
X774967Y634843D01*
Y634759D01*
X774981Y634702D01*
X774995Y634561D01*
X775037Y634364D01*
X775107Y634152D01*
X775220Y633913D01*
X775361Y633687D01*
X775558Y633462D01*
X775587Y633433D01*
X775657Y633377D01*
X775784Y633279D01*
X775967Y633180D01*
X776179Y633081D01*
X776447Y632982D01*
X776743Y632926D01*
X777081Y632898D01*
X777109D01*
X777180D01*
X777307Y632912D01*
X777462Y632926D01*
X777645Y632954D01*
X777842Y633011D01*
X778054Y633067D01*
X778265Y633152D01*
X778293Y633166D01*
X778364Y633208D01*
X778463Y633264D01*
X778589Y633349D01*
X778716Y633448D01*
X778871Y633574D01*
X778998Y633716D01*
X779125Y633885D01*
X779139Y633913D01*
X779167Y633969D01*
X779224Y634068D01*
X779266Y634195D01*
X779322Y634336D01*
X779379Y634505D01*
X779407Y634688D01*
X779421Y634885D01*
Y634956D01*
X779407Y635012D01*
X779393Y635153D01*
X779351Y635337D01*
X779266Y635534D01*
X779167Y635760D01*
X779012Y635985D01*
X778928Y636098D01*
X778815Y636197D01*
X778801D01*
X778787Y636225D01*
X778702Y636281D01*
X778561Y636366D01*
X778378Y636479D01*
X778138Y636577D01*
X777856Y636662D01*
X777532Y636718D01*
X777151Y636746D01*
D02*
G37*
G36*
X775375Y629007D02*
X775361D01*
X775319D01*
X775263D01*
X775178D01*
X775065Y628993D01*
X774952D01*
X774811Y628979D01*
X774670Y628951D01*
X774346Y628908D01*
X773994Y628838D01*
X773641Y628739D01*
X773303Y628598D01*
X773289D01*
X773261Y628584D01*
X773218Y628556D01*
X773162Y628528D01*
X772993Y628429D01*
X772795Y628302D01*
X772570Y628133D01*
X772344Y627922D01*
X772119Y627682D01*
X771921Y627414D01*
Y627400D01*
X771893Y627386D01*
X771879Y627344D01*
X771837Y627273D01*
X771809Y627203D01*
X771767Y627118D01*
X771668Y626907D01*
X771583Y626653D01*
X771499Y626357D01*
X771442Y626018D01*
X771428Y625666D01*
Y625525D01*
X771442Y625426D01*
X771456Y625300D01*
X771485Y625159D01*
X771513Y625004D01*
X771555Y624834D01*
X771611Y624637D01*
X771668Y624454D01*
X771752Y624256D01*
X771851Y624045D01*
X771964Y623848D01*
X772105Y623650D01*
X772246Y623453D01*
X772429Y623270D01*
X772443Y623256D01*
X772471Y623227D01*
X772528Y623185D01*
X772612Y623129D01*
X772711Y623044D01*
X772838Y622974D01*
X772993Y622889D01*
X773162Y622804D01*
X773359Y622706D01*
X773585Y622621D01*
X773825Y622551D01*
X774092Y622480D01*
X774374Y622410D01*
X774685Y622367D01*
X775023Y622339D01*
X775375Y622325D01*
X775404D01*
X775460D01*
X775558D01*
X775685Y622339D01*
X775841Y622353D01*
X776024Y622382D01*
X776235Y622410D01*
X776447Y622438D01*
X776926Y622551D01*
X777166Y622621D01*
X777405Y622720D01*
X777645Y622818D01*
X777870Y622945D01*
X778096Y623086D01*
X778293Y623256D01*
X778307Y623270D01*
X778336Y623298D01*
X778392Y623354D01*
X778448Y623425D01*
X778533Y623523D01*
X778618Y623636D01*
X778702Y623763D01*
X778801Y623918D01*
X778900Y624073D01*
X778984Y624256D01*
X779069Y624454D01*
X779153Y624665D01*
X779210Y624905D01*
X779266Y625145D01*
X779294Y625398D01*
X779308Y625666D01*
Y625793D01*
X779294Y625920D01*
X779280Y626089D01*
X779252Y626300D01*
X779196Y626512D01*
X779139Y626752D01*
X779055Y626977D01*
X779041Y626949D01*
X778984Y626878D01*
X778914Y626752D01*
X778829Y626596D01*
X778745Y626399D01*
X778646Y626188D01*
X778561Y625948D01*
X778491Y625694D01*
X777560Y626018D01*
Y626033D01*
X777574Y626075D01*
X777589Y626131D01*
X777617Y626202D01*
X777645Y626300D01*
X777687Y626413D01*
X777786Y626667D01*
X777927Y626963D01*
X778082Y627273D01*
X778265Y627569D01*
X778491Y627865D01*
X778477Y627879D01*
X778448Y627922D01*
X778378Y627978D01*
X778293Y628049D01*
X778181Y628133D01*
X778054Y628232D01*
X777899Y628330D01*
X777715Y628443D01*
X777504Y628542D01*
X777264Y628641D01*
X777010Y628739D01*
X776743Y628824D01*
X776433Y628908D01*
X776108Y628965D01*
X775756Y628993D01*
X775375Y629007D01*
D02*
G37*
%LPD*%
D10*
X803800Y817700D02*
G03*
X803800Y817700I-1000J0D01*
G01*
X434275Y310950D02*
G03*
X434275Y310950I-1000J0D01*
G01*
X435225Y349050D02*
G03*
X435225Y349050I-1000J0D01*
G01*
X655000Y481000D02*
G03*
X655000Y481000I-1000J0D01*
G01*
X313450Y454250D02*
G03*
X313450Y454250I-700J0D01*
G01*
X796050Y758000D02*
G03*
X796050Y758000I-1000J0D01*
G01*
X757950Y597725D02*
G03*
X757950Y597725I-1000J0D01*
G01*
X765750Y432000D02*
Y441000D01*
X750000Y432000D02*
Y441000D01*
Y432000D02*
X765750D01*
X750000Y441000D02*
X765750D01*
X63000Y689750D02*
Y702250D01*
X83000Y689750D02*
Y702250D01*
X63000D02*
X83000D01*
X63000Y689750D02*
X83000D01*
X83751Y673497D02*
Y682497D01*
X68001Y673497D02*
Y682497D01*
Y673497D02*
X83751D01*
X68001Y682497D02*
X83751D01*
X728250Y745750D02*
Y761500D01*
X719250Y745750D02*
Y761500D01*
X728250D01*
X719250Y745750D02*
X728250D01*
X677750Y507250D02*
Y516250D01*
X662000Y507250D02*
Y516250D01*
Y507250D02*
X677750D01*
X662000Y516250D02*
X677750D01*
X782500Y483750D02*
X791500D01*
X782500Y468000D02*
X791500D01*
Y483750D01*
X782500Y468000D02*
Y483750D01*
X230000Y625250D02*
X239000D01*
X230000Y609500D02*
X239000D01*
Y625250D01*
X230000Y609500D02*
Y625250D01*
X213500D02*
X222500D01*
X213500Y609500D02*
X222500D01*
Y625250D01*
X213500Y609500D02*
Y625250D01*
X843500Y588500D02*
X852500D01*
X843500Y604250D02*
X852500D01*
X843500Y588500D02*
Y604250D01*
X852500Y588500D02*
Y604250D01*
X735500Y761000D02*
X744500D01*
X735500Y745250D02*
X744500D01*
Y761000D01*
X735500Y745250D02*
Y761000D01*
X626000Y338505D02*
X635000D01*
X626000Y354255D02*
X635000D01*
X626000Y338505D02*
Y354255D01*
X635000Y338505D02*
Y354255D01*
X642000Y338500D02*
X651000D01*
X642000Y354250D02*
X651000D01*
X642000Y338500D02*
Y354250D01*
X651000Y338500D02*
Y354250D01*
X765995Y393750D02*
Y402750D01*
X750245Y393750D02*
Y402750D01*
Y393750D02*
X765995D01*
X750245Y402750D02*
X765995D01*
X827625Y603979D02*
X836625D01*
X827625Y588229D02*
X836625D01*
Y603979D01*
X827625Y588229D02*
Y603979D01*
X827500Y634156D02*
X836500D01*
X827500Y618406D02*
X836500D01*
Y634156D01*
X827500Y618406D02*
Y634156D01*
X571500Y369500D02*
Y378500D01*
X587250Y369500D02*
Y378500D01*
X571500D02*
X587250D01*
X571500Y369500D02*
X587250D01*
X571250Y420000D02*
Y429000D01*
X587000Y420000D02*
Y429000D01*
X571250D02*
X587000D01*
X571250Y420000D02*
X587000D01*
X571750Y452500D02*
Y461500D01*
X587500Y452500D02*
Y461500D01*
X571750D02*
X587500D01*
X571750Y452500D02*
X587500D01*
X572000Y517500D02*
Y526500D01*
X587750Y517500D02*
Y526500D01*
X572000D02*
X587750D01*
X572000Y517500D02*
X587750D01*
X571255Y485000D02*
Y494000D01*
X587005Y485000D02*
Y494000D01*
X571255D02*
X587005D01*
X571255Y485000D02*
X587005D01*
X498505Y364625D02*
X514255D01*
X498505Y373625D02*
X514255D01*
Y364625D02*
Y373625D01*
X498505Y364625D02*
Y373625D01*
X520755Y381625D02*
Y394125D01*
X500755Y381625D02*
Y394125D01*
Y381625D02*
X520755D01*
X500755Y394125D02*
X520755D01*
X262519Y537906D02*
X275019D01*
X262519Y557906D02*
X275019D01*
X262519Y537906D02*
Y557906D01*
X275019Y537906D02*
Y557906D01*
X219500Y539000D02*
X232000D01*
X219500Y559000D02*
X232000D01*
X219500Y539000D02*
Y559000D01*
X232000Y539000D02*
Y559000D01*
X255000Y625000D02*
X264000D01*
X255000Y609250D02*
X264000D01*
Y625000D01*
X255000Y609250D02*
Y625000D01*
X271250Y609250D02*
Y625000D01*
X280250Y609250D02*
Y625000D01*
X271250Y609250D02*
X280250D01*
X271250Y625000D02*
X280250D01*
X253671Y537862D02*
Y553612D01*
X244671Y537862D02*
Y553612D01*
X253671D01*
X244671Y537862D02*
X253671D01*
X402995Y435500D02*
Y444500D01*
X387245Y435500D02*
Y444500D01*
Y435500D02*
X402995D01*
X387245Y444500D02*
X402995D01*
D11*
X112000Y551175D02*
G03*
X112000Y551175I-1000J0D01*
G01*
D13*
X269250Y599750D02*
G03*
X269250Y599750I-250J0D01*
G01*
D14*
X822000Y511925D02*
X874000D01*
X822000Y410425D02*
Y511925D01*
Y410425D02*
X874000D01*
Y511925D01*
X419500Y304250D02*
Y355750D01*
X360500D02*
X419500D01*
X360500Y304250D02*
Y355750D01*
Y304250D02*
X419500D01*
X560005Y600750D02*
Y613250D01*
X540005Y600750D02*
Y613250D01*
Y600750D02*
X560005D01*
X540005Y613250D02*
X560005D01*
X448000Y304250D02*
Y355750D01*
Y304250D02*
X507000D01*
Y355750D01*
X448000D02*
X507000D01*
X750000Y450000D02*
Y458000D01*
X766000D01*
Y450000D02*
Y458000D01*
X750000Y450000D02*
X766000D01*
X663500Y491250D02*
Y499250D01*
X679500D01*
Y491250D02*
Y499250D01*
X663500Y491250D02*
X679500D01*
X599000Y391000D02*
X607000D01*
Y375000D02*
Y391000D01*
X599000Y375000D02*
X607000D01*
X599000D02*
Y391000D01*
Y423500D02*
X607000D01*
Y407500D02*
Y423500D01*
X599000Y407500D02*
X607000D01*
X599000D02*
Y423500D01*
Y456000D02*
X607000D01*
Y440000D02*
Y456000D01*
X599000Y440000D02*
X607000D01*
X599000D02*
Y456000D01*
Y488500D02*
X607000D01*
Y472500D02*
Y488500D01*
X599000Y472500D02*
X607000D01*
X599000D02*
Y488500D01*
X599708Y519735D02*
X607708D01*
Y503735D02*
Y519735D01*
X599708Y503735D02*
X607708D01*
X599708D02*
Y519735D01*
X395850Y928000D02*
X410850D01*
X490850D02*
X505850D01*
X490850Y900000D02*
X505850D01*
X395850D02*
X410850D01*
X505850D02*
Y928000D01*
X490850D02*
Y932000D01*
X410850Y928000D02*
Y932000D01*
X490850Y890000D02*
Y900000D01*
X395850D02*
Y928000D01*
X410850Y890000D02*
Y900000D01*
Y890000D02*
X490850D01*
X410850Y932000D02*
X490850D01*
X410850Y931750D02*
Y932000D01*
X821500Y600250D02*
Y608750D01*
X807000D02*
X821500D01*
X807000Y590750D02*
Y608750D01*
Y590750D02*
X821500D01*
Y600250D01*
X55000Y619750D02*
X80000D01*
X55000Y587750D02*
Y619750D01*
X80000Y587750D02*
Y619750D01*
X55000Y587750D02*
X80000D01*
X53500Y353175D02*
Y569175D01*
Y353175D02*
X106500D01*
Y569175D01*
X53500D02*
X106500D01*
X349750Y452250D02*
Y490500D01*
X309750D02*
X349750D01*
X309750Y450500D02*
Y490500D01*
Y450500D02*
X349750D01*
Y452250D01*
X306000Y567500D02*
Y592500D01*
Y567500D02*
X338000D01*
X306000Y592500D02*
X338000D01*
Y567500D02*
Y592500D01*
X772000Y410250D02*
Y422750D01*
X752000Y410250D02*
Y422750D01*
Y410250D02*
X772000D01*
X752000Y422750D02*
X772000D01*
X244500Y590000D02*
Y595250D01*
X264500D01*
Y575250D02*
Y595250D01*
X244500Y575250D02*
X264500D01*
X244500D02*
Y590000D01*
X540005Y618750D02*
Y631250D01*
X560005Y618750D02*
Y631250D01*
X540005D02*
X560005D01*
X540005Y618750D02*
X560005D01*
X178750Y587750D02*
X203750D01*
Y619750D01*
X178750Y587750D02*
Y619750D01*
X203750D01*
X658750Y353000D02*
X666750D01*
Y337000D02*
Y353000D01*
X658750Y337000D02*
X666750D01*
X658750D02*
Y353000D01*
X610250Y337000D02*
X618250D01*
X610250D02*
Y353000D01*
X618250D01*
Y337000D02*
Y353000D01*
X646250Y366250D02*
Y374250D01*
X630250Y366250D02*
X646250D01*
X630250D02*
Y374250D01*
X646250D01*
X465750Y499750D02*
X478250D01*
X465750Y519750D02*
X478250D01*
X465750Y499750D02*
Y519750D01*
X478250Y499750D02*
Y519750D01*
X750250Y744225D02*
X801750D01*
X750250Y685225D02*
Y744225D01*
Y685225D02*
X801750D01*
Y744225D01*
X750250Y611500D02*
X801750D01*
Y670500D01*
X750250D02*
X801750D01*
X750250Y611500D02*
Y670500D01*
X455000Y515000D02*
Y537500D01*
X452500D02*
X455000D01*
Y492500D02*
Y515000D01*
X452500Y492500D02*
X455000D01*
X450000Y515000D02*
Y537500D01*
X452500D01*
X450000Y492500D02*
Y515000D01*
Y492500D02*
X452500D01*
X338000Y536500D02*
Y561500D01*
X306000D02*
X338000D01*
X306000Y536500D02*
X338000D01*
X306000D02*
Y561500D01*
X312920Y505460D02*
X323080D01*
Y510540D01*
X312920D02*
X323080D01*
X312920Y505460D02*
Y510540D01*
X388500Y461500D02*
X404500D01*
X388500Y453500D02*
Y461500D01*
Y453500D02*
X404500D01*
Y461500D01*
X387600Y27000D02*
X514100D01*
X387600D02*
Y79000D01*
X514100D01*
Y27000D02*
Y79000D01*
X340116Y503460D02*
X350276D01*
Y508540D01*
X340116D02*
X350276D01*
X340116Y503460D02*
Y508540D01*
X327420Y422460D02*
X337580D01*
Y427540D01*
X327420D02*
X337580D01*
X327420Y422460D02*
Y427540D01*
X290460Y476420D02*
Y486580D01*
Y476420D02*
X295540D01*
Y486580D01*
X290460D02*
X295540D01*
Y454420D02*
Y464580D01*
X290460D02*
X295540D01*
X290460Y454420D02*
Y464580D01*
Y454420D02*
X295540D01*
X255750Y415750D02*
Y440750D01*
Y415750D02*
X287750D01*
X255750Y440750D02*
X287750D01*
Y415750D02*
Y440750D01*
X147750Y619750D02*
X172750D01*
X147750Y587750D02*
Y619750D01*
X172750Y587750D02*
Y619750D01*
X147750Y587750D02*
X172750D01*
X116750Y619750D02*
X141750D01*
X116750Y587750D02*
Y619750D01*
X141750Y587750D02*
Y619750D01*
X116750Y587750D02*
X141750D01*
X85750Y619750D02*
X110750D01*
X85750Y587750D02*
Y619750D01*
X110750Y587750D02*
Y619750D01*
X85750Y587750D02*
X110750D01*
X255750Y384750D02*
Y409750D01*
Y384750D02*
X287750D01*
X255750Y409750D02*
X287750D01*
Y384750D02*
Y409750D01*
Y353750D02*
Y378750D01*
X255750D02*
X287750D01*
X255750Y353750D02*
X287750D01*
X255750D02*
Y378750D01*
X314000Y362500D02*
Y387500D01*
Y362500D02*
X346000D01*
X314000Y387500D02*
X346000D01*
Y362500D02*
Y387500D01*
X314000Y393500D02*
Y418500D01*
Y393500D02*
X346000D01*
X314000Y418500D02*
X346000D01*
Y393500D02*
Y418500D01*
X294012Y496421D02*
Y521421D01*
X262012D02*
X294012D01*
X262012Y496421D02*
X294012D01*
X262012D02*
Y521421D01*
X342196Y516750D02*
Y529250D01*
X362196Y516750D02*
Y529250D01*
X342196D02*
X362196D01*
X342196Y516750D02*
X362196D01*
X468750Y420500D02*
X481250D01*
X468750Y440500D02*
X481250D01*
X468750Y420500D02*
Y440500D01*
X481250Y420500D02*
Y440500D01*
X388250Y501000D02*
Y513500D01*
X408250Y501000D02*
Y513500D01*
X388250D02*
X408250D01*
X388250Y501000D02*
X408250D01*
X424750Y439000D02*
X437250D01*
X424750Y419000D02*
X437250D01*
Y439000D01*
X424750Y419000D02*
Y439000D01*
X408250Y480750D02*
Y493250D01*
X388250Y480750D02*
Y493250D01*
Y480750D02*
X408250D01*
X388250Y493250D02*
X408250D01*
X65250Y697748D02*
Y692750D01*
X67749D01*
X68582Y693583D01*
Y696915D01*
X67749Y697748D01*
X65250D01*
X72748Y692750D02*
Y697748D01*
X70248Y695249D01*
X73581D01*
D15*
X803500Y773250D02*
Y805250D01*
X787500D02*
X803500D01*
X787500Y773250D02*
Y805250D01*
Y773250D02*
X803500D01*
X820500Y624906D02*
Y637906D01*
X811500Y624906D02*
X820500D01*
X811500Y637906D02*
X820500D01*
X811500Y624906D02*
Y637906D01*
X423500Y374500D02*
X436500D01*
Y365500D02*
Y374500D01*
X423500Y365500D02*
Y374500D01*
Y365500D02*
X436500D01*
X135000Y508000D02*
X205000D01*
Y433000D02*
Y508000D01*
X135000Y433000D02*
Y508000D01*
Y433000D02*
X205000D01*
D16*
X716352Y440174D02*
Y443222D01*
Y420616D02*
Y423664D01*
Y405376D02*
Y484624D01*
X671648Y466336D02*
Y469384D01*
Y420616D02*
Y423664D01*
Y405376D02*
X716352D01*
Y466336D02*
Y469384D01*
Y446778D02*
Y449826D01*
X671648Y459732D02*
Y462780D01*
Y440174D02*
Y443222D01*
Y405376D02*
Y484624D01*
X716352Y407662D02*
Y410710D01*
Y427220D02*
Y430268D01*
X671648Y479290D02*
Y482338D01*
X716352Y472686D02*
Y475734D01*
X671648Y414266D02*
Y417314D01*
Y433824D02*
Y436872D01*
Y484624D02*
X690952D01*
X716352Y433824D02*
Y436872D01*
Y453128D02*
Y456176D01*
X671648Y472686D02*
Y475734D01*
Y453128D02*
Y456176D01*
X690952Y484624D02*
X697048D01*
X716352Y414266D02*
Y417314D01*
X697048Y484624D02*
X716352D01*
X671648Y407662D02*
Y410710D01*
X716352Y479290D02*
Y482338D01*
Y459732D02*
Y462780D01*
X671648Y446778D02*
Y449826D01*
Y427220D02*
Y430268D01*
D115*
X761750Y437750D02*
Y435751D01*
X760750D01*
X760417Y436084D01*
Y436750D01*
X760750Y437084D01*
X761750D01*
X761084D02*
X760417Y437750D01*
X759751Y436084D02*
X759417Y435751D01*
X758751D01*
X758418Y436084D01*
Y436417D01*
X758751Y436750D01*
X759084D01*
X758751D01*
X758418Y437084D01*
Y437417D01*
X758751Y437750D01*
X759417D01*
X759751Y437417D01*
X757751Y437750D02*
X757085D01*
X757418D01*
Y435751D01*
X757751Y436084D01*
X79751Y679247D02*
Y677248D01*
X78751D01*
X78418Y677581D01*
Y678248D01*
X78751Y678581D01*
X79751D01*
X79085D02*
X78418Y679247D01*
X77752Y677581D02*
X77418Y677248D01*
X76752D01*
X76419Y677581D01*
Y677914D01*
X76752Y678248D01*
X77085D01*
X76752D01*
X76419Y678581D01*
Y678914D01*
X76752Y679247D01*
X77418D01*
X77752Y678914D01*
X75752Y677248D02*
X74419D01*
Y677581D01*
X75752Y678914D01*
Y679247D01*
X725000Y749750D02*
X723001D01*
Y750750D01*
X723334Y751083D01*
X724000D01*
X724334Y750750D01*
Y749750D01*
Y750416D02*
X725000Y751083D01*
Y753082D02*
Y751749D01*
X723667Y753082D01*
X723334D01*
X723001Y752749D01*
Y752083D01*
X723334Y751749D01*
Y753749D02*
X723001Y754082D01*
Y754748D01*
X723334Y755082D01*
X723667D01*
X724000Y754748D01*
Y754415D01*
Y754748D01*
X724334Y755082D01*
X724667D01*
X725000Y754748D01*
Y754082D01*
X724667Y753749D01*
X673750Y513000D02*
Y511001D01*
X672750D01*
X672417Y511334D01*
Y512000D01*
X672750Y512334D01*
X673750D01*
X673084D02*
X672417Y513000D01*
X671751D02*
X671084D01*
X671417D01*
Y511001D01*
X671751Y511334D01*
X785750Y479750D02*
X787749D01*
Y478750D01*
X787416Y478417D01*
X786750D01*
X786416Y478750D01*
Y479750D01*
Y479084D02*
X785750Y478417D01*
X787416Y477751D02*
X787749Y477417D01*
Y476751D01*
X787416Y476418D01*
X787083D01*
X786750Y476751D01*
Y477084D01*
Y476751D01*
X786416Y476418D01*
X786083D01*
X785750Y476751D01*
Y477417D01*
X786083Y477751D01*
X787749Y474418D02*
X787416Y475085D01*
X786750Y475751D01*
X786083D01*
X785750Y475418D01*
Y474752D01*
X786083Y474418D01*
X786416D01*
X786750Y474752D01*
Y475751D01*
X233250Y621250D02*
X235249D01*
Y620250D01*
X234916Y619917D01*
X234250D01*
X233916Y620250D01*
Y621250D01*
Y620584D02*
X233250Y619917D01*
X234916Y619251D02*
X235249Y618918D01*
Y618251D01*
X234916Y617918D01*
X234583D01*
X234250Y618251D01*
Y618584D01*
Y618251D01*
X233916Y617918D01*
X233583D01*
X233250Y618251D01*
Y618918D01*
X233583Y619251D01*
X234916Y617251D02*
X235249Y616918D01*
Y616252D01*
X234916Y615918D01*
X234583D01*
X234250Y616252D01*
Y616585D01*
Y616252D01*
X233916Y615918D01*
X233583D01*
X233250Y616252D01*
Y616918D01*
X233583Y617251D01*
X216750Y621250D02*
X218749D01*
Y620250D01*
X218416Y619917D01*
X217750D01*
X217416Y620250D01*
Y621250D01*
Y620584D02*
X216750Y619917D01*
X218416Y619251D02*
X218749Y618918D01*
Y618251D01*
X218416Y617918D01*
X218083D01*
X217750Y618251D01*
Y618584D01*
Y618251D01*
X217416Y617918D01*
X217083D01*
X216750Y618251D01*
Y618918D01*
X217083Y619251D01*
X216750Y615918D02*
Y617251D01*
X218083Y615918D01*
X218416D01*
X218749Y616252D01*
Y616918D01*
X218416Y617251D01*
X849250Y592500D02*
X847251D01*
Y593500D01*
X847584Y593833D01*
X848250D01*
X848584Y593500D01*
Y592500D01*
Y593166D02*
X849250Y593833D01*
Y595832D02*
Y594499D01*
X847917Y595832D01*
X847584D01*
X847251Y595499D01*
Y594832D01*
X847584Y594499D01*
X849250Y597498D02*
X847251D01*
X848250Y596499D01*
Y597832D01*
X738750Y757000D02*
X740749D01*
Y756000D01*
X740416Y755667D01*
X739750D01*
X739416Y756000D01*
Y757000D01*
Y756334D02*
X738750Y755667D01*
Y753668D02*
Y755001D01*
X740083Y753668D01*
X740416D01*
X740749Y754001D01*
Y754668D01*
X740416Y755001D01*
X738750Y751668D02*
Y753001D01*
X740083Y751668D01*
X740416D01*
X740749Y752002D01*
Y752668D01*
X740416Y753001D01*
X631750Y342505D02*
X629751D01*
Y343505D01*
X630084Y343838D01*
X630750D01*
X631084Y343505D01*
Y342505D01*
Y343171D02*
X631750Y343838D01*
Y344504D02*
Y345171D01*
Y344838D01*
X629751D01*
X630084Y344504D01*
X631417Y346171D02*
X631750Y346504D01*
Y347170D01*
X631417Y347503D01*
X630084D01*
X629751Y347170D01*
Y346504D01*
X630084Y346171D01*
X630417D01*
X630750Y346504D01*
Y347503D01*
X647750Y342500D02*
X645751D01*
Y343500D01*
X646084Y343833D01*
X646750D01*
X647084Y343500D01*
Y342500D01*
Y343166D02*
X647750Y343833D01*
Y345832D02*
Y344499D01*
X646417Y345832D01*
X646084D01*
X645751Y345499D01*
Y344833D01*
X646084Y344499D01*
X647750Y346499D02*
Y347165D01*
Y346832D01*
X645751D01*
X646084Y346499D01*
X761995Y399500D02*
Y397501D01*
X760995D01*
X760662Y397834D01*
Y398500D01*
X760995Y398834D01*
X761995D01*
X761329D02*
X760662Y399500D01*
X758663D02*
X759996D01*
X758663Y398167D01*
Y397834D01*
X758996Y397501D01*
X759662D01*
X759996Y397834D01*
X757996Y399167D02*
X757663Y399500D01*
X756997D01*
X756663Y399167D01*
Y397834D01*
X756997Y397501D01*
X757663D01*
X757996Y397834D01*
Y398167D01*
X757663Y398500D01*
X756663D01*
X830875Y599979D02*
X832874D01*
Y598979D01*
X832541Y598646D01*
X831874D01*
X831541Y598979D01*
Y599979D01*
Y599313D02*
X830875Y598646D01*
Y596647D02*
Y597980D01*
X832208Y596647D01*
X832541D01*
X832874Y596980D01*
Y597646D01*
X832541Y597980D01*
X832874Y594647D02*
Y595980D01*
X831874D01*
X832208Y595314D01*
Y594981D01*
X831874Y594647D01*
X831208D01*
X830875Y594981D01*
Y595647D01*
X831208Y595980D01*
X830750Y630156D02*
X832749D01*
Y629156D01*
X832416Y628823D01*
X831750D01*
X831416Y629156D01*
Y630156D01*
Y629489D02*
X830750Y628823D01*
Y626824D02*
Y628157D01*
X832083Y626824D01*
X832416D01*
X832749Y627157D01*
Y627823D01*
X832416Y628157D01*
X832749Y624824D02*
X832416Y625491D01*
X831750Y626157D01*
X831083D01*
X830750Y625824D01*
Y625157D01*
X831083Y624824D01*
X831416D01*
X831750Y625157D01*
Y626157D01*
X575500Y372750D02*
Y374749D01*
X576500D01*
X576833Y374416D01*
Y373750D01*
X576500Y373416D01*
X575500D01*
X576166D02*
X576833Y372750D01*
X577499D02*
X578166D01*
X577833D01*
Y374749D01*
X577499Y374416D01*
X579165D02*
X579499Y374749D01*
X580165D01*
X580498Y374416D01*
Y374083D01*
X580165Y373750D01*
X580498Y373416D01*
Y373083D01*
X580165Y372750D01*
X579499D01*
X579165Y373083D01*
Y373416D01*
X579499Y373750D01*
X579165Y374083D01*
Y374416D01*
X579499Y373750D02*
X580165D01*
X575250Y423250D02*
Y425249D01*
X576250D01*
X576583Y424916D01*
Y424250D01*
X576250Y423916D01*
X575250D01*
X575916D02*
X576583Y423250D01*
X577249D02*
X577916D01*
X577583D01*
Y425249D01*
X577249Y424916D01*
X578915Y425249D02*
X580248D01*
Y424916D01*
X578915Y423583D01*
Y423250D01*
X575750Y455750D02*
Y457749D01*
X576750D01*
X577083Y457416D01*
Y456750D01*
X576750Y456416D01*
X575750D01*
X576416D02*
X577083Y455750D01*
X577749D02*
X578416D01*
X578083D01*
Y457749D01*
X577749Y457416D01*
X580748Y457749D02*
X580082Y457416D01*
X579416Y456750D01*
Y456083D01*
X579749Y455750D01*
X580415D01*
X580748Y456083D01*
Y456416D01*
X580415Y456750D01*
X579416D01*
X576000Y520750D02*
Y522749D01*
X577000D01*
X577333Y522416D01*
Y521750D01*
X577000Y521416D01*
X576000D01*
X576666D02*
X577333Y520750D01*
X579332D02*
X577999D01*
X579332Y522083D01*
Y522416D01*
X578999Y522749D01*
X578332D01*
X577999Y522416D01*
X575255Y488250D02*
Y490249D01*
X576255D01*
X576588Y489916D01*
Y489250D01*
X576255Y488916D01*
X575255D01*
X575921D02*
X576588Y488250D01*
X577254D02*
X577921D01*
X577588D01*
Y490249D01*
X577254Y489916D01*
X580253Y490249D02*
X578921D01*
Y489250D01*
X579587Y489583D01*
X579920D01*
X580253Y489250D01*
Y488583D01*
X579920Y488250D01*
X579254D01*
X578921Y488583D01*
X502505Y367875D02*
Y369874D01*
X503505D01*
X503838Y369541D01*
Y368875D01*
X503505Y368541D01*
X502505D01*
X503172D02*
X503838Y367875D01*
X505837Y369874D02*
X505171Y369541D01*
X504504Y368875D01*
Y368208D01*
X504838Y367875D01*
X505504D01*
X505837Y368208D01*
Y368541D01*
X505504Y368875D01*
X504504D01*
X258250Y621000D02*
X260249D01*
Y620000D01*
X259916Y619667D01*
X259250D01*
X258916Y620000D01*
Y621000D01*
Y620334D02*
X258250Y619667D01*
Y618001D02*
X260249D01*
X259250Y619001D01*
Y617668D01*
X274500Y621000D02*
X276499D01*
Y620000D01*
X276166Y619667D01*
X275500D01*
X275166Y620000D01*
Y621000D01*
Y620334D02*
X274500Y619667D01*
X276166Y619001D02*
X276499Y618667D01*
Y618001D01*
X276166Y617668D01*
X275833D01*
X275500Y618001D01*
Y618334D01*
Y618001D01*
X275166Y617668D01*
X274833D01*
X274500Y618001D01*
Y618667D01*
X274833Y619001D01*
X250421Y541862D02*
X248422D01*
Y542862D01*
X248755Y543195D01*
X249421D01*
X249755Y542862D01*
Y541862D01*
Y542529D02*
X250421Y543195D01*
Y543862D02*
Y544528D01*
Y544195D01*
X248422D01*
X248755Y543862D01*
X250421Y546527D02*
X248422D01*
X249421Y545528D01*
Y546861D01*
X398995Y441250D02*
Y439251D01*
X397995D01*
X397662Y439584D01*
Y440250D01*
X397995Y440584D01*
X398995D01*
X398329D02*
X397662Y441250D01*
X395663Y439251D02*
X396996D01*
Y440250D01*
X396329Y439917D01*
X395996D01*
X395663Y440250D01*
Y440917D01*
X395996Y441250D01*
X396662D01*
X396996Y440917D01*
M02*
