G04*
G04 #@! TF.GenerationSoftware,Altium Limited,Altium Designer,26.2.0 (7)*
G04*
G04 Layer_Color=32896*
%FSLAX44Y44*%
%MOMM*%
G71*
G04*
G04 #@! TF.SameCoordinates,705C9359-2560-42EC-9C9A-8D9864D1FE1B*
G04*
G04*
G04 #@! TF.FilePolarity,Positive*
G04*
G01*
G75*
%ADD11C,0.3000*%
%ADD12C,0.1500*%
D11*
X500350Y125000D02*
Y138329D01*
X268686Y125000D02*
Y138329D01*
X262021Y131664D02*
X275350D01*
X50350Y125000D02*
Y138329D01*
X493686Y819000D02*
Y805671D01*
X487021Y812335D02*
X500350D01*
X725350Y819000D02*
Y805671D01*
X275350Y819000D02*
Y805671D01*
X723685Y136500D02*
Y123171D01*
X717021Y129835D02*
X730350D01*
X43686Y819000D02*
Y805671D01*
X37021Y812335D02*
X50350D01*
D12*
X303916Y486084D02*
X304749Y485251D01*
Y483585D01*
X303916Y482752D01*
X300584D01*
X299751Y483585D01*
Y485251D01*
X300584Y486084D01*
X299751Y487750D02*
Y489417D01*
Y488583D01*
X304749D01*
X303916Y487750D01*
Y491916D02*
X304749Y492749D01*
Y494415D01*
X303916Y495248D01*
X303083D01*
X302250Y494415D01*
Y493582D01*
Y494415D01*
X301417Y495248D01*
X300584D01*
X299751Y494415D01*
Y492749D01*
X300584Y491916D01*
X301294Y454756D02*
X300461Y455589D01*
Y457255D01*
X301294Y458088D01*
X304626D01*
X305459Y457255D01*
Y455589D01*
X304626Y454756D01*
X305459Y453090D02*
Y451423D01*
Y452257D01*
X300461D01*
X301294Y453090D01*
X305459Y445592D02*
Y448924D01*
X302127Y445592D01*
X301294D01*
X300461Y446425D01*
Y448091D01*
X301294Y448924D01*
X450001Y393752D02*
X454999D01*
Y396251D01*
X454166Y397084D01*
X452500D01*
X451667Y396251D01*
Y393752D01*
Y395418D02*
X450001Y397084D01*
Y398750D02*
Y400416D01*
Y399583D01*
X454999D01*
X454166Y398750D01*
Y402916D02*
X454999Y403749D01*
Y405415D01*
X454166Y406248D01*
X450834D01*
X450001Y405415D01*
Y403749D01*
X450834Y402916D01*
X454166D01*
X312753Y527804D02*
X307754D01*
Y525305D01*
X308587Y524472D01*
X310254D01*
X311087Y525305D01*
Y527804D01*
Y526138D02*
X312753Y524472D01*
X307754Y522806D02*
Y519474D01*
X308587D01*
X311920Y522806D01*
X312753D01*
X322797Y473481D02*
X321964Y474314D01*
Y475980D01*
X322797Y476813D01*
X326130D01*
X326963Y475980D01*
Y474314D01*
X326130Y473481D01*
X326963Y471815D02*
Y470149D01*
Y470982D01*
X321964D01*
X322797Y471815D01*
X326963Y467650D02*
Y465983D01*
Y466816D01*
X321964D01*
X322797Y467650D01*
M02*
