G04*
G04 #@! TF.GenerationSoftware,Altium Limited,Altium Designer,26.2.0 (7)*
G04*
G04 Layer_Physical_Order=5*
G04 Layer_Color=16440176*
%FSLAX44Y44*%
%MOMM*%
G71*
G04*
G04 #@! TF.SameCoordinates,33BCE108-0E9A-4A5C-92EA-E60CA21C167F*
G04*
G04*
G04 #@! TF.FilePolarity,Positive*
G04*
G01*
G75*
%ADD126C,6.0000*%
%ADD132C,0.6000*%
%ADD133C,0.5000*%
G36*
X891207Y955325D02*
X891888Y955325D01*
X893225Y955058D01*
X894484Y954535D01*
X895618Y953777D01*
X896581Y952813D01*
X897338Y951679D01*
X897860Y950419D01*
X898126Y949082D01*
X898126Y948400D01*
X898126Y588900D01*
Y588070D01*
X897802Y586442D01*
X897167Y584909D01*
X896245Y583529D01*
X895071Y582355D01*
X893691Y581433D01*
X892158Y580798D01*
X890530Y580475D01*
X889700D01*
X889600Y580455D01*
X889500Y580470D01*
X888373Y580414D01*
X888080Y580341D01*
X887777D01*
X885567Y579901D01*
X885196Y579747D01*
X884802Y579669D01*
X882720Y578806D01*
X882386Y578583D01*
X882015Y578430D01*
X880141Y577178D01*
X879857Y576894D01*
X879523Y576670D01*
X877930Y575077D01*
X877706Y574743D01*
X877422Y574459D01*
X876170Y572585D01*
X876017Y572214D01*
X875793Y571880D01*
X874931Y569798D01*
X874853Y569404D01*
X874699Y569033D01*
X874259Y566823D01*
Y566516D01*
X874185Y566218D01*
X874130Y565042D01*
X874145Y564945D01*
X874126Y564849D01*
X874182Y357499D01*
X874202Y357400D01*
X874187Y357300D01*
X874242Y356173D01*
X874316Y355880D01*
Y355578D01*
X874756Y353367D01*
X874909Y352996D01*
X874988Y352602D01*
X875850Y350520D01*
X876073Y350186D01*
X876227Y349815D01*
X877479Y347941D01*
X877763Y347657D01*
X877986Y347323D01*
X879580Y345730D01*
X879914Y345507D01*
X880198Y345223D01*
X882072Y343970D01*
X882443Y343817D01*
X882777Y343593D01*
X884859Y342731D01*
X885253Y342653D01*
X885624Y342499D01*
X887834Y342059D01*
X888137D01*
X888430Y341986D01*
X889557Y341931D01*
X889657Y341945D01*
X889757Y341926D01*
X890586Y341926D01*
X892214Y341602D01*
X893748Y340967D01*
X895128Y340045D01*
X896301Y338871D01*
X897223Y337491D01*
X897859Y335958D01*
X898182Y334330D01*
X898182Y333553D01*
X898126Y333268D01*
X898126Y10500D01*
X898126Y9818D01*
X897860Y8481D01*
X897338Y7221D01*
X896581Y6087D01*
X895618Y5123D01*
X894484Y4365D01*
X893225Y3842D01*
X891888Y3575D01*
X891196Y3574D01*
X618900Y3574D01*
X618070D01*
X616442Y3898D01*
X614909Y4533D01*
X613529Y5455D01*
X612355Y6629D01*
X611433Y8009D01*
X610798Y9542D01*
X610474Y11170D01*
Y12000D01*
X610455Y12100D01*
X610470Y12200D01*
X610414Y13327D01*
X610341Y13620D01*
Y13922D01*
X609901Y16133D01*
X609747Y16504D01*
X609669Y16898D01*
X608806Y18980D01*
X608583Y19314D01*
X608430Y19685D01*
X607178Y21559D01*
X606894Y21843D01*
X606670Y22177D01*
X605077Y23770D01*
X604743Y23993D01*
X604459Y24277D01*
X602585Y25529D01*
X602214Y25683D01*
X601880Y25906D01*
X599798Y26769D01*
X599404Y26847D01*
X599033Y27001D01*
X596823Y27441D01*
X596520D01*
X596227Y27514D01*
X595100Y27569D01*
X595000Y27555D01*
X594900Y27574D01*
X537801D01*
X537299Y27474D01*
X365502Y27574D01*
X365501Y27574D01*
X365500Y27574D01*
X306900D01*
X306800Y27554D01*
X306700Y27569D01*
X305573Y27514D01*
X305280Y27441D01*
X304977D01*
X302767Y27001D01*
X302396Y26847D01*
X302002Y26769D01*
X299920Y25906D01*
X299586Y25683D01*
X299215Y25529D01*
X297341Y24277D01*
X297057Y23993D01*
X296723Y23770D01*
X295130Y22177D01*
X294906Y21843D01*
X294622Y21559D01*
X293370Y19685D01*
X293217Y19314D01*
X292994Y18980D01*
X292131Y16898D01*
X292053Y16504D01*
X291899Y16133D01*
X291459Y13922D01*
Y13620D01*
X291386Y13327D01*
X291331Y12200D01*
X291345Y12099D01*
X291326Y12000D01*
X291326Y11170D01*
X291002Y9542D01*
X290367Y8009D01*
X289445Y6629D01*
X288271Y5455D01*
X286891Y4533D01*
X285358Y3898D01*
X283730Y3574D01*
X282900Y3574D01*
X10494Y3574D01*
X9812Y3575D01*
X8475Y3842D01*
X7215Y4365D01*
X6082Y5123D01*
X5119Y6087D01*
X4362Y7221D01*
X3840Y8481D01*
X3574Y9818D01*
X3574Y10500D01*
Y333268D01*
X3518Y333553D01*
Y334330D01*
X3841Y335958D01*
X4477Y337491D01*
X5399Y338871D01*
X6572Y340045D01*
X7952Y340967D01*
X9486Y341602D01*
X11114Y341926D01*
X11943D01*
X12043Y341945D01*
X12143Y341931D01*
X13270Y341986D01*
X13563Y342059D01*
X13866D01*
X16076Y342499D01*
X16447Y342653D01*
X16841Y342731D01*
X18923Y343593D01*
X19257Y343817D01*
X19628Y343970D01*
X21502Y345222D01*
X21786Y345506D01*
X22120Y345730D01*
X23714Y347323D01*
X23937Y347657D01*
X24221Y347941D01*
X25473Y349815D01*
X25627Y350186D01*
X25850Y350520D01*
X26712Y352602D01*
X26791Y352996D01*
X26944Y353367D01*
X27384Y355578D01*
Y355880D01*
X27457Y356173D01*
X27513Y357300D01*
X27498Y357400D01*
X27518Y357499D01*
X27574Y564899D01*
X27555Y564999D01*
X27569Y565100D01*
X27514Y566227D01*
X27441Y566520D01*
Y566823D01*
X27001Y569033D01*
X26847Y569404D01*
X26769Y569798D01*
X25907Y571880D01*
X25683Y572214D01*
X25530Y572585D01*
X24278Y574459D01*
X23994Y574743D01*
X23770Y575077D01*
X22177Y576670D01*
X21843Y576894D01*
X21559Y577178D01*
X19685Y578430D01*
X19314Y578583D01*
X18980Y578806D01*
X16898Y579669D01*
X16504Y579747D01*
X16133Y579901D01*
X13922Y580341D01*
X13620D01*
X13327Y580414D01*
X12200Y580470D01*
X12100Y580455D01*
X12000Y580474D01*
X11170Y580475D01*
X9542Y580798D01*
X8009Y581433D01*
X6629Y582355D01*
X5455Y583529D01*
X4533Y584909D01*
X3898Y586442D01*
X3574Y588070D01*
X3574Y588900D01*
Y948400D01*
X3574Y949082D01*
X3840Y950419D01*
X4362Y951679D01*
X5119Y952813D01*
X6082Y953777D01*
X7215Y954535D01*
X8475Y955058D01*
X9812Y955325D01*
X10504Y955326D01*
X282900Y955326D01*
X283730D01*
X285358Y955002D01*
X286891Y954367D01*
X288271Y953445D01*
X289445Y952271D01*
X290367Y950891D01*
X291002Y949358D01*
X291326Y947730D01*
Y946900D01*
X291345Y946800D01*
X291331Y946700D01*
X291386Y945573D01*
X291459Y945280D01*
Y944978D01*
X291899Y942767D01*
X292053Y942396D01*
X292131Y942002D01*
X292994Y939920D01*
X293217Y939586D01*
X293370Y939215D01*
X294622Y937341D01*
X294906Y937057D01*
X295130Y936723D01*
X296723Y935130D01*
X297057Y934906D01*
X297341Y934622D01*
X299215Y933370D01*
X299586Y933217D01*
X299920Y932994D01*
X302002Y932131D01*
X302396Y932053D01*
X302767Y931899D01*
X304977Y931459D01*
X305280D01*
X305573Y931386D01*
X306700Y931331D01*
X306800Y931346D01*
X306900Y931326D01*
X365500D01*
X365501Y931326D01*
X365502Y931326D01*
X537299Y931426D01*
X537801Y931326D01*
X594900D01*
X595000Y931346D01*
X595100Y931331D01*
X596227Y931386D01*
X596520Y931459D01*
X596823D01*
X599033Y931899D01*
X599404Y932053D01*
X599798Y932131D01*
X601880Y932994D01*
X602214Y933217D01*
X602585Y933370D01*
X604459Y934622D01*
X604743Y934906D01*
X605077Y935130D01*
X606670Y936723D01*
X606894Y937057D01*
X607178Y937341D01*
X608430Y939215D01*
X608583Y939586D01*
X608806Y939920D01*
X609669Y942002D01*
X609747Y942396D01*
X609901Y942767D01*
X610341Y944978D01*
Y945280D01*
X610414Y945573D01*
X610470Y946700D01*
X610455Y946801D01*
X610474Y946900D01*
X610474Y947730D01*
X610798Y949358D01*
X611433Y950891D01*
X612355Y952271D01*
X613529Y953445D01*
X614909Y954367D01*
X616442Y955002D01*
X618070Y955326D01*
X618900Y955326D01*
X891207Y955325D01*
D02*
G37*
%LPC*%
G36*
X756946Y943400D02*
X755554D01*
X754267Y942867D01*
X753283Y941883D01*
X752750Y940596D01*
Y939204D01*
X753283Y937917D01*
X754267Y936933D01*
X754902Y936670D01*
X754649Y935400D01*
X753875D01*
X750687Y934766D01*
X747684Y933522D01*
X746009Y932403D01*
X745322Y932805D01*
X744903Y933191D01*
Y934443D01*
X744370Y935730D01*
X743386Y936714D01*
X742099Y937247D01*
X740707D01*
X739420Y936714D01*
X738436Y935730D01*
X737903Y934443D01*
Y933051D01*
X738436Y931764D01*
X739420Y930780D01*
X740707Y930247D01*
X741757D01*
X741882Y930135D01*
X742369Y929352D01*
X742454Y929074D01*
X740878Y926716D01*
X739634Y923713D01*
X739206Y921561D01*
X737849Y921250D01*
X737233Y921867D01*
X735946Y922400D01*
X734554D01*
X733267Y921867D01*
X732283Y920883D01*
X731750Y919596D01*
Y918204D01*
X732283Y916917D01*
X733267Y915933D01*
X734554Y915400D01*
X735946D01*
X737233Y915933D01*
X737849Y916550D01*
X739206Y916239D01*
X739634Y914087D01*
X740878Y911084D01*
X742454Y908726D01*
X742369Y908448D01*
X741882Y907664D01*
X741757Y907553D01*
X740707D01*
X739420Y907020D01*
X738436Y906036D01*
X737903Y904749D01*
Y903357D01*
X738436Y902070D01*
X739420Y901086D01*
X740707Y900553D01*
X742099D01*
X743386Y901086D01*
X744370Y902070D01*
X744903Y903357D01*
Y904609D01*
X745322Y904995D01*
X746009Y905397D01*
X747684Y904278D01*
X750687Y903034D01*
X753875Y902400D01*
X754649D01*
X754902Y901130D01*
X754267Y900867D01*
X753283Y899883D01*
X752750Y898596D01*
Y897204D01*
X753283Y895917D01*
X754267Y894933D01*
X755554Y894400D01*
X756946D01*
X758233Y894933D01*
X759217Y895917D01*
X759750Y897204D01*
Y898596D01*
X759217Y899883D01*
X758233Y900867D01*
X757485Y901177D01*
X757615Y902497D01*
X760313Y903034D01*
X763316Y904278D01*
X766018Y906084D01*
X768316Y908382D01*
X770122Y911084D01*
X771366Y914087D01*
X772000Y917275D01*
Y920525D01*
X771366Y923713D01*
X770122Y926716D01*
X768316Y929418D01*
X766018Y931716D01*
X763316Y933522D01*
X760313Y934766D01*
X757615Y935303D01*
X757485Y936623D01*
X758233Y936933D01*
X759217Y937917D01*
X759750Y939204D01*
Y940596D01*
X759217Y941883D01*
X758233Y942867D01*
X756946Y943400D01*
D02*
G37*
G36*
X159596D02*
X158204D01*
X156917Y942867D01*
X155933Y941883D01*
X155400Y940596D01*
Y939204D01*
X155933Y937917D01*
X156917Y936933D01*
X157552Y936670D01*
X157299Y935400D01*
X157275D01*
X154087Y934766D01*
X151084Y933522D01*
X148382Y931716D01*
X148370Y931704D01*
X147293Y932424D01*
X147553Y933051D01*
Y934443D01*
X147020Y935730D01*
X146036Y936714D01*
X144749Y937247D01*
X143357D01*
X142070Y936714D01*
X141086Y935730D01*
X140553Y934443D01*
Y933051D01*
X141086Y931764D01*
X142070Y930780D01*
X143357Y930247D01*
X144749D01*
X145376Y930507D01*
X146096Y929430D01*
X146084Y929418D01*
X144278Y926716D01*
X143034Y923713D01*
X142400Y920525D01*
Y920501D01*
X141130Y920248D01*
X140867Y920883D01*
X139883Y921867D01*
X138596Y922400D01*
X137204D01*
X135917Y921867D01*
X134933Y920883D01*
X134400Y919596D01*
Y918204D01*
X134933Y916917D01*
X135917Y915933D01*
X137204Y915400D01*
X138596D01*
X139883Y915933D01*
X140867Y916917D01*
X141130Y917552D01*
X142400Y917299D01*
Y917275D01*
X143034Y914087D01*
X144278Y911084D01*
X146084Y908382D01*
X146096Y908370D01*
X145376Y907293D01*
X144749Y907553D01*
X143357D01*
X142070Y907020D01*
X141086Y906036D01*
X140553Y904749D01*
Y903357D01*
X141086Y902070D01*
X142070Y901086D01*
X143357Y900553D01*
X144749D01*
X146036Y901086D01*
X147020Y902070D01*
X147553Y903357D01*
Y904749D01*
X147293Y905376D01*
X148370Y906096D01*
X148382Y906084D01*
X151084Y904278D01*
X154087Y903034D01*
X157275Y902400D01*
X157299D01*
X157552Y901130D01*
X156917Y900867D01*
X155933Y899883D01*
X155400Y898596D01*
Y897204D01*
X155933Y895917D01*
X156917Y894933D01*
X158204Y894400D01*
X159596D01*
X160883Y894933D01*
X161867Y895917D01*
X162400Y897204D01*
Y898596D01*
X161867Y899883D01*
X160883Y900867D01*
X160248Y901130D01*
X160501Y902400D01*
X160525D01*
X163713Y903034D01*
X166716Y904278D01*
X169418Y906084D01*
X169430Y906096D01*
X170507Y905376D01*
X170247Y904749D01*
Y903357D01*
X170780Y902070D01*
X171764Y901086D01*
X173051Y900553D01*
X174443D01*
X175730Y901086D01*
X176714Y902070D01*
X177247Y903357D01*
Y904749D01*
X176714Y906036D01*
X175730Y907020D01*
X174443Y907553D01*
X173051D01*
X172424Y907293D01*
X171705Y908370D01*
X171716Y908382D01*
X173522Y911084D01*
X174766Y914087D01*
X175400Y917275D01*
Y917299D01*
X176670Y917552D01*
X176933Y916917D01*
X177917Y915933D01*
X179204Y915400D01*
X180596D01*
X181883Y915933D01*
X182867Y916917D01*
X183400Y918204D01*
Y919596D01*
X182867Y920883D01*
X181883Y921867D01*
X180596Y922400D01*
X179204D01*
X177917Y921867D01*
X176933Y920883D01*
X176670Y920248D01*
X175400Y920501D01*
Y920525D01*
X174766Y923713D01*
X173522Y926716D01*
X171716Y929418D01*
X171705Y929430D01*
X172424Y930507D01*
X173051Y930247D01*
X174443D01*
X175730Y930780D01*
X176714Y931764D01*
X177247Y933051D01*
Y934443D01*
X176714Y935730D01*
X175730Y936714D01*
X174443Y937247D01*
X173051D01*
X171764Y936714D01*
X170780Y935730D01*
X170247Y934443D01*
Y933051D01*
X170507Y932424D01*
X169430Y931704D01*
X169418Y931716D01*
X166716Y933522D01*
X163713Y934766D01*
X160525Y935400D01*
X160501D01*
X160248Y936670D01*
X160883Y936933D01*
X161867Y937917D01*
X162400Y939204D01*
Y940596D01*
X161867Y941883D01*
X160883Y942867D01*
X159596Y943400D01*
D02*
G37*
G36*
X771793Y937247D02*
X770401D01*
X769114Y936714D01*
X768130Y935730D01*
X767597Y934443D01*
Y933051D01*
X768130Y931764D01*
X769114Y930780D01*
X770401Y930247D01*
X771793D01*
X773080Y930780D01*
X774064Y931764D01*
X774597Y933051D01*
Y934443D01*
X774064Y935730D01*
X773080Y936714D01*
X771793Y937247D01*
D02*
G37*
G36*
X826196Y934600D02*
X824804D01*
X823517Y934067D01*
X822533Y933083D01*
X822000Y931796D01*
Y930404D01*
X822533Y929117D01*
X823517Y928133D01*
X824804Y927600D01*
X826196D01*
X827483Y928133D01*
X828467Y929117D01*
X829000Y930404D01*
Y931796D01*
X828467Y933083D01*
X827483Y934067D01*
X826196Y934600D01*
D02*
G37*
G36*
X89596D02*
X88204D01*
X86917Y934067D01*
X85933Y933083D01*
X85400Y931796D01*
Y930404D01*
X85933Y929117D01*
X86917Y928133D01*
X88204Y927600D01*
X89596D01*
X90883Y928133D01*
X91867Y929117D01*
X92400Y930404D01*
Y931796D01*
X91867Y933083D01*
X90883Y934067D01*
X89596Y934600D01*
D02*
G37*
G36*
X842456Y927863D02*
X841064D01*
X839777Y927331D01*
X838793Y926346D01*
X838260Y925060D01*
Y923667D01*
X838793Y922381D01*
X839777Y921396D01*
X841064Y920863D01*
X842456D01*
X843743Y921396D01*
X844727Y922381D01*
X845260Y923667D01*
Y925060D01*
X844727Y926346D01*
X843743Y927331D01*
X842456Y927863D01*
D02*
G37*
G36*
X809936D02*
X808544D01*
X807257Y927331D01*
X806273Y926346D01*
X805740Y925060D01*
Y923667D01*
X806273Y922381D01*
X807257Y921396D01*
X808544Y920863D01*
X809936D01*
X811223Y921396D01*
X812207Y922381D01*
X812740Y923667D01*
Y925060D01*
X812207Y926346D01*
X811223Y927331D01*
X809936Y927863D01*
D02*
G37*
G36*
X105856D02*
X104464D01*
X103177Y927331D01*
X102193Y926346D01*
X101660Y925060D01*
Y923667D01*
X102193Y922381D01*
X103177Y921396D01*
X104464Y920863D01*
X105856D01*
X107143Y921396D01*
X108127Y922381D01*
X108660Y923667D01*
Y925060D01*
X108127Y926346D01*
X107143Y927331D01*
X105856Y927863D01*
D02*
G37*
G36*
X73336D02*
X71944D01*
X70657Y927331D01*
X69673Y926346D01*
X69140Y925060D01*
Y923667D01*
X69673Y922381D01*
X70657Y921396D01*
X71944Y920863D01*
X73336D01*
X74623Y921396D01*
X75607Y922381D01*
X76140Y923667D01*
Y925060D01*
X75607Y926346D01*
X74623Y927331D01*
X73336Y927863D01*
D02*
G37*
G36*
X777946Y922400D02*
X776554D01*
X775267Y921867D01*
X774283Y920883D01*
X773750Y919596D01*
Y918204D01*
X774283Y916917D01*
X775267Y915933D01*
X776554Y915400D01*
X777946D01*
X779233Y915933D01*
X780217Y916917D01*
X780750Y918204D01*
Y919596D01*
X780217Y920883D01*
X779233Y921867D01*
X777946Y922400D01*
D02*
G37*
G36*
X849196Y911600D02*
X847804D01*
X846517Y911067D01*
X845533Y910083D01*
X845000Y908796D01*
Y907404D01*
X845533Y906117D01*
X846517Y905133D01*
X847804Y904600D01*
X849196D01*
X850483Y905133D01*
X851467Y906117D01*
X852000Y907404D01*
Y908796D01*
X851467Y910083D01*
X850483Y911067D01*
X849196Y911600D01*
D02*
G37*
G36*
X803196D02*
X801804D01*
X800517Y911067D01*
X799533Y910083D01*
X799000Y908796D01*
Y907404D01*
X799533Y906117D01*
X800517Y905133D01*
X801804Y904600D01*
X803196D01*
X804483Y905133D01*
X805467Y906117D01*
X806000Y907404D01*
Y908796D01*
X805467Y910083D01*
X804483Y911067D01*
X803196Y911600D01*
D02*
G37*
G36*
X112596D02*
X111204D01*
X109917Y911067D01*
X108933Y910083D01*
X108400Y908796D01*
Y907404D01*
X108933Y906117D01*
X109917Y905133D01*
X111204Y904600D01*
X112596D01*
X113883Y905133D01*
X114867Y906117D01*
X115400Y907404D01*
Y908796D01*
X114867Y910083D01*
X113883Y911067D01*
X112596Y911600D01*
D02*
G37*
G36*
X66596D02*
X65204D01*
X63917Y911067D01*
X62933Y910083D01*
X62400Y908796D01*
Y907404D01*
X62933Y906117D01*
X63917Y905133D01*
X65204Y904600D01*
X66596D01*
X67883Y905133D01*
X68867Y906117D01*
X69400Y907404D01*
Y908796D01*
X68867Y910083D01*
X67883Y911067D01*
X66596Y911600D01*
D02*
G37*
G36*
X771793Y907553D02*
X770401D01*
X769114Y907020D01*
X768130Y906036D01*
X767597Y904749D01*
Y903357D01*
X768130Y902070D01*
X769114Y901086D01*
X770401Y900553D01*
X771793D01*
X773080Y901086D01*
X774064Y902070D01*
X774597Y903357D01*
Y904749D01*
X774064Y906036D01*
X773080Y907020D01*
X771793Y907553D01*
D02*
G37*
G36*
X620780Y899538D02*
X619388D01*
X618102Y899005D01*
X617117Y898020D01*
X616584Y896734D01*
Y895341D01*
X617117Y894055D01*
X618102Y893070D01*
X619388Y892538D01*
X620780D01*
X622067Y893070D01*
X623051Y894055D01*
X623584Y895341D01*
Y896734D01*
X623051Y898020D01*
X622067Y899005D01*
X620780Y899538D01*
D02*
G37*
G36*
X692696Y899500D02*
X691304D01*
X690017Y898967D01*
X689033Y897983D01*
X688500Y896696D01*
Y895304D01*
X689033Y894017D01*
X690017Y893033D01*
X691304Y892500D01*
X692696D01*
X693983Y893033D01*
X694967Y894017D01*
X695500Y895304D01*
Y896696D01*
X694967Y897983D01*
X693983Y898967D01*
X692696Y899500D01*
D02*
G37*
G36*
X827273Y926100D02*
X823727D01*
X820250Y925408D01*
X816974Y924051D01*
X814026Y922082D01*
X811518Y919574D01*
X809549Y916626D01*
X808192Y913350D01*
X807500Y909873D01*
Y906327D01*
X808192Y902850D01*
X809549Y899574D01*
X811518Y896626D01*
X814026Y894118D01*
X816974Y892149D01*
X820250Y890792D01*
X823727Y890100D01*
X827273D01*
X830750Y890792D01*
X834026Y892149D01*
X836974Y894118D01*
X839482Y896626D01*
X841451Y899574D01*
X842808Y902850D01*
X843500Y906327D01*
Y909873D01*
X842808Y913350D01*
X841451Y916626D01*
X839482Y919574D01*
X836974Y922082D01*
X834026Y924051D01*
X830750Y925408D01*
X827273Y926100D01*
D02*
G37*
G36*
X90673D02*
X87127D01*
X83650Y925408D01*
X80374Y924051D01*
X77426Y922082D01*
X74918Y919574D01*
X72949Y916626D01*
X71592Y913350D01*
X70900Y909873D01*
Y906327D01*
X71592Y902850D01*
X72949Y899574D01*
X74918Y896626D01*
X77426Y894118D01*
X80374Y892149D01*
X83650Y890792D01*
X87127Y890100D01*
X90673D01*
X94150Y890792D01*
X97426Y892149D01*
X100374Y894118D01*
X102881Y896626D01*
X104851Y899574D01*
X106208Y902850D01*
X106900Y906327D01*
Y909873D01*
X106208Y913350D01*
X104851Y916626D01*
X102881Y919574D01*
X100374Y922082D01*
X97426Y924051D01*
X94150Y925408D01*
X90673Y926100D01*
D02*
G37*
G36*
X842456Y895337D02*
X841064D01*
X839777Y894804D01*
X838793Y893819D01*
X838260Y892533D01*
Y891140D01*
X838793Y889854D01*
X839777Y888869D01*
X841064Y888337D01*
X842456D01*
X843743Y888869D01*
X844727Y889854D01*
X845260Y891140D01*
Y892533D01*
X844727Y893819D01*
X843743Y894804D01*
X842456Y895337D01*
D02*
G37*
G36*
X809936D02*
X808544D01*
X807257Y894804D01*
X806273Y893819D01*
X805740Y892533D01*
Y891140D01*
X806273Y889854D01*
X807257Y888869D01*
X808544Y888337D01*
X809936D01*
X811223Y888869D01*
X812207Y889854D01*
X812740Y891140D01*
Y892533D01*
X812207Y893819D01*
X811223Y894804D01*
X809936Y895337D01*
D02*
G37*
G36*
X105856D02*
X104464D01*
X103177Y894804D01*
X102193Y893819D01*
X101660Y892533D01*
Y891140D01*
X102193Y889854D01*
X103177Y888869D01*
X104464Y888337D01*
X105856D01*
X107143Y888869D01*
X108127Y889854D01*
X108660Y891140D01*
Y892533D01*
X108127Y893819D01*
X107143Y894804D01*
X105856Y895337D01*
D02*
G37*
G36*
X73336D02*
X71944D01*
X70657Y894804D01*
X69673Y893819D01*
X69140Y892533D01*
Y891140D01*
X69673Y889854D01*
X70657Y888869D01*
X71944Y888337D01*
X73336D01*
X74623Y888869D01*
X75607Y889854D01*
X76140Y891140D01*
Y892533D01*
X75607Y893819D01*
X74623Y894804D01*
X73336Y895337D01*
D02*
G37*
G36*
X266696Y892750D02*
X265304D01*
X264017Y892217D01*
X263033Y891233D01*
X262500Y889946D01*
Y888554D01*
X263033Y887267D01*
X264017Y886283D01*
X265304Y885750D01*
X266696D01*
X267983Y886283D01*
X268967Y887267D01*
X269500Y888554D01*
Y889946D01*
X268967Y891233D01*
X267983Y892217D01*
X266696Y892750D01*
D02*
G37*
G36*
X283696Y890245D02*
X282304D01*
X281017Y889712D01*
X280033Y888728D01*
X279500Y887441D01*
Y886049D01*
X280033Y884762D01*
X281017Y883778D01*
X282304Y883245D01*
X283696D01*
X284983Y883778D01*
X285967Y884762D01*
X286500Y886049D01*
Y887441D01*
X285967Y888728D01*
X284983Y889712D01*
X283696Y890245D01*
D02*
G37*
G36*
X826196Y888600D02*
X824804D01*
X823517Y888067D01*
X822533Y887083D01*
X822000Y885796D01*
Y884404D01*
X822533Y883117D01*
X823517Y882133D01*
X824804Y881600D01*
X826196D01*
X827483Y882133D01*
X828467Y883117D01*
X829000Y884404D01*
Y885796D01*
X828467Y887083D01*
X827483Y888067D01*
X826196Y888600D01*
D02*
G37*
G36*
X89596D02*
X88204D01*
X86917Y888067D01*
X85933Y887083D01*
X85400Y885796D01*
Y884404D01*
X85933Y883117D01*
X86917Y882133D01*
X88204Y881600D01*
X89596D01*
X90883Y882133D01*
X91867Y883117D01*
X92400Y884404D01*
Y885796D01*
X91867Y887083D01*
X90883Y888067D01*
X89596Y888600D01*
D02*
G37*
G36*
X233205Y888284D02*
X231812D01*
X230526Y887751D01*
X229541Y886767D01*
X229008Y885481D01*
Y884088D01*
X229541Y882802D01*
X230526Y881817D01*
X231812Y881284D01*
X233205D01*
X234491Y881817D01*
X235476Y882802D01*
X236008Y884088D01*
Y885481D01*
X235476Y886767D01*
X234491Y887751D01*
X233205Y888284D01*
D02*
G37*
G36*
X223205D02*
X221812D01*
X220526Y887751D01*
X219541Y886767D01*
X219008Y885481D01*
Y884088D01*
X219541Y882802D01*
X220526Y881817D01*
X221812Y881284D01*
X223205D01*
X224491Y881817D01*
X225476Y882802D01*
X226008Y884088D01*
Y885481D01*
X225476Y886767D01*
X224491Y887751D01*
X223205Y888284D01*
D02*
G37*
G36*
X540196Y885500D02*
X538804D01*
X537517Y884967D01*
X536533Y883983D01*
X536000Y882696D01*
Y881304D01*
X536533Y880017D01*
X537517Y879033D01*
X538804Y878500D01*
X540196D01*
X541483Y879033D01*
X542467Y880017D01*
X543000Y881304D01*
Y882696D01*
X542467Y883983D01*
X541483Y884967D01*
X540196Y885500D01*
D02*
G37*
G36*
X356696D02*
X355304D01*
X354017Y884967D01*
X353033Y883983D01*
X352500Y882696D01*
Y881304D01*
X353033Y880017D01*
X354017Y879033D01*
X355304Y878500D01*
X356696D01*
X357983Y879033D01*
X358967Y880017D01*
X359500Y881304D01*
Y882696D01*
X358967Y883983D01*
X357983Y884967D01*
X356696Y885500D01*
D02*
G37*
G36*
X233205Y878284D02*
X231812D01*
X230526Y877751D01*
X229541Y876767D01*
X229008Y875481D01*
Y874088D01*
X229541Y872802D01*
X230526Y871817D01*
X231812Y871284D01*
X233205D01*
X234491Y871817D01*
X235476Y872802D01*
X236008Y874088D01*
Y875481D01*
X235476Y876767D01*
X234491Y877751D01*
X233205Y878284D01*
D02*
G37*
G36*
X223205D02*
X221812D01*
X220526Y877751D01*
X219541Y876767D01*
X219008Y875481D01*
Y874088D01*
X219541Y872802D01*
X220526Y871817D01*
X221812Y871284D01*
X223205D01*
X224491Y871817D01*
X225476Y872802D01*
X226008Y874088D01*
Y875481D01*
X225476Y876767D01*
X224491Y877751D01*
X223205Y878284D01*
D02*
G37*
G36*
X283696Y874755D02*
X282304D01*
X281017Y874222D01*
X280033Y873238D01*
X279500Y871951D01*
Y870559D01*
X280033Y869272D01*
X281017Y868288D01*
X282304Y867755D01*
X283696D01*
X284983Y868288D01*
X285967Y869272D01*
X286500Y870559D01*
Y871951D01*
X285967Y873238D01*
X284983Y874222D01*
X283696Y874755D01*
D02*
G37*
G36*
X777641Y868321D02*
X776249D01*
X774963Y867788D01*
X773978Y866804D01*
X773445Y865517D01*
Y864125D01*
X773978Y862839D01*
X774963Y861854D01*
X776249Y861321D01*
X777641D01*
X778928Y861854D01*
X779912Y862839D01*
X780445Y864125D01*
Y865517D01*
X779912Y866804D01*
X778928Y867788D01*
X777641Y868321D01*
D02*
G37*
G36*
X233205Y868284D02*
X231812D01*
X230526Y867751D01*
X229541Y866767D01*
X229008Y865481D01*
Y864088D01*
X229541Y862802D01*
X230526Y861817D01*
X231812Y861284D01*
X233205D01*
X234491Y861817D01*
X235476Y862802D01*
X236008Y864088D01*
Y865481D01*
X235476Y866767D01*
X234491Y867751D01*
X233205Y868284D01*
D02*
G37*
G36*
X223205D02*
X221812D01*
X220526Y867751D01*
X219541Y866767D01*
X219008Y865481D01*
Y864088D01*
X219541Y862802D01*
X220526Y861817D01*
X221812Y861284D01*
X223205D01*
X224491Y861817D01*
X225476Y862802D01*
X226008Y864088D01*
Y865481D01*
X225476Y866767D01*
X224491Y867751D01*
X223205Y868284D01*
D02*
G37*
G36*
X389696Y867500D02*
X388304D01*
X387017Y866967D01*
X386033Y865983D01*
X385500Y864696D01*
Y863304D01*
X386033Y862017D01*
X387017Y861033D01*
X388304Y860500D01*
X389696D01*
X390983Y861033D01*
X391967Y862017D01*
X392500Y863304D01*
Y864696D01*
X391967Y865983D01*
X390983Y866967D01*
X389696Y867500D01*
D02*
G37*
G36*
X649746Y867012D02*
X648354D01*
X647067Y866479D01*
X646083Y865495D01*
X645550Y864208D01*
Y862816D01*
X646083Y861529D01*
X647067Y860545D01*
X648354Y860012D01*
X649746D01*
X651032Y860545D01*
X652017Y861529D01*
X652550Y862816D01*
Y864208D01*
X652017Y865495D01*
X651032Y866479D01*
X649746Y867012D01*
D02*
G37*
G36*
X802981Y866122D02*
X801588D01*
X800302Y865589D01*
X799317Y864604D01*
X798784Y863318D01*
Y861925D01*
X799317Y860639D01*
X800302Y859654D01*
X801588Y859122D01*
X802981D01*
X804267Y859654D01*
X805252Y860639D01*
X805784Y861925D01*
Y863318D01*
X805252Y864604D01*
X804267Y865589D01*
X802981Y866122D01*
D02*
G37*
G36*
X272864Y860216D02*
X271471D01*
X270185Y859684D01*
X269200Y858699D01*
X268668Y857412D01*
Y856020D01*
X269200Y854734D01*
X270185Y853749D01*
X271471Y853216D01*
X272864D01*
X274150Y853749D01*
X275135Y854734D01*
X275667Y856020D01*
Y857412D01*
X275135Y858699D01*
X274150Y859684D01*
X272864Y860216D01*
D02*
G37*
G36*
X446696Y859500D02*
X445304D01*
X444017Y858967D01*
X443033Y857983D01*
X442500Y856696D01*
Y855304D01*
X443033Y854017D01*
X444017Y853033D01*
X445304Y852500D01*
X446696D01*
X447983Y853033D01*
X448967Y854017D01*
X449500Y855304D01*
Y856696D01*
X448967Y857983D01*
X447983Y858967D01*
X446696Y859500D01*
D02*
G37*
G36*
X481746Y836550D02*
X480354D01*
X479067Y836017D01*
X478083Y835033D01*
X477550Y833746D01*
Y832354D01*
X478083Y831067D01*
X479067Y830083D01*
X480354Y829550D01*
X481746D01*
X483033Y830083D01*
X484017Y831067D01*
X484550Y832354D01*
Y833746D01*
X484017Y835033D01*
X483033Y836017D01*
X481746Y836550D01*
D02*
G37*
G36*
X430271Y824520D02*
X428878D01*
X427592Y823987D01*
X426607Y823003D01*
X426075Y821716D01*
Y820324D01*
X426607Y819037D01*
X427592Y818053D01*
X428878Y817520D01*
X430271D01*
X431557Y818053D01*
X432542Y819037D01*
X433075Y820324D01*
Y821716D01*
X432542Y823003D01*
X431557Y823987D01*
X430271Y824520D01*
D02*
G37*
G36*
X800696Y813570D02*
X799304D01*
X798017Y813037D01*
X797033Y812053D01*
X796500Y810766D01*
Y809374D01*
X797033Y808087D01*
X798017Y807103D01*
X799304Y806570D01*
X800696D01*
X801983Y807103D01*
X802967Y808087D01*
X803500Y809374D01*
Y810766D01*
X802967Y812053D01*
X801983Y813037D01*
X800696Y813570D01*
D02*
G37*
G36*
X481746Y811150D02*
X480354D01*
X479067Y810617D01*
X478083Y809633D01*
X477550Y808346D01*
Y806954D01*
X478083Y805667D01*
X479067Y804683D01*
X480354Y804150D01*
X481746D01*
X483033Y804683D01*
X484017Y805667D01*
X484550Y806954D01*
Y808346D01*
X484017Y809633D01*
X483033Y810617D01*
X481746Y811150D01*
D02*
G37*
G36*
X290696Y809500D02*
X289304D01*
X288017Y808967D01*
X287033Y807983D01*
X286500Y806696D01*
Y805304D01*
X287033Y804017D01*
X288017Y803033D01*
X289304Y802500D01*
X290696D01*
X291983Y803033D01*
X292967Y804017D01*
X293500Y805304D01*
Y806696D01*
X292967Y807983D01*
X291983Y808967D01*
X290696Y809500D01*
D02*
G37*
G36*
X262696D02*
X261304D01*
X260017Y808967D01*
X259033Y807983D01*
X258500Y806696D01*
Y805304D01*
X259033Y804017D01*
X260017Y803033D01*
X261304Y802500D01*
X262696D01*
X263983Y803033D01*
X264967Y804017D01*
X265500Y805304D01*
Y806696D01*
X264967Y807983D01*
X263983Y808967D01*
X262696Y809500D01*
D02*
G37*
G36*
X638696Y804500D02*
X637304D01*
X636017Y803967D01*
X635033Y802983D01*
X634500Y801696D01*
Y800304D01*
X635033Y799017D01*
X636017Y798033D01*
X637304Y797500D01*
X638696D01*
X639983Y798033D01*
X640967Y799017D01*
X641500Y800304D01*
Y801696D01*
X640967Y802983D01*
X639983Y803967D01*
X638696Y804500D01*
D02*
G37*
G36*
X526936Y801198D02*
X525544D01*
X524257Y800665D01*
X523273Y799680D01*
X522740Y798394D01*
Y797002D01*
X523273Y795715D01*
X524257Y794731D01*
X525544Y794198D01*
X526936D01*
X528223Y794731D01*
X529207Y795715D01*
X529740Y797002D01*
Y798394D01*
X529207Y799680D01*
X528223Y800665D01*
X526936Y801198D01*
D02*
G37*
G36*
X668696Y798500D02*
X667304D01*
X666017Y797967D01*
X665033Y796983D01*
X664500Y795696D01*
Y794304D01*
X665033Y793017D01*
X666017Y792033D01*
X667304Y791500D01*
X668696D01*
X669983Y792033D01*
X670967Y793017D01*
X671500Y794304D01*
Y795696D01*
X670967Y796983D01*
X669983Y797967D01*
X668696Y798500D01*
D02*
G37*
G36*
X429646Y798450D02*
X428254D01*
X426967Y797917D01*
X425983Y796933D01*
X425450Y795646D01*
Y794254D01*
X425983Y792967D01*
X426967Y791983D01*
X428254Y791450D01*
X429646D01*
X430933Y791983D01*
X431917Y792967D01*
X432450Y794254D01*
Y795646D01*
X431917Y796933D01*
X430933Y797917D01*
X429646Y798450D01*
D02*
G37*
G36*
X81196Y792250D02*
X79804D01*
X78517Y791717D01*
X77533Y790733D01*
X77000Y789446D01*
Y788054D01*
X77533Y786767D01*
X78517Y785783D01*
X79804Y785250D01*
X81196D01*
X82483Y785783D01*
X83467Y786767D01*
X84000Y788054D01*
Y789446D01*
X83467Y790733D01*
X82483Y791717D01*
X81196Y792250D01*
D02*
G37*
G36*
X789545Y791839D02*
X788153D01*
X786866Y791306D01*
X785882Y790321D01*
X785349Y789035D01*
Y787642D01*
X785882Y786356D01*
X786866Y785371D01*
X788153Y784838D01*
X789545D01*
X790832Y785371D01*
X791816Y786356D01*
X792349Y787642D01*
Y789035D01*
X791816Y790321D01*
X790832Y791306D01*
X789545Y791839D01*
D02*
G37*
G36*
X815730Y791692D02*
X814337D01*
X813051Y791159D01*
X812066Y790174D01*
X811534Y788888D01*
Y787496D01*
X812066Y786209D01*
X813051Y785225D01*
X814337Y784692D01*
X815730D01*
X817016Y785225D01*
X818001Y786209D01*
X818533Y787496D01*
Y788888D01*
X818001Y790174D01*
X817016Y791159D01*
X815730Y791692D01*
D02*
G37*
G36*
X388696Y790500D02*
X387304D01*
X386017Y789967D01*
X385033Y788983D01*
X384500Y787696D01*
Y786304D01*
X385033Y785017D01*
X386017Y784033D01*
X387304Y783500D01*
X388696D01*
X389983Y784033D01*
X390967Y785017D01*
X391500Y786304D01*
Y787696D01*
X390967Y788983D01*
X389983Y789967D01*
X388696Y790500D01*
D02*
G37*
G36*
X464696Y782500D02*
X463304D01*
X462017Y781967D01*
X461033Y780983D01*
X460500Y779696D01*
Y778304D01*
X461033Y777017D01*
X462017Y776033D01*
X463304Y775500D01*
X464696D01*
X465983Y776033D01*
X466967Y777017D01*
X467500Y778304D01*
Y779696D01*
X466967Y780983D01*
X465983Y781967D01*
X464696Y782500D01*
D02*
G37*
G36*
X748701Y772875D02*
X747309D01*
X746022Y772342D01*
X745038Y771358D01*
X744505Y770071D01*
Y768679D01*
X745038Y767392D01*
X746022Y766408D01*
X747309Y765875D01*
X748701D01*
X749988Y766408D01*
X750972Y767392D01*
X751505Y768679D01*
Y770071D01*
X750972Y771358D01*
X749988Y772342D01*
X748701Y772875D01*
D02*
G37*
G36*
X668696Y771500D02*
X667304D01*
X666017Y770967D01*
X665033Y769983D01*
X664500Y768696D01*
Y767304D01*
X665033Y766017D01*
X666017Y765033D01*
X667304Y764500D01*
X668696D01*
X669983Y765033D01*
X670967Y766017D01*
X671500Y767304D01*
Y768696D01*
X670967Y769983D01*
X669983Y770967D01*
X668696Y771500D01*
D02*
G37*
G36*
X620696Y771000D02*
X619304D01*
X618017Y770467D01*
X617033Y769483D01*
X616500Y768196D01*
Y766804D01*
X617033Y765517D01*
X618017Y764533D01*
X619304Y764000D01*
X620696D01*
X621983Y764533D01*
X622967Y765517D01*
X623500Y766804D01*
Y768196D01*
X622967Y769483D01*
X621983Y770467D01*
X620696Y771000D01*
D02*
G37*
G36*
X751206Y756625D02*
X749814D01*
X748527Y756092D01*
X747543Y755108D01*
X747010Y753821D01*
Y752429D01*
X747543Y751142D01*
X748527Y750158D01*
X749814Y749625D01*
X751206D01*
X752493Y750158D01*
X753477Y751142D01*
X754010Y752429D01*
Y753821D01*
X753477Y755108D01*
X752493Y756092D01*
X751206Y756625D01*
D02*
G37*
G36*
X813696Y751500D02*
X812304D01*
X811017Y750967D01*
X810033Y749983D01*
X809500Y748696D01*
Y747304D01*
X810033Y746017D01*
X811017Y745033D01*
X812304Y744500D01*
X813696D01*
X814983Y745033D01*
X815967Y746017D01*
X816500Y747304D01*
Y748696D01*
X815967Y749983D01*
X814983Y750967D01*
X813696Y751500D01*
D02*
G37*
G36*
X803696Y708500D02*
X802304D01*
X801017Y707967D01*
X800033Y706983D01*
X799500Y705696D01*
Y704304D01*
X800033Y703017D01*
X801017Y702033D01*
X802304Y701500D01*
X803696D01*
X804983Y702033D01*
X805967Y703017D01*
X806500Y704304D01*
Y705696D01*
X805967Y706983D01*
X804983Y707967D01*
X803696Y708500D01*
D02*
G37*
G36*
X170696Y706000D02*
X169304D01*
X168017Y705467D01*
X167033Y704483D01*
X166500Y703196D01*
Y701804D01*
X167033Y700517D01*
X168017Y699533D01*
X169304Y699000D01*
X170696D01*
X171983Y699533D01*
X172967Y700517D01*
X173500Y701804D01*
Y703196D01*
X172967Y704483D01*
X171983Y705467D01*
X170696Y706000D01*
D02*
G37*
G36*
X160696D02*
X159304D01*
X158017Y705467D01*
X157033Y704483D01*
X156500Y703196D01*
Y701804D01*
X157033Y700517D01*
X158017Y699533D01*
X159304Y699000D01*
X160696D01*
X161983Y699533D01*
X162967Y700517D01*
X163500Y701804D01*
Y703196D01*
X162967Y704483D01*
X161983Y705467D01*
X160696Y706000D01*
D02*
G37*
G36*
X832146Y700750D02*
X830754D01*
X829467Y700217D01*
X828483Y699233D01*
X827950Y697946D01*
Y696554D01*
X828483Y695267D01*
X829467Y694283D01*
X830754Y693750D01*
X832146D01*
X833433Y694283D01*
X834417Y695267D01*
X834950Y696554D01*
Y697946D01*
X834417Y699233D01*
X833433Y700217D01*
X832146Y700750D01*
D02*
G37*
G36*
X170696Y696000D02*
X169304D01*
X168017Y695467D01*
X167033Y694483D01*
X166500Y693196D01*
Y691804D01*
X167033Y690517D01*
X168017Y689533D01*
X169304Y689000D01*
X170696D01*
X171983Y689533D01*
X172967Y690517D01*
X173500Y691804D01*
Y693196D01*
X172967Y694483D01*
X171983Y695467D01*
X170696Y696000D01*
D02*
G37*
G36*
X160696D02*
X159304D01*
X158017Y695467D01*
X157033Y694483D01*
X156500Y693196D01*
Y691804D01*
X157033Y690517D01*
X158017Y689533D01*
X159304Y689000D01*
X160696D01*
X161983Y689533D01*
X162967Y690517D01*
X163500Y691804D01*
Y693196D01*
X162967Y694483D01*
X161983Y695467D01*
X160696Y696000D01*
D02*
G37*
G36*
X748646Y690995D02*
X747254D01*
X745967Y690462D01*
X744983Y689478D01*
X744450Y688191D01*
Y686799D01*
X744983Y685512D01*
X745967Y684528D01*
X747254Y683995D01*
X748646D01*
X749933Y684528D01*
X750917Y685512D01*
X751450Y686799D01*
Y688191D01*
X750917Y689478D01*
X749933Y690462D01*
X748646Y690995D01*
D02*
G37*
G36*
X170696Y686000D02*
X169304D01*
X168017Y685467D01*
X167033Y684483D01*
X166500Y683196D01*
Y681804D01*
X167033Y680517D01*
X168017Y679533D01*
X169304Y679000D01*
X170696D01*
X171983Y679533D01*
X172967Y680517D01*
X173500Y681804D01*
Y683196D01*
X172967Y684483D01*
X171983Y685467D01*
X170696Y686000D01*
D02*
G37*
G36*
X160696D02*
X159304D01*
X158017Y685467D01*
X157033Y684483D01*
X156500Y683196D01*
Y681804D01*
X157033Y680517D01*
X158017Y679533D01*
X159304Y679000D01*
X160696D01*
X161983Y679533D01*
X162967Y680517D01*
X163500Y681804D01*
Y683196D01*
X162967Y684483D01*
X161983Y685467D01*
X160696Y686000D01*
D02*
G37*
G36*
X150696D02*
X149304D01*
X148017Y685467D01*
X147033Y684483D01*
X146500Y683196D01*
Y681804D01*
X147033Y680517D01*
X148017Y679533D01*
X149304Y679000D01*
X150696D01*
X151983Y679533D01*
X152967Y680517D01*
X153500Y681804D01*
Y683196D01*
X152967Y684483D01*
X151983Y685467D01*
X150696Y686000D01*
D02*
G37*
G36*
X832353Y685125D02*
X830961D01*
X829675Y684592D01*
X828690Y683607D01*
X828157Y682321D01*
Y680928D01*
X828690Y679642D01*
X829675Y678657D01*
X830961Y678124D01*
X832353D01*
X833640Y678657D01*
X834624Y679642D01*
X835157Y680928D01*
Y682321D01*
X834624Y683607D01*
X833640Y684592D01*
X832353Y685125D01*
D02*
G37*
G36*
X78446Y683750D02*
X77054D01*
X75767Y683217D01*
X74783Y682233D01*
X74250Y680946D01*
Y679554D01*
X74783Y678267D01*
X75767Y677283D01*
X77054Y676750D01*
X78446D01*
X79733Y677283D01*
X80717Y678267D01*
X81250Y679554D01*
Y680946D01*
X80717Y682233D01*
X79733Y683217D01*
X78446Y683750D01*
D02*
G37*
G36*
X134696Y682500D02*
X133304D01*
X132017Y681967D01*
X131033Y680983D01*
X130500Y679696D01*
Y678304D01*
X131033Y677017D01*
X132017Y676033D01*
X133304Y675500D01*
X134696D01*
X135983Y676033D01*
X136967Y677017D01*
X137500Y678304D01*
Y679696D01*
X136967Y680983D01*
X135983Y681967D01*
X134696Y682500D01*
D02*
G37*
G36*
X170696Y676000D02*
X169304D01*
X168017Y675467D01*
X167033Y674483D01*
X166500Y673196D01*
Y671804D01*
X167033Y670517D01*
X168017Y669533D01*
X169304Y669000D01*
X170696D01*
X171983Y669533D01*
X172967Y670517D01*
X173500Y671804D01*
Y673196D01*
X172967Y674483D01*
X171983Y675467D01*
X170696Y676000D01*
D02*
G37*
G36*
X160696D02*
X159304D01*
X158017Y675467D01*
X157033Y674483D01*
X156500Y673196D01*
Y671804D01*
X157033Y670517D01*
X158017Y669533D01*
X159304Y669000D01*
X160696D01*
X161983Y669533D01*
X162967Y670517D01*
X163500Y671804D01*
Y673196D01*
X162967Y674483D01*
X161983Y675467D01*
X160696Y676000D01*
D02*
G37*
G36*
X150696D02*
X149304D01*
X148017Y675467D01*
X147033Y674483D01*
X146500Y673196D01*
Y671804D01*
X147033Y670517D01*
X148017Y669533D01*
X149304Y669000D01*
X150696D01*
X151983Y669533D01*
X152967Y670517D01*
X153500Y671804D01*
Y673196D01*
X152967Y674483D01*
X151983Y675467D01*
X150696Y676000D01*
D02*
G37*
G36*
X731696Y675500D02*
X730304D01*
X729017Y674967D01*
X728033Y673983D01*
X727500Y672696D01*
Y671304D01*
X728033Y670017D01*
X729017Y669033D01*
X730304Y668500D01*
X731696D01*
X732983Y669033D01*
X733967Y670017D01*
X734500Y671304D01*
Y672696D01*
X733967Y673983D01*
X732983Y674967D01*
X731696Y675500D01*
D02*
G37*
G36*
X680229Y724750D02*
X675271D01*
X670374Y723974D01*
X665658Y722442D01*
X661240Y720191D01*
X657229Y717277D01*
X653723Y713771D01*
X650809Y709760D01*
X648558Y705342D01*
X647026Y700626D01*
X646250Y695729D01*
Y690771D01*
X647026Y685874D01*
X648558Y681158D01*
X650809Y676740D01*
X653723Y672729D01*
X657229Y669223D01*
X661240Y666309D01*
X665658Y664058D01*
X670374Y662526D01*
X675271Y661750D01*
X680229D01*
X685126Y662526D01*
X689842Y664058D01*
X694260Y666309D01*
X698271Y669223D01*
X701777Y672729D01*
X704691Y676740D01*
X706942Y681158D01*
X708474Y685874D01*
X709250Y690771D01*
Y695729D01*
X708474Y700626D01*
X706942Y705342D01*
X704691Y709760D01*
X701777Y713771D01*
X698271Y717277D01*
X694260Y720191D01*
X689842Y722442D01*
X685126Y723974D01*
X680229Y724750D01*
D02*
G37*
G36*
X455229D02*
X450271D01*
X445374Y723974D01*
X440658Y722442D01*
X436240Y720191D01*
X432229Y717277D01*
X428723Y713771D01*
X425809Y709760D01*
X423558Y705342D01*
X422026Y700626D01*
X421250Y695729D01*
Y690771D01*
X422026Y685874D01*
X423558Y681158D01*
X425809Y676740D01*
X428723Y672729D01*
X432229Y669223D01*
X436240Y666309D01*
X440658Y664058D01*
X445374Y662526D01*
X450271Y661750D01*
X455229D01*
X460126Y662526D01*
X464842Y664058D01*
X469260Y666309D01*
X473271Y669223D01*
X476777Y672729D01*
X479691Y676740D01*
X481942Y681158D01*
X483474Y685874D01*
X484250Y690771D01*
Y695729D01*
X483474Y700626D01*
X481942Y705342D01*
X479691Y709760D01*
X476777Y713771D01*
X473271Y717277D01*
X469260Y720191D01*
X464842Y722442D01*
X460126Y723974D01*
X455229Y724750D01*
D02*
G37*
G36*
X230229D02*
X225271D01*
X220374Y723974D01*
X215658Y722442D01*
X211240Y720191D01*
X207229Y717277D01*
X203723Y713771D01*
X200809Y709760D01*
X198558Y705342D01*
X197026Y700626D01*
X196250Y695729D01*
Y690771D01*
X197026Y685874D01*
X198558Y681158D01*
X200809Y676740D01*
X203723Y672729D01*
X207229Y669223D01*
X211240Y666309D01*
X215658Y664058D01*
X220374Y662526D01*
X225271Y661750D01*
X230229D01*
X235126Y662526D01*
X239842Y664058D01*
X244260Y666309D01*
X248271Y669223D01*
X251777Y672729D01*
X254691Y676740D01*
X256942Y681158D01*
X258474Y685874D01*
X259250Y690771D01*
Y695729D01*
X258474Y700626D01*
X256942Y705342D01*
X254691Y709760D01*
X251777Y713771D01*
X248271Y717277D01*
X244260Y720191D01*
X239842Y722442D01*
X235126Y723974D01*
X230229Y724750D01*
D02*
G37*
G36*
X785696Y643500D02*
X784304D01*
X783017Y642967D01*
X782033Y641983D01*
X781937Y641752D01*
X780563D01*
X780467Y641983D01*
X779483Y642967D01*
X778196Y643500D01*
X776804D01*
X775517Y642967D01*
X774533Y641983D01*
X774437Y641752D01*
X773063D01*
X772967Y641983D01*
X771983Y642967D01*
X770696Y643500D01*
X769304D01*
X768017Y642967D01*
X767033Y641983D01*
X766500Y640696D01*
Y639304D01*
X767033Y638017D01*
X768017Y637033D01*
X768248Y636937D01*
Y635563D01*
X768017Y635467D01*
X767033Y634483D01*
X766500Y633196D01*
Y631804D01*
X767033Y630517D01*
X768017Y629533D01*
X768248Y629437D01*
Y628063D01*
X768017Y627967D01*
X767033Y626983D01*
X766500Y625696D01*
Y624304D01*
X767033Y623017D01*
X768017Y622033D01*
X768248Y621937D01*
Y620563D01*
X768017Y620467D01*
X767033Y619483D01*
X766500Y618196D01*
Y616804D01*
X767033Y615517D01*
X768017Y614533D01*
X769304Y614000D01*
X770696D01*
X771983Y614533D01*
X772967Y615517D01*
X773063Y615748D01*
X774437D01*
X774533Y615517D01*
X775517Y614533D01*
X776804Y614000D01*
X778196D01*
X779483Y614533D01*
X780467Y615517D01*
X780563Y615748D01*
X781937D01*
X782033Y615517D01*
X783017Y614533D01*
X784304Y614000D01*
X785696D01*
X786983Y614533D01*
X787967Y615517D01*
X788500Y616804D01*
Y618196D01*
X787967Y619483D01*
X786983Y620467D01*
X786752Y620563D01*
Y621937D01*
X786983Y622033D01*
X787967Y623017D01*
X788500Y624304D01*
Y625696D01*
X787967Y626983D01*
X786983Y627967D01*
X786752Y628063D01*
Y629437D01*
X786983Y629533D01*
X787967Y630517D01*
X788500Y631804D01*
Y633196D01*
X787967Y634483D01*
X786983Y635467D01*
X786752Y635563D01*
Y636937D01*
X786983Y637033D01*
X787967Y638017D01*
X788500Y639304D01*
Y640696D01*
X787967Y641983D01*
X786983Y642967D01*
X785696Y643500D01*
D02*
G37*
G36*
X142196Y646755D02*
X140804D01*
X139517Y646222D01*
X138533Y645238D01*
X138000Y643951D01*
Y642559D01*
X138533Y641272D01*
X139517Y640288D01*
X140804Y639755D01*
X142196D01*
X143483Y640288D01*
X144467Y641272D01*
X145000Y642559D01*
Y643951D01*
X144467Y645238D01*
X143483Y646222D01*
X142196Y646755D01*
D02*
G37*
G36*
X115446Y646755D02*
X114054D01*
X112767Y646222D01*
X111783Y645238D01*
X111250Y643951D01*
Y642559D01*
X111783Y641272D01*
X112767Y640288D01*
X114054Y639755D01*
X115446D01*
X116733Y640288D01*
X117717Y641272D01*
X118250Y642559D01*
Y643951D01*
X117717Y645238D01*
X116733Y646222D01*
X115446Y646755D01*
D02*
G37*
G36*
X82696Y646500D02*
X81304D01*
X80017Y645967D01*
X79033Y644983D01*
X78500Y643696D01*
Y642304D01*
X79033Y641017D01*
X80017Y640033D01*
X81304Y639500D01*
X82696D01*
X83983Y640033D01*
X84967Y641017D01*
X85500Y642304D01*
Y643696D01*
X84967Y644983D01*
X83983Y645967D01*
X82696Y646500D01*
D02*
G37*
G36*
X676696Y611255D02*
X675304D01*
X674017Y610722D01*
X673033Y609738D01*
X672500Y608451D01*
Y607059D01*
X673033Y605772D01*
X674017Y604788D01*
X675304Y604255D01*
X676696D01*
X677983Y604788D01*
X678967Y605772D01*
X679500Y607059D01*
Y608451D01*
X678967Y609738D01*
X677983Y610722D01*
X676696Y611255D01*
D02*
G37*
G36*
X740696Y610500D02*
X739304D01*
X738017Y609967D01*
X737033Y608983D01*
X736500Y607696D01*
Y606304D01*
X737033Y605017D01*
X738017Y604033D01*
X739304Y603500D01*
X740696D01*
X741983Y604033D01*
X742967Y605017D01*
X743500Y606304D01*
Y607696D01*
X742967Y608983D01*
X741983Y609967D01*
X740696Y610500D01*
D02*
G37*
G36*
X72196Y603500D02*
X70804D01*
X69517Y602967D01*
X68533Y601983D01*
X68000Y600696D01*
Y599304D01*
X68533Y598017D01*
X69517Y597033D01*
X70804Y596500D01*
X72196D01*
X73483Y597033D01*
X74467Y598017D01*
X75000Y599304D01*
Y600696D01*
X74467Y601983D01*
X73483Y602967D01*
X72196Y603500D01*
D02*
G37*
G36*
X507196Y597000D02*
X505804D01*
X504517Y596467D01*
X503533Y595483D01*
X503000Y594196D01*
Y592804D01*
X503533Y591517D01*
X504517Y590533D01*
X505804Y590000D01*
X507196D01*
X508483Y590533D01*
X509467Y591517D01*
X510000Y592804D01*
Y594196D01*
X509467Y595483D01*
X508483Y596467D01*
X507196Y597000D01*
D02*
G37*
G36*
X497196D02*
X495804D01*
X494517Y596467D01*
X493533Y595483D01*
X493000Y594196D01*
Y592804D01*
X493533Y591517D01*
X494517Y590533D01*
X495804Y590000D01*
X497196D01*
X498483Y590533D01*
X499467Y591517D01*
X500000Y592804D01*
Y594196D01*
X499467Y595483D01*
X498483Y596467D01*
X497196Y597000D01*
D02*
G37*
G36*
X487196D02*
X485804D01*
X484517Y596467D01*
X483533Y595483D01*
X483000Y594196D01*
Y592804D01*
X483533Y591517D01*
X484517Y590533D01*
X485804Y590000D01*
X487196D01*
X488483Y590533D01*
X489467Y591517D01*
X490000Y592804D01*
Y594196D01*
X489467Y595483D01*
X488483Y596467D01*
X487196Y597000D01*
D02*
G37*
G36*
X477196D02*
X475804D01*
X474517Y596467D01*
X473533Y595483D01*
X473000Y594196D01*
Y592804D01*
X473533Y591517D01*
X474517Y590533D01*
X475804Y590000D01*
X477196D01*
X478483Y590533D01*
X479467Y591517D01*
X480000Y592804D01*
Y594196D01*
X479467Y595483D01*
X478483Y596467D01*
X477196Y597000D01*
D02*
G37*
G36*
X467196D02*
X465804D01*
X464517Y596467D01*
X463533Y595483D01*
X463000Y594196D01*
Y592804D01*
X463533Y591517D01*
X464517Y590533D01*
X465804Y590000D01*
X467196D01*
X468483Y590533D01*
X469467Y591517D01*
X470000Y592804D01*
Y594196D01*
X469467Y595483D01*
X468483Y596467D01*
X467196Y597000D01*
D02*
G37*
G36*
X545996Y597000D02*
X544604D01*
X543317Y596467D01*
X542333Y595483D01*
X541800Y594196D01*
Y592804D01*
X542333Y591517D01*
X543317Y590533D01*
X544604Y590000D01*
X545996D01*
X547283Y590533D01*
X548267Y591517D01*
X548800Y592804D01*
Y594196D01*
X548267Y595483D01*
X547283Y596467D01*
X545996Y597000D01*
D02*
G37*
G36*
X321196D02*
X319804D01*
X318517Y596467D01*
X317533Y595483D01*
X317000Y594196D01*
Y592804D01*
X317533Y591517D01*
X318517Y590533D01*
X319804Y590000D01*
X321196D01*
X322483Y590533D01*
X323467Y591517D01*
X324000Y592804D01*
Y594196D01*
X323467Y595483D01*
X322483Y596467D01*
X321196Y597000D01*
D02*
G37*
G36*
X285696Y596000D02*
X284304D01*
X283017Y595467D01*
X282033Y594483D01*
X281500Y593196D01*
Y591804D01*
X282033Y590517D01*
X283017Y589533D01*
X284304Y589000D01*
X285696D01*
X286983Y589533D01*
X287967Y590517D01*
X288500Y591804D01*
Y593196D01*
X287967Y594483D01*
X286983Y595467D01*
X285696Y596000D01*
D02*
G37*
G36*
X275696D02*
X274304D01*
X273017Y595467D01*
X272033Y594483D01*
X271500Y593196D01*
Y591804D01*
X272033Y590517D01*
X273017Y589533D01*
X274304Y589000D01*
X275696D01*
X276983Y589533D01*
X277967Y590517D01*
X278500Y591804D01*
Y593196D01*
X277967Y594483D01*
X276983Y595467D01*
X275696Y596000D01*
D02*
G37*
G36*
X265696D02*
X264304D01*
X263017Y595467D01*
X262033Y594483D01*
X261500Y593196D01*
Y591804D01*
X262033Y590517D01*
X263017Y589533D01*
X264304Y589000D01*
X265696D01*
X266983Y589533D01*
X267967Y590517D01*
X268500Y591804D01*
Y593196D01*
X267967Y594483D01*
X266983Y595467D01*
X265696Y596000D01*
D02*
G37*
G36*
X255696D02*
X254304D01*
X253017Y595467D01*
X252033Y594483D01*
X251500Y593196D01*
Y591804D01*
X252033Y590517D01*
X253017Y589533D01*
X254304Y589000D01*
X255696D01*
X256983Y589533D01*
X257967Y590517D01*
X258500Y591804D01*
Y593196D01*
X257967Y594483D01*
X256983Y595467D01*
X255696Y596000D01*
D02*
G37*
G36*
X245696D02*
X244304D01*
X243017Y595467D01*
X242033Y594483D01*
X241500Y593196D01*
Y591804D01*
X242033Y590517D01*
X243017Y589533D01*
X244304Y589000D01*
X245696D01*
X246983Y589533D01*
X247967Y590517D01*
X248500Y591804D01*
Y593196D01*
X247967Y594483D01*
X246983Y595467D01*
X245696Y596000D01*
D02*
G37*
G36*
X527196Y587000D02*
X525804D01*
X524517Y586467D01*
X523533Y585483D01*
X523000Y584196D01*
Y582804D01*
X523533Y581517D01*
X524517Y580533D01*
X525804Y580000D01*
X527196D01*
X528483Y580533D01*
X529467Y581517D01*
X530000Y582804D01*
Y584196D01*
X529467Y585483D01*
X528483Y586467D01*
X527196Y587000D01*
D02*
G37*
G36*
X517196D02*
X515804D01*
X514517Y586467D01*
X513533Y585483D01*
X513000Y584196D01*
Y582804D01*
X513533Y581517D01*
X514517Y580533D01*
X515804Y580000D01*
X517196D01*
X518483Y580533D01*
X519467Y581517D01*
X520000Y582804D01*
Y584196D01*
X519467Y585483D01*
X518483Y586467D01*
X517196Y587000D01*
D02*
G37*
G36*
X507196D02*
X505804D01*
X504517Y586467D01*
X503533Y585483D01*
X503000Y584196D01*
Y582804D01*
X503533Y581517D01*
X504517Y580533D01*
X505804Y580000D01*
X507196D01*
X508483Y580533D01*
X509467Y581517D01*
X510000Y582804D01*
Y584196D01*
X509467Y585483D01*
X508483Y586467D01*
X507196Y587000D01*
D02*
G37*
G36*
X497196D02*
X495804D01*
X494517Y586467D01*
X493533Y585483D01*
X493000Y584196D01*
Y582804D01*
X493533Y581517D01*
X494517Y580533D01*
X495804Y580000D01*
X497196D01*
X498483Y580533D01*
X499467Y581517D01*
X500000Y582804D01*
Y584196D01*
X499467Y585483D01*
X498483Y586467D01*
X497196Y587000D01*
D02*
G37*
G36*
X487196D02*
X485804D01*
X484517Y586467D01*
X483533Y585483D01*
X483000Y584196D01*
Y582804D01*
X483533Y581517D01*
X484517Y580533D01*
X485804Y580000D01*
X487196D01*
X488483Y580533D01*
X489467Y581517D01*
X490000Y582804D01*
Y584196D01*
X489467Y585483D01*
X488483Y586467D01*
X487196Y587000D01*
D02*
G37*
G36*
X477196D02*
X475804D01*
X474517Y586467D01*
X473533Y585483D01*
X473000Y584196D01*
Y582804D01*
X473533Y581517D01*
X474517Y580533D01*
X475804Y580000D01*
X477196D01*
X478483Y580533D01*
X479467Y581517D01*
X480000Y582804D01*
Y584196D01*
X479467Y585483D01*
X478483Y586467D01*
X477196Y587000D01*
D02*
G37*
G36*
X467196D02*
X465804D01*
X464517Y586467D01*
X463533Y585483D01*
X463000Y584196D01*
Y582804D01*
X463533Y581517D01*
X464517Y580533D01*
X465804Y580000D01*
X467196D01*
X468483Y580533D01*
X469467Y581517D01*
X470000Y582804D01*
Y584196D01*
X469467Y585483D01*
X468483Y586467D01*
X467196Y587000D01*
D02*
G37*
G36*
X305696Y586000D02*
X304304D01*
X303017Y585467D01*
X302033Y584483D01*
X301500Y583196D01*
Y581804D01*
X302033Y580517D01*
X303017Y579533D01*
X304304Y579000D01*
X305696D01*
X306983Y579533D01*
X307967Y580517D01*
X308500Y581804D01*
Y583196D01*
X307967Y584483D01*
X306983Y585467D01*
X305696Y586000D01*
D02*
G37*
G36*
X295696D02*
X294304D01*
X293017Y585467D01*
X292033Y584483D01*
X291500Y583196D01*
Y581804D01*
X292033Y580517D01*
X293017Y579533D01*
X294304Y579000D01*
X295696D01*
X296983Y579533D01*
X297967Y580517D01*
X298500Y581804D01*
Y583196D01*
X297967Y584483D01*
X296983Y585467D01*
X295696Y586000D01*
D02*
G37*
G36*
X285696D02*
X284304D01*
X283017Y585467D01*
X282033Y584483D01*
X281500Y583196D01*
Y581804D01*
X282033Y580517D01*
X283017Y579533D01*
X284304Y579000D01*
X285696D01*
X286983Y579533D01*
X287967Y580517D01*
X288500Y581804D01*
Y583196D01*
X287967Y584483D01*
X286983Y585467D01*
X285696Y586000D01*
D02*
G37*
G36*
X275696D02*
X274304D01*
X273017Y585467D01*
X272033Y584483D01*
X271500Y583196D01*
Y581804D01*
X272033Y580517D01*
X273017Y579533D01*
X274304Y579000D01*
X275696D01*
X276983Y579533D01*
X277967Y580517D01*
X278500Y581804D01*
Y583196D01*
X277967Y584483D01*
X276983Y585467D01*
X275696Y586000D01*
D02*
G37*
G36*
X265696D02*
X264304D01*
X263017Y585467D01*
X262033Y584483D01*
X261500Y583196D01*
Y581804D01*
X262033Y580517D01*
X263017Y579533D01*
X264304Y579000D01*
X265696D01*
X266983Y579533D01*
X267967Y580517D01*
X268500Y581804D01*
Y583196D01*
X267967Y584483D01*
X266983Y585467D01*
X265696Y586000D01*
D02*
G37*
G36*
X255696D02*
X254304D01*
X253017Y585467D01*
X252033Y584483D01*
X251500Y583196D01*
Y581804D01*
X252033Y580517D01*
X253017Y579533D01*
X254304Y579000D01*
X255696D01*
X256983Y579533D01*
X257967Y580517D01*
X258500Y581804D01*
Y583196D01*
X257967Y584483D01*
X256983Y585467D01*
X255696Y586000D01*
D02*
G37*
G36*
X245696D02*
X244304D01*
X243017Y585467D01*
X242033Y584483D01*
X241500Y583196D01*
Y581804D01*
X242033Y580517D01*
X243017Y579533D01*
X244304Y579000D01*
X245696D01*
X246983Y579533D01*
X247967Y580517D01*
X248500Y581804D01*
Y583196D01*
X247967Y584483D01*
X246983Y585467D01*
X245696Y586000D01*
D02*
G37*
G36*
X747896Y583255D02*
X746504D01*
X745218Y582722D01*
X744233Y581738D01*
X743700Y580451D01*
Y579059D01*
X744233Y577772D01*
X745218Y576788D01*
X746504Y576255D01*
X747896D01*
X749183Y576788D01*
X750167Y577772D01*
X750700Y579059D01*
Y580451D01*
X750167Y581738D01*
X749183Y582722D01*
X747896Y583255D01*
D02*
G37*
G36*
X763896Y580750D02*
X762504D01*
X761217Y580217D01*
X760233Y579233D01*
X759700Y577946D01*
Y576554D01*
X760233Y575267D01*
X761217Y574283D01*
X762504Y573750D01*
X763896D01*
X765183Y574283D01*
X766167Y575267D01*
X766700Y576554D01*
Y577946D01*
X766167Y579233D01*
X765183Y580217D01*
X763896Y580750D01*
D02*
G37*
G36*
X731461D02*
X730068D01*
X728782Y580217D01*
X727797Y579233D01*
X727264Y577946D01*
Y576554D01*
X727797Y575267D01*
X728782Y574283D01*
X730068Y573750D01*
X731461D01*
X732747Y574283D01*
X733732Y575267D01*
X734264Y576554D01*
Y577946D01*
X733732Y579233D01*
X732747Y580217D01*
X731461Y580750D01*
D02*
G37*
G36*
X527196Y577000D02*
X525804D01*
X524517Y576467D01*
X523533Y575483D01*
X523000Y574196D01*
Y572804D01*
X523533Y571517D01*
X524517Y570533D01*
X525804Y570000D01*
X527196D01*
X528483Y570533D01*
X529467Y571517D01*
X530000Y572804D01*
Y574196D01*
X529467Y575483D01*
X528483Y576467D01*
X527196Y577000D01*
D02*
G37*
G36*
X517196D02*
X515804D01*
X514517Y576467D01*
X513533Y575483D01*
X513000Y574196D01*
Y572804D01*
X513533Y571517D01*
X514517Y570533D01*
X515804Y570000D01*
X517196D01*
X518483Y570533D01*
X519467Y571517D01*
X520000Y572804D01*
Y574196D01*
X519467Y575483D01*
X518483Y576467D01*
X517196Y577000D01*
D02*
G37*
G36*
X507196D02*
X505804D01*
X504517Y576467D01*
X503533Y575483D01*
X503000Y574196D01*
Y572804D01*
X503533Y571517D01*
X504517Y570533D01*
X505804Y570000D01*
X507196D01*
X508483Y570533D01*
X509467Y571517D01*
X510000Y572804D01*
Y574196D01*
X509467Y575483D01*
X508483Y576467D01*
X507196Y577000D01*
D02*
G37*
G36*
X497196D02*
X495804D01*
X494517Y576467D01*
X493533Y575483D01*
X493000Y574196D01*
Y572804D01*
X493533Y571517D01*
X494517Y570533D01*
X495804Y570000D01*
X497196D01*
X498483Y570533D01*
X499467Y571517D01*
X500000Y572804D01*
Y574196D01*
X499467Y575483D01*
X498483Y576467D01*
X497196Y577000D01*
D02*
G37*
G36*
X487196D02*
X485804D01*
X484517Y576467D01*
X483533Y575483D01*
X483000Y574196D01*
Y572804D01*
X483533Y571517D01*
X484517Y570533D01*
X485804Y570000D01*
X487196D01*
X488483Y570533D01*
X489467Y571517D01*
X490000Y572804D01*
Y574196D01*
X489467Y575483D01*
X488483Y576467D01*
X487196Y577000D01*
D02*
G37*
G36*
X477196D02*
X475804D01*
X474517Y576467D01*
X473533Y575483D01*
X473000Y574196D01*
Y572804D01*
X473533Y571517D01*
X474517Y570533D01*
X475804Y570000D01*
X477196D01*
X478483Y570533D01*
X479467Y571517D01*
X480000Y572804D01*
Y574196D01*
X479467Y575483D01*
X478483Y576467D01*
X477196Y577000D01*
D02*
G37*
G36*
X467196D02*
X465804D01*
X464517Y576467D01*
X463533Y575483D01*
X463000Y574196D01*
Y572804D01*
X463533Y571517D01*
X464517Y570533D01*
X465804Y570000D01*
X467196D01*
X468483Y570533D01*
X469467Y571517D01*
X470000Y572804D01*
Y574196D01*
X469467Y575483D01*
X468483Y576467D01*
X467196Y577000D01*
D02*
G37*
G36*
X305696Y576000D02*
X304304D01*
X303017Y575467D01*
X302033Y574483D01*
X301500Y573196D01*
Y571804D01*
X302033Y570517D01*
X303017Y569533D01*
X304304Y569000D01*
X305696D01*
X306983Y569533D01*
X307967Y570517D01*
X308500Y571804D01*
Y573196D01*
X307967Y574483D01*
X306983Y575467D01*
X305696Y576000D01*
D02*
G37*
G36*
X295696D02*
X294304D01*
X293017Y575467D01*
X292033Y574483D01*
X291500Y573196D01*
Y571804D01*
X292033Y570517D01*
X293017Y569533D01*
X294304Y569000D01*
X295696D01*
X296983Y569533D01*
X297967Y570517D01*
X298500Y571804D01*
Y573196D01*
X297967Y574483D01*
X296983Y575467D01*
X295696Y576000D01*
D02*
G37*
G36*
X285696D02*
X284304D01*
X283017Y575467D01*
X282033Y574483D01*
X281500Y573196D01*
Y571804D01*
X282033Y570517D01*
X283017Y569533D01*
X284304Y569000D01*
X285696D01*
X286983Y569533D01*
X287967Y570517D01*
X288500Y571804D01*
Y573196D01*
X287967Y574483D01*
X286983Y575467D01*
X285696Y576000D01*
D02*
G37*
G36*
X275696D02*
X274304D01*
X273017Y575467D01*
X272033Y574483D01*
X271500Y573196D01*
Y571804D01*
X272033Y570517D01*
X273017Y569533D01*
X274304Y569000D01*
X275696D01*
X276983Y569533D01*
X277967Y570517D01*
X278500Y571804D01*
Y573196D01*
X277967Y574483D01*
X276983Y575467D01*
X275696Y576000D01*
D02*
G37*
G36*
X265696D02*
X264304D01*
X263017Y575467D01*
X262033Y574483D01*
X261500Y573196D01*
Y571804D01*
X262033Y570517D01*
X263017Y569533D01*
X264304Y569000D01*
X265696D01*
X266983Y569533D01*
X267967Y570517D01*
X268500Y571804D01*
Y573196D01*
X267967Y574483D01*
X266983Y575467D01*
X265696Y576000D01*
D02*
G37*
G36*
X255696D02*
X254304D01*
X253017Y575467D01*
X252033Y574483D01*
X251500Y573196D01*
Y571804D01*
X252033Y570517D01*
X253017Y569533D01*
X254304Y569000D01*
X255696D01*
X256983Y569533D01*
X257967Y570517D01*
X258500Y571804D01*
Y573196D01*
X257967Y574483D01*
X256983Y575467D01*
X255696Y576000D01*
D02*
G37*
G36*
X245696D02*
X244304D01*
X243017Y575467D01*
X242033Y574483D01*
X241500Y573196D01*
Y571804D01*
X242033Y570517D01*
X243017Y569533D01*
X244304Y569000D01*
X245696D01*
X246983Y569533D01*
X247967Y570517D01*
X248500Y571804D01*
Y573196D01*
X247967Y574483D01*
X246983Y575467D01*
X245696Y576000D01*
D02*
G37*
G36*
X591063Y569669D02*
X589671D01*
X588385Y569136D01*
X587400Y568152D01*
X586867Y566865D01*
Y565473D01*
X587400Y564187D01*
X588385Y563202D01*
X589671Y562669D01*
X591063D01*
X592350Y563202D01*
X593334Y564187D01*
X593867Y565473D01*
Y566865D01*
X593334Y568152D01*
X592350Y569136D01*
X591063Y569669D01*
D02*
G37*
G36*
X537196Y567000D02*
X535804D01*
X534517Y566467D01*
X533533Y565483D01*
X533000Y564196D01*
Y562804D01*
X533533Y561517D01*
X534517Y560533D01*
X535804Y560000D01*
X537196D01*
X538483Y560533D01*
X539467Y561517D01*
X540000Y562804D01*
Y564196D01*
X539467Y565483D01*
X538483Y566467D01*
X537196Y567000D01*
D02*
G37*
G36*
X527196D02*
X525804D01*
X524517Y566467D01*
X523533Y565483D01*
X523000Y564196D01*
Y562804D01*
X523533Y561517D01*
X524517Y560533D01*
X525804Y560000D01*
X527196D01*
X528483Y560533D01*
X529467Y561517D01*
X530000Y562804D01*
Y564196D01*
X529467Y565483D01*
X528483Y566467D01*
X527196Y567000D01*
D02*
G37*
G36*
X517196D02*
X515804D01*
X514517Y566467D01*
X513533Y565483D01*
X513000Y564196D01*
Y562804D01*
X513533Y561517D01*
X514517Y560533D01*
X515804Y560000D01*
X517196D01*
X518483Y560533D01*
X519467Y561517D01*
X520000Y562804D01*
Y564196D01*
X519467Y565483D01*
X518483Y566467D01*
X517196Y567000D01*
D02*
G37*
G36*
X507196D02*
X505804D01*
X504517Y566467D01*
X503533Y565483D01*
X503000Y564196D01*
Y562804D01*
X503533Y561517D01*
X504517Y560533D01*
X505804Y560000D01*
X507196D01*
X508483Y560533D01*
X509467Y561517D01*
X510000Y562804D01*
Y564196D01*
X509467Y565483D01*
X508483Y566467D01*
X507196Y567000D01*
D02*
G37*
G36*
X497196D02*
X495804D01*
X494517Y566467D01*
X493533Y565483D01*
X493000Y564196D01*
Y562804D01*
X493533Y561517D01*
X494517Y560533D01*
X495804Y560000D01*
X497196D01*
X498483Y560533D01*
X499467Y561517D01*
X500000Y562804D01*
Y564196D01*
X499467Y565483D01*
X498483Y566467D01*
X497196Y567000D01*
D02*
G37*
G36*
X487196D02*
X485804D01*
X484517Y566467D01*
X483533Y565483D01*
X483000Y564196D01*
Y562804D01*
X483533Y561517D01*
X484517Y560533D01*
X485804Y560000D01*
X487196D01*
X488483Y560533D01*
X489467Y561517D01*
X490000Y562804D01*
Y564196D01*
X489467Y565483D01*
X488483Y566467D01*
X487196Y567000D01*
D02*
G37*
G36*
X477196D02*
X475804D01*
X474517Y566467D01*
X473533Y565483D01*
X473000Y564196D01*
Y562804D01*
X473533Y561517D01*
X474517Y560533D01*
X475804Y560000D01*
X477196D01*
X478483Y560533D01*
X479467Y561517D01*
X480000Y562804D01*
Y564196D01*
X479467Y565483D01*
X478483Y566467D01*
X477196Y567000D01*
D02*
G37*
G36*
X467196D02*
X465804D01*
X464517Y566467D01*
X463533Y565483D01*
X463000Y564196D01*
Y562804D01*
X463533Y561517D01*
X464517Y560533D01*
X465804Y560000D01*
X467196D01*
X468483Y560533D01*
X469467Y561517D01*
X470000Y562804D01*
Y564196D01*
X469467Y565483D01*
X468483Y566467D01*
X467196Y567000D01*
D02*
G37*
G36*
X315696Y566000D02*
X314304D01*
X313017Y565467D01*
X312033Y564483D01*
X311500Y563196D01*
Y561804D01*
X312033Y560517D01*
X313017Y559533D01*
X314304Y559000D01*
X315696D01*
X316983Y559533D01*
X317967Y560517D01*
X318500Y561804D01*
Y563196D01*
X317967Y564483D01*
X316983Y565467D01*
X315696Y566000D01*
D02*
G37*
G36*
X305696D02*
X304304D01*
X303017Y565467D01*
X302033Y564483D01*
X301500Y563196D01*
Y561804D01*
X302033Y560517D01*
X303017Y559533D01*
X304304Y559000D01*
X305696D01*
X306983Y559533D01*
X307967Y560517D01*
X308500Y561804D01*
Y563196D01*
X307967Y564483D01*
X306983Y565467D01*
X305696Y566000D01*
D02*
G37*
G36*
X295696D02*
X294304D01*
X293017Y565467D01*
X292033Y564483D01*
X291500Y563196D01*
Y561804D01*
X292033Y560517D01*
X293017Y559533D01*
X294304Y559000D01*
X295696D01*
X296983Y559533D01*
X297967Y560517D01*
X298500Y561804D01*
Y563196D01*
X297967Y564483D01*
X296983Y565467D01*
X295696Y566000D01*
D02*
G37*
G36*
X285696D02*
X284304D01*
X283017Y565467D01*
X282033Y564483D01*
X281500Y563196D01*
Y561804D01*
X282033Y560517D01*
X283017Y559533D01*
X284304Y559000D01*
X285696D01*
X286983Y559533D01*
X287967Y560517D01*
X288500Y561804D01*
Y563196D01*
X287967Y564483D01*
X286983Y565467D01*
X285696Y566000D01*
D02*
G37*
G36*
X275696D02*
X274304D01*
X273017Y565467D01*
X272033Y564483D01*
X271500Y563196D01*
Y561804D01*
X272033Y560517D01*
X273017Y559533D01*
X274304Y559000D01*
X275696D01*
X276983Y559533D01*
X277967Y560517D01*
X278500Y561804D01*
Y563196D01*
X277967Y564483D01*
X276983Y565467D01*
X275696Y566000D01*
D02*
G37*
G36*
X265696D02*
X264304D01*
X263017Y565467D01*
X262033Y564483D01*
X261500Y563196D01*
Y561804D01*
X262033Y560517D01*
X263017Y559533D01*
X264304Y559000D01*
X265696D01*
X266983Y559533D01*
X267967Y560517D01*
X268500Y561804D01*
Y563196D01*
X267967Y564483D01*
X266983Y565467D01*
X265696Y566000D01*
D02*
G37*
G36*
X255696D02*
X254304D01*
X253017Y565467D01*
X252033Y564483D01*
X251500Y563196D01*
Y561804D01*
X252033Y560517D01*
X253017Y559533D01*
X254304Y559000D01*
X255696D01*
X256983Y559533D01*
X257967Y560517D01*
X258500Y561804D01*
Y563196D01*
X257967Y564483D01*
X256983Y565467D01*
X255696Y566000D01*
D02*
G37*
G36*
X245696D02*
X244304D01*
X243017Y565467D01*
X242033Y564483D01*
X241500Y563196D01*
Y561804D01*
X242033Y560517D01*
X243017Y559533D01*
X244304Y559000D01*
X245696D01*
X246983Y559533D01*
X247967Y560517D01*
X248500Y561804D01*
Y563196D01*
X247967Y564483D01*
X246983Y565467D01*
X245696Y566000D01*
D02*
G37*
G36*
X583688Y564865D02*
X582296D01*
X581009Y564333D01*
X580025Y563348D01*
X579492Y562062D01*
Y560669D01*
X580025Y559383D01*
X581009Y558398D01*
X582296Y557865D01*
X583688D01*
X584975Y558398D01*
X585959Y559383D01*
X586492Y560669D01*
Y562062D01*
X585959Y563348D01*
X584975Y564333D01*
X583688Y564865D01*
D02*
G37*
G36*
X537196Y557000D02*
X535804D01*
X534517Y556467D01*
X533533Y555483D01*
X533000Y554196D01*
Y552804D01*
X533533Y551517D01*
X534517Y550533D01*
X535804Y550000D01*
X537196D01*
X538483Y550533D01*
X539467Y551517D01*
X540000Y552804D01*
Y554196D01*
X539467Y555483D01*
X538483Y556467D01*
X537196Y557000D01*
D02*
G37*
G36*
X527196D02*
X525804D01*
X524517Y556467D01*
X523533Y555483D01*
X523000Y554196D01*
Y552804D01*
X523533Y551517D01*
X524517Y550533D01*
X525804Y550000D01*
X527196D01*
X528483Y550533D01*
X529467Y551517D01*
X530000Y552804D01*
Y554196D01*
X529467Y555483D01*
X528483Y556467D01*
X527196Y557000D01*
D02*
G37*
G36*
X517196D02*
X515804D01*
X514517Y556467D01*
X513533Y555483D01*
X513000Y554196D01*
Y552804D01*
X513533Y551517D01*
X514517Y550533D01*
X515804Y550000D01*
X517196D01*
X518483Y550533D01*
X519467Y551517D01*
X520000Y552804D01*
Y554196D01*
X519467Y555483D01*
X518483Y556467D01*
X517196Y557000D01*
D02*
G37*
G36*
X507196D02*
X505804D01*
X504517Y556467D01*
X503533Y555483D01*
X503000Y554196D01*
Y552804D01*
X503533Y551517D01*
X504517Y550533D01*
X505804Y550000D01*
X507196D01*
X508483Y550533D01*
X509467Y551517D01*
X510000Y552804D01*
Y554196D01*
X509467Y555483D01*
X508483Y556467D01*
X507196Y557000D01*
D02*
G37*
G36*
X497196D02*
X495804D01*
X494517Y556467D01*
X493533Y555483D01*
X493000Y554196D01*
Y552804D01*
X493533Y551517D01*
X494517Y550533D01*
X495804Y550000D01*
X497196D01*
X498483Y550533D01*
X499467Y551517D01*
X500000Y552804D01*
Y554196D01*
X499467Y555483D01*
X498483Y556467D01*
X497196Y557000D01*
D02*
G37*
G36*
X487196D02*
X485804D01*
X484517Y556467D01*
X483533Y555483D01*
X483000Y554196D01*
Y552804D01*
X483533Y551517D01*
X484517Y550533D01*
X485804Y550000D01*
X487196D01*
X488483Y550533D01*
X489467Y551517D01*
X490000Y552804D01*
Y554196D01*
X489467Y555483D01*
X488483Y556467D01*
X487196Y557000D01*
D02*
G37*
G36*
X477196D02*
X475804D01*
X474517Y556467D01*
X473533Y555483D01*
X473000Y554196D01*
Y552804D01*
X473533Y551517D01*
X474517Y550533D01*
X475804Y550000D01*
X477196D01*
X478483Y550533D01*
X479467Y551517D01*
X480000Y552804D01*
Y554196D01*
X479467Y555483D01*
X478483Y556467D01*
X477196Y557000D01*
D02*
G37*
G36*
X467196D02*
X465804D01*
X464517Y556467D01*
X463533Y555483D01*
X463000Y554196D01*
Y552804D01*
X463533Y551517D01*
X464517Y550533D01*
X465804Y550000D01*
X467196D01*
X468483Y550533D01*
X469467Y551517D01*
X470000Y552804D01*
Y554196D01*
X469467Y555483D01*
X468483Y556467D01*
X467196Y557000D01*
D02*
G37*
G36*
X315696Y556000D02*
X314304D01*
X313017Y555467D01*
X312033Y554483D01*
X311500Y553196D01*
Y551804D01*
X312033Y550517D01*
X313017Y549533D01*
X314304Y549000D01*
X315696D01*
X316983Y549533D01*
X317967Y550517D01*
X318500Y551804D01*
Y553196D01*
X317967Y554483D01*
X316983Y555467D01*
X315696Y556000D01*
D02*
G37*
G36*
X305696D02*
X304304D01*
X303017Y555467D01*
X302033Y554483D01*
X301500Y553196D01*
Y551804D01*
X302033Y550517D01*
X303017Y549533D01*
X304304Y549000D01*
X305696D01*
X306983Y549533D01*
X307967Y550517D01*
X308500Y551804D01*
Y553196D01*
X307967Y554483D01*
X306983Y555467D01*
X305696Y556000D01*
D02*
G37*
G36*
X295696D02*
X294304D01*
X293017Y555467D01*
X292033Y554483D01*
X291500Y553196D01*
Y551804D01*
X292033Y550517D01*
X293017Y549533D01*
X294304Y549000D01*
X295696D01*
X296983Y549533D01*
X297967Y550517D01*
X298500Y551804D01*
Y553196D01*
X297967Y554483D01*
X296983Y555467D01*
X295696Y556000D01*
D02*
G37*
G36*
X285696D02*
X284304D01*
X283017Y555467D01*
X282033Y554483D01*
X281500Y553196D01*
Y551804D01*
X282033Y550517D01*
X283017Y549533D01*
X284304Y549000D01*
X285696D01*
X286983Y549533D01*
X287967Y550517D01*
X288500Y551804D01*
Y553196D01*
X287967Y554483D01*
X286983Y555467D01*
X285696Y556000D01*
D02*
G37*
G36*
X275696D02*
X274304D01*
X273017Y555467D01*
X272033Y554483D01*
X271500Y553196D01*
Y551804D01*
X272033Y550517D01*
X273017Y549533D01*
X274304Y549000D01*
X275696D01*
X276983Y549533D01*
X277967Y550517D01*
X278500Y551804D01*
Y553196D01*
X277967Y554483D01*
X276983Y555467D01*
X275696Y556000D01*
D02*
G37*
G36*
X265696D02*
X264304D01*
X263017Y555467D01*
X262033Y554483D01*
X261500Y553196D01*
Y551804D01*
X262033Y550517D01*
X263017Y549533D01*
X264304Y549000D01*
X265696D01*
X266983Y549533D01*
X267967Y550517D01*
X268500Y551804D01*
Y553196D01*
X267967Y554483D01*
X266983Y555467D01*
X265696Y556000D01*
D02*
G37*
G36*
X255696D02*
X254304D01*
X253017Y555467D01*
X252033Y554483D01*
X251500Y553196D01*
Y551804D01*
X252033Y550517D01*
X253017Y549533D01*
X254304Y549000D01*
X255696D01*
X256983Y549533D01*
X257967Y550517D01*
X258500Y551804D01*
Y553196D01*
X257967Y554483D01*
X256983Y555467D01*
X255696Y556000D01*
D02*
G37*
G36*
X245696D02*
X244304D01*
X243017Y555467D01*
X242033Y554483D01*
X241500Y553196D01*
Y551804D01*
X242033Y550517D01*
X243017Y549533D01*
X244304Y549000D01*
X245696D01*
X246983Y549533D01*
X247967Y550517D01*
X248500Y551804D01*
Y553196D01*
X247967Y554483D01*
X246983Y555467D01*
X245696Y556000D01*
D02*
G37*
G36*
X91193Y557180D02*
X88806D01*
X86601Y556267D01*
X84913Y554579D01*
X84000Y552374D01*
Y549987D01*
X84913Y547781D01*
X86601Y546093D01*
X88806Y545180D01*
X91193D01*
X93399Y546093D01*
X95086Y547781D01*
X96000Y549987D01*
Y552374D01*
X95086Y554579D01*
X93399Y556267D01*
X91193Y557180D01*
D02*
G37*
G36*
X71193D02*
X68807D01*
X66601Y556267D01*
X64914Y554579D01*
X64000Y552374D01*
Y549987D01*
X64914Y547781D01*
X66601Y546093D01*
X68807Y545180D01*
X71193D01*
X73399Y546093D01*
X75087Y547781D01*
X76000Y549987D01*
Y552374D01*
X75087Y554579D01*
X73399Y556267D01*
X71193Y557180D01*
D02*
G37*
G36*
X826015Y552103D02*
X824185D01*
X822416Y551629D01*
X820831Y550714D01*
X819536Y549419D01*
X818621Y547834D01*
X818147Y546065D01*
Y544235D01*
X818621Y542466D01*
X819536Y540881D01*
X820831Y539586D01*
X822416Y538671D01*
X824185Y538197D01*
X826015D01*
X827784Y538671D01*
X829369Y539586D01*
X830664Y540881D01*
X831579Y542466D01*
X832053Y544235D01*
Y546065D01*
X831579Y547834D01*
X830664Y549419D01*
X829369Y550714D01*
X827784Y551629D01*
X826015Y552103D01*
D02*
G37*
G36*
X325696Y543500D02*
X324304D01*
X323017Y542967D01*
X322033Y541983D01*
X321500Y540696D01*
Y539304D01*
X322033Y538017D01*
X323017Y537033D01*
X324304Y536500D01*
X325696D01*
X326983Y537033D01*
X327967Y538017D01*
X328500Y539304D01*
Y540696D01*
X327967Y541983D01*
X326983Y542967D01*
X325696Y543500D01*
D02*
G37*
G36*
X315696D02*
X314304D01*
X313017Y542967D01*
X312033Y541983D01*
X311500Y540696D01*
Y539304D01*
X312033Y538017D01*
X313017Y537033D01*
X314304Y536500D01*
X315696D01*
X316983Y537033D01*
X317967Y538017D01*
X318500Y539304D01*
Y540696D01*
X317967Y541983D01*
X316983Y542967D01*
X315696Y543500D01*
D02*
G37*
G36*
X305696D02*
X304304D01*
X303017Y542967D01*
X302033Y541983D01*
X301500Y540696D01*
Y539304D01*
X302033Y538017D01*
X303017Y537033D01*
X304304Y536500D01*
X305696D01*
X306983Y537033D01*
X307967Y538017D01*
X308500Y539304D01*
Y540696D01*
X307967Y541983D01*
X306983Y542967D01*
X305696Y543500D01*
D02*
G37*
G36*
X295696D02*
X294304D01*
X293017Y542967D01*
X292033Y541983D01*
X291500Y540696D01*
Y539304D01*
X292033Y538017D01*
X293017Y537033D01*
X294304Y536500D01*
X295696D01*
X296983Y537033D01*
X297967Y538017D01*
X298500Y539304D01*
Y540696D01*
X297967Y541983D01*
X296983Y542967D01*
X295696Y543500D01*
D02*
G37*
G36*
X285696D02*
X284304D01*
X283017Y542967D01*
X282033Y541983D01*
X281500Y540696D01*
Y539304D01*
X282033Y538017D01*
X283017Y537033D01*
X284304Y536500D01*
X285696D01*
X286983Y537033D01*
X287967Y538017D01*
X288500Y539304D01*
Y540696D01*
X287967Y541983D01*
X286983Y542967D01*
X285696Y543500D01*
D02*
G37*
G36*
X275696D02*
X274304D01*
X273017Y542967D01*
X272033Y541983D01*
X271500Y540696D01*
Y539304D01*
X272033Y538017D01*
X273017Y537033D01*
X274304Y536500D01*
X275696D01*
X276983Y537033D01*
X277967Y538017D01*
X278500Y539304D01*
Y540696D01*
X277967Y541983D01*
X276983Y542967D01*
X275696Y543500D01*
D02*
G37*
G36*
X265696D02*
X264304D01*
X263017Y542967D01*
X262033Y541983D01*
X261500Y540696D01*
Y539304D01*
X262033Y538017D01*
X263017Y537033D01*
X264304Y536500D01*
X265696D01*
X266983Y537033D01*
X267967Y538017D01*
X268500Y539304D01*
Y540696D01*
X267967Y541983D01*
X266983Y542967D01*
X265696Y543500D01*
D02*
G37*
G36*
X255696D02*
X254304D01*
X253017Y542967D01*
X252033Y541983D01*
X251500Y540696D01*
Y539304D01*
X252033Y538017D01*
X253017Y537033D01*
X254304Y536500D01*
X255696D01*
X256983Y537033D01*
X257967Y538017D01*
X258500Y539304D01*
Y540696D01*
X257967Y541983D01*
X256983Y542967D01*
X255696Y543500D01*
D02*
G37*
G36*
X245696D02*
X244304D01*
X243017Y542967D01*
X242033Y541983D01*
X241500Y540696D01*
Y539304D01*
X242033Y538017D01*
X243017Y537033D01*
X244304Y536500D01*
X245696D01*
X246983Y537033D01*
X247967Y538017D01*
X248500Y539304D01*
Y540696D01*
X247967Y541983D01*
X246983Y542967D01*
X245696Y543500D01*
D02*
G37*
G36*
X547755Y542337D02*
X546362D01*
X545076Y541804D01*
X544091Y540819D01*
X543559Y539533D01*
Y538141D01*
X544091Y536854D01*
X545076Y535870D01*
X546362Y535337D01*
X547755D01*
X549041Y535870D01*
X550026Y536854D01*
X550559Y538141D01*
Y539533D01*
X550026Y540819D01*
X549041Y541804D01*
X547755Y542337D01*
D02*
G37*
G36*
X537755D02*
X536362D01*
X535076Y541804D01*
X534091Y540819D01*
X533559Y539533D01*
Y538141D01*
X534091Y536854D01*
X535076Y535870D01*
X536362Y535337D01*
X537755D01*
X539041Y535870D01*
X540026Y536854D01*
X540559Y538141D01*
Y539533D01*
X540026Y540819D01*
X539041Y541804D01*
X537755Y542337D01*
D02*
G37*
G36*
X527755D02*
X526362D01*
X525076Y541804D01*
X524091Y540819D01*
X523559Y539533D01*
Y538141D01*
X524091Y536854D01*
X525076Y535870D01*
X526362Y535337D01*
X527755D01*
X529041Y535870D01*
X530026Y536854D01*
X530559Y538141D01*
Y539533D01*
X530026Y540819D01*
X529041Y541804D01*
X527755Y542337D01*
D02*
G37*
G36*
X517755D02*
X516362D01*
X515076Y541804D01*
X514091Y540819D01*
X513559Y539533D01*
Y538141D01*
X514091Y536854D01*
X515076Y535870D01*
X516362Y535337D01*
X517755D01*
X519041Y535870D01*
X520026Y536854D01*
X520559Y538141D01*
Y539533D01*
X520026Y540819D01*
X519041Y541804D01*
X517755Y542337D01*
D02*
G37*
G36*
X507755D02*
X506362D01*
X505076Y541804D01*
X504091Y540819D01*
X503559Y539533D01*
Y538141D01*
X504091Y536854D01*
X505076Y535870D01*
X506362Y535337D01*
X507755D01*
X509041Y535870D01*
X510026Y536854D01*
X510559Y538141D01*
Y539533D01*
X510026Y540819D01*
X509041Y541804D01*
X507755Y542337D01*
D02*
G37*
G36*
X497755D02*
X496362D01*
X495076Y541804D01*
X494091Y540819D01*
X493559Y539533D01*
Y538141D01*
X494091Y536854D01*
X495076Y535870D01*
X496362Y535337D01*
X497755D01*
X499041Y535870D01*
X500026Y536854D01*
X500559Y538141D01*
Y539533D01*
X500026Y540819D01*
X499041Y541804D01*
X497755Y542337D01*
D02*
G37*
G36*
X487755D02*
X486362D01*
X485076Y541804D01*
X484091Y540819D01*
X483559Y539533D01*
Y538141D01*
X484091Y536854D01*
X485076Y535870D01*
X486362Y535337D01*
X487755D01*
X489041Y535870D01*
X490026Y536854D01*
X490559Y538141D01*
Y539533D01*
X490026Y540819D01*
X489041Y541804D01*
X487755Y542337D01*
D02*
G37*
G36*
X477755D02*
X476362D01*
X475076Y541804D01*
X474091Y540819D01*
X473559Y539533D01*
Y538141D01*
X474091Y536854D01*
X475076Y535870D01*
X476362Y535337D01*
X477755D01*
X479041Y535870D01*
X480026Y536854D01*
X480559Y538141D01*
Y539533D01*
X480026Y540819D01*
X479041Y541804D01*
X477755Y542337D01*
D02*
G37*
G36*
X467755D02*
X466362D01*
X465076Y541804D01*
X464091Y540819D01*
X463559Y539533D01*
Y538141D01*
X464091Y536854D01*
X465076Y535870D01*
X466362Y535337D01*
X467755D01*
X469041Y535870D01*
X470026Y536854D01*
X470559Y538141D01*
Y539533D01*
X470026Y540819D01*
X469041Y541804D01*
X467755Y542337D01*
D02*
G37*
G36*
X609900Y540622D02*
X608508D01*
X607221Y540089D01*
X606237Y539104D01*
X605704Y537818D01*
Y536426D01*
X606237Y535139D01*
X607221Y534155D01*
X608508Y533622D01*
X609900D01*
X611187Y534155D01*
X612171Y535139D01*
X612704Y536426D01*
Y537818D01*
X612171Y539104D01*
X611187Y540089D01*
X609900Y540622D01*
D02*
G37*
G36*
X852327Y559025D02*
X848673D01*
X845145Y558079D01*
X841981Y556252D01*
X839398Y553669D01*
X837571Y550505D01*
X836626Y546977D01*
Y543323D01*
X837571Y539795D01*
X839398Y536631D01*
X841981Y534048D01*
X845145Y532221D01*
X848673Y531275D01*
X852327D01*
X855855Y532221D01*
X859019Y534048D01*
X861602Y536631D01*
X863429Y539795D01*
X864374Y543323D01*
Y546977D01*
X863429Y550505D01*
X861602Y553669D01*
X859019Y556252D01*
X855855Y558079D01*
X852327Y559025D01*
D02*
G37*
G36*
X801527D02*
X797873D01*
X794345Y558079D01*
X791181Y556252D01*
X788598Y553669D01*
X786771Y550505D01*
X785826Y546977D01*
Y543323D01*
X786771Y539795D01*
X788598Y536631D01*
X791181Y534048D01*
X794345Y532221D01*
X797873Y531275D01*
X801527D01*
X805055Y532221D01*
X808219Y534048D01*
X810802Y536631D01*
X812629Y539795D01*
X813575Y543323D01*
Y546977D01*
X812629Y550505D01*
X810802Y553669D01*
X808219Y556252D01*
X805055Y558079D01*
X801527Y559025D01*
D02*
G37*
G36*
X832196Y535500D02*
X830804D01*
X829517Y534967D01*
X828533Y533983D01*
X828000Y532696D01*
Y531304D01*
X828533Y530017D01*
X829517Y529033D01*
X830804Y528500D01*
X832196D01*
X833483Y529033D01*
X834467Y530017D01*
X835000Y531304D01*
Y532696D01*
X834467Y533983D01*
X833483Y534967D01*
X832196Y535500D01*
D02*
G37*
G36*
X325696Y533500D02*
X324304D01*
X323017Y532967D01*
X322033Y531983D01*
X321500Y530696D01*
Y529304D01*
X322033Y528017D01*
X323017Y527033D01*
X324304Y526500D01*
X325696D01*
X326983Y527033D01*
X327967Y528017D01*
X328500Y529304D01*
Y530696D01*
X327967Y531983D01*
X326983Y532967D01*
X325696Y533500D01*
D02*
G37*
G36*
X315696D02*
X314304D01*
X313017Y532967D01*
X312033Y531983D01*
X311500Y530696D01*
Y529304D01*
X312033Y528017D01*
X313017Y527033D01*
X314304Y526500D01*
X315696D01*
X316983Y527033D01*
X317967Y528017D01*
X318500Y529304D01*
Y530696D01*
X317967Y531983D01*
X316983Y532967D01*
X315696Y533500D01*
D02*
G37*
G36*
X305696D02*
X304304D01*
X303017Y532967D01*
X302033Y531983D01*
X301500Y530696D01*
Y529304D01*
X302033Y528017D01*
X303017Y527033D01*
X304304Y526500D01*
X305696D01*
X306983Y527033D01*
X307967Y528017D01*
X308500Y529304D01*
Y530696D01*
X307967Y531983D01*
X306983Y532967D01*
X305696Y533500D01*
D02*
G37*
G36*
X295696D02*
X294304D01*
X293017Y532967D01*
X292033Y531983D01*
X291500Y530696D01*
Y529304D01*
X292033Y528017D01*
X293017Y527033D01*
X294304Y526500D01*
X295696D01*
X296983Y527033D01*
X297967Y528017D01*
X298500Y529304D01*
Y530696D01*
X297967Y531983D01*
X296983Y532967D01*
X295696Y533500D01*
D02*
G37*
G36*
X285696D02*
X284304D01*
X283017Y532967D01*
X282033Y531983D01*
X281500Y530696D01*
Y529304D01*
X282033Y528017D01*
X283017Y527033D01*
X284304Y526500D01*
X285696D01*
X286983Y527033D01*
X287967Y528017D01*
X288500Y529304D01*
Y530696D01*
X287967Y531983D01*
X286983Y532967D01*
X285696Y533500D01*
D02*
G37*
G36*
X275696D02*
X274304D01*
X273017Y532967D01*
X272033Y531983D01*
X271500Y530696D01*
Y529304D01*
X272033Y528017D01*
X273017Y527033D01*
X274304Y526500D01*
X275696D01*
X276983Y527033D01*
X277967Y528017D01*
X278500Y529304D01*
Y530696D01*
X277967Y531983D01*
X276983Y532967D01*
X275696Y533500D01*
D02*
G37*
G36*
X265696D02*
X264304D01*
X263017Y532967D01*
X262033Y531983D01*
X261500Y530696D01*
Y529304D01*
X262033Y528017D01*
X263017Y527033D01*
X264304Y526500D01*
X265696D01*
X266983Y527033D01*
X267967Y528017D01*
X268500Y529304D01*
Y530696D01*
X267967Y531983D01*
X266983Y532967D01*
X265696Y533500D01*
D02*
G37*
G36*
X255696D02*
X254304D01*
X253017Y532967D01*
X252033Y531983D01*
X251500Y530696D01*
Y529304D01*
X252033Y528017D01*
X253017Y527033D01*
X254304Y526500D01*
X255696D01*
X256983Y527033D01*
X257967Y528017D01*
X258500Y529304D01*
Y530696D01*
X257967Y531983D01*
X256983Y532967D01*
X255696Y533500D01*
D02*
G37*
G36*
X245696D02*
X244304D01*
X243017Y532967D01*
X242033Y531983D01*
X241500Y530696D01*
Y529304D01*
X242033Y528017D01*
X243017Y527033D01*
X244304Y526500D01*
X245696D01*
X246983Y527033D01*
X247967Y528017D01*
X248500Y529304D01*
Y530696D01*
X247967Y531983D01*
X246983Y532967D01*
X245696Y533500D01*
D02*
G37*
G36*
X547755Y532337D02*
X546362D01*
X545076Y531804D01*
X544091Y530819D01*
X543559Y529533D01*
Y528141D01*
X544091Y526854D01*
X545076Y525870D01*
X546362Y525337D01*
X547755D01*
X549041Y525870D01*
X550026Y526854D01*
X550559Y528141D01*
Y529533D01*
X550026Y530819D01*
X549041Y531804D01*
X547755Y532337D01*
D02*
G37*
G36*
X537755D02*
X536362D01*
X535076Y531804D01*
X534091Y530819D01*
X533559Y529533D01*
Y528141D01*
X534091Y526854D01*
X535076Y525870D01*
X536362Y525337D01*
X537755D01*
X539041Y525870D01*
X540026Y526854D01*
X540559Y528141D01*
Y529533D01*
X540026Y530819D01*
X539041Y531804D01*
X537755Y532337D01*
D02*
G37*
G36*
X527755D02*
X526362D01*
X525076Y531804D01*
X524091Y530819D01*
X523559Y529533D01*
Y528141D01*
X524091Y526854D01*
X525076Y525870D01*
X526362Y525337D01*
X527755D01*
X529041Y525870D01*
X530026Y526854D01*
X530559Y528141D01*
Y529533D01*
X530026Y530819D01*
X529041Y531804D01*
X527755Y532337D01*
D02*
G37*
G36*
X517755D02*
X516362D01*
X515076Y531804D01*
X514091Y530819D01*
X513559Y529533D01*
Y528141D01*
X514091Y526854D01*
X515076Y525870D01*
X516362Y525337D01*
X517755D01*
X519041Y525870D01*
X520026Y526854D01*
X520559Y528141D01*
Y529533D01*
X520026Y530819D01*
X519041Y531804D01*
X517755Y532337D01*
D02*
G37*
G36*
X507755D02*
X506362D01*
X505076Y531804D01*
X504091Y530819D01*
X503559Y529533D01*
Y528141D01*
X504091Y526854D01*
X505076Y525870D01*
X506362Y525337D01*
X507755D01*
X509041Y525870D01*
X510026Y526854D01*
X510559Y528141D01*
Y529533D01*
X510026Y530819D01*
X509041Y531804D01*
X507755Y532337D01*
D02*
G37*
G36*
X497755D02*
X496362D01*
X495076Y531804D01*
X494091Y530819D01*
X493559Y529533D01*
Y528141D01*
X494091Y526854D01*
X495076Y525870D01*
X496362Y525337D01*
X497755D01*
X499041Y525870D01*
X500026Y526854D01*
X500559Y528141D01*
Y529533D01*
X500026Y530819D01*
X499041Y531804D01*
X497755Y532337D01*
D02*
G37*
G36*
X487755D02*
X486362D01*
X485076Y531804D01*
X484091Y530819D01*
X483559Y529533D01*
Y528141D01*
X484091Y526854D01*
X485076Y525870D01*
X486362Y525337D01*
X487755D01*
X489041Y525870D01*
X490026Y526854D01*
X490559Y528141D01*
Y529533D01*
X490026Y530819D01*
X489041Y531804D01*
X487755Y532337D01*
D02*
G37*
G36*
X477755D02*
X476362D01*
X475076Y531804D01*
X474091Y530819D01*
X473559Y529533D01*
Y528141D01*
X474091Y526854D01*
X475076Y525870D01*
X476362Y525337D01*
X477755D01*
X479041Y525870D01*
X480026Y526854D01*
X480559Y528141D01*
Y529533D01*
X480026Y530819D01*
X479041Y531804D01*
X477755Y532337D01*
D02*
G37*
G36*
X467755D02*
X466362D01*
X465076Y531804D01*
X464091Y530819D01*
X463559Y529533D01*
Y528141D01*
X464091Y526854D01*
X465076Y525870D01*
X466362Y525337D01*
X467755D01*
X469041Y525870D01*
X470026Y526854D01*
X470559Y528141D01*
Y529533D01*
X470026Y530819D01*
X469041Y531804D01*
X467755Y532337D01*
D02*
G37*
G36*
X91193Y537180D02*
X88806D01*
X86601Y536267D01*
X84913Y534579D01*
X84000Y532374D01*
Y529987D01*
X84913Y527781D01*
X86601Y526093D01*
X88806Y525180D01*
X91193D01*
X93399Y526093D01*
X95086Y527781D01*
X96000Y529987D01*
Y532374D01*
X95086Y534579D01*
X93399Y536267D01*
X91193Y537180D01*
D02*
G37*
G36*
X71193D02*
X68807D01*
X66601Y536267D01*
X64914Y534579D01*
X64000Y532374D01*
Y529987D01*
X64914Y527781D01*
X66601Y526093D01*
X68807Y525180D01*
X71193D01*
X73399Y526093D01*
X75087Y527781D01*
X76000Y529987D01*
Y532374D01*
X75087Y534579D01*
X73399Y536267D01*
X71193Y537180D01*
D02*
G37*
G36*
X762696Y523570D02*
X761304D01*
X760017Y523037D01*
X759033Y522053D01*
X758500Y520766D01*
Y519374D01*
X758676Y518950D01*
X758616Y518866D01*
X757651Y518105D01*
X756696Y518500D01*
X755304D01*
X754017Y517967D01*
X753033Y516983D01*
X752500Y515696D01*
Y514304D01*
X753033Y513017D01*
X754017Y512033D01*
X755304Y511500D01*
X756696D01*
X757983Y512033D01*
X758967Y513017D01*
X759500Y514304D01*
Y515696D01*
X759324Y516120D01*
X759384Y516204D01*
X760349Y516966D01*
X761304Y516570D01*
X762696D01*
X763983Y517103D01*
X764967Y518087D01*
X765500Y519374D01*
Y520766D01*
X764967Y522053D01*
X763983Y523037D01*
X762696Y523570D01*
D02*
G37*
G36*
X91193Y517180D02*
X88806D01*
X86601Y516267D01*
X84913Y514579D01*
X84000Y512373D01*
Y509986D01*
X84913Y507781D01*
X86601Y506093D01*
X88806Y505180D01*
X91193D01*
X93399Y506093D01*
X95086Y507781D01*
X96000Y509986D01*
Y512373D01*
X95086Y514579D01*
X93399Y516267D01*
X91193Y517180D01*
D02*
G37*
G36*
X71193D02*
X68807D01*
X66601Y516267D01*
X64914Y514579D01*
X64000Y512373D01*
Y509986D01*
X64914Y507781D01*
X66601Y506093D01*
X68807Y505180D01*
X71193D01*
X73399Y506093D01*
X75087Y507781D01*
X76000Y509986D01*
Y512373D01*
X75087Y514579D01*
X73399Y516267D01*
X71193Y517180D01*
D02*
G37*
G36*
X819446Y510550D02*
X818054D01*
X816767Y510017D01*
X815783Y509033D01*
X815250Y507746D01*
Y506354D01*
X815783Y505067D01*
X816767Y504083D01*
X818054Y503550D01*
X819446D01*
X820733Y504083D01*
X821717Y505067D01*
X822250Y506354D01*
Y507746D01*
X821717Y509033D01*
X820733Y510017D01*
X819446Y510550D01*
D02*
G37*
G36*
X645946Y496500D02*
X644554D01*
X643267Y495967D01*
X642283Y494983D01*
X641750Y493696D01*
Y492304D01*
X642283Y491017D01*
X643267Y490033D01*
X644554Y489500D01*
X645946D01*
X647233Y490033D01*
X648217Y491017D01*
X648750Y492304D01*
Y493696D01*
X648217Y494983D01*
X647233Y495967D01*
X645946Y496500D01*
D02*
G37*
G36*
X237196Y495240D02*
X235804D01*
X234517Y494707D01*
X233533Y493723D01*
X233000Y492436D01*
Y491044D01*
X233533Y489757D01*
X234517Y488773D01*
X235804Y488240D01*
X237196D01*
X238483Y488773D01*
X239467Y489757D01*
X240000Y491044D01*
Y492436D01*
X239467Y493723D01*
X238483Y494707D01*
X237196Y495240D01*
D02*
G37*
G36*
X221196D02*
X219804D01*
X218517Y494707D01*
X217533Y493723D01*
X217000Y492436D01*
Y491044D01*
X217533Y489757D01*
X218517Y488773D01*
X219804Y488240D01*
X221196D01*
X222483Y488773D01*
X223467Y489757D01*
X224000Y491044D01*
Y492436D01*
X223467Y493723D01*
X222483Y494707D01*
X221196Y495240D01*
D02*
G37*
G36*
X205196D02*
X203804D01*
X202517Y494707D01*
X201533Y493723D01*
X201000Y492436D01*
Y491044D01*
X201533Y489757D01*
X202517Y488773D01*
X203804Y488240D01*
X205196D01*
X206483Y488773D01*
X207467Y489757D01*
X208000Y491044D01*
Y492436D01*
X207467Y493723D01*
X206483Y494707D01*
X205196Y495240D01*
D02*
G37*
G36*
X189394D02*
X188002D01*
X186715Y494707D01*
X185731Y493723D01*
X185198Y492436D01*
Y491044D01*
X185731Y489757D01*
X186715Y488773D01*
X188002Y488240D01*
X189394D01*
X190681Y488773D01*
X191665Y489757D01*
X192198Y491044D01*
Y492436D01*
X191665Y493723D01*
X190681Y494707D01*
X189394Y495240D01*
D02*
G37*
G36*
X173446D02*
X172054D01*
X170767Y494707D01*
X169783Y493723D01*
X169250Y492436D01*
Y491044D01*
X169783Y489757D01*
X170767Y488773D01*
X172054Y488240D01*
X173446D01*
X174733Y488773D01*
X175717Y489757D01*
X176250Y491044D01*
Y492436D01*
X175717Y493723D01*
X174733Y494707D01*
X173446Y495240D01*
D02*
G37*
G36*
X91193Y497180D02*
X88806D01*
X86601Y496266D01*
X84913Y494579D01*
X84000Y492373D01*
Y489986D01*
X84913Y487781D01*
X86601Y486093D01*
X88806Y485180D01*
X91193D01*
X93399Y486093D01*
X95086Y487781D01*
X96000Y489986D01*
Y492373D01*
X95086Y494579D01*
X93399Y496266D01*
X91193Y497180D01*
D02*
G37*
G36*
X71193D02*
X68807D01*
X66601Y496266D01*
X64914Y494579D01*
X64000Y492373D01*
Y489986D01*
X64914Y487781D01*
X66601Y486093D01*
X68807Y485180D01*
X71193D01*
X73399Y486093D01*
X75087Y487781D01*
X76000Y489986D01*
Y492373D01*
X75087Y494579D01*
X73399Y496266D01*
X71193Y497180D01*
D02*
G37*
G36*
X299696Y489250D02*
X298304D01*
X297017Y488717D01*
X296033Y487733D01*
X295500Y486446D01*
Y485054D01*
X296033Y483767D01*
X297017Y482783D01*
X298304Y482250D01*
X299696D01*
X300983Y482783D01*
X301967Y483767D01*
X302500Y485054D01*
Y486446D01*
X301967Y487733D01*
X300983Y488717D01*
X299696Y489250D01*
D02*
G37*
G36*
X281696D02*
X280304D01*
X279017Y488717D01*
X278033Y487733D01*
X277500Y486446D01*
Y485054D01*
X278033Y483767D01*
X279017Y482783D01*
X280304Y482250D01*
X281696D01*
X282983Y482783D01*
X283967Y483767D01*
X284500Y485054D01*
Y486446D01*
X283967Y487733D01*
X282983Y488717D01*
X281696Y489250D01*
D02*
G37*
G36*
X819446Y485150D02*
X818054D01*
X816767Y484617D01*
X815783Y483633D01*
X815250Y482346D01*
Y480954D01*
X815783Y479667D01*
X816767Y478683D01*
X818054Y478150D01*
X819446D01*
X820733Y478683D01*
X821717Y479667D01*
X822250Y480954D01*
Y482346D01*
X821717Y483633D01*
X820733Y484617D01*
X819446Y485150D01*
D02*
G37*
G36*
X675696Y483750D02*
X674304D01*
X673017Y483217D01*
X672033Y482233D01*
X671500Y480946D01*
Y479554D01*
X672033Y478267D01*
X673017Y477283D01*
X674304Y476750D01*
X675696D01*
X676983Y477283D01*
X677967Y478267D01*
X678500Y479554D01*
Y480946D01*
X677967Y482233D01*
X676983Y483217D01*
X675696Y483750D01*
D02*
G37*
G36*
X606305Y483354D02*
X604912D01*
X603626Y482821D01*
X602641Y481836D01*
X602108Y480550D01*
Y479157D01*
X602641Y477871D01*
X603626Y476886D01*
X604912Y476354D01*
X606305D01*
X607591Y476886D01*
X608576Y477871D01*
X609108Y479157D01*
Y480550D01*
X608576Y481836D01*
X607591Y482821D01*
X606305Y483354D01*
D02*
G37*
G36*
X702969Y482682D02*
X701576D01*
X700290Y482150D01*
X699305Y481165D01*
X698772Y479879D01*
Y478486D01*
X699305Y477200D01*
X700290Y476215D01*
X701576Y475682D01*
X702969D01*
X704255Y476215D01*
X705240Y477200D01*
X705772Y478486D01*
Y479879D01*
X705240Y481165D01*
X704255Y482150D01*
X702969Y482682D01*
D02*
G37*
G36*
X852327Y501875D02*
X848673D01*
X845145Y500929D01*
X841981Y499102D01*
X839398Y496519D01*
X837571Y493355D01*
X836626Y489827D01*
Y486173D01*
X837571Y482645D01*
X839398Y479481D01*
X841981Y476898D01*
X845145Y475071D01*
X848673Y474126D01*
X852327D01*
X855855Y475071D01*
X859019Y476898D01*
X861602Y479481D01*
X863429Y482645D01*
X864374Y486173D01*
Y489827D01*
X863429Y493355D01*
X861602Y496519D01*
X859019Y499102D01*
X855855Y500929D01*
X852327Y501875D01*
D02*
G37*
G36*
X801527D02*
X797873D01*
X794345Y500929D01*
X791181Y499102D01*
X788598Y496519D01*
X786771Y493355D01*
X785826Y489827D01*
Y486173D01*
X786771Y482645D01*
X788598Y479481D01*
X791181Y476898D01*
X794345Y475071D01*
X797873Y474126D01*
X801527D01*
X805055Y475071D01*
X808219Y476898D01*
X810802Y479481D01*
X812629Y482645D01*
X813575Y486173D01*
Y489827D01*
X812629Y493355D01*
X810802Y496519D01*
X808219Y499102D01*
X805055Y500929D01*
X801527Y501875D01*
D02*
G37*
G36*
X539696Y481070D02*
X538304D01*
X537017Y480537D01*
X536033Y479553D01*
X535500Y478266D01*
Y476874D01*
X536033Y475587D01*
X537017Y474603D01*
X538304Y474070D01*
X539696D01*
X540983Y474603D01*
X541967Y475587D01*
X542500Y476874D01*
Y478266D01*
X541967Y479553D01*
X540983Y480537D01*
X539696Y481070D01*
D02*
G37*
G36*
X458094Y484500D02*
X455906D01*
X453885Y483663D01*
X452337Y482116D01*
X451500Y480094D01*
Y477906D01*
X452337Y475885D01*
X453885Y474337D01*
X455906Y473500D01*
X458094D01*
X460116Y474337D01*
X461663Y475885D01*
X462500Y477906D01*
Y480094D01*
X461663Y482116D01*
X460116Y483663D01*
X458094Y484500D01*
D02*
G37*
G36*
X551696Y477730D02*
X550304D01*
X549017Y477197D01*
X548033Y476213D01*
X547500Y474926D01*
Y473534D01*
X548033Y472247D01*
X549017Y471263D01*
X550304Y470730D01*
X551696D01*
X552983Y471263D01*
X553967Y472247D01*
X554500Y473534D01*
Y474926D01*
X553967Y476213D01*
X552983Y477197D01*
X551696Y477730D01*
D02*
G37*
G36*
X373246Y477550D02*
X371854D01*
X370567Y477017D01*
X369583Y476033D01*
X369050Y474746D01*
Y473354D01*
X369583Y472067D01*
X370567Y471083D01*
X371854Y470550D01*
X373246D01*
X374533Y471083D01*
X375517Y472067D01*
X376050Y473354D01*
Y474746D01*
X375517Y476033D01*
X374533Y477017D01*
X373246Y477550D01*
D02*
G37*
G36*
X594946Y476000D02*
X593554D01*
X592267Y475467D01*
X591283Y474483D01*
X590750Y473196D01*
Y471804D01*
X591283Y470517D01*
X592267Y469533D01*
X593554Y469000D01*
X594946D01*
X596233Y469533D01*
X597217Y470517D01*
X597750Y471804D01*
Y473196D01*
X597217Y474483D01*
X596233Y475467D01*
X594946Y476000D01*
D02*
G37*
G36*
X414696Y475000D02*
X413304D01*
X412017Y474467D01*
X411033Y473483D01*
X410500Y472196D01*
Y470804D01*
X411033Y469517D01*
X412017Y468533D01*
X413304Y468000D01*
X414696D01*
X415983Y468533D01*
X416967Y469517D01*
X417500Y470804D01*
Y472196D01*
X416967Y473483D01*
X415983Y474467D01*
X414696Y475000D01*
D02*
G37*
G36*
X400234Y474951D02*
X398842D01*
X397555Y474418D01*
X396571Y473433D01*
X396038Y472147D01*
Y470755D01*
X396571Y469468D01*
X397555Y468484D01*
X398842Y467951D01*
X400234D01*
X401520Y468484D01*
X402505Y469468D01*
X403038Y470755D01*
Y472147D01*
X402505Y473433D01*
X401520Y474418D01*
X400234Y474951D01*
D02*
G37*
G36*
X91193Y477180D02*
X88806D01*
X86601Y476267D01*
X84913Y474579D01*
X84000Y472374D01*
Y469986D01*
X84913Y467781D01*
X86601Y466093D01*
X88806Y465180D01*
X91193D01*
X93399Y466093D01*
X95086Y467781D01*
X96000Y469986D01*
Y472374D01*
X95086Y474579D01*
X93399Y476267D01*
X91193Y477180D01*
D02*
G37*
G36*
X71193D02*
X68807D01*
X66601Y476267D01*
X64914Y474579D01*
X64000Y472374D01*
Y469986D01*
X64914Y467781D01*
X66601Y466093D01*
X68807Y465180D01*
X71193D01*
X73399Y466093D01*
X75087Y467781D01*
X76000Y469986D01*
Y472374D01*
X75087Y474579D01*
X73399Y476267D01*
X71193Y477180D01*
D02*
G37*
G36*
X145947Y471500D02*
X144554D01*
X143268Y470967D01*
X142283Y469983D01*
X141751Y468696D01*
Y467304D01*
X142283Y466017D01*
X143268Y465033D01*
X144554Y464500D01*
X145947D01*
X147233Y465033D01*
X148218Y466017D01*
X148751Y467304D01*
Y468696D01*
X148218Y469983D01*
X147233Y470967D01*
X145947Y471500D01*
D02*
G37*
G36*
X129947D02*
X128554D01*
X127268Y470967D01*
X126284Y469983D01*
X125751Y468696D01*
Y467304D01*
X126284Y466017D01*
X127268Y465033D01*
X128554Y464500D01*
X129947D01*
X131233Y465033D01*
X132218Y466017D01*
X132751Y467304D01*
Y468696D01*
X132218Y469983D01*
X131233Y470967D01*
X129947Y471500D01*
D02*
G37*
G36*
X836165Y475903D02*
X834335D01*
X832566Y475429D01*
X830981Y474514D01*
X829686Y473219D01*
X828771Y471634D01*
X828297Y469865D01*
Y468035D01*
X828771Y466266D01*
X829686Y464681D01*
X830981Y463386D01*
X832566Y462471D01*
X834335Y461997D01*
X836165D01*
X837934Y462471D01*
X839519Y463386D01*
X840814Y464681D01*
X841729Y466266D01*
X842203Y468035D01*
Y469865D01*
X841729Y471634D01*
X840814Y473219D01*
X839519Y474514D01*
X837934Y475429D01*
X836165Y475903D01*
D02*
G37*
G36*
X815865D02*
X814035D01*
X812266Y475429D01*
X810681Y474514D01*
X809386Y473219D01*
X808471Y471634D01*
X807997Y469865D01*
Y468035D01*
X808471Y466266D01*
X809386Y464681D01*
X810681Y463386D01*
X812266Y462471D01*
X814035Y461997D01*
X815865D01*
X817634Y462471D01*
X819219Y463386D01*
X820514Y464681D01*
X821429Y466266D01*
X821903Y468035D01*
Y469865D01*
X821429Y471634D01*
X820514Y473219D01*
X819219Y474514D01*
X817634Y475429D01*
X815865Y475903D01*
D02*
G37*
G36*
X493696Y476000D02*
X492304D01*
X491017Y475467D01*
X490033Y474483D01*
X489500Y473196D01*
Y471804D01*
X490033Y470517D01*
X490797Y469753D01*
X490542Y468715D01*
X490408Y468483D01*
X490002D01*
X488715Y467950D01*
X487731Y466966D01*
X487198Y465679D01*
Y464287D01*
X487731Y463001D01*
X488715Y462016D01*
X490002Y461483D01*
X490240D01*
X490705Y460213D01*
X490049Y459557D01*
X489516Y458271D01*
Y458116D01*
X489027Y457784D01*
X488246Y457473D01*
X487160Y457923D01*
X485767D01*
X484481Y457390D01*
X483496Y456406D01*
X482963Y455119D01*
Y453727D01*
X483496Y452440D01*
X484481Y451456D01*
X485767Y450923D01*
X487160D01*
X488446Y451456D01*
X489431Y452440D01*
X489963Y453727D01*
Y453882D01*
X490453Y454214D01*
X491233Y454525D01*
X492320Y454075D01*
X493713D01*
X494999Y454608D01*
X495984Y455592D01*
X496516Y456879D01*
Y458271D01*
X495984Y459557D01*
X494999Y460542D01*
X493713Y461075D01*
X493474D01*
X493009Y462345D01*
X493665Y463001D01*
X494198Y464287D01*
Y465679D01*
X493665Y466966D01*
X492901Y467730D01*
X493156Y468768D01*
X493290Y469000D01*
X493696D01*
X494983Y469533D01*
X495967Y470517D01*
X496500Y471804D01*
Y473196D01*
X495967Y474483D01*
X494983Y475467D01*
X493696Y476000D01*
D02*
G37*
G36*
X425696Y458500D02*
X424304D01*
X423017Y457967D01*
X422033Y456983D01*
X421500Y455696D01*
Y454304D01*
X422033Y453017D01*
X423017Y452033D01*
X424304Y451500D01*
X425696D01*
X426983Y452033D01*
X427967Y453017D01*
X428500Y454304D01*
Y455696D01*
X427967Y456983D01*
X426983Y457967D01*
X425696Y458500D01*
D02*
G37*
G36*
X91193Y457180D02*
X88806D01*
X86601Y456267D01*
X84913Y454579D01*
X84000Y452374D01*
Y449987D01*
X84913Y447781D01*
X86601Y446093D01*
X88806Y445180D01*
X91193D01*
X93399Y446093D01*
X95086Y447781D01*
X96000Y449987D01*
Y452374D01*
X95086Y454579D01*
X93399Y456267D01*
X91193Y457180D01*
D02*
G37*
G36*
X71193D02*
X68807D01*
X66601Y456267D01*
X64914Y454579D01*
X64000Y452374D01*
Y449987D01*
X64914Y447781D01*
X66601Y446093D01*
X68807Y445180D01*
X71193D01*
X73399Y446093D01*
X75087Y447781D01*
X76000Y449987D01*
Y452374D01*
X75087Y454579D01*
X73399Y456267D01*
X71193Y457180D01*
D02*
G37*
G36*
X458094Y454500D02*
X455906D01*
X453885Y453663D01*
X452337Y452116D01*
X451500Y450094D01*
Y447906D01*
X452337Y445885D01*
X453885Y444337D01*
X455906Y443500D01*
X458094D01*
X460116Y444337D01*
X461663Y445885D01*
X462500Y447906D01*
Y450094D01*
X461663Y452116D01*
X460116Y453663D01*
X458094Y454500D01*
D02*
G37*
G36*
X187696Y447745D02*
X186304D01*
X185017Y447212D01*
X184033Y446227D01*
X183500Y444941D01*
Y443549D01*
X184033Y442262D01*
X185017Y441278D01*
X186304Y440745D01*
X187696D01*
X188983Y441278D01*
X189967Y442262D01*
X190500Y443549D01*
Y444941D01*
X189967Y446227D01*
X188983Y447212D01*
X187696Y447745D01*
D02*
G37*
G36*
X848196Y447250D02*
X846804D01*
X845517Y446717D01*
X844533Y445733D01*
X844000Y444446D01*
Y443054D01*
X844533Y441767D01*
X845517Y440783D01*
X846804Y440250D01*
X848196D01*
X849483Y440783D01*
X850467Y441767D01*
X851000Y443054D01*
Y444446D01*
X850467Y445733D01*
X849483Y446717D01*
X848196Y447250D01*
D02*
G37*
G36*
X830196Y447000D02*
X828804D01*
X827517Y446467D01*
X826533Y445483D01*
X826000Y444196D01*
Y442804D01*
X826533Y441517D01*
X827517Y440533D01*
X828804Y440000D01*
X830196D01*
X831483Y440533D01*
X832467Y441517D01*
X833000Y442804D01*
Y444196D01*
X832467Y445483D01*
X831483Y446467D01*
X830196Y447000D01*
D02*
G37*
G36*
X596196D02*
X594804D01*
X593517Y446467D01*
X592533Y445483D01*
X592000Y444196D01*
Y442804D01*
X592533Y441517D01*
X593517Y440533D01*
X594804Y440000D01*
X596196D01*
X597483Y440533D01*
X598467Y441517D01*
X599000Y442804D01*
Y444196D01*
X598467Y445483D01*
X597483Y446467D01*
X596196Y447000D01*
D02*
G37*
G36*
X412191Y442250D02*
X410799D01*
X409512Y441717D01*
X408528Y440733D01*
X407995Y439446D01*
Y438054D01*
X408528Y436767D01*
X409512Y435783D01*
X410799Y435250D01*
X412191D01*
X413478Y435783D01*
X414462Y436767D01*
X414995Y438054D01*
Y439446D01*
X414462Y440733D01*
X413478Y441717D01*
X412191Y442250D01*
D02*
G37*
G36*
X321146Y439450D02*
X319754D01*
X318467Y438917D01*
X317483Y437933D01*
X316950Y436646D01*
Y435254D01*
X317483Y433967D01*
X318467Y432983D01*
X319754Y432450D01*
X321146D01*
X322433Y432983D01*
X323417Y433967D01*
X323950Y435254D01*
Y436646D01*
X323417Y437933D01*
X322433Y438917D01*
X321146Y439450D01*
D02*
G37*
G36*
X611696Y438000D02*
X610304D01*
X609017Y437467D01*
X608033Y436483D01*
X607500Y435196D01*
Y433804D01*
X608033Y432517D01*
X609017Y431533D01*
X610304Y431000D01*
X611696D01*
X612983Y431533D01*
X613967Y432517D01*
X614500Y433804D01*
Y435196D01*
X613967Y436483D01*
X612983Y437467D01*
X611696Y438000D01*
D02*
G37*
G36*
X284446Y437750D02*
X283054D01*
X281767Y437217D01*
X280783Y436233D01*
X280250Y434946D01*
Y433554D01*
X280783Y432267D01*
X281767Y431283D01*
X283054Y430750D01*
X284446D01*
X285733Y431283D01*
X286717Y432267D01*
X287250Y433554D01*
Y434946D01*
X286717Y436233D01*
X285733Y437217D01*
X284446Y437750D01*
D02*
G37*
G36*
X267693Y435243D02*
X266300D01*
X265014Y434710D01*
X264029Y433726D01*
X263497Y432439D01*
Y431047D01*
X264029Y429761D01*
X265014Y428776D01*
X266300Y428243D01*
X267693D01*
X268979Y428776D01*
X269964Y429761D01*
X270497Y431047D01*
Y432439D01*
X269964Y433726D01*
X268979Y434710D01*
X267693Y435243D01*
D02*
G37*
G36*
X487364Y446012D02*
X485972D01*
X484686Y445480D01*
X483701Y444495D01*
X483168Y443209D01*
Y441816D01*
X483701Y440530D01*
X484686Y439545D01*
X485972Y439012D01*
X486901D01*
X487383Y438985D01*
X488074Y437932D01*
Y437553D01*
X488607Y436266D01*
X489592Y435282D01*
X490115Y435065D01*
X490443Y433596D01*
X489910Y432310D01*
Y430918D01*
X490443Y429631D01*
X491427Y428647D01*
X492714Y428114D01*
X494106D01*
X495392Y428647D01*
X496377Y429631D01*
X496910Y430918D01*
Y432310D01*
X496377Y433596D01*
X495392Y434581D01*
X494869Y434798D01*
X494542Y436266D01*
X495074Y437553D01*
Y438945D01*
X494542Y440232D01*
X493557Y441216D01*
X492271Y441749D01*
X491342D01*
X490860Y441777D01*
X490168Y442829D01*
Y443209D01*
X489635Y444495D01*
X488651Y445480D01*
X487364Y446012D01*
D02*
G37*
G36*
X154196Y434000D02*
X152804D01*
X151517Y433467D01*
X150533Y432483D01*
X150000Y431196D01*
Y429804D01*
X150533Y428517D01*
X151517Y427533D01*
X152804Y427000D01*
X154196D01*
X155483Y427533D01*
X156467Y428517D01*
X157000Y429804D01*
Y431196D01*
X156467Y432483D01*
X155483Y433467D01*
X154196Y434000D01*
D02*
G37*
G36*
X121446D02*
X120054D01*
X118767Y433467D01*
X117783Y432483D01*
X117250Y431196D01*
Y429804D01*
X117783Y428517D01*
X118767Y427533D01*
X120054Y427000D01*
X121446D01*
X122733Y427533D01*
X123717Y428517D01*
X124250Y429804D01*
Y431196D01*
X123717Y432483D01*
X122733Y433467D01*
X121446Y434000D01*
D02*
G37*
G36*
X689696Y432838D02*
X688304D01*
X687017Y432305D01*
X686033Y431321D01*
X685500Y430034D01*
Y428642D01*
X686033Y427356D01*
X687017Y426371D01*
X688304Y425838D01*
X689696D01*
X690983Y426371D01*
X691967Y427356D01*
X692500Y428642D01*
Y430034D01*
X691967Y431321D01*
X690983Y432305D01*
X689696Y432838D01*
D02*
G37*
G36*
X91193Y437180D02*
X88806D01*
X86601Y436267D01*
X84913Y434579D01*
X84000Y432374D01*
Y429987D01*
X84913Y427781D01*
X86601Y426094D01*
X88806Y425180D01*
X91193D01*
X93399Y426094D01*
X95086Y427781D01*
X96000Y429987D01*
Y432374D01*
X95086Y434579D01*
X93399Y436267D01*
X91193Y437180D01*
D02*
G37*
G36*
X71193D02*
X68807D01*
X66601Y436267D01*
X64914Y434579D01*
X64000Y432374D01*
Y429987D01*
X64914Y427781D01*
X66601Y426094D01*
X68807Y425180D01*
X71193D01*
X73399Y426094D01*
X75087Y427781D01*
X76000Y429987D01*
Y432374D01*
X75087Y434579D01*
X73399Y436267D01*
X71193Y437180D01*
D02*
G37*
G36*
X563696Y432000D02*
X562304D01*
X561017Y431467D01*
X560033Y430483D01*
X559500Y429196D01*
Y427804D01*
X560033Y426517D01*
X561017Y425533D01*
X562304Y425000D01*
X563696D01*
X564983Y425533D01*
X565967Y426517D01*
X566500Y427804D01*
Y429196D01*
X565967Y430483D01*
X564983Y431467D01*
X563696Y432000D01*
D02*
G37*
G36*
X657516Y434600D02*
X656124D01*
X654837Y434067D01*
X653853Y433083D01*
X653320Y431796D01*
Y430404D01*
X653853Y429118D01*
X654837Y428133D01*
X656124Y427600D01*
X657516D01*
X657587Y427629D01*
X658857Y426999D01*
X659390Y425713D01*
X660374Y424728D01*
X661661Y424195D01*
X663053D01*
X664340Y424728D01*
X665324Y425713D01*
X665857Y426999D01*
Y428391D01*
X665324Y429678D01*
X664340Y430662D01*
X663053Y431195D01*
X661661D01*
X661590Y431166D01*
X660320Y431796D01*
X659787Y433083D01*
X658803Y434067D01*
X657516Y434600D01*
D02*
G37*
G36*
X171196Y429745D02*
X169804D01*
X168517Y429212D01*
X167533Y428228D01*
X167000Y426941D01*
Y425549D01*
X167533Y424262D01*
X168517Y423278D01*
X169804Y422745D01*
X171196D01*
X172483Y423278D01*
X173467Y424262D01*
X174000Y425549D01*
Y426941D01*
X173467Y428228D01*
X172483Y429212D01*
X171196Y429745D01*
D02*
G37*
G36*
X761696Y427500D02*
X760304D01*
X759017Y426967D01*
X758033Y425983D01*
X757500Y424696D01*
Y423304D01*
X758033Y422017D01*
X759017Y421033D01*
X760304Y420500D01*
X761696D01*
X762983Y421033D01*
X763967Y422017D01*
X764500Y423304D01*
Y424696D01*
X763967Y425983D01*
X762983Y426967D01*
X761696Y427500D01*
D02*
G37*
G36*
X611196Y426500D02*
X609804D01*
X608517Y425967D01*
X607533Y424983D01*
X607000Y423696D01*
Y422304D01*
X607533Y421017D01*
X608517Y420033D01*
X609804Y419500D01*
X611196D01*
X612483Y420033D01*
X613467Y421017D01*
X614000Y422304D01*
Y423696D01*
X613467Y424983D01*
X612483Y425967D01*
X611196Y426500D01*
D02*
G37*
G36*
X458094Y430500D02*
X455906D01*
X453885Y429663D01*
X452337Y428116D01*
X451500Y426094D01*
Y423906D01*
X452337Y421884D01*
X453885Y420337D01*
X455906Y419500D01*
X458094D01*
X460116Y420337D01*
X461663Y421884D01*
X462500Y423906D01*
Y426094D01*
X461663Y428116D01*
X460116Y429663D01*
X458094Y430500D01*
D02*
G37*
G36*
X863696Y424500D02*
X862304D01*
X861017Y423967D01*
X860033Y422983D01*
X859500Y421696D01*
Y420304D01*
X860033Y419017D01*
X861017Y418033D01*
X862304Y417500D01*
X863696D01*
X864983Y418033D01*
X865967Y419017D01*
X866500Y420304D01*
Y421696D01*
X865967Y422983D01*
X864983Y423967D01*
X863696Y424500D01*
D02*
G37*
G36*
X585551Y419442D02*
X584159D01*
X582872Y418910D01*
X581888Y417925D01*
X581355Y416639D01*
Y415246D01*
X581888Y413960D01*
X582872Y412975D01*
X584159Y412442D01*
X585551D01*
X586838Y412975D01*
X587822Y413960D01*
X588355Y415246D01*
Y416639D01*
X587822Y417925D01*
X586838Y418910D01*
X585551Y419442D01*
D02*
G37*
G36*
X640744Y415724D02*
X639352D01*
X638065Y415191D01*
X637081Y414207D01*
X636548Y412920D01*
Y411528D01*
X637081Y410241D01*
X638065Y409257D01*
X639352Y408724D01*
X640744D01*
X642031Y409257D01*
X643015Y410241D01*
X643548Y411528D01*
Y412920D01*
X643015Y414207D01*
X642031Y415191D01*
X640744Y415724D01*
D02*
G37*
G36*
X598834Y420500D02*
X597441D01*
X596155Y419967D01*
X595170Y418983D01*
X594637Y417696D01*
Y416304D01*
X595170Y415017D01*
X596155Y414033D01*
X597441Y413500D01*
X598834D01*
X598882Y413520D01*
X599854Y412548D01*
X599843Y412523D01*
Y411130D01*
X600376Y409844D01*
X601361Y408860D01*
X602647Y408327D01*
X604039D01*
X605326Y408860D01*
X606311Y409844D01*
X606843Y411130D01*
Y412523D01*
X606311Y413809D01*
X605326Y414794D01*
X604039Y415327D01*
X602647D01*
X602599Y415307D01*
X601627Y416279D01*
X601637Y416304D01*
Y417696D01*
X601105Y418983D01*
X600120Y419967D01*
X598834Y420500D01*
D02*
G37*
G36*
X492541Y413793D02*
X491148D01*
X489862Y413260D01*
X488878Y412276D01*
X488345Y410989D01*
Y409597D01*
X488878Y408310D01*
X489862Y407326D01*
X491148Y406793D01*
X492541D01*
X493827Y407326D01*
X494812Y408310D01*
X495345Y409597D01*
Y410989D01*
X494812Y412276D01*
X493827Y413260D01*
X492541Y413793D01*
D02*
G37*
G36*
X483549Y413067D02*
X482157D01*
X480870Y412534D01*
X479886Y411550D01*
X479353Y410263D01*
Y408871D01*
X479886Y407584D01*
X480870Y406600D01*
X482157Y406067D01*
X483549D01*
X484836Y406600D01*
X485820Y407584D01*
X486353Y408871D01*
Y410263D01*
X485820Y411550D01*
X484836Y412534D01*
X483549Y413067D01*
D02*
G37*
G36*
X91193Y417180D02*
X88806D01*
X86601Y416267D01*
X84913Y414579D01*
X84000Y412374D01*
Y409987D01*
X84913Y407781D01*
X86601Y406093D01*
X88806Y405180D01*
X91193D01*
X93399Y406093D01*
X95086Y407781D01*
X96000Y409987D01*
Y412374D01*
X95086Y414579D01*
X93399Y416267D01*
X91193Y417180D01*
D02*
G37*
G36*
X71193D02*
X68807D01*
X66601Y416267D01*
X64914Y414579D01*
X64000Y412374D01*
Y409987D01*
X64914Y407781D01*
X66601Y406093D01*
X68807Y405180D01*
X71193D01*
X73399Y406093D01*
X75087Y407781D01*
X76000Y409987D01*
Y412374D01*
X75087Y414579D01*
X73399Y416267D01*
X71193Y417180D01*
D02*
G37*
G36*
X565196Y411500D02*
X563804D01*
X562517Y410967D01*
X561533Y409983D01*
X561000Y408696D01*
Y407304D01*
X561533Y406017D01*
X562517Y405033D01*
X563804Y404500D01*
X565196D01*
X566483Y405033D01*
X567467Y406017D01*
X568000Y407304D01*
Y408696D01*
X567467Y409983D01*
X566483Y410967D01*
X565196Y411500D01*
D02*
G37*
G36*
X542196D02*
X540804D01*
X539517Y410967D01*
X538533Y409983D01*
X538000Y408696D01*
Y407304D01*
X538533Y406017D01*
X539517Y405033D01*
X540804Y404500D01*
X542196D01*
X543483Y405033D01*
X544467Y406017D01*
X545000Y407304D01*
Y408696D01*
X544467Y409983D01*
X543483Y410967D01*
X542196Y411500D01*
D02*
G37*
G36*
X580696D02*
X579304D01*
X578017Y410967D01*
X577033Y409983D01*
X576500Y408696D01*
Y407304D01*
X577033Y406017D01*
X578017Y405033D01*
X579304Y404500D01*
X580696D01*
X580795Y404541D01*
X581515Y403464D01*
X581033Y402983D01*
X580500Y401696D01*
Y400304D01*
X581033Y399017D01*
X582017Y398033D01*
X583304Y397500D01*
X584696D01*
X585983Y398033D01*
X586967Y399017D01*
X587500Y400304D01*
Y401696D01*
X586967Y402983D01*
X585983Y403967D01*
X584696Y404500D01*
X583304D01*
X583205Y404459D01*
X582485Y405536D01*
X582967Y406017D01*
X583500Y407304D01*
Y408696D01*
X582967Y409983D01*
X581983Y410967D01*
X580696Y411500D01*
D02*
G37*
G36*
X805696Y403500D02*
X804304D01*
X803017Y402967D01*
X802033Y401983D01*
X801500Y400696D01*
Y399304D01*
X802033Y398017D01*
X803017Y397033D01*
X804304Y396500D01*
X805696D01*
X806983Y397033D01*
X807967Y398017D01*
X808500Y399304D01*
Y400696D01*
X807967Y401983D01*
X806983Y402967D01*
X805696Y403500D01*
D02*
G37*
G36*
X795696D02*
X794304D01*
X793017Y402967D01*
X792033Y401983D01*
X791500Y400696D01*
Y399304D01*
X792033Y398017D01*
X793017Y397033D01*
X794304Y396500D01*
X795696D01*
X796983Y397033D01*
X797967Y398017D01*
X798500Y399304D01*
Y400696D01*
X797967Y401983D01*
X796983Y402967D01*
X795696Y403500D01*
D02*
G37*
G36*
X785696D02*
X784304D01*
X783017Y402967D01*
X782033Y401983D01*
X781500Y400696D01*
Y399304D01*
X782033Y398017D01*
X783017Y397033D01*
X784304Y396500D01*
X785696D01*
X786983Y397033D01*
X787967Y398017D01*
X788500Y399304D01*
Y400696D01*
X787967Y401983D01*
X786983Y402967D01*
X785696Y403500D01*
D02*
G37*
G36*
X775696D02*
X774304D01*
X773017Y402967D01*
X772033Y401983D01*
X771500Y400696D01*
Y399304D01*
X772033Y398017D01*
X773017Y397033D01*
X774304Y396500D01*
X775696D01*
X776983Y397033D01*
X777967Y398017D01*
X778500Y399304D01*
Y400696D01*
X777967Y401983D01*
X776983Y402967D01*
X775696Y403500D01*
D02*
G37*
G36*
X765696D02*
X764304D01*
X763017Y402967D01*
X762033Y401983D01*
X761500Y400696D01*
Y399304D01*
X762033Y398017D01*
X763017Y397033D01*
X764304Y396500D01*
X765696D01*
X766983Y397033D01*
X767967Y398017D01*
X768500Y399304D01*
Y400696D01*
X767967Y401983D01*
X766983Y402967D01*
X765696Y403500D01*
D02*
G37*
G36*
X430696Y401000D02*
X429304D01*
X428018Y400467D01*
X427033Y399483D01*
X426500Y398196D01*
Y396804D01*
X427033Y395517D01*
X428018Y394533D01*
X429304Y394000D01*
X430696D01*
X431983Y394533D01*
X432967Y395517D01*
X433500Y396804D01*
Y398196D01*
X432967Y399483D01*
X431983Y400467D01*
X430696Y401000D01*
D02*
G37*
G36*
X420696D02*
X419304D01*
X418018Y400467D01*
X417033Y399483D01*
X416500Y398196D01*
Y396804D01*
X417033Y395517D01*
X418018Y394533D01*
X419304Y394000D01*
X420696D01*
X421983Y394533D01*
X422967Y395517D01*
X423500Y396804D01*
Y398196D01*
X422967Y399483D01*
X421983Y400467D01*
X420696Y401000D01*
D02*
G37*
G36*
X410696D02*
X409304D01*
X408018Y400467D01*
X407033Y399483D01*
X406500Y398196D01*
Y396804D01*
X407033Y395517D01*
X408018Y394533D01*
X409304Y394000D01*
X410696D01*
X411983Y394533D01*
X412967Y395517D01*
X413500Y396804D01*
Y398196D01*
X412967Y399483D01*
X411983Y400467D01*
X410696Y401000D01*
D02*
G37*
G36*
X400696D02*
X399304D01*
X398018Y400467D01*
X397033Y399483D01*
X396500Y398196D01*
Y396804D01*
X397033Y395517D01*
X398018Y394533D01*
X399304Y394000D01*
X400696D01*
X401983Y394533D01*
X402967Y395517D01*
X403500Y396804D01*
Y398196D01*
X402967Y399483D01*
X401983Y400467D01*
X400696Y401000D01*
D02*
G37*
G36*
X390696D02*
X389304D01*
X388018Y400467D01*
X387033Y399483D01*
X386500Y398196D01*
Y396804D01*
X387033Y395517D01*
X388018Y394533D01*
X389304Y394000D01*
X390696D01*
X391983Y394533D01*
X392967Y395517D01*
X393500Y396804D01*
Y398196D01*
X392967Y399483D01*
X391983Y400467D01*
X390696Y401000D01*
D02*
G37*
G36*
X380696D02*
X379304D01*
X378018Y400467D01*
X377033Y399483D01*
X376500Y398196D01*
Y396804D01*
X377033Y395517D01*
X378018Y394533D01*
X379304Y394000D01*
X380696D01*
X381983Y394533D01*
X382967Y395517D01*
X383500Y396804D01*
Y398196D01*
X382967Y399483D01*
X381983Y400467D01*
X380696Y401000D01*
D02*
G37*
G36*
X370696D02*
X369304D01*
X368018Y400467D01*
X367033Y399483D01*
X366500Y398196D01*
Y396804D01*
X367033Y395517D01*
X368018Y394533D01*
X369304Y394000D01*
X370696D01*
X371983Y394533D01*
X372967Y395517D01*
X373500Y396804D01*
Y398196D01*
X372967Y399483D01*
X371983Y400467D01*
X370696Y401000D01*
D02*
G37*
G36*
X360696D02*
X359304D01*
X358017Y400467D01*
X357033Y399483D01*
X356500Y398196D01*
Y396804D01*
X357033Y395517D01*
X358017Y394533D01*
X359304Y394000D01*
X360696D01*
X361983Y394533D01*
X362967Y395517D01*
X363500Y396804D01*
Y398196D01*
X362967Y399483D01*
X361983Y400467D01*
X360696Y401000D01*
D02*
G37*
G36*
X350696D02*
X349304D01*
X348017Y400467D01*
X347033Y399483D01*
X346500Y398196D01*
Y396804D01*
X347033Y395517D01*
X348017Y394533D01*
X349304Y394000D01*
X350696D01*
X351983Y394533D01*
X352967Y395517D01*
X353500Y396804D01*
Y398196D01*
X352967Y399483D01*
X351983Y400467D01*
X350696Y401000D01*
D02*
G37*
G36*
X340696D02*
X339304D01*
X338017Y400467D01*
X337033Y399483D01*
X336500Y398196D01*
Y396804D01*
X337033Y395517D01*
X338017Y394533D01*
X339304Y394000D01*
X340696D01*
X341983Y394533D01*
X342967Y395517D01*
X343500Y396804D01*
Y398196D01*
X342967Y399483D01*
X341983Y400467D01*
X340696Y401000D01*
D02*
G37*
G36*
X330696D02*
X329304D01*
X328017Y400467D01*
X327033Y399483D01*
X326500Y398196D01*
Y396804D01*
X327033Y395517D01*
X328017Y394533D01*
X329304Y394000D01*
X330696D01*
X331983Y394533D01*
X332967Y395517D01*
X333500Y396804D01*
Y398196D01*
X332967Y399483D01*
X331983Y400467D01*
X330696Y401000D01*
D02*
G37*
G36*
X320696D02*
X319304D01*
X318017Y400467D01*
X317033Y399483D01*
X316500Y398196D01*
Y396804D01*
X317033Y395517D01*
X318017Y394533D01*
X319304Y394000D01*
X320696D01*
X321983Y394533D01*
X322967Y395517D01*
X323500Y396804D01*
Y398196D01*
X322967Y399483D01*
X321983Y400467D01*
X320696Y401000D01*
D02*
G37*
G36*
X310696D02*
X309304D01*
X308017Y400467D01*
X307033Y399483D01*
X306500Y398196D01*
Y396804D01*
X307033Y395517D01*
X308017Y394533D01*
X309304Y394000D01*
X310696D01*
X311983Y394533D01*
X312967Y395517D01*
X313500Y396804D01*
Y398196D01*
X312967Y399483D01*
X311983Y400467D01*
X310696Y401000D01*
D02*
G37*
G36*
X300696D02*
X299304D01*
X298017Y400467D01*
X297033Y399483D01*
X296500Y398196D01*
Y396804D01*
X297033Y395517D01*
X298017Y394533D01*
X299304Y394000D01*
X300696D01*
X301983Y394533D01*
X302967Y395517D01*
X303500Y396804D01*
Y398196D01*
X302967Y399483D01*
X301983Y400467D01*
X300696Y401000D01*
D02*
G37*
G36*
X458094Y400500D02*
X455906D01*
X453885Y399663D01*
X452337Y398116D01*
X451500Y396094D01*
Y393906D01*
X452337Y391884D01*
X453885Y390337D01*
X455906Y389500D01*
X458094D01*
X460116Y390337D01*
X461663Y391884D01*
X462500Y393906D01*
Y396094D01*
X461663Y398116D01*
X460116Y399663D01*
X458094Y400500D01*
D02*
G37*
G36*
X263196Y395500D02*
X261804D01*
X260517Y394967D01*
X259533Y393983D01*
X259000Y392696D01*
Y391304D01*
X259533Y390017D01*
X260517Y389033D01*
X261804Y388500D01*
X263196D01*
X264483Y389033D01*
X265467Y390017D01*
X266000Y391304D01*
Y392696D01*
X265467Y393983D01*
X264483Y394967D01*
X263196Y395500D01*
D02*
G37*
G36*
X681741Y393923D02*
X680348D01*
X679062Y393390D01*
X678077Y392406D01*
X677544Y391119D01*
Y389727D01*
X678077Y388441D01*
X679062Y387456D01*
X680348Y386923D01*
X681741D01*
X683027Y387456D01*
X684012Y388441D01*
X684545Y389727D01*
Y391119D01*
X684012Y392406D01*
X683027Y393390D01*
X681741Y393923D01*
D02*
G37*
G36*
X805696Y393500D02*
X804304D01*
X803017Y392967D01*
X802033Y391983D01*
X801500Y390696D01*
Y389304D01*
X802033Y388017D01*
X803017Y387033D01*
X804304Y386500D01*
X805696D01*
X806983Y387033D01*
X807967Y388017D01*
X808500Y389304D01*
Y390696D01*
X807967Y391983D01*
X806983Y392967D01*
X805696Y393500D01*
D02*
G37*
G36*
X795696Y393500D02*
X794304D01*
X793017Y392967D01*
X792033Y391983D01*
X791500Y390696D01*
Y389304D01*
X792033Y388017D01*
X793017Y387033D01*
X794304Y386500D01*
X795696D01*
X796983Y387033D01*
X797967Y388017D01*
X798500Y389304D01*
Y390696D01*
X797967Y391983D01*
X796983Y392967D01*
X795696Y393500D01*
D02*
G37*
G36*
X785696D02*
X784304D01*
X783017Y392967D01*
X782033Y391983D01*
X781500Y390696D01*
Y389304D01*
X782033Y388017D01*
X783017Y387033D01*
X784304Y386500D01*
X785696D01*
X786983Y387033D01*
X787967Y388017D01*
X788500Y389304D01*
Y390696D01*
X787967Y391983D01*
X786983Y392967D01*
X785696Y393500D01*
D02*
G37*
G36*
X775696D02*
X774304D01*
X773017Y392967D01*
X772033Y391983D01*
X771500Y390696D01*
Y389304D01*
X772033Y388017D01*
X773017Y387033D01*
X774304Y386500D01*
X775696D01*
X776983Y387033D01*
X777967Y388017D01*
X778500Y389304D01*
Y390696D01*
X777967Y391983D01*
X776983Y392967D01*
X775696Y393500D01*
D02*
G37*
G36*
X765696D02*
X764304D01*
X763017Y392967D01*
X762033Y391983D01*
X761500Y390696D01*
Y389304D01*
X762033Y388017D01*
X763017Y387033D01*
X764304Y386500D01*
X765696D01*
X766983Y387033D01*
X767967Y388017D01*
X768500Y389304D01*
Y390696D01*
X767967Y391983D01*
X766983Y392967D01*
X765696Y393500D01*
D02*
G37*
G36*
X91193Y397180D02*
X88806D01*
X86601Y396267D01*
X84913Y394579D01*
X84000Y392373D01*
Y389986D01*
X84913Y387781D01*
X86601Y386093D01*
X88806Y385180D01*
X91193D01*
X93399Y386093D01*
X95086Y387781D01*
X96000Y389986D01*
Y392373D01*
X95086Y394579D01*
X93399Y396267D01*
X91193Y397180D01*
D02*
G37*
G36*
X71193D02*
X68807D01*
X66601Y396267D01*
X64914Y394579D01*
X64000Y392373D01*
Y389986D01*
X64914Y387781D01*
X66601Y386093D01*
X68807Y385180D01*
X71193D01*
X73399Y386093D01*
X75087Y387781D01*
X76000Y389986D01*
Y392373D01*
X75087Y394579D01*
X73399Y396267D01*
X71193Y397180D01*
D02*
G37*
G36*
X430696Y391000D02*
X429304D01*
X428018Y390467D01*
X427033Y389483D01*
X426500Y388196D01*
Y386804D01*
X427033Y385517D01*
X428018Y384533D01*
X429304Y384000D01*
X430696D01*
X431983Y384533D01*
X432967Y385517D01*
X433500Y386804D01*
Y388196D01*
X432967Y389483D01*
X431983Y390467D01*
X430696Y391000D01*
D02*
G37*
G36*
X420696D02*
X419304D01*
X418018Y390467D01*
X417033Y389483D01*
X416500Y388196D01*
Y386804D01*
X417033Y385517D01*
X418018Y384533D01*
X419304Y384000D01*
X420696D01*
X421983Y384533D01*
X422967Y385517D01*
X423500Y386804D01*
Y388196D01*
X422967Y389483D01*
X421983Y390467D01*
X420696Y391000D01*
D02*
G37*
G36*
X410696D02*
X409304D01*
X408018Y390467D01*
X407033Y389483D01*
X406500Y388196D01*
Y386804D01*
X407033Y385517D01*
X408018Y384533D01*
X409304Y384000D01*
X410696D01*
X411983Y384533D01*
X412967Y385517D01*
X413500Y386804D01*
Y388196D01*
X412967Y389483D01*
X411983Y390467D01*
X410696Y391000D01*
D02*
G37*
G36*
X400696D02*
X399304D01*
X398018Y390467D01*
X397033Y389483D01*
X396500Y388196D01*
Y386804D01*
X397033Y385517D01*
X398018Y384533D01*
X399304Y384000D01*
X400696D01*
X401983Y384533D01*
X402967Y385517D01*
X403500Y386804D01*
Y388196D01*
X402967Y389483D01*
X401983Y390467D01*
X400696Y391000D01*
D02*
G37*
G36*
X390696D02*
X389304D01*
X388018Y390467D01*
X387033Y389483D01*
X386500Y388196D01*
Y386804D01*
X387033Y385517D01*
X388018Y384533D01*
X389304Y384000D01*
X390696D01*
X391983Y384533D01*
X392967Y385517D01*
X393500Y386804D01*
Y388196D01*
X392967Y389483D01*
X391983Y390467D01*
X390696Y391000D01*
D02*
G37*
G36*
X380696D02*
X379304D01*
X378018Y390467D01*
X377033Y389483D01*
X376500Y388196D01*
Y386804D01*
X377033Y385517D01*
X378018Y384533D01*
X379304Y384000D01*
X380696D01*
X381983Y384533D01*
X382967Y385517D01*
X383500Y386804D01*
Y388196D01*
X382967Y389483D01*
X381983Y390467D01*
X380696Y391000D01*
D02*
G37*
G36*
X370696D02*
X369304D01*
X368018Y390467D01*
X367033Y389483D01*
X366500Y388196D01*
Y386804D01*
X367033Y385517D01*
X368018Y384533D01*
X369304Y384000D01*
X370696D01*
X371983Y384533D01*
X372967Y385517D01*
X373500Y386804D01*
Y388196D01*
X372967Y389483D01*
X371983Y390467D01*
X370696Y391000D01*
D02*
G37*
G36*
X360696D02*
X359304D01*
X358017Y390467D01*
X357033Y389483D01*
X356500Y388196D01*
Y386804D01*
X357033Y385517D01*
X358017Y384533D01*
X359304Y384000D01*
X360696D01*
X361983Y384533D01*
X362967Y385517D01*
X363500Y386804D01*
Y388196D01*
X362967Y389483D01*
X361983Y390467D01*
X360696Y391000D01*
D02*
G37*
G36*
X350696D02*
X349304D01*
X348017Y390467D01*
X347033Y389483D01*
X346500Y388196D01*
Y386804D01*
X347033Y385517D01*
X348017Y384533D01*
X349304Y384000D01*
X350696D01*
X351983Y384533D01*
X352967Y385517D01*
X353500Y386804D01*
Y388196D01*
X352967Y389483D01*
X351983Y390467D01*
X350696Y391000D01*
D02*
G37*
G36*
X340696D02*
X339304D01*
X338017Y390467D01*
X337033Y389483D01*
X336500Y388196D01*
Y386804D01*
X337033Y385517D01*
X338017Y384533D01*
X339304Y384000D01*
X340696D01*
X341983Y384533D01*
X342967Y385517D01*
X343500Y386804D01*
Y388196D01*
X342967Y389483D01*
X341983Y390467D01*
X340696Y391000D01*
D02*
G37*
G36*
X330696D02*
X329304D01*
X328017Y390467D01*
X327033Y389483D01*
X326500Y388196D01*
Y386804D01*
X327033Y385517D01*
X328017Y384533D01*
X329304Y384000D01*
X330696D01*
X331983Y384533D01*
X332967Y385517D01*
X333500Y386804D01*
Y388196D01*
X332967Y389483D01*
X331983Y390467D01*
X330696Y391000D01*
D02*
G37*
G36*
X320696D02*
X319304D01*
X318017Y390467D01*
X317033Y389483D01*
X316500Y388196D01*
Y386804D01*
X317033Y385517D01*
X318017Y384533D01*
X319304Y384000D01*
X320696D01*
X321983Y384533D01*
X322967Y385517D01*
X323500Y386804D01*
Y388196D01*
X322967Y389483D01*
X321983Y390467D01*
X320696Y391000D01*
D02*
G37*
G36*
X310696D02*
X309304D01*
X308017Y390467D01*
X307033Y389483D01*
X306500Y388196D01*
Y386804D01*
X307033Y385517D01*
X308017Y384533D01*
X309304Y384000D01*
X310696D01*
X311983Y384533D01*
X312967Y385517D01*
X313500Y386804D01*
Y388196D01*
X312967Y389483D01*
X311983Y390467D01*
X310696Y391000D01*
D02*
G37*
G36*
X300696D02*
X299304D01*
X298017Y390467D01*
X297033Y389483D01*
X296500Y388196D01*
Y386804D01*
X297033Y385517D01*
X298017Y384533D01*
X299304Y384000D01*
X300696D01*
X301983Y384533D01*
X302967Y385517D01*
X303500Y386804D01*
Y388196D01*
X302967Y389483D01*
X301983Y390467D01*
X300696Y391000D01*
D02*
G37*
G36*
X125696Y387500D02*
X124304D01*
X123017Y386967D01*
X122033Y385983D01*
X121500Y384696D01*
Y383304D01*
X122033Y382017D01*
X123017Y381033D01*
X124304Y380500D01*
X125696D01*
X126983Y381033D01*
X127967Y382017D01*
X128500Y383304D01*
Y384696D01*
X127967Y385983D01*
X126983Y386967D01*
X125696Y387500D01*
D02*
G37*
G36*
X805696Y383500D02*
X804304D01*
X803017Y382967D01*
X802033Y381983D01*
X801500Y380696D01*
Y379304D01*
X802033Y378017D01*
X803017Y377033D01*
X804304Y376500D01*
X805696D01*
X806983Y377033D01*
X807967Y378017D01*
X808500Y379304D01*
Y380696D01*
X807967Y381983D01*
X806983Y382967D01*
X805696Y383500D01*
D02*
G37*
G36*
X795696D02*
X794304D01*
X793017Y382967D01*
X792033Y381983D01*
X791500Y380696D01*
Y379304D01*
X792033Y378017D01*
X793017Y377033D01*
X794304Y376500D01*
X795696D01*
X796983Y377033D01*
X797967Y378017D01*
X798500Y379304D01*
Y380696D01*
X797967Y381983D01*
X796983Y382967D01*
X795696Y383500D01*
D02*
G37*
G36*
X785696D02*
X784304D01*
X783017Y382967D01*
X782033Y381983D01*
X781500Y380696D01*
Y379304D01*
X782033Y378017D01*
X783017Y377033D01*
X784304Y376500D01*
X785696D01*
X786983Y377033D01*
X787967Y378017D01*
X788500Y379304D01*
Y380696D01*
X787967Y381983D01*
X786983Y382967D01*
X785696Y383500D01*
D02*
G37*
G36*
X775696D02*
X774304D01*
X773017Y382967D01*
X772033Y381983D01*
X771500Y380696D01*
Y379304D01*
X772033Y378017D01*
X773017Y377033D01*
X774304Y376500D01*
X775696D01*
X776983Y377033D01*
X777967Y378017D01*
X778500Y379304D01*
Y380696D01*
X777967Y381983D01*
X776983Y382967D01*
X775696Y383500D01*
D02*
G37*
G36*
X430696Y381000D02*
X429304D01*
X428018Y380467D01*
X427033Y379483D01*
X426500Y378196D01*
Y376804D01*
X427033Y375517D01*
X428018Y374533D01*
X429304Y374000D01*
X430696D01*
X431983Y374533D01*
X432967Y375517D01*
X433500Y376804D01*
Y378196D01*
X432967Y379483D01*
X431983Y380467D01*
X430696Y381000D01*
D02*
G37*
G36*
X420696D02*
X419304D01*
X418018Y380467D01*
X417033Y379483D01*
X416500Y378196D01*
Y376804D01*
X417033Y375517D01*
X418018Y374533D01*
X419304Y374000D01*
X420696D01*
X421983Y374533D01*
X422967Y375517D01*
X423500Y376804D01*
Y378196D01*
X422967Y379483D01*
X421983Y380467D01*
X420696Y381000D01*
D02*
G37*
G36*
X410696D02*
X409304D01*
X408018Y380467D01*
X407033Y379483D01*
X406500Y378196D01*
Y376804D01*
X407033Y375517D01*
X408018Y374533D01*
X409304Y374000D01*
X410696D01*
X411983Y374533D01*
X412967Y375517D01*
X413500Y376804D01*
Y378196D01*
X412967Y379483D01*
X411983Y380467D01*
X410696Y381000D01*
D02*
G37*
G36*
X400696D02*
X399304D01*
X398018Y380467D01*
X397033Y379483D01*
X396500Y378196D01*
Y376804D01*
X397033Y375517D01*
X398018Y374533D01*
X399304Y374000D01*
X400696D01*
X401983Y374533D01*
X402967Y375517D01*
X403500Y376804D01*
Y378196D01*
X402967Y379483D01*
X401983Y380467D01*
X400696Y381000D01*
D02*
G37*
G36*
X390696D02*
X389304D01*
X388018Y380467D01*
X387033Y379483D01*
X386500Y378196D01*
Y376804D01*
X387033Y375517D01*
X388018Y374533D01*
X389304Y374000D01*
X390696D01*
X391983Y374533D01*
X392967Y375517D01*
X393500Y376804D01*
Y378196D01*
X392967Y379483D01*
X391983Y380467D01*
X390696Y381000D01*
D02*
G37*
G36*
X380696D02*
X379304D01*
X378018Y380467D01*
X377033Y379483D01*
X376500Y378196D01*
Y376804D01*
X377033Y375517D01*
X378018Y374533D01*
X379304Y374000D01*
X380696D01*
X381983Y374533D01*
X382967Y375517D01*
X383500Y376804D01*
Y378196D01*
X382967Y379483D01*
X381983Y380467D01*
X380696Y381000D01*
D02*
G37*
G36*
X370696D02*
X369304D01*
X368018Y380467D01*
X367033Y379483D01*
X366500Y378196D01*
Y376804D01*
X367033Y375517D01*
X368018Y374533D01*
X369304Y374000D01*
X370696D01*
X371983Y374533D01*
X372967Y375517D01*
X373500Y376804D01*
Y378196D01*
X372967Y379483D01*
X371983Y380467D01*
X370696Y381000D01*
D02*
G37*
G36*
X360696D02*
X359304D01*
X358017Y380467D01*
X357033Y379483D01*
X356500Y378196D01*
Y376804D01*
X357033Y375517D01*
X358017Y374533D01*
X359304Y374000D01*
X360696D01*
X361983Y374533D01*
X362967Y375517D01*
X363500Y376804D01*
Y378196D01*
X362967Y379483D01*
X361983Y380467D01*
X360696Y381000D01*
D02*
G37*
G36*
X350696D02*
X349304D01*
X348017Y380467D01*
X347033Y379483D01*
X346500Y378196D01*
Y376804D01*
X347033Y375517D01*
X348017Y374533D01*
X349304Y374000D01*
X350696D01*
X351983Y374533D01*
X352967Y375517D01*
X353500Y376804D01*
Y378196D01*
X352967Y379483D01*
X351983Y380467D01*
X350696Y381000D01*
D02*
G37*
G36*
X340696D02*
X339304D01*
X338017Y380467D01*
X337033Y379483D01*
X336500Y378196D01*
Y376804D01*
X337033Y375517D01*
X338017Y374533D01*
X339304Y374000D01*
X340696D01*
X341983Y374533D01*
X342967Y375517D01*
X343500Y376804D01*
Y378196D01*
X342967Y379483D01*
X341983Y380467D01*
X340696Y381000D01*
D02*
G37*
G36*
X330696D02*
X329304D01*
X328017Y380467D01*
X327033Y379483D01*
X326500Y378196D01*
Y376804D01*
X327033Y375517D01*
X328017Y374533D01*
X329304Y374000D01*
X330696D01*
X331983Y374533D01*
X332967Y375517D01*
X333500Y376804D01*
Y378196D01*
X332967Y379483D01*
X331983Y380467D01*
X330696Y381000D01*
D02*
G37*
G36*
X320696D02*
X319304D01*
X318017Y380467D01*
X317033Y379483D01*
X316500Y378196D01*
Y376804D01*
X317033Y375517D01*
X318017Y374533D01*
X319304Y374000D01*
X320696D01*
X321983Y374533D01*
X322967Y375517D01*
X323500Y376804D01*
Y378196D01*
X322967Y379483D01*
X321983Y380467D01*
X320696Y381000D01*
D02*
G37*
G36*
X310696D02*
X309304D01*
X308017Y380467D01*
X307033Y379483D01*
X306500Y378196D01*
Y376804D01*
X307033Y375517D01*
X308017Y374533D01*
X309304Y374000D01*
X310696D01*
X311983Y374533D01*
X312967Y375517D01*
X313500Y376804D01*
Y378196D01*
X312967Y379483D01*
X311983Y380467D01*
X310696Y381000D01*
D02*
G37*
G36*
X300696D02*
X299304D01*
X298017Y380467D01*
X297033Y379483D01*
X296500Y378196D01*
Y376804D01*
X297033Y375517D01*
X298017Y374533D01*
X299304Y374000D01*
X300696D01*
X301983Y374533D01*
X302967Y375517D01*
X303500Y376804D01*
Y378196D01*
X302967Y379483D01*
X301983Y380467D01*
X300696Y381000D01*
D02*
G37*
G36*
X260446Y378750D02*
X259054D01*
X257767Y378217D01*
X256783Y377233D01*
X256250Y375946D01*
Y374554D01*
X256783Y373267D01*
X257767Y372283D01*
X259054Y371750D01*
X260446D01*
X261733Y372283D01*
X262717Y373267D01*
X263250Y374554D01*
Y375946D01*
X262717Y377233D01*
X261733Y378217D01*
X260446Y378750D01*
D02*
G37*
G36*
X685696Y371500D02*
X684304D01*
X683017Y370967D01*
X682033Y369983D01*
X680717D01*
X679733Y370967D01*
X678446Y371500D01*
X677054D01*
X675767Y370967D01*
X675178Y370378D01*
X674375Y370116D01*
X673572Y370378D01*
X672983Y370967D01*
X671696Y371500D01*
X670304D01*
X669017Y370967D01*
X668033Y369983D01*
X667500Y368696D01*
Y367304D01*
X668033Y366017D01*
X668622Y365428D01*
X668884Y364625D01*
X668622Y363822D01*
X668033Y363233D01*
X667500Y361946D01*
Y360554D01*
X668033Y359267D01*
X668622Y358678D01*
X668884Y357875D01*
X668622Y357072D01*
X668033Y356483D01*
X667500Y355196D01*
Y353804D01*
X668033Y352517D01*
X669017Y351533D01*
X670304Y351000D01*
X671696D01*
X672983Y351533D01*
X673572Y352122D01*
X674375Y352384D01*
X675178Y352122D01*
X675767Y351533D01*
X677054Y351000D01*
X678446D01*
X679733Y351533D01*
X680717Y352517D01*
X682033D01*
X683017Y351533D01*
X684304Y351000D01*
X685696D01*
X686983Y351533D01*
X687967Y352517D01*
X688500Y353804D01*
Y355196D01*
X687967Y356483D01*
X687378Y357072D01*
X687116Y357875D01*
X687378Y358678D01*
X687967Y359267D01*
X688500Y360554D01*
Y361946D01*
X687967Y363233D01*
X687378Y363822D01*
X687116Y364625D01*
X687378Y365428D01*
X687967Y366017D01*
X688500Y367304D01*
Y368696D01*
X687967Y369983D01*
X686983Y370967D01*
X685696Y371500D01*
D02*
G37*
G36*
X805696Y373500D02*
X804304D01*
X803017Y372967D01*
X802033Y371983D01*
X801500Y370696D01*
Y369304D01*
X802033Y368017D01*
X803017Y367033D01*
X804304Y366500D01*
X805696D01*
X806983Y367033D01*
X807967Y368017D01*
X808500Y369304D01*
Y370696D01*
X807967Y371983D01*
X806983Y372967D01*
X805696Y373500D01*
D02*
G37*
G36*
X795696D02*
X794304D01*
X793017Y372967D01*
X792033Y371983D01*
X791500Y370696D01*
Y369304D01*
X792033Y368017D01*
X793017Y367033D01*
X794304Y366500D01*
X795696D01*
X796983Y367033D01*
X797967Y368017D01*
X798500Y369304D01*
Y370696D01*
X797967Y371983D01*
X796983Y372967D01*
X795696Y373500D01*
D02*
G37*
G36*
X785696D02*
X784304D01*
X783017Y372967D01*
X782033Y371983D01*
X781500Y370696D01*
Y369304D01*
X782033Y368017D01*
X783017Y367033D01*
X784304Y366500D01*
X785696D01*
X786983Y367033D01*
X787967Y368017D01*
X788500Y369304D01*
Y370696D01*
X787967Y371983D01*
X786983Y372967D01*
X785696Y373500D01*
D02*
G37*
G36*
X775696D02*
X774304D01*
X773017Y372967D01*
X772033Y371983D01*
X771500Y370696D01*
Y369304D01*
X772033Y368017D01*
X773017Y367033D01*
X774304Y366500D01*
X775696D01*
X776983Y367033D01*
X777967Y368017D01*
X778500Y369304D01*
Y370696D01*
X777967Y371983D01*
X776983Y372967D01*
X775696Y373500D01*
D02*
G37*
G36*
X154955Y373475D02*
X153562D01*
X152276Y372942D01*
X151292Y371958D01*
X150759Y370671D01*
Y369279D01*
X151292Y367992D01*
X152276Y367008D01*
X153562Y366475D01*
X154955D01*
X156241Y367008D01*
X157226Y367992D01*
X157759Y369279D01*
Y370671D01*
X157226Y371958D01*
X156241Y372942D01*
X154955Y373475D01*
D02*
G37*
G36*
X91193Y377180D02*
X88806D01*
X86601Y376267D01*
X84913Y374579D01*
X84000Y372373D01*
Y369986D01*
X84913Y367781D01*
X86601Y366093D01*
X88806Y365180D01*
X91193D01*
X93399Y366093D01*
X95086Y367781D01*
X96000Y369986D01*
Y372373D01*
X95086Y374579D01*
X93399Y376267D01*
X91193Y377180D01*
D02*
G37*
G36*
X71193D02*
X68807D01*
X66601Y376267D01*
X64914Y374579D01*
X64000Y372373D01*
Y369986D01*
X64914Y367781D01*
X66601Y366093D01*
X68807Y365180D01*
X71193D01*
X73399Y366093D01*
X75087Y367781D01*
X76000Y369986D01*
Y372373D01*
X75087Y374579D01*
X73399Y376267D01*
X71193Y377180D01*
D02*
G37*
G36*
X562534Y371961D02*
X561142D01*
X559855Y371428D01*
X558871Y370444D01*
X558338Y369157D01*
Y367765D01*
X558871Y366479D01*
X559855Y365494D01*
X561142Y364961D01*
X562534D01*
X563820Y365494D01*
X564805Y366479D01*
X565338Y367765D01*
Y369157D01*
X564805Y370444D01*
X563820Y371428D01*
X562534Y371961D01*
D02*
G37*
G36*
X609987Y371922D02*
X608594D01*
X607308Y371390D01*
X606323Y370405D01*
X605790Y369119D01*
Y367726D01*
X606323Y366440D01*
X607308Y365455D01*
X608594Y364922D01*
X609987D01*
X611273Y365455D01*
X612258Y366440D01*
X612790Y367726D01*
Y369119D01*
X612258Y370405D01*
X611273Y371390D01*
X609987Y371922D01*
D02*
G37*
G36*
X542946Y371000D02*
X541554D01*
X540267Y370467D01*
X539283Y369483D01*
X538750Y368196D01*
Y366804D01*
X539283Y365517D01*
X540267Y364533D01*
X541554Y364000D01*
X542946D01*
X544233Y364533D01*
X545217Y365517D01*
X545750Y366804D01*
Y368196D01*
X545217Y369483D01*
X544233Y370467D01*
X542946Y371000D01*
D02*
G37*
G36*
X644979Y368055D02*
X643587D01*
X642301Y367522D01*
X641316Y366537D01*
X640783Y365251D01*
Y363859D01*
X641316Y362572D01*
X642301Y361588D01*
X643587Y361055D01*
X644979D01*
X646266Y361588D01*
X647251Y362572D01*
X647783Y363859D01*
Y365251D01*
X647251Y366537D01*
X646266Y367522D01*
X644979Y368055D01*
D02*
G37*
G36*
X583091Y366658D02*
X581698D01*
X580412Y366125D01*
X579427Y365141D01*
X578895Y363854D01*
Y362462D01*
X579427Y361175D01*
X580412Y360191D01*
X581698Y359658D01*
X583091D01*
X584377Y360191D01*
X585362Y361175D01*
X585895Y362462D01*
Y363854D01*
X585362Y365141D01*
X584377Y366125D01*
X583091Y366658D01*
D02*
G37*
G36*
X556388Y366190D02*
X554995D01*
X553709Y365657D01*
X552724Y364673D01*
X552192Y363386D01*
Y361994D01*
X552724Y360707D01*
X553709Y359723D01*
X554995Y359190D01*
X556388D01*
X557674Y359723D01*
X558659Y360707D01*
X559192Y361994D01*
Y363386D01*
X558659Y364673D01*
X557674Y365657D01*
X556388Y366190D01*
D02*
G37*
G36*
X805696Y363500D02*
X804304D01*
X803017Y362967D01*
X802033Y361983D01*
X801500Y360696D01*
Y359304D01*
X802033Y358017D01*
X803017Y357033D01*
X804304Y356500D01*
X805696D01*
X806983Y357033D01*
X807967Y358017D01*
X808500Y359304D01*
Y360696D01*
X807967Y361983D01*
X806983Y362967D01*
X805696Y363500D01*
D02*
G37*
G36*
X795696D02*
X794304D01*
X793017Y362967D01*
X792033Y361983D01*
X791500Y360696D01*
Y359304D01*
X792033Y358017D01*
X793017Y357033D01*
X794304Y356500D01*
X795696D01*
X796983Y357033D01*
X797967Y358017D01*
X798500Y359304D01*
Y360696D01*
X797967Y361983D01*
X796983Y362967D01*
X795696Y363500D01*
D02*
G37*
G36*
X785696D02*
X784304D01*
X783017Y362967D01*
X782033Y361983D01*
X781500Y360696D01*
Y359304D01*
X782033Y358017D01*
X783017Y357033D01*
X784304Y356500D01*
X785696D01*
X786983Y357033D01*
X787967Y358017D01*
X788500Y359304D01*
Y360696D01*
X787967Y361983D01*
X786983Y362967D01*
X785696Y363500D01*
D02*
G37*
G36*
X775696D02*
X774304D01*
X773017Y362967D01*
X772033Y361983D01*
X771500Y360696D01*
Y359304D01*
X772033Y358017D01*
X773017Y357033D01*
X774304Y356500D01*
X775696D01*
X776983Y357033D01*
X777967Y358017D01*
X778500Y359304D01*
Y360696D01*
X777967Y361983D01*
X776983Y362967D01*
X775696Y363500D01*
D02*
G37*
G36*
X175196Y360500D02*
X173804D01*
X172517Y359967D01*
X171533Y358983D01*
X171000Y357696D01*
Y356304D01*
X171533Y355017D01*
X172517Y354033D01*
X173804Y353500D01*
X175196D01*
X176483Y354033D01*
X177467Y355017D01*
X178000Y356304D01*
Y357696D01*
X177467Y358983D01*
X176483Y359967D01*
X175196Y360500D01*
D02*
G37*
G36*
X845691Y356750D02*
X844299D01*
X843012Y356217D01*
X842028Y355233D01*
X841495Y353946D01*
Y352554D01*
X842028Y351267D01*
X843012Y350283D01*
X844299Y349750D01*
X845691D01*
X846978Y350283D01*
X847962Y351267D01*
X848495Y352554D01*
Y353946D01*
X847962Y355233D01*
X846978Y356217D01*
X845691Y356750D01*
D02*
G37*
G36*
X573446D02*
X572054D01*
X570767Y356217D01*
X569783Y355233D01*
X569250Y353946D01*
Y352554D01*
X569783Y351267D01*
X570767Y350283D01*
X572054Y349750D01*
X573446D01*
X574733Y350283D01*
X575717Y351267D01*
X576250Y352554D01*
Y353946D01*
X575717Y355233D01*
X574733Y356217D01*
X573446Y356750D01*
D02*
G37*
G36*
X587196Y353500D02*
X585804D01*
X584517Y352967D01*
X583533Y351983D01*
X583000Y350696D01*
Y349304D01*
X583533Y348017D01*
X584517Y347033D01*
X585804Y346500D01*
X587196D01*
X588483Y347033D01*
X589467Y348017D01*
X590000Y349304D01*
Y350696D01*
X589467Y351983D01*
X588483Y352967D01*
X587196Y353500D01*
D02*
G37*
G36*
X516946Y350250D02*
X515554D01*
X514267Y349717D01*
X513283Y348733D01*
X512750Y347446D01*
Y346054D01*
X513283Y344767D01*
X514267Y343783D01*
X515554Y343250D01*
X516946D01*
X518233Y343783D01*
X519217Y344767D01*
X519750Y346054D01*
Y347446D01*
X519217Y348733D01*
X518233Y349717D01*
X516946Y350250D01*
D02*
G37*
G36*
X167946Y349750D02*
X166554D01*
X165267Y349217D01*
X164283Y348233D01*
X163750Y346946D01*
Y345554D01*
X164283Y344267D01*
X165267Y343283D01*
X166554Y342750D01*
X167946D01*
X169233Y343283D01*
X170217Y344267D01*
X170750Y345554D01*
Y346946D01*
X170217Y348233D01*
X169233Y349217D01*
X167946Y349750D01*
D02*
G37*
G36*
X481946Y349500D02*
X480554D01*
X479267Y348967D01*
X478283Y347983D01*
X477750Y346696D01*
Y345304D01*
X478283Y344017D01*
X479267Y343033D01*
X480554Y342500D01*
X481946D01*
X483233Y343033D01*
X484217Y344017D01*
X484750Y345304D01*
Y346696D01*
X484217Y347983D01*
X483233Y348967D01*
X481946Y349500D01*
D02*
G37*
G36*
X400696Y343500D02*
X399304D01*
X398017Y342967D01*
X397033Y341983D01*
X396500Y340696D01*
Y339304D01*
X397033Y338017D01*
X398017Y337033D01*
X399304Y336500D01*
X400696D01*
X401982Y337033D01*
X402967Y338017D01*
X403500Y339304D01*
Y340696D01*
X402967Y341983D01*
X401982Y342967D01*
X400696Y343500D01*
D02*
G37*
G36*
X390696D02*
X389304D01*
X388017Y342967D01*
X387033Y341983D01*
X386500Y340696D01*
Y339304D01*
X387033Y338017D01*
X388017Y337033D01*
X389304Y336500D01*
X390696D01*
X391982Y337033D01*
X392967Y338017D01*
X393500Y339304D01*
Y340696D01*
X392967Y341983D01*
X391982Y342967D01*
X390696Y343500D01*
D02*
G37*
G36*
X380696D02*
X379304D01*
X378017Y342967D01*
X377033Y341983D01*
X376500Y340696D01*
Y339304D01*
X377033Y338017D01*
X378017Y337033D01*
X379304Y336500D01*
X380696D01*
X381982Y337033D01*
X382967Y338017D01*
X383500Y339304D01*
Y340696D01*
X382967Y341983D01*
X381982Y342967D01*
X380696Y343500D01*
D02*
G37*
G36*
X370696D02*
X369304D01*
X368017Y342967D01*
X367033Y341983D01*
X366500Y340696D01*
Y339304D01*
X367033Y338017D01*
X368017Y337033D01*
X369304Y336500D01*
X370696D01*
X371982Y337033D01*
X372967Y338017D01*
X373500Y339304D01*
Y340696D01*
X372967Y341983D01*
X371982Y342967D01*
X370696Y343500D01*
D02*
G37*
G36*
X360696D02*
X359304D01*
X358017Y342967D01*
X357033Y341983D01*
X356500Y340696D01*
Y339304D01*
X357033Y338017D01*
X358017Y337033D01*
X359304Y336500D01*
X360696D01*
X361982Y337033D01*
X362967Y338017D01*
X363500Y339304D01*
Y340696D01*
X362967Y341983D01*
X361982Y342967D01*
X360696Y343500D01*
D02*
G37*
G36*
X350696D02*
X349304D01*
X348017Y342967D01*
X347033Y341983D01*
X346500Y340696D01*
Y339304D01*
X347033Y338017D01*
X348017Y337033D01*
X349304Y336500D01*
X350696D01*
X351982Y337033D01*
X352967Y338017D01*
X353500Y339304D01*
Y340696D01*
X352967Y341983D01*
X351982Y342967D01*
X350696Y343500D01*
D02*
G37*
G36*
X340696D02*
X339304D01*
X338017Y342967D01*
X337033Y341983D01*
X336500Y340696D01*
Y339304D01*
X337033Y338017D01*
X338017Y337033D01*
X339304Y336500D01*
X340696D01*
X341982Y337033D01*
X342967Y338017D01*
X343500Y339304D01*
Y340696D01*
X342967Y341983D01*
X341982Y342967D01*
X340696Y343500D01*
D02*
G37*
G36*
X330696D02*
X329304D01*
X328017Y342967D01*
X327033Y341983D01*
X326500Y340696D01*
Y339304D01*
X327033Y338017D01*
X328017Y337033D01*
X329304Y336500D01*
X330696D01*
X331982Y337033D01*
X332967Y338017D01*
X333500Y339304D01*
Y340696D01*
X332967Y341983D01*
X331982Y342967D01*
X330696Y343500D01*
D02*
G37*
G36*
X320696D02*
X319304D01*
X318017Y342967D01*
X317033Y341983D01*
X316500Y340696D01*
Y339304D01*
X317033Y338017D01*
X318017Y337033D01*
X319304Y336500D01*
X320696D01*
X321983Y337033D01*
X322967Y338017D01*
X323500Y339304D01*
Y340696D01*
X322967Y341983D01*
X321983Y342967D01*
X320696Y343500D01*
D02*
G37*
G36*
X310696D02*
X309304D01*
X308017Y342967D01*
X307033Y341983D01*
X306500Y340696D01*
Y339304D01*
X307033Y338017D01*
X308017Y337033D01*
X309304Y336500D01*
X310696D01*
X311983Y337033D01*
X312967Y338017D01*
X313500Y339304D01*
Y340696D01*
X312967Y341983D01*
X311983Y342967D01*
X310696Y343500D01*
D02*
G37*
G36*
X300696D02*
X299304D01*
X298017Y342967D01*
X297033Y341983D01*
X296500Y340696D01*
Y339304D01*
X297033Y338017D01*
X298017Y337033D01*
X299304Y336500D01*
X300696D01*
X301983Y337033D01*
X302967Y338017D01*
X303500Y339304D01*
Y340696D01*
X302967Y341983D01*
X301983Y342967D01*
X300696Y343500D01*
D02*
G37*
G36*
X517446Y334255D02*
X516054D01*
X514767Y333722D01*
X513783Y332738D01*
X513250Y331451D01*
Y330059D01*
X513783Y328772D01*
X514767Y327788D01*
X516054Y327255D01*
X517446D01*
X518733Y327788D01*
X519717Y328772D01*
X520250Y330059D01*
Y331451D01*
X519717Y332738D01*
X518733Y333722D01*
X517446Y334255D01*
D02*
G37*
G36*
X400696Y333500D02*
X399304D01*
X398017Y332967D01*
X397033Y331983D01*
X396500Y330696D01*
Y329304D01*
X397033Y328017D01*
X398017Y327033D01*
X399304Y326500D01*
X400696D01*
X401982Y327033D01*
X402967Y328017D01*
X403500Y329304D01*
Y330696D01*
X402967Y331983D01*
X401982Y332967D01*
X400696Y333500D01*
D02*
G37*
G36*
X390696D02*
X389304D01*
X388017Y332967D01*
X387033Y331983D01*
X386500Y330696D01*
Y329304D01*
X387033Y328017D01*
X388017Y327033D01*
X389304Y326500D01*
X390696D01*
X391982Y327033D01*
X392967Y328017D01*
X393500Y329304D01*
Y330696D01*
X392967Y331983D01*
X391982Y332967D01*
X390696Y333500D01*
D02*
G37*
G36*
X380696D02*
X379304D01*
X378017Y332967D01*
X377033Y331983D01*
X376500Y330696D01*
Y329304D01*
X377033Y328017D01*
X378017Y327033D01*
X379304Y326500D01*
X380696D01*
X381982Y327033D01*
X382967Y328017D01*
X383500Y329304D01*
Y330696D01*
X382967Y331983D01*
X381982Y332967D01*
X380696Y333500D01*
D02*
G37*
G36*
X370696D02*
X369304D01*
X368017Y332967D01*
X367033Y331983D01*
X366500Y330696D01*
Y329304D01*
X367033Y328017D01*
X368017Y327033D01*
X369304Y326500D01*
X370696D01*
X371982Y327033D01*
X372967Y328017D01*
X373500Y329304D01*
Y330696D01*
X372967Y331983D01*
X371982Y332967D01*
X370696Y333500D01*
D02*
G37*
G36*
X360696D02*
X359304D01*
X358017Y332967D01*
X357033Y331983D01*
X356500Y330696D01*
Y329304D01*
X357033Y328017D01*
X358017Y327033D01*
X359304Y326500D01*
X360696D01*
X361982Y327033D01*
X362967Y328017D01*
X363500Y329304D01*
Y330696D01*
X362967Y331983D01*
X361982Y332967D01*
X360696Y333500D01*
D02*
G37*
G36*
X350696D02*
X349304D01*
X348017Y332967D01*
X347033Y331983D01*
X346500Y330696D01*
Y329304D01*
X347033Y328017D01*
X348017Y327033D01*
X349304Y326500D01*
X350696D01*
X351982Y327033D01*
X352967Y328017D01*
X353500Y329304D01*
Y330696D01*
X352967Y331983D01*
X351982Y332967D01*
X350696Y333500D01*
D02*
G37*
G36*
X340696D02*
X339304D01*
X338017Y332967D01*
X337033Y331983D01*
X336500Y330696D01*
Y329304D01*
X337033Y328017D01*
X338017Y327033D01*
X339304Y326500D01*
X340696D01*
X341982Y327033D01*
X342967Y328017D01*
X343500Y329304D01*
Y330696D01*
X342967Y331983D01*
X341982Y332967D01*
X340696Y333500D01*
D02*
G37*
G36*
X330696D02*
X329304D01*
X328017Y332967D01*
X327033Y331983D01*
X326500Y330696D01*
Y329304D01*
X327033Y328017D01*
X328017Y327033D01*
X329304Y326500D01*
X330696D01*
X331982Y327033D01*
X332967Y328017D01*
X333500Y329304D01*
Y330696D01*
X332967Y331983D01*
X331982Y332967D01*
X330696Y333500D01*
D02*
G37*
G36*
X320696D02*
X319304D01*
X318017Y332967D01*
X317033Y331983D01*
X316500Y330696D01*
Y329304D01*
X317033Y328017D01*
X318017Y327033D01*
X319304Y326500D01*
X320696D01*
X321983Y327033D01*
X322967Y328017D01*
X323500Y329304D01*
Y330696D01*
X322967Y331983D01*
X321983Y332967D01*
X320696Y333500D01*
D02*
G37*
G36*
X310696D02*
X309304D01*
X308017Y332967D01*
X307033Y331983D01*
X306500Y330696D01*
Y329304D01*
X307033Y328017D01*
X308017Y327033D01*
X309304Y326500D01*
X310696D01*
X311983Y327033D01*
X312967Y328017D01*
X313500Y329304D01*
Y330696D01*
X312967Y331983D01*
X311983Y332967D01*
X310696Y333500D01*
D02*
G37*
G36*
X300696D02*
X299304D01*
X298017Y332967D01*
X297033Y331983D01*
X296500Y330696D01*
Y329304D01*
X297033Y328017D01*
X298017Y327033D01*
X299304Y326500D01*
X300696D01*
X301983Y327033D01*
X302967Y328017D01*
X303500Y329304D01*
Y330696D01*
X302967Y331983D01*
X301983Y332967D01*
X300696Y333500D01*
D02*
G37*
G36*
X723196Y328500D02*
X721804D01*
X720517Y327967D01*
X719533Y326983D01*
X719000Y325696D01*
Y324304D01*
X719533Y323017D01*
X720517Y322033D01*
X721804Y321500D01*
X723196D01*
X724483Y322033D01*
X725467Y323017D01*
X726000Y324304D01*
Y325696D01*
X725467Y326983D01*
X724483Y327967D01*
X723196Y328500D01*
D02*
G37*
G36*
X586946Y322250D02*
X585554D01*
X584267Y321717D01*
X583283Y320733D01*
X582750Y319446D01*
Y318054D01*
X583283Y316767D01*
X584267Y315783D01*
X585554Y315250D01*
X586946D01*
X588233Y315783D01*
X589217Y316767D01*
X589750Y318054D01*
Y319446D01*
X589217Y320733D01*
X588233Y321717D01*
X586946Y322250D01*
D02*
G37*
G36*
X374696Y314000D02*
X373304D01*
X372017Y313467D01*
X371033Y312483D01*
X370500Y311196D01*
Y309804D01*
X371033Y308517D01*
X372017Y307533D01*
X373304Y307000D01*
X374696D01*
X375983Y307533D01*
X376967Y308517D01*
X377500Y309804D01*
Y311196D01*
X376967Y312483D01*
X375983Y313467D01*
X374696Y314000D01*
D02*
G37*
G36*
X510034Y309070D02*
X508642D01*
X507355Y308537D01*
X506371Y307552D01*
X505838Y306266D01*
Y304874D01*
X506371Y303587D01*
X507355Y302603D01*
X508642Y302070D01*
X510034D01*
X511320Y302603D01*
X512305Y303587D01*
X512838Y304874D01*
Y306266D01*
X512305Y307552D01*
X511320Y308537D01*
X510034Y309070D01*
D02*
G37*
G36*
X621185Y303611D02*
X619792D01*
X618506Y303078D01*
X617521Y302094D01*
X616988Y300807D01*
Y299415D01*
X617521Y298129D01*
X618506Y297144D01*
X619792Y296611D01*
X621185D01*
X622471Y297144D01*
X623456Y298129D01*
X623988Y299415D01*
Y300807D01*
X623456Y302094D01*
X622471Y303078D01*
X621185Y303611D01*
D02*
G37*
G36*
X618626Y289779D02*
X617234D01*
X615947Y289247D01*
X614963Y288262D01*
X614430Y286976D01*
Y285583D01*
X614963Y284297D01*
X615947Y283312D01*
X617234Y282780D01*
X618626D01*
X619913Y283312D01*
X620897Y284297D01*
X621430Y285583D01*
Y286976D01*
X620897Y288262D01*
X619913Y289247D01*
X618626Y289779D01*
D02*
G37*
G36*
X384196Y289000D02*
X382804D01*
X381517Y288467D01*
X380533Y287483D01*
X380000Y286196D01*
Y284804D01*
X380533Y283517D01*
X381517Y282533D01*
X382804Y282000D01*
X384196D01*
X385483Y282533D01*
X386467Y283517D01*
X387000Y284804D01*
Y286196D01*
X386467Y287483D01*
X385483Y288467D01*
X384196Y289000D01*
D02*
G37*
G36*
X172084Y286212D02*
X170692D01*
X169406Y285679D01*
X168421Y284695D01*
X167888Y283408D01*
Y282016D01*
X168421Y280730D01*
X169406Y279745D01*
X170692Y279212D01*
X172084D01*
X173371Y279745D01*
X174355Y280730D01*
X174888Y282016D01*
Y283408D01*
X174355Y284695D01*
X173371Y285679D01*
X172084Y286212D01*
D02*
G37*
G36*
X351324Y274667D02*
X349932D01*
X348645Y274134D01*
X347661Y273150D01*
X347128Y271863D01*
Y270471D01*
X347661Y269184D01*
X348645Y268200D01*
X349932Y267667D01*
X351324D01*
X352611Y268200D01*
X353595Y269184D01*
X354128Y270471D01*
Y271863D01*
X353595Y273150D01*
X352611Y274134D01*
X351324Y274667D01*
D02*
G37*
G36*
X374946Y274250D02*
X373554D01*
X372267Y273717D01*
X371283Y272733D01*
X370750Y271446D01*
Y270054D01*
X371283Y268767D01*
X372267Y267783D01*
X373554Y267250D01*
X374946D01*
X376233Y267783D01*
X377217Y268767D01*
X377750Y270054D01*
Y271446D01*
X377217Y272733D01*
X376233Y273717D01*
X374946Y274250D01*
D02*
G37*
G36*
X391191Y273500D02*
X389799D01*
X388512Y272967D01*
X387528Y271983D01*
X386995Y270696D01*
Y269304D01*
X387528Y268017D01*
X388512Y267033D01*
X389799Y266500D01*
X391191D01*
X392478Y267033D01*
X393462Y268017D01*
X393995Y269304D01*
Y270696D01*
X393462Y271983D01*
X392478Y272967D01*
X391191Y273500D01*
D02*
G37*
G36*
X155446Y270755D02*
X154054D01*
X152767Y270222D01*
X151783Y269238D01*
X151250Y267951D01*
Y266559D01*
X151783Y265272D01*
X152767Y264288D01*
X154054Y263755D01*
X155446D01*
X156733Y264288D01*
X157717Y265272D01*
X158250Y266559D01*
Y267951D01*
X157717Y269238D01*
X156733Y270222D01*
X155446Y270755D01*
D02*
G37*
G36*
X139446D02*
X138054D01*
X136767Y270222D01*
X135783Y269238D01*
X135250Y267951D01*
Y266559D01*
X135783Y265272D01*
X136767Y264288D01*
X138054Y263755D01*
X139446D01*
X140733Y264288D01*
X141717Y265272D01*
X142250Y266559D01*
Y267951D01*
X141717Y269238D01*
X140733Y270222D01*
X139446Y270755D01*
D02*
G37*
G36*
X123446D02*
X122054D01*
X120767Y270222D01*
X119783Y269238D01*
X119250Y267951D01*
Y266559D01*
X119783Y265272D01*
X120767Y264288D01*
X122054Y263755D01*
X123446D01*
X124733Y264288D01*
X125717Y265272D01*
X126250Y266559D01*
Y267951D01*
X125717Y269238D01*
X124733Y270222D01*
X123446Y270755D01*
D02*
G37*
G36*
X171696Y268500D02*
X170304D01*
X169017Y267967D01*
X168033Y266983D01*
X167500Y265696D01*
Y264304D01*
X168033Y263017D01*
X169017Y262033D01*
X170304Y261500D01*
X171696D01*
X172983Y262033D01*
X173967Y263017D01*
X174500Y264304D01*
Y265696D01*
X173967Y266983D01*
X172983Y267967D01*
X171696Y268500D01*
D02*
G37*
G36*
X584696Y266250D02*
X583304D01*
X582017Y265717D01*
X581033Y264733D01*
X580500Y263446D01*
Y262054D01*
X581033Y260767D01*
X582017Y259783D01*
X583304Y259250D01*
X584696D01*
X585983Y259783D01*
X586967Y260767D01*
X587500Y262054D01*
Y263446D01*
X586967Y264733D01*
X585983Y265717D01*
X584696Y266250D01*
D02*
G37*
G36*
X614446Y263000D02*
X613054D01*
X611767Y262467D01*
X610783Y261483D01*
X610250Y260196D01*
Y258804D01*
X610783Y257517D01*
X611767Y256533D01*
X613054Y256000D01*
X614446D01*
X615733Y256533D01*
X616717Y257517D01*
X617250Y258804D01*
Y260196D01*
X616717Y261483D01*
X615733Y262467D01*
X614446Y263000D01*
D02*
G37*
G36*
X312186Y251154D02*
X310794D01*
X309507Y250621D01*
X308523Y249636D01*
X307990Y248350D01*
Y246958D01*
X308523Y245671D01*
X309507Y244687D01*
X310794Y244154D01*
X312186D01*
X313473Y244687D01*
X314457Y245671D01*
X314990Y246958D01*
Y248350D01*
X314457Y249636D01*
X313473Y250621D01*
X312186Y251154D01*
D02*
G37*
G36*
X680229Y304250D02*
X675271D01*
X670374Y303474D01*
X665658Y301942D01*
X661240Y299691D01*
X657229Y296777D01*
X653723Y293271D01*
X650809Y289260D01*
X648558Y284842D01*
X647026Y280126D01*
X646250Y275229D01*
Y270271D01*
X647026Y265374D01*
X648558Y260658D01*
X650809Y256240D01*
X653723Y252229D01*
X657229Y248723D01*
X661240Y245809D01*
X665658Y243558D01*
X670374Y242026D01*
X675271Y241250D01*
X680229D01*
X685126Y242026D01*
X689842Y243558D01*
X694260Y245809D01*
X698271Y248723D01*
X701777Y252229D01*
X704691Y256240D01*
X706942Y260658D01*
X708474Y265374D01*
X709250Y270271D01*
Y275229D01*
X708474Y280126D01*
X706942Y284842D01*
X704691Y289260D01*
X701777Y293271D01*
X698271Y296777D01*
X694260Y299691D01*
X689842Y301942D01*
X685126Y303474D01*
X680229Y304250D01*
D02*
G37*
G36*
X455229D02*
X450271D01*
X445374Y303474D01*
X440658Y301942D01*
X436240Y299691D01*
X432229Y296777D01*
X428723Y293271D01*
X425809Y289260D01*
X423558Y284842D01*
X422026Y280126D01*
X421250Y275229D01*
Y270271D01*
X422026Y265374D01*
X423558Y260658D01*
X425809Y256240D01*
X428723Y252229D01*
X432229Y248723D01*
X436240Y245809D01*
X440658Y243558D01*
X445374Y242026D01*
X450271Y241250D01*
X455229D01*
X460126Y242026D01*
X464842Y243558D01*
X469260Y245809D01*
X473271Y248723D01*
X476777Y252229D01*
X479691Y256240D01*
X481942Y260658D01*
X483474Y265374D01*
X484250Y270271D01*
Y275229D01*
X483474Y280126D01*
X481942Y284842D01*
X479691Y289260D01*
X476777Y293271D01*
X473271Y296777D01*
X469260Y299691D01*
X464842Y301942D01*
X460126Y303474D01*
X455229Y304250D01*
D02*
G37*
G36*
X230229D02*
X225271D01*
X220374Y303474D01*
X215658Y301942D01*
X211240Y299691D01*
X207229Y296777D01*
X203723Y293271D01*
X200809Y289260D01*
X198558Y284842D01*
X197026Y280126D01*
X196250Y275229D01*
Y270271D01*
X197026Y265374D01*
X198558Y260658D01*
X200809Y256240D01*
X203723Y252229D01*
X207229Y248723D01*
X211240Y245809D01*
X215658Y243558D01*
X220374Y242026D01*
X225271Y241250D01*
X230229D01*
X235126Y242026D01*
X239842Y243558D01*
X244260Y245809D01*
X248271Y248723D01*
X251777Y252229D01*
X254691Y256240D01*
X256942Y260658D01*
X258474Y265374D01*
X259250Y270271D01*
Y275229D01*
X258474Y280126D01*
X256942Y284842D01*
X254691Y289260D01*
X251777Y293271D01*
X248271Y296777D01*
X244260Y299691D01*
X239842Y301942D01*
X235126Y303474D01*
X230229Y304250D01*
D02*
G37*
G36*
X685696Y233500D02*
X684304D01*
X683018Y232967D01*
X682033Y231983D01*
X681937Y231752D01*
X680563D01*
X680467Y231983D01*
X679483Y232967D01*
X678196Y233500D01*
X676804D01*
X675517Y232967D01*
X674533Y231983D01*
X674437Y231752D01*
X673063D01*
X672967Y231983D01*
X671983Y232967D01*
X670696Y233500D01*
X669304D01*
X668017Y232967D01*
X667033Y231983D01*
X666937Y231752D01*
X665563D01*
X665467Y231983D01*
X664483Y232967D01*
X663196Y233500D01*
X661804D01*
X660517Y232967D01*
X659533Y231983D01*
X659437Y231752D01*
X658063D01*
X657967Y231983D01*
X656983Y232967D01*
X655696Y233500D01*
X654304D01*
X653017Y232967D01*
X652033Y231983D01*
X651937Y231752D01*
X650563D01*
X650467Y231983D01*
X649483Y232967D01*
X648196Y233500D01*
X646804D01*
X645517Y232967D01*
X644533Y231983D01*
X644437Y231752D01*
X643063D01*
X642967Y231983D01*
X641983Y232967D01*
X640696Y233500D01*
X639304D01*
X638017Y232967D01*
X637033Y231983D01*
X636500Y230696D01*
Y229304D01*
X637033Y228017D01*
X638017Y227033D01*
X639304Y226500D01*
X640696D01*
X641983Y227033D01*
X642967Y228017D01*
X643063Y228248D01*
X644437D01*
X644533Y228017D01*
X645517Y227033D01*
X646804Y226500D01*
X648196D01*
X649483Y227033D01*
X650467Y228017D01*
X650563Y228248D01*
X651937D01*
X652033Y228017D01*
X653017Y227033D01*
X654304Y226500D01*
X655696D01*
X656983Y227033D01*
X657967Y228017D01*
X658063Y228248D01*
X659437D01*
X659533Y228017D01*
X660517Y227033D01*
X661804Y226500D01*
X663196D01*
X664483Y227033D01*
X665467Y228017D01*
X665563Y228248D01*
X666937D01*
X667033Y228017D01*
X668017Y227033D01*
X669304Y226500D01*
X670696D01*
X671983Y227033D01*
X672967Y228017D01*
X673063Y228248D01*
X674437D01*
X674533Y228017D01*
X675517Y227033D01*
X676804Y226500D01*
X678196D01*
X679483Y227033D01*
X680467Y228017D01*
X680563Y228248D01*
X681937D01*
X682033Y228017D01*
X683018Y227033D01*
X684304Y226500D01*
X685696D01*
X686983Y227033D01*
X687967Y228017D01*
X688500Y229304D01*
Y230696D01*
X687967Y231983D01*
X686983Y232967D01*
X685696Y233500D01*
D02*
G37*
G36*
X408946Y235774D02*
X407554D01*
X406267Y235241D01*
X405283Y234257D01*
X404750Y232970D01*
Y231578D01*
X405283Y230292D01*
X406267Y229307D01*
X407554Y228774D01*
X408946D01*
X410233Y229307D01*
X411217Y230292D01*
X411750Y231578D01*
Y232970D01*
X411217Y234257D01*
X410233Y235241D01*
X408946Y235774D01*
D02*
G37*
G36*
X501946Y229755D02*
X500554D01*
X499267Y229222D01*
X498283Y228238D01*
X497750Y226951D01*
Y225559D01*
X498283Y224272D01*
X499267Y223288D01*
X500554Y222755D01*
X501946D01*
X503233Y223288D01*
X504217Y224272D01*
X504750Y225559D01*
Y226951D01*
X504217Y228238D01*
X503233Y229222D01*
X501946Y229755D01*
D02*
G37*
G36*
X326946Y229750D02*
X325554D01*
X324267Y229217D01*
X323283Y228233D01*
X322750Y226946D01*
Y225554D01*
X323283Y224267D01*
X324267Y223283D01*
X325554Y222750D01*
X326946D01*
X328233Y223283D01*
X329217Y224267D01*
X329750Y225554D01*
Y226946D01*
X329217Y228233D01*
X328233Y229217D01*
X326946Y229750D01*
D02*
G37*
G36*
X296696Y219154D02*
X295304D01*
X294017Y218621D01*
X293033Y217636D01*
X292500Y216350D01*
Y214958D01*
X293033Y213671D01*
X294017Y212687D01*
X295304Y212154D01*
X296696D01*
X297983Y212687D01*
X298967Y213671D01*
X299500Y214958D01*
Y216350D01*
X298967Y217636D01*
X297983Y218621D01*
X296696Y219154D01*
D02*
G37*
G36*
X585193Y219045D02*
X583800D01*
X582514Y218512D01*
X581529Y217527D01*
X580997Y216241D01*
Y214848D01*
X581529Y213562D01*
X582514Y212577D01*
X583800Y212045D01*
X585193D01*
X586479Y212577D01*
X587464Y213562D01*
X587997Y214848D01*
Y216241D01*
X587464Y217527D01*
X586479Y218512D01*
X585193Y219045D01*
D02*
G37*
G36*
X406441Y218774D02*
X405049D01*
X403762Y218241D01*
X402778Y217257D01*
X402245Y215970D01*
Y214578D01*
X402778Y213291D01*
X403762Y212307D01*
X405049Y211774D01*
X406441D01*
X407728Y212307D01*
X408712Y213291D01*
X409245Y214578D01*
Y215970D01*
X408712Y217257D01*
X407728Y218241D01*
X406441Y218774D01*
D02*
G37*
G36*
X504451Y213500D02*
X503059D01*
X501772Y212967D01*
X500788Y211983D01*
X500255Y210696D01*
Y209304D01*
X500788Y208017D01*
X501772Y207033D01*
X503059Y206500D01*
X504451D01*
X505738Y207033D01*
X506722Y208017D01*
X507255Y209304D01*
Y210696D01*
X506722Y211983D01*
X505738Y212967D01*
X504451Y213500D01*
D02*
G37*
G36*
X312446Y203250D02*
X311054D01*
X309767Y202717D01*
X308783Y201733D01*
X308250Y200446D01*
Y199054D01*
X308783Y197767D01*
X309767Y196783D01*
X311054Y196250D01*
X312446D01*
X313733Y196783D01*
X314717Y197767D01*
X315250Y199054D01*
Y200446D01*
X314717Y201733D01*
X313733Y202717D01*
X312446Y203250D01*
D02*
G37*
G36*
X600186Y203191D02*
X598794D01*
X597507Y202658D01*
X596523Y201673D01*
X595990Y200387D01*
Y198995D01*
X596523Y197708D01*
X597507Y196724D01*
X598794Y196191D01*
X600186D01*
X601473Y196724D01*
X602457Y197708D01*
X602990Y198995D01*
Y200387D01*
X602457Y201673D01*
X601473Y202658D01*
X600186Y203191D01*
D02*
G37*
G36*
X408946Y202774D02*
X407554D01*
X406267Y202241D01*
X405283Y201257D01*
X404750Y199970D01*
Y198578D01*
X405283Y197292D01*
X406267Y196307D01*
X407554Y195774D01*
X408946D01*
X410233Y196307D01*
X411217Y197292D01*
X411750Y198578D01*
Y199970D01*
X411217Y201257D01*
X410233Y202241D01*
X408946Y202774D01*
D02*
G37*
G36*
X501946Y197250D02*
X500554D01*
X499267Y196717D01*
X498283Y195733D01*
X497750Y194446D01*
Y193054D01*
X498283Y191767D01*
X499267Y190783D01*
X500554Y190250D01*
X501946D01*
X503233Y190783D01*
X504217Y191767D01*
X504750Y193054D01*
Y194446D01*
X504217Y195733D01*
X503233Y196717D01*
X501946Y197250D01*
D02*
G37*
G36*
X262941Y182250D02*
X261549D01*
X260262Y181717D01*
X259278Y180733D01*
X258745Y179446D01*
Y178054D01*
X259278Y176767D01*
X260262Y175783D01*
X261549Y175250D01*
X262941D01*
X264228Y175783D01*
X265212Y176767D01*
X265745Y178054D01*
Y179446D01*
X265212Y180733D01*
X264228Y181717D01*
X262941Y182250D01*
D02*
G37*
G36*
X683196Y181000D02*
X681804D01*
X680517Y180467D01*
X679533Y179483D01*
X679000Y178196D01*
Y176804D01*
X679533Y175517D01*
X680517Y174533D01*
X681804Y174000D01*
X683196D01*
X684483Y174533D01*
X685467Y175517D01*
X686000Y176804D01*
Y178196D01*
X685467Y179483D01*
X684483Y180467D01*
X683196Y181000D01*
D02*
G37*
G36*
X673196D02*
X671804D01*
X670517Y180467D01*
X669533Y179483D01*
X669000Y178196D01*
Y176804D01*
X669533Y175517D01*
X670517Y174533D01*
X671804Y174000D01*
X673196D01*
X674483Y174533D01*
X675467Y175517D01*
X676000Y176804D01*
Y178196D01*
X675467Y179483D01*
X674483Y180467D01*
X673196Y181000D01*
D02*
G37*
G36*
X663196D02*
X661804D01*
X660517Y180467D01*
X659533Y179483D01*
X659000Y178196D01*
Y176804D01*
X659533Y175517D01*
X660517Y174533D01*
X661804Y174000D01*
X663196D01*
X664483Y174533D01*
X665467Y175517D01*
X666000Y176804D01*
Y178196D01*
X665467Y179483D01*
X664483Y180467D01*
X663196Y181000D01*
D02*
G37*
G36*
X653196D02*
X651804D01*
X650517Y180467D01*
X649533Y179483D01*
X649000Y178196D01*
Y176804D01*
X649533Y175517D01*
X650517Y174533D01*
X651804Y174000D01*
X653196D01*
X654483Y174533D01*
X655467Y175517D01*
X656000Y176804D01*
Y178196D01*
X655467Y179483D01*
X654483Y180467D01*
X653196Y181000D01*
D02*
G37*
G36*
X643196D02*
X641804D01*
X640517Y180467D01*
X639533Y179483D01*
X639000Y178196D01*
Y176804D01*
X639533Y175517D01*
X640517Y174533D01*
X641804Y174000D01*
X643196D01*
X644483Y174533D01*
X645467Y175517D01*
X646000Y176804D01*
Y178196D01*
X645467Y179483D01*
X644483Y180467D01*
X643196Y181000D01*
D02*
G37*
G36*
X327196Y173755D02*
X325804D01*
X324517Y173222D01*
X323533Y172238D01*
X323000Y170951D01*
Y169559D01*
X323533Y168272D01*
X324517Y167288D01*
X325804Y166755D01*
X327196D01*
X328483Y167288D01*
X329467Y168272D01*
X330000Y169559D01*
Y170951D01*
X329467Y172238D01*
X328483Y173222D01*
X327196Y173755D01*
D02*
G37*
G36*
X343196Y173505D02*
X341804D01*
X340517Y172972D01*
X339533Y171988D01*
X339000Y170701D01*
Y169309D01*
X339533Y168022D01*
X340517Y167038D01*
X341804Y166505D01*
X343196D01*
X344483Y167038D01*
X345467Y168022D01*
X346000Y169309D01*
Y170701D01*
X345467Y171988D01*
X344483Y172972D01*
X343196Y173505D01*
D02*
G37*
G36*
X372696Y173500D02*
X371304D01*
X370017Y172967D01*
X369033Y171983D01*
X368500Y170696D01*
Y169304D01*
X369033Y168017D01*
X370017Y167033D01*
X371304Y166500D01*
X372696D01*
X373983Y167033D01*
X374967Y168017D01*
X375500Y169304D01*
Y170696D01*
X374967Y171983D01*
X373983Y172967D01*
X372696Y173500D01*
D02*
G37*
G36*
X152901Y172209D02*
X151508D01*
X150222Y171676D01*
X149237Y170692D01*
X148705Y169405D01*
Y168013D01*
X149237Y166726D01*
X150222Y165742D01*
X151508Y165209D01*
X152901D01*
X154187Y165742D01*
X155172Y166726D01*
X155704Y168013D01*
Y169405D01*
X155172Y170692D01*
X154187Y171676D01*
X152901Y172209D01*
D02*
G37*
G36*
X190696Y153500D02*
X189304D01*
X188017Y152967D01*
X187033Y151983D01*
X186500Y150696D01*
Y149304D01*
X187033Y148017D01*
X188017Y147033D01*
X189304Y146500D01*
X190696D01*
X191983Y147033D01*
X192967Y148017D01*
X193500Y149304D01*
Y150696D01*
X192967Y151983D01*
X191983Y152967D01*
X190696Y153500D01*
D02*
G37*
G36*
X180696D02*
X179304D01*
X178017Y152967D01*
X177033Y151983D01*
X176500Y150696D01*
Y149304D01*
X177033Y148017D01*
X178017Y147033D01*
X179304Y146500D01*
X180696D01*
X181983Y147033D01*
X182967Y148017D01*
X183500Y149304D01*
Y150696D01*
X182967Y151983D01*
X181983Y152967D01*
X180696Y153500D01*
D02*
G37*
G36*
X190696Y143500D02*
X189304D01*
X188017Y142967D01*
X187033Y141983D01*
X186500Y140696D01*
Y139304D01*
X187033Y138017D01*
X188017Y137033D01*
X189304Y136500D01*
X190696D01*
X191983Y137033D01*
X192967Y138017D01*
X193500Y139304D01*
Y140696D01*
X192967Y141983D01*
X191983Y142967D01*
X190696Y143500D01*
D02*
G37*
G36*
X180696D02*
X179304D01*
X178017Y142967D01*
X177033Y141983D01*
X176500Y140696D01*
Y139304D01*
X177033Y138017D01*
X178017Y137033D01*
X179304Y136500D01*
X180696D01*
X181983Y137033D01*
X182967Y138017D01*
X183500Y139304D01*
Y140696D01*
X182967Y141983D01*
X181983Y142967D01*
X180696Y143500D01*
D02*
G37*
G36*
X765696Y141000D02*
X764304D01*
X763017Y140467D01*
X762033Y139483D01*
X761500Y138196D01*
Y136804D01*
X762033Y135517D01*
X763017Y134533D01*
X764304Y134000D01*
X765696D01*
X766983Y134533D01*
X767967Y135517D01*
X768500Y136804D01*
Y138196D01*
X767967Y139483D01*
X766983Y140467D01*
X765696Y141000D01*
D02*
G37*
G36*
X755696D02*
X754304D01*
X753017Y140467D01*
X752033Y139483D01*
X751500Y138196D01*
Y136804D01*
X752033Y135517D01*
X753017Y134533D01*
X754304Y134000D01*
X755696D01*
X756983Y134533D01*
X757967Y135517D01*
X758500Y136804D01*
Y138196D01*
X757967Y139483D01*
X756983Y140467D01*
X755696Y141000D01*
D02*
G37*
G36*
X745696D02*
X744304D01*
X743017Y140467D01*
X742033Y139483D01*
X741500Y138196D01*
Y136804D01*
X742033Y135517D01*
X743017Y134533D01*
X744304Y134000D01*
X745696D01*
X746983Y134533D01*
X747967Y135517D01*
X748500Y136804D01*
Y138196D01*
X747967Y139483D01*
X746983Y140467D01*
X745696Y141000D01*
D02*
G37*
G36*
X148696Y137500D02*
X147304D01*
X146017Y136967D01*
X145033Y135983D01*
X144500Y134696D01*
Y133304D01*
X145033Y132017D01*
X146017Y131033D01*
X147304Y130500D01*
X148696D01*
X149983Y131033D01*
X150967Y132017D01*
X151500Y133304D01*
Y134696D01*
X150967Y135983D01*
X149983Y136967D01*
X148696Y137500D01*
D02*
G37*
G36*
X138696D02*
X137304D01*
X136017Y136967D01*
X135033Y135983D01*
X134500Y134696D01*
Y133304D01*
X135033Y132017D01*
X136017Y131033D01*
X137304Y130500D01*
X138696D01*
X139983Y131033D01*
X140967Y132017D01*
X141500Y133304D01*
Y134696D01*
X140967Y135983D01*
X139983Y136967D01*
X138696Y137500D01*
D02*
G37*
G36*
X128696D02*
X127304D01*
X126017Y136967D01*
X125033Y135983D01*
X124500Y134696D01*
Y133304D01*
X125033Y132017D01*
X126017Y131033D01*
X127304Y130500D01*
X128696D01*
X129983Y131033D01*
X130967Y132017D01*
X131500Y133304D01*
Y134696D01*
X130967Y135983D01*
X129983Y136967D01*
X128696Y137500D01*
D02*
G37*
G36*
X200696Y133500D02*
X199304D01*
X198017Y132967D01*
X197033Y131983D01*
X196500Y130696D01*
Y129304D01*
X197033Y128017D01*
X198017Y127033D01*
X199304Y126500D01*
X200696D01*
X201983Y127033D01*
X202967Y128017D01*
X203500Y129304D01*
Y130696D01*
X202967Y131983D01*
X201983Y132967D01*
X200696Y133500D01*
D02*
G37*
G36*
X190696D02*
X189304D01*
X188017Y132967D01*
X187033Y131983D01*
X186500Y130696D01*
Y129304D01*
X187033Y128017D01*
X188017Y127033D01*
X189304Y126500D01*
X190696D01*
X191983Y127033D01*
X192967Y128017D01*
X193500Y129304D01*
Y130696D01*
X192967Y131983D01*
X191983Y132967D01*
X190696Y133500D01*
D02*
G37*
G36*
X180696D02*
X179304D01*
X178017Y132967D01*
X177033Y131983D01*
X176500Y130696D01*
Y129304D01*
X177033Y128017D01*
X178017Y127033D01*
X179304Y126500D01*
X180696D01*
X181983Y127033D01*
X182967Y128017D01*
X183500Y129304D01*
Y130696D01*
X182967Y131983D01*
X181983Y132967D01*
X180696Y133500D01*
D02*
G37*
G36*
X765696Y131000D02*
X764304D01*
X763017Y130467D01*
X762033Y129483D01*
X761500Y128196D01*
Y126804D01*
X762033Y125517D01*
X763017Y124533D01*
X764304Y124000D01*
X765696D01*
X766983Y124533D01*
X767967Y125517D01*
X768500Y126804D01*
Y128196D01*
X767967Y129483D01*
X766983Y130467D01*
X765696Y131000D01*
D02*
G37*
G36*
X755696D02*
X754304D01*
X753017Y130467D01*
X752033Y129483D01*
X751500Y128196D01*
Y126804D01*
X752033Y125517D01*
X753017Y124533D01*
X754304Y124000D01*
X755696D01*
X756983Y124533D01*
X757967Y125517D01*
X758500Y126804D01*
Y128196D01*
X757967Y129483D01*
X756983Y130467D01*
X755696Y131000D01*
D02*
G37*
G36*
X745696D02*
X744304D01*
X743017Y130467D01*
X742033Y129483D01*
X741500Y128196D01*
Y126804D01*
X742033Y125517D01*
X743017Y124533D01*
X744304Y124000D01*
X745696D01*
X746983Y124533D01*
X747967Y125517D01*
X748500Y126804D01*
Y128196D01*
X747967Y129483D01*
X746983Y130467D01*
X745696Y131000D01*
D02*
G37*
G36*
X633102Y130801D02*
X631709D01*
X630423Y130268D01*
X629438Y129284D01*
X628905Y127998D01*
Y126605D01*
X629438Y125319D01*
X630423Y124334D01*
X631709Y123801D01*
X633102D01*
X634388Y124334D01*
X635373Y125319D01*
X635905Y126605D01*
Y127998D01*
X635373Y129284D01*
X634388Y130268D01*
X633102Y130801D01*
D02*
G37*
G36*
X148696Y127500D02*
X147304D01*
X146017Y126967D01*
X145033Y125983D01*
X144500Y124696D01*
Y123304D01*
X145033Y122017D01*
X146017Y121033D01*
X147304Y120500D01*
X148696D01*
X149983Y121033D01*
X150967Y122017D01*
X151500Y123304D01*
Y124696D01*
X150967Y125983D01*
X149983Y126967D01*
X148696Y127500D01*
D02*
G37*
G36*
X138696D02*
X137304D01*
X136017Y126967D01*
X135033Y125983D01*
X134500Y124696D01*
Y123304D01*
X135033Y122017D01*
X136017Y121033D01*
X137304Y120500D01*
X138696D01*
X139983Y121033D01*
X140967Y122017D01*
X141500Y123304D01*
Y124696D01*
X140967Y125983D01*
X139983Y126967D01*
X138696Y127500D01*
D02*
G37*
G36*
X128696D02*
X127304D01*
X126017Y126967D01*
X125033Y125983D01*
X124500Y124696D01*
Y123304D01*
X125033Y122017D01*
X126017Y121033D01*
X127304Y120500D01*
X128696D01*
X129983Y121033D01*
X130967Y122017D01*
X131500Y123304D01*
Y124696D01*
X130967Y125983D01*
X129983Y126967D01*
X128696Y127500D01*
D02*
G37*
G36*
X200696Y123500D02*
X199304D01*
X198017Y122967D01*
X197033Y121983D01*
X196500Y120696D01*
Y119304D01*
X197033Y118017D01*
X198017Y117033D01*
X199304Y116500D01*
X200696D01*
X201983Y117033D01*
X202967Y118017D01*
X203500Y119304D01*
Y120696D01*
X202967Y121983D01*
X201983Y122967D01*
X200696Y123500D01*
D02*
G37*
G36*
X190696D02*
X189304D01*
X188017Y122967D01*
X187033Y121983D01*
X186500Y120696D01*
Y119304D01*
X187033Y118017D01*
X188017Y117033D01*
X189304Y116500D01*
X190696D01*
X191983Y117033D01*
X192967Y118017D01*
X193500Y119304D01*
Y120696D01*
X192967Y121983D01*
X191983Y122967D01*
X190696Y123500D01*
D02*
G37*
G36*
X180696D02*
X179304D01*
X178017Y122967D01*
X177033Y121983D01*
X176500Y120696D01*
Y119304D01*
X177033Y118017D01*
X178017Y117033D01*
X179304Y116500D01*
X180696D01*
X181983Y117033D01*
X182967Y118017D01*
X183500Y119304D01*
Y120696D01*
X182967Y121983D01*
X181983Y122967D01*
X180696Y123500D01*
D02*
G37*
G36*
X765696Y121000D02*
X764304D01*
X763017Y120467D01*
X762033Y119483D01*
X761500Y118196D01*
Y116804D01*
X762033Y115517D01*
X763017Y114533D01*
X764304Y114000D01*
X765696D01*
X766983Y114533D01*
X767967Y115517D01*
X768500Y116804D01*
Y118196D01*
X767967Y119483D01*
X766983Y120467D01*
X765696Y121000D01*
D02*
G37*
G36*
X755696D02*
X754304D01*
X753017Y120467D01*
X752033Y119483D01*
X751500Y118196D01*
Y116804D01*
X752033Y115517D01*
X753017Y114533D01*
X754304Y114000D01*
X755696D01*
X756983Y114533D01*
X757967Y115517D01*
X758500Y116804D01*
Y118196D01*
X757967Y119483D01*
X756983Y120467D01*
X755696Y121000D01*
D02*
G37*
G36*
X745696D02*
X744304D01*
X743017Y120467D01*
X742033Y119483D01*
X741500Y118196D01*
Y116804D01*
X742033Y115517D01*
X743017Y114533D01*
X744304Y114000D01*
X745696D01*
X746983Y114533D01*
X747967Y115517D01*
X748500Y116804D01*
Y118196D01*
X747967Y119483D01*
X746983Y120467D01*
X745696Y121000D01*
D02*
G37*
G36*
X148696Y117500D02*
X147304D01*
X146017Y116967D01*
X145033Y115983D01*
X144500Y114696D01*
Y113304D01*
X145033Y112017D01*
X146017Y111033D01*
X147304Y110500D01*
X148696D01*
X149983Y111033D01*
X150967Y112017D01*
X151500Y113304D01*
Y114696D01*
X150967Y115983D01*
X149983Y116967D01*
X148696Y117500D01*
D02*
G37*
G36*
X138696D02*
X137304D01*
X136017Y116967D01*
X135033Y115983D01*
X134500Y114696D01*
Y113304D01*
X135033Y112017D01*
X136017Y111033D01*
X137304Y110500D01*
X138696D01*
X139983Y111033D01*
X140967Y112017D01*
X141500Y113304D01*
Y114696D01*
X140967Y115983D01*
X139983Y116967D01*
X138696Y117500D01*
D02*
G37*
G36*
X128696D02*
X127304D01*
X126017Y116967D01*
X125033Y115983D01*
X124500Y114696D01*
Y113304D01*
X125033Y112017D01*
X126017Y111033D01*
X127304Y110500D01*
X128696D01*
X129983Y111033D01*
X130967Y112017D01*
X131500Y113304D01*
Y114696D01*
X130967Y115983D01*
X129983Y116967D01*
X128696Y117500D01*
D02*
G37*
G36*
X721514Y114943D02*
X720122D01*
X718835Y114410D01*
X717850Y113426D01*
X717318Y112139D01*
Y110747D01*
X717850Y109461D01*
X718835Y108476D01*
X720122Y107943D01*
X721514D01*
X722800Y108476D01*
X723785Y109461D01*
X724318Y110747D01*
Y112139D01*
X723785Y113426D01*
X722800Y114410D01*
X721514Y114943D01*
D02*
G37*
G36*
X703514D02*
X702122D01*
X700835Y114410D01*
X699850Y113426D01*
X699318Y112139D01*
Y110747D01*
X699850Y109461D01*
X700835Y108476D01*
X702122Y107943D01*
X703514D01*
X704800Y108476D01*
X705785Y109461D01*
X706318Y110747D01*
Y112139D01*
X705785Y113426D01*
X704800Y114410D01*
X703514Y114943D01*
D02*
G37*
G36*
X418696Y107500D02*
X417304D01*
X416017Y106967D01*
X415033Y105983D01*
X414500Y104696D01*
Y103304D01*
X415033Y102017D01*
X416017Y101033D01*
X417304Y100500D01*
X418696D01*
X419983Y101033D01*
X420967Y102017D01*
X421500Y103304D01*
Y104696D01*
X420967Y105983D01*
X419983Y106967D01*
X418696Y107500D01*
D02*
G37*
G36*
X408696D02*
X407304D01*
X406017Y106967D01*
X405033Y105983D01*
X404500Y104696D01*
Y103304D01*
X405033Y102017D01*
X406017Y101033D01*
X407304Y100500D01*
X408696D01*
X409983Y101033D01*
X410967Y102017D01*
X411500Y103304D01*
Y104696D01*
X410967Y105983D01*
X409983Y106967D01*
X408696Y107500D01*
D02*
G37*
G36*
X398696D02*
X397304D01*
X396017Y106967D01*
X395033Y105983D01*
X394500Y104696D01*
Y103304D01*
X395033Y102017D01*
X396017Y101033D01*
X397304Y100500D01*
X398696D01*
X399983Y101033D01*
X400967Y102017D01*
X401500Y103304D01*
Y104696D01*
X400967Y105983D01*
X399983Y106967D01*
X398696Y107500D01*
D02*
G37*
G36*
X658075Y105849D02*
X656683D01*
X655397Y105316D01*
X654412Y104332D01*
X653879Y103045D01*
Y101653D01*
X654412Y100366D01*
X655397Y99382D01*
X656683Y98849D01*
X658075D01*
X659362Y99382D01*
X660346Y100366D01*
X660879Y101653D01*
Y103045D01*
X660346Y104332D01*
X659362Y105316D01*
X658075Y105849D01*
D02*
G37*
G36*
X82811Y105248D02*
X81419D01*
X80133Y104715D01*
X79148Y103730D01*
X78615Y102444D01*
Y101052D01*
X79148Y99765D01*
X80133Y98781D01*
X81419Y98248D01*
X82811D01*
X84098Y98781D01*
X84496Y99179D01*
X85414Y99584D01*
X86155Y99179D01*
X86632Y98702D01*
X87918Y98169D01*
X89311D01*
X90597Y98702D01*
X91582Y99687D01*
X92115Y100973D01*
Y102366D01*
X91582Y103652D01*
X90597Y104636D01*
X89311Y105169D01*
X87918D01*
X86632Y104636D01*
X86234Y104238D01*
X85316Y103833D01*
X84574Y104238D01*
X84098Y104715D01*
X82811Y105248D01*
D02*
G37*
G36*
X380696Y103500D02*
X379304D01*
X378018Y102967D01*
X377033Y101983D01*
X376500Y100696D01*
Y99304D01*
X377033Y98017D01*
X378018Y97033D01*
X379304Y96500D01*
X380696D01*
X381983Y97033D01*
X382967Y98017D01*
X383500Y99304D01*
Y100696D01*
X382967Y101983D01*
X381983Y102967D01*
X380696Y103500D01*
D02*
G37*
G36*
X370696D02*
X369304D01*
X368018Y102967D01*
X367033Y101983D01*
X366500Y100696D01*
Y99304D01*
X367033Y98017D01*
X368018Y97033D01*
X369304Y96500D01*
X370696D01*
X371983Y97033D01*
X372967Y98017D01*
X373500Y99304D01*
Y100696D01*
X372967Y101983D01*
X371983Y102967D01*
X370696Y103500D01*
D02*
G37*
G36*
X360696D02*
X359304D01*
X358017Y102967D01*
X357033Y101983D01*
X356500Y100696D01*
Y99304D01*
X357033Y98017D01*
X358017Y97033D01*
X359304Y96500D01*
X360696D01*
X361983Y97033D01*
X362967Y98017D01*
X363500Y99304D01*
Y100696D01*
X362967Y101983D01*
X361983Y102967D01*
X360696Y103500D01*
D02*
G37*
G36*
X350696D02*
X349304D01*
X348017Y102967D01*
X347033Y101983D01*
X346500Y100696D01*
Y99304D01*
X347033Y98017D01*
X348017Y97033D01*
X349304Y96500D01*
X350696D01*
X351983Y97033D01*
X352967Y98017D01*
X353500Y99304D01*
Y100696D01*
X352967Y101983D01*
X351983Y102967D01*
X350696Y103500D01*
D02*
G37*
G36*
X340696D02*
X339304D01*
X338017Y102967D01*
X337033Y101983D01*
X336500Y100696D01*
Y99304D01*
X337033Y98017D01*
X338017Y97033D01*
X339304Y96500D01*
X340696D01*
X341983Y97033D01*
X342967Y98017D01*
X343500Y99304D01*
Y100696D01*
X342967Y101983D01*
X341983Y102967D01*
X340696Y103500D01*
D02*
G37*
G36*
X330696D02*
X329304D01*
X328017Y102967D01*
X327033Y101983D01*
X326500Y100696D01*
Y99304D01*
X327033Y98017D01*
X328017Y97033D01*
X329304Y96500D01*
X330696D01*
X331983Y97033D01*
X332967Y98017D01*
X333500Y99304D01*
Y100696D01*
X332967Y101983D01*
X331983Y102967D01*
X330696Y103500D01*
D02*
G37*
G36*
X320696D02*
X319304D01*
X318017Y102967D01*
X317033Y101983D01*
X316500Y100696D01*
Y99304D01*
X317033Y98017D01*
X318017Y97033D01*
X319304Y96500D01*
X320696D01*
X321983Y97033D01*
X322967Y98017D01*
X323500Y99304D01*
Y100696D01*
X322967Y101983D01*
X321983Y102967D01*
X320696Y103500D01*
D02*
G37*
G36*
X310696D02*
X309304D01*
X308017Y102967D01*
X307033Y101983D01*
X306500Y100696D01*
Y99304D01*
X307033Y98017D01*
X308017Y97033D01*
X309304Y96500D01*
X310696D01*
X311983Y97033D01*
X312967Y98017D01*
X313500Y99304D01*
Y100696D01*
X312967Y101983D01*
X311983Y102967D01*
X310696Y103500D01*
D02*
G37*
G36*
X300696D02*
X299304D01*
X298017Y102967D01*
X297033Y101983D01*
X296500Y100696D01*
Y99304D01*
X297033Y98017D01*
X298017Y97033D01*
X299304Y96500D01*
X300696D01*
X301983Y97033D01*
X302967Y98017D01*
X303500Y99304D01*
Y100696D01*
X302967Y101983D01*
X301983Y102967D01*
X300696Y103500D01*
D02*
G37*
G36*
X290696D02*
X289304D01*
X288017Y102967D01*
X287033Y101983D01*
X286500Y100696D01*
Y99304D01*
X287033Y98017D01*
X288017Y97033D01*
X289304Y96500D01*
X290696D01*
X291983Y97033D01*
X292967Y98017D01*
X293500Y99304D01*
Y100696D01*
X292967Y101983D01*
X291983Y102967D01*
X290696Y103500D01*
D02*
G37*
G36*
X518196Y100250D02*
X516804D01*
X515517Y99717D01*
X514533Y98733D01*
X514000Y97446D01*
Y96054D01*
X514533Y94767D01*
X515517Y93783D01*
X516804Y93250D01*
X518196D01*
X519483Y93783D01*
X520467Y94767D01*
X521000Y96054D01*
Y97446D01*
X520467Y98733D01*
X519483Y99717D01*
X518196Y100250D01*
D02*
G37*
G36*
X721446Y98500D02*
X720054D01*
X718767Y97967D01*
X717783Y96983D01*
X717250Y95696D01*
Y94304D01*
X717783Y93017D01*
X718767Y92033D01*
X720054Y91500D01*
X721446D01*
X722733Y92033D01*
X723717Y93017D01*
X724250Y94304D01*
Y95696D01*
X723717Y96983D01*
X722733Y97967D01*
X721446Y98500D01*
D02*
G37*
G36*
X418696Y97500D02*
X417304D01*
X416017Y96967D01*
X415033Y95983D01*
X414500Y94696D01*
Y93304D01*
X415033Y92017D01*
X416017Y91033D01*
X417304Y90500D01*
X418696D01*
X419983Y91033D01*
X420967Y92017D01*
X421500Y93304D01*
Y94696D01*
X420967Y95983D01*
X419983Y96967D01*
X418696Y97500D01*
D02*
G37*
G36*
X408696D02*
X407304D01*
X406017Y96967D01*
X405033Y95983D01*
X404500Y94696D01*
Y93304D01*
X405033Y92017D01*
X406017Y91033D01*
X407304Y90500D01*
X408696D01*
X409983Y91033D01*
X410967Y92017D01*
X411500Y93304D01*
Y94696D01*
X410967Y95983D01*
X409983Y96967D01*
X408696Y97500D01*
D02*
G37*
G36*
X398696D02*
X397304D01*
X396017Y96967D01*
X395033Y95983D01*
X394500Y94696D01*
Y93304D01*
X395033Y92017D01*
X396017Y91033D01*
X397304Y90500D01*
X398696D01*
X399983Y91033D01*
X400967Y92017D01*
X401500Y93304D01*
Y94696D01*
X400967Y95983D01*
X399983Y96967D01*
X398696Y97500D01*
D02*
G37*
G36*
X380696Y93500D02*
X379304D01*
X378018Y92967D01*
X377033Y91983D01*
X376500Y90696D01*
Y89304D01*
X377033Y88017D01*
X378018Y87033D01*
X379304Y86500D01*
X380696D01*
X381983Y87033D01*
X382967Y88017D01*
X383500Y89304D01*
Y90696D01*
X382967Y91983D01*
X381983Y92967D01*
X380696Y93500D01*
D02*
G37*
G36*
X370696D02*
X369304D01*
X368018Y92967D01*
X367033Y91983D01*
X366500Y90696D01*
Y89304D01*
X367033Y88017D01*
X368018Y87033D01*
X369304Y86500D01*
X370696D01*
X371983Y87033D01*
X372967Y88017D01*
X373500Y89304D01*
Y90696D01*
X372967Y91983D01*
X371983Y92967D01*
X370696Y93500D01*
D02*
G37*
G36*
X360696D02*
X359304D01*
X358017Y92967D01*
X357033Y91983D01*
X356500Y90696D01*
Y89304D01*
X357033Y88017D01*
X358017Y87033D01*
X359304Y86500D01*
X360696D01*
X361983Y87033D01*
X362967Y88017D01*
X363500Y89304D01*
Y90696D01*
X362967Y91983D01*
X361983Y92967D01*
X360696Y93500D01*
D02*
G37*
G36*
X350696D02*
X349304D01*
X348017Y92967D01*
X347033Y91983D01*
X346500Y90696D01*
Y89304D01*
X347033Y88017D01*
X348017Y87033D01*
X349304Y86500D01*
X350696D01*
X351983Y87033D01*
X352967Y88017D01*
X353500Y89304D01*
Y90696D01*
X352967Y91983D01*
X351983Y92967D01*
X350696Y93500D01*
D02*
G37*
G36*
X340696D02*
X339304D01*
X338017Y92967D01*
X337033Y91983D01*
X336500Y90696D01*
Y89304D01*
X337033Y88017D01*
X338017Y87033D01*
X339304Y86500D01*
X340696D01*
X341983Y87033D01*
X342967Y88017D01*
X343500Y89304D01*
Y90696D01*
X342967Y91983D01*
X341983Y92967D01*
X340696Y93500D01*
D02*
G37*
G36*
X330696D02*
X329304D01*
X328017Y92967D01*
X327033Y91983D01*
X326500Y90696D01*
Y89304D01*
X327033Y88017D01*
X328017Y87033D01*
X329304Y86500D01*
X330696D01*
X331983Y87033D01*
X332967Y88017D01*
X333500Y89304D01*
Y90696D01*
X332967Y91983D01*
X331983Y92967D01*
X330696Y93500D01*
D02*
G37*
G36*
X320696D02*
X319304D01*
X318017Y92967D01*
X317033Y91983D01*
X316500Y90696D01*
Y89304D01*
X317033Y88017D01*
X318017Y87033D01*
X319304Y86500D01*
X320696D01*
X321983Y87033D01*
X322967Y88017D01*
X323500Y89304D01*
Y90696D01*
X322967Y91983D01*
X321983Y92967D01*
X320696Y93500D01*
D02*
G37*
G36*
X310696D02*
X309304D01*
X308017Y92967D01*
X307033Y91983D01*
X306500Y90696D01*
Y89304D01*
X307033Y88017D01*
X308017Y87033D01*
X309304Y86500D01*
X310696D01*
X311983Y87033D01*
X312967Y88017D01*
X313500Y89304D01*
Y90696D01*
X312967Y91983D01*
X311983Y92967D01*
X310696Y93500D01*
D02*
G37*
G36*
X300696D02*
X299304D01*
X298017Y92967D01*
X297033Y91983D01*
X296500Y90696D01*
Y89304D01*
X297033Y88017D01*
X298017Y87033D01*
X299304Y86500D01*
X300696D01*
X301983Y87033D01*
X302967Y88017D01*
X303500Y89304D01*
Y90696D01*
X302967Y91983D01*
X301983Y92967D01*
X300696Y93500D01*
D02*
G37*
G36*
X290696D02*
X289304D01*
X288017Y92967D01*
X287033Y91983D01*
X286500Y90696D01*
Y89304D01*
X287033Y88017D01*
X288017Y87033D01*
X289304Y86500D01*
X290696D01*
X291983Y87033D01*
X292967Y88017D01*
X293500Y89304D01*
Y90696D01*
X292967Y91983D01*
X291983Y92967D01*
X290696Y93500D01*
D02*
G37*
G36*
X625696Y88838D02*
X624304D01*
X623017Y88305D01*
X622033Y87321D01*
X621500Y86034D01*
Y84642D01*
X622033Y83356D01*
X623017Y82371D01*
X624304Y81838D01*
X625696D01*
X626983Y82371D01*
X627967Y83356D01*
X628500Y84642D01*
Y86034D01*
X627967Y87321D01*
X626983Y88305D01*
X625696Y88838D01*
D02*
G37*
G36*
X380696Y83500D02*
X379304D01*
X378018Y82967D01*
X377033Y81983D01*
X376500Y80696D01*
Y79304D01*
X377033Y78017D01*
X378018Y77033D01*
X379304Y76500D01*
X380696D01*
X381983Y77033D01*
X382967Y78017D01*
X383500Y79304D01*
Y80696D01*
X382967Y81983D01*
X381983Y82967D01*
X380696Y83500D01*
D02*
G37*
G36*
X370696D02*
X369304D01*
X368018Y82967D01*
X367033Y81983D01*
X366500Y80696D01*
Y79304D01*
X367033Y78017D01*
X368018Y77033D01*
X369304Y76500D01*
X370696D01*
X371983Y77033D01*
X372967Y78017D01*
X373500Y79304D01*
Y80696D01*
X372967Y81983D01*
X371983Y82967D01*
X370696Y83500D01*
D02*
G37*
G36*
X360696D02*
X359304D01*
X358017Y82967D01*
X357033Y81983D01*
X356500Y80696D01*
Y79304D01*
X357033Y78017D01*
X358017Y77033D01*
X359304Y76500D01*
X360696D01*
X361983Y77033D01*
X362967Y78017D01*
X363500Y79304D01*
Y80696D01*
X362967Y81983D01*
X361983Y82967D01*
X360696Y83500D01*
D02*
G37*
G36*
X350696D02*
X349304D01*
X348017Y82967D01*
X347033Y81983D01*
X346500Y80696D01*
Y79304D01*
X347033Y78017D01*
X348017Y77033D01*
X349304Y76500D01*
X350696D01*
X351983Y77033D01*
X352967Y78017D01*
X353500Y79304D01*
Y80696D01*
X352967Y81983D01*
X351983Y82967D01*
X350696Y83500D01*
D02*
G37*
G36*
X340696D02*
X339304D01*
X338017Y82967D01*
X337033Y81983D01*
X336500Y80696D01*
Y79304D01*
X337033Y78017D01*
X338017Y77033D01*
X339304Y76500D01*
X340696D01*
X341983Y77033D01*
X342967Y78017D01*
X343500Y79304D01*
Y80696D01*
X342967Y81983D01*
X341983Y82967D01*
X340696Y83500D01*
D02*
G37*
G36*
X330696D02*
X329304D01*
X328017Y82967D01*
X327033Y81983D01*
X326500Y80696D01*
Y79304D01*
X327033Y78017D01*
X328017Y77033D01*
X329304Y76500D01*
X330696D01*
X331983Y77033D01*
X332967Y78017D01*
X333500Y79304D01*
Y80696D01*
X332967Y81983D01*
X331983Y82967D01*
X330696Y83500D01*
D02*
G37*
G36*
X320696D02*
X319304D01*
X318017Y82967D01*
X317033Y81983D01*
X316500Y80696D01*
Y79304D01*
X317033Y78017D01*
X318017Y77033D01*
X319304Y76500D01*
X320696D01*
X321983Y77033D01*
X322967Y78017D01*
X323500Y79304D01*
Y80696D01*
X322967Y81983D01*
X321983Y82967D01*
X320696Y83500D01*
D02*
G37*
G36*
X310696D02*
X309304D01*
X308017Y82967D01*
X307033Y81983D01*
X306500Y80696D01*
Y79304D01*
X307033Y78017D01*
X308017Y77033D01*
X309304Y76500D01*
X310696D01*
X311983Y77033D01*
X312967Y78017D01*
X313500Y79304D01*
Y80696D01*
X312967Y81983D01*
X311983Y82967D01*
X310696Y83500D01*
D02*
G37*
G36*
X300696D02*
X299304D01*
X298017Y82967D01*
X297033Y81983D01*
X296500Y80696D01*
Y79304D01*
X297033Y78017D01*
X298017Y77033D01*
X299304Y76500D01*
X300696D01*
X301983Y77033D01*
X302967Y78017D01*
X303500Y79304D01*
Y80696D01*
X302967Y81983D01*
X301983Y82967D01*
X300696Y83500D01*
D02*
G37*
G36*
X290696D02*
X289304D01*
X288017Y82967D01*
X287033Y81983D01*
X286500Y80696D01*
Y79304D01*
X287033Y78017D01*
X288017Y77033D01*
X289304Y76500D01*
X290696D01*
X291983Y77033D01*
X292967Y78017D01*
X293500Y79304D01*
Y80696D01*
X292967Y81983D01*
X291983Y82967D01*
X290696Y83500D01*
D02*
G37*
G36*
X558446Y80838D02*
X557054D01*
X555767Y80305D01*
X554783Y79321D01*
X554250Y78034D01*
Y76642D01*
X554783Y75356D01*
X555767Y74371D01*
X557054Y73838D01*
X558446D01*
X559733Y74371D01*
X560717Y75356D01*
X561250Y76642D01*
Y78034D01*
X560717Y79321D01*
X559733Y80305D01*
X558446Y80838D01*
D02*
G37*
G36*
X850696Y76500D02*
X849304D01*
X848017Y75967D01*
X847033Y74983D01*
X846500Y73696D01*
Y72304D01*
X847033Y71017D01*
X848017Y70033D01*
X849304Y69500D01*
X850696D01*
X851983Y70033D01*
X852967Y71017D01*
X853500Y72304D01*
Y73696D01*
X852967Y74983D01*
X851983Y75967D01*
X850696Y76500D01*
D02*
G37*
G36*
X50696D02*
X49304D01*
X48017Y75967D01*
X47033Y74983D01*
X46500Y73696D01*
Y72304D01*
X47033Y71017D01*
X48017Y70033D01*
X49304Y69500D01*
X50696D01*
X51983Y70033D01*
X52967Y71017D01*
X53500Y72304D01*
Y73696D01*
X52967Y74983D01*
X51983Y75967D01*
X50696Y76500D01*
D02*
G37*
G36*
X866956Y69763D02*
X865564D01*
X864277Y69231D01*
X863293Y68246D01*
X862760Y66960D01*
Y65567D01*
X863293Y64281D01*
X864277Y63296D01*
X865564Y62764D01*
X866956D01*
X868243Y63296D01*
X869227Y64281D01*
X869760Y65567D01*
Y66960D01*
X869227Y68246D01*
X868243Y69231D01*
X866956Y69763D01*
D02*
G37*
G36*
X834436D02*
X833044D01*
X831757Y69231D01*
X830773Y68246D01*
X830240Y66960D01*
Y65567D01*
X830773Y64281D01*
X831757Y63296D01*
X833044Y62764D01*
X834436D01*
X835723Y63296D01*
X836707Y64281D01*
X837240Y65567D01*
Y66960D01*
X836707Y68246D01*
X835723Y69231D01*
X834436Y69763D01*
D02*
G37*
G36*
X66956D02*
X65564D01*
X64277Y69231D01*
X63293Y68246D01*
X62760Y66960D01*
Y65567D01*
X63293Y64281D01*
X64277Y63296D01*
X65564Y62764D01*
X66956D01*
X68243Y63296D01*
X69227Y64281D01*
X69760Y65567D01*
Y66960D01*
X69227Y68246D01*
X68243Y69231D01*
X66956Y69763D01*
D02*
G37*
G36*
X34436D02*
X33044D01*
X31757Y69231D01*
X30773Y68246D01*
X30240Y66960D01*
Y65567D01*
X30773Y64281D01*
X31757Y63296D01*
X33044Y62764D01*
X34436D01*
X35723Y63296D01*
X36707Y64281D01*
X37240Y65567D01*
Y66960D01*
X36707Y68246D01*
X35723Y69231D01*
X34436Y69763D01*
D02*
G37*
G36*
X780696Y63700D02*
X779304D01*
X778017Y63167D01*
X777033Y62183D01*
X776500Y60896D01*
Y59504D01*
X777033Y58217D01*
X778017Y57233D01*
X778652Y56970D01*
X778399Y55700D01*
X778375D01*
X775187Y55066D01*
X772184Y53822D01*
X769482Y52016D01*
X769470Y52004D01*
X768393Y52724D01*
X768653Y53351D01*
Y54743D01*
X768120Y56030D01*
X767136Y57014D01*
X765849Y57547D01*
X764457D01*
X763170Y57014D01*
X762186Y56030D01*
X761653Y54743D01*
Y53351D01*
X762186Y52064D01*
X763170Y51080D01*
X764457Y50547D01*
X765849D01*
X766476Y50807D01*
X767196Y49730D01*
X767184Y49718D01*
X765378Y47016D01*
X764134Y44013D01*
X763500Y40825D01*
Y40801D01*
X762230Y40548D01*
X761967Y41183D01*
X760983Y42167D01*
X759696Y42700D01*
X758304D01*
X757017Y42167D01*
X756033Y41183D01*
X755500Y39896D01*
Y38504D01*
X756033Y37217D01*
X757017Y36233D01*
X758304Y35700D01*
X759696D01*
X760983Y36233D01*
X761967Y37217D01*
X762230Y37852D01*
X763500Y37599D01*
Y37575D01*
X764134Y34387D01*
X765378Y31384D01*
X767184Y28682D01*
X767196Y28670D01*
X766476Y27593D01*
X765849Y27853D01*
X764457D01*
X763170Y27320D01*
X762186Y26336D01*
X761653Y25049D01*
Y23657D01*
X762186Y22370D01*
X763170Y21386D01*
X764457Y20853D01*
X765849D01*
X767136Y21386D01*
X768120Y22370D01*
X768653Y23657D01*
Y25049D01*
X768393Y25676D01*
X769470Y26395D01*
X769482Y26384D01*
X772184Y24578D01*
X775187Y23334D01*
X778375Y22700D01*
X778399D01*
X778652Y21430D01*
X778017Y21167D01*
X777033Y20183D01*
X776500Y18896D01*
Y17504D01*
X777033Y16217D01*
X778017Y15233D01*
X779304Y14700D01*
X780696D01*
X781983Y15233D01*
X782967Y16217D01*
X783500Y17504D01*
Y18896D01*
X782967Y20183D01*
X781983Y21167D01*
X781348Y21430D01*
X781601Y22700D01*
X781625D01*
X784813Y23334D01*
X787816Y24578D01*
X790518Y26384D01*
X790530Y26395D01*
X791607Y25676D01*
X791347Y25049D01*
Y23657D01*
X791880Y22370D01*
X792864Y21386D01*
X794151Y20853D01*
X795543D01*
X796830Y21386D01*
X797814Y22370D01*
X798347Y23657D01*
Y25049D01*
X797814Y26336D01*
X796830Y27320D01*
X795543Y27853D01*
X794151D01*
X793524Y27593D01*
X792804Y28670D01*
X792816Y28682D01*
X794622Y31384D01*
X795866Y34387D01*
X796500Y37575D01*
Y37599D01*
X797770Y37852D01*
X798033Y37217D01*
X799017Y36233D01*
X800304Y35700D01*
X801696D01*
X802983Y36233D01*
X803967Y37217D01*
X804500Y38504D01*
Y39896D01*
X803967Y41183D01*
X802983Y42167D01*
X801696Y42700D01*
X800304D01*
X799017Y42167D01*
X798033Y41183D01*
X797770Y40548D01*
X796500Y40801D01*
Y40825D01*
X795866Y44013D01*
X794622Y47016D01*
X792816Y49718D01*
X792804Y49730D01*
X793524Y50807D01*
X794151Y50547D01*
X795543D01*
X796830Y51080D01*
X797814Y52064D01*
X798347Y53351D01*
Y54743D01*
X797814Y56030D01*
X796830Y57014D01*
X795543Y57547D01*
X794151D01*
X792864Y57014D01*
X791880Y56030D01*
X791347Y54743D01*
Y53351D01*
X791607Y52724D01*
X790530Y52004D01*
X790518Y52016D01*
X787816Y53822D01*
X784813Y55066D01*
X781625Y55700D01*
X781601D01*
X781348Y56970D01*
X781983Y57233D01*
X782967Y58217D01*
X783500Y59504D01*
Y60896D01*
X782967Y62183D01*
X781983Y63167D01*
X780696Y63700D01*
D02*
G37*
G36*
X120696D02*
X119304D01*
X118017Y63167D01*
X117033Y62183D01*
X116500Y60896D01*
Y59504D01*
X117033Y58217D01*
X118017Y57233D01*
X118652Y56970D01*
X118399Y55700D01*
X118375D01*
X115187Y55066D01*
X112184Y53822D01*
X109482Y52016D01*
X109470Y52004D01*
X108393Y52724D01*
X108653Y53351D01*
Y54743D01*
X108120Y56030D01*
X107136Y57014D01*
X105849Y57547D01*
X104457D01*
X103170Y57014D01*
X102186Y56030D01*
X101653Y54743D01*
Y53351D01*
X102186Y52064D01*
X103170Y51080D01*
X104457Y50547D01*
X105849D01*
X106476Y50807D01*
X107196Y49730D01*
X107184Y49718D01*
X105378Y47016D01*
X104134Y44013D01*
X103500Y40825D01*
Y40801D01*
X102230Y40548D01*
X101967Y41183D01*
X100983Y42167D01*
X99696Y42700D01*
X98304D01*
X97017Y42167D01*
X96033Y41183D01*
X95500Y39896D01*
Y38504D01*
X96033Y37217D01*
X97017Y36233D01*
X98304Y35700D01*
X99696D01*
X100983Y36233D01*
X101967Y37217D01*
X102230Y37852D01*
X103500Y37599D01*
Y37575D01*
X104134Y34387D01*
X105378Y31384D01*
X107184Y28682D01*
X107196Y28670D01*
X106476Y27593D01*
X105849Y27853D01*
X104457D01*
X103170Y27320D01*
X102186Y26336D01*
X101653Y25049D01*
Y23657D01*
X102186Y22370D01*
X103170Y21386D01*
X104457Y20853D01*
X105849D01*
X107136Y21386D01*
X108120Y22370D01*
X108653Y23657D01*
Y25049D01*
X108393Y25676D01*
X109470Y26395D01*
X109482Y26384D01*
X112184Y24578D01*
X115187Y23334D01*
X118375Y22700D01*
X118399D01*
X118652Y21430D01*
X118017Y21167D01*
X117033Y20183D01*
X116500Y18896D01*
Y17504D01*
X117033Y16217D01*
X118017Y15233D01*
X119304Y14700D01*
X120696D01*
X121983Y15233D01*
X122967Y16217D01*
X123500Y17504D01*
Y18896D01*
X122967Y20183D01*
X121983Y21167D01*
X121348Y21430D01*
X121601Y22700D01*
X121625D01*
X124813Y23334D01*
X127816Y24578D01*
X130518Y26384D01*
X130530Y26395D01*
X131607Y25676D01*
X131347Y25049D01*
Y23657D01*
X131880Y22370D01*
X132864Y21386D01*
X134151Y20853D01*
X135543D01*
X136830Y21386D01*
X137814Y22370D01*
X138347Y23657D01*
Y25049D01*
X137814Y26336D01*
X136830Y27320D01*
X135543Y27853D01*
X134151D01*
X133524Y27593D01*
X132804Y28670D01*
X132816Y28682D01*
X134622Y31384D01*
X135866Y34387D01*
X136500Y37575D01*
Y37599D01*
X137770Y37852D01*
X138033Y37217D01*
X139017Y36233D01*
X140304Y35700D01*
X141696D01*
X142983Y36233D01*
X143967Y37217D01*
X144500Y38504D01*
Y39896D01*
X143967Y41183D01*
X142983Y42167D01*
X141696Y42700D01*
X140304D01*
X139017Y42167D01*
X138033Y41183D01*
X137770Y40548D01*
X136500Y40801D01*
Y40825D01*
X135866Y44013D01*
X134622Y47016D01*
X132816Y49718D01*
X132804Y49730D01*
X133524Y50807D01*
X134151Y50547D01*
X135543D01*
X136830Y51080D01*
X137814Y52064D01*
X138347Y53351D01*
Y54743D01*
X137814Y56030D01*
X136830Y57014D01*
X135543Y57547D01*
X134151D01*
X132864Y57014D01*
X131880Y56030D01*
X131347Y54743D01*
Y53351D01*
X131607Y52724D01*
X130530Y52004D01*
X130518Y52016D01*
X127816Y53822D01*
X124813Y55066D01*
X121625Y55700D01*
X121601D01*
X121348Y56970D01*
X121983Y57233D01*
X122967Y58217D01*
X123500Y59504D01*
Y60896D01*
X122967Y62183D01*
X121983Y63167D01*
X120696Y63700D01*
D02*
G37*
G36*
X711946Y55750D02*
X710554D01*
X709267Y55217D01*
X708283Y54233D01*
X707750Y52946D01*
Y51554D01*
X708283Y50267D01*
X709267Y49283D01*
X710554Y48750D01*
X711946D01*
X713233Y49283D01*
X714217Y50267D01*
X714750Y51554D01*
Y52946D01*
X714217Y54233D01*
X713233Y55217D01*
X711946Y55750D01*
D02*
G37*
G36*
X873696Y53500D02*
X872304D01*
X871017Y52967D01*
X870033Y51983D01*
X869500Y50696D01*
Y49304D01*
X870033Y48017D01*
X871017Y47033D01*
X872304Y46500D01*
X873696D01*
X874983Y47033D01*
X875967Y48017D01*
X876500Y49304D01*
Y50696D01*
X875967Y51983D01*
X874983Y52967D01*
X873696Y53500D01*
D02*
G37*
G36*
X827696D02*
X826304D01*
X825017Y52967D01*
X824033Y51983D01*
X823500Y50696D01*
Y49304D01*
X824033Y48017D01*
X825017Y47033D01*
X826304Y46500D01*
X827696D01*
X828983Y47033D01*
X829967Y48017D01*
X830500Y49304D01*
Y50696D01*
X829967Y51983D01*
X828983Y52967D01*
X827696Y53500D01*
D02*
G37*
G36*
X73696D02*
X72304D01*
X71017Y52967D01*
X70033Y51983D01*
X69500Y50696D01*
Y49304D01*
X70033Y48017D01*
X71017Y47033D01*
X72304Y46500D01*
X73696D01*
X74983Y47033D01*
X75967Y48017D01*
X76500Y49304D01*
Y50696D01*
X75967Y51983D01*
X74983Y52967D01*
X73696Y53500D01*
D02*
G37*
G36*
X27696D02*
X26304D01*
X25017Y52967D01*
X24033Y51983D01*
X23500Y50696D01*
Y49304D01*
X24033Y48017D01*
X25017Y47033D01*
X26304Y46500D01*
X27696D01*
X28983Y47033D01*
X29967Y48017D01*
X30500Y49304D01*
Y50696D01*
X29967Y51983D01*
X28983Y52967D01*
X27696Y53500D01*
D02*
G37*
G36*
X851773Y68000D02*
X848227D01*
X844750Y67308D01*
X841474Y65951D01*
X838526Y63981D01*
X836019Y61474D01*
X834049Y58526D01*
X832692Y55250D01*
X832000Y51773D01*
Y48227D01*
X832692Y44750D01*
X834049Y41474D01*
X836019Y38526D01*
X838526Y36019D01*
X841474Y34049D01*
X844750Y32692D01*
X848227Y32000D01*
X851773D01*
X855250Y32692D01*
X858526Y34049D01*
X861474Y36019D01*
X863981Y38526D01*
X865951Y41474D01*
X867308Y44750D01*
X868000Y48227D01*
Y51773D01*
X867308Y55250D01*
X865951Y58526D01*
X863981Y61474D01*
X861474Y63981D01*
X858526Y65951D01*
X855250Y67308D01*
X851773Y68000D01*
D02*
G37*
G36*
X51773D02*
X48227D01*
X44750Y67308D01*
X41474Y65951D01*
X38526Y63981D01*
X36019Y61474D01*
X34049Y58526D01*
X32692Y55250D01*
X32000Y51773D01*
Y48227D01*
X32692Y44750D01*
X34049Y41474D01*
X36019Y38526D01*
X38526Y36019D01*
X41474Y34049D01*
X44750Y32692D01*
X48227Y32000D01*
X51773D01*
X55250Y32692D01*
X58526Y34049D01*
X61474Y36019D01*
X63981Y38526D01*
X65951Y41474D01*
X67308Y44750D01*
X68000Y48227D01*
Y51773D01*
X67308Y55250D01*
X65951Y58526D01*
X63981Y61474D01*
X61474Y63981D01*
X58526Y65951D01*
X55250Y67308D01*
X51773Y68000D01*
D02*
G37*
G36*
X720196Y38000D02*
X718804D01*
X717517Y37467D01*
X716533Y36483D01*
X716000Y35196D01*
Y33804D01*
X716533Y32517D01*
X717517Y31533D01*
X718804Y31000D01*
X720196D01*
X721483Y31533D01*
X722467Y32517D01*
X723000Y33804D01*
Y35196D01*
X722467Y36483D01*
X721483Y37467D01*
X720196Y38000D01*
D02*
G37*
G36*
X866956Y37236D02*
X865564D01*
X864277Y36704D01*
X863293Y35719D01*
X862760Y34433D01*
Y33040D01*
X863293Y31754D01*
X864277Y30769D01*
X865564Y30236D01*
X866956D01*
X868243Y30769D01*
X869227Y31754D01*
X869760Y33040D01*
Y34433D01*
X869227Y35719D01*
X868243Y36704D01*
X866956Y37236D01*
D02*
G37*
G36*
X834436D02*
X833044D01*
X831757Y36704D01*
X830773Y35719D01*
X830240Y34433D01*
Y33040D01*
X830773Y31754D01*
X831757Y30769D01*
X833044Y30236D01*
X834436D01*
X835723Y30769D01*
X836707Y31754D01*
X837240Y33040D01*
Y34433D01*
X836707Y35719D01*
X835723Y36704D01*
X834436Y37236D01*
D02*
G37*
G36*
X66956D02*
X65564D01*
X64277Y36704D01*
X63293Y35719D01*
X62760Y34433D01*
Y33040D01*
X63293Y31754D01*
X64277Y30769D01*
X65564Y30236D01*
X66956D01*
X68243Y30769D01*
X69227Y31754D01*
X69760Y33040D01*
Y34433D01*
X69227Y35719D01*
X68243Y36704D01*
X66956Y37236D01*
D02*
G37*
G36*
X34436D02*
X33044D01*
X31757Y36704D01*
X30773Y35719D01*
X30240Y34433D01*
Y33040D01*
X30773Y31754D01*
X31757Y30769D01*
X33044Y30236D01*
X34436D01*
X35723Y30769D01*
X36707Y31754D01*
X37240Y33040D01*
Y34433D01*
X36707Y35719D01*
X35723Y36704D01*
X34436Y37236D01*
D02*
G37*
G36*
X850696Y30500D02*
X849304D01*
X848017Y29967D01*
X847033Y28983D01*
X846500Y27696D01*
Y26304D01*
X847033Y25017D01*
X848017Y24033D01*
X849304Y23500D01*
X850696D01*
X851983Y24033D01*
X852967Y25017D01*
X853500Y26304D01*
Y27696D01*
X852967Y28983D01*
X851983Y29967D01*
X850696Y30500D01*
D02*
G37*
G36*
X50696D02*
X49304D01*
X48017Y29967D01*
X47033Y28983D01*
X46500Y27696D01*
Y26304D01*
X47033Y25017D01*
X48017Y24033D01*
X49304Y23500D01*
X50696D01*
X51983Y24033D01*
X52967Y25017D01*
X53500Y26304D01*
Y27696D01*
X52967Y28983D01*
X51983Y29967D01*
X50696Y30500D01*
D02*
G37*
%LPD*%
D126*
X227750Y693250D02*
D03*
X452750D02*
D03*
X677750Y272750D02*
D03*
X452750D02*
D03*
X227750D02*
D03*
X677750Y693250D02*
D03*
D132*
X244014Y676490D02*
D03*
Y709010D02*
D03*
X211486D02*
D03*
Y676490D02*
D03*
X204750Y692750D02*
D03*
X227750Y715750D02*
D03*
X250750Y692750D02*
D03*
X227750Y669750D02*
D03*
X244014Y255990D02*
D03*
Y288510D02*
D03*
X211486D02*
D03*
Y255990D02*
D03*
X204750Y272250D02*
D03*
X227750Y295250D02*
D03*
X250750Y272250D02*
D03*
X227750Y249250D02*
D03*
X469013Y255990D02*
D03*
Y288510D02*
D03*
X436487D02*
D03*
Y255990D02*
D03*
X429750Y272250D02*
D03*
X452750Y295250D02*
D03*
X475750Y272250D02*
D03*
X452750Y249250D02*
D03*
X694014Y255990D02*
D03*
Y288510D02*
D03*
X661487D02*
D03*
Y255990D02*
D03*
X654750Y272250D02*
D03*
X677750Y295250D02*
D03*
X700750Y272250D02*
D03*
X677750Y249250D02*
D03*
X694014Y676490D02*
D03*
Y709010D02*
D03*
X661487D02*
D03*
Y676490D02*
D03*
X654750Y692750D02*
D03*
X677750Y715750D02*
D03*
X700750Y692750D02*
D03*
X677750Y669750D02*
D03*
X469013Y676490D02*
D03*
Y709010D02*
D03*
X436487D02*
D03*
Y676490D02*
D03*
X429750Y692750D02*
D03*
X452750Y715750D02*
D03*
X475750Y692750D02*
D03*
X452750Y669750D02*
D03*
D133*
X610000Y518500D02*
D03*
X227500Y800000D02*
D03*
X217500D02*
D03*
X207500D02*
D03*
X197500D02*
D03*
X187500D02*
D03*
X177500D02*
D03*
X227500Y810000D02*
D03*
X217500D02*
D03*
X207500D02*
D03*
X197500D02*
D03*
X187500D02*
D03*
X177500D02*
D03*
X818750Y532500D02*
D03*
X731950Y687495D02*
D03*
X563000Y446500D02*
D03*
X672500Y897250D02*
D03*
X641000Y896750D02*
D03*
X493000Y483500D02*
D03*
X863000Y375750D02*
D03*
X845245Y398500D02*
D03*
X598250Y368750D02*
D03*
X645250Y482000D02*
D03*
X701500Y34500D02*
D03*
X599745Y215691D02*
D03*
X531303Y367562D02*
D03*
X295750Y199654D02*
D03*
M02*
