G04*
G04 #@! TF.GenerationSoftware,Altium Limited,Altium Designer,26.2.0 (7)*
G04*
G04 Layer_Color=255*
%FSLAX44Y44*%
%MOMM*%
G71*
G04*
G04 #@! TF.SameCoordinates,705C9359-2560-42EC-9C9A-8D9864D1FE1B*
G04*
G04*
G04 #@! TF.FilePolarity,Positive*
G04*
G01*
G75*
%ADD17R,0.9000X1.3000*%
%ADD18R,0.8000X0.8750*%
%ADD19R,2.1000X3.0000*%
%ADD20R,0.8000X1.6000*%
%ADD21R,0.6000X0.6000*%
%ADD22R,0.2000X0.6000*%
%ADD23R,0.2000X0.6800*%
%ADD24R,3.3000X2.8500*%
%ADD25R,1.0000X0.2000*%
%ADD26R,1.5000X2.4000*%
%ADD27R,0.5000X0.7500*%
%ADD28R,1.6000X0.8000*%
%ADD29R,1.1000X1.7500*%
%ADD30R,1.5000X0.3500*%
%ADD31R,0.9000X1.1000*%
%ADD32R,1.1000X0.9000*%
%ADD33R,2.4000X1.5000*%
%ADD34R,0.6000X0.2000*%
%ADD35R,0.9500X0.2000*%
%ADD36R,0.2000X0.6500*%
%ADD37R,0.2000X0.7000*%
%ADD38R,0.7500X0.5000*%
%ADD39R,0.8750X0.8000*%
G04:AMPARAMS|DCode=40|XSize=0.3mm|YSize=2.4mm|CornerRadius=0.015mm|HoleSize=0mm|Usage=FLASHONLY|Rotation=90.000|XOffset=0mm|YOffset=0mm|HoleType=Round|Shape=RoundedRectangle|*
%AMROUNDEDRECTD40*
21,1,0.3000,2.3700,0,0,90.0*
21,1,0.2700,2.4000,0,0,90.0*
1,1,0.0300,1.1850,0.1350*
1,1,0.0300,1.1850,-0.1350*
1,1,0.0300,-1.1850,-0.1350*
1,1,0.0300,-1.1850,0.1350*
%
%ADD40ROUNDEDRECTD40*%
%ADD41R,3.0000X2.1000*%
G04:AMPARAMS|DCode=42|XSize=0.6mm|YSize=0.25mm|CornerRadius=0.0125mm|HoleSize=0mm|Usage=FLASHONLY|Rotation=270.000|XOffset=0mm|YOffset=0mm|HoleType=Round|Shape=RoundedRectangle|*
%AMROUNDEDRECTD42*
21,1,0.6000,0.2250,0,0,270.0*
21,1,0.5750,0.2500,0,0,270.0*
1,1,0.0250,-0.1125,-0.2875*
1,1,0.0250,-0.1125,0.2875*
1,1,0.0250,0.1125,0.2875*
1,1,0.0250,0.1125,-0.2875*
%
%ADD42ROUNDEDRECTD42*%
%ADD43R,0.4000X0.5500*%
%ADD44R,1.3000X0.9000*%
%ADD46R,1.1000X1.5500*%
%ADD47R,1.5500X1.1000*%
%ADD48R,0.5500X0.4000*%
%AMCUSTOMSHAPE90*
4,1,6,0.2405,0.1040,-0.2596,0.1040,-0.2596,0.8040,-0.4596,0.8040,-0.4596,-0.0961,0.2405,-0.0961,0.2405,0.1040,0.0*%
%ADD90CUSTOMSHAPE90*%

%AMCUSTOMSHAPE91*
4,1,6,-0.2405,0.0539,0.2596,0.0539,0.2596,0.8040,0.4596,0.8040,0.4596,-0.1460,-0.2405,-0.1460,-0.2405,0.0539,0.0*%
%ADD91CUSTOMSHAPE91*%

%AMCUSTOMSHAPE92*
4,1,6,-0.2405,-0.0539,0.2596,-0.0539,0.2596,-0.8040,0.4596,-0.8040,0.4596,0.1460,-0.2405,0.1460,-0.2405,-0.0539,0.0*%
%ADD92CUSTOMSHAPE92*%

%AMCUSTOMSHAPE93*
4,1,6,0.2405,-0.1040,-0.2596,-0.1040,-0.2596,-0.8040,-0.4596,-0.8040,-0.4596,0.0961,0.2405,0.0961,0.2405,-0.1040,0.0*%
%ADD93CUSTOMSHAPE93*%

%AMCUSTOMSHAPE94*
4,1,6,0.4750,0.1000,0.1250,0.1000,0.1250,0.4500,-0.1750,0.4500,-0.1750,-0.1500,0.4750,-0.1500,0.4750,0.1000,0.0*%
%ADD94CUSTOMSHAPE94*%

%AMCUSTOMSHAPE95*
4,1,6,0.4750,-0.1000,0.1250,-0.1000,0.1250,-0.4500,-0.1750,-0.4500,-0.1750,0.1500,0.4750,0.1500,0.4750,-0.1000,0.0*%
%ADD95CUSTOMSHAPE95*%

%AMCUSTOMSHAPE96*
4,1,6,-0.4750,0.1000,-0.1250,0.1000,-0.1250,0.4500,0.1750,0.4500,0.1750,-0.1500,-0.4750,-0.1500,-0.4750,0.1000,0.0*%
%ADD96CUSTOMSHAPE96*%

%AMCUSTOMSHAPE97*
4,1,6,-0.4750,-0.1000,-0.1250,-0.1000,-0.1250,-0.4500,0.1750,-0.4500,0.1750,0.1500,-0.4750,0.1500,-0.4750,-0.1000,0.0*%
%ADD97CUSTOMSHAPE97*%

%ADD98R,0.5000X0.9250*%
%AMCUSTOMSHAPE99*
4,1,16,-1.6050,2.2275,-1.6050,1.4275,-0.9350,1.4275,-0.9350,2.2275,-0.3350,2.2275,-0.3350,1.4275,0.3350,1.4275,0.3350,2.2275,0.9350,2.2275,0.9350,1.4275,1.6050,1.4275,1.6050,2.2275,2.2050,2.2275,2.2050,-2.2275,-2.2050,-2.2275,-2.2050,2.2275,-1.6050,2.2275,0.0*%
%ADD99CUSTOMSHAPE99*%

%AMCUSTOMSHAPE100*
4,1,16,1.6050,-2.2275,1.6050,-1.4275,0.9350,-1.4275,0.9350,-2.2275,0.3350,-2.2275,0.3350,-1.4275,-0.3350,-1.4275,-0.3350,-2.2275,-0.9350,-2.2275,-0.9350,-1.4275,-1.6050,-1.4275,-1.6050,-2.2275,-2.2050,-2.2275,-2.2050,2.2275,2.2050,2.2275,2.2050,-2.2275,1.6050,-2.2275,0.0*%
%ADD100CUSTOMSHAPE100*%

%ADD101R,0.6550X0.6750*%
%ADD102R,4.2950X4.5100*%
%ADD103R,0.7500X0.6750*%
%ADD107C,6.0000*%
G04:AMPARAMS|DCode=108|XSize=2mm|YSize=12mm|CornerRadius=0.3mm|HoleSize=0mm|Usage=FLASHONLY|Rotation=90.000|XOffset=0mm|YOffset=0mm|HoleType=Round|Shape=RoundedRectangle|*
%AMROUNDEDRECTD108*
21,1,2.0000,11.4000,0,0,90.0*
21,1,1.4000,12.0000,0,0,90.0*
1,1,0.6000,5.7000,0.7000*
1,1,0.6000,5.7000,-0.7000*
1,1,0.6000,-5.7000,-0.7000*
1,1,0.6000,-5.7000,0.7000*
%
%ADD108ROUNDEDRECTD108*%
%ADD109C,1.2000*%
%ADD110C,1.5000*%
D17*
X83500Y696000D02*
D03*
X62500D02*
D03*
X564005Y625000D02*
D03*
X362696Y523000D02*
D03*
X772500Y416500D02*
D03*
X751500D02*
D03*
X543005Y625000D02*
D03*
X408750Y487000D02*
D03*
X341696Y523000D02*
D03*
X387750Y507250D02*
D03*
X408750D02*
D03*
X387750Y487000D02*
D03*
D18*
X83746Y677997D02*
D03*
X68256D02*
D03*
X571755Y457000D02*
D03*
X677745Y511750D02*
D03*
X572005Y522000D02*
D03*
X571255Y424500D02*
D03*
X557750Y607000D02*
D03*
X766495Y434500D02*
D03*
X571505Y374000D02*
D03*
X571260Y489500D02*
D03*
X662255Y511750D02*
D03*
X587495Y522000D02*
D03*
X587245Y457000D02*
D03*
X586750Y489500D02*
D03*
X586745Y424500D02*
D03*
X751005Y434500D02*
D03*
X542260Y607000D02*
D03*
X765990Y398250D02*
D03*
X750500D02*
D03*
X586995Y374000D02*
D03*
X514000Y369125D02*
D03*
X498510D02*
D03*
X402990Y440000D02*
D03*
X387500D02*
D03*
D19*
X400350Y911000D02*
D03*
X501350D02*
D03*
X507600Y48000D02*
D03*
X394100D02*
D03*
D20*
X425850Y882000D02*
D03*
X438350D02*
D03*
X450850D02*
D03*
X463350D02*
D03*
X475850D02*
D03*
X482100Y77000D02*
D03*
X469600D02*
D03*
X457100D02*
D03*
X444600D02*
D03*
X432100D02*
D03*
X419600D02*
D03*
D21*
X766965Y648725D02*
D03*
X766977Y672725D02*
D03*
D22*
X325750Y451500D02*
D03*
X321750Y489500D02*
D03*
X317750D02*
D03*
X329750Y451500D02*
D03*
Y489500D02*
D03*
X337750Y451500D02*
D03*
X333750D02*
D03*
X341750D02*
D03*
X321750D02*
D03*
X317750D02*
D03*
X325750Y489500D02*
D03*
D23*
X333750Y489125D02*
D03*
D24*
X170000Y500250D02*
D03*
Y440750D02*
D03*
D25*
X312750Y475000D02*
D03*
Y466000D02*
D03*
Y479500D02*
D03*
Y470500D02*
D03*
D26*
X308000Y549000D02*
D03*
Y580000D02*
D03*
X292012Y508921D02*
D03*
X336000Y580000D02*
D03*
X264012Y508921D02*
D03*
X344000Y406000D02*
D03*
Y375000D02*
D03*
X257750Y366250D02*
D03*
Y397250D02*
D03*
Y428250D02*
D03*
X336000Y549000D02*
D03*
X316000Y406000D02*
D03*
Y375000D02*
D03*
X285750Y428250D02*
D03*
Y397250D02*
D03*
Y366250D02*
D03*
D27*
X312500Y508000D02*
D03*
X338000Y425000D02*
D03*
X350696Y506000D02*
D03*
X323500Y508000D02*
D03*
X327000Y425000D02*
D03*
X339696Y506000D02*
D03*
D28*
X824000Y479925D02*
D03*
Y442425D02*
D03*
Y454925D02*
D03*
Y467425D02*
D03*
D29*
X789498Y788750D02*
D03*
X803498D02*
D03*
Y761250D02*
D03*
X789498D02*
D03*
D30*
X722250Y474210D02*
D03*
Y480814D02*
D03*
X665750Y428744D02*
D03*
Y409186D02*
D03*
Y415790D02*
D03*
Y422140D02*
D03*
Y435348D02*
D03*
Y441698D02*
D03*
Y448302D02*
D03*
Y454652D02*
D03*
Y461256D02*
D03*
Y467860D02*
D03*
Y474210D02*
D03*
Y480814D02*
D03*
X722250Y461256D02*
D03*
Y467860D02*
D03*
Y435348D02*
D03*
Y428744D02*
D03*
Y422140D02*
D03*
Y415790D02*
D03*
Y409186D02*
D03*
Y448302D02*
D03*
Y441698D02*
D03*
Y454652D02*
D03*
D31*
X767000Y454000D02*
D03*
X680500Y495250D02*
D03*
X662500D02*
D03*
X749000Y454000D02*
D03*
X629250Y370250D02*
D03*
X647250D02*
D03*
X387500Y457500D02*
D03*
X405500D02*
D03*
D32*
X603000Y406500D02*
D03*
Y392000D02*
D03*
X662750Y336000D02*
D03*
X614250D02*
D03*
X603000Y522000D02*
D03*
Y471500D02*
D03*
Y457000D02*
D03*
Y489500D02*
D03*
Y504000D02*
D03*
Y439000D02*
D03*
Y424500D02*
D03*
X662750Y354000D02*
D03*
X614250D02*
D03*
X603000Y374000D02*
D03*
D33*
X67500Y589750D02*
D03*
Y617750D02*
D03*
X191250Y589750D02*
D03*
Y617750D02*
D03*
X98250D02*
D03*
X129250D02*
D03*
X160250D02*
D03*
X98250Y589750D02*
D03*
X129250D02*
D03*
X160250D02*
D03*
D34*
X348750Y464500D02*
D03*
Y472500D02*
D03*
Y480500D02*
D03*
Y468500D02*
D03*
Y476500D02*
D03*
Y460500D02*
D03*
D35*
X312500Y461500D02*
D03*
D36*
X337750Y489275D02*
D03*
D37*
X341750Y489025D02*
D03*
D38*
X293000Y487000D02*
D03*
Y465000D02*
D03*
Y476000D02*
D03*
Y454000D02*
D03*
D39*
X275750Y609505D02*
D03*
X787000Y468255D02*
D03*
X841715Y649230D02*
D03*
Y664720D02*
D03*
X787000Y483745D02*
D03*
X234500Y625245D02*
D03*
Y609755D02*
D03*
X218000Y625245D02*
D03*
Y609755D02*
D03*
X748465Y683980D02*
D03*
Y699470D02*
D03*
X841715Y694970D02*
D03*
Y679480D02*
D03*
X630500Y338510D02*
D03*
Y354000D02*
D03*
X646500Y338505D02*
D03*
Y353995D02*
D03*
X748965Y653605D02*
D03*
Y669095D02*
D03*
X731965Y668845D02*
D03*
Y653355D02*
D03*
X259500Y624995D02*
D03*
Y609505D02*
D03*
X275750Y624995D02*
D03*
X249171Y537867D02*
D03*
Y553357D02*
D03*
D40*
X254500Y587750D02*
D03*
Y582750D02*
D03*
D41*
X853000Y505425D02*
D03*
Y416925D02*
D03*
D42*
X256750Y576250D02*
D03*
Y594250D02*
D03*
X252250D02*
D03*
Y576250D02*
D03*
D43*
X768715Y632475D02*
D03*
Y616975D02*
D03*
D44*
X472000Y499250D02*
D03*
Y520250D02*
D03*
X431000Y439500D02*
D03*
X475000Y420000D02*
D03*
Y441000D02*
D03*
X431000Y418500D02*
D03*
D46*
X499255Y387875D02*
D03*
X522255D02*
D03*
D47*
X268769Y559406D02*
D03*
Y536406D02*
D03*
X225750Y560500D02*
D03*
Y537500D02*
D03*
D48*
X422250Y370000D02*
D03*
X437750D02*
D03*
D90*
X349346Y484460D02*
D03*
D91*
X310154D02*
D03*
D92*
Y456539D02*
D03*
D93*
X349346D02*
D03*
D94*
X261750Y592750D02*
D03*
D95*
Y577750D02*
D03*
D96*
X247250Y592750D02*
D03*
D97*
Y577750D02*
D03*
D98*
X786100Y679375D02*
D03*
X824200D02*
D03*
X798800D02*
D03*
X811500D02*
D03*
X824200Y649175D02*
D03*
X786100D02*
D03*
X811500D02*
D03*
X798800D02*
D03*
D99*
X805150Y719000D02*
D03*
D100*
Y609550D02*
D03*
D101*
X505262Y310825D02*
D03*
Y323400D02*
D03*
Y336600D02*
D03*
Y349175D02*
D03*
X362238D02*
D03*
Y336600D02*
D03*
Y323400D02*
D03*
Y310825D02*
D03*
D102*
X480513Y330000D02*
D03*
X386987D02*
D03*
D103*
X449738Y349175D02*
D03*
Y336600D02*
D03*
Y323400D02*
D03*
Y310825D02*
D03*
X417762Y349175D02*
D03*
Y310825D02*
D03*
Y323400D02*
D03*
Y336600D02*
D03*
D107*
X675850Y680000D02*
D03*
X225850Y259500D02*
D03*
X450850D02*
D03*
X675850D02*
D03*
X450850Y680000D02*
D03*
X225850D02*
D03*
X850000Y50000D02*
D03*
X50000D02*
D03*
X88900Y908100D02*
D03*
X825500D02*
D03*
D108*
X563350Y104500D02*
D03*
X788350D02*
D03*
X338350D02*
D03*
Y834500D02*
D03*
X113350Y104500D02*
D03*
Y834500D02*
D03*
X788350D02*
D03*
X563350D02*
D03*
D109*
X452500Y530000D02*
D03*
Y417500D02*
D03*
Y447500D02*
D03*
Y500000D02*
D03*
D110*
X90000Y371175D02*
D03*
Y391175D02*
D03*
X70000Y411175D02*
D03*
X90000D02*
D03*
X70000Y451175D02*
D03*
X90000D02*
D03*
X70000Y471175D02*
D03*
X90000D02*
D03*
X70000Y531175D02*
D03*
X90000D02*
D03*
X70000Y551175D02*
D03*
X90000D02*
D03*
X70000Y371175D02*
D03*
Y391175D02*
D03*
Y431175D02*
D03*
X90000D02*
D03*
X70000Y491175D02*
D03*
X90000D02*
D03*
X70000Y511175D02*
D03*
X90000D02*
D03*
M02*
