G04*
G04 #@! TF.GenerationSoftware,Altium Limited,Altium Designer,26.2.0 (7)*
G04*
G04 Layer_Color=255*
%FSLAX44Y44*%
%MOMM*%
G71*
G04*
G04 #@! TF.SameCoordinates,705C9359-2560-42EC-9C9A-8D9864D1FE1B*
G04*
G04*
G04 #@! TF.FilePolarity,Positive*
G04*
G01*
G75*
%ADD31R,0.9000X1.1000*%
%ADD39R,0.8750X0.8000*%
%ADD47R,1.5500X1.1000*%
%ADD107C,6.0000*%
G04:AMPARAMS|DCode=108|XSize=2mm|YSize=12mm|CornerRadius=0.3mm|HoleSize=0mm|Usage=FLASHONLY|Rotation=90.000|XOffset=0mm|YOffset=0mm|HoleType=Round|Shape=RoundedRectangle|*
%AMROUNDEDRECTD108*
21,1,2.0000,11.4000,0,0,90.0*
21,1,1.4000,12.0000,0,0,90.0*
1,1,0.6000,5.7000,0.7000*
1,1,0.6000,5.7000,-0.7000*
1,1,0.6000,-5.7000,-0.7000*
1,1,0.6000,-5.7000,0.7000*
%
%ADD108ROUNDEDRECTD108*%
%ADD109C,1.2000*%
%ADD110C,1.5000*%
G04:AMPARAMS|DCode=114|XSize=17mm|YSize=9.5mm|CornerRadius=0.475mm|HoleSize=0mm|Usage=FLASHONLY|Rotation=270.000|XOffset=0mm|YOffset=0mm|HoleType=Round|Shape=RoundedRectangle|*
%AMROUNDEDRECTD114*
21,1,17.0000,8.5500,0,0,270.0*
21,1,16.0500,9.5000,0,0,270.0*
1,1,0.9500,-4.2750,-8.0250*
1,1,0.9500,-4.2750,8.0250*
1,1,0.9500,4.2750,8.0250*
1,1,0.9500,4.2750,-8.0250*
%
%ADD114ROUNDEDRECTD114*%
D31*
X315250Y489500D02*
D03*
X333250D02*
D03*
Y452500D02*
D03*
X315250D02*
D03*
D39*
X334000Y530745D02*
D03*
Y515255D02*
D03*
D47*
X350750Y481750D02*
D03*
Y458750D02*
D03*
D107*
X850000Y50000D02*
D03*
X50000D02*
D03*
X88900Y908100D02*
D03*
X825500D02*
D03*
D108*
X563350Y104500D02*
D03*
X788350D02*
D03*
X338350D02*
D03*
Y834500D02*
D03*
X113350Y104500D02*
D03*
Y834500D02*
D03*
X788350D02*
D03*
X563350D02*
D03*
D109*
X452500Y530000D02*
D03*
Y417500D02*
D03*
Y447500D02*
D03*
Y500000D02*
D03*
D110*
X90000Y371175D02*
D03*
Y391175D02*
D03*
X70000Y411175D02*
D03*
X90000D02*
D03*
X70000Y451175D02*
D03*
X90000D02*
D03*
X70000Y471175D02*
D03*
X90000D02*
D03*
X70000Y531175D02*
D03*
X90000D02*
D03*
X70000Y551175D02*
D03*
X90000D02*
D03*
X70000Y371175D02*
D03*
Y391175D02*
D03*
Y431175D02*
D03*
X90000D02*
D03*
X70000Y491175D02*
D03*
X90000D02*
D03*
X70000Y511175D02*
D03*
X90000D02*
D03*
D114*
X675850Y680000D02*
D03*
X225850Y259500D02*
D03*
X450850D02*
D03*
X675850D02*
D03*
X450850Y680000D02*
D03*
X225850D02*
D03*
M02*
