G04*
G04 #@! TF.GenerationSoftware,Altium Limited,Altium Designer,26.2.0 (7)*
G04*
G04 Layer_Color=128*
%FSLAX44Y44*%
%MOMM*%
G71*
G04*
G04 #@! TF.SameCoordinates,33BCE108-0E9A-4A5C-92EA-E60CA21C167F*
G04*
G04*
G04 #@! TF.FilePolarity,Positive*
G04*
G01*
G75*
%ADD16C,0.1270*%
D16*
X211750Y693250D02*
X243750D01*
X227750Y677250D02*
Y709250D01*
X436750Y693250D02*
X468750D01*
X452750Y677250D02*
Y709250D01*
X661750Y272750D02*
X693750D01*
X677750Y256750D02*
Y288750D01*
X436750Y272750D02*
X468750D01*
X452750Y256750D02*
Y288750D01*
X211750Y272750D02*
X243750D01*
X227750Y256750D02*
Y288750D01*
X661750Y693250D02*
X693750D01*
X677750Y677250D02*
Y709250D01*
X34000Y50000D02*
X66000D01*
X50000Y34000D02*
Y66000D01*
X105500Y39200D02*
X134500D01*
X120000Y24700D02*
Y53700D01*
X72900Y908100D02*
X104900D01*
X88900Y892100D02*
Y924100D01*
X144400Y918900D02*
X173400D01*
X158900Y904400D02*
Y933400D01*
X453500Y449000D02*
X460500D01*
X457000Y445500D02*
Y452500D01*
X765500Y39200D02*
X794500D01*
X780000Y24700D02*
Y53700D01*
X834000Y50000D02*
X866000D01*
X850000Y34000D02*
Y66000D01*
X741000Y918900D02*
X770000D01*
X755500Y904400D02*
Y933400D01*
X809500Y908100D02*
X841500D01*
X825500Y892100D02*
Y924100D01*
X66000Y371180D02*
X74000D01*
X70000Y367180D02*
Y375180D01*
X66000Y391180D02*
X74000D01*
X70000Y387180D02*
Y395180D01*
X66000Y431180D02*
X74000D01*
X70000Y427180D02*
Y435180D01*
X86000Y431180D02*
X94000D01*
X90000Y427180D02*
Y435180D01*
X66000Y491180D02*
X74000D01*
X70000Y487180D02*
Y495180D01*
X86000Y491180D02*
X94000D01*
X90000Y487180D02*
Y495180D01*
X66000Y511180D02*
X74000D01*
X70000Y507180D02*
Y515180D01*
X86000Y511180D02*
X94000D01*
X90000Y507180D02*
Y515180D01*
X86000Y551180D02*
X94000D01*
X90000Y547180D02*
Y555180D01*
X86000Y531180D02*
X94000D01*
X90000Y527180D02*
Y535180D01*
X66000Y551180D02*
X74000D01*
X70000Y547180D02*
Y555180D01*
X66000Y531180D02*
X74000D01*
X70000Y527180D02*
Y535180D01*
X86000Y471180D02*
X94000D01*
X90000Y467180D02*
Y475180D01*
X66000Y471180D02*
X74000D01*
X70000Y467180D02*
Y475180D01*
X86000Y451180D02*
X94000D01*
X90000Y447180D02*
Y455180D01*
X66000Y451180D02*
X74000D01*
X70000Y447180D02*
Y455180D01*
X86000Y411180D02*
X94000D01*
X90000Y407180D02*
Y415180D01*
X66000Y411180D02*
X74000D01*
X70000Y407180D02*
Y415180D01*
X86000Y391180D02*
X94000D01*
X90000Y387180D02*
Y395180D01*
X86000Y371180D02*
X94000D01*
X90000Y367180D02*
Y375180D01*
X453500Y395000D02*
X460500D01*
X457000Y391500D02*
Y398500D01*
X820147Y545150D02*
X830053D01*
X825100Y540197D02*
Y550103D01*
X830297Y468950D02*
X840203D01*
X835250Y463997D02*
Y473903D01*
X809997Y468950D02*
X819903D01*
X814950Y463997D02*
Y473903D01*
X838625Y545150D02*
X862374D01*
X850500Y533275D02*
Y557024D01*
X838625Y488000D02*
X862374D01*
X850500Y476125D02*
Y499874D01*
X787825Y545150D02*
X811574D01*
X799700Y533275D02*
Y557024D01*
X787825Y488000D02*
X811574D01*
X799700Y476125D02*
Y499874D01*
X453500Y479000D02*
X460500D01*
X457000Y475500D02*
Y482500D01*
X453500Y425000D02*
X460500D01*
X457000Y421500D02*
Y428500D01*
X242514Y676490D02*
X245513D01*
X244014Y674990D02*
Y677990D01*
X242514Y709010D02*
X245513D01*
X244014Y707510D02*
Y710510D01*
X209986Y709010D02*
X212987D01*
X211486Y707510D02*
Y710510D01*
X209986Y676490D02*
X212987D01*
X211486Y674990D02*
Y677990D01*
X203250Y692750D02*
X206250D01*
X204750Y691250D02*
Y694250D01*
X226250Y715750D02*
X229250D01*
X227750Y714250D02*
Y717250D01*
X249250Y692750D02*
X252250D01*
X250750Y691250D02*
Y694250D01*
X226250Y669750D02*
X229250D01*
X227750Y668250D02*
Y671250D01*
X242514Y255990D02*
X245513D01*
X244014Y254490D02*
Y257490D01*
X242514Y288510D02*
X245513D01*
X244014Y287010D02*
Y290010D01*
X209986Y288510D02*
X212987D01*
X211486Y287010D02*
Y290010D01*
X209986Y255990D02*
X212987D01*
X211486Y254490D02*
Y257490D01*
X203250Y272250D02*
X206250D01*
X204750Y270750D02*
Y273750D01*
X226250Y295250D02*
X229250D01*
X227750Y293750D02*
Y296750D01*
X249250Y272250D02*
X252250D01*
X250750Y270750D02*
Y273750D01*
X226250Y249250D02*
X229250D01*
X227750Y247750D02*
Y250750D01*
X467514Y255990D02*
X470513D01*
X469013Y254490D02*
Y257490D01*
X467514Y288510D02*
X470513D01*
X469013Y287010D02*
Y290010D01*
X434986Y288510D02*
X437986D01*
X436487Y287010D02*
Y290010D01*
X434986Y255990D02*
X437986D01*
X436487Y254490D02*
Y257490D01*
X428250Y272250D02*
X431250D01*
X429750Y270750D02*
Y273750D01*
X451250Y295250D02*
X454250D01*
X452750Y293750D02*
Y296750D01*
X474250Y272250D02*
X477250D01*
X475750Y270750D02*
Y273750D01*
X451250Y249250D02*
X454250D01*
X452750Y247750D02*
Y250750D01*
X692514Y255990D02*
X695514D01*
X694014Y254490D02*
Y257490D01*
X692514Y288510D02*
X695514D01*
X694014Y287010D02*
Y290010D01*
X659986Y288510D02*
X662987D01*
X661487Y287010D02*
Y290010D01*
X659986Y255990D02*
X662987D01*
X661487Y254490D02*
Y257490D01*
X653250Y272250D02*
X656250D01*
X654750Y270750D02*
Y273750D01*
X676250Y295250D02*
X679250D01*
X677750Y293750D02*
Y296750D01*
X699250Y272250D02*
X702250D01*
X700750Y270750D02*
Y273750D01*
X676250Y249250D02*
X679250D01*
X677750Y247750D02*
Y250750D01*
X692514Y676490D02*
X695514D01*
X694014Y674990D02*
Y677990D01*
X692514Y709010D02*
X695514D01*
X694014Y707510D02*
Y710510D01*
X659986Y709010D02*
X662987D01*
X661487Y707510D02*
Y710510D01*
X659986Y676490D02*
X662987D01*
X661487Y674990D02*
Y677990D01*
X653250Y692750D02*
X656250D01*
X654750Y691250D02*
Y694250D01*
X676250Y715750D02*
X679250D01*
X677750Y714250D02*
Y717250D01*
X699250Y692750D02*
X702250D01*
X700750Y691250D02*
Y694250D01*
X676250Y669750D02*
X679250D01*
X677750Y668250D02*
Y671250D01*
X467514Y676490D02*
X470513D01*
X469013Y674990D02*
Y677990D01*
X467514Y709010D02*
X470513D01*
X469013Y707510D02*
Y710510D01*
X434986Y709010D02*
X437986D01*
X436487Y707510D02*
Y710510D01*
X434986Y676490D02*
X437986D01*
X436487Y674990D02*
Y677990D01*
X428250Y692750D02*
X431250D01*
X429750Y691250D02*
Y694250D01*
X451250Y715750D02*
X454250D01*
X452750Y714250D02*
Y717250D01*
X474250Y692750D02*
X477250D01*
X475750Y691250D02*
Y694250D01*
X451250Y669750D02*
X454250D01*
X452750Y668250D02*
Y671250D01*
X150990Y409981D02*
X153990D01*
X152490Y408481D02*
Y411482D01*
X48500Y27000D02*
X51500D01*
X50000Y25500D02*
Y28500D01*
X64760Y33737D02*
X67760D01*
X66260Y32236D02*
Y35236D01*
X32240Y33737D02*
X35240D01*
X33740Y32236D02*
Y35236D01*
X118500Y18200D02*
X121500D01*
X120000Y16700D02*
Y19700D01*
X133347Y24353D02*
X136347D01*
X134847Y22853D02*
Y25853D01*
X103653Y24353D02*
X106653D01*
X105153Y22853D02*
Y25853D01*
X139500Y39200D02*
X142500D01*
X141000Y37700D02*
Y40700D01*
X25500Y50000D02*
X28500D01*
X27000Y48500D02*
Y51500D01*
X71500Y50000D02*
X74500D01*
X73000Y48500D02*
Y51500D01*
X32240Y66263D02*
X35240D01*
X33740Y64763D02*
Y67764D01*
X64760Y66263D02*
X67760D01*
X66260Y64763D02*
Y67764D01*
X48500Y73000D02*
X51500D01*
X50000Y71500D02*
Y74500D01*
X97500Y39200D02*
X100500D01*
X99000Y37700D02*
Y40700D01*
X133347Y54047D02*
X136347D01*
X134847Y52547D02*
Y55547D01*
X103653Y54047D02*
X106653D01*
X105153Y52547D02*
Y55547D01*
X118500Y60200D02*
X121500D01*
X120000Y58700D02*
Y61700D01*
X178500Y120000D02*
X181500D01*
X180000Y118500D02*
Y121500D01*
X288500Y80000D02*
X291500D01*
X290000Y78500D02*
Y81500D01*
X298500Y80000D02*
X301500D01*
X300000Y78500D02*
Y81500D01*
X298500Y90000D02*
X301500D01*
X300000Y88500D02*
Y91500D01*
X308500Y90000D02*
X311500D01*
X310000Y88500D02*
Y91500D01*
X318500Y80000D02*
X321500D01*
X320000Y78500D02*
Y81500D01*
X328500Y80000D02*
X331500D01*
X330000Y78500D02*
Y81500D01*
X308500Y80000D02*
X311500D01*
X310000Y78500D02*
Y81500D01*
X328500Y90000D02*
X331500D01*
X330000Y88500D02*
Y91500D01*
X318500Y90000D02*
X321500D01*
X320000Y88500D02*
Y91500D01*
X288500Y100000D02*
X291500D01*
X290000Y98500D02*
Y101500D01*
X288500Y90000D02*
X291500D01*
X290000Y88500D02*
Y91500D01*
X178500Y130000D02*
X181500D01*
X180000Y128500D02*
Y131500D01*
X198500Y120000D02*
X201500D01*
X200000Y118500D02*
Y121500D01*
X188500Y120000D02*
X191500D01*
X190000Y118500D02*
Y121500D01*
X318500Y100000D02*
X321500D01*
X320000Y98500D02*
Y101500D01*
X328500Y100000D02*
X331500D01*
X330000Y98500D02*
Y101500D01*
X308500Y100000D02*
X311500D01*
X310000Y98500D02*
Y101500D01*
X298500Y100000D02*
X301500D01*
X300000Y98500D02*
Y101500D01*
X178500Y140000D02*
X181500D01*
X180000Y138500D02*
Y141500D01*
X188500Y140000D02*
X191500D01*
X190000Y138500D02*
Y141500D01*
X178500Y150000D02*
X181500D01*
X180000Y148500D02*
Y151500D01*
X188500Y150000D02*
X191500D01*
X190000Y148500D02*
Y151500D01*
X188500Y130000D02*
X191500D01*
X190000Y128500D02*
Y131500D01*
X198500Y130000D02*
X201500D01*
X200000Y128500D02*
Y131500D01*
X121250Y267255D02*
X124250D01*
X122750Y265755D02*
Y268755D01*
X260745Y178750D02*
X263745D01*
X262245Y177250D02*
Y180250D01*
X325000Y170255D02*
X328000D01*
X326500Y168755D02*
Y171755D01*
X294500Y215654D02*
X297500D01*
X296000Y214154D02*
Y217154D01*
X298500Y377500D02*
X301500D01*
X300000Y376000D02*
Y379000D01*
X308500Y387500D02*
X311500D01*
X310000Y386000D02*
Y389000D01*
X298500Y397500D02*
X301500D01*
X300000Y396000D02*
Y399000D01*
X298500Y387500D02*
X301500D01*
X300000Y386000D02*
Y389000D01*
X308500Y397500D02*
X311500D01*
X310000Y396000D02*
Y399000D01*
X308500Y377500D02*
X311500D01*
X310000Y376000D02*
Y379000D01*
X318500Y377500D02*
X321500D01*
X320000Y376000D02*
Y379000D01*
X318500Y387500D02*
X321500D01*
X320000Y386000D02*
Y389000D01*
X318500Y397500D02*
X321500D01*
X320000Y396000D02*
Y399000D01*
X338500Y80000D02*
X341500D01*
X340000Y78500D02*
Y81500D01*
X348500Y80000D02*
X351500D01*
X350000Y78500D02*
Y81500D01*
X348500Y90000D02*
X351500D01*
X350000Y88500D02*
Y91500D01*
X358500Y90000D02*
X361500D01*
X360000Y88500D02*
Y91500D01*
X358500Y80000D02*
X361500D01*
X360000Y78500D02*
Y81500D01*
X368500Y80000D02*
X371500D01*
X370000Y78500D02*
Y81500D01*
X368500Y90000D02*
X371500D01*
X370000Y88500D02*
Y91500D01*
X338500Y90000D02*
X341500D01*
X340000Y88500D02*
Y91500D01*
X348500Y100000D02*
X351500D01*
X350000Y98500D02*
Y101500D01*
X338500Y100000D02*
X341500D01*
X340000Y98500D02*
Y101500D01*
X349128Y271167D02*
X352128D01*
X350628Y269667D02*
Y272667D01*
X358500Y100000D02*
X361500D01*
X360000Y98500D02*
Y101500D01*
X368500Y100000D02*
X371500D01*
X370000Y98500D02*
Y101500D01*
X378500Y80000D02*
X381500D01*
X380000Y78500D02*
Y81500D01*
X378500Y100000D02*
X381500D01*
X380000Y98500D02*
Y101500D01*
X378500Y90000D02*
X381500D01*
X380000Y88500D02*
Y91500D01*
X406750Y199274D02*
X409750D01*
X408250Y197774D02*
Y200774D01*
X404245Y215274D02*
X407245D01*
X405745Y213774D02*
Y216774D01*
X388995Y270000D02*
X391995D01*
X390495Y268500D02*
Y271500D01*
X406750Y232274D02*
X409750D01*
X408250Y230774D02*
Y233774D01*
X382000Y285500D02*
X385000D01*
X383500Y284000D02*
Y287000D01*
X338500Y377500D02*
X341500D01*
X340000Y376000D02*
Y379000D01*
X348500Y377500D02*
X351500D01*
X350000Y376000D02*
Y379000D01*
X328500Y377500D02*
X331500D01*
X330000Y376000D02*
Y379000D01*
X368500Y377500D02*
X371500D01*
X370000Y376000D02*
Y379000D01*
X378500Y377500D02*
X381500D01*
X380000Y376000D02*
Y379000D01*
X358500Y377500D02*
X361500D01*
X360000Y376000D02*
Y379000D01*
X378500Y387500D02*
X381500D01*
X380000Y386000D02*
Y389000D01*
X338500Y387500D02*
X341500D01*
X340000Y386000D02*
Y389000D01*
X348500Y387500D02*
X351500D01*
X350000Y386000D02*
Y389000D01*
X328500Y387500D02*
X331500D01*
X330000Y386000D02*
Y389000D01*
X348500Y397500D02*
X351500D01*
X350000Y396000D02*
Y399000D01*
X338500Y397500D02*
X341500D01*
X340000Y396000D02*
Y399000D01*
X358500Y387500D02*
X361500D01*
X360000Y386000D02*
Y389000D01*
X368500Y387500D02*
X371500D01*
X370000Y386000D02*
Y389000D01*
X358500Y397500D02*
X361500D01*
X360000Y396000D02*
Y399000D01*
X378500Y397500D02*
X381500D01*
X380000Y396000D02*
Y399000D01*
X368500Y397500D02*
X371500D01*
X370000Y396000D02*
Y399000D01*
X418500Y377500D02*
X421500D01*
X420000Y376000D02*
Y379000D01*
X428500Y377500D02*
X431500D01*
X430000Y376000D02*
Y379000D01*
X408500Y377500D02*
X411500D01*
X410000Y376000D02*
Y379000D01*
X398500Y377500D02*
X401500D01*
X400000Y376000D02*
Y379000D01*
X388500Y377500D02*
X391500D01*
X390000Y376000D02*
Y379000D01*
X398500Y387500D02*
X401500D01*
X400000Y386000D02*
Y389000D01*
X388500Y387500D02*
X391500D01*
X390000Y386000D02*
Y389000D01*
X408500Y397500D02*
X411500D01*
X410000Y396000D02*
Y399000D01*
X398500Y397500D02*
X401500D01*
X400000Y396000D02*
Y399000D01*
X418500Y387500D02*
X421500D01*
X420000Y386000D02*
Y389000D01*
X428500Y387500D02*
X431500D01*
X430000Y386000D02*
Y389000D01*
X408500Y387500D02*
X411500D01*
X410000Y386000D02*
Y389000D01*
X428500Y397500D02*
X431500D01*
X430000Y396000D02*
Y399000D01*
X418500Y397500D02*
X421500D01*
X420000Y396000D02*
Y399000D01*
X113250Y643255D02*
X116250D01*
X114750Y641755D02*
Y644755D01*
X140000Y643255D02*
X143000D01*
X141500Y641755D02*
Y644755D01*
X76250Y680250D02*
X79250D01*
X77750Y678750D02*
Y681750D01*
X243500Y552500D02*
X246500D01*
X245000Y551000D02*
Y554000D01*
X253500Y552500D02*
X256500D01*
X255000Y551000D02*
Y554000D01*
X243500Y562500D02*
X246500D01*
X245000Y561000D02*
Y564000D01*
X253500Y562500D02*
X256500D01*
X255000Y561000D02*
Y564000D01*
X265497Y431743D02*
X268496D01*
X266996Y430243D02*
Y433243D01*
X263500Y572500D02*
X266500D01*
X265000Y571000D02*
Y574000D01*
X263500Y552500D02*
X266500D01*
X265000Y551000D02*
Y554000D01*
X263500Y562500D02*
X266500D01*
X265000Y561000D02*
Y564000D01*
X243500Y582500D02*
X246500D01*
X245000Y581000D02*
Y584000D01*
X243500Y572500D02*
X246500D01*
X245000Y571000D02*
Y574000D01*
X243500Y592500D02*
X246500D01*
X245000Y591000D02*
Y594000D01*
X253500Y572500D02*
X256500D01*
X255000Y571000D02*
Y574000D01*
X263500Y582500D02*
X266500D01*
X265000Y581000D02*
Y584000D01*
X253500Y592500D02*
X256500D01*
X255000Y591000D02*
Y594000D01*
X253500Y582500D02*
X256500D01*
X255000Y581000D02*
Y584000D01*
X263500Y592500D02*
X266500D01*
X265000Y591000D02*
Y594000D01*
X87400Y885100D02*
X90400D01*
X88900Y883600D02*
Y886600D01*
X71140Y891836D02*
X74140D01*
X72640Y890337D02*
Y893336D01*
X103660Y891836D02*
X106660D01*
X105160Y890337D02*
Y893336D01*
X64400Y908100D02*
X67400D01*
X65900Y906600D02*
Y909600D01*
X110400Y908100D02*
X113400D01*
X111900Y906600D02*
Y909600D01*
X71140Y924363D02*
X74140D01*
X72640Y922863D02*
Y925863D01*
X103660Y924363D02*
X106660D01*
X105160Y922863D02*
Y925863D01*
X87400Y931100D02*
X90400D01*
X88900Y929600D02*
Y932600D01*
X142553Y904053D02*
X145553D01*
X144053Y902553D02*
Y905553D01*
X157400Y897900D02*
X160400D01*
X158900Y896400D02*
Y899400D01*
X136400Y918900D02*
X139400D01*
X137900Y917400D02*
Y920400D01*
X142553Y933747D02*
X145553D01*
X144053Y932247D02*
Y935247D01*
X157400Y939900D02*
X160400D01*
X158900Y938400D02*
Y941400D01*
X231008Y864784D02*
X234008D01*
X232508Y863284D02*
Y866284D01*
X260500Y806000D02*
X263500D01*
X262000Y804500D02*
Y807500D01*
X221008Y884784D02*
X224008D01*
X222508Y883284D02*
Y886284D01*
X221008Y874784D02*
X224008D01*
X222508Y873284D02*
Y876284D01*
X172247Y933747D02*
X175247D01*
X173747Y932247D02*
Y935247D01*
X172247Y904053D02*
X175247D01*
X173747Y902553D02*
Y905553D01*
X178400Y918900D02*
X181400D01*
X179900Y917400D02*
Y920400D01*
X221008Y864784D02*
X224008D01*
X222508Y863284D02*
Y866284D01*
X231008Y874784D02*
X234008D01*
X232508Y873284D02*
Y876284D01*
X231008Y884784D02*
X234008D01*
X232508Y883284D02*
Y886284D01*
X264500Y889250D02*
X267500D01*
X266000Y887750D02*
Y890750D01*
X279500Y485750D02*
X282500D01*
X281000Y484250D02*
Y487250D01*
X282250Y434250D02*
X285250D01*
X283750Y432750D02*
Y435750D01*
X273500Y552500D02*
X276500D01*
X275000Y551000D02*
Y554000D01*
X293500Y552500D02*
X296500D01*
X295000Y551000D02*
Y554000D01*
X283500Y552500D02*
X286500D01*
X285000Y551000D02*
Y554000D01*
X273500Y562500D02*
X276500D01*
X275000Y561000D02*
Y564000D01*
X283500Y572500D02*
X286500D01*
X285000Y571000D02*
Y574000D01*
X273500Y582500D02*
X276500D01*
X275000Y581000D02*
Y584000D01*
X273500Y572500D02*
X276500D01*
X275000Y571000D02*
Y574000D01*
X283500Y582500D02*
X286500D01*
X285000Y581000D02*
Y584000D01*
X293500Y562500D02*
X296500D01*
X295000Y561000D02*
Y564000D01*
X303500Y562500D02*
X306500D01*
X305000Y561000D02*
Y564000D01*
X283500Y562500D02*
X286500D01*
X285000Y561000D02*
Y564000D01*
X303500Y572500D02*
X306500D01*
X305000Y571000D02*
Y574000D01*
X293500Y572500D02*
X296500D01*
X295000Y571000D02*
Y574000D01*
X328500Y397500D02*
X331500D01*
X330000Y396000D02*
Y399000D01*
X388500Y397500D02*
X391500D01*
X390000Y396000D02*
Y399000D01*
X318950Y435950D02*
X321950D01*
X320450Y434450D02*
Y437450D01*
X409995Y438750D02*
X412995D01*
X411495Y437250D02*
Y440250D01*
X423500Y455000D02*
X426500D01*
X425000Y453500D02*
Y456500D01*
X412500Y471500D02*
X415500D01*
X414000Y470000D02*
Y473000D01*
X303500Y552500D02*
X306500D01*
X305000Y551000D02*
Y554000D01*
X313500Y552500D02*
X316500D01*
X315000Y551000D02*
Y554000D01*
X313500Y562500D02*
X316500D01*
X315000Y561000D02*
Y564000D01*
X465000Y553500D02*
X468000D01*
X466500Y552000D02*
Y555000D01*
X465000Y563500D02*
X468000D01*
X466500Y562000D02*
Y565000D01*
X465000Y573500D02*
X468000D01*
X466500Y572000D02*
Y575000D01*
X283500Y592500D02*
X286500D01*
X285000Y591000D02*
Y594000D01*
X293500Y582500D02*
X296500D01*
X295000Y581000D02*
Y584000D01*
X273500Y592500D02*
X276500D01*
X275000Y591000D02*
Y594000D01*
X303500Y582500D02*
X306500D01*
X305000Y581000D02*
Y584000D01*
X281500Y886745D02*
X284500D01*
X283000Y885245D02*
Y888245D01*
X354500Y882000D02*
X357500D01*
X356000Y880500D02*
Y883500D01*
X465000Y593500D02*
X468000D01*
X466500Y592000D02*
Y595000D01*
X465000Y583500D02*
X468000D01*
X466500Y582000D02*
Y585000D01*
X386500Y787000D02*
X389500D01*
X388000Y785500D02*
Y788500D01*
X427450Y794950D02*
X430450D01*
X428950Y793450D02*
Y796450D01*
X462500Y779000D02*
X465500D01*
X464000Y777500D02*
Y780500D01*
X444500Y856000D02*
X447500D01*
X446000Y854500D02*
Y857500D01*
X499750Y193750D02*
X502750D01*
X501250Y192250D02*
Y195250D01*
X502255Y210000D02*
X505255D01*
X503755Y208500D02*
Y211500D01*
X499750Y226255D02*
X502750D01*
X501250Y224755D02*
Y227755D01*
X515250Y330755D02*
X518250D01*
X516750Y329255D02*
Y332255D01*
X479750Y346000D02*
X482750D01*
X481250Y344500D02*
Y347500D01*
X582500Y262750D02*
X585500D01*
X584000Y261250D02*
Y264250D01*
X584750Y318750D02*
X587750D01*
X586250Y317250D02*
Y320250D01*
X585000Y350000D02*
X588000D01*
X586500Y348500D02*
Y351500D01*
X597990Y199691D02*
X600990D01*
X599490Y198191D02*
Y201191D01*
X655879Y102349D02*
X658879D01*
X657379Y100849D02*
Y103849D01*
X612250Y259500D02*
X615250D01*
X613750Y258000D02*
Y261000D01*
X616430Y286280D02*
X619430D01*
X617930Y284779D02*
Y287780D01*
X540750Y367500D02*
X543750D01*
X542250Y366000D02*
Y369000D01*
X563000Y408000D02*
X566000D01*
X564500Y406500D02*
Y409500D01*
X561500Y428500D02*
X564500D01*
X563000Y427000D02*
Y430000D01*
X491500Y472500D02*
X494500D01*
X493000Y471000D02*
Y474000D01*
X594000Y443500D02*
X597000D01*
X595500Y442000D02*
Y445000D01*
X669500Y354500D02*
X672500D01*
X671000Y353000D02*
Y356000D01*
X669500Y361250D02*
X672500D01*
X671000Y359750D02*
Y362750D01*
X669500Y368000D02*
X672500D01*
X671000Y366500D02*
Y369500D01*
X676250Y354500D02*
X679250D01*
X677750Y353000D02*
Y356000D01*
X676250Y361250D02*
X679250D01*
X677750Y359750D02*
Y362750D01*
X676250Y368000D02*
X679250D01*
X677750Y366500D02*
Y369500D01*
X607790Y368423D02*
X610790D01*
X609291Y366922D02*
Y369922D01*
X609500Y434500D02*
X612500D01*
X611000Y433000D02*
Y436000D01*
X709750Y52250D02*
X712750D01*
X711250Y50750D02*
Y53750D01*
X718000Y34500D02*
X721000D01*
X719500Y33000D02*
Y36000D01*
X719250Y95000D02*
X722250D01*
X720750Y93500D02*
Y96500D01*
X719318Y111443D02*
X722318D01*
X720818Y109943D02*
Y112943D01*
X683500Y354500D02*
X686500D01*
X685000Y353000D02*
Y356000D01*
X721000Y325000D02*
X724000D01*
X722500Y323500D02*
Y326500D01*
X778500Y18200D02*
X781500D01*
X780000Y16700D02*
Y19700D01*
X793347Y24353D02*
X796347D01*
X794847Y22853D02*
Y25853D01*
X763653Y24353D02*
X766653D01*
X765153Y22853D02*
Y25853D01*
X799500Y39200D02*
X802500D01*
X801000Y37700D02*
Y40700D01*
X848500Y27000D02*
X851500D01*
X850000Y25500D02*
Y28500D01*
X864760Y33737D02*
X867760D01*
X866260Y32236D02*
Y35236D01*
X832240Y33737D02*
X835240D01*
X833740Y32236D02*
Y35236D01*
X757500Y39200D02*
X760500D01*
X759000Y37700D02*
Y40700D01*
X825500Y50000D02*
X828500D01*
X827000Y48500D02*
Y51500D01*
X763653Y54047D02*
X766653D01*
X765153Y52547D02*
Y55547D01*
X793347Y54047D02*
X796347D01*
X794847Y52547D02*
Y55547D01*
X778500Y60200D02*
X781500D01*
X780000Y58700D02*
Y61700D01*
X864760Y66263D02*
X867760D01*
X866260Y64763D02*
Y67764D01*
X871500Y50000D02*
X874500D01*
X873000Y48500D02*
Y51500D01*
X832240Y66263D02*
X835240D01*
X833740Y64763D02*
Y67764D01*
X848500Y73000D02*
X851500D01*
X850000Y71500D02*
Y74500D01*
X843495Y353250D02*
X846495D01*
X844995Y351750D02*
Y354750D01*
X683500Y361250D02*
X686500D01*
X685000Y359750D02*
Y362750D01*
X683500Y368000D02*
X686500D01*
X685000Y366500D02*
Y369500D01*
X773500Y360000D02*
X776500D01*
X775000Y358500D02*
Y361500D01*
X773500Y380000D02*
X776500D01*
X775000Y378500D02*
Y381500D01*
X773500Y370000D02*
X776500D01*
X775000Y368500D02*
Y371500D01*
X763500Y390000D02*
X766500D01*
X765000Y388500D02*
Y391500D01*
X773500Y390000D02*
X776500D01*
X775000Y388500D02*
Y391500D01*
X763500Y400000D02*
X766500D01*
X765000Y398500D02*
Y401500D01*
X773500Y400000D02*
X776500D01*
X775000Y398500D02*
Y401500D01*
X783500Y360000D02*
X786500D01*
X785000Y358500D02*
Y361500D01*
X793500Y370000D02*
X796500D01*
X795000Y368500D02*
Y371500D01*
X783500Y380000D02*
X786500D01*
X785000Y378500D02*
Y381500D01*
X783500Y370000D02*
X786500D01*
X785000Y368500D02*
Y371500D01*
X793500Y380000D02*
X796500D01*
X795000Y378500D02*
Y381500D01*
X803500Y360000D02*
X806500D01*
X805000Y358500D02*
Y361500D01*
X793500Y360000D02*
X796500D01*
X795000Y358500D02*
Y361500D01*
X803500Y370000D02*
X806500D01*
X805000Y368500D02*
Y371500D01*
X803500Y380000D02*
X806500D01*
X805000Y378500D02*
Y381500D01*
X783500Y390000D02*
X786500D01*
X785000Y388500D02*
Y391500D01*
X793500Y390000D02*
X796500D01*
X795000Y388500D02*
Y391500D01*
X783500Y400000D02*
X786500D01*
X785000Y398500D02*
Y401500D01*
X803500Y400000D02*
X806500D01*
X805000Y398500D02*
Y401500D01*
X793500Y400000D02*
X796500D01*
X795000Y398500D02*
Y401500D01*
X803500Y390000D02*
X806500D01*
X805000Y388500D02*
Y391500D01*
X861500Y421000D02*
X864500D01*
X863000Y419500D02*
Y422500D01*
X846000Y443750D02*
X849000D01*
X847500Y442250D02*
Y445250D01*
X485000Y553500D02*
X488000D01*
X486500Y552000D02*
Y555000D01*
X495000Y553500D02*
X498000D01*
X496500Y552000D02*
Y555000D01*
X505000Y553500D02*
X508000D01*
X506500Y552000D02*
Y555000D01*
X525000Y553500D02*
X528000D01*
X526500Y552000D02*
Y555000D01*
X515000Y553500D02*
X518000D01*
X516500Y552000D02*
Y555000D01*
X475000Y553500D02*
X478000D01*
X476500Y552000D02*
Y555000D01*
X495000Y563500D02*
X498000D01*
X496500Y562000D02*
Y565000D01*
X475000Y563500D02*
X478000D01*
X476500Y562000D02*
Y565000D01*
X485000Y563500D02*
X488000D01*
X486500Y562000D02*
Y565000D01*
X495000Y573500D02*
X498000D01*
X496500Y572000D02*
Y575000D01*
X515000Y563500D02*
X518000D01*
X516500Y562000D02*
Y565000D01*
X525000Y563500D02*
X528000D01*
X526500Y562000D02*
Y565000D01*
X505000Y563500D02*
X508000D01*
X506500Y562000D02*
Y565000D01*
X604108Y479854D02*
X607108D01*
X605608Y478354D02*
Y481354D01*
X643750Y493000D02*
X646750D01*
X645250Y491500D02*
Y494500D01*
X535000Y563500D02*
X538000D01*
X536500Y562000D02*
Y565000D01*
X535000Y553500D02*
X538000D01*
X536500Y552000D02*
Y555000D01*
X607704Y537122D02*
X610704D01*
X609204Y535622D02*
Y538622D01*
X475000Y573500D02*
X478000D01*
X476500Y572000D02*
Y575000D01*
X485000Y573500D02*
X488000D01*
X486500Y572000D02*
Y575000D01*
X485000Y583500D02*
X488000D01*
X486500Y582000D02*
Y585000D01*
X495000Y583500D02*
X498000D01*
X496500Y582000D02*
Y585000D01*
X505000Y573500D02*
X508000D01*
X506500Y572000D02*
Y575000D01*
X515000Y573500D02*
X518000D01*
X516500Y572000D02*
Y575000D01*
X505000Y583500D02*
X508000D01*
X506500Y582000D02*
Y585000D01*
X515000Y583500D02*
X518000D01*
X516500Y582000D02*
Y585000D01*
X475000Y583500D02*
X478000D01*
X476500Y582000D02*
Y585000D01*
X485000Y593500D02*
X488000D01*
X486500Y592000D02*
Y595000D01*
X475000Y593500D02*
X478000D01*
X476500Y592000D02*
Y595000D01*
X495000Y593500D02*
X498000D01*
X496500Y592000D02*
Y595000D01*
X505000Y593500D02*
X508000D01*
X506500Y592000D02*
Y595000D01*
X524740Y797698D02*
X527740D01*
X526240Y796198D02*
Y799198D01*
X525000Y583500D02*
X528000D01*
X526500Y582000D02*
Y585000D01*
X525000Y573500D02*
X528000D01*
X526500Y572000D02*
Y575000D01*
X636500Y801000D02*
X639500D01*
X638000Y799500D02*
Y802500D01*
X666500Y795000D02*
X669500D01*
X668000Y793500D02*
Y796500D01*
X538000Y882000D02*
X541000D01*
X539500Y880500D02*
Y883500D01*
X673500Y480250D02*
X676500D01*
X675000Y478750D02*
Y481750D01*
X700772Y479182D02*
X703772D01*
X702272Y477682D02*
Y480682D01*
X674500Y607755D02*
X677500D01*
X676000Y606255D02*
Y609255D01*
X729264Y577250D02*
X732264D01*
X730764Y575750D02*
Y578750D01*
X745700Y579755D02*
X748700D01*
X747200Y578255D02*
Y581255D01*
X761700Y577250D02*
X764700D01*
X763200Y575750D02*
Y578750D01*
X738500Y607000D02*
X741500D01*
X740000Y605500D02*
Y608500D01*
X817250Y481650D02*
X820250D01*
X818750Y480150D02*
Y483150D01*
X817250Y507050D02*
X820250D01*
X818750Y505550D02*
Y508550D01*
X746450Y687495D02*
X749450D01*
X747950Y685995D02*
Y688995D01*
X830157Y681625D02*
X833157D01*
X831657Y680125D02*
Y683124D01*
X666500Y768000D02*
X669500D01*
X668000Y766500D02*
Y769500D01*
X749010Y753125D02*
X752010D01*
X750510Y751625D02*
Y754625D01*
X746505Y769375D02*
X749505D01*
X748005Y767875D02*
Y770875D01*
X739903Y904053D02*
X742903D01*
X741403Y902553D02*
Y905553D01*
X733750Y918900D02*
X736750D01*
X735250Y917400D02*
Y920400D01*
X739903Y933747D02*
X742903D01*
X741403Y932247D02*
Y935247D01*
X754750Y939900D02*
X757750D01*
X756250Y938400D02*
Y941400D01*
X754750Y897900D02*
X757750D01*
X756250Y896400D02*
Y899400D01*
X769597Y904053D02*
X772597D01*
X771097Y902553D02*
Y905553D01*
X769597Y933747D02*
X772597D01*
X771097Y932247D02*
Y935247D01*
X775445Y864821D02*
X778445D01*
X776945Y863321D02*
Y866321D01*
X801500Y705000D02*
X804500D01*
X803000Y703500D02*
Y706500D01*
X811500Y748000D02*
X814500D01*
X813000Y746500D02*
Y749500D01*
X801000Y908100D02*
X804000D01*
X802500Y906600D02*
Y909600D01*
X807740Y891836D02*
X810740D01*
X809240Y890337D02*
Y893336D01*
X775750Y918900D02*
X778750D01*
X777250Y917400D02*
Y920400D01*
X807740Y924363D02*
X810740D01*
X809240Y922863D02*
Y925863D01*
X824000Y931100D02*
X827000D01*
X825500Y929600D02*
Y932600D01*
X824000Y885100D02*
X827000D01*
X825500Y883600D02*
Y886600D01*
X840260Y891836D02*
X843260D01*
X841760Y890337D02*
Y893336D01*
X847000Y908100D02*
X850000D01*
X848500Y906600D02*
Y909600D01*
X840260Y924363D02*
X843260D01*
X841760Y922863D02*
Y925863D01*
X623500Y85338D02*
X626500D01*
X625000Y83838D02*
Y86838D01*
X687500Y429338D02*
X690500D01*
X689000Y427838D02*
Y430838D01*
X647550Y863512D02*
X650550D01*
X649050Y862012D02*
Y865012D01*
X638500Y230000D02*
X641500D01*
X640000Y228500D02*
Y231500D01*
X646000Y230000D02*
X649000D01*
X647500Y228500D02*
Y231500D01*
X653500Y230000D02*
X656500D01*
X655000Y228500D02*
Y231500D01*
X661000Y230000D02*
X664000D01*
X662500Y228500D02*
Y231500D01*
X668500Y230000D02*
X671500D01*
X670000Y228500D02*
Y231500D01*
X676000Y230000D02*
X679000D01*
X677500Y228500D02*
Y231500D01*
X683500Y230000D02*
X686500D01*
X685000Y228500D02*
Y231500D01*
X387500Y864000D02*
X390500D01*
X389000Y862500D02*
Y865500D01*
X132500Y679000D02*
X135500D01*
X134000Y677500D02*
Y680500D01*
X270667Y856716D02*
X273668D01*
X272167Y855216D02*
Y858216D01*
X70000Y600000D02*
X73000D01*
X71500Y598500D02*
Y601500D01*
X348500Y340000D02*
X351500D01*
X350000Y338500D02*
Y341500D01*
X358500Y340000D02*
X361500D01*
X360000Y338500D02*
Y341500D01*
X328500Y340000D02*
X331500D01*
X330000Y338500D02*
Y341500D01*
X338500Y340000D02*
X341500D01*
X340000Y338500D02*
Y341500D01*
X308500Y340000D02*
X311500D01*
X310000Y338500D02*
Y341500D01*
X318500Y340000D02*
X321500D01*
X320000Y338500D02*
Y341500D01*
X298500Y340000D02*
X301500D01*
X300000Y338500D02*
Y341500D01*
X388500Y340000D02*
X391500D01*
X390000Y338500D02*
Y341500D01*
X398500Y340000D02*
X401500D01*
X400000Y338500D02*
Y341500D01*
X368500Y340000D02*
X371500D01*
X370000Y338500D02*
Y341500D01*
X378500Y340000D02*
X381500D01*
X380000Y338500D02*
Y341500D01*
X388500Y330000D02*
X391500D01*
X390000Y328500D02*
Y331500D01*
X398500Y330000D02*
X401500D01*
X400000Y328500D02*
Y331500D01*
X368500Y330000D02*
X371500D01*
X370000Y328500D02*
Y331500D01*
X378500Y330000D02*
X381500D01*
X380000Y328500D02*
Y331500D01*
X318500Y330000D02*
X321500D01*
X320000Y328500D02*
Y331500D01*
X328500Y330000D02*
X331500D01*
X330000Y328500D02*
Y331500D01*
X298500Y330000D02*
X301500D01*
X300000Y328500D02*
Y331500D01*
X308500Y330000D02*
X311500D01*
X310000Y328500D02*
Y331500D01*
X348500Y330000D02*
X351500D01*
X350000Y328500D02*
Y331500D01*
X358500Y330000D02*
X361500D01*
X360000Y328500D02*
Y331500D01*
X338500Y330000D02*
X341500D01*
X340000Y328500D02*
Y331500D01*
X168500Y692500D02*
X171500D01*
X170000Y691000D02*
Y694000D01*
X168500Y682500D02*
X171500D01*
X170000Y681000D02*
Y684000D01*
X168500Y702500D02*
X171500D01*
X170000Y701000D02*
Y704000D01*
X168500Y672500D02*
X171500D01*
X170000Y671000D02*
Y674000D01*
X158500Y702500D02*
X161500D01*
X160000Y701000D02*
Y704000D01*
X158500Y692500D02*
X161500D01*
X160000Y691000D02*
Y694000D01*
X158500Y682500D02*
X161500D01*
X160000Y681000D02*
Y684000D01*
X158500Y672500D02*
X161500D01*
X160000Y671000D02*
Y674000D01*
X148500Y682500D02*
X151500D01*
X150000Y681000D02*
Y684000D01*
X148500Y672500D02*
X151500D01*
X150000Y671000D02*
Y674000D01*
X481353Y409567D02*
X484353D01*
X482853Y408067D02*
Y411067D01*
X485168Y442513D02*
X488168D01*
X486668Y441012D02*
Y444012D01*
X490075Y438249D02*
X493074D01*
X491575Y436749D02*
Y439749D01*
X491910Y431614D02*
X494910D01*
X493410Y430114D02*
Y433114D01*
X484963Y454423D02*
X487963D01*
X486464Y452923D02*
Y455923D01*
X489198Y464983D02*
X492198D01*
X490698Y463483D02*
Y466483D01*
X491516Y457575D02*
X494516D01*
X493016Y456075D02*
Y459075D01*
X618584Y896038D02*
X621584D01*
X620084Y894538D02*
Y897538D01*
X690500Y896000D02*
X693500D01*
X692000Y894500D02*
Y897500D01*
X588867Y566169D02*
X591867D01*
X590367Y564669D02*
Y567669D01*
X581492Y561366D02*
X584492D01*
X582992Y559865D02*
Y562865D01*
X203000Y491740D02*
X206000D01*
X204500Y490240D02*
Y493240D01*
X219000Y491740D02*
X222000D01*
X220500Y490240D02*
Y493240D01*
X261000Y392000D02*
X264000D01*
X262500Y390500D02*
Y393500D01*
X185500Y444245D02*
X188500D01*
X187000Y442745D02*
Y445745D01*
X171250Y491740D02*
X174250D01*
X172750Y490240D02*
Y493240D01*
X169000Y426245D02*
X172000D01*
X170500Y424745D02*
Y427745D01*
X556250Y77338D02*
X559250D01*
X557750Y75838D02*
Y78838D01*
X169500Y265000D02*
X172500D01*
X171000Y263500D02*
Y266500D01*
X152000Y430500D02*
X155000D01*
X153500Y429000D02*
Y432000D01*
X153250Y267255D02*
X156250D01*
X154750Y265755D02*
Y268755D01*
X152759Y369975D02*
X155759D01*
X154259Y368475D02*
Y371475D01*
X119250Y430500D02*
X122250D01*
X120750Y429000D02*
Y432000D01*
X137250Y267255D02*
X140250D01*
X138750Y265755D02*
Y268755D01*
X146500Y134000D02*
X149500D01*
X148000Y132500D02*
Y135500D01*
X146500Y124000D02*
X149500D01*
X148000Y122500D02*
Y125500D01*
X146500Y114000D02*
X149500D01*
X148000Y112500D02*
Y115500D01*
X136500Y134000D02*
X139500D01*
X138000Y132500D02*
Y135500D01*
X126500Y124000D02*
X129500D01*
X128000Y122500D02*
Y125500D01*
X126500Y134000D02*
X129500D01*
X128000Y132500D02*
Y135500D01*
X136500Y124000D02*
X139500D01*
X138000Y122500D02*
Y125500D01*
X136500Y114000D02*
X139500D01*
X138000Y112500D02*
Y115500D01*
X126500Y114000D02*
X129500D01*
X128000Y112500D02*
Y115500D01*
X187198Y491740D02*
X190198D01*
X188698Y490240D02*
Y493240D01*
X763500Y117500D02*
X766500D01*
X765000Y116000D02*
Y119000D01*
X763500Y127500D02*
X766500D01*
X765000Y126000D02*
Y129000D01*
X763500Y137500D02*
X766500D01*
X765000Y136000D02*
Y139000D01*
X753500Y117500D02*
X756500D01*
X755000Y116000D02*
Y119000D01*
X753500Y127500D02*
X756500D01*
X755000Y126000D02*
Y129000D01*
X743500Y117500D02*
X746500D01*
X745000Y116000D02*
Y119000D01*
X743500Y127500D02*
X746500D01*
X745000Y126000D02*
Y129000D01*
X753500Y137500D02*
X756500D01*
X755000Y136000D02*
Y139000D01*
X743500Y137500D02*
X746500D01*
X745000Y136000D02*
Y139000D01*
X258250Y375250D02*
X261250D01*
X259750Y373750D02*
Y376750D01*
X235000Y491740D02*
X238000D01*
X236500Y490240D02*
Y493240D01*
X87115Y101669D02*
X90115D01*
X88615Y100169D02*
Y103169D01*
X80615Y101748D02*
X83615D01*
X82115Y100248D02*
Y103248D01*
X169888Y282712D02*
X172888D01*
X171388Y281212D02*
Y284212D01*
X507838Y305570D02*
X510838D01*
X509338Y304070D02*
Y307070D01*
X490345Y410293D02*
X493345D01*
X491845Y408793D02*
Y411793D01*
X630905Y127301D02*
X633905D01*
X632405Y125801D02*
Y128801D01*
X554192Y362690D02*
X557192D01*
X555691Y361190D02*
Y364190D01*
X560338Y368461D02*
X563338D01*
X561838Y366961D02*
Y369961D01*
X798500Y810070D02*
X801500D01*
X800000Y808570D02*
Y811570D01*
X800784Y862622D02*
X803784D01*
X802284Y861122D02*
Y864122D01*
X618500Y767500D02*
X621500D01*
X620000Y766000D02*
Y769000D01*
X783500Y617500D02*
X786500D01*
X785000Y616000D02*
Y619000D01*
X776000Y617500D02*
X779000D01*
X777500Y616000D02*
Y619000D01*
X768500Y617500D02*
X771500D01*
X770000Y616000D02*
Y619000D01*
X783500Y632500D02*
X786500D01*
X785000Y631000D02*
Y634000D01*
X783500Y625000D02*
X786500D01*
X785000Y623500D02*
Y626500D01*
X776000Y632500D02*
X779000D01*
X777500Y631000D02*
Y634000D01*
X776000Y625000D02*
X779000D01*
X777500Y623500D02*
Y626500D01*
X768500Y632500D02*
X771500D01*
X770000Y631000D02*
Y634000D01*
X768500Y625000D02*
X771500D01*
X770000Y623500D02*
Y626500D01*
X783500Y640000D02*
X786500D01*
X785000Y638500D02*
Y641500D01*
X776000Y640000D02*
X779000D01*
X777500Y638500D02*
Y641500D01*
X768500Y640000D02*
X771500D01*
X770000Y638500D02*
Y641500D01*
X618988Y300111D02*
X621988D01*
X620489Y298611D02*
Y301611D01*
X608500Y518500D02*
X611500D01*
X610000Y517000D02*
Y520000D01*
X396500Y94000D02*
X399500D01*
X398000Y92500D02*
Y95500D01*
X396500Y104000D02*
X399500D01*
X398000Y102500D02*
Y105500D01*
X406500Y104000D02*
X409500D01*
X408000Y102500D02*
Y105500D01*
X406500Y94000D02*
X409500D01*
X408000Y92500D02*
Y95500D01*
X416500Y94000D02*
X419500D01*
X418000Y92500D02*
Y95500D01*
X416500Y104000D02*
X419500D01*
X418000Y102500D02*
Y105500D01*
X80500Y643000D02*
X83500D01*
X82000Y641500D02*
Y644500D01*
X79000Y788750D02*
X82000D01*
X80500Y787250D02*
Y790250D01*
X398038Y471451D02*
X401038D01*
X399538Y469951D02*
Y472951D01*
X681000Y177500D02*
X684000D01*
X682500Y176000D02*
Y179000D01*
X671000Y177500D02*
X674000D01*
X672500Y176000D02*
Y179000D01*
X661000Y177500D02*
X664000D01*
X662500Y176000D02*
Y179000D01*
X651000Y177500D02*
X654000D01*
X652500Y176000D02*
Y179000D01*
X641000Y177500D02*
X644000D01*
X642500Y176000D02*
Y179000D01*
X485559Y528837D02*
X488559D01*
X487059Y527337D02*
Y530337D01*
X485559Y538837D02*
X488559D01*
X487059Y537337D02*
Y540337D01*
X475559Y538837D02*
X478559D01*
X477059Y537337D02*
Y540337D01*
X465559Y538837D02*
X468559D01*
X467059Y537337D02*
Y540337D01*
X475559Y528837D02*
X478559D01*
X477059Y527337D02*
Y530337D01*
X465559Y528837D02*
X468559D01*
X467059Y527337D02*
Y530337D01*
X495559Y528837D02*
X498559D01*
X497059Y527337D02*
Y530337D01*
X495559Y538837D02*
X498559D01*
X497059Y537337D02*
Y540337D01*
X505559Y528837D02*
X508559D01*
X507059Y527337D02*
Y530337D01*
X505559Y538837D02*
X508559D01*
X507059Y537337D02*
Y540337D01*
X515559Y528837D02*
X518559D01*
X517059Y527337D02*
Y530337D01*
X515559Y538837D02*
X518559D01*
X517059Y537337D02*
Y540337D01*
X525559Y528837D02*
X528559D01*
X527059Y527337D02*
Y530337D01*
X525559Y538837D02*
X528559D01*
X527059Y537337D02*
Y540337D01*
X535559Y528837D02*
X538559D01*
X537059Y527337D02*
Y530337D01*
X535559Y538837D02*
X538559D01*
X537059Y537337D02*
Y540337D01*
X545559Y528837D02*
X548559D01*
X547059Y527337D02*
Y530337D01*
X545559Y538837D02*
X548559D01*
X547059Y537337D02*
Y540337D01*
X323500Y540000D02*
X326500D01*
X325000Y538500D02*
Y541500D01*
X323500Y530000D02*
X326500D01*
X325000Y528500D02*
Y531500D01*
X313500Y540000D02*
X316500D01*
X315000Y538500D02*
Y541500D01*
X313500Y530000D02*
X316500D01*
X315000Y528500D02*
Y531500D01*
X303500Y540000D02*
X306500D01*
X305000Y538500D02*
Y541500D01*
X303500Y530000D02*
X306500D01*
X305000Y528500D02*
Y531500D01*
X293500Y540000D02*
X296500D01*
X295000Y538500D02*
Y541500D01*
X293500Y530000D02*
X296500D01*
X295000Y528500D02*
Y531500D01*
X283500Y540000D02*
X286500D01*
X285000Y538500D02*
Y541500D01*
X283500Y530000D02*
X286500D01*
X285000Y528500D02*
Y531500D01*
X273500Y540000D02*
X276500D01*
X275000Y538500D02*
Y541500D01*
X273500Y530000D02*
X276500D01*
X275000Y528500D02*
Y531500D01*
X263500Y540000D02*
X266500D01*
X265000Y538500D02*
Y541500D01*
X263500Y530000D02*
X266500D01*
X265000Y528500D02*
Y531500D01*
X243500Y530000D02*
X246500D01*
X245000Y528500D02*
Y531500D01*
X253500Y530000D02*
X256500D01*
X255000Y528500D02*
Y531500D01*
X243500Y540000D02*
X246500D01*
X245000Y538500D02*
Y541500D01*
X253500Y540000D02*
X256500D01*
X255000Y538500D02*
Y541500D01*
X813533Y788192D02*
X816534D01*
X815033Y786692D02*
Y789692D01*
X226000Y800000D02*
X229000D01*
X227500Y798500D02*
Y801500D01*
X216000Y800000D02*
X219000D01*
X217500Y798500D02*
Y801500D01*
X206000Y800000D02*
X209000D01*
X207500Y798500D02*
Y801500D01*
X196000Y800000D02*
X199000D01*
X197500Y798500D02*
Y801500D01*
X186000Y800000D02*
X189000D01*
X187500Y798500D02*
Y801500D01*
X176000Y800000D02*
X179000D01*
X177500Y798500D02*
Y801500D01*
X226000Y810000D02*
X229000D01*
X227500Y808500D02*
Y811500D01*
X216000Y810000D02*
X219000D01*
X217500Y808500D02*
Y811500D01*
X206000Y810000D02*
X209000D01*
X207500Y808500D02*
Y811500D01*
X196000Y810000D02*
X199000D01*
X197500Y808500D02*
Y811500D01*
X186000Y810000D02*
X189000D01*
X187500Y808500D02*
Y811500D01*
X176000Y810000D02*
X179000D01*
X177500Y808500D02*
Y811500D01*
X537500Y477570D02*
X540500D01*
X539000Y476070D02*
Y479070D01*
X638548Y412224D02*
X641548D01*
X640048Y410724D02*
Y413724D01*
X759500Y424000D02*
X762500D01*
X761000Y422500D02*
Y425500D01*
X760500Y520070D02*
X763500D01*
X762000Y518570D02*
Y521570D01*
X754500Y515000D02*
X757500D01*
X756000Y513500D02*
Y516500D01*
X729500Y672000D02*
X732500D01*
X731000Y670500D02*
Y673500D01*
X601843Y411827D02*
X604843D01*
X603343Y410327D02*
Y413327D01*
X596637Y417000D02*
X599637D01*
X598137Y415500D02*
Y418500D01*
X829950Y697250D02*
X832950D01*
X831450Y695750D02*
Y698750D01*
X787349Y788338D02*
X790349D01*
X788849Y786839D02*
Y789838D01*
X549500Y474230D02*
X552500D01*
X551000Y472730D02*
Y475730D01*
X583355Y415942D02*
X586355D01*
X584855Y414442D02*
Y417442D01*
X578500Y408000D02*
X581500D01*
X580000Y406500D02*
Y409500D01*
X582500Y401000D02*
X585500D01*
X584000Y399500D02*
Y402500D01*
X540000Y408000D02*
X543000D01*
X541500Y406500D02*
Y409500D01*
X592750Y472500D02*
X595750D01*
X594250Y471000D02*
Y474000D01*
X830000Y532000D02*
X833000D01*
X831500Y530500D02*
Y533500D01*
X828000Y443500D02*
X831000D01*
X829500Y442000D02*
Y445000D01*
X817250Y532500D02*
X820250D01*
X818750Y531000D02*
Y534000D01*
X730450Y687495D02*
X733450D01*
X731950Y685995D02*
Y688995D01*
X561500Y446500D02*
X564500D01*
X563000Y445000D02*
Y448000D01*
X609000Y423000D02*
X612000D01*
X610500Y421500D02*
Y424500D01*
X580895Y363158D02*
X583895D01*
X582395Y361658D02*
Y364658D01*
X372750Y270750D02*
X375750D01*
X374250Y269250D02*
Y272250D01*
X571250Y353250D02*
X574250D01*
X572750Y351750D02*
Y354750D01*
X514750Y346750D02*
X517750D01*
X516250Y345250D02*
Y348250D01*
X660857Y427695D02*
X663857D01*
X662357Y426195D02*
Y429195D01*
X655320Y431100D02*
X658320D01*
X656820Y429600D02*
Y432600D01*
X671000Y897250D02*
X674000D01*
X672500Y895750D02*
Y898750D01*
X639500Y896750D02*
X642500D01*
X641000Y895250D02*
Y898250D01*
X491500Y483500D02*
X494500D01*
X493000Y482000D02*
Y485000D01*
X281500Y871255D02*
X284500D01*
X283000Y869755D02*
Y872755D01*
X582997Y215545D02*
X585997D01*
X584497Y214045D02*
Y217045D01*
X297500Y485750D02*
X300500D01*
X299000Y484250D02*
Y487250D01*
X428075Y821020D02*
X431075D01*
X429575Y819520D02*
Y822520D01*
X642783Y364555D02*
X645783D01*
X644283Y363055D02*
Y366055D01*
X319000Y593500D02*
X322000D01*
X320500Y592000D02*
Y595000D01*
X543800Y593500D02*
X546800D01*
X545300Y592000D02*
Y595000D01*
X310250Y199750D02*
X313250D01*
X311750Y198250D02*
Y201250D01*
X479550Y807650D02*
X482550D01*
X481050Y806150D02*
Y809150D01*
X861500Y375750D02*
X864500D01*
X863000Y374250D02*
Y377250D01*
X843745Y398500D02*
X846745D01*
X845245Y397000D02*
Y400000D01*
X370500Y170000D02*
X373500D01*
X372000Y168500D02*
Y171500D01*
X341000Y170005D02*
X344000D01*
X342500Y168505D02*
Y171505D01*
X596750Y368750D02*
X599750D01*
X598250Y367250D02*
Y370250D01*
X643750Y482000D02*
X646750D01*
X645250Y480500D02*
Y483500D01*
X700000Y34500D02*
X703000D01*
X701500Y33000D02*
Y36000D01*
X598245Y215691D02*
X601245D01*
X599745Y214191D02*
Y217191D01*
X529803Y367562D02*
X532803D01*
X531303Y366063D02*
Y369062D01*
X294250Y199654D02*
X297250D01*
X295750Y198154D02*
Y201154D01*
X309990Y247654D02*
X312990D01*
X311490Y246154D02*
Y249154D01*
X679545Y390423D02*
X682544D01*
X681044Y388923D02*
Y391923D01*
X173000Y357000D02*
X176000D01*
X174500Y355500D02*
Y358500D01*
X123500Y384000D02*
X126500D01*
X125000Y382500D02*
Y385500D01*
X150704Y168709D02*
X153705D01*
X152205Y167209D02*
Y170209D01*
X324750Y226250D02*
X327750D01*
X326250Y224750D02*
Y227750D01*
X288500Y806000D02*
X291500D01*
X290000Y804500D02*
Y807500D01*
X372500Y310500D02*
X375500D01*
X374000Y309000D02*
Y312000D01*
X371050Y474050D02*
X374050D01*
X372550Y472550D02*
Y475550D01*
X479550Y833050D02*
X482550D01*
X481050Y831550D02*
Y834550D01*
X701318Y111443D02*
X704318D01*
X702818Y109943D02*
Y112943D01*
X143751Y468000D02*
X146751D01*
X145251Y466500D02*
Y469500D01*
X127751Y468000D02*
X130751D01*
X129251Y466500D02*
Y469500D01*
X516000Y96750D02*
X519000D01*
X517500Y95250D02*
Y98250D01*
X165750Y346250D02*
X168750D01*
X167250Y344750D02*
Y347750D01*
M02*
