G04*
G04 #@! TF.GenerationSoftware,Altium Limited,Altium Designer,26.2.0 (7)*
G04*
G04 Layer_Physical_Order=1*
G04 Layer_Color=255*
%FSLAX44Y44*%
%MOMM*%
G71*
G04*
G04 #@! TF.SameCoordinates,705C9359-2560-42EC-9C9A-8D9864D1FE1B*
G04*
G04*
G04 #@! TF.FilePolarity,Positive*
G04*
G01*
G75*
%ADD10C,0.2000*%
%ADD13C,0.2540*%
%ADD17R,0.9000X1.3000*%
%ADD18R,0.8000X0.8750*%
%ADD19R,2.1000X3.0000*%
%ADD20R,0.8000X1.6000*%
%ADD21R,0.6000X0.6000*%
%ADD22R,0.2000X0.6000*%
%ADD23R,0.2000X0.6800*%
%ADD24R,3.3000X2.8500*%
%ADD25R,1.0000X0.2000*%
%ADD26R,1.5000X2.4000*%
%ADD27R,0.5000X0.7500*%
%ADD28R,1.6000X0.8000*%
%ADD29R,1.1000X1.7500*%
%ADD30R,1.5000X0.3500*%
%ADD31R,0.9000X1.1000*%
%ADD32R,1.1000X0.9000*%
%ADD33R,2.4000X1.5000*%
%ADD34R,0.6000X0.2000*%
%ADD35R,0.9500X0.2000*%
%ADD36R,0.2000X0.6500*%
%ADD37R,0.2000X0.7000*%
%ADD38R,0.7500X0.5000*%
%ADD39R,0.8750X0.8000*%
G04:AMPARAMS|DCode=40|XSize=0.3mm|YSize=2.4mm|CornerRadius=0.015mm|HoleSize=0mm|Usage=FLASHONLY|Rotation=90.000|XOffset=0mm|YOffset=0mm|HoleType=Round|Shape=RoundedRectangle|*
%AMROUNDEDRECTD40*
21,1,0.3000,2.3700,0,0,90.0*
21,1,0.2700,2.4000,0,0,90.0*
1,1,0.0300,1.1850,0.1350*
1,1,0.0300,1.1850,-0.1350*
1,1,0.0300,-1.1850,-0.1350*
1,1,0.0300,-1.1850,0.1350*
%
%ADD40ROUNDEDRECTD40*%
%ADD41R,3.0000X2.1000*%
G04:AMPARAMS|DCode=42|XSize=0.6mm|YSize=0.25mm|CornerRadius=0.0125mm|HoleSize=0mm|Usage=FLASHONLY|Rotation=270.000|XOffset=0mm|YOffset=0mm|HoleType=Round|Shape=RoundedRectangle|*
%AMROUNDEDRECTD42*
21,1,0.6000,0.2250,0,0,270.0*
21,1,0.5750,0.2500,0,0,270.0*
1,1,0.0250,-0.1125,-0.2875*
1,1,0.0250,-0.1125,0.2875*
1,1,0.0250,0.1125,0.2875*
1,1,0.0250,0.1125,-0.2875*
%
%ADD42ROUNDEDRECTD42*%
%ADD43R,0.4000X0.5500*%
%ADD44R,1.3000X0.9000*%
%ADD46R,1.1000X1.5500*%
%ADD47R,1.5500X1.1000*%
%ADD48R,0.5500X0.4000*%
%AMCUSTOMSHAPE90*
4,1,6,0.2405,0.1040,-0.2596,0.1040,-0.2596,0.8040,-0.4596,0.8040,-0.4596,-0.0961,0.2405,-0.0961,0.2405,0.1040,0.0*%
%ADD90CUSTOMSHAPE90*%

%AMCUSTOMSHAPE91*
4,1,6,-0.2405,0.0539,0.2596,0.0539,0.2596,0.8040,0.4596,0.8040,0.4596,-0.1460,-0.2405,-0.1460,-0.2405,0.0539,0.0*%
%ADD91CUSTOMSHAPE91*%

%AMCUSTOMSHAPE92*
4,1,6,-0.2405,-0.0539,0.2596,-0.0539,0.2596,-0.8040,0.4596,-0.8040,0.4596,0.1460,-0.2405,0.1460,-0.2405,-0.0539,0.0*%
%ADD92CUSTOMSHAPE92*%

%AMCUSTOMSHAPE93*
4,1,6,0.2405,-0.1040,-0.2596,-0.1040,-0.2596,-0.8040,-0.4596,-0.8040,-0.4596,0.0961,0.2405,0.0961,0.2405,-0.1040,0.0*%
%ADD93CUSTOMSHAPE93*%

%AMCUSTOMSHAPE94*
4,1,6,0.4750,0.1000,0.1250,0.1000,0.1250,0.4500,-0.1750,0.4500,-0.1750,-0.1500,0.4750,-0.1500,0.4750,0.1000,0.0*%
%ADD94CUSTOMSHAPE94*%

%AMCUSTOMSHAPE95*
4,1,6,0.4750,-0.1000,0.1250,-0.1000,0.1250,-0.4500,-0.1750,-0.4500,-0.1750,0.1500,0.4750,0.1500,0.4750,-0.1000,0.0*%
%ADD95CUSTOMSHAPE95*%

%AMCUSTOMSHAPE96*
4,1,6,-0.4750,0.1000,-0.1250,0.1000,-0.1250,0.4500,0.1750,0.4500,0.1750,-0.1500,-0.4750,-0.1500,-0.4750,0.1000,0.0*%
%ADD96CUSTOMSHAPE96*%

%AMCUSTOMSHAPE97*
4,1,6,-0.4750,-0.1000,-0.1250,-0.1000,-0.1250,-0.4500,0.1750,-0.4500,0.1750,0.1500,-0.4750,0.1500,-0.4750,-0.1000,0.0*%
%ADD97CUSTOMSHAPE97*%

%ADD98R,0.5000X0.9250*%
%AMCUSTOMSHAPE99*
4,1,16,-1.6050,2.2275,-1.6050,1.4275,-0.9350,1.4275,-0.9350,2.2275,-0.3350,2.2275,-0.3350,1.4275,0.3350,1.4275,0.3350,2.2275,0.9350,2.2275,0.9350,1.4275,1.6050,1.4275,1.6050,2.2275,2.2050,2.2275,2.2050,-2.2275,-2.2050,-2.2275,-2.2050,2.2275,-1.6050,2.2275,0.0*%
%ADD99CUSTOMSHAPE99*%

%AMCUSTOMSHAPE100*
4,1,16,1.6050,-2.2275,1.6050,-1.4275,0.9350,-1.4275,0.9350,-2.2275,0.3350,-2.2275,0.3350,-1.4275,-0.3350,-1.4275,-0.3350,-2.2275,-0.9350,-2.2275,-0.9350,-1.4275,-1.6050,-1.4275,-1.6050,-2.2275,-2.2050,-2.2275,-2.2050,2.2275,2.2050,2.2275,2.2050,-2.2275,1.6050,-2.2275,0.0*%
%ADD100CUSTOMSHAPE100*%

%ADD101R,0.6550X0.6750*%
%ADD102R,4.2950X4.5100*%
%ADD103R,0.7500X0.6750*%
%ADD104C,0.2500*%
%ADD105C,1.0000*%
%ADD106C,0.4000*%
%ADD107C,6.0000*%
G04:AMPARAMS|DCode=108|XSize=2mm|YSize=12mm|CornerRadius=0.3mm|HoleSize=0mm|Usage=FLASHONLY|Rotation=90.000|XOffset=0mm|YOffset=0mm|HoleType=Round|Shape=RoundedRectangle|*
%AMROUNDEDRECTD108*
21,1,2.0000,11.4000,0,0,90.0*
21,1,1.4000,12.0000,0,0,90.0*
1,1,0.6000,5.7000,0.7000*
1,1,0.6000,5.7000,-0.7000*
1,1,0.6000,-5.7000,-0.7000*
1,1,0.6000,-5.7000,0.7000*
%
%ADD108ROUNDEDRECTD108*%
%ADD109C,1.2000*%
%ADD110C,1.5000*%
%ADD111C,0.5000*%
%ADD112C,0.6000*%
G36*
X681500Y844500D02*
X823417D01*
Y824500D01*
X795921D01*
Y833352D01*
X795432Y835810D01*
X794040Y837894D01*
X792892Y839042D01*
X790808Y840434D01*
X788350Y840923D01*
X785892Y840434D01*
X783808Y839042D01*
X782416Y836958D01*
X781927Y834500D01*
X782416Y832042D01*
X783074Y831055D01*
Y824500D01*
X672500D01*
X623000Y874000D01*
X459350D01*
Y890000D01*
X636000D01*
X681500Y844500D01*
D02*
G37*
G36*
X626182Y848738D02*
X627589Y847332D01*
X628350Y845494D01*
Y844500D01*
Y824500D01*
Y823505D01*
X627589Y821667D01*
X626182Y820261D01*
X624344Y819500D01*
X277355D01*
X275518Y820261D01*
X274111Y821667D01*
X273350Y823505D01*
Y824500D01*
Y844500D01*
Y845494D01*
X274111Y847332D01*
X275518Y848738D01*
X277355Y849500D01*
X624344D01*
X626182Y848738D01*
D02*
G37*
G36*
X794998Y752500D02*
X799498Y748000D01*
X820475D01*
X827200Y741275D01*
Y717570D01*
X809896D01*
X806808Y720658D01*
X806047Y721167D01*
X805150Y721345D01*
X804253Y721167D01*
X803492Y720658D01*
X802983Y719897D01*
X802805Y719000D01*
X802983Y718103D01*
X803492Y717342D01*
X807267Y713567D01*
X808028Y713058D01*
X808925Y712880D01*
X808925Y712880D01*
X827200D01*
Y696725D01*
X783100D01*
Y770000D01*
X794998D01*
Y752500D01*
D02*
G37*
G36*
X814000Y667440D02*
X818215Y663225D01*
X823215D01*
X826700Y659740D01*
Y644550D01*
X796300D01*
Y659140D01*
X792215Y663225D01*
X787215Y663225D01*
X783600Y666840D01*
Y684000D01*
X814000D01*
Y667440D01*
D02*
G37*
G36*
X205000Y646000D02*
X255000D01*
X264000Y637000D01*
X263875Y636875D01*
Y620995D01*
X227351D01*
X223875Y624471D01*
Y630745D01*
X212125D01*
Y619745D01*
X215086D01*
X215572Y618572D01*
X212255Y615255D01*
X212125D01*
Y615125D01*
X207250Y610250D01*
X55500D01*
Y660000D01*
X191000D01*
X205000Y646000D01*
D02*
G37*
G36*
X827200Y514250D02*
X744000D01*
Y549000D01*
X783100Y588100D01*
Y614630D01*
X796754D01*
X803492Y607892D01*
X804253Y607383D01*
X805150Y607205D01*
X806047Y607383D01*
X806808Y607892D01*
X807317Y608653D01*
X807495Y609550D01*
X807317Y610447D01*
X806808Y611208D01*
X799383Y618633D01*
X798622Y619142D01*
X797725Y619320D01*
X797725Y619320D01*
X783100D01*
Y631825D01*
X827200D01*
Y514250D01*
D02*
G37*
G36*
X252750Y579235D02*
X253485Y579169D01*
X253968Y578153D01*
Y573375D01*
X254094Y572741D01*
X254112Y572714D01*
Y561818D01*
X251151Y558857D01*
X243296D01*
Y547857D01*
X244796D01*
Y543000D01*
X277250D01*
Y530500D01*
Y496921D01*
Y492750D01*
X277376Y492624D01*
Y491000D01*
X277852Y489852D01*
X284352Y483352D01*
X285500Y482876D01*
X296828D01*
X302352Y477352D01*
X303500Y476876D01*
X306077D01*
Y473750D01*
X306250Y473334D01*
Y472500D01*
X306799D01*
X307701Y472126D01*
X319250Y472126D01*
X332000Y472126D01*
X333148Y472602D01*
X333624Y473750D01*
Y484225D01*
X336250D01*
Y484525D01*
X339250D01*
Y484025D01*
X343126D01*
Y483500D01*
X343602Y482352D01*
X344250Y482084D01*
Y478000D01*
Y474000D01*
Y470000D01*
Y466000D01*
Y462000D01*
X351750D01*
Y459124D01*
X340750D01*
X339602Y458648D01*
X339126Y457500D01*
Y456500D01*
X333624D01*
Y467250D01*
X333148Y468398D01*
X332000Y468874D01*
X307500D01*
X306598Y468500D01*
X306250D01*
Y468152D01*
X305876Y467250D01*
Y464208D01*
X288208D01*
X265250Y441250D01*
Y440250D01*
Y354250D01*
X225000D01*
Y410000D01*
X232500Y417500D01*
X243956D01*
X250250Y423794D01*
Y432022D01*
Y440250D01*
X252000Y442000D01*
Y500000D01*
D01*
Y509000D01*
X248000Y513000D01*
X234000D01*
X223000Y524000D01*
Y543000D01*
X233500D01*
Y553500D01*
X235000D01*
Y567500D01*
X231160D01*
X230362Y568011D01*
X230229Y569523D01*
X236095Y575389D01*
X241866D01*
X242500Y575126D01*
X244376Y575126D01*
Y573250D01*
X244852Y572102D01*
X246000Y571626D01*
X249000D01*
X250148Y572102D01*
X250623Y573250D01*
Y579250D01*
X252250D01*
X252750Y579235D01*
D02*
G37*
G36*
X365500Y537000D02*
X328500D01*
Y592000D01*
X365500D01*
Y537000D01*
D02*
G37*
G36*
X237750Y584250D02*
X256895D01*
Y581250D01*
X233250D01*
X231000Y579000D01*
X119000D01*
X107000Y567000D01*
Y527000D01*
X100000Y520000D01*
X91838D01*
X91185Y520175D01*
X88815D01*
X88162Y520000D01*
X71838D01*
X71185Y520175D01*
X68815D01*
X68162Y520000D01*
X62000D01*
X55500Y526500D01*
Y597250D01*
X224750D01*
X237750Y584250D01*
D02*
G37*
G36*
X442350Y874000D02*
X225000D01*
X212500Y861500D01*
Y844500D01*
X260000Y797000D01*
X319000Y738000D01*
Y499000D01*
X322750Y495250D01*
Y486500D01*
X316750D01*
Y494250D01*
X310000Y501000D01*
Y523000D01*
X297250Y535750D01*
X297250Y731750D01*
X246000Y783000D01*
X204500Y824500D01*
X105287D01*
Y844500D01*
X196000D01*
Y869000D01*
X217000Y890000D01*
X442350D01*
Y874000D01*
D02*
G37*
G36*
X245000Y505500D02*
Y485500D01*
X150000D01*
Y515500D01*
X190000D01*
X245000Y505500D01*
D02*
G37*
G36*
X295626Y577374D02*
Y535750D01*
X296102Y534602D01*
X303625Y527079D01*
Y484625D01*
X307750Y480500D01*
X317626D01*
Y478624D01*
X307701D01*
X307403Y478500D01*
X303500D01*
X297500Y484500D01*
X285500D01*
X279000Y491000D01*
Y575000D01*
X272000Y582000D01*
Y584000D01*
X269706Y586294D01*
X245217D01*
Y589250D01*
X283750D01*
X295626Y577374D01*
D02*
G37*
G36*
X331250Y484225D02*
X332000D01*
Y473750D01*
X319250Y473750D01*
X307701Y473750D01*
Y477000D01*
X319250D01*
Y477250D01*
Y484250D01*
X331250D01*
Y484225D01*
D02*
G37*
G36*
X332000Y456500D02*
X318750D01*
Y459000D01*
X318750D01*
Y464000D01*
X318750D01*
Y464208D01*
X307500D01*
Y467250D01*
X332000D01*
Y456500D01*
D02*
G37*
G36*
X351750Y441250D02*
X342500Y432000D01*
X332500D01*
X332500Y364500D01*
X335000Y362000D01*
Y361500D01*
X335500D01*
X344450Y352550D01*
X408462D01*
Y311285D01*
Y307450D01*
X115050D01*
X80000Y342500D01*
Y400000D01*
X112500D01*
Y352500D01*
X132500Y332500D01*
X292500D01*
X308500Y348500D01*
Y432500D01*
X316750Y440750D01*
Y454500D01*
X322750D01*
Y446289D01*
X322457Y445996D01*
X321848Y444526D01*
Y442934D01*
X322457Y441464D01*
X323582Y440339D01*
X325052Y439730D01*
X329029D01*
X329045Y439693D01*
X330170Y438568D01*
X331640Y437959D01*
X333232D01*
X334702Y438568D01*
X335827Y439693D01*
X336436Y441163D01*
Y441436D01*
X340750Y445750D01*
Y457500D01*
X351750D01*
Y441250D01*
D02*
G37*
G36*
X245000Y435500D02*
X190000Y425500D01*
X150000D01*
Y455500D01*
X245000D01*
Y435500D01*
D02*
G37*
G36*
X312500Y462500D02*
Y460500D01*
X306250D01*
X299750Y454000D01*
Y451750D01*
X293250Y445250D01*
Y354250D01*
X278250D01*
Y451000D01*
X288250Y461000D01*
X298250D01*
Y462500D01*
X312500Y462500D01*
D02*
G37*
G36*
X379000Y425000D02*
Y354174D01*
X345123D01*
X336648Y362648D01*
X336295Y362794D01*
X336148Y363148D01*
X334124Y365173D01*
X334124Y430376D01*
X342500D01*
X343648Y430852D01*
X352898Y440102D01*
X353374Y441250D01*
X362750D01*
X379000Y425000D01*
D02*
G37*
G36*
X447117Y349175D02*
X447317Y348172D01*
X447885Y347322D01*
X448735Y346754D01*
X449738Y346555D01*
X450740Y346754D01*
X451590Y347322D01*
X452158Y348172D01*
X452217Y348470D01*
X453488Y348344D01*
Y320025D01*
X438025D01*
X435000Y317000D01*
Y311000D01*
X431450Y307450D01*
X414012D01*
Y339975D01*
X429975Y339975D01*
X433000Y343000D01*
Y350000D01*
X435550Y352550D01*
X447117D01*
Y349175D01*
D02*
G37*
G36*
X851182Y118738D02*
X852589Y117332D01*
X853350Y115494D01*
Y114500D01*
Y94500D01*
Y93505D01*
X852589Y91667D01*
X851182Y90261D01*
X849345Y89500D01*
X502355D01*
X500518Y90261D01*
X499111Y91667D01*
X498350Y93505D01*
Y94500D01*
Y114500D01*
Y115494D01*
X499111Y117332D01*
X500518Y118738D01*
X502355Y119500D01*
X849345D01*
X851182Y118738D01*
D02*
G37*
G36*
X401182D02*
X402589Y117332D01*
X403350Y115494D01*
Y114500D01*
Y94500D01*
Y93505D01*
X402589Y91667D01*
X401182Y90261D01*
X399344Y89500D01*
X52355D01*
X50518Y90261D01*
X49111Y91667D01*
X48350Y93505D01*
Y94500D01*
Y114500D01*
Y115494D01*
X49111Y117332D01*
X50518Y118738D01*
X52355Y119500D01*
X399344D01*
X401182Y118738D01*
D02*
G37*
G36*
X539250Y331750D02*
Y178750D01*
X486100Y125600D01*
Y69000D01*
X453100D01*
Y151850D01*
X502250Y201000D01*
Y293750D01*
X503750Y295250D01*
X491550Y307450D01*
X459038D01*
Y352550D01*
X459038Y352550D01*
X518450D01*
X539250Y331750D01*
D02*
G37*
G36*
X451476Y69000D02*
X405000D01*
Y90000D01*
Y151850D01*
X451476D01*
Y69000D01*
D02*
G37*
D10*
X325750Y443828D02*
X325848Y443730D01*
X325750Y443828D02*
Y451500D01*
X333750Y497573D02*
X334547Y498371D01*
Y499183D01*
X333750Y489125D02*
Y497573D01*
X329750Y446525D02*
X331862Y444414D01*
Y442533D02*
X332436Y441959D01*
X331862Y442533D02*
Y444414D01*
X306389Y436389D02*
X313727Y443727D01*
X303389Y436389D02*
X306389D01*
X313727Y443727D02*
Y456112D01*
X303000Y436000D02*
X303389Y436389D01*
X408750Y487000D02*
X409750Y486000D01*
X417762Y349175D02*
Y358281D01*
X422250Y362769D02*
Y370000D01*
X417762Y358281D02*
X422250Y362769D01*
X415456Y375000D02*
X420456Y370000D01*
X410000Y375000D02*
X415456D01*
X350696Y506000D02*
X356000D01*
X323835Y514006D02*
X324170Y514341D01*
X323500Y508000D02*
X323835Y508335D01*
Y514006D01*
X505262Y349175D02*
X507000Y350913D01*
Y357250D01*
X511000Y361250D01*
Y366125D01*
X514000Y369125D01*
X766000Y390000D02*
Y398240D01*
X765990Y398250D02*
X766000Y398240D01*
X329750Y446525D02*
Y451500D01*
X337780Y492141D02*
Y495627D01*
X341750Y494930D02*
X345820Y499000D01*
X340049Y497896D02*
Y505646D01*
X337780Y495627D02*
X340049Y497896D01*
X345820Y499000D02*
X362000D01*
X341750Y489025D02*
Y494930D01*
X329747Y492088D02*
Y503574D01*
X324947Y498938D02*
Y499749D01*
X325750Y489500D02*
Y498135D01*
X324947Y498938D02*
X325750Y498135D01*
X329747Y492088D02*
X329750Y492086D01*
Y489503D02*
Y492086D01*
X329747Y503574D02*
X333047Y506874D01*
X337750Y492111D02*
X337780Y492141D01*
X337750Y489275D02*
Y492111D01*
X339696Y506000D02*
X340049Y505646D01*
X339696Y506000D02*
X340055Y506359D01*
X366143Y480500D02*
X369809Y476834D01*
X370621D01*
X348750Y480500D02*
X366143D01*
X348750Y468500D02*
X360500D01*
X369000Y460000D01*
X218000Y589750D02*
Y609755D01*
X191250Y589750D02*
X218000D01*
X797725Y616975D02*
X805150Y609550D01*
X768715Y616975D02*
X797725D01*
X805150Y719000D02*
X808925Y715225D01*
X835215D01*
X841715Y708725D01*
Y694970D02*
Y708725D01*
X372308Y465076D02*
X373060D01*
X348750Y472500D02*
X361167D01*
X361834Y476500D02*
X366446Y471888D01*
X361167Y472500D02*
X365079Y468588D01*
X368795D02*
X372308Y465076D01*
X365079Y468588D02*
X368795D01*
X366446Y471888D02*
X373851D01*
X374279Y471460D01*
X348750Y476500D02*
X361834D01*
X369000Y447000D02*
Y453212D01*
X348750Y464500D02*
X357712D01*
X369000Y453212D01*
Y447000D02*
X376000Y440000D01*
X387500D01*
Y457500D02*
X391000Y454000D01*
Y452365D02*
Y454000D01*
Y452365D02*
X402990Y440375D01*
Y440000D02*
Y440375D01*
X420000Y427638D02*
Y467000D01*
Y427638D02*
X425500Y422138D01*
X362000Y499000D02*
X370250Y507250D01*
X387750D01*
X340055Y506359D02*
Y521359D01*
X341696Y523000D01*
X731965Y668845D02*
X732258Y669138D01*
Y677277D01*
D13*
X523000Y539000D02*
X540000Y522000D01*
X572005D01*
X474072Y501322D02*
Y506072D01*
X517867Y549867D02*
X667950D01*
X472000Y499250D02*
X474072Y501322D01*
Y506072D02*
X517867Y549867D01*
X472000Y528000D02*
X502234Y558234D01*
X472000Y520250D02*
Y528000D01*
X502234Y558234D02*
X669054D01*
X51000Y696000D02*
X62500D01*
X68253Y678000D02*
X68256Y677997D01*
X53000Y678000D02*
X68253D01*
X44000Y669000D02*
X53000Y678000D01*
X44000Y595000D02*
Y669000D01*
Y595000D02*
X49250Y589750D01*
X67500D01*
X83746Y677622D02*
Y677997D01*
X83500Y677868D02*
X83746Y677622D01*
X83500Y677868D02*
Y696000D01*
X806617Y482642D02*
X809429Y479830D01*
X823905D01*
X788103Y482642D02*
X806617D01*
X787000Y483745D02*
X788103Y482642D01*
X557885Y591000D02*
X648000D01*
X543005Y607745D02*
Y625000D01*
X542260Y607000D02*
X543005Y607745D01*
X542260Y606625D02*
X557885Y591000D01*
X276125Y609505D02*
X280849Y604781D01*
Y599124D02*
Y604781D01*
X275750Y609505D02*
X276125D01*
X722321Y480743D02*
X734223D01*
X722250Y480814D02*
X722321Y480743D01*
X734223D02*
X734295Y480671D01*
X722250Y474210D02*
Y480814D01*
X670572Y336560D02*
X680566Y346554D01*
X663310Y336560D02*
X670572D01*
X680566Y346554D02*
Y350975D01*
X662750Y336000D02*
X663310Y336560D01*
X605000Y336000D02*
X614250D01*
X270000Y768000D02*
X294000Y792000D01*
X504000D01*
X564005Y731995D01*
Y625000D02*
Y731995D01*
X824000Y454925D02*
X828000D01*
X839000Y465925D01*
Y484000D01*
X820000Y503000D02*
X839000Y484000D01*
X736000Y503000D02*
X820000D01*
X648000Y591000D02*
X736000Y503000D01*
X557750Y607000D02*
X567255D01*
X677745Y511750D02*
Y524255D01*
X665000Y537000D02*
X677745Y524255D01*
X578000Y537000D02*
X665000D01*
X572005Y531005D02*
X578000Y537000D01*
X572005Y522000D02*
Y531005D01*
X449794Y447500D02*
X452500D01*
X445294Y443000D02*
X449794Y447500D01*
X434500Y443000D02*
X445294D01*
X431000Y439500D02*
X434500Y443000D01*
X644736Y425651D02*
X645402D01*
X648495Y428744D02*
X665750D01*
X645402Y425651D02*
X648495Y428744D01*
X227102Y570102D02*
X235009Y578009D01*
X225750Y560500D02*
X227102Y561852D01*
Y570102D01*
X268501Y577870D02*
X272620Y573751D01*
X261870Y577870D02*
X268501D01*
X272620Y563256D02*
Y573751D01*
X268769Y559406D02*
X272620Y563256D01*
X256733Y560733D02*
Y574520D01*
X251000Y555000D02*
X256733Y560733D01*
X722250Y467860D02*
X722320Y467930D01*
X757000Y468000D02*
X757140Y467860D01*
X807028D01*
X722320Y467930D02*
X756930D01*
X757000Y468000D01*
X559500Y489500D02*
X571260D01*
X503000Y413000D02*
Y433000D01*
X559500Y489500D01*
X402990Y382010D02*
Y440000D01*
Y382010D02*
X410000Y375000D01*
X562000Y457000D02*
X571755D01*
X571755Y457000D01*
X572005Y522000D02*
X572005Y522000D01*
X354000Y523000D02*
X362696D01*
X555102Y112747D02*
Y415102D01*
Y112747D02*
X563350Y104500D01*
X555102Y415102D02*
X564500Y424500D01*
X571255D01*
X575000Y404334D02*
Y405000D01*
X571505Y374000D02*
Y400839D01*
X575000Y404334D01*
X680500Y495250D02*
X681034Y494716D01*
X688137D01*
X823905Y479830D02*
X824000Y479925D01*
X767000Y454000D02*
X774000D01*
X772782Y416782D02*
X780397D01*
X766697Y434702D02*
X774397D01*
X772500Y416500D02*
X772782Y416782D01*
X766495Y434500D02*
X766697Y434702D01*
X603000Y392000D02*
Y406500D01*
X409750Y486000D02*
X417000D01*
X449362Y310825D02*
X449738D01*
X435537Y297000D02*
X449362Y310825D01*
X391000Y297000D02*
X435537D01*
X449738Y349175D02*
Y358763D01*
X438500Y370000D02*
X449738Y358763D01*
X437750Y370000D02*
X438500D01*
X705718Y434860D02*
X706095Y435238D01*
X696690Y434860D02*
X705718D01*
X687000Y425170D02*
X696690Y434860D01*
X697000Y421000D02*
X708814Y409186D01*
X697000Y421000D02*
Y428000D01*
X687000Y447000D02*
Y459494D01*
X674314Y472180D02*
X687000Y459494D01*
X673530Y472180D02*
X674314D01*
X671500Y474210D02*
X673530Y472180D01*
X665750Y474210D02*
X671500D01*
X695018Y453982D02*
X707302Y441698D01*
X695018Y453982D02*
Y522798D01*
X702120Y455880D02*
Y525168D01*
Y455880D02*
X709698Y448302D01*
X669054Y558234D02*
X702120Y525168D01*
X667950Y549867D02*
X695018Y522798D01*
X709698Y448302D02*
X722250D01*
X662255Y511750D02*
X662500Y511505D01*
Y495250D02*
Y511505D01*
Y481294D02*
Y495250D01*
Y481294D02*
X662980Y480814D01*
X665750D01*
Y461256D02*
Y467860D01*
X642890D02*
X665750D01*
X636500Y474250D02*
X642890Y467860D01*
X636500Y474250D02*
Y501250D01*
X615750Y522000D02*
X636500Y501250D01*
X603000Y522000D02*
X615750D01*
X587495D02*
X603000D01*
Y457000D02*
Y471500D01*
X629448Y448302D02*
X665750D01*
X620750Y457000D02*
X629448Y448302D01*
X603000Y457000D02*
X620750D01*
X587245D02*
X603000D01*
Y489500D02*
Y504000D01*
X586750Y489500D02*
X603000D01*
X616500D01*
X622500Y483500D01*
Y469750D02*
Y483500D01*
Y469750D02*
X637598Y454652D01*
X665750D01*
X603000Y424500D02*
Y439000D01*
X586745Y424500D02*
X603000D01*
X618750D02*
X635948Y441698D01*
X603000Y424500D02*
X618750D01*
X635948Y441698D02*
X665750D01*
X749000Y454000D02*
Y462000D01*
X748348Y454652D02*
X749000Y454000D01*
X722250Y454652D02*
X748348D01*
X707302Y441698D02*
X722250D01*
X687000Y415666D02*
Y425170D01*
X680520Y409186D02*
X687000Y415666D01*
X708814Y409186D02*
X722250D01*
X665750D02*
X680520D01*
X522380Y388000D02*
X532250D01*
X522255Y387875D02*
X522380Y388000D01*
X425640Y507250D02*
X475081Y457809D01*
Y441081D02*
Y457809D01*
X408750Y507250D02*
X425640D01*
X408750D02*
X410000Y506000D01*
Y497500D02*
Y506000D01*
X838610Y646500D02*
X841340Y649230D01*
X837210Y638861D02*
X838610Y640260D01*
X841340Y649230D02*
X841715D01*
X837210Y638195D02*
Y638861D01*
X838610Y640260D02*
Y646500D01*
X714724Y351254D02*
Y370724D01*
X718564Y349663D02*
Y366915D01*
X714724Y370724D02*
X715000Y371000D01*
X685471Y316571D02*
X718564Y349663D01*
Y366915D02*
X721374Y369725D01*
X683881Y320411D02*
X714724Y351254D01*
X644468Y316571D02*
X685471D01*
X646906Y320411D02*
X683881D01*
X640254Y327062D02*
X646906Y320411D01*
X636414Y324625D02*
X644468Y316571D01*
X636414Y324625D02*
Y332971D01*
X640254Y327062D02*
Y332259D01*
X643395Y335400D02*
Y335775D01*
X640254Y332259D02*
X643395Y335400D01*
X807728Y779297D02*
X809216Y777810D01*
X803498Y788750D02*
X807728Y784520D01*
Y779297D02*
Y784520D01*
X809216Y777810D02*
X813968D01*
X813851Y770839D02*
X814516D01*
X812845Y771845D02*
X813851Y770839D01*
X809216Y771845D02*
X812845D01*
X813968Y777810D02*
X814438Y777339D01*
X807728Y765480D02*
Y770358D01*
X809216Y771845D01*
X803498Y761250D02*
X807728Y765480D01*
X768715Y632475D02*
Y639140D01*
X767465Y640391D02*
X768715Y639140D01*
X767465Y640391D02*
Y648226D01*
X766965Y648725D02*
X767465Y648226D01*
X748710Y699225D02*
X758215D01*
X748465Y699470D02*
X748710Y699225D01*
X382000Y473000D02*
X414000D01*
X349346Y484460D02*
X370540D01*
X382000Y473000D01*
X437750Y370000D02*
Y385125D01*
X414000Y408875D02*
X437750Y385125D01*
X414000Y408875D02*
Y448000D01*
X405500Y456500D02*
X414000Y448000D01*
X405500Y456500D02*
Y457500D01*
X425500Y422000D02*
Y422138D01*
Y422000D02*
X429000Y418500D01*
X431000D02*
X432000Y417500D01*
X429000Y418500D02*
X431000D01*
X414000Y473000D02*
X420000Y467000D01*
X432000Y417500D02*
X452500D01*
X472500D01*
X475000Y420000D01*
X387750Y487000D02*
Y507250D01*
X471250Y500000D02*
X472000Y499250D01*
X452500Y500000D02*
X471250D01*
X219010Y625630D02*
X231770Y612870D01*
X259500Y609505D02*
X262230Y612235D01*
X262615D01*
X275375Y624995D01*
X275750D01*
X259480Y609505D02*
X259500D01*
X256750Y606775D02*
X259480Y609505D01*
X256750Y594250D02*
Y606775D01*
X234500Y597472D02*
Y609755D01*
Y597472D02*
X239221Y592750D01*
X247250D01*
X246990Y578009D02*
X247250Y577750D01*
X235009Y578009D02*
X246990D01*
X807028Y443913D02*
Y467860D01*
X808516Y442425D02*
X824000D01*
X807028Y443913D02*
X808516Y442425D01*
X807028Y467860D02*
X823565D01*
X824000Y467425D01*
X741221Y403927D02*
Y411898D01*
Y403927D02*
X744357Y400790D01*
X747960D01*
X750500Y398250D01*
X722250Y435348D02*
X750157D01*
X722250Y428744D02*
X741256D01*
X737329Y415790D02*
X741221Y411898D01*
X750157Y435348D02*
X751005Y434500D01*
X741256Y428744D02*
X751500Y418500D01*
X722250Y415790D02*
X737329D01*
X751500Y416500D02*
Y418500D01*
X841715Y664720D02*
Y679480D01*
X824200Y679375D02*
X824305Y679480D01*
X841715D01*
X785650Y648725D02*
X786100Y649175D01*
X766965Y648725D02*
X785650D01*
X762085Y653605D02*
X766965Y648725D01*
X763347Y669095D02*
X766977Y672725D01*
X748965Y669095D02*
X763347D01*
X748965Y653605D02*
X762085D01*
X748715Y653355D02*
X748965Y653605D01*
X731965Y653355D02*
X748715D01*
X748465Y669595D02*
X748965Y669095D01*
X748465Y669595D02*
Y683980D01*
X630875Y338510D02*
X636414Y332971D01*
X646125Y338505D02*
X646500D01*
X643395Y335775D02*
X646125Y338505D01*
X630500Y338510D02*
X630875D01*
X629250Y371250D02*
X632480Y374480D01*
X633480D01*
X636250Y377250D01*
X629250Y370250D02*
Y371250D01*
X636250Y408181D02*
X650209Y422140D01*
X636250Y377250D02*
Y408181D01*
X640090Y406590D02*
X649290Y415790D01*
X640090Y378410D02*
Y406590D01*
Y378410D02*
X647250Y371250D01*
X650209Y422140D02*
X665750D01*
X649290Y415790D02*
X665750D01*
X647250Y354745D02*
Y371250D01*
X662745Y353995D02*
X662750Y354000D01*
X646500Y353995D02*
X662745D01*
X614250Y354000D02*
X630500D01*
X646500Y353995D02*
X647250Y354745D01*
X629250Y370250D02*
X630500Y369000D01*
Y354000D02*
Y369000D01*
X619111Y381361D02*
Y410861D01*
X643598Y435348D01*
X611750Y374000D02*
X619111Y381361D01*
X603000Y374000D02*
X611750D01*
X586995D02*
X603000D01*
X643598Y435348D02*
X665750D01*
D17*
X83500Y696000D02*
D03*
X62500D02*
D03*
X564005Y625000D02*
D03*
X362696Y523000D02*
D03*
X772500Y416500D02*
D03*
X751500D02*
D03*
X543005Y625000D02*
D03*
X408750Y487000D02*
D03*
X341696Y523000D02*
D03*
X387750Y507250D02*
D03*
X408750D02*
D03*
X387750Y487000D02*
D03*
D18*
X83746Y677997D02*
D03*
X68256D02*
D03*
X571755Y457000D02*
D03*
X677745Y511750D02*
D03*
X572005Y522000D02*
D03*
X571255Y424500D02*
D03*
X557750Y607000D02*
D03*
X766495Y434500D02*
D03*
X571505Y374000D02*
D03*
X571260Y489500D02*
D03*
X662255Y511750D02*
D03*
X587495Y522000D02*
D03*
X587245Y457000D02*
D03*
X586750Y489500D02*
D03*
X586745Y424500D02*
D03*
X751005Y434500D02*
D03*
X542260Y607000D02*
D03*
X765990Y398250D02*
D03*
X750500D02*
D03*
X586995Y374000D02*
D03*
X514000Y369125D02*
D03*
X498510D02*
D03*
X402990Y440000D02*
D03*
X387500D02*
D03*
D19*
X400350Y911000D02*
D03*
X501350D02*
D03*
X507600Y48000D02*
D03*
X394100D02*
D03*
D20*
X425850Y882000D02*
D03*
X438350D02*
D03*
X450850D02*
D03*
X463350D02*
D03*
X475850D02*
D03*
X482100Y77000D02*
D03*
X469600D02*
D03*
X457100D02*
D03*
X444600D02*
D03*
X432100D02*
D03*
X419600D02*
D03*
D21*
X766965Y648725D02*
D03*
X766977Y672725D02*
D03*
D22*
X325750Y451500D02*
D03*
X321750Y489500D02*
D03*
X317750D02*
D03*
X329750Y451500D02*
D03*
Y489500D02*
D03*
X337750Y451500D02*
D03*
X333750D02*
D03*
X341750D02*
D03*
X321750D02*
D03*
X317750D02*
D03*
X325750Y489500D02*
D03*
D23*
X333750Y489125D02*
D03*
D24*
X170000Y500250D02*
D03*
Y440750D02*
D03*
D25*
X312750Y475000D02*
D03*
Y466000D02*
D03*
Y479500D02*
D03*
Y470500D02*
D03*
D26*
X308000Y549000D02*
D03*
Y580000D02*
D03*
X292012Y508921D02*
D03*
X336000Y580000D02*
D03*
X264012Y508921D02*
D03*
X344000Y406000D02*
D03*
Y375000D02*
D03*
X257750Y366250D02*
D03*
Y397250D02*
D03*
Y428250D02*
D03*
X336000Y549000D02*
D03*
X316000Y406000D02*
D03*
Y375000D02*
D03*
X285750Y428250D02*
D03*
Y397250D02*
D03*
Y366250D02*
D03*
D27*
X312500Y508000D02*
D03*
X338000Y425000D02*
D03*
X350696Y506000D02*
D03*
X323500Y508000D02*
D03*
X327000Y425000D02*
D03*
X339696Y506000D02*
D03*
D28*
X824000Y479925D02*
D03*
Y442425D02*
D03*
Y454925D02*
D03*
Y467425D02*
D03*
D29*
X789498Y788750D02*
D03*
X803498D02*
D03*
Y761250D02*
D03*
X789498D02*
D03*
D30*
X722250Y474210D02*
D03*
Y480814D02*
D03*
X665750Y428744D02*
D03*
Y409186D02*
D03*
Y415790D02*
D03*
Y422140D02*
D03*
Y435348D02*
D03*
Y441698D02*
D03*
Y448302D02*
D03*
Y454652D02*
D03*
Y461256D02*
D03*
Y467860D02*
D03*
Y474210D02*
D03*
Y480814D02*
D03*
X722250Y461256D02*
D03*
Y467860D02*
D03*
Y435348D02*
D03*
Y428744D02*
D03*
Y422140D02*
D03*
Y415790D02*
D03*
Y409186D02*
D03*
Y448302D02*
D03*
Y441698D02*
D03*
Y454652D02*
D03*
D31*
X767000Y454000D02*
D03*
X680500Y495250D02*
D03*
X662500D02*
D03*
X749000Y454000D02*
D03*
X629250Y370250D02*
D03*
X647250D02*
D03*
X387500Y457500D02*
D03*
X405500D02*
D03*
D32*
X603000Y406500D02*
D03*
Y392000D02*
D03*
X662750Y336000D02*
D03*
X614250D02*
D03*
X603000Y522000D02*
D03*
Y471500D02*
D03*
Y457000D02*
D03*
Y489500D02*
D03*
Y504000D02*
D03*
Y439000D02*
D03*
Y424500D02*
D03*
X662750Y354000D02*
D03*
X614250D02*
D03*
X603000Y374000D02*
D03*
D33*
X67500Y589750D02*
D03*
Y617750D02*
D03*
X191250Y589750D02*
D03*
Y617750D02*
D03*
X98250D02*
D03*
X129250D02*
D03*
X160250D02*
D03*
X98250Y589750D02*
D03*
X129250D02*
D03*
X160250D02*
D03*
D34*
X348750Y464500D02*
D03*
Y472500D02*
D03*
Y480500D02*
D03*
Y468500D02*
D03*
Y476500D02*
D03*
Y460500D02*
D03*
D35*
X312500Y461500D02*
D03*
D36*
X337750Y489275D02*
D03*
D37*
X341750Y489025D02*
D03*
D38*
X293000Y487000D02*
D03*
Y465000D02*
D03*
Y476000D02*
D03*
Y454000D02*
D03*
D39*
X275750Y609505D02*
D03*
X787000Y468255D02*
D03*
X841715Y649230D02*
D03*
Y664720D02*
D03*
X787000Y483745D02*
D03*
X234500Y625245D02*
D03*
Y609755D02*
D03*
X218000Y625245D02*
D03*
Y609755D02*
D03*
X748465Y683980D02*
D03*
Y699470D02*
D03*
X841715Y694970D02*
D03*
Y679480D02*
D03*
X630500Y338510D02*
D03*
Y354000D02*
D03*
X646500Y338505D02*
D03*
Y353995D02*
D03*
X748965Y653605D02*
D03*
Y669095D02*
D03*
X731965Y668845D02*
D03*
Y653355D02*
D03*
X259500Y624995D02*
D03*
Y609505D02*
D03*
X275750Y624995D02*
D03*
X249171Y537867D02*
D03*
Y553357D02*
D03*
D40*
X254500Y587750D02*
D03*
Y582750D02*
D03*
D41*
X853000Y505425D02*
D03*
Y416925D02*
D03*
D42*
X256750Y576250D02*
D03*
Y594250D02*
D03*
X252250D02*
D03*
Y576250D02*
D03*
D43*
X768715Y632475D02*
D03*
Y616975D02*
D03*
D44*
X472000Y499250D02*
D03*
Y520250D02*
D03*
X431000Y439500D02*
D03*
X475000Y420000D02*
D03*
Y441000D02*
D03*
X431000Y418500D02*
D03*
D46*
X499255Y387875D02*
D03*
X522255D02*
D03*
D47*
X268769Y559406D02*
D03*
Y536406D02*
D03*
X225750Y560500D02*
D03*
Y537500D02*
D03*
D48*
X422250Y370000D02*
D03*
X437750D02*
D03*
D90*
X349346Y484460D02*
D03*
D91*
X310154D02*
D03*
D92*
Y456539D02*
D03*
D93*
X349346D02*
D03*
D94*
X261750Y592750D02*
D03*
D95*
Y577750D02*
D03*
D96*
X247250Y592750D02*
D03*
D97*
Y577750D02*
D03*
D98*
X786100Y679375D02*
D03*
X824200D02*
D03*
X798800D02*
D03*
X811500D02*
D03*
X824200Y649175D02*
D03*
X786100D02*
D03*
X811500D02*
D03*
X798800D02*
D03*
D99*
X805150Y719000D02*
D03*
D100*
Y609550D02*
D03*
D101*
X505262Y310825D02*
D03*
Y323400D02*
D03*
Y336600D02*
D03*
Y349175D02*
D03*
X362238D02*
D03*
Y336600D02*
D03*
Y323400D02*
D03*
Y310825D02*
D03*
D102*
X480513Y330000D02*
D03*
X386987D02*
D03*
D103*
X449738Y349175D02*
D03*
Y336600D02*
D03*
Y323400D02*
D03*
Y310825D02*
D03*
X417762Y349175D02*
D03*
Y310825D02*
D03*
Y323400D02*
D03*
Y336600D02*
D03*
D104*
X312750Y475000D02*
X312750Y475000D01*
X312750Y466000D02*
X312750Y466000D01*
X261750Y592750D02*
X287250D01*
X292000Y588000D01*
D105*
X788350Y834500D02*
X789498Y833352D01*
Y788750D02*
Y833352D01*
D106*
X498882Y387503D02*
X499255Y387875D01*
X498882Y369497D02*
Y387503D01*
X498510Y369125D02*
X498882Y369497D01*
D107*
X675850Y680000D02*
D03*
X225850Y259500D02*
D03*
X450850D02*
D03*
X675850D02*
D03*
X450850Y680000D02*
D03*
X225850D02*
D03*
X850000Y50000D02*
D03*
X50000D02*
D03*
X88900Y908100D02*
D03*
X825500D02*
D03*
D108*
X563350Y104500D02*
D03*
X788350D02*
D03*
X338350D02*
D03*
Y834500D02*
D03*
X113350Y104500D02*
D03*
Y834500D02*
D03*
X788350D02*
D03*
X563350D02*
D03*
D109*
X452500Y530000D02*
D03*
Y417500D02*
D03*
Y447500D02*
D03*
Y500000D02*
D03*
D110*
X90000Y371175D02*
D03*
Y391175D02*
D03*
X70000Y411175D02*
D03*
X90000D02*
D03*
X70000Y451175D02*
D03*
X90000D02*
D03*
X70000Y471175D02*
D03*
X90000D02*
D03*
X70000Y531175D02*
D03*
X90000D02*
D03*
X70000Y551175D02*
D03*
X90000D02*
D03*
X70000Y371175D02*
D03*
Y391175D02*
D03*
Y431175D02*
D03*
X90000D02*
D03*
X70000Y491175D02*
D03*
X90000D02*
D03*
X70000Y511175D02*
D03*
X90000D02*
D03*
D111*
X523000Y539000D02*
D03*
X51000Y696000D02*
D03*
X805952Y482642D02*
D03*
X280940Y599033D02*
D03*
X280750Y584000D02*
D03*
X239000Y546250D02*
D03*
Y556500D02*
D03*
Y566500D02*
D03*
X249000Y566750D02*
D03*
X239000Y535750D02*
D03*
X293141Y470438D02*
D03*
X337500Y463750D02*
D03*
Y470750D02*
D03*
Y477750D02*
D03*
X325848Y443730D02*
D03*
X334547Y499183D02*
D03*
X328750Y477990D02*
D03*
X322672D02*
D03*
X220000Y495000D02*
D03*
X240000D02*
D03*
X230000D02*
D03*
X322672Y463010D02*
D03*
X328750D02*
D03*
X230000Y446000D02*
D03*
X240000D02*
D03*
X220000D02*
D03*
X332436Y441959D02*
D03*
X303000Y436000D02*
D03*
X357750Y491750D02*
D03*
X734295Y480671D02*
D03*
X680566Y350975D02*
D03*
X605000Y336000D02*
D03*
X567255Y607000D02*
D03*
X443000Y145000D02*
D03*
X433000D02*
D03*
Y135000D02*
D03*
Y125000D02*
D03*
X443000D02*
D03*
Y135000D02*
D03*
X433000Y115000D02*
D03*
Y105000D02*
D03*
X443000D02*
D03*
Y115000D02*
D03*
X423000D02*
D03*
X413000D02*
D03*
Y105000D02*
D03*
X423000D02*
D03*
Y125000D02*
D03*
X413000D02*
D03*
Y145000D02*
D03*
X423000D02*
D03*
X413000Y135000D02*
D03*
X423000D02*
D03*
X603000Y399250D02*
D03*
X644736Y425651D02*
D03*
X325532Y532500D02*
D03*
X292000Y588000D02*
D03*
X269000Y526000D02*
D03*
X259000D02*
D03*
X249000Y516000D02*
D03*
X239000D02*
D03*
X249000Y526000D02*
D03*
X239000D02*
D03*
X229000D02*
D03*
X757000Y468000D02*
D03*
X503000Y413000D02*
D03*
X360000Y555000D02*
D03*
X350000D02*
D03*
X360000Y565000D02*
D03*
X562000Y457000D02*
D03*
X354000Y523000D02*
D03*
X314000Y527000D02*
D03*
X575000Y405000D02*
D03*
X688137Y494716D02*
D03*
X774346Y454023D02*
D03*
X780397Y416782D02*
D03*
X774397Y434702D02*
D03*
X417000Y486000D02*
D03*
X391000Y297000D02*
D03*
X410000Y375000D02*
D03*
X367750Y378000D02*
D03*
X233750Y412250D02*
D03*
X243750D02*
D03*
Y372250D02*
D03*
X233750D02*
D03*
X243750Y382250D02*
D03*
X233750D02*
D03*
Y392250D02*
D03*
X243750D02*
D03*
Y402250D02*
D03*
X233750D02*
D03*
Y362250D02*
D03*
X243750D02*
D03*
X357750Y388000D02*
D03*
X367750D02*
D03*
X357750Y398000D02*
D03*
X367750D02*
D03*
Y408000D02*
D03*
X357750D02*
D03*
Y418000D02*
D03*
X367750D02*
D03*
X357750Y378000D02*
D03*
X350000Y545000D02*
D03*
X360000D02*
D03*
Y585000D02*
D03*
X350000D02*
D03*
Y575000D02*
D03*
X360000D02*
D03*
X350000Y565000D02*
D03*
X155000Y650000D02*
D03*
Y640000D02*
D03*
X165000Y650000D02*
D03*
Y640000D02*
D03*
X145000Y650000D02*
D03*
Y640000D02*
D03*
X65000Y650000D02*
D03*
Y640000D02*
D03*
X75000Y650000D02*
D03*
Y640000D02*
D03*
X95000D02*
D03*
Y650000D02*
D03*
X85000Y640000D02*
D03*
Y650000D02*
D03*
X115000Y640000D02*
D03*
Y650000D02*
D03*
X105000Y640000D02*
D03*
Y650000D02*
D03*
X135000Y640000D02*
D03*
Y650000D02*
D03*
X125000Y640000D02*
D03*
Y650000D02*
D03*
X706095Y435238D02*
D03*
X697000Y428000D02*
D03*
X687000Y447000D02*
D03*
X749000Y462000D02*
D03*
X356000Y506000D02*
D03*
X324170Y514341D02*
D03*
X760000Y555000D02*
D03*
X770000Y555000D02*
D03*
Y565000D02*
D03*
X790000Y555000D02*
D03*
X780000D02*
D03*
X790000Y575000D02*
D03*
X780000D02*
D03*
X790000Y565000D02*
D03*
X780000D02*
D03*
X800000Y555000D02*
D03*
Y565000D02*
D03*
Y575000D02*
D03*
X820000Y555000D02*
D03*
X810000D02*
D03*
X820000Y575000D02*
D03*
X810000D02*
D03*
X820000Y565000D02*
D03*
X810000D02*
D03*
X810000Y535000D02*
D03*
Y525000D02*
D03*
X820000Y535000D02*
D03*
Y525000D02*
D03*
X790000Y535000D02*
D03*
Y525000D02*
D03*
X800000Y535000D02*
D03*
Y525000D02*
D03*
X770000Y535000D02*
D03*
Y525000D02*
D03*
X780000Y535000D02*
D03*
Y525000D02*
D03*
X760000D02*
D03*
Y535000D02*
D03*
X750000Y525000D02*
D03*
Y535000D02*
D03*
X820000Y545000D02*
D03*
X810000D02*
D03*
X800000D02*
D03*
X790000D02*
D03*
X780000D02*
D03*
X770000D02*
D03*
X760000D02*
D03*
X750000D02*
D03*
X532250Y388000D02*
D03*
X410000Y497500D02*
D03*
X837210Y638195D02*
D03*
X721374Y369725D02*
D03*
X715000Y371000D02*
D03*
X766000Y390000D02*
D03*
X814516Y770839D02*
D03*
X814438Y777339D02*
D03*
X324947Y499749D02*
D03*
X333047Y506874D02*
D03*
X370621Y476834D02*
D03*
X369000Y460000D02*
D03*
X758215Y699225D02*
D03*
X374279Y471460D02*
D03*
X373060Y465076D02*
D03*
X732258Y677277D02*
D03*
X866260Y33737D02*
D03*
X833740D02*
D03*
Y66263D02*
D03*
X866260D02*
D03*
X850000Y73000D02*
D03*
X827000Y50000D02*
D03*
X850000Y27000D02*
D03*
X873000Y50000D02*
D03*
X66260Y33737D02*
D03*
X33740D02*
D03*
Y66263D02*
D03*
X66260D02*
D03*
X50000Y73000D02*
D03*
X27000Y50000D02*
D03*
X50000Y27000D02*
D03*
X73000Y50000D02*
D03*
X105160Y891836D02*
D03*
X72640D02*
D03*
Y924363D02*
D03*
X105160D02*
D03*
X88900Y931100D02*
D03*
X65900Y908100D02*
D03*
X88900Y885100D02*
D03*
X111900Y908100D02*
D03*
X841760Y891836D02*
D03*
X809240D02*
D03*
Y924363D02*
D03*
X841760D02*
D03*
X825500Y931100D02*
D03*
X802500Y908100D02*
D03*
X825500Y885100D02*
D03*
X848500Y908100D02*
D03*
D112*
X450850Y656500D02*
D03*
X473850Y679500D02*
D03*
X450850Y702500D02*
D03*
X427850Y679500D02*
D03*
X434586Y663240D02*
D03*
Y695760D02*
D03*
X467113D02*
D03*
Y663240D02*
D03*
X675850Y656500D02*
D03*
X698850Y679500D02*
D03*
X675850Y702500D02*
D03*
X652850Y679500D02*
D03*
X659586Y663240D02*
D03*
Y695760D02*
D03*
X692113D02*
D03*
Y663240D02*
D03*
X675850Y236000D02*
D03*
X698850Y259000D02*
D03*
X675850Y282000D02*
D03*
X652850Y259000D02*
D03*
X659586Y242740D02*
D03*
Y275260D02*
D03*
X692113D02*
D03*
Y242740D02*
D03*
X450850Y236000D02*
D03*
X473850Y259000D02*
D03*
X450850Y282000D02*
D03*
X427850Y259000D02*
D03*
X434586Y242740D02*
D03*
Y275260D02*
D03*
X467113D02*
D03*
Y242740D02*
D03*
X225850Y236000D02*
D03*
X248850Y259000D02*
D03*
X225850Y282000D02*
D03*
X202850Y259000D02*
D03*
X209587Y242740D02*
D03*
Y275260D02*
D03*
X242113D02*
D03*
Y242740D02*
D03*
X225850Y656500D02*
D03*
X248850Y679500D02*
D03*
X225850Y702500D02*
D03*
X202850Y679500D02*
D03*
X209587Y663240D02*
D03*
Y695760D02*
D03*
X242113D02*
D03*
Y663240D02*
D03*
M02*
