G04*
G04 #@! TF.GenerationSoftware,Altium Limited,Altium Designer,26.2.0 (7)*
G04*
G04 Layer_Color=32896*
%FSLAX44Y44*%
%MOMM*%
G71*
G04*
G04 #@! TF.SameCoordinates,2986681F-040A-4F0E-8C1E-8186D9A52596*
G04*
G04*
G04 #@! TF.FilePolarity,Positive*
G04*
G01*
G75*
%ADD11C,0.3000*%
%ADD12C,0.1500*%
G36*
X454920Y912449D02*
X453089D01*
X448193Y925250D01*
X449982D01*
X451369Y921381D01*
X456750D01*
X458234Y925250D01*
X460162D01*
X454920Y912449D01*
D02*
G37*
G36*
X409223D02*
X407393D01*
X402497Y925250D01*
X404286D01*
X405673Y921381D01*
X411054D01*
X412538Y925250D01*
X414465D01*
X409223Y912449D01*
D02*
G37*
G36*
X504333Y921769D02*
X504083Y921408D01*
X503833Y921076D01*
X503597Y920784D01*
X503390Y920535D01*
X503209Y920341D01*
X503126Y920257D01*
X503057Y920188D01*
X503001Y920133D01*
X502960Y920091D01*
X502946Y920077D01*
X502932Y920063D01*
X502793Y919952D01*
X502627Y919827D01*
X502460Y919730D01*
X502294Y919633D01*
X502141Y919550D01*
X502016Y919481D01*
X501933Y919439D01*
X501920Y919425D01*
X501906D01*
X502238Y919370D01*
X502557Y919300D01*
X502849Y919217D01*
X503112Y919134D01*
X503362Y919037D01*
X503584Y918940D01*
X503778Y918843D01*
X503958Y918746D01*
X504124Y918649D01*
X504263Y918552D01*
X504374Y918468D01*
X504471Y918399D01*
X504541Y918330D01*
X504596Y918288D01*
X504624Y918260D01*
X504638Y918246D01*
X504790Y918066D01*
X504929Y917886D01*
X505054Y917692D01*
X505151Y917498D01*
X505234Y917303D01*
X505303Y917109D01*
X505414Y916749D01*
X505456Y916582D01*
X505484Y916430D01*
X505498Y916291D01*
X505511Y916166D01*
X505525Y916083D01*
Y916000D01*
Y915958D01*
Y915944D01*
X505498Y915556D01*
X505442Y915195D01*
X505359Y914876D01*
X505262Y914585D01*
X505206Y914460D01*
X505151Y914349D01*
X505109Y914252D01*
X505068Y914169D01*
X505040Y914100D01*
X505012Y914058D01*
X504984Y914031D01*
Y914017D01*
X504776Y913711D01*
X504541Y913462D01*
X504305Y913240D01*
X504069Y913074D01*
X503875Y912949D01*
X503708Y912866D01*
X503639Y912838D01*
X503597Y912810D01*
X503570Y912796D01*
X503556D01*
X503376Y912741D01*
X503195Y912685D01*
X502779Y912602D01*
X502349Y912533D01*
X501933Y912491D01*
X501725Y912477D01*
X501545Y912463D01*
X501393D01*
X501240Y912449D01*
X495290D01*
Y925250D01*
X496982D01*
Y919564D01*
X499160D01*
X499354Y919578D01*
X499520Y919592D01*
X499659D01*
X499756Y919606D01*
X499825Y919619D01*
X499867Y919633D01*
X499881D01*
X500033Y919675D01*
X500172Y919730D01*
X500297Y919786D01*
X500422Y919841D01*
X500519Y919897D01*
X500588Y919938D01*
X500644Y919966D01*
X500657Y919980D01*
X500796Y920077D01*
X500949Y920216D01*
X501101Y920354D01*
X501226Y920493D01*
X501351Y920618D01*
X501434Y920729D01*
X501489Y920798D01*
X501517Y920812D01*
Y920826D01*
X501711Y921076D01*
X501920Y921353D01*
X502114Y921644D01*
X502308Y921935D01*
X502474Y922185D01*
X502557Y922296D01*
X502613Y922393D01*
X502668Y922476D01*
X502710Y922532D01*
X502724Y922573D01*
X502738Y922587D01*
X504430Y925250D01*
X506552D01*
X504333Y921769D01*
D02*
G37*
G36*
X400042D02*
X399793Y921408D01*
X399543Y921076D01*
X399307Y920784D01*
X399099Y920535D01*
X398919Y920341D01*
X398836Y920257D01*
X398766Y920188D01*
X398711Y920133D01*
X398669Y920091D01*
X398655Y920077D01*
X398642Y920063D01*
X398503Y919952D01*
X398336Y919827D01*
X398170Y919730D01*
X398004Y919633D01*
X397851Y919550D01*
X397726Y919481D01*
X397643Y919439D01*
X397629Y919425D01*
X397615D01*
X397948Y919370D01*
X398267Y919300D01*
X398558Y919217D01*
X398822Y919134D01*
X399071Y919037D01*
X399293Y918940D01*
X399487Y918843D01*
X399668Y918746D01*
X399834Y918649D01*
X399973Y918552D01*
X400084Y918468D01*
X400181Y918399D01*
X400250Y918330D01*
X400306Y918288D01*
X400333Y918260D01*
X400347Y918246D01*
X400500Y918066D01*
X400639Y917886D01*
X400763Y917692D01*
X400860Y917498D01*
X400944Y917303D01*
X401013Y917109D01*
X401124Y916749D01*
X401166Y916582D01*
X401193Y916430D01*
X401207Y916291D01*
X401221Y916166D01*
X401235Y916083D01*
Y916000D01*
Y915958D01*
Y915944D01*
X401207Y915556D01*
X401152Y915195D01*
X401068Y914876D01*
X400971Y914585D01*
X400916Y914460D01*
X400860Y914349D01*
X400819Y914252D01*
X400777Y914169D01*
X400750Y914100D01*
X400722Y914058D01*
X400694Y914031D01*
Y914017D01*
X400486Y913711D01*
X400250Y913462D01*
X400014Y913240D01*
X399779Y913074D01*
X399585Y912949D01*
X399418Y912866D01*
X399349Y912838D01*
X399307Y912810D01*
X399279Y912796D01*
X399266D01*
X399085Y912741D01*
X398905Y912685D01*
X398489Y912602D01*
X398059Y912533D01*
X397643Y912491D01*
X397435Y912477D01*
X397255Y912463D01*
X397102D01*
X396950Y912449D01*
X391000D01*
Y925250D01*
X392692D01*
Y919564D01*
X394869D01*
X395063Y919578D01*
X395230Y919592D01*
X395369D01*
X395466Y919606D01*
X395535Y919619D01*
X395577Y919633D01*
X395590D01*
X395743Y919675D01*
X395882Y919730D01*
X396007Y919786D01*
X396131Y919841D01*
X396228Y919897D01*
X396298Y919938D01*
X396353Y919966D01*
X396367Y919980D01*
X396506Y920077D01*
X396658Y920216D01*
X396811Y920354D01*
X396936Y920493D01*
X397061Y920618D01*
X397144Y920729D01*
X397199Y920798D01*
X397227Y920812D01*
Y920826D01*
X397421Y921076D01*
X397629Y921353D01*
X397823Y921644D01*
X398017Y921935D01*
X398184Y922185D01*
X398267Y922296D01*
X398322Y922393D01*
X398378Y922476D01*
X398420Y922532D01*
X398433Y922573D01*
X398447Y922587D01*
X400139Y925250D01*
X402261D01*
X400042Y921769D01*
D02*
G37*
G36*
X431121Y912449D02*
X429416D01*
X427405Y920687D01*
X427266Y921256D01*
X427141Y921783D01*
X427086Y922019D01*
X427030Y922254D01*
X426988Y922462D01*
X426947Y922657D01*
X426905Y922837D01*
X426864Y922989D01*
X426836Y923128D01*
X426808Y923253D01*
X426794Y923336D01*
X426781Y923406D01*
X426767Y923447D01*
Y923461D01*
X426628Y922657D01*
X426475Y921866D01*
X426392Y921478D01*
X426309Y921103D01*
X426226Y920743D01*
X426143Y920410D01*
X426059Y920091D01*
X425990Y919814D01*
X425921Y919564D01*
X425865Y919356D01*
X425824Y919176D01*
X425782Y919051D01*
X425768Y918968D01*
X425754Y918940D01*
X423937Y912449D01*
X421899D01*
X419458Y921103D01*
X419430Y921187D01*
X419403Y921298D01*
X419375Y921436D01*
X419333Y921603D01*
X419278Y921797D01*
X419236Y921991D01*
X419125Y922407D01*
X419084Y922601D01*
X419028Y922795D01*
X418986Y922976D01*
X418959Y923142D01*
X418917Y923267D01*
X418903Y923378D01*
X418876Y923433D01*
Y923461D01*
X418792Y922976D01*
X418695Y922504D01*
X418612Y922074D01*
X418570Y921866D01*
X418529Y921672D01*
X418487Y921492D01*
X418446Y921339D01*
X418418Y921200D01*
X418390Y921076D01*
X418362Y920978D01*
X418349Y920909D01*
X418335Y920868D01*
Y920854D01*
X416407Y912449D01*
X414660D01*
X418030Y925250D01*
X419791D01*
X422481Y915500D01*
X422551Y915265D01*
X422620Y915015D01*
X422689Y914752D01*
X422745Y914516D01*
X422800Y914322D01*
X422814Y914225D01*
X422828Y914155D01*
X422856Y914086D01*
Y914044D01*
X422870Y914017D01*
Y914003D01*
X422883Y914058D01*
X422911Y914141D01*
X422939Y914239D01*
X422967Y914349D01*
X423036Y914599D01*
X423105Y914849D01*
X423175Y915098D01*
X423202Y915209D01*
X423230Y915306D01*
X423258Y915390D01*
X423272Y915445D01*
X423286Y915487D01*
Y915500D01*
X425962Y925250D01*
X427613D01*
X431121Y912449D01*
D02*
G37*
G36*
X513472Y919841D02*
X518575Y912449D01*
X516606D01*
X514124Y916222D01*
X513832Y916679D01*
X513555Y917109D01*
X513319Y917484D01*
X513208Y917664D01*
X513111Y917816D01*
X513028Y917955D01*
X512945Y918094D01*
X512889Y918205D01*
X512834Y918288D01*
X512778Y918371D01*
X512751Y918427D01*
X512737Y918455D01*
X512723Y918468D01*
X512501Y918066D01*
X512265Y917678D01*
X512043Y917317D01*
X511849Y916998D01*
X511752Y916846D01*
X511669Y916721D01*
X511600Y916596D01*
X511544Y916499D01*
X511489Y916430D01*
X511447Y916360D01*
X511433Y916333D01*
X511419Y916319D01*
X508895Y912449D01*
X506843D01*
X511780Y919841D01*
Y925250D01*
X513472D01*
Y919841D01*
D02*
G37*
G36*
X492933Y923738D02*
X485069D01*
Y919384D01*
X492156D01*
Y917872D01*
X485069D01*
Y913961D01*
X492641D01*
Y912449D01*
X483377D01*
Y925250D01*
X492933D01*
Y923738D01*
D02*
G37*
G36*
X477372Y913961D02*
X481588D01*
Y912449D01*
X471465D01*
Y913961D01*
X475681D01*
Y925250D01*
X477372D01*
Y913961D01*
D02*
G37*
G36*
X466458D02*
X470674D01*
Y912449D01*
X460550D01*
Y913961D01*
X464766D01*
Y925250D01*
X466458D01*
Y913961D01*
D02*
G37*
G36*
X442896Y925236D02*
X443298Y925222D01*
X443644Y925181D01*
X443811Y925167D01*
X443950Y925139D01*
X444074Y925125D01*
X444185Y925111D01*
X444282Y925084D01*
X444366Y925070D01*
X444435Y925056D01*
X444477D01*
X444504Y925042D01*
X444518D01*
X444823Y924959D01*
X445101Y924862D01*
X445336Y924751D01*
X445531Y924654D01*
X445697Y924557D01*
X445822Y924487D01*
X445891Y924432D01*
X445919Y924418D01*
X446127Y924238D01*
X446307Y924043D01*
X446474Y923849D01*
X446598Y923655D01*
X446709Y923489D01*
X446793Y923350D01*
X446820Y923295D01*
X446848Y923253D01*
X446862Y923239D01*
Y923225D01*
X446987Y922934D01*
X447084Y922629D01*
X447153Y922352D01*
X447209Y922088D01*
X447236Y921866D01*
Y921783D01*
X447250Y921700D01*
Y921630D01*
Y921589D01*
Y921561D01*
Y921547D01*
Y921339D01*
X447223Y921145D01*
X447153Y920770D01*
X447042Y920438D01*
X446931Y920160D01*
X446876Y920035D01*
X446820Y919924D01*
X446765Y919827D01*
X446709Y919744D01*
X446668Y919689D01*
X446640Y919647D01*
X446626Y919619D01*
X446612Y919606D01*
X446363Y919314D01*
X446071Y919079D01*
X445780Y918870D01*
X445489Y918718D01*
X445239Y918593D01*
X445128Y918552D01*
X445031Y918510D01*
X444948Y918482D01*
X444893Y918455D01*
X444851Y918441D01*
X444837D01*
X445156Y918260D01*
X445420Y918066D01*
X445655Y917872D01*
X445836Y917692D01*
X445988Y917525D01*
X446085Y917401D01*
X446127Y917345D01*
X446155Y917303D01*
X446169Y917290D01*
Y917276D01*
X446321Y916998D01*
X446432Y916735D01*
X446515Y916471D01*
X446571Y916236D01*
X446598Y916028D01*
X446626Y915875D01*
Y915819D01*
Y915778D01*
Y915750D01*
Y915736D01*
X446598Y915403D01*
X446543Y915098D01*
X446460Y914807D01*
X446376Y914557D01*
X446279Y914349D01*
X446238Y914252D01*
X446196Y914183D01*
X446155Y914128D01*
X446141Y914086D01*
X446113Y914058D01*
Y914044D01*
X445905Y913767D01*
X445683Y913517D01*
X445461Y913309D01*
X445239Y913143D01*
X445031Y913018D01*
X444879Y912921D01*
X444809Y912893D01*
X444768Y912866D01*
X444740Y912852D01*
X444726D01*
X444366Y912713D01*
X443991Y912616D01*
X443589Y912546D01*
X443228Y912505D01*
X443048Y912477D01*
X442896Y912463D01*
X442743D01*
X442618Y912449D01*
X437584D01*
Y925250D01*
X442452D01*
X442896Y925236D01*
D02*
G37*
G36*
X865542Y505333D02*
X859856D01*
Y503156D01*
X859870Y502961D01*
X859884Y502795D01*
Y502656D01*
X859898Y502559D01*
X859911Y502490D01*
X859925Y502448D01*
Y502434D01*
X859967Y502282D01*
X860022Y502143D01*
X860078Y502018D01*
X860133Y501894D01*
X860189Y501796D01*
X860230Y501727D01*
X860258Y501672D01*
X860272Y501658D01*
X860369Y501519D01*
X860508Y501367D01*
X860646Y501214D01*
X860785Y501089D01*
X860910Y500964D01*
X861021Y500881D01*
X861090Y500826D01*
X861104Y500798D01*
X861118D01*
X861367Y500604D01*
X861645Y500396D01*
X861936Y500202D01*
X862227Y500007D01*
X862477Y499841D01*
X862588Y499758D01*
X862685Y499702D01*
X862768Y499647D01*
X862824Y499605D01*
X862865Y499591D01*
X862879Y499577D01*
X865542Y497886D01*
Y495764D01*
X862061Y497983D01*
X861700Y498232D01*
X861367Y498482D01*
X861076Y498718D01*
X860827Y498926D01*
X860632Y499106D01*
X860549Y499189D01*
X860480Y499258D01*
X860424Y499314D01*
X860383Y499356D01*
X860369Y499370D01*
X860355Y499383D01*
X860244Y499522D01*
X860119Y499688D01*
X860022Y499855D01*
X859925Y500021D01*
X859842Y500174D01*
X859773Y500299D01*
X859731Y500382D01*
X859717Y500396D01*
Y500410D01*
X859662Y500077D01*
X859592Y499758D01*
X859509Y499467D01*
X859426Y499203D01*
X859329Y498953D01*
X859232Y498731D01*
X859135Y498537D01*
X859038Y498357D01*
X858941Y498191D01*
X858844Y498052D01*
X858760Y497941D01*
X858691Y497844D01*
X858622Y497775D01*
X858580Y497719D01*
X858552Y497691D01*
X858538Y497677D01*
X858358Y497525D01*
X858178Y497386D01*
X857984Y497262D01*
X857790Y497164D01*
X857595Y497081D01*
X857401Y497012D01*
X857041Y496901D01*
X856874Y496859D01*
X856722Y496832D01*
X856583Y496818D01*
X856458Y496804D01*
X856375Y496790D01*
X856292D01*
X856250D01*
X856236D01*
X855848Y496818D01*
X855487Y496873D01*
X855168Y496956D01*
X854877Y497053D01*
X854752Y497109D01*
X854641Y497164D01*
X854544Y497206D01*
X854461Y497248D01*
X854392Y497275D01*
X854350Y497303D01*
X854322Y497331D01*
X854308D01*
X854003Y497539D01*
X853754Y497775D01*
X853532Y498010D01*
X853365Y498246D01*
X853241Y498440D01*
X853158Y498607D01*
X853130Y498676D01*
X853102Y498718D01*
X853088Y498745D01*
Y498759D01*
X853033Y498940D01*
X852977Y499120D01*
X852894Y499536D01*
X852825Y499966D01*
X852783Y500382D01*
X852769Y500590D01*
X852755Y500770D01*
Y500923D01*
X852741Y501075D01*
Y507025D01*
X865542D01*
Y505333D01*
D02*
G37*
G36*
Y489343D02*
X865528Y488899D01*
X865514Y488497D01*
X865473Y488150D01*
X865459Y487984D01*
X865431Y487845D01*
X865417Y487720D01*
X865403Y487609D01*
X865376Y487512D01*
X865362Y487429D01*
X865348Y487360D01*
Y487318D01*
X865334Y487290D01*
Y487276D01*
X865251Y486971D01*
X865154Y486694D01*
X865043Y486458D01*
X864946Y486264D01*
X864848Y486097D01*
X864779Y485973D01*
X864724Y485903D01*
X864710Y485876D01*
X864529Y485667D01*
X864335Y485487D01*
X864141Y485321D01*
X863947Y485196D01*
X863781Y485085D01*
X863642Y485002D01*
X863587Y484974D01*
X863545Y484946D01*
X863531Y484933D01*
X863517D01*
X863226Y484808D01*
X862921Y484711D01*
X862643Y484641D01*
X862380Y484586D01*
X862158Y484558D01*
X862075D01*
X861992Y484544D01*
X861922D01*
X861881D01*
X861853D01*
X861839D01*
X861631D01*
X861437Y484572D01*
X861062Y484641D01*
X860730Y484752D01*
X860452Y484863D01*
X860327Y484919D01*
X860217Y484974D01*
X860119Y485030D01*
X860036Y485085D01*
X859981Y485127D01*
X859939Y485154D01*
X859911Y485168D01*
X859898Y485182D01*
X859606Y485432D01*
X859370Y485723D01*
X859163Y486014D01*
X859010Y486306D01*
X858885Y486555D01*
X858844Y486666D01*
X858802Y486763D01*
X858774Y486846D01*
X858746Y486902D01*
X858733Y486943D01*
Y486957D01*
X858552Y486638D01*
X858358Y486375D01*
X858164Y486139D01*
X857984Y485959D01*
X857817Y485806D01*
X857692Y485709D01*
X857637Y485667D01*
X857595Y485640D01*
X857581Y485626D01*
X857568D01*
X857290Y485473D01*
X857027Y485362D01*
X856763Y485279D01*
X856527Y485224D01*
X856319Y485196D01*
X856167Y485168D01*
X856111D01*
X856070D01*
X856042D01*
X856028D01*
X855695Y485196D01*
X855390Y485252D01*
X855099Y485335D01*
X854849Y485418D01*
X854641Y485515D01*
X854544Y485557D01*
X854475Y485598D01*
X854419Y485640D01*
X854378Y485654D01*
X854350Y485681D01*
X854336D01*
X854059Y485889D01*
X853809Y486111D01*
X853601Y486333D01*
X853435Y486555D01*
X853310Y486763D01*
X853213Y486916D01*
X853185Y486985D01*
X853158Y487027D01*
X853144Y487054D01*
Y487068D01*
X853005Y487429D01*
X852908Y487803D01*
X852839Y488205D01*
X852797Y488566D01*
X852769Y488746D01*
X852755Y488899D01*
Y489051D01*
X852741Y489176D01*
Y494210D01*
X865542D01*
Y489343D01*
D02*
G37*
G36*
Y480425D02*
X859731D01*
Y474420D01*
X858219D01*
Y480425D01*
X854253D01*
Y473491D01*
X852741D01*
Y482117D01*
X865542D01*
Y480425D01*
D02*
G37*
G36*
X859967Y468193D02*
X863475D01*
Y466709D01*
X859967D01*
Y463228D01*
X858497D01*
Y466709D01*
X855016D01*
Y468193D01*
X858497D01*
Y471674D01*
X859967D01*
Y468193D01*
D02*
G37*
G36*
X861659Y461398D02*
X861895Y461370D01*
X862325Y461287D01*
X862727Y461176D01*
X862907Y461120D01*
X863059Y461051D01*
X863212Y460996D01*
X863351Y460926D01*
X863462Y460871D01*
X863559Y460815D01*
X863642Y460774D01*
X863697Y460746D01*
X863725Y460732D01*
X863739Y460718D01*
X864100Y460455D01*
X864405Y460150D01*
X864668Y459845D01*
X864876Y459553D01*
X865043Y459290D01*
X865098Y459179D01*
X865154Y459082D01*
X865195Y458999D01*
X865223Y458943D01*
X865251Y458901D01*
Y458888D01*
X865417Y458416D01*
X865542Y457931D01*
X865625Y457445D01*
X865681Y456988D01*
X865708Y456766D01*
X865722Y456572D01*
X865736Y456405D01*
Y456253D01*
X865750Y456128D01*
Y455961D01*
X865722Y455462D01*
X865667Y455005D01*
X865597Y454588D01*
X865542Y454394D01*
X865500Y454228D01*
X865459Y454061D01*
X865403Y453923D01*
X865362Y453798D01*
X865334Y453701D01*
X865292Y453618D01*
X865278Y453562D01*
X865251Y453521D01*
Y453507D01*
X865043Y453118D01*
X864821Y452785D01*
X864585Y452494D01*
X864363Y452258D01*
X864155Y452064D01*
X864003Y451940D01*
X863933Y451884D01*
X863892Y451856D01*
X863864Y451829D01*
X863850D01*
X863684Y451718D01*
X863503Y451634D01*
X863170Y451482D01*
X862851Y451371D01*
X862560Y451302D01*
X862297Y451260D01*
X862200Y451246D01*
X862103D01*
X862033Y451232D01*
X861978D01*
X861950D01*
X861936D01*
X861562Y451260D01*
X861215Y451315D01*
X860910Y451399D01*
X860646Y451496D01*
X860424Y451607D01*
X860327Y451648D01*
X860258Y451690D01*
X860203Y451718D01*
X860161Y451745D01*
X860133Y451773D01*
X860119D01*
X859981Y451884D01*
X859842Y451995D01*
X859578Y452258D01*
X859357Y452522D01*
X859176Y452799D01*
X859024Y453035D01*
X858954Y453146D01*
X858913Y453243D01*
X858871Y453312D01*
X858844Y453368D01*
X858816Y453410D01*
Y453424D01*
X858746Y453576D01*
X858677Y453770D01*
X858608Y453964D01*
X858538Y454186D01*
X858414Y454658D01*
X858289Y455129D01*
X858219Y455351D01*
X858178Y455559D01*
X858122Y455753D01*
X858095Y455920D01*
X858053Y456059D01*
X858025Y456156D01*
X858011Y456225D01*
Y456253D01*
X857928Y456627D01*
X857831Y456960D01*
X857748Y457251D01*
X857665Y457528D01*
X857581Y457764D01*
X857512Y457972D01*
X857443Y458153D01*
X857373Y458305D01*
X857304Y458430D01*
X857249Y458541D01*
X857207Y458624D01*
X857165Y458694D01*
X857124Y458749D01*
X857096Y458777D01*
X857082Y458804D01*
X856902Y458971D01*
X856722Y459082D01*
X856527Y459165D01*
X856347Y459234D01*
X856195Y459262D01*
X856070Y459276D01*
X855987Y459290D01*
X855973D01*
X855959D01*
X855806Y459276D01*
X855668Y459262D01*
X855418Y459179D01*
X855182Y459068D01*
X854988Y458943D01*
X854822Y458818D01*
X854697Y458707D01*
X854628Y458624D01*
X854600Y458610D01*
Y458596D01*
X854503Y458458D01*
X854406Y458291D01*
X854267Y457945D01*
X854170Y457584D01*
X854100Y457210D01*
X854073Y457043D01*
X854059Y456877D01*
X854045Y456738D01*
Y456613D01*
X854031Y456502D01*
Y456100D01*
X854059Y455850D01*
X854087Y455615D01*
X854128Y455393D01*
X854170Y455199D01*
X854225Y455018D01*
X854281Y454852D01*
X854336Y454699D01*
X854406Y454575D01*
X854461Y454464D01*
X854517Y454366D01*
X854558Y454283D01*
X854600Y454228D01*
X854628Y454172D01*
X854641Y454159D01*
X854655Y454145D01*
X854780Y454006D01*
X854905Y453881D01*
X855196Y453687D01*
X855501Y453521D01*
X855792Y453410D01*
X856056Y453326D01*
X856167Y453299D01*
X856278Y453271D01*
X856361Y453257D01*
X856416D01*
X856458Y453243D01*
X856472D01*
X856347Y451621D01*
X855931Y451662D01*
X855557Y451745D01*
X855210Y451842D01*
X854919Y451953D01*
X854794Y452023D01*
X854669Y452064D01*
X854572Y452120D01*
X854489Y452161D01*
X854419Y452203D01*
X854378Y452231D01*
X854350Y452245D01*
X854336Y452258D01*
X854017Y452494D01*
X853754Y452758D01*
X853518Y453035D01*
X853324Y453312D01*
X853185Y453548D01*
X853130Y453659D01*
X853074Y453742D01*
X853033Y453812D01*
X853019Y453881D01*
X852991Y453909D01*
Y453923D01*
X852839Y454339D01*
X852714Y454769D01*
X852630Y455199D01*
X852575Y455587D01*
X852561Y455767D01*
X852547Y455920D01*
X852533Y456072D01*
X852520Y456197D01*
Y456433D01*
X852533Y456904D01*
X852589Y457348D01*
X852658Y457737D01*
X852700Y457917D01*
X852741Y458083D01*
X852783Y458236D01*
X852825Y458374D01*
X852866Y458499D01*
X852894Y458596D01*
X852922Y458666D01*
X852949Y458735D01*
X852963Y458763D01*
Y458777D01*
X853144Y459151D01*
X853352Y459470D01*
X853560Y459748D01*
X853768Y459969D01*
X853962Y460150D01*
X854114Y460288D01*
X854170Y460330D01*
X854211Y460358D01*
X854239Y460385D01*
X854253D01*
X854572Y460566D01*
X854891Y460704D01*
X855182Y460788D01*
X855460Y460857D01*
X855709Y460899D01*
X855806Y460912D01*
X855890D01*
X855959Y460926D01*
X856014D01*
X856042D01*
X856056D01*
X856375Y460912D01*
X856680Y460857D01*
X856957Y460788D01*
X857193Y460704D01*
X857387Y460621D01*
X857540Y460552D01*
X857595Y460524D01*
X857637Y460496D01*
X857651Y460482D01*
X857665D01*
X857914Y460302D01*
X858150Y460080D01*
X858344Y459858D01*
X858524Y459623D01*
X858663Y459428D01*
X858760Y459262D01*
X858788Y459193D01*
X858816Y459151D01*
X858844Y459123D01*
Y459109D01*
X858913Y458971D01*
X858982Y458804D01*
X859052Y458624D01*
X859121Y458430D01*
X859259Y458028D01*
X859384Y457612D01*
X859440Y457418D01*
X859495Y457251D01*
X859537Y457085D01*
X859578Y456932D01*
X859606Y456821D01*
X859634Y456724D01*
X859648Y456669D01*
Y456655D01*
X859717Y456336D01*
X859800Y456045D01*
X859856Y455795D01*
X859925Y455559D01*
X859981Y455351D01*
X860022Y455157D01*
X860078Y455005D01*
X860119Y454852D01*
X860147Y454741D01*
X860189Y454630D01*
X860217Y454547D01*
X860230Y454491D01*
X860244Y454436D01*
X860258Y454408D01*
X860272Y454380D01*
X860397Y454103D01*
X860522Y453867D01*
X860646Y453659D01*
X860757Y453507D01*
X860868Y453382D01*
X860952Y453299D01*
X861007Y453243D01*
X861021Y453229D01*
X861187Y453105D01*
X861367Y453021D01*
X861548Y452952D01*
X861714Y452910D01*
X861853Y452883D01*
X861978Y452869D01*
X862047D01*
X862061D01*
X862075D01*
X862283Y452883D01*
X862491Y452924D01*
X862671Y452994D01*
X862838Y453049D01*
X862976Y453118D01*
X863087Y453188D01*
X863143Y453229D01*
X863170Y453243D01*
X863351Y453396D01*
X863503Y453562D01*
X863642Y453756D01*
X863753Y453937D01*
X863836Y454103D01*
X863905Y454228D01*
X863933Y454283D01*
X863947Y454325D01*
X863961Y454339D01*
Y454353D01*
X864058Y454630D01*
X864127Y454921D01*
X864169Y455213D01*
X864197Y455476D01*
X864224Y455698D01*
Y455795D01*
X864238Y455878D01*
Y456045D01*
X864224Y456447D01*
X864183Y456807D01*
X864113Y457154D01*
X864044Y457445D01*
X864016Y457570D01*
X863989Y457681D01*
X863947Y457778D01*
X863919Y457861D01*
X863892Y457931D01*
X863878Y457972D01*
X863864Y458000D01*
Y458014D01*
X863711Y458319D01*
X863545Y458582D01*
X863392Y458804D01*
X863226Y458985D01*
X863087Y459123D01*
X862976Y459221D01*
X862907Y459290D01*
X862879Y459304D01*
X862630Y459442D01*
X862366Y459553D01*
X862103Y459636D01*
X861853Y459706D01*
X861617Y459761D01*
X861534Y459775D01*
X861451Y459789D01*
X861381Y459803D01*
X861326Y459817D01*
X861298D01*
X861284D01*
X861423Y461412D01*
X861659Y461398D01*
D02*
G37*
G36*
X865542Y439333D02*
X864030D01*
Y447197D01*
X859676D01*
Y440110D01*
X858164D01*
Y447197D01*
X854253D01*
Y439624D01*
X852741D01*
Y448889D01*
X865542D01*
Y439333D01*
D02*
G37*
G36*
Y435311D02*
X860341D01*
Y432038D01*
X860327Y431539D01*
X860286Y431095D01*
X860230Y430679D01*
X860161Y430291D01*
X860078Y429958D01*
X859981Y429639D01*
X859884Y429376D01*
X859773Y429126D01*
X859676Y428918D01*
X859578Y428738D01*
X859481Y428585D01*
X859398Y428474D01*
X859315Y428377D01*
X859259Y428322D01*
X859232Y428280D01*
X859218Y428266D01*
X858996Y428086D01*
X858774Y427920D01*
X858538Y427781D01*
X858303Y427670D01*
X858067Y427559D01*
X857845Y427476D01*
X857623Y427406D01*
X857415Y427351D01*
X857207Y427309D01*
X857027Y427281D01*
X856874Y427254D01*
X856736Y427240D01*
X856611Y427226D01*
X856527D01*
X856472D01*
X856458D01*
X856111Y427240D01*
X855779Y427281D01*
X855487Y427351D01*
X855224Y427420D01*
X855016Y427503D01*
X854919Y427531D01*
X854849Y427559D01*
X854794Y427587D01*
X854752Y427614D01*
X854725Y427628D01*
X854711D01*
X854419Y427781D01*
X854184Y427947D01*
X853962Y428128D01*
X853795Y428280D01*
X853657Y428433D01*
X853560Y428544D01*
X853490Y428627D01*
X853476Y428641D01*
Y428655D01*
X853324Y428904D01*
X853199Y429168D01*
X853088Y429431D01*
X853005Y429681D01*
X852936Y429903D01*
X852922Y430000D01*
X852894Y430083D01*
X852880Y430138D01*
Y430194D01*
X852866Y430222D01*
Y430235D01*
X852839Y430360D01*
X852825Y430513D01*
X852797Y430818D01*
X852769Y431137D01*
X852755Y431456D01*
X852741Y431733D01*
Y437003D01*
X865542D01*
Y435311D01*
D02*
G37*
G36*
X484197Y35208D02*
X482560D01*
Y46109D01*
X478871Y35208D01*
X477346D01*
X473601Y45928D01*
Y35208D01*
X471965D01*
Y48009D01*
X474253D01*
X477332Y39105D01*
X477415Y38855D01*
X477498Y38633D01*
X477567Y38412D01*
X477637Y38217D01*
X477692Y38023D01*
X477748Y37857D01*
X477803Y37704D01*
X477845Y37566D01*
X477886Y37455D01*
X477914Y37344D01*
X477942Y37261D01*
X477970Y37177D01*
X477984Y37122D01*
X477997Y37080D01*
X478011Y37066D01*
Y37053D01*
X478053Y37177D01*
X478094Y37316D01*
X478192Y37607D01*
X478289Y37926D01*
X478386Y38231D01*
X478483Y38509D01*
X478524Y38633D01*
X478552Y38731D01*
X478580Y38814D01*
X478608Y38883D01*
X478621Y38925D01*
Y38939D01*
X481659Y48009D01*
X484197D01*
Y35208D01*
D02*
G37*
G36*
X497025Y40617D02*
Y40242D01*
X496997Y39896D01*
X496983Y39563D01*
X496942Y39258D01*
X496914Y38966D01*
X496872Y38703D01*
X496831Y38467D01*
X496775Y38245D01*
X496734Y38051D01*
X496692Y37885D01*
X496650Y37732D01*
X496609Y37621D01*
X496581Y37524D01*
X496553Y37455D01*
X496539Y37413D01*
Y37399D01*
X496442Y37191D01*
X496331Y36983D01*
X496082Y36623D01*
X495818Y36318D01*
X495541Y36068D01*
X495416Y35957D01*
X495305Y35874D01*
X495194Y35791D01*
X495097Y35721D01*
X495028Y35680D01*
X494972Y35638D01*
X494931Y35624D01*
X494917Y35610D01*
X494695Y35499D01*
X494459Y35416D01*
X493974Y35264D01*
X493475Y35153D01*
X493003Y35083D01*
X492795Y35055D01*
X492587Y35028D01*
X492421Y35014D01*
X492268D01*
X492143Y35000D01*
X491963D01*
X491630Y35014D01*
X491311Y35028D01*
X491006Y35069D01*
X490715Y35111D01*
X490451Y35166D01*
X490202Y35222D01*
X489980Y35291D01*
X489785Y35361D01*
X489591Y35416D01*
X489439Y35485D01*
X489300Y35541D01*
X489189Y35596D01*
X489092Y35638D01*
X489037Y35680D01*
X488995Y35693D01*
X488981Y35707D01*
X488773Y35846D01*
X488579Y35985D01*
X488413Y36137D01*
X488246Y36290D01*
X488107Y36442D01*
X487969Y36609D01*
X487858Y36747D01*
X487761Y36900D01*
X487594Y37150D01*
X487539Y37261D01*
X487483Y37358D01*
X487442Y37441D01*
X487414Y37496D01*
X487400Y37538D01*
Y37552D01*
X487317Y37774D01*
X487248Y38009D01*
X487137Y38509D01*
X487067Y39022D01*
X487012Y39507D01*
X486998Y39743D01*
X486984Y39951D01*
X486970Y40131D01*
X486956Y40298D01*
Y40436D01*
Y40533D01*
Y40589D01*
Y40617D01*
Y48009D01*
X488648D01*
Y40617D01*
X488662Y40187D01*
X488676Y39785D01*
X488718Y39424D01*
X488773Y39091D01*
X488829Y38800D01*
X488898Y38536D01*
X488981Y38301D01*
X489050Y38093D01*
X489120Y37912D01*
X489203Y37760D01*
X489272Y37635D01*
X489328Y37538D01*
X489383Y37469D01*
X489411Y37413D01*
X489439Y37385D01*
X489453Y37371D01*
X489619Y37219D01*
X489799Y37094D01*
X489994Y36983D01*
X490202Y36886D01*
X490424Y36803D01*
X490645Y36734D01*
X491075Y36637D01*
X491283Y36595D01*
X491478Y36567D01*
X491658Y36553D01*
X491810Y36539D01*
X491935Y36525D01*
X492115D01*
X492504Y36539D01*
X492864Y36595D01*
X493183Y36664D01*
X493461Y36734D01*
X493572Y36775D01*
X493669Y36817D01*
X493766Y36844D01*
X493835Y36872D01*
X493891Y36900D01*
X493932Y36928D01*
X493960Y36942D01*
X493974D01*
X494237Y37122D01*
X494459Y37316D01*
X494640Y37510D01*
X494778Y37718D01*
X494889Y37885D01*
X494972Y38037D01*
X495000Y38093D01*
X495014Y38134D01*
X495028Y38148D01*
Y38162D01*
X495083Y38315D01*
X495125Y38495D01*
X495208Y38883D01*
X495264Y39285D01*
X495291Y39688D01*
X495305Y39868D01*
X495319Y40048D01*
Y40201D01*
X495333Y40339D01*
Y40464D01*
Y40547D01*
Y40603D01*
Y40617D01*
Y48009D01*
X497025D01*
Y40617D01*
D02*
G37*
G36*
X432218Y48217D02*
X432523Y48203D01*
X433092Y48106D01*
X433369Y48050D01*
X433619Y47981D01*
X433868Y47912D01*
X434090Y47842D01*
X434284Y47773D01*
X434464Y47703D01*
X434631Y47634D01*
X434756Y47579D01*
X434867Y47523D01*
X434936Y47482D01*
X434991Y47468D01*
X435005Y47454D01*
X435255Y47301D01*
X435505Y47135D01*
X435727Y46955D01*
X435934Y46774D01*
X436129Y46580D01*
X436309Y46400D01*
X436461Y46206D01*
X436614Y46039D01*
X436739Y45859D01*
X436850Y45706D01*
X436947Y45568D01*
X437030Y45443D01*
X437086Y45332D01*
X437127Y45263D01*
X437155Y45207D01*
X437169Y45193D01*
X437308Y44916D01*
X437419Y44611D01*
X437515Y44320D01*
X437613Y44028D01*
X437751Y43432D01*
X437793Y43155D01*
X437835Y42891D01*
X437862Y42642D01*
X437890Y42420D01*
X437904Y42212D01*
X437918Y42031D01*
X437932Y41893D01*
Y41782D01*
Y41726D01*
Y41698D01*
X437918Y41366D01*
X437904Y41033D01*
X437821Y40395D01*
X437779Y40090D01*
X437724Y39812D01*
X437654Y39549D01*
X437599Y39299D01*
X437529Y39077D01*
X437474Y38869D01*
X437419Y38703D01*
X437363Y38550D01*
X437321Y38439D01*
X437294Y38342D01*
X437280Y38287D01*
X437266Y38273D01*
X437127Y37982D01*
X436988Y37704D01*
X436836Y37455D01*
X436670Y37219D01*
X436503Y36997D01*
X436351Y36803D01*
X436184Y36623D01*
X436032Y36456D01*
X435879Y36304D01*
X435740Y36179D01*
X435616Y36082D01*
X435505Y35985D01*
X435421Y35915D01*
X435352Y35874D01*
X435311Y35846D01*
X435297Y35832D01*
X435047Y35680D01*
X434784Y35555D01*
X434506Y35444D01*
X434215Y35347D01*
X433937Y35277D01*
X433660Y35208D01*
X433383Y35153D01*
X433119Y35111D01*
X432870Y35069D01*
X432648Y35042D01*
X432440Y35028D01*
X432273Y35014D01*
X432121Y35000D01*
X431927D01*
X431552Y35014D01*
X431205Y35042D01*
X430873Y35097D01*
X430554Y35166D01*
X430248Y35250D01*
X429971Y35347D01*
X429721Y35444D01*
X429486Y35541D01*
X429264Y35638D01*
X429084Y35735D01*
X428917Y35832D01*
X428792Y35915D01*
X428681Y35985D01*
X428612Y36040D01*
X428557Y36068D01*
X428543Y36082D01*
X428293Y36304D01*
X428057Y36539D01*
X427849Y36789D01*
X427655Y37039D01*
X427475Y37302D01*
X427322Y37580D01*
X427184Y37829D01*
X427059Y38093D01*
X426948Y38328D01*
X426865Y38550D01*
X426781Y38758D01*
X426726Y38925D01*
X426670Y39077D01*
X426643Y39174D01*
X426615Y39244D01*
Y39272D01*
X428307Y39701D01*
X428376Y39410D01*
X428473Y39133D01*
X428570Y38869D01*
X428667Y38633D01*
X428778Y38412D01*
X428889Y38217D01*
X429000Y38037D01*
X429111Y37871D01*
X429222Y37732D01*
X429319Y37607D01*
X429416Y37496D01*
X429486Y37413D01*
X429555Y37344D01*
X429610Y37302D01*
X429638Y37274D01*
X429652Y37261D01*
X429846Y37122D01*
X430041Y36997D01*
X430235Y36886D01*
X430443Y36789D01*
X430651Y36706D01*
X430845Y36637D01*
X431233Y36539D01*
X431400Y36512D01*
X431566Y36484D01*
X431705Y36470D01*
X431829Y36456D01*
X431927Y36442D01*
X432065D01*
X432287Y36456D01*
X432495Y36470D01*
X432897Y36539D01*
X433272Y36637D01*
X433591Y36747D01*
X433730Y36803D01*
X433854Y36844D01*
X433965Y36900D01*
X434062Y36942D01*
X434146Y36983D01*
X434201Y37011D01*
X434229Y37039D01*
X434243D01*
X434423Y37164D01*
X434589Y37288D01*
X434894Y37580D01*
X435144Y37871D01*
X435352Y38176D01*
X435505Y38439D01*
X435574Y38550D01*
X435629Y38661D01*
X435657Y38744D01*
X435685Y38800D01*
X435713Y38842D01*
Y38855D01*
X435865Y39327D01*
X435990Y39812D01*
X436073Y40298D01*
X436101Y40520D01*
X436129Y40742D01*
X436143Y40950D01*
X436156Y41130D01*
X436170Y41296D01*
Y41435D01*
X436184Y41560D01*
Y41643D01*
Y41698D01*
Y41712D01*
X436170Y42184D01*
X436129Y42628D01*
X436059Y43044D01*
X436032Y43238D01*
X435990Y43418D01*
X435948Y43571D01*
X435921Y43723D01*
X435879Y43848D01*
X435851Y43959D01*
X435838Y44042D01*
X435810Y44111D01*
X435796Y44153D01*
Y44167D01*
X435616Y44597D01*
X435407Y44971D01*
X435186Y45290D01*
X435061Y45429D01*
X434950Y45568D01*
X434839Y45679D01*
X434742Y45776D01*
X434645Y45873D01*
X434575Y45942D01*
X434506Y45998D01*
X434451Y46039D01*
X434423Y46053D01*
X434409Y46067D01*
X434215Y46192D01*
X434021Y46303D01*
X433813Y46400D01*
X433605Y46483D01*
X433189Y46608D01*
X432786Y46705D01*
X432620Y46733D01*
X432454Y46747D01*
X432301Y46760D01*
X432176Y46774D01*
X432065Y46788D01*
X431691D01*
X431469Y46760D01*
X431053Y46691D01*
X430692Y46580D01*
X430540Y46525D01*
X430387Y46469D01*
X430248Y46414D01*
X430137Y46358D01*
X430041Y46303D01*
X429957Y46247D01*
X429888Y46206D01*
X429846Y46178D01*
X429819Y46164D01*
X429805Y46150D01*
X429652Y46025D01*
X429500Y45887D01*
X429250Y45568D01*
X429014Y45221D01*
X428834Y44888D01*
X428695Y44583D01*
X428626Y44458D01*
X428584Y44347D01*
X428543Y44250D01*
X428529Y44167D01*
X428501Y44125D01*
Y44111D01*
X426837Y44500D01*
X426948Y44819D01*
X427073Y45124D01*
X427197Y45415D01*
X427350Y45679D01*
X427489Y45928D01*
X427641Y46150D01*
X427794Y46358D01*
X427946Y46539D01*
X428099Y46705D01*
X428224Y46844D01*
X428349Y46968D01*
X428460Y47066D01*
X428543Y47149D01*
X428612Y47204D01*
X428654Y47232D01*
X428667Y47246D01*
X428917Y47426D01*
X429181Y47565D01*
X429444Y47703D01*
X429721Y47814D01*
X429999Y47912D01*
X430262Y47995D01*
X430526Y48050D01*
X430775Y48106D01*
X431011Y48147D01*
X431219Y48175D01*
X431413Y48203D01*
X431580Y48217D01*
X431718Y48231D01*
X431899D01*
X432218Y48217D01*
D02*
G37*
G36*
X469316Y35208D02*
X464448D01*
X464004Y35222D01*
X463602Y35236D01*
X463255Y35277D01*
X463089Y35291D01*
X462950Y35319D01*
X462825Y35333D01*
X462714Y35347D01*
X462617Y35375D01*
X462534Y35388D01*
X462465Y35402D01*
X462423D01*
X462395Y35416D01*
X462382D01*
X462076Y35499D01*
X461799Y35596D01*
X461563Y35707D01*
X461369Y35804D01*
X461203Y35902D01*
X461078Y35971D01*
X461009Y36026D01*
X460981Y36040D01*
X460773Y36220D01*
X460593Y36415D01*
X460426Y36609D01*
X460301Y36803D01*
X460190Y36969D01*
X460107Y37108D01*
X460079Y37164D01*
X460052Y37205D01*
X460038Y37219D01*
Y37233D01*
X459913Y37524D01*
X459816Y37829D01*
X459747Y38107D01*
X459691Y38370D01*
X459663Y38592D01*
Y38675D01*
X459650Y38758D01*
Y38828D01*
Y38869D01*
Y38897D01*
Y38911D01*
Y39119D01*
X459677Y39313D01*
X459747Y39688D01*
X459857Y40020D01*
X459968Y40298D01*
X460024Y40423D01*
X460079Y40533D01*
X460135Y40631D01*
X460190Y40714D01*
X460232Y40769D01*
X460260Y40811D01*
X460274Y40839D01*
X460287Y40852D01*
X460537Y41144D01*
X460828Y41379D01*
X461120Y41588D01*
X461411Y41740D01*
X461660Y41865D01*
X461771Y41906D01*
X461868Y41948D01*
X461952Y41976D01*
X462007Y42003D01*
X462049Y42017D01*
X462063D01*
X461744Y42198D01*
X461480Y42392D01*
X461244Y42586D01*
X461064Y42766D01*
X460911Y42933D01*
X460814Y43057D01*
X460773Y43113D01*
X460745Y43155D01*
X460731Y43169D01*
Y43182D01*
X460579Y43460D01*
X460468Y43723D01*
X460384Y43987D01*
X460329Y44222D01*
X460301Y44430D01*
X460274Y44583D01*
Y44639D01*
Y44680D01*
Y44708D01*
Y44722D01*
X460301Y45055D01*
X460357Y45360D01*
X460440Y45651D01*
X460523Y45901D01*
X460620Y46109D01*
X460662Y46206D01*
X460704Y46275D01*
X460745Y46330D01*
X460759Y46372D01*
X460787Y46400D01*
Y46414D01*
X460995Y46691D01*
X461217Y46941D01*
X461438Y47149D01*
X461660Y47315D01*
X461868Y47440D01*
X462021Y47537D01*
X462090Y47565D01*
X462132Y47593D01*
X462160Y47606D01*
X462174D01*
X462534Y47745D01*
X462909Y47842D01*
X463311Y47912D01*
X463671Y47953D01*
X463852Y47981D01*
X464004Y47995D01*
X464157D01*
X464282Y48009D01*
X469316D01*
Y35208D01*
D02*
G37*
G36*
X457028D02*
X455336D01*
Y48009D01*
X457028D01*
Y35208D01*
D02*
G37*
G36*
X452424D02*
X444422D01*
Y36720D01*
X450732D01*
Y48009D01*
X452424D01*
Y35208D01*
D02*
G37*
G36*
X442120D02*
X440428D01*
Y48009D01*
X442120D01*
Y35208D01*
D02*
G37*
G36*
X425922D02*
X424132Y35208D01*
X422746Y39077D01*
X417365D01*
X415881Y35208D01*
X413953D01*
X419195Y48008D01*
X421026D01*
X425922Y35208D01*
D02*
G37*
G36*
X412677Y35208D02*
X404675D01*
Y36720D01*
X410985D01*
Y48008D01*
X412677D01*
Y35208D01*
D02*
G37*
%LPC*%
G36*
X456223Y920008D02*
X451855D01*
X453269Y916249D01*
X453422Y915792D01*
X453560Y915348D01*
X453685Y914932D01*
X453741Y914738D01*
X453782Y914557D01*
X453824Y914391D01*
X453866Y914239D01*
X453893Y914114D01*
X453921Y913989D01*
X453935Y913906D01*
X453949Y913836D01*
X453963Y913795D01*
Y913781D01*
X454087Y914197D01*
X454240Y914641D01*
X454393Y915085D01*
X454531Y915514D01*
X454600Y915708D01*
X454670Y915889D01*
X454725Y916055D01*
X454781Y916180D01*
X454822Y916305D01*
X454850Y916388D01*
X454878Y916444D01*
Y916457D01*
X456223Y920008D01*
D02*
G37*
G36*
X410527D02*
X406158D01*
X407573Y916249D01*
X407725Y915792D01*
X407864Y915348D01*
X407989Y914932D01*
X408044Y914738D01*
X408086Y914557D01*
X408128Y914391D01*
X408169Y914239D01*
X408197Y914114D01*
X408225Y913989D01*
X408238Y913906D01*
X408252Y913836D01*
X408266Y913795D01*
Y913781D01*
X408391Y914197D01*
X408544Y914641D01*
X408696Y915085D01*
X408835Y915514D01*
X408904Y915708D01*
X408974Y915889D01*
X409029Y916055D01*
X409084Y916180D01*
X409126Y916305D01*
X409154Y916388D01*
X409182Y916444D01*
Y916457D01*
X410527Y920008D01*
D02*
G37*
G36*
X500810Y918094D02*
X496982D01*
Y913864D01*
X501295D01*
X501531Y913892D01*
X501753Y913920D01*
X501961Y913961D01*
X502141Y914003D01*
X502308Y914058D01*
X502460Y914100D01*
X502599Y914155D01*
X502724Y914211D01*
X502821Y914266D01*
X502918Y914322D01*
X502987Y914363D01*
X503043Y914405D01*
X503084Y914433D01*
X503098Y914446D01*
X503112Y914460D01*
X503223Y914571D01*
X503334Y914696D01*
X503501Y914932D01*
X503611Y915182D01*
X503695Y915417D01*
X503750Y915625D01*
X503764Y915722D01*
Y915792D01*
X503778Y915861D01*
Y915903D01*
Y915930D01*
Y915944D01*
X503764Y916166D01*
X503722Y916388D01*
X503667Y916582D01*
X503611Y916749D01*
X503542Y916901D01*
X503487Y916998D01*
X503445Y917068D01*
X503431Y917095D01*
X503292Y917276D01*
X503126Y917442D01*
X502960Y917567D01*
X502807Y917678D01*
X502654Y917761D01*
X502543Y917816D01*
X502460Y917844D01*
X502447Y917858D01*
X502433D01*
X502169Y917941D01*
X501878Y917997D01*
X501573Y918038D01*
X501282Y918066D01*
X501018Y918080D01*
X500907D01*
X500810Y918094D01*
D02*
G37*
G36*
X396520D02*
X392692D01*
Y913864D01*
X397005D01*
X397241Y913892D01*
X397463Y913920D01*
X397671Y913961D01*
X397851Y914003D01*
X398017Y914058D01*
X398170Y914100D01*
X398309Y914155D01*
X398433Y914211D01*
X398531Y914266D01*
X398628Y914322D01*
X398697Y914363D01*
X398752Y914405D01*
X398794Y914433D01*
X398808Y914446D01*
X398822Y914460D01*
X398933Y914571D01*
X399044Y914696D01*
X399210Y914932D01*
X399321Y915182D01*
X399404Y915417D01*
X399460Y915625D01*
X399474Y915722D01*
Y915792D01*
X399487Y915861D01*
Y915903D01*
Y915930D01*
Y915944D01*
X399474Y916166D01*
X399432Y916388D01*
X399376Y916582D01*
X399321Y916749D01*
X399252Y916901D01*
X399196Y916998D01*
X399155Y917068D01*
X399141Y917095D01*
X399002Y917276D01*
X398836Y917442D01*
X398669Y917567D01*
X398517Y917678D01*
X398364Y917761D01*
X398253Y917816D01*
X398170Y917844D01*
X398156Y917858D01*
X398142D01*
X397879Y917941D01*
X397588Y917997D01*
X397282Y918038D01*
X396991Y918066D01*
X396728Y918080D01*
X396617D01*
X396520Y918094D01*
D02*
G37*
G36*
X442743Y923738D02*
X439276D01*
Y919342D01*
X442230D01*
X442660Y919356D01*
X443034Y919370D01*
X443201Y919398D01*
X443353Y919411D01*
X443492Y919425D01*
X443631Y919453D01*
X443741Y919467D01*
X443839Y919495D01*
X443908Y919509D01*
X443977Y919522D01*
X444033Y919536D01*
X444074Y919550D01*
X444088Y919564D01*
X444102D01*
X444338Y919661D01*
X444532Y919772D01*
X444712Y919883D01*
X444865Y920008D01*
X444976Y920119D01*
X445059Y920216D01*
X445115Y920271D01*
X445128Y920299D01*
X445253Y920507D01*
X445350Y920715D01*
X445406Y920923D01*
X445461Y921117D01*
X445489Y921298D01*
X445503Y921422D01*
Y921478D01*
Y921519D01*
Y921533D01*
Y921547D01*
X445489Y921769D01*
X445461Y921977D01*
X445420Y922157D01*
X445378Y922310D01*
X445322Y922449D01*
X445281Y922546D01*
X445253Y922601D01*
X445239Y922629D01*
X445142Y922795D01*
X445031Y922934D01*
X444920Y923059D01*
X444823Y923156D01*
X444726Y923239D01*
X444657Y923295D01*
X444601Y923322D01*
X444588Y923336D01*
X444435Y923419D01*
X444268Y923489D01*
X444116Y923558D01*
X443963Y923600D01*
X443825Y923641D01*
X443714Y923669D01*
X443644Y923683D01*
X443617D01*
X443478Y923697D01*
X443298Y923711D01*
X443104Y923725D01*
X442923D01*
X442743Y923738D01*
D02*
G37*
G36*
X442313Y917830D02*
X439276D01*
Y913961D01*
X442077D01*
X442313Y913975D01*
X442521D01*
X442715Y913989D01*
X442896Y914003D01*
X443048Y914017D01*
X443201Y914031D01*
X443326Y914044D01*
X443423Y914072D01*
X443520Y914086D01*
X443603Y914100D01*
X443658Y914114D01*
X443714Y914128D01*
X443741D01*
X443769Y914141D01*
X443977Y914225D01*
X444144Y914322D01*
X444296Y914433D01*
X444421Y914544D01*
X444518Y914641D01*
X444588Y914724D01*
X444629Y914779D01*
X444643Y914807D01*
X444754Y914987D01*
X444823Y915182D01*
X444879Y915376D01*
X444920Y915556D01*
X444948Y915708D01*
X444962Y915819D01*
Y915903D01*
Y915917D01*
Y915930D01*
X444948Y916180D01*
X444907Y916388D01*
X444851Y916582D01*
X444795Y916749D01*
X444740Y916873D01*
X444685Y916971D01*
X444643Y917026D01*
X444629Y917054D01*
X444490Y917206D01*
X444338Y917345D01*
X444171Y917456D01*
X444019Y917539D01*
X443880Y917608D01*
X443769Y917650D01*
X443686Y917678D01*
X443672Y917692D01*
X443658D01*
X443561Y917719D01*
X443450Y917733D01*
X443201Y917775D01*
X442923Y917803D01*
X442660Y917816D01*
X442424D01*
X442313Y917830D01*
D02*
G37*
G36*
X858386Y505333D02*
X854156D01*
Y501020D01*
X854184Y500784D01*
X854211Y500562D01*
X854253Y500354D01*
X854295Y500174D01*
X854350Y500007D01*
X854392Y499855D01*
X854447Y499716D01*
X854503Y499591D01*
X854558Y499494D01*
X854614Y499397D01*
X854655Y499328D01*
X854697Y499272D01*
X854725Y499231D01*
X854738Y499217D01*
X854752Y499203D01*
X854863Y499092D01*
X854988Y498981D01*
X855224Y498815D01*
X855473Y498704D01*
X855709Y498621D01*
X855917Y498565D01*
X856014Y498551D01*
X856084D01*
X856153Y498537D01*
X856195D01*
X856222D01*
X856236D01*
X856458Y498551D01*
X856680Y498593D01*
X856874Y498648D01*
X857041Y498704D01*
X857193Y498773D01*
X857290Y498829D01*
X857360Y498870D01*
X857387Y498884D01*
X857568Y499023D01*
X857734Y499189D01*
X857859Y499356D01*
X857970Y499508D01*
X858053Y499661D01*
X858109Y499772D01*
X858136Y499855D01*
X858150Y499869D01*
Y499883D01*
X858233Y500146D01*
X858289Y500437D01*
X858330Y500742D01*
X858358Y501034D01*
X858372Y501297D01*
Y501408D01*
X858386Y501505D01*
Y505333D01*
D02*
G37*
G36*
X858122Y492519D02*
X854253D01*
Y489717D01*
X854267Y489481D01*
Y489273D01*
X854281Y489079D01*
X854295Y488899D01*
X854308Y488746D01*
X854322Y488594D01*
X854336Y488469D01*
X854364Y488372D01*
X854378Y488275D01*
X854392Y488192D01*
X854406Y488136D01*
X854419Y488081D01*
Y488053D01*
X854433Y488025D01*
X854517Y487817D01*
X854614Y487651D01*
X854725Y487498D01*
X854836Y487373D01*
X854933Y487276D01*
X855016Y487207D01*
X855071Y487165D01*
X855099Y487151D01*
X855279Y487040D01*
X855473Y486971D01*
X855668Y486916D01*
X855848Y486874D01*
X856001Y486846D01*
X856111Y486833D01*
X856195D01*
X856208D01*
X856222D01*
X856472Y486846D01*
X856680Y486888D01*
X856874Y486943D01*
X857041Y486999D01*
X857165Y487054D01*
X857262Y487110D01*
X857318Y487151D01*
X857346Y487165D01*
X857498Y487304D01*
X857637Y487457D01*
X857748Y487623D01*
X857831Y487775D01*
X857900Y487914D01*
X857942Y488025D01*
X857970Y488108D01*
X857984Y488122D01*
Y488136D01*
X858011Y488233D01*
X858025Y488344D01*
X858067Y488594D01*
X858095Y488871D01*
X858109Y489135D01*
Y489370D01*
X858122Y489481D01*
Y492519D01*
D02*
G37*
G36*
X864030D02*
X859634D01*
Y489565D01*
X859648Y489135D01*
X859662Y488760D01*
X859689Y488594D01*
X859703Y488441D01*
X859717Y488302D01*
X859745Y488164D01*
X859759Y488053D01*
X859787Y487956D01*
X859800Y487887D01*
X859814Y487817D01*
X859828Y487762D01*
X859842Y487720D01*
X859856Y487706D01*
Y487692D01*
X859953Y487457D01*
X860064Y487262D01*
X860175Y487082D01*
X860300Y486930D01*
X860411Y486819D01*
X860508Y486735D01*
X860563Y486680D01*
X860591Y486666D01*
X860799Y486541D01*
X861007Y486444D01*
X861215Y486389D01*
X861409Y486333D01*
X861589Y486306D01*
X861714Y486292D01*
X861770D01*
X861811D01*
X861825D01*
X861839D01*
X862061Y486306D01*
X862269Y486333D01*
X862449Y486375D01*
X862602Y486416D01*
X862740Y486472D01*
X862838Y486513D01*
X862893Y486541D01*
X862921Y486555D01*
X863087Y486652D01*
X863226Y486763D01*
X863351Y486874D01*
X863448Y486971D01*
X863531Y487068D01*
X863587Y487138D01*
X863614Y487193D01*
X863628Y487207D01*
X863711Y487360D01*
X863781Y487526D01*
X863850Y487678D01*
X863892Y487831D01*
X863933Y487970D01*
X863961Y488081D01*
X863975Y488150D01*
Y488178D01*
X863989Y488316D01*
X864003Y488497D01*
X864016Y488691D01*
Y488871D01*
X864030Y489051D01*
Y492519D01*
D02*
G37*
G36*
X858830Y435311D02*
X854253D01*
Y431636D01*
X854267Y431470D01*
Y431303D01*
X854281Y431165D01*
X854295Y431026D01*
X854308Y430915D01*
Y430818D01*
X854336Y430652D01*
X854364Y430541D01*
X854378Y430471D01*
Y430457D01*
X854461Y430222D01*
X854572Y430014D01*
X854697Y429833D01*
X854822Y429667D01*
X854933Y429556D01*
X855030Y429459D01*
X855099Y429403D01*
X855127Y429389D01*
X855349Y429251D01*
X855584Y429154D01*
X855806Y429071D01*
X856028Y429029D01*
X856208Y429001D01*
X856361Y428974D01*
X856416D01*
X856458D01*
X856486D01*
X856500D01*
X856708Y428987D01*
X856888Y429001D01*
X857235Y429084D01*
X857526Y429195D01*
X857776Y429320D01*
X857970Y429445D01*
X858109Y429556D01*
X858150Y429598D01*
X858192Y429639D01*
X858205Y429653D01*
X858219Y429667D01*
X858330Y429806D01*
X858414Y429972D01*
X858497Y430138D01*
X858566Y430319D01*
X858677Y430707D01*
X858746Y431095D01*
X858774Y431276D01*
X858802Y431456D01*
X858816Y431609D01*
Y431747D01*
X858830Y431858D01*
Y435311D01*
D02*
G37*
G36*
X467624Y46497D02*
X464822D01*
X464587Y46483D01*
X464379D01*
X464184Y46469D01*
X464004Y46455D01*
X463852Y46441D01*
X463699Y46428D01*
X463574Y46414D01*
X463477Y46386D01*
X463380Y46372D01*
X463297Y46358D01*
X463241Y46344D01*
X463186Y46330D01*
X463158D01*
X463130Y46317D01*
X462922Y46233D01*
X462756Y46136D01*
X462603Y46025D01*
X462479Y45914D01*
X462382Y45817D01*
X462312Y45734D01*
X462271Y45679D01*
X462257Y45651D01*
X462146Y45471D01*
X462076Y45276D01*
X462021Y45082D01*
X461979Y44902D01*
X461952Y44749D01*
X461938Y44639D01*
Y44555D01*
Y44542D01*
Y44528D01*
X461952Y44278D01*
X461993Y44070D01*
X462049Y43876D01*
X462104Y43709D01*
X462160Y43584D01*
X462215Y43488D01*
X462257Y43432D01*
X462271Y43404D01*
X462409Y43252D01*
X462562Y43113D01*
X462728Y43002D01*
X462881Y42919D01*
X463019Y42849D01*
X463130Y42808D01*
X463214Y42780D01*
X463228Y42766D01*
X463241D01*
X463339Y42739D01*
X463449Y42725D01*
X463699Y42683D01*
X463976Y42655D01*
X464240Y42642D01*
X464476D01*
X464587Y42628D01*
X467624D01*
Y46497D01*
D02*
G37*
G36*
Y41116D02*
X464670D01*
X464240Y41102D01*
X463866Y41088D01*
X463699Y41061D01*
X463546Y41047D01*
X463408Y41033D01*
X463269Y41005D01*
X463158Y40991D01*
X463061Y40963D01*
X462992Y40950D01*
X462922Y40936D01*
X462867Y40922D01*
X462825Y40908D01*
X462812Y40894D01*
X462798D01*
X462562Y40797D01*
X462368Y40686D01*
X462187Y40575D01*
X462035Y40450D01*
X461924Y40339D01*
X461841Y40242D01*
X461785Y40187D01*
X461771Y40159D01*
X461646Y39951D01*
X461549Y39743D01*
X461494Y39535D01*
X461438Y39341D01*
X461411Y39160D01*
X461397Y39036D01*
Y38980D01*
Y38939D01*
Y38925D01*
Y38911D01*
X461411Y38689D01*
X461438Y38481D01*
X461480Y38301D01*
X461522Y38148D01*
X461577Y38009D01*
X461619Y37912D01*
X461646Y37857D01*
X461660Y37829D01*
X461758Y37663D01*
X461868Y37524D01*
X461979Y37399D01*
X462076Y37302D01*
X462174Y37219D01*
X462243Y37164D01*
X462298Y37136D01*
X462312Y37122D01*
X462465Y37039D01*
X462631Y36969D01*
X462784Y36900D01*
X462936Y36858D01*
X463075Y36817D01*
X463186Y36789D01*
X463255Y36775D01*
X463283D01*
X463422Y36761D01*
X463602Y36747D01*
X463796Y36734D01*
X463976D01*
X464157Y36720D01*
X467624D01*
Y41116D01*
D02*
G37*
G36*
X420152Y46677D02*
X420028Y46261D01*
X419875Y45817D01*
X419722Y45374D01*
X419584Y44944D01*
X419514Y44749D01*
X419445Y44569D01*
X419389Y44403D01*
X419334Y44278D01*
X419292Y44153D01*
X419265Y44070D01*
X419237Y44014D01*
Y44001D01*
X417892Y40450D01*
X422260D01*
X420846Y44209D01*
X420693Y44666D01*
X420555Y45110D01*
X420430Y45526D01*
X420374Y45720D01*
X420333Y45901D01*
X420291Y46067D01*
X420249Y46220D01*
X420222Y46344D01*
X420194Y46469D01*
X420180Y46552D01*
X420166Y46622D01*
X420152Y46663D01*
Y46677D01*
D02*
G37*
%LPD*%
D11*
X500350Y125000D02*
Y138329D01*
X268686Y125000D02*
Y138329D01*
X262021Y131664D02*
X275350D01*
X50350Y125000D02*
Y138329D01*
X493686Y819000D02*
Y805671D01*
X487021Y812335D02*
X500350D01*
X725350Y819000D02*
Y805671D01*
X275350Y819000D02*
Y805671D01*
X723685Y136500D02*
Y123171D01*
X717021Y129835D02*
X730350D01*
X43686Y819000D02*
Y805671D01*
X37021Y812335D02*
X50350D01*
D12*
X450001Y393752D02*
X454999D01*
Y396251D01*
X454166Y397084D01*
X452500D01*
X451667Y396251D01*
Y393752D01*
Y395418D02*
X450001Y397084D01*
Y398750D02*
Y400416D01*
Y399583D01*
X454999D01*
X454166Y398750D01*
Y402916D02*
X454999Y403749D01*
Y405415D01*
X454166Y406248D01*
X450834D01*
X450001Y405415D01*
Y403749D01*
X450834Y402916D01*
X454166D01*
X312753Y527804D02*
X307754D01*
Y525305D01*
X308587Y524472D01*
X310254D01*
X311087Y525305D01*
Y527804D01*
Y526138D02*
X312753Y524472D01*
X307754Y522806D02*
Y519474D01*
X308587D01*
X311920Y522806D01*
X312753D01*
X303916Y486084D02*
X304749Y485251D01*
Y483585D01*
X303916Y482752D01*
X300584D01*
X299751Y483585D01*
Y485251D01*
X300584Y486084D01*
X299751Y487750D02*
Y489417D01*
Y488583D01*
X304749D01*
X303916Y487750D01*
Y491916D02*
X304749Y492749D01*
Y494415D01*
X303916Y495248D01*
X303083D01*
X302250Y494415D01*
Y493582D01*
Y494415D01*
X301417Y495248D01*
X300584D01*
X299751Y494415D01*
Y492749D01*
X300584Y491916D01*
X301294Y454756D02*
X300461Y455589D01*
Y457255D01*
X301294Y458088D01*
X304626D01*
X305459Y457255D01*
Y455589D01*
X304626Y454756D01*
X305459Y453090D02*
Y451423D01*
Y452257D01*
X300461D01*
X301294Y453090D01*
X305459Y445592D02*
Y448924D01*
X302127Y445592D01*
X301294D01*
X300461Y446425D01*
Y448091D01*
X301294Y448924D01*
X322797Y473481D02*
X321964Y474314D01*
Y475980D01*
X322797Y476813D01*
X326130D01*
X326963Y475980D01*
Y474314D01*
X326130Y473481D01*
X326963Y471815D02*
Y470149D01*
Y470982D01*
X321964D01*
X322797Y471815D01*
X326963Y467650D02*
Y465983D01*
Y466816D01*
X321964D01*
X322797Y467650D01*
M02*
