G04*
G04 #@! TF.GenerationSoftware,Altium Limited,Altium Designer,26.2.0 (7)*
G04*
G04 Layer_Color=65280*
%FSLAX44Y44*%
%MOMM*%
G71*
G04*
G04 #@! TF.SameCoordinates,EA956771-2BF4-40C0-8823-A7A71366CA27*
G04*
G04*
G04 #@! TF.FilePolarity,Positive*
G04*
G01*
G75*
%ADD14C,0.1000*%
%ADD115C,0.0500*%
%ADD116C,0.0700*%
G36*
X797004Y792266D02*
X797000Y792229D01*
Y792187D01*
X796995Y792090D01*
X796981Y791989D01*
X796967Y791878D01*
X796944Y791776D01*
X796930Y791725D01*
X796917Y791684D01*
Y791679D01*
X796912Y791674D01*
X796898Y791647D01*
X796880Y791605D01*
X796847Y791554D01*
X796806Y791499D01*
X796750Y791439D01*
X796685Y791383D01*
X796611Y791328D01*
X796607D01*
X796602Y791323D01*
X796574Y791304D01*
X796528Y791286D01*
X796468Y791258D01*
X796399Y791235D01*
X796316Y791212D01*
X796228Y791198D01*
X796131Y791193D01*
X796126D01*
X796117D01*
X796098D01*
X796075Y791198D01*
X796043D01*
X796011Y791203D01*
X795932Y791221D01*
X795839Y791249D01*
X795742Y791286D01*
X795645Y791341D01*
X795599Y791378D01*
X795553Y791415D01*
X795548Y791420D01*
X795544Y791425D01*
X795530Y791439D01*
X795516Y791457D01*
X795497Y791480D01*
X795479Y791508D01*
X795456Y791545D01*
X795428Y791582D01*
X795405Y791628D01*
X795382Y791679D01*
X795354Y791734D01*
X795331Y791795D01*
X795312Y791864D01*
X795289Y791933D01*
X795275Y792012D01*
X795262Y792095D01*
X795257Y792086D01*
X795248Y792067D01*
X795229Y792039D01*
X795211Y792002D01*
X795160Y791919D01*
X795128Y791878D01*
X795100Y791841D01*
X795091Y791832D01*
X795068Y791808D01*
X795031Y791771D01*
X794984Y791725D01*
X794920Y791674D01*
X794850Y791614D01*
X794767Y791554D01*
X794675Y791489D01*
X793805Y790939D01*
Y791466D01*
X794471Y791887D01*
X794476D01*
X794485Y791896D01*
X794499Y791906D01*
X794517Y791919D01*
X794568Y791952D01*
X794633Y791993D01*
X794702Y792044D01*
X794776Y792095D01*
X794846Y792146D01*
X794910Y792192D01*
X794915Y792197D01*
X794933Y792211D01*
X794961Y792234D01*
X794994Y792266D01*
X795063Y792335D01*
X795095Y792372D01*
X795123Y792409D01*
X795128Y792414D01*
X795132Y792423D01*
X795142Y792442D01*
X795155Y792469D01*
X795169Y792497D01*
X795183Y792530D01*
X795206Y792604D01*
Y792608D01*
X795211Y792617D01*
Y792636D01*
X795215Y792659D01*
X795220Y792691D01*
Y792728D01*
X795225Y792779D01*
Y793325D01*
X793805D01*
Y793750D01*
X797004D01*
Y792266D01*
D02*
G37*
G36*
X793893Y790741D02*
X793935Y790736D01*
X793981Y790727D01*
X794027Y790717D01*
X794078Y790699D01*
X794083D01*
X794088Y790694D01*
X794115Y790685D01*
X794157Y790667D01*
X794212Y790639D01*
X794277Y790602D01*
X794351Y790556D01*
X794425Y790505D01*
X794503Y790440D01*
X794508D01*
X794513Y790431D01*
X794540Y790408D01*
X794582Y790366D01*
X794642Y790306D01*
X794712Y790237D01*
X794795Y790149D01*
X794887Y790042D01*
X794984Y789927D01*
X794989Y789922D01*
X795003Y789904D01*
X795026Y789876D01*
X795054Y789844D01*
X795091Y789802D01*
X795132Y789751D01*
X795178Y789700D01*
X795229Y789640D01*
X795340Y789525D01*
X795451Y789409D01*
X795507Y789354D01*
X795562Y789303D01*
X795613Y789257D01*
X795664Y789220D01*
X795668D01*
X795673Y789210D01*
X795687Y789201D01*
X795705Y789192D01*
X795756Y789159D01*
X795816Y789122D01*
X795890Y789090D01*
X795969Y789058D01*
X796057Y789039D01*
X796140Y789030D01*
X796145D01*
X796149D01*
X796177Y789035D01*
X796223Y789039D01*
X796274Y789053D01*
X796339Y789072D01*
X796404Y789104D01*
X796468Y789146D01*
X796533Y789201D01*
X796542Y789210D01*
X796561Y789233D01*
X796584Y789266D01*
X796616Y789317D01*
X796644Y789381D01*
X796672Y789455D01*
X796690Y789543D01*
X796695Y789640D01*
Y789668D01*
X796690Y789687D01*
X796685Y789742D01*
X796672Y789807D01*
X796653Y789876D01*
X796621Y789955D01*
X796579Y790029D01*
X796524Y790098D01*
X796514Y790107D01*
X796491Y790126D01*
X796454Y790153D01*
X796399Y790181D01*
X796334Y790213D01*
X796251Y790241D01*
X796159Y790260D01*
X796052Y790269D01*
X796094Y790671D01*
X796098D01*
X796112Y790667D01*
X796135D01*
X796168Y790662D01*
X796205Y790653D01*
X796246Y790643D01*
X796297Y790630D01*
X796348Y790616D01*
X796459Y790579D01*
X796570Y790523D01*
X796625Y790491D01*
X796681Y790449D01*
X796732Y790408D01*
X796778Y790361D01*
X796783Y790357D01*
X796787Y790348D01*
X796801Y790334D01*
X796815Y790311D01*
X796833Y790283D01*
X796852Y790250D01*
X796875Y790213D01*
X796898Y790167D01*
X796921Y790116D01*
X796944Y790061D01*
X796963Y790001D01*
X796981Y789936D01*
X796995Y789867D01*
X797009Y789793D01*
X797014Y789714D01*
X797018Y789631D01*
Y789585D01*
X797014Y789552D01*
X797009Y789516D01*
X797004Y789469D01*
X796995Y789418D01*
X796986Y789368D01*
X796954Y789247D01*
X796907Y789127D01*
X796880Y789067D01*
X796847Y789007D01*
X796806Y788951D01*
X796759Y788901D01*
X796755Y788896D01*
X796750Y788887D01*
X796732Y788877D01*
X796713Y788859D01*
X796690Y788836D01*
X796658Y788813D01*
X796625Y788790D01*
X796584Y788762D01*
X796496Y788716D01*
X796385Y788670D01*
X796329Y788651D01*
X796265Y788642D01*
X796200Y788633D01*
X796131Y788628D01*
X796122D01*
X796098D01*
X796061Y788633D01*
X796011Y788637D01*
X795955Y788646D01*
X795890Y788665D01*
X795821Y788683D01*
X795752Y788711D01*
X795742Y788716D01*
X795719Y788725D01*
X795682Y788744D01*
X795631Y788771D01*
X795576Y788808D01*
X795507Y788854D01*
X795437Y788910D01*
X795359Y788975D01*
X795350Y788984D01*
X795322Y789007D01*
X795299Y789030D01*
X795275Y789053D01*
X795248Y789081D01*
X795211Y789118D01*
X795174Y789155D01*
X795132Y789201D01*
X795086Y789247D01*
X795035Y789303D01*
X794984Y789363D01*
X794924Y789428D01*
X794864Y789502D01*
X794799Y789576D01*
X794795Y789580D01*
X794786Y789589D01*
X794772Y789608D01*
X794753Y789631D01*
X794725Y789659D01*
X794698Y789691D01*
X794638Y789765D01*
X794568Y789844D01*
X794499Y789918D01*
X794439Y789982D01*
X794416Y790010D01*
X794393Y790033D01*
X794388Y790038D01*
X794374Y790052D01*
X794356Y790070D01*
X794328Y790093D01*
X794296Y790116D01*
X794263Y790144D01*
X794184Y790200D01*
Y788623D01*
X793805D01*
Y790745D01*
X793810D01*
X793829D01*
X793856D01*
X793893Y790741D01*
D02*
G37*
G36*
X795525Y788198D02*
X795581D01*
X795641Y788193D01*
X795710Y788189D01*
X795853Y788175D01*
X796006Y788152D01*
X796159Y788124D01*
X796228Y788105D01*
X796297Y788087D01*
X796302D01*
X796311Y788082D01*
X796329Y788073D01*
X796353Y788064D01*
X796385Y788055D01*
X796417Y788036D01*
X796496Y787999D01*
X796579Y787953D01*
X796667Y787893D01*
X796755Y787823D01*
X796829Y787740D01*
Y787736D01*
X796838Y787731D01*
X796847Y787717D01*
X796857Y787699D01*
X796875Y787676D01*
X796889Y787648D01*
X796926Y787579D01*
X796958Y787495D01*
X796991Y787398D01*
X797009Y787283D01*
X797018Y787158D01*
Y787116D01*
X797014Y787065D01*
X797004Y787005D01*
X796991Y786936D01*
X796972Y786862D01*
X796949Y786783D01*
X796912Y786709D01*
Y786705D01*
X796907Y786700D01*
X796893Y786677D01*
X796870Y786640D01*
X796838Y786594D01*
X796792Y786543D01*
X796741Y786488D01*
X796681Y786437D01*
X796611Y786386D01*
X796602Y786381D01*
X796579Y786363D01*
X796537Y786344D01*
X796478Y786312D01*
X796408Y786284D01*
X796329Y786247D01*
X796237Y786215D01*
X796135Y786187D01*
X796131D01*
X796122Y786182D01*
X796108Y786178D01*
X796085Y786173D01*
X796057Y786169D01*
X796024Y786164D01*
X795983Y786155D01*
X795937Y786150D01*
X795886Y786141D01*
X795830Y786136D01*
X795766Y786132D01*
X795701Y786122D01*
X795627Y786118D01*
X795553D01*
X795470Y786113D01*
X795382D01*
X795377D01*
X795359D01*
X795326D01*
X795289D01*
X795238Y786118D01*
X795183D01*
X795123Y786122D01*
X795058Y786127D01*
X794910Y786141D01*
X794758Y786164D01*
X794610Y786192D01*
X794540Y786210D01*
X794471Y786233D01*
X794466D01*
X794457Y786238D01*
X794439Y786247D01*
X794416Y786256D01*
X794383Y786266D01*
X794351Y786284D01*
X794272Y786321D01*
X794189Y786367D01*
X794097Y786427D01*
X794014Y786497D01*
X793935Y786580D01*
Y786585D01*
X793926Y786589D01*
X793916Y786603D01*
X793907Y786622D01*
X793893Y786645D01*
X793875Y786668D01*
X793842Y786737D01*
X793810Y786820D01*
X793778Y786917D01*
X793759Y787033D01*
X793750Y787158D01*
Y787204D01*
X793755Y787236D01*
X793759Y787273D01*
X793768Y787320D01*
X793778Y787371D01*
X793792Y787426D01*
X793810Y787481D01*
X793829Y787542D01*
X793856Y787602D01*
X793889Y787662D01*
X793926Y787722D01*
X793972Y787782D01*
X794023Y787837D01*
X794078Y787888D01*
X794083Y787893D01*
X794097Y787902D01*
X794120Y787916D01*
X794157Y787939D01*
X794198Y787962D01*
X794254Y787985D01*
X794319Y788018D01*
X794393Y788045D01*
X794476Y788073D01*
X794573Y788101D01*
X794679Y788129D01*
X794799Y788152D01*
X794929Y788175D01*
X795068Y788189D01*
X795220Y788198D01*
X795382Y788203D01*
X795387D01*
X795405D01*
X795437D01*
X795474D01*
X795525Y788198D01*
D02*
G37*
G36*
X853389Y458900D02*
X853380D01*
X853343D01*
X853287D01*
X853213Y458909D01*
X853130Y458918D01*
X853038Y458937D01*
X852945Y458955D01*
X852843Y458992D01*
X852834D01*
X852825Y459002D01*
X852770Y459020D01*
X852686Y459057D01*
X852575Y459113D01*
X852446Y459187D01*
X852298Y459279D01*
X852150Y459381D01*
X851993Y459510D01*
X851984D01*
X851974Y459529D01*
X851919Y459575D01*
X851836Y459658D01*
X851716Y459778D01*
X851577Y459917D01*
X851411Y460093D01*
X851226Y460305D01*
X851031Y460536D01*
X851022Y460546D01*
X850994Y460583D01*
X850948Y460638D01*
X850893Y460703D01*
X850819Y460786D01*
X850735Y460888D01*
X850643Y460989D01*
X850541Y461110D01*
X850320Y461341D01*
X850098Y461572D01*
X849987Y461683D01*
X849876Y461785D01*
X849774Y461877D01*
X849672Y461951D01*
X849663D01*
X849654Y461969D01*
X849626Y461988D01*
X849589Y462006D01*
X849487Y462071D01*
X849367Y462145D01*
X849219Y462210D01*
X849062Y462275D01*
X848886Y462312D01*
X848720Y462330D01*
X848711D01*
X848701D01*
X848646Y462321D01*
X848554Y462312D01*
X848452Y462284D01*
X848322Y462247D01*
X848193Y462182D01*
X848064Y462099D01*
X847934Y461988D01*
X847916Y461969D01*
X847879Y461923D01*
X847832Y461858D01*
X847768Y461757D01*
X847712Y461627D01*
X847657Y461479D01*
X847620Y461304D01*
X847610Y461110D01*
Y461054D01*
X847620Y461017D01*
X847629Y460906D01*
X847657Y460777D01*
X847694Y460638D01*
X847758Y460481D01*
X847842Y460333D01*
X847953Y460194D01*
X847971Y460176D01*
X848017Y460139D01*
X848091Y460083D01*
X848202Y460028D01*
X848332Y459963D01*
X848498Y459908D01*
X848683Y459871D01*
X848896Y459852D01*
X848812Y459048D01*
X848803D01*
X848775Y459057D01*
X848729D01*
X848664Y459066D01*
X848591Y459085D01*
X848507Y459103D01*
X848406Y459131D01*
X848304Y459159D01*
X848082Y459233D01*
X847860Y459344D01*
X847749Y459408D01*
X847638Y459492D01*
X847537Y459575D01*
X847444Y459667D01*
X847435Y459677D01*
X847426Y459695D01*
X847398Y459723D01*
X847370Y459769D01*
X847333Y459824D01*
X847296Y459889D01*
X847250Y459963D01*
X847204Y460056D01*
X847158Y460157D01*
X847111Y460268D01*
X847074Y460388D01*
X847037Y460518D01*
X847010Y460657D01*
X846982Y460804D01*
X846973Y460962D01*
X846963Y461128D01*
Y461221D01*
X846973Y461285D01*
X846982Y461359D01*
X846991Y461452D01*
X847010Y461553D01*
X847028Y461655D01*
X847093Y461895D01*
X847185Y462136D01*
X847241Y462256D01*
X847305Y462376D01*
X847389Y462487D01*
X847481Y462589D01*
X847490Y462598D01*
X847500Y462617D01*
X847537Y462635D01*
X847573Y462672D01*
X847620Y462718D01*
X847684Y462765D01*
X847749Y462811D01*
X847832Y462866D01*
X848008Y462959D01*
X848230Y463051D01*
X848341Y463088D01*
X848470Y463107D01*
X848600Y463125D01*
X848738Y463134D01*
X848757D01*
X848803D01*
X848877Y463125D01*
X848979Y463116D01*
X849090Y463097D01*
X849219Y463060D01*
X849358Y463023D01*
X849497Y462968D01*
X849515Y462959D01*
X849561Y462940D01*
X849635Y462903D01*
X849737Y462848D01*
X849848Y462774D01*
X849987Y462681D01*
X850125Y462570D01*
X850283Y462441D01*
X850301Y462422D01*
X850357Y462376D01*
X850403Y462330D01*
X850449Y462284D01*
X850504Y462228D01*
X850578Y462154D01*
X850652Y462080D01*
X850735Y461988D01*
X850828Y461895D01*
X850930Y461785D01*
X851031Y461664D01*
X851152Y461535D01*
X851272Y461387D01*
X851401Y461239D01*
X851411Y461230D01*
X851429Y461211D01*
X851457Y461174D01*
X851494Y461128D01*
X851549Y461073D01*
X851605Y461008D01*
X851725Y460860D01*
X851863Y460703D01*
X852002Y460555D01*
X852122Y460425D01*
X852169Y460370D01*
X852215Y460324D01*
X852224Y460314D01*
X852252Y460287D01*
X852289Y460250D01*
X852344Y460204D01*
X852409Y460157D01*
X852474Y460102D01*
X852631Y459991D01*
Y463144D01*
X853389D01*
Y458900D01*
D02*
G37*
G36*
X851558Y457938D02*
X851632D01*
X851808Y457920D01*
X852011Y457901D01*
X852224Y457864D01*
X852418Y457809D01*
X852603Y457744D01*
X852612D01*
X852622Y457735D01*
X852677Y457707D01*
X852751Y457661D01*
X852853Y457596D01*
X852954Y457504D01*
X853065Y457402D01*
X853176Y457273D01*
X853269Y457125D01*
X853278Y457106D01*
X853306Y457051D01*
X853343Y456968D01*
X853380Y456847D01*
X853426Y456699D01*
X853463Y456533D01*
X853491Y456348D01*
X853500Y456145D01*
Y456062D01*
X853491Y456006D01*
X853482Y455932D01*
X853472Y455858D01*
X853435Y455664D01*
X853380Y455461D01*
X853297Y455248D01*
X853241Y455137D01*
X853176Y455035D01*
X853102Y454943D01*
X853019Y454850D01*
X853010Y454841D01*
X853001Y454832D01*
X852964Y454813D01*
X852927Y454786D01*
X852880Y454749D01*
X852816Y454712D01*
X852742Y454675D01*
X852659Y454628D01*
X852566Y454591D01*
X852455Y454554D01*
X852344Y454518D01*
X852215Y454481D01*
X852076Y454462D01*
X851919Y454434D01*
X851762Y454425D01*
X851586D01*
X851475Y455192D01*
X851484D01*
X851503D01*
X851540D01*
X851595Y455202D01*
X851651Y455211D01*
X851716D01*
X851873Y455239D01*
X852039Y455266D01*
X852206Y455322D01*
X852354Y455377D01*
X852418Y455414D01*
X852474Y455461D01*
X852483Y455470D01*
X852511Y455507D01*
X852557Y455562D01*
X852603Y455636D01*
X852659Y455738D01*
X852696Y455849D01*
X852733Y455988D01*
X852742Y456135D01*
Y456191D01*
X852733Y456246D01*
X852723Y456330D01*
X852705Y456413D01*
X852686Y456505D01*
X852649Y456598D01*
X852603Y456690D01*
X852594Y456699D01*
X852575Y456727D01*
X852538Y456764D01*
X852501Y456820D01*
X852437Y456866D01*
X852372Y456921D01*
X852298Y456968D01*
X852206Y457005D01*
X852196D01*
X852159Y457023D01*
X852095Y457032D01*
X852011Y457051D01*
X851900Y457069D01*
X851762Y457079D01*
X851595Y457097D01*
X851401D01*
X846991D01*
Y457948D01*
X851355D01*
X851364D01*
X851392D01*
X851429D01*
X851484D01*
X851558Y457938D01*
D02*
G37*
G36*
X452870Y917482D02*
X453018Y917463D01*
X453185Y917445D01*
X453370Y917407D01*
X453573Y917370D01*
X454018Y917259D01*
X454481Y917074D01*
X454721Y916963D01*
X454944Y916833D01*
X455166Y916667D01*
X455388Y916500D01*
X455407Y916482D01*
X455444Y916445D01*
X455499Y916389D01*
X455555Y916315D01*
X455647Y916222D01*
X455740Y916093D01*
X455851Y915963D01*
X455962Y915797D01*
X456073Y915611D01*
X456184Y915426D01*
X456388Y914982D01*
X456555Y914463D01*
X456610Y914185D01*
X456647Y913889D01*
X455073Y913686D01*
Y913704D01*
X455055Y913741D01*
X455036Y913815D01*
X455018Y913908D01*
X454999Y914019D01*
X454962Y914148D01*
X454870Y914426D01*
X454740Y914760D01*
X454573Y915074D01*
X454388Y915371D01*
X454166Y915630D01*
X454129Y915648D01*
X454055Y915722D01*
X453907Y915815D01*
X453722Y915908D01*
X453499Y916019D01*
X453222Y916111D01*
X452907Y916185D01*
X452574Y916204D01*
X452463D01*
X452388Y916185D01*
X452185Y916167D01*
X451926Y916111D01*
X451629Y916019D01*
X451315Y915889D01*
X451000Y915704D01*
X450703Y915445D01*
X450666Y915408D01*
X450574Y915296D01*
X450463Y915130D01*
X450315Y914908D01*
X450166Y914630D01*
X450055Y914315D01*
X449963Y913945D01*
X449926Y913538D01*
Y913519D01*
Y913482D01*
Y913426D01*
X449944Y913352D01*
X449963Y913149D01*
X450018Y912908D01*
X450092Y912612D01*
X450222Y912315D01*
X450407Y912019D01*
X450648Y911741D01*
X450685Y911704D01*
X450778Y911630D01*
X450926Y911519D01*
X451129Y911389D01*
X451389Y911260D01*
X451703Y911149D01*
X452055Y911075D01*
X452444Y911038D01*
X452611D01*
X452740Y911056D01*
X452907Y911075D01*
X453092Y911112D01*
X453314Y911149D01*
X453555Y911204D01*
X453370Y909816D01*
X453277D01*
X453203Y909834D01*
X452962D01*
X452759Y909797D01*
X452518Y909760D01*
X452240Y909705D01*
X451926Y909612D01*
X451629Y909482D01*
X451315Y909316D01*
X451296D01*
X451277Y909297D01*
X451185Y909223D01*
X451055Y909093D01*
X450907Y908927D01*
X450759Y908686D01*
X450629Y908408D01*
X450537Y908094D01*
X450500Y907908D01*
Y907705D01*
Y907686D01*
Y907668D01*
Y907557D01*
X450537Y907409D01*
X450574Y907205D01*
X450648Y906983D01*
X450740Y906742D01*
X450889Y906501D01*
X451092Y906279D01*
X451111Y906260D01*
X451203Y906186D01*
X451333Y906094D01*
X451500Y905983D01*
X451722Y905890D01*
X451981Y905798D01*
X452277Y905723D01*
X452611Y905705D01*
X452759D01*
X452925Y905742D01*
X453148Y905779D01*
X453388Y905853D01*
X453629Y905946D01*
X453888Y906094D01*
X454129Y906279D01*
X454147Y906298D01*
X454222Y906390D01*
X454333Y906520D01*
X454462Y906705D01*
X454592Y906946D01*
X454721Y907242D01*
X454833Y907594D01*
X454907Y908001D01*
X456481Y907723D01*
Y907705D01*
X456462Y907649D01*
X456444Y907575D01*
X456425Y907464D01*
X456388Y907334D01*
X456333Y907186D01*
X456221Y906834D01*
X456036Y906427D01*
X455814Y906020D01*
X455536Y905631D01*
X455184Y905279D01*
X455166Y905260D01*
X455129Y905242D01*
X455073Y905205D01*
X454999Y905149D01*
X454907Y905075D01*
X454777Y905001D01*
X454647Y904927D01*
X454481Y904835D01*
X454110Y904687D01*
X453685Y904538D01*
X453185Y904446D01*
X452925Y904409D01*
X452463D01*
X452259Y904427D01*
X452018Y904464D01*
X451722Y904520D01*
X451389Y904613D01*
X451055Y904724D01*
X450722Y904872D01*
X450703D01*
X450685Y904890D01*
X450574Y904946D01*
X450407Y905057D01*
X450222Y905186D01*
X450000Y905372D01*
X449778Y905575D01*
X449555Y905816D01*
X449370Y906094D01*
X449352Y906131D01*
X449296Y906223D01*
X449222Y906390D01*
X449129Y906594D01*
X449037Y906834D01*
X448963Y907112D01*
X448907Y907427D01*
X448889Y907742D01*
Y907779D01*
Y907890D01*
X448907Y908038D01*
X448944Y908242D01*
X449000Y908482D01*
X449092Y908742D01*
X449204Y909001D01*
X449352Y909260D01*
X449370Y909297D01*
X449426Y909371D01*
X449537Y909501D01*
X449685Y909649D01*
X449870Y909816D01*
X450092Y910001D01*
X450352Y910167D01*
X450666Y910334D01*
X450648D01*
X450611Y910353D01*
X450555Y910371D01*
X450481Y910390D01*
X450277Y910464D01*
X450018Y910575D01*
X449722Y910723D01*
X449426Y910908D01*
X449148Y911149D01*
X448889Y911427D01*
X448870Y911464D01*
X448796Y911575D01*
X448685Y911760D01*
X448574Y912001D01*
X448463Y912297D01*
X448352Y912649D01*
X448278Y913056D01*
X448259Y913500D01*
Y913519D01*
Y913575D01*
Y913667D01*
X448278Y913778D01*
X448296Y913926D01*
X448333Y914093D01*
X448370Y914278D01*
X448407Y914482D01*
X448555Y914926D01*
X448667Y915167D01*
X448778Y915389D01*
X448926Y915630D01*
X449092Y915871D01*
X449278Y916111D01*
X449500Y916333D01*
X449518Y916352D01*
X449555Y916389D01*
X449630Y916445D01*
X449722Y916519D01*
X449833Y916611D01*
X449981Y916704D01*
X450148Y916815D01*
X450352Y916908D01*
X450555Y917019D01*
X450796Y917130D01*
X451037Y917222D01*
X451315Y917315D01*
X451611Y917389D01*
X451926Y917445D01*
X452240Y917482D01*
X452592Y917500D01*
X452759D01*
X452870Y917482D01*
D02*
G37*
G36*
X462684D02*
X462832Y917463D01*
X462980Y917445D01*
X463369Y917370D01*
X463776Y917259D01*
X464202Y917093D01*
X464424Y916982D01*
X464628Y916852D01*
X464813Y916704D01*
X464998Y916537D01*
X465017Y916519D01*
X465035Y916500D01*
X465072Y916426D01*
X465128Y916352D01*
X465202Y916259D01*
X465276Y916130D01*
X465350Y915982D01*
X465443Y915815D01*
X465517Y915630D01*
X465591Y915408D01*
X465665Y915185D01*
X465739Y914926D01*
X465776Y914649D01*
X465831Y914334D01*
X465850Y914019D01*
Y913667D01*
X464313Y913445D01*
Y913463D01*
Y913500D01*
Y913575D01*
X464295Y913686D01*
X464276Y913797D01*
Y913926D01*
X464221Y914241D01*
X464165Y914574D01*
X464054Y914908D01*
X463943Y915204D01*
X463869Y915334D01*
X463776Y915445D01*
X463758Y915463D01*
X463684Y915519D01*
X463573Y915611D01*
X463424Y915704D01*
X463221Y915815D01*
X462998Y915889D01*
X462721Y915963D01*
X462424Y915982D01*
X462313D01*
X462202Y915963D01*
X462036Y915945D01*
X461869Y915908D01*
X461684Y915871D01*
X461499Y915797D01*
X461313Y915704D01*
X461295Y915685D01*
X461239Y915648D01*
X461165Y915574D01*
X461054Y915500D01*
X460962Y915371D01*
X460850Y915241D01*
X460758Y915093D01*
X460684Y914908D01*
Y914889D01*
X460647Y914815D01*
X460628Y914686D01*
X460591Y914519D01*
X460554Y914297D01*
X460536Y914019D01*
X460499Y913686D01*
Y913297D01*
Y904464D01*
X458795D01*
Y913204D01*
Y913223D01*
Y913278D01*
Y913352D01*
Y913463D01*
X458814Y913612D01*
Y913760D01*
X458851Y914111D01*
X458888Y914519D01*
X458962Y914945D01*
X459073Y915334D01*
X459202Y915704D01*
Y915722D01*
X459221Y915741D01*
X459277Y915852D01*
X459369Y916000D01*
X459499Y916204D01*
X459684Y916407D01*
X459888Y916630D01*
X460147Y916852D01*
X460443Y917037D01*
X460480Y917056D01*
X460591Y917111D01*
X460758Y917185D01*
X460999Y917259D01*
X461295Y917352D01*
X461628Y917426D01*
X461998Y917482D01*
X462406Y917500D01*
X462573D01*
X462684Y917482D01*
D02*
G37*
G36*
X692321Y451527D02*
X692441Y451509D01*
X692589Y451481D01*
X692756Y451435D01*
X692922Y451380D01*
X693088Y451306D01*
X693098D01*
X693107Y451296D01*
X693162Y451269D01*
X693246Y451213D01*
X693338Y451148D01*
X693449Y451056D01*
X693560Y450954D01*
X693671Y450834D01*
X693763Y450695D01*
X693773Y450677D01*
X693800Y450631D01*
X693837Y450547D01*
X693884Y450446D01*
X693930Y450326D01*
X693967Y450187D01*
X693995Y450030D01*
X694004Y449872D01*
Y449854D01*
Y449799D01*
X693995Y449725D01*
X693976Y449623D01*
X693948Y449503D01*
X693902Y449373D01*
X693847Y449244D01*
X693773Y449114D01*
X693763Y449096D01*
X693736Y449059D01*
X693680Y448994D01*
X693606Y448920D01*
X693514Y448837D01*
X693403Y448745D01*
X693273Y448661D01*
X693116Y448578D01*
X693125D01*
X693144Y448569D01*
X693172Y448560D01*
X693209Y448550D01*
X693310Y448513D01*
X693440Y448458D01*
X693588Y448384D01*
X693736Y448291D01*
X693874Y448171D01*
X694004Y448033D01*
X694013Y448014D01*
X694050Y447959D01*
X694105Y447866D01*
X694161Y447746D01*
X694216Y447598D01*
X694272Y447422D01*
X694309Y447219D01*
X694318Y446997D01*
Y446988D01*
Y446960D01*
Y446914D01*
X694309Y446858D01*
X694300Y446784D01*
X694281Y446701D01*
X694263Y446609D01*
X694244Y446507D01*
X694170Y446285D01*
X694115Y446165D01*
X694059Y446054D01*
X693985Y445934D01*
X693902Y445814D01*
X693810Y445693D01*
X693699Y445583D01*
X693689Y445573D01*
X693671Y445555D01*
X693634Y445527D01*
X693588Y445490D01*
X693532Y445444D01*
X693458Y445398D01*
X693375Y445342D01*
X693273Y445296D01*
X693172Y445240D01*
X693051Y445185D01*
X692931Y445139D01*
X692793Y445093D01*
X692645Y445056D01*
X692487Y445028D01*
X692330Y445009D01*
X692155Y445000D01*
X692071D01*
X692016Y445009D01*
X691942Y445019D01*
X691859Y445028D01*
X691766Y445046D01*
X691665Y445065D01*
X691443Y445120D01*
X691212Y445213D01*
X691091Y445268D01*
X690980Y445333D01*
X690870Y445416D01*
X690759Y445499D01*
X690749Y445508D01*
X690731Y445527D01*
X690703Y445555D01*
X690675Y445592D01*
X690629Y445638D01*
X690583Y445703D01*
X690527Y445767D01*
X690472Y445851D01*
X690416Y445943D01*
X690361Y446035D01*
X690259Y446257D01*
X690176Y446516D01*
X690148Y446655D01*
X690130Y446803D01*
X690916Y446905D01*
Y446895D01*
X690925Y446877D01*
X690934Y446840D01*
X690943Y446794D01*
X690953Y446738D01*
X690971Y446674D01*
X691017Y446535D01*
X691082Y446368D01*
X691165Y446211D01*
X691258Y446063D01*
X691369Y445934D01*
X691387Y445925D01*
X691424Y445888D01*
X691498Y445841D01*
X691591Y445795D01*
X691702Y445740D01*
X691840Y445693D01*
X691997Y445656D01*
X692164Y445647D01*
X692219D01*
X692256Y445656D01*
X692358Y445666D01*
X692487Y445693D01*
X692635Y445740D01*
X692793Y445804D01*
X692950Y445897D01*
X693098Y446026D01*
X693116Y446045D01*
X693162Y446100D01*
X693218Y446183D01*
X693292Y446294D01*
X693366Y446433D01*
X693421Y446590D01*
X693467Y446775D01*
X693486Y446979D01*
Y446988D01*
Y447006D01*
Y447034D01*
X693477Y447071D01*
X693467Y447173D01*
X693440Y447293D01*
X693403Y447441D01*
X693338Y447589D01*
X693246Y447737D01*
X693125Y447875D01*
X693107Y447894D01*
X693061Y447931D01*
X692987Y447986D01*
X692885Y448051D01*
X692756Y448116D01*
X692598Y448171D01*
X692423Y448208D01*
X692229Y448227D01*
X692145D01*
X692081Y448218D01*
X691997Y448208D01*
X691905Y448190D01*
X691794Y448171D01*
X691674Y448144D01*
X691766Y448837D01*
X691813D01*
X691850Y448828D01*
X691970D01*
X692071Y448846D01*
X692192Y448865D01*
X692330Y448892D01*
X692487Y448939D01*
X692635Y449003D01*
X692793Y449087D01*
X692802D01*
X692811Y449096D01*
X692857Y449133D01*
X692922Y449198D01*
X692996Y449281D01*
X693070Y449401D01*
X693135Y449540D01*
X693181Y449697D01*
X693199Y449789D01*
Y449891D01*
Y449900D01*
Y449909D01*
Y449965D01*
X693181Y450039D01*
X693162Y450141D01*
X693125Y450252D01*
X693079Y450372D01*
X693005Y450492D01*
X692904Y450603D01*
X692894Y450612D01*
X692848Y450649D01*
X692783Y450695D01*
X692700Y450751D01*
X692589Y450797D01*
X692460Y450843D01*
X692312Y450880D01*
X692145Y450889D01*
X692071D01*
X691988Y450871D01*
X691877Y450853D01*
X691757Y450816D01*
X691637Y450769D01*
X691507Y450695D01*
X691387Y450603D01*
X691378Y450594D01*
X691341Y450547D01*
X691285Y450483D01*
X691221Y450390D01*
X691156Y450270D01*
X691091Y450122D01*
X691036Y449946D01*
X690999Y449743D01*
X690213Y449882D01*
Y449891D01*
X690222Y449919D01*
X690231Y449956D01*
X690241Y450011D01*
X690259Y450076D01*
X690287Y450150D01*
X690342Y450326D01*
X690435Y450529D01*
X690546Y450732D01*
X690685Y450926D01*
X690860Y451102D01*
X690870Y451111D01*
X690888Y451121D01*
X690916Y451139D01*
X690953Y451167D01*
X690999Y451204D01*
X691064Y451241D01*
X691128Y451278D01*
X691212Y451324D01*
X691396Y451398D01*
X691609Y451472D01*
X691859Y451518D01*
X691988Y451537D01*
X692219D01*
X692321Y451527D01*
D02*
G37*
G36*
X689030Y447811D02*
Y447801D01*
Y447764D01*
Y447718D01*
Y447654D01*
X689020Y447570D01*
Y447478D01*
X689011Y447367D01*
X689002Y447256D01*
X688974Y447006D01*
X688937Y446747D01*
X688882Y446498D01*
X688845Y446378D01*
X688808Y446267D01*
Y446257D01*
X688799Y446239D01*
X688780Y446211D01*
X688762Y446174D01*
X688706Y446073D01*
X688623Y445943D01*
X688512Y445795D01*
X688382Y445647D01*
X688216Y445490D01*
X688013Y445351D01*
X688003D01*
X687985Y445333D01*
X687957Y445324D01*
X687911Y445296D01*
X687855Y445268D01*
X687782Y445240D01*
X687708Y445213D01*
X687615Y445176D01*
X687513Y445139D01*
X687402Y445111D01*
X687282Y445083D01*
X687143Y445056D01*
X687005Y445037D01*
X686857Y445019D01*
X686524Y445000D01*
X686441D01*
X686376Y445009D01*
X686302D01*
X686210Y445019D01*
X686108Y445028D01*
X686006Y445037D01*
X685775Y445074D01*
X685526Y445129D01*
X685285Y445203D01*
X685054Y445305D01*
X685045D01*
X685026Y445324D01*
X684998Y445342D01*
X684961Y445361D01*
X684860Y445434D01*
X684740Y445536D01*
X684601Y445666D01*
X684472Y445814D01*
X684342Y445998D01*
X684240Y446202D01*
Y446211D01*
X684231Y446230D01*
X684222Y446267D01*
X684203Y446313D01*
X684185Y446368D01*
X684166Y446442D01*
X684139Y446525D01*
X684120Y446627D01*
X684102Y446738D01*
X684074Y446858D01*
X684055Y446988D01*
X684037Y447127D01*
X684018Y447284D01*
X684009Y447450D01*
X684000Y447626D01*
Y447811D01*
Y451509D01*
X684851D01*
Y447811D01*
Y447801D01*
Y447774D01*
Y447728D01*
Y447672D01*
X684860Y447607D01*
Y447524D01*
X684869Y447348D01*
X684888Y447145D01*
X684915Y446942D01*
X684952Y446747D01*
X684971Y446664D01*
X684998Y446581D01*
X685008Y446562D01*
X685026Y446516D01*
X685072Y446452D01*
X685128Y446359D01*
X685193Y446267D01*
X685285Y446165D01*
X685396Y446063D01*
X685526Y445980D01*
X685544Y445971D01*
X685590Y445943D01*
X685674Y445915D01*
X685784Y445878D01*
X685914Y445832D01*
X686080Y445804D01*
X686256Y445777D01*
X686450Y445767D01*
X686543D01*
X686598Y445777D01*
X686681D01*
X686764Y445786D01*
X686968Y445823D01*
X687190Y445869D01*
X687402Y445943D01*
X687606Y446045D01*
X687698Y446110D01*
X687782Y446183D01*
X687791Y446193D01*
X687800Y446202D01*
X687818Y446230D01*
X687846Y446267D01*
X687874Y446322D01*
X687911Y446378D01*
X687948Y446461D01*
X687985Y446544D01*
X688022Y446646D01*
X688050Y446766D01*
X688087Y446905D01*
X688114Y447052D01*
X688142Y447219D01*
X688160Y447395D01*
X688179Y447598D01*
Y447811D01*
Y451509D01*
X689030D01*
Y447811D01*
D02*
G37*
G36*
X80025Y475412D02*
X80018D01*
X79990D01*
X79955Y475405D01*
X79907D01*
X79844Y475398D01*
X79775Y475391D01*
X79623Y475371D01*
X79456Y475336D01*
X79290Y475287D01*
X79214Y475260D01*
X79137Y475225D01*
X79075Y475183D01*
X79019Y475142D01*
X79005Y475128D01*
X78978Y475093D01*
X78936Y475038D01*
X78888Y474962D01*
X78839Y474864D01*
X78797Y474747D01*
X78770Y474615D01*
X78756Y474462D01*
Y474407D01*
X78763Y474351D01*
X78777Y474275D01*
X78790Y474185D01*
X78818Y474095D01*
X78853Y474005D01*
X78901Y473914D01*
X78908Y473901D01*
X78929Y473873D01*
X78964Y473838D01*
X79005Y473783D01*
X79061Y473734D01*
X79130Y473679D01*
X79207Y473630D01*
X79297Y473588D01*
X79310Y473582D01*
X79345Y473575D01*
X79408Y473561D01*
X79491Y473540D01*
X79602Y473526D01*
X79741Y473512D01*
X79900Y473505D01*
X79997Y473498D01*
X80094D01*
X84504D01*
Y472652D01*
X80143D01*
X80136D01*
X80108D01*
X80066D01*
X80011D01*
X79942Y472659D01*
X79865D01*
X79775Y472666D01*
X79685Y472680D01*
X79484Y472701D01*
X79276Y472736D01*
X79075Y472784D01*
X78985Y472819D01*
X78895Y472854D01*
X78888D01*
X78874Y472860D01*
X78853Y472874D01*
X78825Y472888D01*
X78742Y472937D01*
X78645Y473006D01*
X78541Y473089D01*
X78430Y473193D01*
X78326Y473325D01*
X78229Y473471D01*
Y473478D01*
X78222Y473492D01*
X78208Y473512D01*
X78194Y473547D01*
X78173Y473582D01*
X78159Y473630D01*
X78139Y473686D01*
X78118Y473748D01*
X78069Y473894D01*
X78035Y474060D01*
X78007Y474247D01*
X78000Y474455D01*
Y474538D01*
X78007Y474594D01*
X78014Y474663D01*
X78028Y474747D01*
X78042Y474837D01*
X78062Y474934D01*
X78083Y475038D01*
X78118Y475142D01*
X78152Y475253D01*
X78201Y475357D01*
X78257Y475468D01*
X78319Y475565D01*
X78395Y475662D01*
X78478Y475752D01*
X78485Y475759D01*
X78499Y475773D01*
X78527Y475794D01*
X78569Y475821D01*
X78617Y475856D01*
X78679Y475891D01*
X78756Y475932D01*
X78839Y475974D01*
X78936Y476009D01*
X79040Y476050D01*
X79158Y476085D01*
X79290Y476119D01*
X79428Y476140D01*
X79581Y476161D01*
X79741Y476175D01*
X79914D01*
X80025Y475412D01*
D02*
G37*
G36*
X82923Y470981D02*
X82930Y470961D01*
X82951Y470926D01*
X82972Y470877D01*
X82999Y470822D01*
X83041Y470752D01*
X83083Y470676D01*
X83124Y470600D01*
X83235Y470420D01*
X83367Y470225D01*
X83506Y470024D01*
X83665Y469837D01*
X83672Y469830D01*
X83686Y469816D01*
X83707Y469789D01*
X83742Y469754D01*
X83783Y469719D01*
X83825Y469671D01*
X83943Y469567D01*
X84067Y469449D01*
X84213Y469331D01*
X84366Y469227D01*
X84525Y469137D01*
Y468631D01*
X78104D01*
Y469414D01*
X83104D01*
X83090Y469428D01*
X83055Y469463D01*
X83006Y469525D01*
X82937Y469615D01*
X82854Y469719D01*
X82764Y469851D01*
X82667Y469997D01*
X82563Y470163D01*
Y470170D01*
X82549Y470184D01*
X82535Y470205D01*
X82521Y470239D01*
X82493Y470281D01*
X82472Y470330D01*
X82410Y470440D01*
X82348Y470565D01*
X82278Y470704D01*
X82216Y470849D01*
X82161Y470988D01*
X82916D01*
X82923Y470981D01*
D02*
G37*
G36*
X334646Y468800D02*
X329646D01*
X329660Y468786D01*
X329695Y468752D01*
X329743Y468689D01*
X329813Y468599D01*
X329896Y468495D01*
X329986Y468363D01*
X330083Y468218D01*
X330187Y468051D01*
Y468045D01*
X330201Y468031D01*
X330215Y468010D01*
X330229Y467975D01*
X330257Y467934D01*
X330277Y467885D01*
X330340Y467774D01*
X330402Y467649D01*
X330471Y467510D01*
X330534Y467365D01*
X330589Y467226D01*
X329834D01*
X329827Y467233D01*
X329820Y467254D01*
X329799Y467289D01*
X329778Y467337D01*
X329750Y467393D01*
X329709Y467462D01*
X329667Y467538D01*
X329626Y467615D01*
X329515Y467795D01*
X329383Y467989D01*
X329244Y468190D01*
X329085Y468377D01*
X329078Y468384D01*
X329064Y468398D01*
X329043Y468426D01*
X329008Y468461D01*
X328967Y468495D01*
X328925Y468544D01*
X328807Y468648D01*
X328683Y468766D01*
X328537Y468884D01*
X328384Y468988D01*
X328225Y469078D01*
Y469584D01*
X334646D01*
Y468800D01*
D02*
G37*
G36*
X332184Y465527D02*
X332274Y465520D01*
X332378Y465513D01*
X332496Y465507D01*
X332739Y465479D01*
X332995Y465444D01*
X333245Y465389D01*
X333363Y465354D01*
X333474Y465312D01*
X333481D01*
X333502Y465305D01*
X333530Y465292D01*
X333571Y465271D01*
X333620Y465243D01*
X333675Y465215D01*
X333800Y465132D01*
X333876Y465084D01*
X333946Y465028D01*
X334029Y464959D01*
X334105Y464889D01*
X334181Y464806D01*
X334258Y464723D01*
X334327Y464626D01*
X334396Y464522D01*
X334403Y464515D01*
X334410Y464494D01*
X334431Y464466D01*
X334452Y464418D01*
X334479Y464362D01*
X334507Y464293D01*
X334542Y464217D01*
X334570Y464120D01*
X334604Y464023D01*
X334639Y463912D01*
X334667Y463787D01*
X334694Y463655D01*
X334715Y463509D01*
X334736Y463357D01*
X334743Y463198D01*
X334750Y463031D01*
Y462941D01*
X334743Y462878D01*
Y462802D01*
X334736Y462719D01*
X334722Y462615D01*
X334708Y462511D01*
X334674Y462275D01*
X334618Y462026D01*
X334542Y461783D01*
X334500Y461665D01*
X334445Y461554D01*
X334438Y461547D01*
X334431Y461526D01*
X334410Y461499D01*
X334389Y461464D01*
X334355Y461415D01*
X334313Y461360D01*
X334271Y461304D01*
X334216Y461242D01*
X334091Y461103D01*
X333939Y460972D01*
X333758Y460847D01*
X333654Y460791D01*
X333550Y460743D01*
X333543D01*
X333522Y460736D01*
X333488Y460722D01*
X333439Y460708D01*
X333384Y460687D01*
X333308Y460667D01*
X333224Y460646D01*
X333127Y460625D01*
X333016Y460597D01*
X332898Y460576D01*
X332767Y460555D01*
X332621Y460542D01*
X332469Y460521D01*
X332302Y460514D01*
X332129Y460500D01*
X331942D01*
X328246D01*
Y461346D01*
X331942D01*
X331949D01*
X331976D01*
X332018D01*
X332080D01*
X332150Y461353D01*
X332226D01*
X332316Y461360D01*
X332406Y461367D01*
X332607Y461381D01*
X332808Y461408D01*
X333003Y461450D01*
X333093Y461471D01*
X333169Y461499D01*
X333176D01*
X333183Y461506D01*
X333204Y461512D01*
X333231Y461526D01*
X333308Y461568D01*
X333391Y461623D01*
X333495Y461693D01*
X333592Y461783D01*
X333689Y461894D01*
X333779Y462026D01*
Y462033D01*
X333786Y462046D01*
X333800Y462067D01*
X333814Y462095D01*
X333828Y462130D01*
X333842Y462178D01*
X333862Y462227D01*
X333883Y462282D01*
X333918Y462421D01*
X333952Y462580D01*
X333980Y462761D01*
X333987Y462955D01*
Y463045D01*
X333980Y463107D01*
X333973Y463184D01*
X333966Y463274D01*
X333952Y463371D01*
X333932Y463475D01*
X333883Y463690D01*
X333848Y463801D01*
X333807Y463912D01*
X333758Y464016D01*
X333703Y464113D01*
X333640Y464203D01*
X333564Y464286D01*
X333557Y464293D01*
X333543Y464307D01*
X333516Y464321D01*
X333481Y464349D01*
X333432Y464376D01*
X333370Y464411D01*
X333294Y464453D01*
X333204Y464487D01*
X333100Y464522D01*
X332982Y464563D01*
X332850Y464598D01*
X332704Y464626D01*
X332538Y464654D01*
X332358Y464674D01*
X332156Y464681D01*
X331942Y464688D01*
X328246D01*
Y465534D01*
X331942D01*
X331955D01*
X331983D01*
X332032D01*
X332101D01*
X332184Y465527D01*
D02*
G37*
G36*
X258509Y589399D02*
X254811D01*
X254801D01*
X254774D01*
X254727D01*
X254672D01*
X254607Y589390D01*
X254524D01*
X254348Y589381D01*
X254145Y589362D01*
X253941Y589335D01*
X253747Y589298D01*
X253664Y589279D01*
X253581Y589251D01*
X253563Y589242D01*
X253516Y589224D01*
X253451Y589178D01*
X253359Y589122D01*
X253267Y589057D01*
X253165Y588965D01*
X253063Y588854D01*
X252980Y588724D01*
X252971Y588706D01*
X252943Y588660D01*
X252915Y588577D01*
X252878Y588465D01*
X252832Y588336D01*
X252804Y588170D01*
X252777Y587994D01*
X252767Y587800D01*
Y587707D01*
X252777Y587652D01*
Y587569D01*
X252786Y587486D01*
X252823Y587282D01*
X252869Y587060D01*
X252943Y586848D01*
X253045Y586644D01*
X253109Y586552D01*
X253183Y586469D01*
X253193Y586459D01*
X253202Y586450D01*
X253230Y586432D01*
X253267Y586404D01*
X253322Y586376D01*
X253377Y586339D01*
X253461Y586302D01*
X253544Y586265D01*
X253646Y586228D01*
X253766Y586200D01*
X253904Y586163D01*
X254053Y586136D01*
X254219Y586108D01*
X254395Y586089D01*
X254598Y586071D01*
X254811D01*
X258509D01*
Y585220D01*
X254811D01*
X254801D01*
X254764D01*
X254718D01*
X254653D01*
X254570Y585230D01*
X254478D01*
X254367Y585239D01*
X254256Y585248D01*
X254006Y585276D01*
X253747Y585313D01*
X253498Y585368D01*
X253377Y585405D01*
X253267Y585442D01*
X253257D01*
X253239Y585452D01*
X253211Y585470D01*
X253174Y585489D01*
X253072Y585544D01*
X252943Y585627D01*
X252795Y585738D01*
X252647Y585868D01*
X252490Y586034D01*
X252351Y586237D01*
Y586247D01*
X252333Y586265D01*
X252323Y586293D01*
X252296Y586339D01*
X252268Y586395D01*
X252240Y586469D01*
X252213Y586543D01*
X252176Y586635D01*
X252139Y586737D01*
X252111Y586848D01*
X252083Y586968D01*
X252055Y587106D01*
X252037Y587245D01*
X252018Y587393D01*
X252000Y587726D01*
Y587809D01*
X252009Y587874D01*
Y587948D01*
X252018Y588040D01*
X252028Y588142D01*
X252037Y588244D01*
X252074Y588475D01*
X252129Y588724D01*
X252203Y588965D01*
X252305Y589196D01*
Y589205D01*
X252323Y589224D01*
X252342Y589251D01*
X252360Y589288D01*
X252435Y589390D01*
X252536Y589510D01*
X252666Y589649D01*
X252814Y589778D01*
X252999Y589908D01*
X253202Y590010D01*
X253211D01*
X253230Y590019D01*
X253267Y590028D01*
X253313Y590047D01*
X253368Y590065D01*
X253442Y590084D01*
X253526Y590111D01*
X253627Y590130D01*
X253738Y590148D01*
X253858Y590176D01*
X253988Y590195D01*
X254126Y590213D01*
X254284Y590232D01*
X254450Y590241D01*
X254626Y590250D01*
X254811D01*
X258509D01*
Y589399D01*
D02*
G37*
G36*
X252287Y584231D02*
X252370Y584222D01*
X252462Y584203D01*
X252555Y584185D01*
X252656Y584148D01*
X252666D01*
X252675Y584139D01*
X252730Y584120D01*
X252814Y584083D01*
X252924Y584028D01*
X253054Y583954D01*
X253202Y583861D01*
X253350Y583759D01*
X253507Y583630D01*
X253516D01*
X253526Y583612D01*
X253581Y583565D01*
X253664Y583482D01*
X253784Y583362D01*
X253923Y583223D01*
X254090Y583048D01*
X254274Y582835D01*
X254468Y582604D01*
X254478Y582595D01*
X254506Y582558D01*
X254552Y582502D01*
X254607Y582437D01*
X254681Y582354D01*
X254764Y582253D01*
X254857Y582151D01*
X254958Y582031D01*
X255180Y581800D01*
X255402Y581568D01*
X255513Y581457D01*
X255624Y581356D01*
X255726Y581263D01*
X255828Y581189D01*
X255837D01*
X255846Y581171D01*
X255874Y581152D01*
X255911Y581134D01*
X256012Y581069D01*
X256133Y580995D01*
X256281Y580930D01*
X256438Y580866D01*
X256614Y580829D01*
X256780Y580810D01*
X256789D01*
X256798D01*
X256854Y580819D01*
X256946Y580829D01*
X257048Y580856D01*
X257178Y580893D01*
X257307Y580958D01*
X257436Y581041D01*
X257566Y581152D01*
X257584Y581171D01*
X257621Y581217D01*
X257668Y581282D01*
X257732Y581383D01*
X257788Y581513D01*
X257843Y581661D01*
X257880Y581837D01*
X257889Y582031D01*
Y582086D01*
X257880Y582123D01*
X257871Y582234D01*
X257843Y582364D01*
X257806Y582502D01*
X257742Y582659D01*
X257658Y582807D01*
X257547Y582946D01*
X257529Y582964D01*
X257483Y583001D01*
X257409Y583057D01*
X257298Y583112D01*
X257168Y583177D01*
X257002Y583232D01*
X256817Y583270D01*
X256604Y583288D01*
X256688Y584092D01*
X256697D01*
X256724Y584083D01*
X256771D01*
X256835Y584074D01*
X256909Y584055D01*
X256993Y584037D01*
X257094Y584009D01*
X257196Y583981D01*
X257418Y583908D01*
X257640Y583797D01*
X257751Y583732D01*
X257862Y583649D01*
X257963Y583565D01*
X258056Y583473D01*
X258065Y583464D01*
X258074Y583445D01*
X258102Y583418D01*
X258130Y583371D01*
X258167Y583316D01*
X258204Y583251D01*
X258250Y583177D01*
X258296Y583085D01*
X258342Y582983D01*
X258389Y582872D01*
X258426Y582752D01*
X258463Y582622D01*
X258490Y582484D01*
X258518Y582336D01*
X258527Y582178D01*
X258537Y582012D01*
Y581920D01*
X258527Y581855D01*
X258518Y581781D01*
X258509Y581688D01*
X258490Y581587D01*
X258472Y581485D01*
X258407Y581245D01*
X258315Y581004D01*
X258259Y580884D01*
X258195Y580764D01*
X258111Y580653D01*
X258019Y580551D01*
X258010Y580542D01*
X258000Y580524D01*
X257963Y580505D01*
X257926Y580468D01*
X257880Y580422D01*
X257815Y580376D01*
X257751Y580329D01*
X257668Y580274D01*
X257492Y580182D01*
X257270Y580089D01*
X257159Y580052D01*
X257030Y580034D01*
X256900Y580015D01*
X256761Y580006D01*
X256743D01*
X256697D01*
X256623Y580015D01*
X256521Y580024D01*
X256410Y580043D01*
X256281Y580080D01*
X256142Y580117D01*
X256003Y580172D01*
X255985Y580182D01*
X255939Y580200D01*
X255865Y580237D01*
X255763Y580292D01*
X255652Y580366D01*
X255513Y580459D01*
X255375Y580570D01*
X255217Y580699D01*
X255199Y580718D01*
X255144Y580764D01*
X255097Y580810D01*
X255051Y580856D01*
X254995Y580912D01*
X254922Y580986D01*
X254848Y581060D01*
X254764Y581152D01*
X254672Y581245D01*
X254570Y581356D01*
X254468Y581476D01*
X254348Y581605D01*
X254228Y581753D01*
X254099Y581901D01*
X254090Y581910D01*
X254071Y581929D01*
X254043Y581966D01*
X254006Y582012D01*
X253951Y582068D01*
X253895Y582132D01*
X253775Y582280D01*
X253636Y582437D01*
X253498Y582585D01*
X253377Y582715D01*
X253331Y582770D01*
X253285Y582817D01*
X253276Y582826D01*
X253248Y582854D01*
X253211Y582891D01*
X253156Y582937D01*
X253091Y582983D01*
X253026Y583038D01*
X252869Y583149D01*
Y579997D01*
X252111D01*
Y584240D01*
X252120D01*
X252157D01*
X252213D01*
X252287Y584231D01*
D02*
G37*
G36*
X817060Y635326D02*
X817104Y635321D01*
X817154Y635310D01*
X817209Y635299D01*
X817270Y635288D01*
X817403Y635243D01*
X817475Y635210D01*
X817541Y635177D01*
X817613Y635133D01*
X817685Y635083D01*
X817757Y635028D01*
X817824Y634961D01*
X817829Y634955D01*
X817840Y634944D01*
X817857Y634922D01*
X817879Y634895D01*
X817907Y634861D01*
X817934Y634817D01*
X817968Y634767D01*
X817995Y634706D01*
X818029Y634646D01*
X818062Y634574D01*
X818090Y634501D01*
X818117Y634418D01*
X818139Y634330D01*
X818156Y634236D01*
X818167Y634142D01*
X818173Y634036D01*
Y633987D01*
X818167Y633953D01*
X818161Y633909D01*
X818156Y633859D01*
X818145Y633804D01*
X818134Y633743D01*
X818101Y633610D01*
X818045Y633472D01*
X818012Y633400D01*
X817973Y633333D01*
X817923Y633267D01*
X817874Y633200D01*
X817868Y633195D01*
X817857Y633184D01*
X817840Y633167D01*
X817818Y633150D01*
X817791Y633123D01*
X817752Y633095D01*
X817713Y633062D01*
X817663Y633029D01*
X817608Y632995D01*
X817552Y632962D01*
X817420Y632901D01*
X817264Y632851D01*
X817181Y632835D01*
X817093Y632824D01*
X817032Y633294D01*
X817038D01*
X817048Y633300D01*
X817071Y633306D01*
X817098Y633311D01*
X817132Y633316D01*
X817170Y633328D01*
X817253Y633355D01*
X817353Y633394D01*
X817447Y633444D01*
X817536Y633499D01*
X817613Y633566D01*
X817619Y633577D01*
X817641Y633599D01*
X817669Y633643D01*
X817696Y633699D01*
X817730Y633765D01*
X817757Y633848D01*
X817779Y633942D01*
X817785Y634042D01*
Y634075D01*
X817779Y634097D01*
X817774Y634158D01*
X817757Y634236D01*
X817730Y634324D01*
X817691Y634418D01*
X817635Y634513D01*
X817558Y634601D01*
X817547Y634612D01*
X817514Y634640D01*
X817464Y634673D01*
X817397Y634717D01*
X817314Y634762D01*
X817220Y634795D01*
X817109Y634823D01*
X816988Y634834D01*
X816982D01*
X816971D01*
X816954D01*
X816932Y634828D01*
X816871Y634823D01*
X816799Y634806D01*
X816711Y634784D01*
X816622Y634745D01*
X816534Y634690D01*
X816451Y634618D01*
X816439Y634607D01*
X816417Y634579D01*
X816384Y634535D01*
X816345Y634474D01*
X816307Y634396D01*
X816273Y634302D01*
X816251Y634197D01*
X816240Y634081D01*
Y634031D01*
X816246Y633992D01*
X816251Y633942D01*
X816262Y633887D01*
X816273Y633820D01*
X816290Y633748D01*
X815875Y633804D01*
Y633831D01*
X815880Y633854D01*
Y633926D01*
X815869Y633987D01*
X815858Y634058D01*
X815841Y634142D01*
X815814Y634236D01*
X815775Y634324D01*
X815725Y634418D01*
Y634424D01*
X815720Y634430D01*
X815697Y634457D01*
X815659Y634496D01*
X815609Y634540D01*
X815537Y634585D01*
X815454Y634623D01*
X815360Y634651D01*
X815304Y634662D01*
X815243D01*
X815238D01*
X815232D01*
X815199D01*
X815155Y634651D01*
X815094Y634640D01*
X815027Y634618D01*
X814956Y634590D01*
X814883Y634546D01*
X814817Y634485D01*
X814811Y634479D01*
X814789Y634452D01*
X814762Y634413D01*
X814728Y634363D01*
X814701Y634297D01*
X814673Y634219D01*
X814651Y634131D01*
X814645Y634031D01*
Y633987D01*
X814657Y633937D01*
X814668Y633870D01*
X814690Y633798D01*
X814717Y633726D01*
X814762Y633649D01*
X814817Y633577D01*
X814823Y633571D01*
X814850Y633549D01*
X814889Y633516D01*
X814944Y633477D01*
X815016Y633438D01*
X815105Y633400D01*
X815210Y633366D01*
X815332Y633344D01*
X815249Y632874D01*
X815243D01*
X815227Y632879D01*
X815205Y632885D01*
X815171Y632890D01*
X815133Y632901D01*
X815088Y632918D01*
X814983Y632951D01*
X814861Y633007D01*
X814740Y633073D01*
X814623Y633156D01*
X814518Y633261D01*
X814512Y633267D01*
X814507Y633278D01*
X814496Y633294D01*
X814479Y633316D01*
X814457Y633344D01*
X814435Y633383D01*
X814413Y633422D01*
X814385Y633472D01*
X814341Y633582D01*
X814296Y633710D01*
X814269Y633859D01*
X814258Y633937D01*
Y634075D01*
X814263Y634136D01*
X814274Y634208D01*
X814291Y634297D01*
X814319Y634396D01*
X814352Y634496D01*
X814396Y634596D01*
Y634601D01*
X814402Y634607D01*
X814418Y634640D01*
X814452Y634690D01*
X814490Y634745D01*
X814546Y634812D01*
X814607Y634878D01*
X814679Y634944D01*
X814762Y635000D01*
X814773Y635005D01*
X814800Y635022D01*
X814850Y635044D01*
X814911Y635072D01*
X814983Y635099D01*
X815066Y635122D01*
X815160Y635138D01*
X815255Y635144D01*
X815266D01*
X815299D01*
X815343Y635138D01*
X815404Y635127D01*
X815476Y635111D01*
X815554Y635083D01*
X815631Y635050D01*
X815708Y635005D01*
X815720Y635000D01*
X815742Y634983D01*
X815780Y634950D01*
X815825Y634906D01*
X815875Y634850D01*
X815930Y634784D01*
X815980Y634706D01*
X816030Y634612D01*
Y634618D01*
X816035Y634629D01*
X816041Y634646D01*
X816046Y634668D01*
X816068Y634729D01*
X816102Y634806D01*
X816146Y634895D01*
X816201Y634983D01*
X816273Y635066D01*
X816356Y635144D01*
X816367Y635149D01*
X816401Y635172D01*
X816456Y635205D01*
X816528Y635238D01*
X816617Y635271D01*
X816722Y635304D01*
X816844Y635326D01*
X816976Y635332D01*
X816982D01*
X816999D01*
X817026D01*
X817060Y635326D01*
D02*
G37*
G36*
X816284Y632309D02*
X816329D01*
X816434Y632303D01*
X816556Y632287D01*
X816683Y632270D01*
X816816Y632242D01*
X816949Y632209D01*
X816954D01*
X816965Y632204D01*
X816982Y632198D01*
X817004Y632192D01*
X817065Y632170D01*
X817143Y632137D01*
X817231Y632104D01*
X817320Y632060D01*
X817414Y632004D01*
X817503Y631949D01*
X817514Y631943D01*
X817541Y631921D01*
X817580Y631888D01*
X817630Y631844D01*
X817685Y631794D01*
X817741Y631733D01*
X817802Y631672D01*
X817851Y631600D01*
X817857Y631589D01*
X817874Y631567D01*
X817896Y631528D01*
X817923Y631473D01*
X817957Y631406D01*
X817984Y631329D01*
X818018Y631240D01*
X818045Y631140D01*
Y631129D01*
X818051Y631113D01*
X818056Y631096D01*
X818062Y631041D01*
X818073Y630963D01*
X818084Y630875D01*
X818095Y630769D01*
X818101Y630653D01*
X818106Y630526D01*
Y629147D01*
X814274D01*
Y630620D01*
X814280Y630720D01*
X814286Y630830D01*
X814296Y630941D01*
X814313Y631052D01*
X814330Y631146D01*
Y631152D01*
X814335Y631163D01*
Y631179D01*
X814346Y631201D01*
X814363Y631262D01*
X814391Y631340D01*
X814429Y631428D01*
X814479Y631522D01*
X814535Y631617D01*
X814607Y631705D01*
X814612Y631711D01*
X814618Y631716D01*
X814634Y631733D01*
X814651Y631755D01*
X814706Y631810D01*
X814784Y631877D01*
X814878Y631949D01*
X814989Y632026D01*
X815116Y632098D01*
X815260Y632159D01*
X815266D01*
X815277Y632165D01*
X815299Y632176D01*
X815332Y632181D01*
X815371Y632198D01*
X815415Y632209D01*
X815465Y632220D01*
X815526Y632237D01*
X815587Y632253D01*
X815659Y632265D01*
X815814Y632292D01*
X815985Y632309D01*
X816174Y632314D01*
X816179D01*
X816190D01*
X816218D01*
X816246D01*
X816284Y632309D01*
D02*
G37*
G36*
X453545Y525835D02*
X453609Y525826D01*
X453693Y525816D01*
X453785Y525798D01*
X453887Y525770D01*
X454099Y525705D01*
X454220Y525659D01*
X454330Y525594D01*
X454451Y525530D01*
X454562Y525456D01*
X454673Y525363D01*
X454784Y525262D01*
X454793Y525252D01*
X454811Y525234D01*
X454839Y525206D01*
X454867Y525160D01*
X454913Y525095D01*
X454959Y525031D01*
X455005Y524947D01*
X455061Y524855D01*
X455116Y524753D01*
X455163Y524633D01*
X455209Y524504D01*
X455255Y524374D01*
X455283Y524226D01*
X455311Y524069D01*
X455329Y523912D01*
X455338Y523736D01*
Y523644D01*
X455329Y523579D01*
X455320Y523496D01*
X455311Y523403D01*
X455292Y523302D01*
X455264Y523191D01*
X455200Y522941D01*
X455153Y522812D01*
X455107Y522691D01*
X455042Y522562D01*
X454968Y522433D01*
X454885Y522312D01*
X454784Y522201D01*
X454774Y522192D01*
X454756Y522174D01*
X454728Y522146D01*
X454682Y522109D01*
X454626Y522072D01*
X454562Y522016D01*
X454488Y521970D01*
X454395Y521915D01*
X454303Y521859D01*
X454192Y521813D01*
X453961Y521721D01*
X453822Y521684D01*
X453683Y521656D01*
X453535Y521637D01*
X453387Y521628D01*
X453378D01*
X453360D01*
X453323D01*
X453286Y521637D01*
X453230D01*
X453166Y521647D01*
X453018Y521665D01*
X452851Y521702D01*
X452685Y521758D01*
X452509Y521841D01*
X452343Y521942D01*
X452333D01*
X452324Y521961D01*
X452278Y521998D01*
X452204Y522072D01*
X452112Y522174D01*
X452019Y522303D01*
X451917Y522460D01*
X451834Y522636D01*
X451769Y522849D01*
Y522839D01*
X451760Y522830D01*
X451751Y522802D01*
X451732Y522765D01*
X451696Y522682D01*
X451640Y522571D01*
X451566Y522451D01*
X451474Y522331D01*
X451372Y522220D01*
X451261Y522118D01*
X451242Y522109D01*
X451205Y522081D01*
X451132Y522044D01*
X451039Y522007D01*
X450919Y521961D01*
X450780Y521924D01*
X450623Y521896D01*
X450457Y521887D01*
X450447D01*
X450429D01*
X450392D01*
X450336Y521896D01*
X450281Y521906D01*
X450207Y521915D01*
X450050Y521952D01*
X449865Y522007D01*
X449671Y522100D01*
X449569Y522155D01*
X449467Y522220D01*
X449375Y522303D01*
X449282Y522386D01*
X449273Y522396D01*
X449264Y522414D01*
X449236Y522442D01*
X449208Y522479D01*
X449171Y522525D01*
X449134Y522590D01*
X449088Y522664D01*
X449042Y522738D01*
X448996Y522830D01*
X448950Y522932D01*
X448913Y523043D01*
X448876Y523163D01*
X448820Y523422D01*
X448811Y523570D01*
X448802Y523718D01*
Y523801D01*
X448811Y523856D01*
X448820Y523930D01*
X448829Y524013D01*
X448839Y524106D01*
X448866Y524198D01*
X448922Y524420D01*
X449005Y524642D01*
X449061Y524753D01*
X449125Y524864D01*
X449208Y524966D01*
X449292Y525067D01*
X449301Y525077D01*
X449310Y525086D01*
X449338Y525114D01*
X449375Y525151D01*
X449430Y525188D01*
X449486Y525234D01*
X449624Y525326D01*
X449800Y525419D01*
X450004Y525502D01*
X450235Y525567D01*
X450355Y525576D01*
X450484Y525585D01*
X450494D01*
X450503D01*
X450558D01*
X450642Y525576D01*
X450743Y525558D01*
X450873Y525530D01*
X451002Y525484D01*
X451132Y525428D01*
X451261Y525345D01*
X451279Y525336D01*
X451316Y525299D01*
X451372Y525243D01*
X451446Y525169D01*
X451529Y525067D01*
X451612Y524947D01*
X451696Y524809D01*
X451769Y524642D01*
Y524651D01*
X451779Y524670D01*
X451788Y524698D01*
X451806Y524735D01*
X451853Y524846D01*
X451917Y524975D01*
X452010Y525114D01*
X452112Y525262D01*
X452241Y525400D01*
X452389Y525530D01*
X452398D01*
X452407Y525539D01*
X452463Y525576D01*
X452555Y525631D01*
X452676Y525687D01*
X452823Y525742D01*
X452999Y525798D01*
X453193Y525835D01*
X453406Y525844D01*
X453415D01*
X453443D01*
X453489D01*
X453545Y525835D01*
D02*
G37*
G36*
X455227Y516552D02*
X455218D01*
X455181D01*
X455126D01*
X455052Y516562D01*
X454968Y516571D01*
X454876Y516589D01*
X454784Y516608D01*
X454682Y516645D01*
X454673D01*
X454663Y516654D01*
X454608Y516672D01*
X454525Y516709D01*
X454414Y516765D01*
X454284Y516839D01*
X454136Y516931D01*
X453988Y517033D01*
X453831Y517163D01*
X453822D01*
X453813Y517181D01*
X453757Y517227D01*
X453674Y517310D01*
X453554Y517431D01*
X453415Y517569D01*
X453249Y517745D01*
X453064Y517958D01*
X452870Y518189D01*
X452860Y518198D01*
X452833Y518235D01*
X452786Y518290D01*
X452731Y518355D01*
X452657Y518438D01*
X452574Y518540D01*
X452481Y518642D01*
X452380Y518762D01*
X452158Y518993D01*
X451936Y519224D01*
X451825Y519335D01*
X451714Y519437D01*
X451612Y519529D01*
X451511Y519603D01*
X451501D01*
X451492Y519622D01*
X451464Y519640D01*
X451427Y519659D01*
X451326Y519724D01*
X451205Y519798D01*
X451058Y519862D01*
X450900Y519927D01*
X450725Y519964D01*
X450558Y519982D01*
X450549D01*
X450540D01*
X450484Y519973D01*
X450392Y519964D01*
X450290Y519936D01*
X450161Y519899D01*
X450031Y519834D01*
X449902Y519751D01*
X449772Y519640D01*
X449754Y519622D01*
X449717Y519576D01*
X449671Y519511D01*
X449606Y519409D01*
X449551Y519280D01*
X449495Y519132D01*
X449458Y518956D01*
X449449Y518762D01*
Y518707D01*
X449458Y518670D01*
X449467Y518559D01*
X449495Y518429D01*
X449532Y518290D01*
X449597Y518133D01*
X449680Y517985D01*
X449791Y517847D01*
X449809Y517828D01*
X449856Y517791D01*
X449930Y517736D01*
X450041Y517680D01*
X450170Y517616D01*
X450336Y517560D01*
X450521Y517523D01*
X450734Y517505D01*
X450651Y516700D01*
X450642D01*
X450614Y516709D01*
X450568D01*
X450503Y516719D01*
X450429Y516737D01*
X450346Y516756D01*
X450244Y516783D01*
X450142Y516811D01*
X449920Y516885D01*
X449698Y516996D01*
X449588Y517061D01*
X449477Y517144D01*
X449375Y517227D01*
X449282Y517320D01*
X449273Y517329D01*
X449264Y517347D01*
X449236Y517375D01*
X449208Y517421D01*
X449171Y517477D01*
X449134Y517542D01*
X449088Y517616D01*
X449042Y517708D01*
X448996Y517810D01*
X448950Y517921D01*
X448913Y518041D01*
X448876Y518170D01*
X448848Y518309D01*
X448820Y518457D01*
X448811Y518614D01*
X448802Y518780D01*
Y518873D01*
X448811Y518938D01*
X448820Y519012D01*
X448829Y519104D01*
X448848Y519206D01*
X448866Y519307D01*
X448931Y519548D01*
X449024Y519788D01*
X449079Y519908D01*
X449144Y520029D01*
X449227Y520140D01*
X449319Y520241D01*
X449329Y520251D01*
X449338Y520269D01*
X449375Y520288D01*
X449412Y520325D01*
X449458Y520371D01*
X449523Y520417D01*
X449588Y520463D01*
X449671Y520519D01*
X449846Y520611D01*
X450068Y520704D01*
X450179Y520741D01*
X450309Y520759D01*
X450438Y520778D01*
X450577Y520787D01*
X450595D01*
X450642D01*
X450715Y520778D01*
X450817Y520768D01*
X450928Y520750D01*
X451058Y520713D01*
X451196Y520676D01*
X451335Y520620D01*
X451353Y520611D01*
X451400Y520593D01*
X451474Y520556D01*
X451575Y520500D01*
X451686Y520426D01*
X451825Y520334D01*
X451964Y520223D01*
X452121Y520093D01*
X452139Y520075D01*
X452195Y520029D01*
X452241Y519982D01*
X452287Y519936D01*
X452343Y519881D01*
X452417Y519807D01*
X452491Y519733D01*
X452574Y519640D01*
X452666Y519548D01*
X452768Y519437D01*
X452870Y519317D01*
X452990Y519187D01*
X453110Y519039D01*
X453240Y518891D01*
X453249Y518882D01*
X453267Y518864D01*
X453295Y518827D01*
X453332Y518780D01*
X453387Y518725D01*
X453443Y518660D01*
X453563Y518512D01*
X453702Y518355D01*
X453840Y518207D01*
X453961Y518078D01*
X454007Y518022D01*
X454053Y517976D01*
X454062Y517967D01*
X454090Y517939D01*
X454127Y517902D01*
X454183Y517856D01*
X454247Y517810D01*
X454312Y517754D01*
X454469Y517643D01*
Y520796D01*
X455227D01*
Y516552D01*
D02*
G37*
G36*
Y515110D02*
X453896Y514269D01*
X453887D01*
X453868Y514250D01*
X453840Y514232D01*
X453803Y514204D01*
X453702Y514139D01*
X453572Y514056D01*
X453434Y513954D01*
X453286Y513853D01*
X453147Y513751D01*
X453018Y513658D01*
X453008Y513649D01*
X452971Y513621D01*
X452916Y513575D01*
X452851Y513511D01*
X452713Y513372D01*
X452648Y513298D01*
X452592Y513224D01*
X452583Y513215D01*
X452574Y513196D01*
X452555Y513159D01*
X452528Y513104D01*
X452500Y513048D01*
X452472Y512984D01*
X452426Y512836D01*
Y512826D01*
X452417Y512808D01*
Y512771D01*
X452407Y512725D01*
X452398Y512660D01*
Y512586D01*
X452389Y512484D01*
Y511393D01*
X455227D01*
Y510543D01*
X448829D01*
Y513511D01*
X448839Y513584D01*
Y513668D01*
X448848Y513862D01*
X448876Y514065D01*
X448903Y514287D01*
X448950Y514491D01*
X448977Y514592D01*
X449005Y514675D01*
Y514685D01*
X449014Y514694D01*
X449042Y514749D01*
X449079Y514833D01*
X449144Y514934D01*
X449227Y515045D01*
X449338Y515165D01*
X449467Y515276D01*
X449615Y515387D01*
X449624D01*
X449634Y515397D01*
X449689Y515434D01*
X449782Y515471D01*
X449902Y515526D01*
X450041Y515572D01*
X450207Y515619D01*
X450383Y515646D01*
X450577Y515655D01*
X450586D01*
X450605D01*
X450642D01*
X450688Y515646D01*
X450752D01*
X450817Y515637D01*
X450974Y515600D01*
X451159Y515545D01*
X451353Y515471D01*
X451548Y515360D01*
X451640Y515286D01*
X451732Y515212D01*
X451742Y515202D01*
X451751Y515193D01*
X451779Y515165D01*
X451806Y515128D01*
X451843Y515082D01*
X451880Y515027D01*
X451927Y514953D01*
X451982Y514879D01*
X452028Y514786D01*
X452075Y514685D01*
X452130Y514574D01*
X452176Y514454D01*
X452213Y514315D01*
X452259Y514176D01*
X452287Y514019D01*
X452315Y513853D01*
X452324Y513871D01*
X452343Y513908D01*
X452380Y513964D01*
X452417Y514038D01*
X452518Y514204D01*
X452583Y514287D01*
X452639Y514361D01*
X452657Y514380D01*
X452703Y514426D01*
X452777Y514500D01*
X452870Y514592D01*
X452999Y514694D01*
X453138Y514814D01*
X453304Y514934D01*
X453489Y515064D01*
X455227Y516164D01*
Y515110D01*
D02*
G37*
G36*
X433206Y367827D02*
X432736D01*
Y370831D01*
X432728Y370822D01*
X432707Y370802D01*
X432669Y370773D01*
X432615Y370731D01*
X432552Y370681D01*
X432473Y370627D01*
X432386Y370568D01*
X432286Y370506D01*
X432282D01*
X432273Y370498D01*
X432261Y370489D01*
X432240Y370481D01*
X432215Y370464D01*
X432186Y370452D01*
X432119Y370414D01*
X432044Y370377D01*
X431961Y370335D01*
X431874Y370298D01*
X431790Y370264D01*
Y370718D01*
X431794Y370723D01*
X431807Y370727D01*
X431828Y370739D01*
X431857Y370752D01*
X431890Y370768D01*
X431932Y370793D01*
X431978Y370818D01*
X432024Y370843D01*
X432132Y370910D01*
X432248Y370989D01*
X432369Y371072D01*
X432482Y371168D01*
X432486Y371172D01*
X432494Y371181D01*
X432511Y371193D01*
X432532Y371214D01*
X432552Y371239D01*
X432582Y371264D01*
X432644Y371335D01*
X432715Y371410D01*
X432786Y371497D01*
X432848Y371589D01*
X432902Y371685D01*
X433206D01*
Y367827D01*
D02*
G37*
G36*
X429216Y371668D02*
X429266D01*
X429316Y371664D01*
X429428Y371660D01*
X429541Y371647D01*
X429653Y371635D01*
X429703Y371622D01*
X429749Y371614D01*
X429753D01*
X429766Y371610D01*
X429782Y371606D01*
X429803Y371597D01*
X429832Y371589D01*
X429866Y371581D01*
X429945Y371551D01*
X430032Y371514D01*
X430124Y371468D01*
X430220Y371410D01*
X430311Y371339D01*
X430316Y371335D01*
X430324Y371326D01*
X430341Y371314D01*
X430361Y371293D01*
X430386Y371268D01*
X430415Y371235D01*
X430449Y371202D01*
X430482Y371160D01*
X430520Y371114D01*
X430557Y371064D01*
X430595Y371010D01*
X430632Y370952D01*
X430703Y370822D01*
X430765Y370681D01*
Y370677D01*
X430774Y370664D01*
X430778Y370639D01*
X430790Y370610D01*
X430803Y370573D01*
X430815Y370527D01*
X430828Y370477D01*
X430845Y370418D01*
X430857Y370352D01*
X430870Y370281D01*
X430882Y370206D01*
X430895Y370127D01*
X430907Y370043D01*
X430911Y369956D01*
X430920Y369769D01*
Y369764D01*
Y369748D01*
Y369727D01*
Y369694D01*
X430915Y369656D01*
Y369610D01*
X430911Y369560D01*
X430907Y369506D01*
X430895Y369385D01*
X430874Y369256D01*
X430849Y369123D01*
X430815Y368990D01*
Y368985D01*
X430811Y368973D01*
X430803Y368956D01*
X430799Y368935D01*
X430786Y368906D01*
X430774Y368873D01*
X430745Y368794D01*
X430707Y368706D01*
X430661Y368610D01*
X430611Y368519D01*
X430553Y368431D01*
Y368427D01*
X430545Y368423D01*
X430536Y368411D01*
X430524Y368394D01*
X430495Y368356D01*
X430449Y368306D01*
X430399Y368248D01*
X430341Y368190D01*
X430274Y368136D01*
X430203Y368082D01*
X430199D01*
X430195Y368077D01*
X430170Y368061D01*
X430128Y368040D01*
X430074Y368011D01*
X430007Y367981D01*
X429928Y367948D01*
X429837Y367919D01*
X429741Y367890D01*
X429737D01*
X429728Y367886D01*
X429716D01*
X429695Y367882D01*
X429670Y367877D01*
X429637Y367869D01*
X429603Y367865D01*
X429566Y367861D01*
X429474Y367848D01*
X429370Y367836D01*
X429253Y367831D01*
X429128Y367827D01*
X427741D01*
Y371672D01*
X429174D01*
X429216Y371668D01*
D02*
G37*
G36*
X444373Y52643D02*
Y52636D01*
Y52608D01*
Y52566D01*
Y52511D01*
X444366Y52442D01*
Y52365D01*
X444359Y52275D01*
X444345Y52185D01*
X444324Y51984D01*
X444289Y51776D01*
X444241Y51575D01*
X444206Y51485D01*
X444171Y51395D01*
Y51388D01*
X444165Y51374D01*
X444151Y51353D01*
X444137Y51325D01*
X444088Y51242D01*
X444019Y51145D01*
X443936Y51041D01*
X443832Y50930D01*
X443700Y50826D01*
X443554Y50729D01*
X443547D01*
X443534Y50722D01*
X443513Y50708D01*
X443478Y50694D01*
X443443Y50673D01*
X443395Y50659D01*
X443339Y50639D01*
X443277Y50618D01*
X443131Y50569D01*
X442965Y50535D01*
X442778Y50507D01*
X442570Y50500D01*
X442486D01*
X442431Y50507D01*
X442362Y50514D01*
X442278Y50528D01*
X442188Y50542D01*
X442091Y50562D01*
X441987Y50583D01*
X441883Y50618D01*
X441772Y50653D01*
X441668Y50701D01*
X441557Y50757D01*
X441460Y50819D01*
X441363Y50895D01*
X441273Y50978D01*
X441266Y50985D01*
X441252Y50999D01*
X441231Y51027D01*
X441204Y51069D01*
X441169Y51117D01*
X441134Y51180D01*
X441093Y51256D01*
X441051Y51339D01*
X441016Y51436D01*
X440975Y51540D01*
X440940Y51658D01*
X440905Y51790D01*
X440885Y51928D01*
X440864Y52081D01*
X440850Y52241D01*
Y52414D01*
X441613Y52525D01*
Y52518D01*
Y52490D01*
X441620Y52455D01*
Y52407D01*
X441627Y52344D01*
X441634Y52275D01*
X441654Y52123D01*
X441689Y51956D01*
X441738Y51790D01*
X441765Y51714D01*
X441800Y51637D01*
X441842Y51575D01*
X441883Y51519D01*
X441897Y51505D01*
X441932Y51478D01*
X441987Y51436D01*
X442063Y51388D01*
X442161Y51339D01*
X442278Y51297D01*
X442410Y51270D01*
X442563Y51256D01*
X442618D01*
X442674Y51263D01*
X442750Y51277D01*
X442840Y51290D01*
X442930Y51318D01*
X443020Y51353D01*
X443111Y51401D01*
X443124Y51408D01*
X443152Y51429D01*
X443187Y51464D01*
X443242Y51505D01*
X443291Y51561D01*
X443346Y51630D01*
X443395Y51707D01*
X443437Y51797D01*
X443443Y51811D01*
X443450Y51845D01*
X443464Y51908D01*
X443485Y51991D01*
X443499Y52102D01*
X443513Y52241D01*
X443520Y52400D01*
X443527Y52497D01*
Y52594D01*
Y57004D01*
X444373D01*
Y52643D01*
D02*
G37*
G36*
X448741Y52858D02*
X449608D01*
Y52137D01*
X448741D01*
Y50604D01*
X447957D01*
Y52137D01*
X445170D01*
Y52858D01*
X448096Y57004D01*
X448741D01*
Y52858D01*
D02*
G37*
G36*
X173249Y472659D02*
X168249D01*
X168263Y472645D01*
X168298Y472610D01*
X168346Y472548D01*
X168416Y472458D01*
X168499Y472354D01*
X168589Y472222D01*
X168686Y472076D01*
X168790Y471910D01*
Y471903D01*
X168804Y471889D01*
X168818Y471868D01*
X168832Y471833D01*
X168859Y471792D01*
X168880Y471743D01*
X168943Y471632D01*
X169005Y471508D01*
X169074Y471369D01*
X169137Y471223D01*
X169192Y471085D01*
X168436D01*
X168430Y471092D01*
X168423Y471112D01*
X168402Y471147D01*
X168381Y471196D01*
X168353Y471251D01*
X168312Y471320D01*
X168270Y471397D01*
X168228Y471473D01*
X168117Y471653D01*
X167986Y471847D01*
X167847Y472048D01*
X167687Y472236D01*
X167681Y472243D01*
X167667Y472257D01*
X167646Y472284D01*
X167611Y472319D01*
X167570Y472354D01*
X167528Y472402D01*
X167410Y472506D01*
X167285Y472624D01*
X167140Y472742D01*
X166987Y472846D01*
X166828Y472936D01*
Y473442D01*
X173249D01*
Y472659D01*
D02*
G37*
G36*
Y465794D02*
X166849D01*
Y466640D01*
X172493D01*
Y469795D01*
X173249D01*
Y465794D01*
D02*
G37*
%LPC*%
G36*
X796648Y793325D02*
X795590D01*
Y792372D01*
X795594Y792317D01*
X795599Y792252D01*
X795604Y792178D01*
X795613Y792104D01*
X795627Y792030D01*
X795645Y791965D01*
X795650Y791956D01*
X795659Y791938D01*
X795673Y791910D01*
X795692Y791873D01*
X795719Y791832D01*
X795752Y791790D01*
X795793Y791748D01*
X795839Y791716D01*
X795844Y791711D01*
X795863Y791702D01*
X795890Y791688D01*
X795927Y791670D01*
X795969Y791656D01*
X796015Y791642D01*
X796071Y791633D01*
X796126Y791628D01*
X796131D01*
X796135D01*
X796163Y791633D01*
X796205Y791637D01*
X796260Y791647D01*
X796316Y791670D01*
X796380Y791697D01*
X796441Y791739D01*
X796501Y791795D01*
X796505Y791804D01*
X796524Y791827D01*
X796547Y791864D01*
X796574Y791924D01*
X796602Y791993D01*
X796625Y792086D01*
X796644Y792192D01*
X796648Y792317D01*
Y793325D01*
D02*
G37*
G36*
X795382Y787800D02*
X795373D01*
X795350D01*
X795308D01*
X795252Y787796D01*
X795192D01*
X795118Y787791D01*
X795040Y787786D01*
X794957Y787777D01*
X794776Y787754D01*
X794688Y787740D01*
X794605Y787722D01*
X794527Y787703D01*
X794453Y787676D01*
X794388Y787648D01*
X794333Y787616D01*
X794328D01*
X794323Y787606D01*
X794291Y787583D01*
X794249Y787542D01*
X794203Y787491D01*
X794157Y787421D01*
X794115Y787343D01*
X794083Y787255D01*
X794078Y787209D01*
X794074Y787158D01*
Y787130D01*
X794078Y787112D01*
X794088Y787065D01*
X794106Y787001D01*
X794138Y786931D01*
X794184Y786853D01*
X794212Y786816D01*
X794249Y786779D01*
X794286Y786742D01*
X794333Y786705D01*
X794337D01*
X794346Y786696D01*
X794360Y786686D01*
X794383Y786677D01*
X794416Y786659D01*
X794457Y786645D01*
X794503Y786626D01*
X794559Y786608D01*
X794628Y786594D01*
X794702Y786575D01*
X794790Y786557D01*
X794883Y786543D01*
X794994Y786534D01*
X795109Y786525D01*
X795238Y786515D01*
X795382D01*
X795387D01*
X795391D01*
X795414D01*
X795456D01*
X795511Y786520D01*
X795571D01*
X795645Y786525D01*
X795724Y786529D01*
X795812Y786538D01*
X795987Y786562D01*
X796075Y786575D01*
X796159Y786594D01*
X796237Y786612D01*
X796311Y786640D01*
X796376Y786668D01*
X796431Y786700D01*
X796436D01*
X796441Y786709D01*
X796454Y786719D01*
X796473Y786732D01*
X796514Y786774D01*
X796565Y786825D01*
X796611Y786894D01*
X796653Y786973D01*
X796672Y787014D01*
X796685Y787061D01*
X796690Y787112D01*
X796695Y787162D01*
Y787190D01*
X796690Y787209D01*
X796681Y787260D01*
X796667Y787320D01*
X796639Y787389D01*
X796598Y787463D01*
X796570Y787500D01*
X796542Y787537D01*
X796505Y787569D01*
X796464Y787602D01*
X796459D01*
X796450Y787611D01*
X796431Y787620D01*
X796408Y787634D01*
X796371Y787648D01*
X796329Y787666D01*
X796279Y787680D01*
X796219Y787699D01*
X796149Y787717D01*
X796071Y787736D01*
X795983Y787754D01*
X795886Y787768D01*
X795775Y787782D01*
X795655Y787791D01*
X795525Y787796D01*
X795382Y787800D01*
D02*
G37*
G36*
X816163Y631794D02*
X816157D01*
X816135D01*
X816107D01*
X816063Y631788D01*
X816013D01*
X815958Y631783D01*
X815891Y631777D01*
X815825Y631772D01*
X815675Y631744D01*
X815520Y631711D01*
X815376Y631661D01*
X815304Y631628D01*
X815243Y631595D01*
X815238D01*
X815227Y631583D01*
X815210Y631572D01*
X815188Y631561D01*
X815133Y631517D01*
X815066Y631462D01*
X814994Y631390D01*
X814922Y631306D01*
X814861Y631212D01*
X814811Y631113D01*
X814806Y631102D01*
X814800Y631074D01*
X814784Y631024D01*
X814767Y630952D01*
X814756Y630864D01*
X814740Y630753D01*
X814734Y630686D01*
Y630614D01*
X814728Y630542D01*
Y629656D01*
X817652D01*
Y630565D01*
X817646Y630603D01*
X817641Y630686D01*
X817635Y630780D01*
X817624Y630880D01*
X817608Y630980D01*
X817586Y631063D01*
X817580Y631074D01*
X817575Y631102D01*
X817558Y631140D01*
X817536Y631190D01*
X817503Y631246D01*
X817469Y631301D01*
X817431Y631356D01*
X817386Y631412D01*
X817375Y631417D01*
X817353Y631439D01*
X817314Y631473D01*
X817259Y631511D01*
X817187Y631556D01*
X817104Y631605D01*
X817010Y631650D01*
X816905Y631689D01*
X816899D01*
X816888Y631694D01*
X816871Y631700D01*
X816849Y631705D01*
X816822Y631711D01*
X816783Y631722D01*
X816744Y631733D01*
X816700Y631744D01*
X816589Y631761D01*
X816462Y631777D01*
X816318Y631788D01*
X816163Y631794D01*
D02*
G37*
G36*
X450475Y524781D02*
X450466D01*
X450457D01*
X450401D01*
X450318Y524762D01*
X450216Y524744D01*
X450105Y524707D01*
X449985Y524651D01*
X449865Y524577D01*
X449745Y524476D01*
X449735Y524467D01*
X449698Y524420D01*
X449652Y524356D01*
X449597Y524272D01*
X449541Y524161D01*
X449495Y524041D01*
X449458Y523893D01*
X449449Y523736D01*
Y523662D01*
X449467Y523579D01*
X449486Y523468D01*
X449523Y523348D01*
X449569Y523218D01*
X449643Y523098D01*
X449745Y522978D01*
X449754Y522969D01*
X449791Y522932D01*
X449856Y522886D01*
X449939Y522839D01*
X450041Y522784D01*
X450161Y522738D01*
X450290Y522701D01*
X450438Y522691D01*
X450447D01*
X450457D01*
X450512Y522701D01*
X450595Y522710D01*
X450697Y522728D01*
X450817Y522765D01*
X450937Y522812D01*
X451067Y522886D01*
X451178Y522978D01*
X451187Y522987D01*
X451224Y523033D01*
X451270Y523098D01*
X451316Y523181D01*
X451372Y523292D01*
X451418Y523422D01*
X451455Y523570D01*
X451464Y523736D01*
Y523755D01*
X451455Y523810D01*
X451446Y523893D01*
X451427Y524004D01*
X451390Y524124D01*
X451344Y524245D01*
X451270Y524374D01*
X451178Y524485D01*
X451169Y524494D01*
X451122Y524531D01*
X451067Y524577D01*
X450984Y524633D01*
X450882Y524688D01*
X450762Y524735D01*
X450623Y524772D01*
X450475Y524781D01*
D02*
G37*
G36*
X453415Y525040D02*
X453406D01*
X453387D01*
X453360D01*
X453323Y525031D01*
X453221Y525021D01*
X453082Y524994D01*
X452944Y524947D01*
X452786Y524883D01*
X452629Y524790D01*
X452481Y524661D01*
X452463Y524642D01*
X452426Y524596D01*
X452361Y524513D01*
X452287Y524402D01*
X452223Y524263D01*
X452158Y524097D01*
X452121Y523912D01*
X452102Y523708D01*
Y523653D01*
X452112Y523616D01*
X452121Y523514D01*
X452149Y523385D01*
X452195Y523237D01*
X452259Y523089D01*
X452352Y522932D01*
X452472Y522793D01*
X452491Y522775D01*
X452537Y522738D01*
X452620Y522682D01*
X452722Y522617D01*
X452860Y522543D01*
X453018Y522488D01*
X453193Y522451D01*
X453387Y522433D01*
X453406D01*
X453443D01*
X453508Y522442D01*
X453591Y522451D01*
X453693Y522469D01*
X453803Y522497D01*
X453914Y522534D01*
X454035Y522580D01*
X454044Y522590D01*
X454090Y522608D01*
X454146Y522645D01*
X454210Y522701D01*
X454294Y522765D01*
X454377Y522849D01*
X454451Y522941D01*
X454525Y523052D01*
X454534Y523070D01*
X454552Y523107D01*
X454580Y523172D01*
X454608Y523255D01*
X454636Y523357D01*
X454663Y523477D01*
X454682Y523607D01*
X454691Y523736D01*
Y523792D01*
X454682Y523829D01*
X454673Y523940D01*
X454645Y524069D01*
X454599Y524217D01*
X454543Y524374D01*
X454451Y524522D01*
X454330Y524670D01*
X454312Y524688D01*
X454266Y524725D01*
X454183Y524790D01*
X454081Y524855D01*
X453951Y524920D01*
X453794Y524984D01*
X453609Y525021D01*
X453415Y525040D01*
D02*
G37*
G36*
X450586Y514786D02*
X450577D01*
X450568D01*
X450512Y514777D01*
X450429Y514768D01*
X450318Y514749D01*
X450207Y514703D01*
X450078Y514648D01*
X449957Y514565D01*
X449837Y514454D01*
X449828Y514435D01*
X449791Y514389D01*
X449745Y514315D01*
X449689Y514195D01*
X449634Y514056D01*
X449588Y513871D01*
X449551Y513658D01*
X449541Y513409D01*
Y511393D01*
X451659D01*
Y513298D01*
X451649Y513409D01*
X451640Y513538D01*
X451631Y513686D01*
X451612Y513834D01*
X451585Y513982D01*
X451548Y514111D01*
X451538Y514130D01*
X451520Y514167D01*
X451492Y514222D01*
X451455Y514296D01*
X451400Y514380D01*
X451335Y514463D01*
X451252Y514546D01*
X451159Y514611D01*
X451150Y514620D01*
X451113Y514638D01*
X451058Y514666D01*
X450984Y514703D01*
X450900Y514731D01*
X450808Y514759D01*
X450697Y514777D01*
X450586Y514786D01*
D02*
G37*
G36*
X429137Y371218D02*
X428249D01*
Y368281D01*
X429132D01*
X429166Y368286D01*
X429203D01*
X429287Y368290D01*
X429383Y368298D01*
X429482Y368311D01*
X429578Y368327D01*
X429666Y368348D01*
X429670D01*
X429674Y368352D01*
X429687Y368356D01*
X429703Y368361D01*
X429741Y368377D01*
X429791Y368398D01*
X429845Y368427D01*
X429903Y368461D01*
X429962Y368502D01*
X430011Y368548D01*
X430016Y368552D01*
X430020Y368556D01*
X430041Y368581D01*
X430074Y368623D01*
X430116Y368677D01*
X430157Y368748D01*
X430203Y368831D01*
X430249Y368927D01*
X430291Y369035D01*
Y369040D01*
X430295Y369048D01*
X430299Y369065D01*
X430307Y369090D01*
X430316Y369119D01*
X430324Y369156D01*
X430332Y369198D01*
X430345Y369244D01*
X430353Y369294D01*
X430361Y369352D01*
X430370Y369410D01*
X430378Y369477D01*
X430391Y369619D01*
X430395Y369777D01*
Y369785D01*
Y369802D01*
Y369835D01*
X430391Y369877D01*
Y369927D01*
X430386Y369985D01*
X430378Y370048D01*
X430370Y370118D01*
X430345Y370268D01*
X430311Y370423D01*
X430261Y370568D01*
X430228Y370639D01*
X430195Y370702D01*
X430191Y370706D01*
X430186Y370714D01*
X430174Y370731D01*
X430157Y370756D01*
X430141Y370781D01*
X430116Y370810D01*
X430061Y370877D01*
X429991Y370952D01*
X429907Y371022D01*
X429816Y371089D01*
X429766Y371114D01*
X429712Y371139D01*
X429707D01*
X429703Y371143D01*
X429691Y371147D01*
X429674Y371152D01*
X429649Y371156D01*
X429624Y371164D01*
X429591Y371172D01*
X429553Y371181D01*
X429512Y371185D01*
X429462Y371193D01*
X429408Y371202D01*
X429349Y371206D01*
X429282Y371210D01*
X429212Y371214D01*
X429137Y371218D01*
D02*
G37*
G36*
X447957Y55742D02*
X445940Y52858D01*
X447957D01*
Y55742D01*
D02*
G37*
%LPD*%
D14*
X557755Y610250D02*
Y605252D01*
X555256D01*
X554423Y606085D01*
Y607751D01*
X555256Y608584D01*
X557755D01*
X556089D02*
X554423Y610250D01*
X552757Y606085D02*
X551923Y605252D01*
X550257D01*
X549424Y606085D01*
Y606918D01*
X550257Y607751D01*
X551091D01*
X550257D01*
X549424Y608584D01*
Y609417D01*
X550257Y610250D01*
X551923D01*
X552757Y609417D01*
X544426Y605252D02*
X547758D01*
Y607751D01*
X546092Y606918D01*
X545259D01*
X544426Y607751D01*
Y609417D01*
X545259Y610250D01*
X546925D01*
X547758Y609417D01*
X769750Y419750D02*
Y414752D01*
X767251D01*
X766418Y415585D01*
Y417251D01*
X767251Y418084D01*
X769750D01*
X768084D02*
X766418Y419750D01*
X764752Y415585D02*
X763919Y414752D01*
X762253D01*
X761419Y415585D01*
Y416418D01*
X762253Y417251D01*
X763085D01*
X762253D01*
X761419Y418084D01*
Y418917D01*
X762253Y419750D01*
X763919D01*
X764752Y418917D01*
X759753Y415585D02*
X758920Y414752D01*
X757254D01*
X756421Y415585D01*
Y418917D01*
X757254Y419750D01*
X758920D01*
X759753Y418917D01*
Y415585D01*
X542255Y621750D02*
Y626748D01*
X544754D01*
X545587Y625915D01*
Y624249D01*
X544754Y623416D01*
X542255D01*
X543921D02*
X545587Y621750D01*
X547253Y625915D02*
X548087Y626748D01*
X549753D01*
X550586Y625915D01*
Y625082D01*
X549753Y624249D01*
X548919D01*
X549753D01*
X550586Y623416D01*
Y622583D01*
X549753Y621750D01*
X548087D01*
X547253Y622583D01*
X554751Y621750D02*
Y626748D01*
X552252Y624249D01*
X555584D01*
X475250Y502000D02*
X470252D01*
Y504499D01*
X471085Y505332D01*
X472751D01*
X473584Y504499D01*
Y502000D01*
Y503666D02*
X475250Y505332D01*
Y510331D02*
Y506998D01*
X471918Y510331D01*
X471085D01*
X470252Y509497D01*
Y507831D01*
X471085Y506998D01*
X470252Y511997D02*
Y515329D01*
X471085D01*
X474417Y511997D01*
X475250D01*
X514173Y387960D02*
X515006Y387127D01*
X516672D01*
X517505Y387960D01*
Y391292D01*
X516672Y392125D01*
X515006D01*
X514173Y391292D01*
X512507Y392125D02*
X510840D01*
X511674D01*
Y387127D01*
X512507Y387960D01*
X508341D02*
X507508Y387127D01*
X505842D01*
X505009Y387960D01*
Y391292D01*
X505842Y392125D01*
X507508D01*
X508341Y391292D01*
Y387960D01*
X268854Y544488D02*
X268021Y543655D01*
Y541989D01*
X268854Y541156D01*
X272186D01*
X273019Y541989D01*
Y543655D01*
X272186Y544488D01*
X273019Y549486D02*
Y546154D01*
X269687Y549486D01*
X268854D01*
X268021Y548653D01*
Y546987D01*
X268854Y546154D01*
X225835Y545582D02*
X225002Y544749D01*
Y543083D01*
X225835Y542250D01*
X229167D01*
X230000Y543083D01*
Y544749D01*
X229167Y545582D01*
X230000Y547248D02*
Y548914D01*
Y548081D01*
X225002D01*
X225835Y547248D01*
X344446Y519750D02*
Y524748D01*
X346945D01*
X347778Y523915D01*
Y522249D01*
X346945Y521416D01*
X344446D01*
X346112D02*
X347778Y519750D01*
X349444D02*
X351110D01*
X350277D01*
Y524748D01*
X349444Y523915D01*
X353609D02*
X354442Y524748D01*
X356109D01*
X356942Y523915D01*
Y523082D01*
X356109Y522249D01*
X355275D01*
X356109D01*
X356942Y521416D01*
Y520583D01*
X356109Y519750D01*
X354442D01*
X353609Y520583D01*
X478250Y422750D02*
X473252D01*
Y425249D01*
X474085Y426082D01*
X475751D01*
X476584Y425249D01*
Y422750D01*
Y424416D02*
X478250Y426082D01*
Y427748D02*
Y429414D01*
Y428581D01*
X473252D01*
X474085Y427748D01*
X478250Y431914D02*
Y433580D01*
Y432747D01*
X473252D01*
X474085Y431914D01*
X390500Y504000D02*
Y508998D01*
X392999D01*
X393832Y508165D01*
Y506499D01*
X392999Y505666D01*
X390500D01*
X392166D02*
X393832Y504000D01*
X395498Y508165D02*
X396331Y508998D01*
X397998D01*
X398831Y508165D01*
Y507332D01*
X397998Y506499D01*
X398831Y505666D01*
Y504833D01*
X397998Y504000D01*
X396331D01*
X395498Y504833D01*
Y505666D01*
X396331Y506499D01*
X395498Y507332D01*
Y508165D01*
X396331Y506499D02*
X397998D01*
X427750Y436750D02*
X432748D01*
Y434251D01*
X431915Y433418D01*
X430249D01*
X429416Y434251D01*
Y436750D01*
Y435084D02*
X427750Y433418D01*
Y431752D02*
Y430085D01*
Y430919D01*
X432748D01*
X431915Y431752D01*
X427750Y424254D02*
Y427586D01*
X431082Y424254D01*
X431915D01*
X432748Y425087D01*
Y426753D01*
X431915Y427586D01*
X406000Y490250D02*
Y485252D01*
X403501D01*
X402668Y486085D01*
Y487751D01*
X403501Y488584D01*
X406000D01*
X404334D02*
X402668Y490250D01*
X401002Y489417D02*
X400168Y490250D01*
X398502D01*
X397669Y489417D01*
Y486085D01*
X398502Y485252D01*
X400168D01*
X401002Y486085D01*
Y486918D01*
X400168Y487751D01*
X397669D01*
D115*
X68835Y698499D02*
Y693501D01*
X71334D01*
X72167Y694334D01*
Y697666D01*
X71334Y698499D01*
X68835D01*
X76332Y693501D02*
Y698499D01*
X73833Y696000D01*
X77165D01*
D116*
X761301Y453551D02*
X761801Y453051D01*
X762800D01*
X763300Y453551D01*
Y455550D01*
X762800Y456050D01*
X761801D01*
X761301Y455550D01*
X760301Y453551D02*
X759801Y453051D01*
X758801D01*
X758302Y453551D01*
Y454051D01*
X758801Y454551D01*
X759301D01*
X758801D01*
X758302Y455050D01*
Y455550D01*
X758801Y456050D01*
X759801D01*
X760301Y455550D01*
X757302Y456050D02*
X756302D01*
X756802D01*
Y453051D01*
X757302Y453551D01*
X674801Y494801D02*
X675301Y494301D01*
X676300D01*
X676800Y494801D01*
Y496800D01*
X676300Y497300D01*
X675301D01*
X674801Y496800D01*
X673801Y494801D02*
X673301Y494301D01*
X672301D01*
X671802Y494801D01*
Y495301D01*
X672301Y495801D01*
X672801D01*
X672301D01*
X671802Y496300D01*
Y496800D01*
X672301Y497300D01*
X673301D01*
X673801Y496800D01*
X670802Y494801D02*
X670302Y494301D01*
X669302D01*
X668803Y494801D01*
Y496800D01*
X669302Y497300D01*
X670302D01*
X670802Y496800D01*
Y494801D01*
X602551Y379699D02*
X602051Y379200D01*
Y378200D01*
X602551Y377700D01*
X604550D01*
X605050Y378200D01*
Y379200D01*
X604550Y379699D01*
X605050Y382698D02*
Y380699D01*
X603051Y382698D01*
X602551D01*
X602051Y382199D01*
Y381199D01*
X602551Y380699D01*
X604550Y383698D02*
X605050Y384198D01*
Y385198D01*
X604550Y385698D01*
X602551D01*
X602051Y385198D01*
Y384198D01*
X602551Y383698D01*
X603051D01*
X603550Y384198D01*
Y385698D01*
X602551Y412199D02*
X602051Y411700D01*
Y410700D01*
X602551Y410200D01*
X604550D01*
X605050Y410700D01*
Y411700D01*
X604550Y412199D01*
X605050Y415199D02*
Y413199D01*
X603051Y415199D01*
X602551D01*
X602051Y414699D01*
Y413699D01*
X602551Y413199D01*
Y416198D02*
X602051Y416698D01*
Y417698D01*
X602551Y418198D01*
X603051D01*
X603550Y417698D01*
X604050Y418198D01*
X604550D01*
X605050Y417698D01*
Y416698D01*
X604550Y416198D01*
X604050D01*
X603550Y416698D01*
X603051Y416198D01*
X602551D01*
X603550Y416698D02*
Y417698D01*
X602551Y444699D02*
X602051Y444199D01*
Y443200D01*
X602551Y442700D01*
X604550D01*
X605050Y443200D01*
Y444199D01*
X604550Y444699D01*
X602051Y447698D02*
Y445699D01*
X603550D01*
X603051Y446699D01*
Y447199D01*
X603550Y447698D01*
X604550D01*
X605050Y447199D01*
Y446199D01*
X604550Y445699D01*
X602551Y477200D02*
X602051Y476700D01*
Y475700D01*
X602551Y475200D01*
X604550D01*
X605050Y475700D01*
Y476700D01*
X604550Y477200D01*
X605050Y479699D02*
X602051D01*
X603550Y478199D01*
Y480199D01*
X603259Y508435D02*
X602759Y507935D01*
Y506935D01*
X603259Y506435D01*
X605258D01*
X605758Y506935D01*
Y507935D01*
X605258Y508435D01*
X603259Y509434D02*
X602759Y509934D01*
Y510934D01*
X603259Y511434D01*
X603759D01*
X604258Y510934D01*
Y510434D01*
Y510934D01*
X604758Y511434D01*
X605258D01*
X605758Y510934D01*
Y509934D01*
X605258Y509434D01*
X67365Y604718D02*
X68198Y605551D01*
Y607217D01*
X67365Y608050D01*
X64033D01*
X63200Y607217D01*
Y605551D01*
X64033Y604718D01*
X67365Y603052D02*
X68198Y602219D01*
Y600552D01*
X67365Y599719D01*
X66532D01*
X65699Y600552D01*
Y601385D01*
Y600552D01*
X64866Y599719D01*
X64033D01*
X63200Y600552D01*
Y602219D01*
X64033Y603052D01*
X68198Y594721D02*
Y598053D01*
X65699D01*
X66532Y596387D01*
Y595554D01*
X65699Y594721D01*
X64033D01*
X63200Y595554D01*
Y597220D01*
X64033Y598053D01*
X322968Y580135D02*
X323801Y579302D01*
X325467D01*
X326300Y580135D01*
Y583467D01*
X325467Y584300D01*
X323801D01*
X322968Y583467D01*
X317969Y584300D02*
X321302D01*
X317969Y580968D01*
Y580135D01*
X318803Y579302D01*
X320469D01*
X321302Y580135D01*
X312971Y579302D02*
X316303D01*
Y581801D01*
X314637Y580968D01*
X313804D01*
X312971Y581801D01*
Y583467D01*
X313804Y584300D01*
X315470D01*
X316303Y583467D01*
X191115Y604718D02*
X191948Y605551D01*
Y607217D01*
X191115Y608050D01*
X187783D01*
X186950Y607217D01*
Y605551D01*
X187783Y604718D01*
X186950Y603052D02*
Y601385D01*
Y602219D01*
X191948D01*
X191115Y603052D01*
X191948Y595554D02*
Y598886D01*
X189449D01*
X190282Y597220D01*
Y596387D01*
X189449Y595554D01*
X187783D01*
X186950Y596387D01*
Y598053D01*
X187783Y598886D01*
X662301Y341699D02*
X661801Y341199D01*
Y340200D01*
X662301Y339700D01*
X664300D01*
X664800Y340200D01*
Y341199D01*
X664300Y341699D01*
X662301Y342699D02*
X661801Y343199D01*
Y344198D01*
X662301Y344698D01*
X662801D01*
X663300Y344198D01*
Y343699D01*
Y344198D01*
X663800Y344698D01*
X664300D01*
X664800Y344198D01*
Y343199D01*
X664300Y342699D01*
X664800Y347198D02*
X661801D01*
X663300Y345698D01*
Y347697D01*
X614699Y348301D02*
X615199Y348801D01*
Y349800D01*
X614699Y350300D01*
X612700D01*
X612200Y349800D01*
Y348801D01*
X612700Y348301D01*
X614699Y347301D02*
X615199Y346801D01*
Y345802D01*
X614699Y345302D01*
X614199D01*
X613699Y345802D01*
Y346301D01*
Y345802D01*
X613200Y345302D01*
X612700D01*
X612200Y345802D01*
Y346801D01*
X612700Y347301D01*
X612200Y342303D02*
Y344302D01*
X614199Y342303D01*
X614699D01*
X615199Y342802D01*
Y343802D01*
X614699Y344302D01*
X634949Y370699D02*
X634450Y371199D01*
X633450D01*
X632950Y370699D01*
Y368700D01*
X633450Y368200D01*
X634450D01*
X634949Y368700D01*
X635949Y370699D02*
X636449Y371199D01*
X637449D01*
X637948Y370699D01*
Y370199D01*
X637449Y369700D01*
X636949D01*
X637449D01*
X637948Y369200D01*
Y368700D01*
X637449Y368200D01*
X636449D01*
X635949Y368700D01*
X638948Y370699D02*
X639448Y371199D01*
X640448D01*
X640947Y370699D01*
Y370199D01*
X640448Y369700D01*
X639948D01*
X640448D01*
X640947Y369200D01*
Y368700D01*
X640448Y368200D01*
X639448D01*
X638948Y368700D01*
X322968Y549135D02*
X323801Y548302D01*
X325467D01*
X326300Y549135D01*
Y552467D01*
X325467Y553300D01*
X323801D01*
X322968Y552467D01*
X317969Y553300D02*
X321302D01*
X317969Y549968D01*
Y549135D01*
X318803Y548302D01*
X320469D01*
X321302Y549135D01*
X313804Y553300D02*
Y548302D01*
X316303Y550801D01*
X312971D01*
X320381Y507341D02*
X320881Y506841D01*
X321880D01*
X322380Y507341D01*
Y509340D01*
X321880Y509840D01*
X320881D01*
X320381Y509340D01*
X317382Y509840D02*
X319381D01*
X317382Y507841D01*
Y507341D01*
X317882Y506841D01*
X318881D01*
X319381Y507341D01*
X314383Y506841D02*
X315382Y507341D01*
X316382Y508340D01*
Y509340D01*
X315882Y509840D01*
X314883D01*
X314383Y509340D01*
Y508840D01*
X314883Y508340D01*
X316382D01*
X393199Y457949D02*
X392700Y458449D01*
X391700D01*
X391200Y457949D01*
Y455950D01*
X391700Y455450D01*
X392700D01*
X393199Y455950D01*
X396198Y458449D02*
X395199Y457949D01*
X394199Y456950D01*
Y455950D01*
X394699Y455450D01*
X395699D01*
X396198Y455950D01*
Y456450D01*
X395699Y456950D01*
X394199D01*
X347576Y505341D02*
X348076Y504841D01*
X349076D01*
X349576Y505341D01*
Y507340D01*
X349076Y507840D01*
X348076D01*
X347576Y507340D01*
X344577Y507840D02*
X346577D01*
X344577Y505841D01*
Y505341D01*
X345077Y504841D01*
X346077D01*
X346577Y505341D01*
X343578Y504841D02*
X341578D01*
Y505341D01*
X343578Y507340D01*
Y507840D01*
X334881Y424341D02*
X335381Y423841D01*
X336380D01*
X336880Y424341D01*
Y426340D01*
X336380Y426840D01*
X335381D01*
X334881Y426340D01*
X333881D02*
X333381Y426840D01*
X332382D01*
X331882Y426340D01*
Y424341D01*
X332382Y423841D01*
X333381D01*
X333881Y424341D01*
Y424841D01*
X333381Y425340D01*
X331882D01*
X292341Y479119D02*
X291841Y478619D01*
Y477620D01*
X292341Y477120D01*
X294340D01*
X294840Y477620D01*
Y478619D01*
X294340Y479119D01*
X294840Y480119D02*
Y481119D01*
Y480619D01*
X291841D01*
X292341Y480119D01*
X294340Y482618D02*
X294840Y483118D01*
Y484118D01*
X294340Y484618D01*
X292341D01*
X291841Y484118D01*
Y483118D01*
X292341Y482618D01*
X292841D01*
X293340Y483118D01*
Y484618D01*
X293659Y461881D02*
X294159Y462380D01*
Y463380D01*
X293659Y463880D01*
X291660D01*
X291160Y463380D01*
Y462380D01*
X291660Y461881D01*
X291160Y458882D02*
Y460881D01*
X293159Y458882D01*
X293659D01*
X294159Y459381D01*
Y460381D01*
X293659Y460881D01*
Y457882D02*
X294159Y457382D01*
Y456382D01*
X293659Y455883D01*
X291660D01*
X291160Y456382D01*
Y457382D01*
X291660Y457882D01*
X293659D01*
X270782Y428115D02*
X269949Y428948D01*
X268283D01*
X267450Y428115D01*
Y424783D01*
X268283Y423950D01*
X269949D01*
X270782Y424783D01*
X275781Y423950D02*
X272448D01*
X275781Y427282D01*
Y428115D01*
X274947Y428948D01*
X273281D01*
X272448Y428115D01*
X277447Y423950D02*
X279113D01*
X278280D01*
Y428948D01*
X277447Y428115D01*
X160115Y604718D02*
X160948Y605551D01*
Y607217D01*
X160115Y608050D01*
X156783D01*
X155950Y607217D01*
Y605551D01*
X156783Y604718D01*
X155950Y603052D02*
Y601385D01*
Y602219D01*
X160948D01*
X160115Y603052D01*
X160948Y595554D02*
X160115Y597220D01*
X158449Y598886D01*
X156783D01*
X155950Y598053D01*
Y596387D01*
X156783Y595554D01*
X157616D01*
X158449Y596387D01*
Y598886D01*
X129115Y604718D02*
X129948Y605551D01*
Y607217D01*
X129115Y608050D01*
X125783D01*
X124950Y607217D01*
Y605551D01*
X125783Y604718D01*
X124950Y603052D02*
Y601385D01*
Y602219D01*
X129948D01*
X129115Y603052D01*
X129948Y598886D02*
Y595554D01*
X129115D01*
X125783Y598886D01*
X124950D01*
X98115Y604718D02*
X98948Y605551D01*
Y607217D01*
X98115Y608050D01*
X94783D01*
X93950Y607217D01*
Y605551D01*
X94783Y604718D01*
X93950Y603052D02*
Y601385D01*
Y602219D01*
X98948D01*
X98115Y603052D01*
Y598886D02*
X98948Y598053D01*
Y596387D01*
X98115Y595554D01*
X97282D01*
X96449Y596387D01*
X95616Y595554D01*
X94783D01*
X93950Y596387D01*
Y598053D01*
X94783Y598886D01*
X95616D01*
X96449Y598053D01*
X97282Y598886D01*
X98115D01*
X96449Y598053D02*
Y596387D01*
X270782Y397115D02*
X269949Y397948D01*
X268283D01*
X267450Y397115D01*
Y393783D01*
X268283Y392950D01*
X269949D01*
X270782Y393783D01*
X275781Y392950D02*
X272448D01*
X275781Y396282D01*
Y397115D01*
X274947Y397948D01*
X273281D01*
X272448Y397115D01*
X280779Y392950D02*
X277447D01*
X280779Y396282D01*
Y397115D01*
X279946Y397948D01*
X278280D01*
X277447Y397115D01*
X270782Y366115D02*
X269949Y366948D01*
X268283D01*
X267450Y366115D01*
Y362783D01*
X268283Y361950D01*
X269949D01*
X270782Y362783D01*
X275781Y361950D02*
X272448D01*
X275781Y365282D01*
Y366115D01*
X274947Y366948D01*
X273281D01*
X272448Y366115D01*
X277447D02*
X278280Y366948D01*
X279946D01*
X280779Y366115D01*
Y365282D01*
X279946Y364449D01*
X279113D01*
X279946D01*
X280779Y363616D01*
Y362783D01*
X279946Y361950D01*
X278280D01*
X277447Y362783D01*
X330968Y375135D02*
X331801Y374302D01*
X333467D01*
X334300Y375135D01*
Y378467D01*
X333467Y379300D01*
X331801D01*
X330968Y378467D01*
X329302Y375135D02*
X328469Y374302D01*
X326802D01*
X325969Y375135D01*
Y375968D01*
X326802Y376801D01*
X325969Y377634D01*
Y378467D01*
X326802Y379300D01*
X328469D01*
X329302Y378467D01*
Y377634D01*
X328469Y376801D01*
X329302Y375968D01*
Y375135D01*
X328469Y376801D02*
X326802D01*
X330968Y406135D02*
X331801Y405302D01*
X333467D01*
X334300Y406135D01*
Y409467D01*
X333467Y410300D01*
X331801D01*
X330968Y409467D01*
X329302Y405302D02*
X325969D01*
Y406135D01*
X329302Y409467D01*
Y410300D01*
X277044Y508786D02*
X276211Y509619D01*
X274545D01*
X273712Y508786D01*
Y505454D01*
X274545Y504621D01*
X276211D01*
X277044Y505454D01*
X278710Y504621D02*
X280376D01*
X279543D01*
Y509619D01*
X278710Y508786D01*
X285375Y504621D02*
Y509619D01*
X282875Y507120D01*
X286208D01*
M02*
