G04*
G04 #@! TF.GenerationSoftware,Altium Limited,Altium Designer,26.2.0 (7)*
G04*
G04 Layer_Color=16711935*
%FSLAX44Y44*%
%MOMM*%
G71*
G04*
G04 #@! TF.SameCoordinates,705C9359-2560-42EC-9C9A-8D9864D1FE1B*
G04*
G04*
G04 #@! TF.FilePolarity,Positive*
G04*
G01*
G75*
%ADD10C,0.2000*%
%ADD11C,0.3000*%
%ADD13C,0.2540*%
%ADD14C,0.1000*%
%ADD15C,0.1270*%
%ADD16C,0.1524*%
%ADD116C,0.0500*%
G36*
X809389Y701911D02*
X801762D01*
X801776Y701897D01*
X801833Y701826D01*
X801917Y701741D01*
X802016Y701600D01*
X802143Y701445D01*
X802284Y701248D01*
X802439Y701022D01*
X802594Y700769D01*
Y700755D01*
X802608Y700741D01*
X802664Y700656D01*
X802735Y700515D01*
X802820Y700346D01*
X802918Y700148D01*
X803017Y699937D01*
X803116Y699725D01*
X803200Y699514D01*
X802044D01*
Y699528D01*
X802016Y699556D01*
X802002Y699613D01*
X801960Y699683D01*
X801917Y699768D01*
X801861Y699866D01*
X801720Y700106D01*
X801565Y700388D01*
X801367Y700670D01*
X801142Y700966D01*
X800902Y701262D01*
X800888Y701276D01*
X800874Y701290D01*
X800832Y701333D01*
X800790Y701389D01*
X800649Y701516D01*
X800479Y701685D01*
X800282Y701854D01*
X800057Y702037D01*
X799831Y702193D01*
X799591Y702334D01*
Y703109D01*
X809389D01*
Y701911D01*
D02*
G37*
G36*
X810150Y697160D02*
Y697146D01*
X810136Y697118D01*
X810108Y697061D01*
X810079Y696977D01*
X810037Y696878D01*
X809981Y696765D01*
X809924Y696638D01*
X809854Y696497D01*
X809685Y696187D01*
X809487Y695835D01*
X809234Y695454D01*
X808952Y695059D01*
Y695045D01*
X808980Y695017D01*
X809008Y694947D01*
X809050Y694876D01*
X809093Y694763D01*
X809149Y694651D01*
X809191Y694510D01*
X809248Y694355D01*
X809304Y694185D01*
X809361Y694002D01*
X809459Y693593D01*
X809530Y693142D01*
X809544Y692903D01*
X809558Y692663D01*
Y692536D01*
X809544Y692437D01*
Y692325D01*
X809530Y692184D01*
X809501Y692029D01*
X809473Y691859D01*
X809403Y691493D01*
X809290Y691084D01*
X809135Y690661D01*
X809036Y690464D01*
X808923Y690252D01*
X808909Y690238D01*
X808895Y690210D01*
X808853Y690154D01*
X808811Y690083D01*
X808740Y689985D01*
X808656Y689886D01*
X808458Y689646D01*
X808205Y689378D01*
X807894Y689110D01*
X807542Y688843D01*
X807133Y688603D01*
X807119D01*
X807077Y688575D01*
X807020Y688547D01*
X806936Y688518D01*
X806823Y688476D01*
X806696Y688420D01*
X806541Y688363D01*
X806372Y688321D01*
X806189Y688265D01*
X805991Y688208D01*
X805780Y688166D01*
X805540Y688110D01*
X805047Y688053D01*
X804525Y688025D01*
X804511D01*
X804455D01*
X804384D01*
X804286Y688039D01*
X804159D01*
X804004Y688053D01*
X803835Y688067D01*
X803651Y688095D01*
X803242Y688166D01*
X802805Y688265D01*
X802340Y688406D01*
X801889Y688603D01*
X801875Y688617D01*
X801833Y688631D01*
X801776Y688659D01*
X801692Y688716D01*
X801593Y688772D01*
X801480Y688843D01*
X801212Y689040D01*
X800930Y689266D01*
X800635Y689562D01*
X800339Y689886D01*
X800085Y690266D01*
X800071Y690281D01*
X800057Y690323D01*
X800028Y690379D01*
X799986Y690464D01*
X799944Y690563D01*
X799887Y690675D01*
X799831Y690816D01*
X799775Y690971D01*
X799718Y691154D01*
X799662Y691338D01*
X799563Y691747D01*
X799493Y692198D01*
X799464Y692437D01*
Y692818D01*
X799479Y692917D01*
Y693044D01*
X799493Y693170D01*
X799521Y693340D01*
X799549Y693509D01*
X799620Y693875D01*
X799732Y694298D01*
X799901Y694707D01*
X800000Y694918D01*
X800113Y695130D01*
X800127Y695144D01*
X800141Y695172D01*
X800183Y695229D01*
X800226Y695313D01*
X800296Y695398D01*
X800381Y695510D01*
X800578Y695750D01*
X800832Y696004D01*
X801142Y696286D01*
X801508Y696554D01*
X801917Y696779D01*
X801931D01*
X801974Y696807D01*
X802030Y696836D01*
X802115Y696864D01*
X802227Y696920D01*
X802354Y696963D01*
X802509Y697019D01*
X802679Y697075D01*
X802862Y697118D01*
X803059Y697174D01*
X803271Y697230D01*
X803496Y697273D01*
X803990Y697329D01*
X804511Y697357D01*
X804525D01*
X804568D01*
X804624D01*
X804708D01*
X804821Y697343D01*
X804948D01*
X805089Y697329D01*
X805230Y697315D01*
X805568Y697273D01*
X805935Y697202D01*
X806316Y697118D01*
X806682Y696991D01*
X806696D01*
X806724Y696977D01*
X806781Y696948D01*
X806837Y696920D01*
X806922Y696878D01*
X807020Y696836D01*
X807246Y696723D01*
X807514Y696568D01*
X807796Y696370D01*
X808078Y696145D01*
X808360Y695891D01*
Y695905D01*
X808388Y695933D01*
X808416Y695976D01*
X808458Y696046D01*
X808515Y696117D01*
X808571Y696215D01*
X808698Y696427D01*
X808853Y696681D01*
X809008Y696963D01*
X809135Y697259D01*
X809262Y697541D01*
X810150Y697160D01*
D02*
G37*
G36*
X806014Y640511D02*
X806141D01*
X806296Y640497D01*
X806465Y640483D01*
X806649Y640454D01*
X807057Y640384D01*
X807495Y640285D01*
X807960Y640144D01*
X808411Y639947D01*
X808425Y639933D01*
X808467Y639919D01*
X808524Y639891D01*
X808608Y639834D01*
X808707Y639778D01*
X808820Y639707D01*
X809088Y639510D01*
X809369Y639284D01*
X809666Y638988D01*
X809961Y638664D01*
X810215Y638284D01*
X810229Y638270D01*
X810243Y638227D01*
X810272Y638171D01*
X810314Y638086D01*
X810356Y637988D01*
X810413Y637875D01*
X810469Y637734D01*
X810525Y637579D01*
X810582Y637395D01*
X810638Y637212D01*
X810737Y636803D01*
X810807Y636352D01*
X810835Y636113D01*
Y635732D01*
X810821Y635633D01*
Y635507D01*
X810807Y635380D01*
X810779Y635210D01*
X810751Y635041D01*
X810680Y634675D01*
X810568Y634252D01*
X810398Y633843D01*
X810300Y633632D01*
X810187Y633420D01*
X810173Y633406D01*
X810159Y633378D01*
X810117Y633321D01*
X810074Y633237D01*
X810004Y633152D01*
X809919Y633040D01*
X809722Y632800D01*
X809468Y632546D01*
X809158Y632264D01*
X808791Y631996D01*
X808383Y631771D01*
X808369D01*
X808326Y631743D01*
X808270Y631714D01*
X808185Y631686D01*
X808073Y631630D01*
X807946Y631587D01*
X807791Y631531D01*
X807621Y631475D01*
X807438Y631432D01*
X807241Y631376D01*
X807029Y631320D01*
X806804Y631277D01*
X806310Y631221D01*
X805789Y631193D01*
X805775D01*
X805732D01*
X805676D01*
X805591D01*
X805479Y631207D01*
X805352D01*
X805211Y631221D01*
X805070Y631235D01*
X804732Y631277D01*
X804365Y631348D01*
X803984Y631432D01*
X803618Y631559D01*
X803604D01*
X803576Y631573D01*
X803519Y631602D01*
X803463Y631630D01*
X803378Y631672D01*
X803279Y631714D01*
X803054Y631827D01*
X802786Y631982D01*
X802504Y632180D01*
X802222Y632405D01*
X801940Y632659D01*
Y632645D01*
X801912Y632617D01*
X801884Y632574D01*
X801842Y632504D01*
X801785Y632433D01*
X801729Y632335D01*
X801602Y632123D01*
X801447Y631869D01*
X801292Y631587D01*
X801165Y631291D01*
X801038Y631009D01*
X800150Y631390D01*
Y631404D01*
X800164Y631432D01*
X800192Y631489D01*
X800220Y631573D01*
X800263Y631672D01*
X800319Y631785D01*
X800376Y631912D01*
X800446Y632053D01*
X800615Y632363D01*
X800813Y632715D01*
X801066Y633096D01*
X801348Y633491D01*
Y633505D01*
X801320Y633533D01*
X801292Y633603D01*
X801250Y633674D01*
X801207Y633787D01*
X801151Y633899D01*
X801109Y634040D01*
X801052Y634195D01*
X800996Y634365D01*
X800939Y634548D01*
X800841Y634957D01*
X800770Y635408D01*
X800756Y635647D01*
X800742Y635887D01*
Y636014D01*
X800756Y636113D01*
Y636225D01*
X800770Y636366D01*
X800798Y636521D01*
X800827Y636691D01*
X800897Y637057D01*
X801010Y637466D01*
X801165Y637889D01*
X801264Y638086D01*
X801376Y638298D01*
X801391Y638312D01*
X801405Y638340D01*
X801447Y638396D01*
X801489Y638467D01*
X801560Y638565D01*
X801644Y638664D01*
X801842Y638904D01*
X802095Y639172D01*
X802405Y639440D01*
X802758Y639707D01*
X803167Y639947D01*
X803181D01*
X803223Y639975D01*
X803279Y640003D01*
X803364Y640032D01*
X803477Y640074D01*
X803604Y640130D01*
X803759Y640187D01*
X803928Y640229D01*
X804111Y640285D01*
X804309Y640342D01*
X804520Y640384D01*
X804760Y640440D01*
X805253Y640497D01*
X805775Y640525D01*
X805789D01*
X805845D01*
X805916D01*
X806014Y640511D01*
D02*
G37*
G36*
X805732Y629995D02*
X805930D01*
X806155Y629980D01*
X806423Y629952D01*
X806719Y629924D01*
X807043Y629882D01*
X807368Y629825D01*
X807720Y629755D01*
X808058Y629670D01*
X808397Y629572D01*
X808721Y629445D01*
X809031Y629304D01*
X809327Y629149D01*
X809581Y628965D01*
X809595Y628951D01*
X809623Y628923D01*
X809680Y628867D01*
X809764Y628796D01*
X809849Y628712D01*
X809933Y628599D01*
X810046Y628458D01*
X810145Y628317D01*
X810243Y628148D01*
X810356Y627965D01*
X810441Y627753D01*
X810539Y627542D01*
X810610Y627302D01*
X810666Y627048D01*
X810695Y626780D01*
X810709Y626498D01*
Y626386D01*
X810695Y626301D01*
Y626202D01*
X810680Y626090D01*
X810624Y625822D01*
X810554Y625526D01*
X810441Y625216D01*
X810272Y624906D01*
X810173Y624750D01*
X810060Y624609D01*
X810046Y624595D01*
X810032Y624581D01*
X809990Y624539D01*
X809947Y624497D01*
X809877Y624426D01*
X809792Y624370D01*
X809595Y624215D01*
X809341Y624060D01*
X809031Y623919D01*
X808679Y623792D01*
X808284Y623707D01*
X808185Y624906D01*
X808199D01*
X808214Y624920D01*
X808298Y624934D01*
X808425Y624976D01*
X808580Y625032D01*
X808749Y625089D01*
X808918Y625173D01*
X809073Y625272D01*
X809200Y625371D01*
X809229Y625399D01*
X809285Y625455D01*
X809369Y625554D01*
X809468Y625695D01*
X809553Y625878D01*
X809637Y626076D01*
X809694Y626315D01*
X809722Y626569D01*
Y626668D01*
X809708Y626780D01*
X809680Y626907D01*
X809637Y627076D01*
X809581Y627246D01*
X809510Y627415D01*
X809398Y627584D01*
X809383Y627612D01*
X809327Y627683D01*
X809229Y627781D01*
X809088Y627908D01*
X808918Y628049D01*
X808721Y628204D01*
X808467Y628345D01*
X808185Y628486D01*
X808171D01*
X808143Y628500D01*
X808101Y628514D01*
X808044Y628543D01*
X807960Y628557D01*
X807861Y628585D01*
X807748Y628613D01*
X807607Y628641D01*
X807452Y628684D01*
X807283Y628712D01*
X807100Y628740D01*
X806902Y628754D01*
X806677Y628782D01*
X806451Y628796D01*
X806198Y628810D01*
X805944D01*
X805958Y628796D01*
X806042Y628740D01*
X806155Y628641D01*
X806296Y628514D01*
X806465Y628373D01*
X806620Y628190D01*
X806776Y627993D01*
X806917Y627767D01*
Y627753D01*
X806931Y627739D01*
X806973Y627654D01*
X807015Y627528D01*
X807086Y627358D01*
X807142Y627161D01*
X807184Y626936D01*
X807227Y626696D01*
X807241Y626442D01*
Y626329D01*
X807227Y626245D01*
X807213Y626132D01*
X807198Y626019D01*
X807170Y625878D01*
X807128Y625737D01*
X807029Y625413D01*
X806959Y625244D01*
X806860Y625075D01*
X806761Y624906D01*
X806649Y624722D01*
X806508Y624553D01*
X806353Y624398D01*
X806339Y624384D01*
X806310Y624356D01*
X806268Y624313D01*
X806198Y624271D01*
X806099Y624201D01*
X806000Y624130D01*
X805873Y624060D01*
X805732Y623975D01*
X805577Y623890D01*
X805408Y623820D01*
X805211Y623750D01*
X805014Y623679D01*
X804802Y623637D01*
X804562Y623595D01*
X804323Y623566D01*
X804069Y623552D01*
X804055D01*
X804027D01*
X803984D01*
X803914D01*
X803829Y623566D01*
X803745D01*
X803519Y623609D01*
X803251Y623651D01*
X802969Y623721D01*
X802659Y623820D01*
X802363Y623961D01*
X802349D01*
X802335Y623975D01*
X802293Y624003D01*
X802236Y624031D01*
X802095Y624116D01*
X801912Y624243D01*
X801715Y624398D01*
X801517Y624581D01*
X801320Y624807D01*
X801151Y625047D01*
Y625061D01*
X801137Y625075D01*
X801109Y625117D01*
X801095Y625173D01*
X801024Y625314D01*
X800954Y625498D01*
X800869Y625737D01*
X800813Y626005D01*
X800756Y626301D01*
X800742Y626625D01*
Y626696D01*
X800756Y626766D01*
Y626879D01*
X800770Y627006D01*
X800798Y627147D01*
X800841Y627316D01*
X800883Y627485D01*
X800939Y627683D01*
X801010Y627880D01*
X801095Y628077D01*
X801207Y628289D01*
X801334Y628486D01*
X801475Y628684D01*
X801644Y628881D01*
X801842Y629064D01*
X801856Y629078D01*
X801898Y629106D01*
X801954Y629149D01*
X802053Y629205D01*
X802180Y629290D01*
X802321Y629360D01*
X802504Y629445D01*
X802701Y629529D01*
X802941Y629628D01*
X803209Y629713D01*
X803505Y629783D01*
X803829Y629854D01*
X804196Y629924D01*
X804591Y629966D01*
X805014Y629995D01*
X805465Y630009D01*
X805479D01*
X805493D01*
X805535D01*
X805591D01*
X805732Y629995D01*
D02*
G37*
%LPC*%
G36*
X804525Y696032D02*
X804511D01*
X804469D01*
X804413D01*
X804328D01*
X804215Y696018D01*
X804102D01*
X803961Y696004D01*
X803820Y695976D01*
X803496Y695933D01*
X803144Y695863D01*
X802791Y695764D01*
X802453Y695623D01*
X802439D01*
X802411Y695609D01*
X802368Y695581D01*
X802312Y695553D01*
X802143Y695454D01*
X801945Y695327D01*
X801720Y695158D01*
X801494Y694947D01*
X801269Y694707D01*
X801071Y694439D01*
Y694425D01*
X801043Y694411D01*
X801029Y694369D01*
X800987Y694298D01*
X800959Y694228D01*
X800916Y694143D01*
X800818Y693932D01*
X800733Y693678D01*
X800649Y693382D01*
X800592Y693044D01*
X800578Y692691D01*
Y692550D01*
X800592Y692451D01*
X800606Y692325D01*
X800635Y692184D01*
X800663Y692029D01*
X800705Y691859D01*
X800761Y691662D01*
X800818Y691479D01*
X800902Y691281D01*
X801001Y691070D01*
X801114Y690873D01*
X801255Y690675D01*
X801396Y690478D01*
X801579Y690295D01*
X801593Y690281D01*
X801621Y690252D01*
X801678Y690210D01*
X801762Y690154D01*
X801861Y690069D01*
X801988Y689999D01*
X802143Y689914D01*
X802312Y689829D01*
X802509Y689731D01*
X802735Y689646D01*
X802975Y689576D01*
X803242Y689505D01*
X803524Y689435D01*
X803835Y689392D01*
X804173Y689364D01*
X804525Y689350D01*
X804554D01*
X804610D01*
X804708D01*
X804835Y689364D01*
X804990Y689378D01*
X805174Y689407D01*
X805385Y689435D01*
X805597Y689463D01*
X806076Y689576D01*
X806316Y689646D01*
X806555Y689745D01*
X806795Y689844D01*
X807020Y689970D01*
X807246Y690111D01*
X807443Y690281D01*
X807457Y690295D01*
X807486Y690323D01*
X807542Y690379D01*
X807598Y690450D01*
X807683Y690548D01*
X807768Y690661D01*
X807852Y690788D01*
X807951Y690943D01*
X808049Y691098D01*
X808134Y691281D01*
X808219Y691479D01*
X808303Y691690D01*
X808360Y691930D01*
X808416Y692169D01*
X808444Y692423D01*
X808458Y692691D01*
Y692818D01*
X808444Y692945D01*
X808430Y693114D01*
X808402Y693326D01*
X808346Y693537D01*
X808289Y693777D01*
X808205Y694002D01*
X808191Y693974D01*
X808134Y693904D01*
X808064Y693777D01*
X807979Y693622D01*
X807894Y693424D01*
X807796Y693213D01*
X807711Y692973D01*
X807641Y692719D01*
X806710Y693044D01*
Y693058D01*
X806724Y693100D01*
X806739Y693156D01*
X806767Y693227D01*
X806795Y693326D01*
X806837Y693438D01*
X806936Y693692D01*
X807077Y693988D01*
X807232Y694298D01*
X807415Y694594D01*
X807641Y694890D01*
X807627Y694904D01*
X807598Y694947D01*
X807528Y695003D01*
X807443Y695073D01*
X807331Y695158D01*
X807204Y695257D01*
X807049Y695356D01*
X806865Y695468D01*
X806654Y695567D01*
X806414Y695666D01*
X806161Y695764D01*
X805893Y695849D01*
X805583Y695933D01*
X805258Y695990D01*
X804906Y696018D01*
X804525Y696032D01*
D02*
G37*
G36*
X805775Y639200D02*
X805747D01*
X805690D01*
X805591D01*
X805465Y639186D01*
X805310Y639172D01*
X805126Y639143D01*
X804915Y639115D01*
X804703Y639087D01*
X804224Y638974D01*
X803984Y638904D01*
X803745Y638805D01*
X803505Y638707D01*
X803279Y638580D01*
X803054Y638439D01*
X802857Y638270D01*
X802842Y638255D01*
X802814Y638227D01*
X802758Y638171D01*
X802701Y638100D01*
X802617Y638002D01*
X802532Y637889D01*
X802448Y637762D01*
X802349Y637607D01*
X802250Y637452D01*
X802166Y637269D01*
X802081Y637071D01*
X801997Y636860D01*
X801940Y636620D01*
X801884Y636381D01*
X801856Y636127D01*
X801842Y635859D01*
Y635732D01*
X801856Y635605D01*
X801870Y635436D01*
X801898Y635224D01*
X801954Y635013D01*
X802011Y634773D01*
X802095Y634548D01*
X802110Y634576D01*
X802166Y634646D01*
X802236Y634773D01*
X802321Y634929D01*
X802405Y635126D01*
X802504Y635337D01*
X802589Y635577D01*
X802659Y635831D01*
X803590Y635507D01*
Y635492D01*
X803576Y635450D01*
X803561Y635394D01*
X803533Y635323D01*
X803505Y635224D01*
X803463Y635112D01*
X803364Y634858D01*
X803223Y634562D01*
X803068Y634252D01*
X802885Y633956D01*
X802659Y633660D01*
X802673Y633646D01*
X802701Y633603D01*
X802772Y633547D01*
X802857Y633476D01*
X802969Y633392D01*
X803096Y633293D01*
X803251Y633195D01*
X803435Y633082D01*
X803646Y632983D01*
X803886Y632884D01*
X804139Y632786D01*
X804407Y632701D01*
X804717Y632617D01*
X805042Y632560D01*
X805394Y632532D01*
X805775Y632518D01*
X805789D01*
X805831D01*
X805888D01*
X805972D01*
X806085Y632532D01*
X806198D01*
X806339Y632546D01*
X806479Y632574D01*
X806804Y632617D01*
X807156Y632687D01*
X807509Y632786D01*
X807847Y632927D01*
X807861D01*
X807889Y632941D01*
X807932Y632969D01*
X807988Y632997D01*
X808157Y633096D01*
X808354Y633223D01*
X808580Y633392D01*
X808805Y633603D01*
X809031Y633843D01*
X809229Y634111D01*
Y634125D01*
X809257Y634139D01*
X809271Y634181D01*
X809313Y634252D01*
X809341Y634322D01*
X809383Y634407D01*
X809482Y634618D01*
X809567Y634872D01*
X809651Y635168D01*
X809708Y635507D01*
X809722Y635859D01*
Y636000D01*
X809708Y636099D01*
X809694Y636225D01*
X809666Y636366D01*
X809637Y636521D01*
X809595Y636691D01*
X809539Y636888D01*
X809482Y637071D01*
X809398Y637269D01*
X809299Y637480D01*
X809186Y637677D01*
X809045Y637875D01*
X808904Y638072D01*
X808721Y638255D01*
X808707Y638270D01*
X808679Y638298D01*
X808622Y638340D01*
X808538Y638396D01*
X808439Y638481D01*
X808312Y638551D01*
X808157Y638636D01*
X807988Y638721D01*
X807791Y638819D01*
X807565Y638904D01*
X807325Y638974D01*
X807057Y639045D01*
X806776Y639115D01*
X806465Y639158D01*
X806127Y639186D01*
X805775Y639200D01*
D02*
G37*
G36*
X804069Y628627D02*
X804041D01*
X803970D01*
X803843Y628613D01*
X803688Y628599D01*
X803505Y628571D01*
X803308Y628514D01*
X803096Y628458D01*
X802885Y628373D01*
X802857Y628359D01*
X802786Y628317D01*
X802687Y628261D01*
X802561Y628176D01*
X802434Y628077D01*
X802279Y627951D01*
X802152Y627809D01*
X802025Y627640D01*
X802011Y627612D01*
X801983Y627556D01*
X801926Y627457D01*
X801884Y627330D01*
X801827Y627189D01*
X801771Y627020D01*
X801743Y626837D01*
X801729Y626639D01*
Y626569D01*
X801743Y626513D01*
X801757Y626372D01*
X801799Y626188D01*
X801884Y625991D01*
X801983Y625765D01*
X802138Y625540D01*
X802222Y625427D01*
X802335Y625328D01*
X802349D01*
X802363Y625300D01*
X802448Y625244D01*
X802589Y625159D01*
X802772Y625047D01*
X803012Y624948D01*
X803294Y624863D01*
X803618Y624807D01*
X803998Y624779D01*
X804013D01*
X804041D01*
X804097D01*
X804168Y624793D01*
X804252D01*
X804351Y624807D01*
X804576Y624849D01*
X804830Y624906D01*
X805098Y625004D01*
X805352Y625145D01*
X805591Y625328D01*
X805620Y625357D01*
X805690Y625427D01*
X805775Y625540D01*
X805888Y625695D01*
X806000Y625892D01*
X806085Y626118D01*
X806155Y626386D01*
X806183Y626682D01*
Y626766D01*
X806169Y626823D01*
X806155Y626964D01*
X806113Y627161D01*
X806042Y627373D01*
X805930Y627612D01*
X805789Y627838D01*
X805591Y628063D01*
X805563Y628091D01*
X805493Y628148D01*
X805366Y628246D01*
X805183Y628345D01*
X804971Y628444D01*
X804703Y628543D01*
X804407Y628599D01*
X804069Y628627D01*
D02*
G37*
%LPD*%
D10*
X655000Y481000D02*
G03*
X655000Y481000I-1000J0D01*
G01*
X313450Y454250D02*
G03*
X313450Y454250I-700J0D01*
G01*
X787100Y664750D02*
G03*
X787100Y664750I-1000J0D01*
G01*
X825200Y663800D02*
G03*
X825200Y663800I-1000J0D01*
G01*
X804798Y803450D02*
G03*
X804798Y803450I-1000J0D01*
G01*
X63000Y689750D02*
Y702250D01*
X83000Y689750D02*
Y702250D01*
X63000D02*
X83000D01*
X63000Y689750D02*
X83000D01*
X83751Y673497D02*
Y682497D01*
X68001Y673497D02*
Y682497D01*
Y673497D02*
X83751D01*
X68001Y682497D02*
X83751D01*
X837215Y648975D02*
Y664725D01*
X846215Y648975D02*
Y664725D01*
X837215Y648975D02*
X846215D01*
X837215Y664725D02*
X846215D01*
X766500Y430000D02*
Y439000D01*
X750750Y430000D02*
Y439000D01*
Y430000D02*
X766500D01*
X750750Y439000D02*
X766500D01*
X677750Y507250D02*
Y516250D01*
X662000Y507250D02*
Y516250D01*
Y507250D02*
X677750D01*
X662000Y516250D02*
X677750D01*
X782500Y483750D02*
X791500D01*
X782500Y468000D02*
X791500D01*
Y483750D01*
X782500Y468000D02*
Y483750D01*
X557755Y602500D02*
Y611500D01*
X542005Y602500D02*
Y611500D01*
Y602500D02*
X557755D01*
X542005Y611500D02*
X557755D01*
X230000Y625250D02*
X239000D01*
X230000Y609500D02*
X239000D01*
Y625250D01*
X230000Y609500D02*
Y625250D01*
X213500D02*
X222500D01*
X213500Y609500D02*
X222500D01*
Y625250D01*
X213500Y609500D02*
Y625250D01*
X743965Y683975D02*
X752965D01*
X743965Y699725D02*
X752965D01*
X743965Y683975D02*
Y699725D01*
X752965Y683975D02*
Y699725D01*
X837215Y694975D02*
X846215D01*
X837215Y679225D02*
X846215D01*
Y694975D01*
X837215Y679225D02*
Y694975D01*
X626000Y338505D02*
X635000D01*
X626000Y354255D02*
X635000D01*
X626000Y338505D02*
Y354255D01*
X635000Y338505D02*
Y354255D01*
X642000Y338500D02*
X651000D01*
X642000Y354250D02*
X651000D01*
X642000Y338500D02*
Y354250D01*
X651000Y338500D02*
Y354250D01*
X765995Y393750D02*
Y402750D01*
X750245Y393750D02*
Y402750D01*
Y393750D02*
X765995D01*
X750245Y402750D02*
X765995D01*
X744465Y653600D02*
X753465D01*
X744465Y669350D02*
X753465D01*
X744465Y653600D02*
Y669350D01*
X753465Y653600D02*
Y669350D01*
X727465Y668850D02*
X736465D01*
X727465Y653100D02*
X736465D01*
Y668850D01*
X727465Y653100D02*
Y668850D01*
X571500Y369500D02*
Y378500D01*
X587250Y369500D02*
Y378500D01*
X571500D02*
X587250D01*
X571500Y369500D02*
X587250D01*
X571250Y420000D02*
Y429000D01*
X587000Y420000D02*
Y429000D01*
X571250D02*
X587000D01*
X571250Y420000D02*
X587000D01*
X571750Y452500D02*
Y461500D01*
X587500Y452500D02*
Y461500D01*
X571750D02*
X587500D01*
X571750Y452500D02*
X587500D01*
X572000Y517500D02*
Y526500D01*
X587750Y517500D02*
Y526500D01*
X572000D02*
X587750D01*
X572000Y517500D02*
X587750D01*
X571255Y485000D02*
Y494000D01*
X587005Y485000D02*
Y494000D01*
X571255D02*
X587005D01*
X571255Y485000D02*
X587005D01*
X498505Y364625D02*
X514255D01*
X498505Y373625D02*
X514255D01*
Y364625D02*
Y373625D01*
X498505Y364625D02*
Y373625D01*
X520755Y381625D02*
Y394125D01*
X500755Y381625D02*
Y394125D01*
Y381625D02*
X520755D01*
X500755Y394125D02*
X520755D01*
X262519Y537906D02*
X275019D01*
X262519Y557906D02*
X275019D01*
X262519Y537906D02*
Y557906D01*
X275019Y537906D02*
Y557906D01*
X219500Y539000D02*
X232000D01*
X219500Y559000D02*
X232000D01*
X219500Y539000D02*
Y559000D01*
X232000Y539000D02*
Y559000D01*
X255000Y625000D02*
X264000D01*
X255000Y609250D02*
X264000D01*
Y625000D01*
X255000Y609250D02*
Y625000D01*
X271250Y609250D02*
Y625000D01*
X280250Y609250D02*
Y625000D01*
X271250Y609250D02*
X280250D01*
X271250Y625000D02*
X280250D01*
X253671Y537862D02*
Y553612D01*
X244671Y537862D02*
Y553612D01*
X253671D01*
X244671Y537862D02*
X253671D01*
X402995Y435500D02*
Y444500D01*
X387245Y435500D02*
Y444500D01*
Y435500D02*
X402995D01*
X387245Y444500D02*
X402995D01*
D11*
X112000Y551175D02*
G03*
X112000Y551175I-1000J0D01*
G01*
D13*
X269250Y599750D02*
G03*
X269250Y599750I-250J0D01*
G01*
D14*
X395850Y928000D02*
X410850D01*
X490850D02*
X505850D01*
X490850Y900000D02*
X505850D01*
X395850D02*
X410850D01*
X505850D02*
Y928000D01*
X490850D02*
Y932000D01*
X410850Y928000D02*
Y932000D01*
X490850Y890000D02*
Y900000D01*
X395850D02*
Y928000D01*
X410850Y890000D02*
Y900000D01*
Y890000D02*
X490850D01*
X410850Y932000D02*
X490850D01*
X410850Y931750D02*
Y932000D01*
X759715Y651725D02*
Y660225D01*
Y651725D02*
X774215D01*
Y669725D01*
X759715D02*
X774215D01*
X759715Y660225D02*
Y669725D01*
X55000Y619750D02*
X80000D01*
X55000Y587750D02*
Y619750D01*
X80000Y587750D02*
Y619750D01*
X55000Y587750D02*
X80000D01*
X53500Y353175D02*
Y569175D01*
Y353175D02*
X106500D01*
Y569175D01*
X53500D02*
X106500D01*
X349750Y452250D02*
Y490500D01*
X309750D02*
X349750D01*
X309750Y450500D02*
Y490500D01*
Y450500D02*
X349750D01*
Y452250D01*
X306000Y567500D02*
Y592500D01*
Y567500D02*
X338000D01*
X306000Y592500D02*
X338000D01*
Y567500D02*
Y592500D01*
X874000Y410425D02*
Y511925D01*
X822000Y410425D02*
X874000D01*
X822000D02*
Y511925D01*
X874000D01*
X750000Y458000D02*
X766000D01*
X750000Y450000D02*
Y458000D01*
Y450000D02*
X766000D01*
Y458000D01*
X772000Y410250D02*
Y422750D01*
X752000Y410250D02*
Y422750D01*
Y410250D02*
X772000D01*
X752000Y422750D02*
X772000D01*
X244500Y590000D02*
Y595250D01*
X264500D01*
Y575250D02*
Y595250D01*
X244500Y575250D02*
X264500D01*
X244500D02*
Y590000D01*
X543505Y618750D02*
Y631250D01*
X563505Y618750D02*
Y631250D01*
X543505D02*
X563505D01*
X543505Y618750D02*
X563505D01*
X178750Y587750D02*
X203750D01*
Y619750D01*
X178750Y587750D02*
Y619750D01*
X203750D01*
X658750Y353000D02*
X666750D01*
Y337000D02*
Y353000D01*
X658750Y337000D02*
X666750D01*
X658750D02*
Y353000D01*
X610250Y337000D02*
X618250D01*
X610250D02*
Y353000D01*
X618250D01*
Y337000D02*
Y353000D01*
X663500Y499250D02*
X679500D01*
X663500Y491250D02*
Y499250D01*
Y491250D02*
X679500D01*
Y499250D01*
X646250Y366250D02*
Y374250D01*
X630250Y366250D02*
X646250D01*
X630250D02*
Y374250D01*
X646250D01*
X465750Y499750D02*
X478250D01*
X465750Y519750D02*
X478250D01*
X465750Y499750D02*
Y519750D01*
X478250Y499750D02*
Y519750D01*
X779400Y678525D02*
X830900D01*
Y737525D01*
X779400D02*
X830900D01*
X779400Y678525D02*
Y737525D01*
Y650025D02*
X830900D01*
X779400Y591025D02*
Y650025D01*
Y591025D02*
X830900D01*
Y650025D01*
X607000Y505000D02*
Y521000D01*
X599000D02*
X607000D01*
X599000Y505000D02*
Y521000D01*
Y505000D02*
X607000D01*
X599000Y375000D02*
Y391000D01*
Y375000D02*
X607000D01*
Y391000D01*
X599000D02*
X607000D01*
X599000Y407500D02*
Y423500D01*
Y407500D02*
X607000D01*
Y423500D01*
X599000D02*
X607000D01*
X599000Y440000D02*
Y456000D01*
Y440000D02*
X607000D01*
Y456000D01*
X599000D02*
X607000D01*
X599000Y472500D02*
Y488500D01*
Y472500D02*
X607000D01*
Y488500D01*
X599000D02*
X607000D01*
X455000Y515000D02*
Y537500D01*
X452500D02*
X455000D01*
Y492500D02*
Y515000D01*
X452500Y492500D02*
X455000D01*
X450000Y515000D02*
Y537500D01*
X452500D01*
X450000Y492500D02*
Y515000D01*
Y492500D02*
X452500D01*
X338000Y536500D02*
Y561500D01*
X306000D02*
X338000D01*
X306000Y536500D02*
X338000D01*
X306000D02*
Y561500D01*
X312920Y505460D02*
X323080D01*
Y510540D01*
X312920D02*
X323080D01*
X312920Y505460D02*
Y510540D01*
X388500Y461500D02*
X404500D01*
X388500Y453500D02*
Y461500D01*
Y453500D02*
X404500D01*
Y461500D01*
X387600Y27000D02*
X514100D01*
X387600D02*
Y79000D01*
X514100D01*
Y27000D02*
Y79000D01*
X340116Y503460D02*
X350276D01*
Y508540D01*
X340116D02*
X350276D01*
X340116Y503460D02*
Y508540D01*
X327420Y422460D02*
X337580D01*
Y427540D01*
X327420D02*
X337580D01*
X327420Y422460D02*
Y427540D01*
X290460Y476420D02*
Y486580D01*
Y476420D02*
X295540D01*
Y486580D01*
X290460D02*
X295540D01*
Y454420D02*
Y464580D01*
X290460D02*
X295540D01*
X290460Y454420D02*
Y464580D01*
Y454420D02*
X295540D01*
X255750Y415750D02*
Y440750D01*
Y415750D02*
X287750D01*
X255750Y440750D02*
X287750D01*
Y415750D02*
Y440750D01*
X147750Y619750D02*
X172750D01*
X147750Y587750D02*
Y619750D01*
X172750Y587750D02*
Y619750D01*
X147750Y587750D02*
X172750D01*
X116750Y619750D02*
X141750D01*
X116750Y587750D02*
Y619750D01*
X141750Y587750D02*
Y619750D01*
X116750Y587750D02*
X141750D01*
X85750Y619750D02*
X110750D01*
X85750Y587750D02*
Y619750D01*
X110750Y587750D02*
Y619750D01*
X85750Y587750D02*
X110750D01*
X255750Y384750D02*
Y409750D01*
Y384750D02*
X287750D01*
X255750Y409750D02*
X287750D01*
Y384750D02*
Y409750D01*
Y353750D02*
Y378750D01*
X255750D02*
X287750D01*
X255750Y353750D02*
X287750D01*
X255750D02*
Y378750D01*
X314000Y362500D02*
Y387500D01*
Y362500D02*
X346000D01*
X314000Y387500D02*
X346000D01*
Y362500D02*
Y387500D01*
X314000Y393500D02*
Y418500D01*
Y393500D02*
X346000D01*
X314000Y418500D02*
X346000D01*
Y393500D02*
Y418500D01*
X294012Y496421D02*
Y521421D01*
X262012D02*
X294012D01*
X262012Y496421D02*
X294012D01*
X262012D02*
Y521421D01*
X342196Y516750D02*
Y529250D01*
X362196Y516750D02*
Y529250D01*
X342196D02*
X362196D01*
X342196Y516750D02*
X362196D01*
X468750Y420500D02*
X481250D01*
X468750Y440500D02*
X481250D01*
X468750Y420500D02*
Y440500D01*
X481250Y420500D02*
Y440500D01*
X388250Y501000D02*
Y513500D01*
X408250Y501000D02*
Y513500D01*
X388250D02*
X408250D01*
X388250Y501000D02*
X408250D01*
X424750Y439000D02*
X437250D01*
X424750Y419000D02*
X437250D01*
Y439000D01*
X424750Y419000D02*
Y439000D01*
X408250Y480750D02*
Y493250D01*
X388250Y480750D02*
Y493250D01*
Y480750D02*
X408250D01*
X388250Y493250D02*
X408250D01*
X65250Y697748D02*
Y692750D01*
X67749D01*
X68582Y693583D01*
Y696915D01*
X67749Y697748D01*
X65250D01*
X72748Y692750D02*
Y697748D01*
X70248Y695249D01*
X73581D01*
D15*
X764215Y618225D02*
Y631225D01*
X773215D01*
X764215Y618225D02*
X773215D01*
Y631225D01*
X788498Y759000D02*
X804498D01*
X788498D02*
Y791000D01*
X804498D01*
Y759000D02*
Y791000D01*
X448500Y305000D02*
X506500D01*
X448500D02*
Y355000D01*
X506500D01*
Y305000D02*
Y355000D01*
X423500Y374500D02*
X436500D01*
Y365500D02*
Y374500D01*
X423500Y365500D02*
Y374500D01*
Y365500D02*
X436500D01*
X361000Y305000D02*
Y355000D01*
Y305000D02*
X419000D01*
Y355000D01*
X361000D02*
X419000D01*
X135000Y508000D02*
X205000D01*
Y433000D02*
Y508000D01*
X135000Y433000D02*
Y508000D01*
Y433000D02*
X205000D01*
D16*
X716352Y440174D02*
Y443222D01*
Y420616D02*
Y423664D01*
Y405376D02*
Y484624D01*
X671648Y466336D02*
Y469384D01*
Y420616D02*
Y423664D01*
Y405376D02*
X716352D01*
Y466336D02*
Y469384D01*
Y446778D02*
Y449826D01*
X671648Y459732D02*
Y462780D01*
Y440174D02*
Y443222D01*
Y405376D02*
Y484624D01*
X716352Y407662D02*
Y410710D01*
Y427220D02*
Y430268D01*
X671648Y479290D02*
Y482338D01*
X716352Y472686D02*
Y475734D01*
X671648Y414266D02*
Y417314D01*
Y433824D02*
Y436872D01*
Y484624D02*
X690952D01*
X716352Y433824D02*
Y436872D01*
Y453128D02*
Y456176D01*
X671648Y472686D02*
Y475734D01*
Y453128D02*
Y456176D01*
X690952Y484624D02*
X697048D01*
X716352Y414266D02*
Y417314D01*
X697048Y484624D02*
X716352D01*
X671648Y407662D02*
Y410710D01*
X716352Y479290D02*
Y482338D01*
Y459732D02*
Y462780D01*
X671648Y446778D02*
Y449826D01*
Y427220D02*
Y430268D01*
D116*
X79751Y679247D02*
Y677248D01*
X78751D01*
X78418Y677581D01*
Y678248D01*
X78751Y678581D01*
X79751D01*
X79085D02*
X78418Y679247D01*
X77752Y677581D02*
X77418Y677248D01*
X76752D01*
X76419Y677581D01*
Y677914D01*
X76752Y678248D01*
X77085D01*
X76752D01*
X76419Y678581D01*
Y678914D01*
X76752Y679247D01*
X77418D01*
X77752Y678914D01*
X75752Y677248D02*
X74419D01*
Y677581D01*
X75752Y678914D01*
Y679247D01*
X840465Y660725D02*
X842465D01*
Y659725D01*
X842131Y659392D01*
X841465D01*
X841132Y659725D01*
Y660725D01*
Y660059D02*
X840465Y659392D01*
Y657393D02*
Y658726D01*
X841798Y657393D01*
X842131D01*
X842465Y657726D01*
Y658392D01*
X842131Y658726D01*
Y656726D02*
X842465Y656393D01*
Y655727D01*
X842131Y655393D01*
X841798D01*
X841465Y655727D01*
Y656060D01*
Y655727D01*
X841132Y655393D01*
X840798D01*
X840465Y655727D01*
Y656393D01*
X840798Y656726D01*
X762500Y435750D02*
Y433751D01*
X761500D01*
X761167Y434084D01*
Y434750D01*
X761500Y435084D01*
X762500D01*
X761833D02*
X761167Y435750D01*
X760501Y434084D02*
X760167Y433751D01*
X759501D01*
X759168Y434084D01*
Y434417D01*
X759501Y434750D01*
X759834D01*
X759501D01*
X759168Y435084D01*
Y435417D01*
X759501Y435750D01*
X760167D01*
X760501Y435417D01*
X758501Y435750D02*
X757835D01*
X758168D01*
Y433751D01*
X758501Y434084D01*
X673750Y513000D02*
Y511001D01*
X672750D01*
X672417Y511334D01*
Y512000D01*
X672750Y512334D01*
X673750D01*
X673084D02*
X672417Y513000D01*
X671751D02*
X671084D01*
X671417D01*
Y511001D01*
X671751Y511334D01*
X785750Y479750D02*
X787749D01*
Y478750D01*
X787416Y478417D01*
X786750D01*
X786416Y478750D01*
Y479750D01*
Y479084D02*
X785750Y478417D01*
X787416Y477751D02*
X787749Y477417D01*
Y476751D01*
X787416Y476418D01*
X787083D01*
X786750Y476751D01*
Y477084D01*
Y476751D01*
X786416Y476418D01*
X786083D01*
X785750Y476751D01*
Y477417D01*
X786083Y477751D01*
X787749Y474418D02*
X787416Y475085D01*
X786750Y475751D01*
X786083D01*
X785750Y475418D01*
Y474752D01*
X786083Y474418D01*
X786416D01*
X786750Y474752D01*
Y475751D01*
X553755Y608250D02*
Y606251D01*
X552755D01*
X552422Y606584D01*
Y607250D01*
X552755Y607584D01*
X553755D01*
X553089D02*
X552422Y608250D01*
X551756Y606584D02*
X551422Y606251D01*
X550756D01*
X550423Y606584D01*
Y606917D01*
X550756Y607250D01*
X551089D01*
X550756D01*
X550423Y607584D01*
Y607917D01*
X550756Y608250D01*
X551422D01*
X551756Y607917D01*
X548423Y606251D02*
X549756D01*
Y607250D01*
X549090Y606917D01*
X548757D01*
X548423Y607250D01*
Y607917D01*
X548757Y608250D01*
X549423D01*
X549756Y607917D01*
X233250Y621250D02*
X235249D01*
Y620250D01*
X234916Y619917D01*
X234250D01*
X233916Y620250D01*
Y621250D01*
Y620584D02*
X233250Y619917D01*
X234916Y619251D02*
X235249Y618918D01*
Y618251D01*
X234916Y617918D01*
X234583D01*
X234250Y618251D01*
Y618584D01*
Y618251D01*
X233916Y617918D01*
X233583D01*
X233250Y618251D01*
Y618918D01*
X233583Y619251D01*
X234916Y617251D02*
X235249Y616918D01*
Y616252D01*
X234916Y615918D01*
X234583D01*
X234250Y616252D01*
Y616585D01*
Y616252D01*
X233916Y615918D01*
X233583D01*
X233250Y616252D01*
Y616918D01*
X233583Y617251D01*
X216750Y621250D02*
X218749D01*
Y620250D01*
X218416Y619917D01*
X217750D01*
X217416Y620250D01*
Y621250D01*
Y620584D02*
X216750Y619917D01*
X218416Y619251D02*
X218749Y618918D01*
Y618251D01*
X218416Y617918D01*
X218083D01*
X217750Y618251D01*
Y618584D01*
Y618251D01*
X217416Y617918D01*
X217083D01*
X216750Y618251D01*
Y618918D01*
X217083Y619251D01*
X216750Y615918D02*
Y617251D01*
X218083Y615918D01*
X218416D01*
X218749Y616252D01*
Y616918D01*
X218416Y617251D01*
X749715Y687975D02*
X747716D01*
Y688975D01*
X748049Y689308D01*
X748716D01*
X749049Y688975D01*
Y687975D01*
Y688641D02*
X749715Y689308D01*
Y691307D02*
Y689974D01*
X748382Y691307D01*
X748049D01*
X747716Y690974D01*
Y690308D01*
X748049Y689974D01*
X749715Y692973D02*
X747716D01*
X748716Y691974D01*
Y693307D01*
X840465Y690975D02*
X842465D01*
Y689975D01*
X842131Y689642D01*
X841465D01*
X841132Y689975D01*
Y690975D01*
Y690309D02*
X840465Y689642D01*
Y687643D02*
Y688976D01*
X841798Y687643D01*
X842131D01*
X842465Y687976D01*
Y688642D01*
X842131Y688976D01*
X840465Y685643D02*
Y686976D01*
X841798Y685643D01*
X842131D01*
X842465Y685977D01*
Y686643D01*
X842131Y686976D01*
X631750Y342505D02*
X629751D01*
Y343505D01*
X630084Y343838D01*
X630750D01*
X631084Y343505D01*
Y342505D01*
Y343171D02*
X631750Y343838D01*
Y344504D02*
Y345171D01*
Y344838D01*
X629751D01*
X630084Y344504D01*
X631417Y346171D02*
X631750Y346504D01*
Y347170D01*
X631417Y347503D01*
X630084D01*
X629751Y347170D01*
Y346504D01*
X630084Y346171D01*
X630417D01*
X630750Y346504D01*
Y347503D01*
X647750Y342500D02*
X645751D01*
Y343500D01*
X646084Y343833D01*
X646750D01*
X647084Y343500D01*
Y342500D01*
Y343166D02*
X647750Y343833D01*
Y345832D02*
Y344499D01*
X646417Y345832D01*
X646084D01*
X645751Y345499D01*
Y344833D01*
X646084Y344499D01*
X647750Y346499D02*
Y347165D01*
Y346832D01*
X645751D01*
X646084Y346499D01*
X761995Y399500D02*
Y397501D01*
X760995D01*
X760662Y397834D01*
Y398500D01*
X760995Y398834D01*
X761995D01*
X761329D02*
X760662Y399500D01*
X758663D02*
X759996D01*
X758663Y398167D01*
Y397834D01*
X758996Y397501D01*
X759662D01*
X759996Y397834D01*
X757996Y399167D02*
X757663Y399500D01*
X756997D01*
X756663Y399167D01*
Y397834D01*
X756997Y397501D01*
X757663D01*
X757996Y397834D01*
Y398167D01*
X757663Y398500D01*
X756663D01*
X750215Y657600D02*
X748216D01*
Y658600D01*
X748549Y658933D01*
X749215D01*
X749549Y658600D01*
Y657600D01*
Y658266D02*
X750215Y658933D01*
Y660932D02*
Y659599D01*
X748882Y660932D01*
X748549D01*
X748216Y660599D01*
Y659933D01*
X748549Y659599D01*
X748216Y662932D02*
Y661599D01*
X749215D01*
X748882Y662265D01*
Y662598D01*
X749215Y662932D01*
X749882D01*
X750215Y662598D01*
Y661932D01*
X749882Y661599D01*
X730715Y664850D02*
X732714D01*
Y663850D01*
X732381Y663517D01*
X731715D01*
X731382Y663850D01*
Y664850D01*
Y664184D02*
X730715Y663517D01*
Y661518D02*
Y662851D01*
X732048Y661518D01*
X732381D01*
X732714Y661851D01*
Y662517D01*
X732381Y662851D01*
X732714Y659518D02*
X732381Y660185D01*
X731715Y660851D01*
X731048D01*
X730715Y660518D01*
Y659852D01*
X731048Y659518D01*
X731382D01*
X731715Y659852D01*
Y660851D01*
X575500Y372750D02*
Y374749D01*
X576500D01*
X576833Y374416D01*
Y373750D01*
X576500Y373416D01*
X575500D01*
X576166D02*
X576833Y372750D01*
X577499D02*
X578166D01*
X577833D01*
Y374749D01*
X577499Y374416D01*
X579165D02*
X579499Y374749D01*
X580165D01*
X580498Y374416D01*
Y374083D01*
X580165Y373750D01*
X580498Y373416D01*
Y373083D01*
X580165Y372750D01*
X579499D01*
X579165Y373083D01*
Y373416D01*
X579499Y373750D01*
X579165Y374083D01*
Y374416D01*
X579499Y373750D02*
X580165D01*
X575250Y423250D02*
Y425249D01*
X576250D01*
X576583Y424916D01*
Y424250D01*
X576250Y423916D01*
X575250D01*
X575916D02*
X576583Y423250D01*
X577249D02*
X577916D01*
X577583D01*
Y425249D01*
X577249Y424916D01*
X578915Y425249D02*
X580248D01*
Y424916D01*
X578915Y423583D01*
Y423250D01*
X575750Y455750D02*
Y457749D01*
X576750D01*
X577083Y457416D01*
Y456750D01*
X576750Y456416D01*
X575750D01*
X576416D02*
X577083Y455750D01*
X577749D02*
X578416D01*
X578083D01*
Y457749D01*
X577749Y457416D01*
X580748Y457749D02*
X580082Y457416D01*
X579416Y456750D01*
Y456083D01*
X579749Y455750D01*
X580415D01*
X580748Y456083D01*
Y456416D01*
X580415Y456750D01*
X579416D01*
X576000Y520750D02*
Y522749D01*
X577000D01*
X577333Y522416D01*
Y521750D01*
X577000Y521416D01*
X576000D01*
X576666D02*
X577333Y520750D01*
X579332D02*
X577999D01*
X579332Y522083D01*
Y522416D01*
X578999Y522749D01*
X578332D01*
X577999Y522416D01*
X575255Y488250D02*
Y490249D01*
X576255D01*
X576588Y489916D01*
Y489250D01*
X576255Y488916D01*
X575255D01*
X575921D02*
X576588Y488250D01*
X577254D02*
X577921D01*
X577588D01*
Y490249D01*
X577254Y489916D01*
X580253Y490249D02*
X578921D01*
Y489250D01*
X579587Y489583D01*
X579920D01*
X580253Y489250D01*
Y488583D01*
X579920Y488250D01*
X579254D01*
X578921Y488583D01*
X502505Y367875D02*
Y369874D01*
X503505D01*
X503838Y369541D01*
Y368875D01*
X503505Y368541D01*
X502505D01*
X503172D02*
X503838Y367875D01*
X505837Y369874D02*
X505171Y369541D01*
X504504Y368875D01*
Y368208D01*
X504838Y367875D01*
X505504D01*
X505837Y368208D01*
Y368541D01*
X505504Y368875D01*
X504504D01*
X258250Y621000D02*
X260249D01*
Y620000D01*
X259916Y619667D01*
X259250D01*
X258916Y620000D01*
Y621000D01*
Y620334D02*
X258250Y619667D01*
Y618001D02*
X260249D01*
X259250Y619001D01*
Y617668D01*
X274500Y621000D02*
X276499D01*
Y620000D01*
X276166Y619667D01*
X275500D01*
X275166Y620000D01*
Y621000D01*
Y620334D02*
X274500Y619667D01*
X276166Y619001D02*
X276499Y618667D01*
Y618001D01*
X276166Y617668D01*
X275833D01*
X275500Y618001D01*
Y618334D01*
Y618001D01*
X275166Y617668D01*
X274833D01*
X274500Y618001D01*
Y618667D01*
X274833Y619001D01*
X250421Y541862D02*
X248422D01*
Y542862D01*
X248755Y543195D01*
X249421D01*
X249755Y542862D01*
Y541862D01*
Y542529D02*
X250421Y543195D01*
Y543862D02*
Y544528D01*
Y544195D01*
X248422D01*
X248755Y543862D01*
X250421Y546527D02*
X248422D01*
X249421Y545528D01*
Y546861D01*
X398995Y441250D02*
Y439251D01*
X397995D01*
X397662Y439584D01*
Y440250D01*
X397995Y440584D01*
X398995D01*
X398329D02*
X397662Y441250D01*
X395663Y439251D02*
X396996D01*
Y440250D01*
X396329Y439917D01*
X395996D01*
X395663Y440250D01*
Y440917D01*
X395996Y441250D01*
X396662D01*
X396996Y440917D01*
M02*
