G04*
G04 #@! TF.GenerationSoftware,Altium Limited,Altium Designer,26.2.0 (7)*
G04*
G04 Layer_Color=32768*
%FSLAX44Y44*%
%MOMM*%
G71*
G04*
G04 #@! TF.SameCoordinates,2986681F-040A-4F0E-8C1E-8186D9A52596*
G04*
G04*
G04 #@! TF.FilePolarity,Positive*
G04*
G01*
G75*
%ADD14C,0.1000*%
%ADD116C,0.0700*%
G36*
X453261Y443305D02*
X453413Y443298D01*
X453559Y443291D01*
X453690Y443277D01*
X453815Y443263D01*
X453926Y443249D01*
X454030Y443242D01*
X454120Y443228D01*
X454197Y443215D01*
X454266Y443201D01*
X454322Y443187D01*
X454370Y443180D01*
X454398Y443173D01*
X454419Y443166D01*
X454426D01*
X454627Y443111D01*
X454814Y443041D01*
X454973Y442979D01*
X455112Y442916D01*
X455168Y442882D01*
X455223Y442861D01*
X455271Y442833D01*
X455306Y442812D01*
X455334Y442792D01*
X455355Y442785D01*
X455369Y442771D01*
X455376D01*
X455514Y442674D01*
X455639Y442563D01*
X455743Y442459D01*
X455826Y442355D01*
X455896Y442265D01*
X455937Y442195D01*
X455958Y442168D01*
X455972Y442147D01*
X455979Y442133D01*
Y442126D01*
X456048Y441973D01*
X456097Y441821D01*
X456138Y441668D01*
X456159Y441530D01*
X456173Y441405D01*
X456180Y441356D01*
X456187Y441308D01*
Y441225D01*
X456180Y441100D01*
X456173Y440975D01*
X456152Y440857D01*
X456131Y440746D01*
X456104Y440649D01*
X456069Y440552D01*
X456034Y440462D01*
X456000Y440386D01*
X455965Y440309D01*
X455930Y440247D01*
X455902Y440191D01*
X455868Y440150D01*
X455847Y440115D01*
X455826Y440087D01*
X455819Y440073D01*
X455812Y440066D01*
X455736Y439983D01*
X455660Y439907D01*
X455486Y439768D01*
X455313Y439644D01*
X455140Y439546D01*
X455056Y439505D01*
X454987Y439470D01*
X454918Y439442D01*
X454862Y439415D01*
X454814Y439401D01*
X454772Y439387D01*
X454751Y439373D01*
X454744D01*
X454613Y439332D01*
X454467Y439297D01*
X454169Y439241D01*
X453864Y439200D01*
X453718Y439186D01*
X453573Y439172D01*
X453441Y439165D01*
X453316Y439158D01*
X453205Y439151D01*
X453108D01*
X453032Y439144D01*
X452969D01*
X452935D01*
X452921D01*
X452595Y439151D01*
X452290Y439172D01*
X452012Y439200D01*
X451756Y439241D01*
X451520Y439290D01*
X451305Y439345D01*
X451118Y439401D01*
X450945Y439463D01*
X450799Y439519D01*
X450667Y439574D01*
X450563Y439630D01*
X450473Y439678D01*
X450404Y439720D01*
X450355Y439748D01*
X450327Y439768D01*
X450321Y439775D01*
X450203Y439879D01*
X450106Y439990D01*
X450015Y440108D01*
X449939Y440226D01*
X449877Y440344D01*
X449821Y440469D01*
X449780Y440587D01*
X449745Y440698D01*
X449717Y440808D01*
X449696Y440905D01*
X449683Y440996D01*
X449676Y441072D01*
X449669Y441134D01*
X449662Y441183D01*
Y441225D01*
X449669Y441356D01*
X449676Y441474D01*
X449696Y441592D01*
X449717Y441703D01*
X449752Y441807D01*
X449780Y441897D01*
X449814Y441987D01*
X449849Y442064D01*
X449884Y442140D01*
X449918Y442202D01*
X449953Y442258D01*
X449981Y442299D01*
X450001Y442334D01*
X450022Y442362D01*
X450029Y442376D01*
X450036Y442383D01*
X450112Y442466D01*
X450189Y442549D01*
X450362Y442688D01*
X450535Y442805D01*
X450709Y442903D01*
X450792Y442944D01*
X450868Y442979D01*
X450931Y443007D01*
X450993Y443034D01*
X451035Y443055D01*
X451076Y443062D01*
X451097Y443076D01*
X451104D01*
X451236Y443118D01*
X451381Y443152D01*
X451680Y443215D01*
X451985Y443256D01*
X452130Y443270D01*
X452276Y443284D01*
X452408Y443291D01*
X452533Y443298D01*
X452636Y443305D01*
X452734Y443312D01*
X452810D01*
X452872D01*
X452907D01*
X452921D01*
X453094D01*
X453261Y443305D01*
D02*
G37*
G36*
X456187Y436620D02*
X456027Y436530D01*
X455875Y436426D01*
X455729Y436308D01*
X455604Y436190D01*
X455486Y436086D01*
X455445Y436038D01*
X455403Y436003D01*
X455369Y435968D01*
X455348Y435941D01*
X455334Y435927D01*
X455327Y435920D01*
X455168Y435733D01*
X455029Y435532D01*
X454897Y435337D01*
X454786Y435157D01*
X454744Y435081D01*
X454703Y435005D01*
X454661Y434935D01*
X454633Y434880D01*
X454613Y434831D01*
X454592Y434796D01*
X454585Y434776D01*
X454578Y434769D01*
X453822D01*
X453878Y434907D01*
X453940Y435053D01*
X454010Y435192D01*
X454072Y435317D01*
X454134Y435428D01*
X454155Y435476D01*
X454183Y435518D01*
X454197Y435552D01*
X454211Y435573D01*
X454224Y435587D01*
Y435594D01*
X454328Y435760D01*
X454426Y435906D01*
X454516Y436038D01*
X454599Y436142D01*
X454668Y436232D01*
X454717Y436294D01*
X454751Y436329D01*
X454765Y436343D01*
X449766D01*
Y437126D01*
X456187D01*
Y436620D01*
D02*
G37*
G36*
X451506Y432564D02*
X451687Y432439D01*
X451853Y432314D01*
X451998Y432196D01*
X452123Y432092D01*
X452220Y432002D01*
X452262Y431960D01*
X452297Y431926D01*
X452324Y431898D01*
X452345Y431877D01*
X452352Y431870D01*
X452359Y431863D01*
X452415Y431794D01*
X452477Y431711D01*
X452525Y431628D01*
X452574Y431544D01*
X452616Y431468D01*
X452650Y431406D01*
X452671Y431364D01*
X452678Y431357D01*
Y431350D01*
X452706Y431517D01*
X452741Y431676D01*
X452782Y431822D01*
X452824Y431954D01*
X452872Y432078D01*
X452921Y432189D01*
X452969Y432286D01*
X453018Y432377D01*
X453066Y432460D01*
X453115Y432529D01*
X453157Y432584D01*
X453191Y432633D01*
X453226Y432668D01*
X453247Y432696D01*
X453261Y432709D01*
X453268Y432716D01*
X453358Y432793D01*
X453448Y432862D01*
X453545Y432924D01*
X453642Y432973D01*
X453739Y433014D01*
X453836Y433049D01*
X454016Y433105D01*
X454100Y433125D01*
X454176Y433139D01*
X454245Y433146D01*
X454308Y433153D01*
X454349Y433160D01*
X454391D01*
X454412D01*
X454419D01*
X454613Y433146D01*
X454793Y433118D01*
X454953Y433077D01*
X455098Y433028D01*
X455160Y433001D01*
X455216Y432973D01*
X455265Y432952D01*
X455306Y432931D01*
X455341Y432917D01*
X455362Y432904D01*
X455376Y432890D01*
X455382D01*
X455535Y432786D01*
X455660Y432668D01*
X455771Y432550D01*
X455854Y432432D01*
X455916Y432335D01*
X455958Y432252D01*
X455972Y432217D01*
X455986Y432196D01*
X455993Y432182D01*
Y432175D01*
X456020Y432085D01*
X456048Y431995D01*
X456090Y431787D01*
X456124Y431572D01*
X456145Y431364D01*
X456152Y431260D01*
X456159Y431170D01*
Y431094D01*
X456166Y431017D01*
Y428043D01*
X449766D01*
Y428889D01*
X452609D01*
Y429977D01*
X452602Y430074D01*
X452595Y430158D01*
Y430227D01*
X452588Y430275D01*
X452581Y430310D01*
X452574Y430331D01*
Y430338D01*
X452553Y430414D01*
X452525Y430483D01*
X452498Y430546D01*
X452470Y430608D01*
X452442Y430657D01*
X452421Y430691D01*
X452408Y430719D01*
X452401Y430726D01*
X452352Y430796D01*
X452283Y430872D01*
X452214Y430948D01*
X452144Y431010D01*
X452082Y431073D01*
X452026Y431115D01*
X451992Y431142D01*
X451985Y431156D01*
X451978D01*
X451853Y431253D01*
X451714Y431357D01*
X451569Y431454D01*
X451423Y431551D01*
X451298Y431634D01*
X451243Y431676D01*
X451194Y431704D01*
X451153Y431732D01*
X451125Y431752D01*
X451104Y431759D01*
X451097Y431766D01*
X449766Y432612D01*
Y433673D01*
X451506Y432564D01*
D02*
G37*
%LPC*%
G36*
X453066Y442507D02*
X453025D01*
X452990D01*
X452962D01*
X452942D01*
X452928D01*
X452921D01*
X452636Y442500D01*
X452380Y442494D01*
X452144Y442473D01*
X451929Y442452D01*
X451735Y442424D01*
X451569Y442389D01*
X451416Y442355D01*
X451284Y442320D01*
X451173Y442285D01*
X451076Y442251D01*
X450993Y442223D01*
X450931Y442188D01*
X450882Y442168D01*
X450854Y442147D01*
X450834Y442140D01*
X450827Y442133D01*
X450737Y442064D01*
X450653Y441987D01*
X450584Y441911D01*
X450528Y441835D01*
X450473Y441758D01*
X450431Y441682D01*
X450397Y441613D01*
X450369Y441544D01*
X450334Y441419D01*
X450321Y441363D01*
X450313Y441315D01*
Y441280D01*
X450307Y441245D01*
Y441225D01*
X450313Y441127D01*
X450327Y441030D01*
X450355Y440940D01*
X450390Y440857D01*
X450466Y440698D01*
X450563Y440566D01*
X450660Y440462D01*
X450702Y440420D01*
X450737Y440386D01*
X450771Y440351D01*
X450799Y440330D01*
X450813Y440323D01*
X450820Y440316D01*
X450931Y440254D01*
X451062Y440198D01*
X451208Y440143D01*
X451367Y440101D01*
X451541Y440066D01*
X451714Y440039D01*
X452068Y439997D01*
X452234Y439976D01*
X452394Y439969D01*
X452539Y439963D01*
X452664Y439956D01*
X452768Y439949D01*
X452817D01*
X452851D01*
X452879D01*
X452900D01*
X452914D01*
X452921D01*
X453205Y439956D01*
X453462Y439969D01*
X453704Y439983D01*
X453919Y440011D01*
X454114Y440039D01*
X454294Y440073D01*
X454446Y440115D01*
X454585Y440150D01*
X454710Y440184D01*
X454807Y440226D01*
X454890Y440261D01*
X454959Y440288D01*
X455015Y440316D01*
X455050Y440337D01*
X455070Y440344D01*
X455077Y440351D01*
X455160Y440413D01*
X455230Y440483D01*
X455292Y440552D01*
X455341Y440621D01*
X455389Y440698D01*
X455424Y440767D01*
X455480Y440905D01*
X455514Y441030D01*
X455521Y441086D01*
X455528Y441127D01*
X455535Y441169D01*
Y441218D01*
X455528Y441322D01*
X455514Y441412D01*
X455486Y441509D01*
X455452Y441592D01*
X455369Y441752D01*
X455278Y441883D01*
X455230Y441939D01*
X455181Y441987D01*
X455133Y442029D01*
X455098Y442071D01*
X455064Y442098D01*
X455036Y442119D01*
X455022Y442126D01*
X455015Y442133D01*
X454904Y442202D01*
X454779Y442258D01*
X454627Y442306D01*
X454467Y442348D01*
X454301Y442383D01*
X454127Y442417D01*
X453774Y442459D01*
X453607Y442480D01*
X453448Y442486D01*
X453302Y442494D01*
X453177Y442500D01*
X453066Y442507D01*
D02*
G37*
G36*
X454460Y432286D02*
X454439D01*
X454426D01*
X454419D01*
X454308Y432279D01*
X454197Y432259D01*
X454100Y432231D01*
X454016Y432203D01*
X453940Y432169D01*
X453892Y432141D01*
X453857Y432120D01*
X453843Y432113D01*
X453753Y432044D01*
X453670Y431960D01*
X453607Y431877D01*
X453552Y431801D01*
X453510Y431725D01*
X453483Y431669D01*
X453469Y431628D01*
X453462Y431621D01*
Y431614D01*
X453420Y431482D01*
X453392Y431336D01*
X453372Y431184D01*
X453358Y431038D01*
X453351Y430906D01*
Y430851D01*
X453344Y430802D01*
Y428889D01*
X455459D01*
Y431045D01*
X455445Y431163D01*
X455431Y431274D01*
X455410Y431378D01*
X455389Y431468D01*
X455362Y431551D01*
X455341Y431628D01*
X455313Y431697D01*
X455285Y431759D01*
X455258Y431808D01*
X455230Y431856D01*
X455209Y431891D01*
X455188Y431919D01*
X455174Y431940D01*
X455168Y431947D01*
X455160Y431954D01*
X455105Y432009D01*
X455043Y432064D01*
X454925Y432148D01*
X454800Y432203D01*
X454682Y432245D01*
X454578Y432272D01*
X454529Y432279D01*
X454495D01*
X454460Y432286D01*
D02*
G37*
%LPD*%
D14*
X350835Y473668D02*
X350002Y474501D01*
Y476167D01*
X350835Y477000D01*
X354167D01*
X355000Y476167D01*
Y474501D01*
X354167Y473668D01*
X355000Y472002D02*
Y470336D01*
Y471169D01*
X350002D01*
X350835Y472002D01*
X355000Y467836D02*
Y466170D01*
Y467003D01*
X350002D01*
X350835Y467836D01*
D116*
X320949Y489051D02*
X320449Y488551D01*
X319450D01*
X318950Y489051D01*
Y491050D01*
X319450Y491550D01*
X320449D01*
X320949Y491050D01*
X321949Y491550D02*
X322949D01*
X322449D01*
Y488551D01*
X321949Y489051D01*
X324448D02*
X324948Y488551D01*
X325948D01*
X326447Y489051D01*
Y489551D01*
X325948Y490051D01*
X325448D01*
X325948D01*
X326447Y490550D01*
Y491050D01*
X325948Y491550D01*
X324948D01*
X324448Y491050D01*
X327551Y452949D02*
X328050Y453449D01*
X329050D01*
X329550Y452949D01*
Y450950D01*
X329050Y450450D01*
X328050D01*
X327551Y450950D01*
X326551Y450450D02*
X325551D01*
X326051D01*
Y453449D01*
X326551Y452949D01*
X322052Y450450D02*
X324052D01*
X322052Y452449D01*
Y452949D01*
X322552Y453449D01*
X323552D01*
X324052Y452949D01*
M02*
