G04*
G04 #@! TF.GenerationSoftware,Altium Limited,Altium Designer,26.2.0 (7)*
G04*
G04 Layer_Color=0*
%FSLAX44Y44*%
%MOMM*%
G71*
G04*
G04 #@! TF.SameCoordinates,EA956771-2BF4-40C0-8823-A7A71366CA27*
G04*
G04*
G04 #@! TF.FilePolarity,Positive*
G04*
G01*
G75*
%ADD14C,0.1000*%
D14*
X793000Y789250D02*
X795500D01*
Y791750D01*
Y789250D02*
Y791750D01*
Y786750D02*
Y789250D01*
Y786750D02*
Y789250D01*
X798000D01*
X390000Y325000D02*
Y330000D01*
X385000D02*
X390000D01*
X385000D02*
X390000D01*
Y335000D01*
Y330000D02*
Y335000D01*
Y330000D02*
X395000D01*
X758000Y436500D02*
X762000D01*
X758000D02*
Y440500D01*
X754000Y436500D02*
X758000D01*
X754000D02*
X758000D01*
Y432500D02*
Y436500D01*
X550005Y607000D02*
Y611000D01*
X546005Y607000D02*
X550005D01*
X546005D02*
X554005D01*
X550005D02*
X554005D01*
X550005Y603000D02*
Y607000D01*
Y603000D02*
Y607000D01*
X477500Y330000D02*
Y335000D01*
Y330000D02*
X482500D01*
X477500D02*
X482500D01*
X477500Y325000D02*
Y330000D01*
Y325000D02*
Y330000D01*
X472500D02*
X477500D01*
X758000Y451500D02*
Y454000D01*
Y451500D02*
Y454000D01*
X760500D01*
X758000D02*
X760500D01*
X758000D02*
Y456500D01*
Y454000D02*
Y456500D01*
X755500Y454000D02*
X758000D01*
X671500Y492750D02*
Y495250D01*
Y492750D02*
Y495250D01*
X674000D01*
X671500D02*
X674000D01*
X671500D02*
Y497750D01*
Y495250D02*
Y497750D01*
X669000Y495250D02*
X671500D01*
X600500Y383000D02*
X603000D01*
X600500D02*
X603000D01*
Y380500D02*
Y383000D01*
Y380500D02*
Y383000D01*
X605500D01*
X603000D02*
X605500D01*
X603000D02*
Y385500D01*
X600500Y415500D02*
X603000D01*
X600500D02*
X603000D01*
Y413000D02*
Y415500D01*
Y413000D02*
Y415500D01*
X605500D01*
X603000D02*
X605500D01*
X603000D02*
Y418000D01*
X600500Y448000D02*
X603000D01*
X600500D02*
X603000D01*
Y445500D02*
Y448000D01*
Y445500D02*
Y448000D01*
X605500D01*
X603000D02*
X605500D01*
X603000D02*
Y450500D01*
X600500Y480500D02*
X603000D01*
X600500D02*
X603000D01*
Y478000D02*
Y480500D01*
Y478000D02*
Y480500D01*
X605500D01*
X603000D02*
X605500D01*
X603000D02*
Y483000D01*
X601208Y511735D02*
X603708D01*
X601208D02*
X603708D01*
Y509235D02*
Y511735D01*
Y509235D02*
Y511735D01*
X606208D01*
X603708D02*
X606208D01*
X603708D02*
Y514235D01*
X73000Y696000D02*
Y700000D01*
Y696000D02*
Y700000D01*
X69000Y696000D02*
X73000D01*
X69000D02*
X77000D01*
X73000D02*
X77000D01*
X73000Y692000D02*
Y696000D01*
X76001Y677997D02*
X80001D01*
X76001D02*
Y681997D01*
X72001Y677997D02*
X76001D01*
X72001D02*
X76001D01*
Y673997D02*
Y677997D01*
X450850Y907500D02*
Y910000D01*
Y907500D02*
Y910000D01*
X448350D02*
X450850D01*
X448350D02*
X453350D01*
X450850D02*
X453350D01*
X450850D02*
Y912500D01*
X810250Y599750D02*
X814250D01*
Y595750D02*
Y599750D01*
X818250D01*
X814250D02*
Y603750D01*
X694000Y442500D02*
Y445000D01*
X691500D02*
X694000D01*
X691500D02*
X694000D01*
X696500D01*
X694000D02*
X696500D01*
X694000D02*
Y447500D01*
Y445000D02*
Y447500D01*
X65000Y603750D02*
X67500D01*
Y606250D01*
Y601250D02*
Y606250D01*
Y601250D02*
Y603750D01*
X70000D01*
X67500D02*
X70000D01*
X80000Y461175D02*
X82500D01*
X80000D02*
X82500D01*
X80000Y458675D02*
Y461175D01*
Y458675D02*
Y463675D01*
Y461175D02*
Y463675D01*
X77500Y461175D02*
X80000D01*
X327250Y470500D02*
X329750D01*
X327250D02*
X329750D01*
Y473000D01*
Y468000D02*
Y473000D01*
Y468000D02*
Y470500D01*
X332250D01*
X322000Y577500D02*
Y580000D01*
Y577500D02*
Y580000D01*
X319500D02*
X322000D01*
X319500D02*
X324500D01*
X322000D02*
X324500D01*
X322000D02*
Y582500D01*
X719750Y753500D02*
X723750D01*
Y757500D01*
Y753500D02*
Y757500D01*
Y753500D02*
X727750D01*
X723750Y749500D02*
Y753500D01*
X762000Y416500D02*
Y420500D01*
X758000Y416500D02*
X762000D01*
X758000D02*
X766000D01*
X762000D02*
X766000D01*
X762000Y412500D02*
Y416500D01*
Y412500D02*
Y416500D01*
X254500Y585250D02*
X257000D01*
X254500D02*
X257000D01*
X254500Y582750D02*
Y585250D01*
Y582750D02*
Y587750D01*
Y585250D02*
Y587750D01*
X252000Y585250D02*
X254500D01*
X670000Y511750D02*
X674000D01*
X670000D02*
Y515750D01*
X666000Y511750D02*
X670000D01*
X666000D02*
X670000D01*
Y507750D02*
Y511750D01*
X787000Y476000D02*
Y480000D01*
X783000Y476000D02*
X787000D01*
Y472000D02*
Y476000D01*
Y472000D02*
Y476000D01*
X791000D01*
X550005Y621000D02*
Y625000D01*
X554005D01*
X546005D02*
X554005D01*
X546005D02*
X550005D01*
Y629000D01*
Y625000D02*
Y629000D01*
X234500Y617500D02*
Y621500D01*
X230500Y617500D02*
X234500D01*
Y613500D02*
Y617500D01*
Y613500D02*
Y617500D01*
X238500D01*
X191250Y603750D02*
X193750D01*
X191250D02*
X193750D01*
X191250Y601250D02*
Y603750D01*
Y601250D02*
Y606250D01*
Y603750D02*
Y606250D01*
X188750Y603750D02*
X191250D01*
X218000Y617500D02*
Y621500D01*
X214000Y617500D02*
X218000D01*
Y613500D02*
Y617500D01*
Y613500D02*
Y617500D01*
X222000D01*
X660250Y345000D02*
X662750D01*
X660250D02*
X662750D01*
Y342500D02*
Y345000D01*
Y342500D02*
Y345000D01*
X665250D01*
X662750D02*
X665250D01*
X662750D02*
Y347500D01*
X614250Y345000D02*
X616750D01*
X614250D02*
X616750D01*
X614250D02*
Y347500D01*
Y345000D02*
Y347500D01*
X611750Y345000D02*
X614250D01*
X611750D02*
X614250D01*
Y342500D02*
Y345000D01*
X848000Y592250D02*
Y596250D01*
X852000D01*
X848000D02*
Y600250D01*
Y596250D02*
Y600250D01*
X844000Y596250D02*
X848000D01*
X740000Y753250D02*
Y757250D01*
X736000Y753250D02*
X740000D01*
Y749250D02*
Y753250D01*
Y749250D02*
Y753250D01*
X744000D01*
X638250Y370250D02*
Y372750D01*
Y370250D02*
Y372750D01*
X635750Y370250D02*
X638250D01*
X635750D02*
X638250D01*
Y367750D02*
Y370250D01*
Y367750D02*
Y370250D01*
X640750D01*
X630500Y342255D02*
Y346255D01*
X634500D01*
X630500D02*
Y350255D01*
Y346255D02*
Y350255D01*
X626500Y346255D02*
X630500D01*
X646500Y342250D02*
Y346250D01*
X650500D01*
X646500D02*
Y350250D01*
Y346250D02*
Y350250D01*
X642500Y346250D02*
X646500D01*
X758245Y398250D02*
X762245D01*
X758245D02*
Y402250D01*
X754245Y398250D02*
X758245D01*
X754245D02*
X758245D01*
Y394250D02*
Y398250D01*
X832125Y596229D02*
Y600229D01*
X828125Y596229D02*
X832125D01*
Y592229D02*
Y596229D01*
Y592229D02*
Y596229D01*
X836125D01*
X832000Y626406D02*
Y630406D01*
X828000Y626406D02*
X832000D01*
Y622406D02*
Y626406D01*
Y622406D02*
Y626406D01*
X836000D01*
X816000Y631406D02*
X818500D01*
X816000Y628906D02*
Y631406D01*
Y628906D02*
Y633906D01*
Y631406D02*
Y633906D01*
X813500Y631406D02*
X816000D01*
X813500D02*
X816000D01*
X472000Y509750D02*
X476000D01*
X472000D02*
Y513750D01*
Y505750D02*
Y513750D01*
Y505750D02*
Y509750D01*
X468000D02*
X472000D01*
X468000D02*
X472000D01*
X776000Y714725D02*
X781000D01*
X776000Y709725D02*
Y714725D01*
Y709725D02*
Y714725D01*
X771000D02*
X776000D01*
X771000D02*
X776000D01*
Y719725D01*
X771000Y641000D02*
X776000D01*
Y646000D01*
Y641000D02*
Y646000D01*
Y641000D02*
X781000D01*
X776000D02*
X781000D01*
X776000Y636000D02*
Y641000D01*
X575250Y374000D02*
X579250D01*
Y370000D02*
Y374000D01*
X583250D01*
X579250D02*
X583250D01*
X579250D02*
Y378000D01*
X575000Y424500D02*
X579000D01*
Y420500D02*
Y424500D01*
X583000D01*
X579000D02*
X583000D01*
X579000D02*
Y428500D01*
X575500Y457000D02*
X579500D01*
Y453000D02*
Y457000D01*
X583500D01*
X579500D02*
X583500D01*
X579500D02*
Y461000D01*
X575750Y522000D02*
X579750D01*
Y518000D02*
Y522000D01*
X583750D01*
X579750D02*
X583750D01*
X579750D02*
Y526000D01*
X575005Y489500D02*
X579005D01*
Y485500D02*
Y489500D01*
X583005D01*
X579005D02*
X583005D01*
X579005D02*
Y493500D01*
X506255Y369125D02*
Y373125D01*
Y369125D02*
X510255D01*
X506255D02*
X510255D01*
X506255Y365125D02*
Y369125D01*
X502255D02*
X506255D01*
X510755Y385375D02*
Y387875D01*
Y385375D02*
Y387875D01*
X508255D02*
X510755D01*
X508255D02*
X513255D01*
X510755D02*
X513255D01*
X510755D02*
Y390375D01*
X266269Y547906D02*
X268769D01*
X266269D02*
X268769D01*
Y550406D01*
Y545406D02*
Y550406D01*
Y545406D02*
Y547906D01*
X271269D01*
X223250Y549000D02*
X225750D01*
X223250D02*
X225750D01*
Y551500D01*
Y546500D02*
Y551500D01*
Y546500D02*
Y549000D01*
X228250D01*
X259500Y617250D02*
Y621250D01*
X255500Y617250D02*
X259500D01*
Y613250D02*
Y617250D01*
Y613250D02*
Y617250D01*
X263500D01*
X275750D02*
X279750D01*
X275750Y613250D02*
Y617250D01*
Y613250D02*
Y617250D01*
X271750D02*
X275750D01*
Y621250D01*
X450000Y515000D02*
X452500D01*
X450000D02*
X452500D01*
Y517500D01*
Y512500D02*
Y517500D01*
Y512500D02*
Y515000D01*
X455000D01*
X322000Y549000D02*
Y551500D01*
Y549000D02*
X324500D01*
X319500D02*
X324500D01*
X319500D02*
X322000D01*
Y546500D02*
Y549000D01*
Y546500D02*
Y549000D01*
X318000Y508000D02*
Y510500D01*
Y508000D02*
X320500D01*
X318000D02*
X320500D01*
X315500D02*
X318000D01*
X315500D02*
X318000D01*
Y505500D02*
Y508000D01*
Y505500D02*
Y508000D01*
X396500Y457500D02*
X399000D01*
X396500Y455000D02*
Y457500D01*
Y455000D02*
Y457500D01*
X394000D02*
X396500D01*
X394000D02*
X396500D01*
Y460000D01*
Y457500D02*
Y460000D01*
X245171Y545612D02*
X249171D01*
Y549612D01*
Y545612D02*
Y549612D01*
Y545612D02*
X253171D01*
X249171Y541612D02*
Y545612D01*
X430000Y370000D02*
Y372500D01*
Y370000D02*
Y372500D01*
Y370000D02*
X432500D01*
X427500D02*
X432500D01*
X427500D02*
X430000D01*
Y367500D02*
Y370000D01*
X450850Y53000D02*
Y55500D01*
Y53000D02*
Y55500D01*
Y53000D02*
X453350D01*
X448350D02*
X453350D01*
X448350D02*
X450850D01*
Y50500D02*
Y53000D01*
X170000Y470500D02*
X172500D01*
X170000Y468000D02*
Y470500D01*
Y468000D02*
Y470500D01*
Y473000D01*
Y470500D02*
Y473000D01*
X167500Y470500D02*
X170000D01*
X167500D02*
X170000D01*
X345196Y506000D02*
Y508500D01*
Y506000D02*
X347696D01*
X345196D02*
X347696D01*
X342696D02*
X345196D01*
X342696D02*
X345196D01*
Y503500D02*
Y506000D01*
Y503500D02*
Y506000D01*
X332500Y425000D02*
Y427500D01*
Y425000D02*
X335000D01*
X332500D02*
X335000D01*
X330000D02*
X332500D01*
X330000D02*
X332500D01*
Y422500D02*
Y425000D01*
Y422500D02*
Y425000D01*
X293000Y481500D02*
X295500D01*
X293000Y479000D02*
Y481500D01*
Y479000D02*
Y481500D01*
Y484000D01*
Y481500D02*
Y484000D01*
X290500Y481500D02*
X293000D01*
X290500D02*
X293000D01*
X290500Y459500D02*
X293000D01*
Y462000D01*
Y459500D02*
Y462000D01*
Y457000D02*
Y459500D01*
Y457000D02*
Y459500D01*
X295500D01*
X293000D02*
X295500D01*
X271750Y425750D02*
Y428250D01*
X269250D02*
X271750D01*
X269250D02*
X274250D01*
X271750D02*
X274250D01*
X271750D02*
Y430750D01*
Y428250D02*
Y430750D01*
X157750Y603750D02*
X160250D01*
Y606250D01*
Y601250D02*
Y606250D01*
Y601250D02*
Y603750D01*
X162750D01*
X160250D02*
X162750D01*
X126750D02*
X129250D01*
Y606250D01*
Y601250D02*
Y606250D01*
Y601250D02*
Y603750D01*
X131750D01*
X129250D02*
X131750D01*
X95750D02*
X98250D01*
Y606250D01*
Y601250D02*
Y606250D01*
Y601250D02*
Y603750D01*
X100750D01*
X98250D02*
X100750D01*
X271750Y394750D02*
Y397250D01*
X269250D02*
X271750D01*
X269250D02*
X274250D01*
X271750D02*
X274250D01*
X271750D02*
Y399750D01*
Y397250D02*
Y399750D01*
Y366250D02*
Y368750D01*
Y366250D02*
Y368750D01*
Y366250D02*
X274250D01*
X269250D02*
X274250D01*
X269250D02*
X271750D01*
Y363750D02*
Y366250D01*
X330000Y372500D02*
Y375000D01*
Y372500D02*
Y375000D01*
X327500D02*
X330000D01*
X327500D02*
X332500D01*
X330000D02*
X332500D01*
X330000D02*
Y377500D01*
Y403500D02*
Y406000D01*
Y403500D02*
Y406000D01*
X327500D02*
X330000D01*
X327500D02*
X332500D01*
X330000D02*
X332500D01*
X330000D02*
Y408500D01*
X278012Y508921D02*
Y511421D01*
Y508921D02*
Y511421D01*
Y508921D02*
X280512D01*
X275512D02*
X280512D01*
X275512D02*
X278012D01*
Y506421D02*
Y508921D01*
X395245Y440000D02*
X399245D01*
X395245D02*
Y444000D01*
X391245Y440000D02*
X395245D01*
X391245D02*
X395245D01*
Y436000D02*
Y440000D01*
X352196Y519000D02*
Y523000D01*
X356196D01*
X348196D02*
X356196D01*
X348196D02*
X352196D01*
Y527000D01*
Y523000D02*
Y527000D01*
X475000Y430500D02*
X479000D01*
X475000D02*
Y434500D01*
Y426500D02*
Y434500D01*
Y426500D02*
Y430500D01*
X471000D02*
X475000D01*
X471000D02*
X475000D01*
X398250Y503250D02*
Y507250D01*
X402250D01*
X394250D02*
X402250D01*
X394250D02*
X398250D01*
Y511250D01*
Y507250D02*
Y511250D01*
X427000Y429000D02*
X431000D01*
Y425000D02*
Y429000D01*
Y425000D02*
Y433000D01*
Y429000D02*
Y433000D01*
Y429000D02*
X435000D01*
X431000D02*
X435000D01*
X398250Y487000D02*
Y491000D01*
X394250Y487000D02*
X398250D01*
X394250D02*
X402250D01*
X398250D02*
X402250D01*
X398250Y483000D02*
Y487000D01*
Y483000D02*
Y487000D01*
M02*
