G04*
G04 #@! TF.GenerationSoftware,Altium Limited,Altium Designer,26.2.0 (7)*
G04*
G04 Layer_Color=16711935*
%FSLAX44Y44*%
%MOMM*%
G71*
G04*
G04 #@! TF.SameCoordinates,EA956771-2BF4-40C0-8823-A7A71366CA27*
G04*
G04*
G04 #@! TF.FilePolarity,Positive*
G04*
G01*
G75*
%ADD14C,0.1000*%
D14*
X893100Y72500D02*
Y220750D01*
X825350Y72500D02*
X893100D01*
Y220750D02*
Y871500D01*
X8600D02*
X893100D01*
X8600Y72500D02*
Y871500D01*
Y72500D02*
X825350D01*
X308000Y481250D02*
X340500D01*
Y497750D01*
X308000Y481250D02*
Y497750D01*
X340500D01*
X308000Y460750D02*
X340500D01*
X308000Y444250D02*
Y460750D01*
X340500Y444250D02*
Y460750D01*
X308000Y444250D02*
X340500D01*
X452250Y408750D02*
X461250D01*
Y447500D01*
X452250Y456250D02*
X461250D01*
Y417500D02*
Y456250D01*
X443750Y408750D02*
X452750D01*
X443750D02*
Y447500D01*
Y456250D02*
X452750D01*
X443750Y417500D02*
Y456250D01*
X342000Y508000D02*
Y538250D01*
X326000Y508000D02*
X342000D01*
X326000D02*
Y530750D01*
Y538250D01*
X342000D01*
X340250Y450500D02*
Y490000D01*
Y450500D02*
X361250D01*
X340250Y490000D02*
X361250D01*
Y450500D02*
Y490000D01*
M02*
