G04*
G04 #@! TF.GenerationSoftware,Altium Limited,Altium Designer,26.2.0 (7)*
G04*
G04 Layer_Color=32896*
%FSLAX44Y44*%
%MOMM*%
G71*
G04*
G04 #@! TF.SameCoordinates,33BCE108-0E9A-4A5C-92EA-E60CA21C167F*
G04*
G04*
G04 #@! TF.FilePolarity,Positive*
G04*
G01*
G75*
%ADD10C,0.3000*%
%ADD12C,0.2540*%
%ADD13C,0.2000*%
%ADD14C,0.1500*%
%ADD15C,0.1000*%
%ADD16C,0.1270*%
G36*
X117986Y488810D02*
X117175D01*
Y493830D01*
X113819Y488810D01*
X112945D01*
Y495210D01*
X113756D01*
Y490183D01*
X117119Y495210D01*
X117986D01*
Y488810D01*
D02*
G37*
G36*
X122119Y495314D02*
X122292Y495307D01*
X122459Y495286D01*
X122611Y495259D01*
X122764Y495231D01*
X122902Y495196D01*
X123034Y495162D01*
X123152Y495127D01*
X123256Y495085D01*
X123353Y495051D01*
X123436Y495016D01*
X123506Y494988D01*
X123561Y494961D01*
X123603Y494940D01*
X123630Y494933D01*
X123637Y494926D01*
X123769Y494850D01*
X123894Y494759D01*
X124012Y494669D01*
X124116Y494572D01*
X124220Y494468D01*
X124310Y494371D01*
X124393Y494274D01*
X124469Y494177D01*
X124532Y494080D01*
X124594Y493997D01*
X124643Y493920D01*
X124684Y493851D01*
X124712Y493796D01*
X124733Y493754D01*
X124747Y493726D01*
X124754Y493719D01*
X124823Y493567D01*
X124879Y493414D01*
X124934Y493262D01*
X124976Y493109D01*
X125045Y492818D01*
X125073Y492679D01*
X125094Y492547D01*
X125107Y492430D01*
X125121Y492319D01*
X125128Y492221D01*
X125135Y492138D01*
X125142Y492069D01*
Y492020D01*
Y491993D01*
Y491979D01*
X125135Y491805D01*
X125128Y491632D01*
X125107Y491473D01*
X125080Y491313D01*
X125052Y491167D01*
X125017Y491022D01*
X124983Y490890D01*
X124948Y490772D01*
X124913Y490661D01*
X124879Y490564D01*
X124844Y490481D01*
X124816Y490405D01*
X124788Y490349D01*
X124768Y490308D01*
X124761Y490280D01*
X124754Y490273D01*
X124677Y490134D01*
X124587Y490003D01*
X124497Y489885D01*
X124407Y489767D01*
X124310Y489663D01*
X124213Y489573D01*
X124116Y489482D01*
X124026Y489406D01*
X123935Y489337D01*
X123852Y489274D01*
X123776Y489226D01*
X123714Y489184D01*
X123665Y489150D01*
X123624Y489129D01*
X123596Y489115D01*
X123589Y489108D01*
X123443Y489039D01*
X123291Y488976D01*
X123145Y488921D01*
X122999Y488879D01*
X122847Y488838D01*
X122708Y488803D01*
X122570Y488775D01*
X122445Y488754D01*
X122327Y488741D01*
X122216Y488727D01*
X122119Y488720D01*
X122036Y488713D01*
X121966Y488706D01*
X121876D01*
X121620Y488720D01*
X121370Y488747D01*
X121141Y488782D01*
X121037Y488810D01*
X120933Y488831D01*
X120843Y488852D01*
X120767Y488879D01*
X120690Y488900D01*
X120635Y488914D01*
X120579Y488935D01*
X120545Y488942D01*
X120524Y488955D01*
X120517D01*
X120267Y489060D01*
X120032Y489177D01*
X119817Y489302D01*
X119713Y489365D01*
X119622Y489420D01*
X119539Y489476D01*
X119463Y489531D01*
X119394Y489573D01*
X119338Y489614D01*
X119290Y489649D01*
X119255Y489677D01*
X119234Y489691D01*
X119227Y489697D01*
Y492076D01*
X121938D01*
Y491320D01*
X120059D01*
Y490121D01*
X120170Y490030D01*
X120295Y489954D01*
X120427Y489878D01*
X120559Y489808D01*
X120676Y489753D01*
X120725Y489725D01*
X120767Y489704D01*
X120808Y489691D01*
X120836Y489677D01*
X120850Y489670D01*
X120857D01*
X121051Y489600D01*
X121245Y489552D01*
X121425Y489510D01*
X121585Y489490D01*
X121661Y489482D01*
X121723Y489476D01*
X121779Y489469D01*
X121827D01*
X121869Y489462D01*
X121925D01*
X122160Y489476D01*
X122382Y489503D01*
X122583Y489552D01*
X122681Y489573D01*
X122764Y489600D01*
X122840Y489628D01*
X122909Y489649D01*
X122972Y489677D01*
X123027Y489697D01*
X123069Y489711D01*
X123097Y489725D01*
X123117Y489739D01*
X123124D01*
X123228Y489795D01*
X123325Y489857D01*
X123492Y489989D01*
X123637Y490134D01*
X123762Y490273D01*
X123852Y490398D01*
X123894Y490453D01*
X123922Y490495D01*
X123949Y490536D01*
X123963Y490564D01*
X123970Y490585D01*
X123977Y490592D01*
X124074Y490821D01*
X124144Y491063D01*
X124199Y491299D01*
X124234Y491528D01*
X124241Y491632D01*
X124255Y491729D01*
X124261Y491812D01*
Y491889D01*
X124268Y491944D01*
Y491993D01*
Y492020D01*
Y492027D01*
X124255Y492284D01*
X124227Y492527D01*
X124192Y492742D01*
X124171Y492846D01*
X124144Y492936D01*
X124123Y493019D01*
X124102Y493095D01*
X124081Y493158D01*
X124060Y493213D01*
X124046Y493262D01*
X124033Y493289D01*
X124026Y493310D01*
Y493317D01*
X123970Y493442D01*
X123908Y493560D01*
X123839Y493671D01*
X123776Y493761D01*
X123721Y493837D01*
X123672Y493900D01*
X123644Y493934D01*
X123630Y493948D01*
X123526Y494052D01*
X123408Y494142D01*
X123298Y494226D01*
X123187Y494295D01*
X123090Y494350D01*
X123013Y494385D01*
X122986Y494399D01*
X122965Y494413D01*
X122951Y494420D01*
X122944D01*
X122778Y494482D01*
X122611Y494524D01*
X122438Y494558D01*
X122285Y494579D01*
X122209Y494586D01*
X122147Y494593D01*
X122084D01*
X122036Y494600D01*
X121938D01*
X121765Y494593D01*
X121599Y494572D01*
X121453Y494544D01*
X121321Y494517D01*
X121217Y494482D01*
X121169Y494468D01*
X121134Y494454D01*
X121106Y494440D01*
X121086Y494434D01*
X121072Y494427D01*
X121065D01*
X120926Y494357D01*
X120801Y494288D01*
X120697Y494212D01*
X120607Y494142D01*
X120545Y494073D01*
X120496Y494024D01*
X120462Y493990D01*
X120455Y493976D01*
X120378Y493865D01*
X120309Y493740D01*
X120246Y493615D01*
X120191Y493490D01*
X120149Y493380D01*
X120136Y493331D01*
X120122Y493296D01*
X120108Y493262D01*
X120101Y493234D01*
X120094Y493220D01*
Y493213D01*
X119324Y493421D01*
X119394Y493650D01*
X119470Y493858D01*
X119511Y493948D01*
X119553Y494038D01*
X119588Y494115D01*
X119629Y494184D01*
X119664Y494253D01*
X119699Y494309D01*
X119733Y494357D01*
X119754Y494399D01*
X119782Y494427D01*
X119796Y494447D01*
X119803Y494461D01*
X119810Y494468D01*
X119941Y494614D01*
X120080Y494739D01*
X120226Y494843D01*
X120371Y494933D01*
X120496Y495002D01*
X120552Y495030D01*
X120600Y495051D01*
X120635Y495071D01*
X120663Y495085D01*
X120683Y495092D01*
X120690D01*
X120905Y495169D01*
X121120Y495224D01*
X121335Y495266D01*
X121529Y495293D01*
X121620Y495300D01*
X121696Y495307D01*
X121765Y495314D01*
X121827Y495321D01*
X121945D01*
X122119Y495314D01*
D02*
G37*
G36*
X111523Y488810D02*
X109214D01*
X109006Y488817D01*
X108812Y488824D01*
X108639Y488845D01*
X108486Y488865D01*
X108424Y488872D01*
X108368Y488879D01*
X108313Y488893D01*
X108271Y488900D01*
X108237Y488907D01*
X108216D01*
X108202Y488914D01*
X108195D01*
X108035Y488963D01*
X107883Y489011D01*
X107751Y489067D01*
X107640Y489115D01*
X107550Y489164D01*
X107481Y489198D01*
X107439Y489226D01*
X107432Y489233D01*
X107425D01*
X107307Y489323D01*
X107196Y489413D01*
X107099Y489510D01*
X107016Y489607D01*
X106940Y489691D01*
X106891Y489753D01*
X106870Y489781D01*
X106857Y489801D01*
X106843Y489808D01*
Y489815D01*
X106746Y489961D01*
X106662Y490113D01*
X106586Y490273D01*
X106524Y490419D01*
X106475Y490550D01*
X106454Y490606D01*
X106434Y490654D01*
X106427Y490689D01*
X106413Y490717D01*
X106406Y490738D01*
Y490745D01*
X106350Y490966D01*
X106309Y491188D01*
X106274Y491403D01*
X106253Y491604D01*
X106246Y491694D01*
X106240Y491778D01*
Y491854D01*
X106233Y491916D01*
Y491972D01*
Y492007D01*
Y492034D01*
Y492041D01*
X106246Y492353D01*
X106253Y492499D01*
X106274Y492638D01*
X106295Y492769D01*
X106316Y492894D01*
X106336Y493012D01*
X106357Y493123D01*
X106385Y493220D01*
X106406Y493303D01*
X106427Y493380D01*
X106447Y493442D01*
X106468Y493490D01*
X106475Y493532D01*
X106489Y493553D01*
Y493560D01*
X106593Y493796D01*
X106711Y494011D01*
X106773Y494108D01*
X106836Y494198D01*
X106898Y494281D01*
X106961Y494357D01*
X107016Y494427D01*
X107072Y494482D01*
X107120Y494538D01*
X107162Y494579D01*
X107196Y494614D01*
X107224Y494635D01*
X107238Y494649D01*
X107245Y494655D01*
X107397Y494773D01*
X107557Y494870D01*
X107710Y494947D01*
X107855Y495009D01*
X107987Y495058D01*
X108042Y495071D01*
X108091Y495085D01*
X108126Y495099D01*
X108153Y495106D01*
X108174Y495113D01*
X108181D01*
X108257Y495127D01*
X108341Y495148D01*
X108528Y495169D01*
X108715Y495189D01*
X108902Y495196D01*
X108985Y495203D01*
X109069D01*
X109138Y495210D01*
X111523D01*
Y488810D01*
D02*
G37*
G36*
X118393Y469083D02*
X117582D01*
Y474103D01*
X114226Y469083D01*
X113352D01*
Y475483D01*
X114164D01*
Y470456D01*
X117527Y475483D01*
X118393D01*
Y469083D01*
D02*
G37*
G36*
X120723D02*
X119877D01*
Y475483D01*
X120723D01*
Y469083D01*
D02*
G37*
G36*
X112409Y474727D02*
X110301D01*
Y469083D01*
X109455D01*
Y474727D01*
X107347D01*
Y475483D01*
X112409D01*
Y474727D01*
D02*
G37*
G36*
X111205Y449198D02*
X110394D01*
Y454219D01*
X107038Y449198D01*
X106164D01*
Y455599D01*
X106975D01*
Y450571D01*
X110338Y455599D01*
X111205D01*
Y449198D01*
D02*
G37*
G36*
X122508Y455703D02*
X122668Y455689D01*
X122820Y455675D01*
X122966Y455647D01*
X123111Y455612D01*
X123243Y455578D01*
X123361Y455543D01*
X123479Y455508D01*
X123576Y455467D01*
X123673Y455432D01*
X123749Y455397D01*
X123819Y455363D01*
X123874Y455335D01*
X123909Y455321D01*
X123936Y455307D01*
X123943Y455300D01*
X124075Y455224D01*
X124193Y455134D01*
X124304Y455044D01*
X124415Y454947D01*
X124512Y454850D01*
X124595Y454753D01*
X124678Y454656D01*
X124755Y454558D01*
X124817Y454468D01*
X124873Y454392D01*
X124921Y454316D01*
X124963Y454246D01*
X124990Y454198D01*
X125011Y454156D01*
X125025Y454129D01*
X125032Y454122D01*
X125101Y453976D01*
X125157Y453824D01*
X125205Y453671D01*
X125254Y453525D01*
X125323Y453234D01*
X125344Y453095D01*
X125365Y452971D01*
X125379Y452846D01*
X125393Y452735D01*
X125400Y452638D01*
X125407Y452555D01*
X125413Y452485D01*
Y452437D01*
Y452409D01*
Y452395D01*
X125407Y452222D01*
X125400Y452048D01*
X125379Y451882D01*
X125351Y451729D01*
X125323Y451577D01*
X125295Y451438D01*
X125261Y451306D01*
X125219Y451181D01*
X125185Y451071D01*
X125150Y450974D01*
X125122Y450890D01*
X125094Y450814D01*
X125067Y450759D01*
X125046Y450717D01*
X125039Y450689D01*
X125032Y450682D01*
X124956Y450544D01*
X124873Y450412D01*
X124789Y450294D01*
X124699Y450183D01*
X124609Y450079D01*
X124519Y449982D01*
X124429Y449892D01*
X124346Y449815D01*
X124262Y449746D01*
X124186Y449684D01*
X124117Y449628D01*
X124061Y449587D01*
X124013Y449552D01*
X123971Y449531D01*
X123950Y449517D01*
X123943Y449510D01*
X123812Y449434D01*
X123673Y449372D01*
X123534Y449316D01*
X123396Y449268D01*
X123264Y449233D01*
X123132Y449198D01*
X123007Y449171D01*
X122889Y449150D01*
X122778Y449129D01*
X122681Y449115D01*
X122591Y449108D01*
X122515Y449101D01*
X122452Y449094D01*
X122369D01*
X122210Y449101D01*
X122057Y449108D01*
X121759Y449157D01*
X121620Y449184D01*
X121496Y449219D01*
X121371Y449254D01*
X121260Y449288D01*
X121156Y449323D01*
X121066Y449358D01*
X120989Y449393D01*
X120920Y449420D01*
X120865Y449448D01*
X120830Y449469D01*
X120802Y449476D01*
X120795Y449483D01*
X120539Y449295D01*
X120289Y449136D01*
X120060Y449004D01*
X119949Y448949D01*
X119852Y448900D01*
X119762Y448852D01*
X119679Y448810D01*
X119603Y448782D01*
X119540Y448755D01*
X119492Y448734D01*
X119450Y448720D01*
X119429Y448706D01*
X119422D01*
X119166Y449288D01*
X119353Y449365D01*
X119547Y449462D01*
X119734Y449559D01*
X119901Y449656D01*
X119977Y449705D01*
X120046Y449746D01*
X120109Y449788D01*
X120157Y449815D01*
X120206Y449843D01*
X120234Y449864D01*
X120254Y449878D01*
X120261Y449885D01*
X120088Y450065D01*
X119942Y450252D01*
X119817Y450433D01*
X119713Y450606D01*
X119672Y450682D01*
X119637Y450759D01*
X119603Y450821D01*
X119582Y450876D01*
X119561Y450918D01*
X119547Y450953D01*
X119533Y450974D01*
Y450980D01*
X119450Y451223D01*
X119395Y451466D01*
X119353Y451708D01*
X119332Y451819D01*
X119318Y451930D01*
X119311Y452028D01*
X119304Y452118D01*
X119298Y452201D01*
Y452270D01*
X119291Y452326D01*
Y452367D01*
Y452395D01*
Y452402D01*
X119298Y452575D01*
X119304Y452749D01*
X119325Y452915D01*
X119346Y453068D01*
X119374Y453220D01*
X119408Y453359D01*
X119443Y453491D01*
X119478Y453609D01*
X119512Y453719D01*
X119547Y453816D01*
X119575Y453907D01*
X119609Y453976D01*
X119630Y454031D01*
X119651Y454073D01*
X119658Y454101D01*
X119665Y454108D01*
X119741Y454246D01*
X119817Y454378D01*
X119908Y454496D01*
X119991Y454614D01*
X120081Y454718D01*
X120171Y454815D01*
X120261Y454898D01*
X120351Y454981D01*
X120435Y455051D01*
X120511Y455113D01*
X120573Y455169D01*
X120636Y455210D01*
X120684Y455245D01*
X120719Y455266D01*
X120747Y455280D01*
X120754Y455287D01*
X120892Y455363D01*
X121024Y455425D01*
X121163Y455481D01*
X121301Y455529D01*
X121440Y455571D01*
X121572Y455606D01*
X121697Y455633D01*
X121821Y455654D01*
X121932Y455675D01*
X122029Y455689D01*
X122120Y455696D01*
X122203Y455703D01*
X122265Y455710D01*
X122348D01*
X122508Y455703D01*
D02*
G37*
G36*
X115595D02*
X115830Y455668D01*
X116052Y455626D01*
X116260Y455571D01*
X116461Y455502D01*
X116642Y455425D01*
X116808Y455342D01*
X116961Y455259D01*
X117099Y455176D01*
X117217Y455092D01*
X117314Y455016D01*
X117404Y454947D01*
X117467Y454891D01*
X117515Y454850D01*
X117550Y454815D01*
X117557Y454808D01*
X117710Y454635D01*
X117841Y454441D01*
X117952Y454246D01*
X118049Y454038D01*
X118132Y453830D01*
X118202Y453622D01*
X118257Y453421D01*
X118306Y453220D01*
X118341Y453033D01*
X118361Y452867D01*
X118382Y452707D01*
X118396Y452575D01*
X118403Y452464D01*
Y452423D01*
X118410Y452381D01*
Y452353D01*
Y452333D01*
Y452319D01*
Y452312D01*
X118403Y452159D01*
X118396Y452000D01*
X118354Y451708D01*
X118327Y451570D01*
X118299Y451438D01*
X118264Y451313D01*
X118230Y451202D01*
X118195Y451091D01*
X118160Y451001D01*
X118132Y450918D01*
X118105Y450849D01*
X118084Y450793D01*
X118063Y450752D01*
X118056Y450724D01*
X118049Y450717D01*
X117973Y450578D01*
X117897Y450447D01*
X117814Y450329D01*
X117723Y450211D01*
X117633Y450107D01*
X117543Y450010D01*
X117460Y449920D01*
X117370Y449836D01*
X117287Y449767D01*
X117210Y449705D01*
X117141Y449649D01*
X117085Y449608D01*
X117037Y449573D01*
X116995Y449545D01*
X116974Y449531D01*
X116968Y449524D01*
X116829Y449448D01*
X116690Y449386D01*
X116552Y449323D01*
X116413Y449275D01*
X116274Y449233D01*
X116142Y449198D01*
X116011Y449171D01*
X115893Y449150D01*
X115775Y449129D01*
X115678Y449115D01*
X115581Y449108D01*
X115504Y449101D01*
X115442Y449094D01*
X115352D01*
X115199Y449101D01*
X115047Y449108D01*
X114755Y449157D01*
X114624Y449184D01*
X114492Y449219D01*
X114374Y449254D01*
X114263Y449288D01*
X114159Y449323D01*
X114069Y449358D01*
X113993Y449393D01*
X113923Y449420D01*
X113868Y449448D01*
X113833Y449469D01*
X113806Y449476D01*
X113799Y449483D01*
X113667Y449559D01*
X113542Y449649D01*
X113424Y449739D01*
X113320Y449829D01*
X113223Y449926D01*
X113126Y450023D01*
X113043Y450121D01*
X112966Y450211D01*
X112904Y450301D01*
X112842Y450384D01*
X112793Y450460D01*
X112752Y450523D01*
X112724Y450571D01*
X112703Y450613D01*
X112689Y450641D01*
X112682Y450648D01*
X112613Y450793D01*
X112550Y450946D01*
X112502Y451091D01*
X112453Y451244D01*
X112412Y451390D01*
X112384Y451535D01*
X112356Y451674D01*
X112336Y451806D01*
X112322Y451930D01*
X112308Y452041D01*
X112301Y452138D01*
X112294Y452222D01*
X112287Y452291D01*
Y452346D01*
Y452374D01*
Y452388D01*
X112294Y452568D01*
X112301Y452735D01*
X112322Y452901D01*
X112342Y453061D01*
X112370Y453206D01*
X112405Y453352D01*
X112439Y453484D01*
X112474Y453602D01*
X112509Y453713D01*
X112543Y453810D01*
X112571Y453900D01*
X112606Y453969D01*
X112627Y454025D01*
X112648Y454066D01*
X112654Y454094D01*
X112661Y454101D01*
X112738Y454240D01*
X112814Y454371D01*
X112904Y454496D01*
X112987Y454607D01*
X113077Y454711D01*
X113168Y454808D01*
X113258Y454898D01*
X113348Y454981D01*
X113431Y455051D01*
X113507Y455113D01*
X113570Y455169D01*
X113632Y455210D01*
X113681Y455245D01*
X113715Y455266D01*
X113743Y455280D01*
X113750Y455287D01*
X113889Y455363D01*
X114021Y455425D01*
X114159Y455481D01*
X114298Y455529D01*
X114437Y455571D01*
X114568Y455606D01*
X114693Y455633D01*
X114818Y455654D01*
X114929Y455675D01*
X115026Y455689D01*
X115116Y455696D01*
X115199Y455703D01*
X115262Y455710D01*
X115345D01*
X115595Y455703D01*
D02*
G37*
G36*
X47643Y454314D02*
X47796Y454307D01*
X48080Y454259D01*
X48219Y454231D01*
X48344Y454196D01*
X48468Y454162D01*
X48579Y454127D01*
X48676Y454092D01*
X48766Y454058D01*
X48850Y454023D01*
X48912Y453995D01*
X48967Y453968D01*
X49002Y453947D01*
X49030Y453940D01*
X49037Y453933D01*
X49162Y453857D01*
X49286Y453773D01*
X49398Y453683D01*
X49502Y453593D01*
X49599Y453496D01*
X49689Y453406D01*
X49765Y453309D01*
X49841Y453226D01*
X49904Y453135D01*
X49959Y453059D01*
X50008Y452990D01*
X50049Y452928D01*
X50077Y452872D01*
X50098Y452837D01*
X50112Y452810D01*
X50119Y452803D01*
X50188Y452664D01*
X50243Y452511D01*
X50292Y452366D01*
X50340Y452220D01*
X50410Y451922D01*
X50431Y451783D01*
X50451Y451652D01*
X50465Y451527D01*
X50479Y451416D01*
X50486Y451312D01*
X50493Y451222D01*
X50500Y451152D01*
Y451097D01*
Y451069D01*
Y451055D01*
X50493Y450889D01*
X50486Y450722D01*
X50444Y450403D01*
X50424Y450251D01*
X50396Y450112D01*
X50361Y449981D01*
X50334Y449856D01*
X50299Y449745D01*
X50271Y449641D01*
X50243Y449557D01*
X50216Y449481D01*
X50195Y449426D01*
X50181Y449377D01*
X50174Y449349D01*
X50167Y449342D01*
X50098Y449197D01*
X50029Y449058D01*
X49952Y448933D01*
X49869Y448815D01*
X49786Y448705D01*
X49710Y448607D01*
X49626Y448517D01*
X49550Y448434D01*
X49474Y448358D01*
X49404Y448295D01*
X49342Y448247D01*
X49286Y448198D01*
X49245Y448164D01*
X49210Y448143D01*
X49189Y448129D01*
X49183Y448122D01*
X49058Y448046D01*
X48926Y447983D01*
X48787Y447928D01*
X48642Y447879D01*
X48503Y447845D01*
X48364Y447810D01*
X48226Y447782D01*
X48094Y447761D01*
X47969Y447741D01*
X47858Y447727D01*
X47754Y447720D01*
X47671Y447713D01*
X47595Y447706D01*
X47498D01*
X47310Y447713D01*
X47137Y447727D01*
X46971Y447755D01*
X46811Y447789D01*
X46659Y447831D01*
X46520Y447879D01*
X46395Y447928D01*
X46277Y447976D01*
X46166Y448025D01*
X46076Y448074D01*
X45993Y448122D01*
X45930Y448164D01*
X45875Y448198D01*
X45840Y448226D01*
X45813Y448240D01*
X45806Y448247D01*
X45681Y448358D01*
X45563Y448476D01*
X45459Y448601D01*
X45362Y448725D01*
X45272Y448857D01*
X45195Y448996D01*
X45126Y449121D01*
X45064Y449252D01*
X45008Y449370D01*
X44967Y449481D01*
X44925Y449585D01*
X44897Y449668D01*
X44869Y449745D01*
X44856Y449793D01*
X44842Y449828D01*
Y449842D01*
X45688Y450057D01*
X45722Y449911D01*
X45771Y449772D01*
X45819Y449641D01*
X45868Y449523D01*
X45923Y449412D01*
X45979Y449315D01*
X46034Y449225D01*
X46090Y449141D01*
X46145Y449072D01*
X46194Y449010D01*
X46242Y448954D01*
X46277Y448913D01*
X46312Y448878D01*
X46340Y448857D01*
X46353Y448843D01*
X46360Y448836D01*
X46457Y448767D01*
X46554Y448705D01*
X46652Y448649D01*
X46755Y448601D01*
X46859Y448559D01*
X46957Y448524D01*
X47151Y448476D01*
X47234Y448462D01*
X47317Y448448D01*
X47386Y448441D01*
X47449Y448434D01*
X47498Y448427D01*
X47567D01*
X47678Y448434D01*
X47782Y448441D01*
X47983Y448476D01*
X48170Y448524D01*
X48330Y448580D01*
X48399Y448607D01*
X48461Y448628D01*
X48517Y448656D01*
X48565Y448677D01*
X48607Y448698D01*
X48635Y448712D01*
X48649Y448725D01*
X48656D01*
X48746Y448788D01*
X48829Y448850D01*
X48981Y448996D01*
X49106Y449141D01*
X49210Y449294D01*
X49286Y449426D01*
X49321Y449481D01*
X49349Y449537D01*
X49363Y449578D01*
X49377Y449606D01*
X49391Y449627D01*
Y449634D01*
X49467Y449869D01*
X49529Y450112D01*
X49571Y450355D01*
X49585Y450466D01*
X49599Y450577D01*
X49605Y450681D01*
X49612Y450771D01*
X49619Y450854D01*
Y450924D01*
X49626Y450986D01*
Y451027D01*
Y451055D01*
Y451062D01*
X49619Y451298D01*
X49599Y451520D01*
X49564Y451728D01*
X49550Y451825D01*
X49529Y451915D01*
X49508Y451991D01*
X49495Y452068D01*
X49474Y452130D01*
X49460Y452186D01*
X49453Y452227D01*
X49439Y452262D01*
X49432Y452283D01*
Y452290D01*
X49342Y452505D01*
X49238Y452692D01*
X49127Y452851D01*
X49065Y452921D01*
X49009Y452990D01*
X48954Y453045D01*
X48905Y453094D01*
X48857Y453143D01*
X48822Y453177D01*
X48787Y453205D01*
X48759Y453226D01*
X48746Y453233D01*
X48739Y453240D01*
X48642Y453302D01*
X48545Y453357D01*
X48440Y453406D01*
X48337Y453448D01*
X48128Y453510D01*
X47927Y453559D01*
X47844Y453572D01*
X47761Y453579D01*
X47685Y453586D01*
X47622Y453593D01*
X47567Y453600D01*
X47380D01*
X47269Y453586D01*
X47061Y453552D01*
X46880Y453496D01*
X46804Y453468D01*
X46728Y453441D01*
X46659Y453413D01*
X46603Y453385D01*
X46554Y453357D01*
X46513Y453330D01*
X46478Y453309D01*
X46457Y453295D01*
X46444Y453288D01*
X46437Y453281D01*
X46360Y453219D01*
X46284Y453149D01*
X46159Y452990D01*
X46041Y452817D01*
X45951Y452650D01*
X45882Y452498D01*
X45847Y452435D01*
X45826Y452380D01*
X45806Y452331D01*
X45799Y452290D01*
X45785Y452269D01*
Y452262D01*
X44953Y452456D01*
X45008Y452616D01*
X45071Y452768D01*
X45133Y452914D01*
X45209Y453045D01*
X45279Y453170D01*
X45355Y453281D01*
X45431Y453385D01*
X45507Y453475D01*
X45584Y453559D01*
X45646Y453628D01*
X45708Y453690D01*
X45764Y453739D01*
X45806Y453780D01*
X45840Y453808D01*
X45861Y453822D01*
X45868Y453829D01*
X45993Y453919D01*
X46125Y453988D01*
X46256Y454058D01*
X46395Y454113D01*
X46534Y454162D01*
X46665Y454203D01*
X46797Y454231D01*
X46922Y454259D01*
X47040Y454280D01*
X47144Y454294D01*
X47241Y454307D01*
X47324Y454314D01*
X47393Y454321D01*
X47484D01*
X47643Y454314D01*
D02*
G37*
G36*
X43781Y447810D02*
X39003D01*
Y448566D01*
X42935D01*
Y450743D01*
X39391D01*
Y451499D01*
X42935D01*
Y453455D01*
X39149D01*
Y454210D01*
X43781D01*
Y447810D01*
D02*
G37*
G36*
X117986Y428810D02*
X117175D01*
Y433830D01*
X113819Y428810D01*
X112945D01*
Y435210D01*
X113756D01*
Y430183D01*
X117119Y435210D01*
X117986D01*
Y428810D01*
D02*
G37*
G36*
X122119Y435314D02*
X122292Y435308D01*
X122459Y435287D01*
X122611Y435259D01*
X122764Y435231D01*
X122902Y435196D01*
X123034Y435162D01*
X123152Y435127D01*
X123256Y435086D01*
X123353Y435051D01*
X123436Y435016D01*
X123506Y434989D01*
X123561Y434961D01*
X123603Y434940D01*
X123630Y434933D01*
X123637Y434926D01*
X123769Y434850D01*
X123894Y434760D01*
X124012Y434669D01*
X124116Y434572D01*
X124220Y434468D01*
X124310Y434371D01*
X124393Y434274D01*
X124469Y434177D01*
X124532Y434080D01*
X124594Y433997D01*
X124643Y433921D01*
X124684Y433851D01*
X124712Y433796D01*
X124733Y433754D01*
X124747Y433727D01*
X124754Y433720D01*
X124823Y433567D01*
X124879Y433414D01*
X124934Y433262D01*
X124976Y433109D01*
X125045Y432818D01*
X125073Y432679D01*
X125094Y432548D01*
X125107Y432430D01*
X125121Y432319D01*
X125128Y432222D01*
X125135Y432139D01*
X125142Y432069D01*
Y432021D01*
Y431993D01*
Y431979D01*
X125135Y431806D01*
X125128Y431632D01*
X125107Y431473D01*
X125080Y431313D01*
X125052Y431168D01*
X125017Y431022D01*
X124983Y430890D01*
X124948Y430773D01*
X124913Y430662D01*
X124879Y430564D01*
X124844Y430481D01*
X124816Y430405D01*
X124788Y430350D01*
X124768Y430308D01*
X124761Y430280D01*
X124754Y430273D01*
X124677Y430135D01*
X124587Y430003D01*
X124497Y429885D01*
X124407Y429767D01*
X124310Y429663D01*
X124213Y429573D01*
X124116Y429483D01*
X124026Y429407D01*
X123935Y429337D01*
X123852Y429275D01*
X123776Y429226D01*
X123714Y429185D01*
X123665Y429150D01*
X123624Y429129D01*
X123596Y429115D01*
X123589Y429108D01*
X123443Y429039D01*
X123291Y428977D01*
X123145Y428921D01*
X122999Y428880D01*
X122847Y428838D01*
X122708Y428803D01*
X122570Y428775D01*
X122445Y428755D01*
X122327Y428741D01*
X122216Y428727D01*
X122119Y428720D01*
X122036Y428713D01*
X121966Y428706D01*
X121876D01*
X121620Y428720D01*
X121370Y428748D01*
X121141Y428782D01*
X121037Y428810D01*
X120933Y428831D01*
X120843Y428852D01*
X120767Y428880D01*
X120690Y428900D01*
X120635Y428914D01*
X120579Y428935D01*
X120545Y428942D01*
X120524Y428956D01*
X120517D01*
X120267Y429060D01*
X120032Y429178D01*
X119817Y429302D01*
X119713Y429365D01*
X119622Y429420D01*
X119539Y429476D01*
X119463Y429531D01*
X119394Y429573D01*
X119338Y429614D01*
X119290Y429649D01*
X119255Y429677D01*
X119234Y429691D01*
X119227Y429698D01*
Y432076D01*
X121938D01*
Y431320D01*
X120059D01*
Y430121D01*
X120170Y430031D01*
X120295Y429954D01*
X120427Y429878D01*
X120559Y429809D01*
X120676Y429753D01*
X120725Y429725D01*
X120767Y429705D01*
X120808Y429691D01*
X120836Y429677D01*
X120850Y429670D01*
X120857D01*
X121051Y429601D01*
X121245Y429552D01*
X121425Y429510D01*
X121585Y429490D01*
X121661Y429483D01*
X121723Y429476D01*
X121779Y429469D01*
X121827D01*
X121869Y429462D01*
X121925D01*
X122160Y429476D01*
X122382Y429504D01*
X122583Y429552D01*
X122681Y429573D01*
X122764Y429601D01*
X122840Y429628D01*
X122909Y429649D01*
X122972Y429677D01*
X123027Y429698D01*
X123069Y429712D01*
X123097Y429725D01*
X123117Y429739D01*
X123124D01*
X123228Y429795D01*
X123325Y429857D01*
X123492Y429989D01*
X123637Y430135D01*
X123762Y430273D01*
X123852Y430398D01*
X123894Y430453D01*
X123922Y430495D01*
X123949Y430537D01*
X123963Y430564D01*
X123970Y430585D01*
X123977Y430592D01*
X124074Y430821D01*
X124144Y431064D01*
X124199Y431300D01*
X124234Y431528D01*
X124241Y431632D01*
X124255Y431729D01*
X124261Y431813D01*
Y431889D01*
X124268Y431944D01*
Y431993D01*
Y432021D01*
Y432028D01*
X124255Y432284D01*
X124227Y432527D01*
X124192Y432742D01*
X124171Y432846D01*
X124144Y432936D01*
X124123Y433019D01*
X124102Y433096D01*
X124081Y433158D01*
X124060Y433213D01*
X124046Y433262D01*
X124033Y433290D01*
X124026Y433310D01*
Y433317D01*
X123970Y433442D01*
X123908Y433560D01*
X123839Y433671D01*
X123776Y433761D01*
X123721Y433837D01*
X123672Y433900D01*
X123644Y433935D01*
X123630Y433948D01*
X123526Y434052D01*
X123408Y434142D01*
X123298Y434226D01*
X123187Y434295D01*
X123090Y434351D01*
X123013Y434385D01*
X122986Y434399D01*
X122965Y434413D01*
X122951Y434420D01*
X122944D01*
X122778Y434482D01*
X122611Y434524D01*
X122438Y434559D01*
X122285Y434579D01*
X122209Y434586D01*
X122147Y434593D01*
X122084D01*
X122036Y434600D01*
X121938D01*
X121765Y434593D01*
X121599Y434572D01*
X121453Y434545D01*
X121321Y434517D01*
X121217Y434482D01*
X121169Y434468D01*
X121134Y434455D01*
X121106Y434441D01*
X121086Y434434D01*
X121072Y434427D01*
X121065D01*
X120926Y434357D01*
X120801Y434288D01*
X120697Y434212D01*
X120607Y434142D01*
X120545Y434073D01*
X120496Y434025D01*
X120462Y433990D01*
X120455Y433976D01*
X120378Y433865D01*
X120309Y433740D01*
X120246Y433615D01*
X120191Y433491D01*
X120149Y433380D01*
X120136Y433331D01*
X120122Y433297D01*
X120108Y433262D01*
X120101Y433234D01*
X120094Y433220D01*
Y433213D01*
X119324Y433421D01*
X119394Y433650D01*
X119470Y433858D01*
X119511Y433948D01*
X119553Y434039D01*
X119588Y434115D01*
X119629Y434184D01*
X119664Y434254D01*
X119699Y434309D01*
X119733Y434357D01*
X119754Y434399D01*
X119782Y434427D01*
X119796Y434448D01*
X119803Y434462D01*
X119810Y434468D01*
X119941Y434614D01*
X120080Y434739D01*
X120226Y434843D01*
X120371Y434933D01*
X120496Y435002D01*
X120552Y435030D01*
X120600Y435051D01*
X120635Y435072D01*
X120663Y435086D01*
X120683Y435093D01*
X120690D01*
X120905Y435169D01*
X121120Y435224D01*
X121335Y435266D01*
X121529Y435294D01*
X121620Y435301D01*
X121696Y435308D01*
X121765Y435314D01*
X121827Y435321D01*
X121945D01*
X122119Y435314D01*
D02*
G37*
G36*
X111523Y428810D02*
X109214D01*
X109006Y428817D01*
X108812Y428824D01*
X108639Y428845D01*
X108486Y428866D01*
X108424Y428872D01*
X108368Y428880D01*
X108313Y428893D01*
X108271Y428900D01*
X108237Y428907D01*
X108216D01*
X108202Y428914D01*
X108195D01*
X108035Y428963D01*
X107883Y429011D01*
X107751Y429067D01*
X107640Y429115D01*
X107550Y429164D01*
X107481Y429198D01*
X107439Y429226D01*
X107432Y429233D01*
X107425D01*
X107307Y429323D01*
X107196Y429413D01*
X107099Y429510D01*
X107016Y429608D01*
X106940Y429691D01*
X106891Y429753D01*
X106870Y429781D01*
X106857Y429802D01*
X106843Y429809D01*
Y429816D01*
X106746Y429961D01*
X106662Y430114D01*
X106586Y430273D01*
X106524Y430419D01*
X106475Y430551D01*
X106454Y430606D01*
X106434Y430655D01*
X106427Y430689D01*
X106413Y430717D01*
X106406Y430738D01*
Y430745D01*
X106350Y430967D01*
X106309Y431189D01*
X106274Y431404D01*
X106253Y431605D01*
X106246Y431695D01*
X106240Y431778D01*
Y431854D01*
X106233Y431917D01*
Y431972D01*
Y432007D01*
Y432034D01*
Y432042D01*
X106246Y432354D01*
X106253Y432499D01*
X106274Y432638D01*
X106295Y432770D01*
X106316Y432894D01*
X106336Y433012D01*
X106357Y433123D01*
X106385Y433220D01*
X106406Y433303D01*
X106427Y433380D01*
X106447Y433442D01*
X106468Y433491D01*
X106475Y433532D01*
X106489Y433553D01*
Y433560D01*
X106593Y433796D01*
X106711Y434011D01*
X106773Y434108D01*
X106836Y434198D01*
X106898Y434281D01*
X106961Y434357D01*
X107016Y434427D01*
X107072Y434482D01*
X107120Y434538D01*
X107162Y434579D01*
X107196Y434614D01*
X107224Y434635D01*
X107238Y434649D01*
X107245Y434656D01*
X107397Y434774D01*
X107557Y434871D01*
X107710Y434947D01*
X107855Y435009D01*
X107987Y435058D01*
X108042Y435072D01*
X108091Y435086D01*
X108126Y435099D01*
X108153Y435106D01*
X108174Y435113D01*
X108181D01*
X108257Y435127D01*
X108341Y435148D01*
X108528Y435169D01*
X108715Y435190D01*
X108902Y435196D01*
X108985Y435204D01*
X109069D01*
X109138Y435210D01*
X111523D01*
Y428810D01*
D02*
G37*
G36*
X117986Y508810D02*
X117175D01*
Y513830D01*
X113819Y508810D01*
X112945D01*
Y515210D01*
X113756D01*
Y510183D01*
X117119Y515210D01*
X117986D01*
Y508810D01*
D02*
G37*
G36*
X122119Y515314D02*
X122292Y515307D01*
X122459Y515286D01*
X122611Y515259D01*
X122764Y515231D01*
X122902Y515196D01*
X123034Y515162D01*
X123152Y515127D01*
X123256Y515085D01*
X123353Y515051D01*
X123436Y515016D01*
X123506Y514988D01*
X123561Y514961D01*
X123603Y514940D01*
X123630Y514933D01*
X123637Y514926D01*
X123769Y514850D01*
X123894Y514759D01*
X124012Y514669D01*
X124116Y514572D01*
X124220Y514468D01*
X124310Y514371D01*
X124393Y514274D01*
X124469Y514177D01*
X124532Y514080D01*
X124594Y513997D01*
X124643Y513920D01*
X124684Y513851D01*
X124712Y513796D01*
X124733Y513754D01*
X124747Y513726D01*
X124754Y513719D01*
X124823Y513567D01*
X124879Y513414D01*
X124934Y513262D01*
X124976Y513109D01*
X125045Y512818D01*
X125073Y512679D01*
X125094Y512547D01*
X125107Y512430D01*
X125121Y512319D01*
X125128Y512222D01*
X125135Y512138D01*
X125142Y512069D01*
Y512020D01*
Y511993D01*
Y511979D01*
X125135Y511805D01*
X125128Y511632D01*
X125107Y511473D01*
X125080Y511313D01*
X125052Y511168D01*
X125017Y511022D01*
X124983Y510890D01*
X124948Y510772D01*
X124913Y510661D01*
X124879Y510564D01*
X124844Y510481D01*
X124816Y510405D01*
X124788Y510349D01*
X124768Y510308D01*
X124761Y510280D01*
X124754Y510273D01*
X124677Y510134D01*
X124587Y510003D01*
X124497Y509885D01*
X124407Y509767D01*
X124310Y509663D01*
X124213Y509573D01*
X124116Y509482D01*
X124026Y509406D01*
X123935Y509337D01*
X123852Y509274D01*
X123776Y509226D01*
X123714Y509184D01*
X123665Y509150D01*
X123624Y509129D01*
X123596Y509115D01*
X123589Y509108D01*
X123443Y509039D01*
X123291Y508976D01*
X123145Y508921D01*
X122999Y508879D01*
X122847Y508838D01*
X122708Y508803D01*
X122570Y508775D01*
X122445Y508755D01*
X122327Y508741D01*
X122216Y508727D01*
X122119Y508720D01*
X122036Y508713D01*
X121966Y508706D01*
X121876D01*
X121620Y508720D01*
X121370Y508747D01*
X121141Y508782D01*
X121037Y508810D01*
X120933Y508831D01*
X120843Y508852D01*
X120767Y508879D01*
X120690Y508900D01*
X120635Y508914D01*
X120579Y508935D01*
X120545Y508942D01*
X120524Y508955D01*
X120517D01*
X120267Y509060D01*
X120032Y509177D01*
X119817Y509302D01*
X119713Y509365D01*
X119622Y509420D01*
X119539Y509476D01*
X119463Y509531D01*
X119394Y509573D01*
X119338Y509614D01*
X119290Y509649D01*
X119255Y509677D01*
X119234Y509691D01*
X119227Y509697D01*
Y512076D01*
X121938D01*
Y511320D01*
X120059D01*
Y510121D01*
X120170Y510030D01*
X120295Y509954D01*
X120427Y509878D01*
X120559Y509809D01*
X120676Y509753D01*
X120725Y509725D01*
X120767Y509704D01*
X120808Y509691D01*
X120836Y509677D01*
X120850Y509670D01*
X120857D01*
X121051Y509600D01*
X121245Y509552D01*
X121425Y509510D01*
X121585Y509490D01*
X121661Y509482D01*
X121723Y509476D01*
X121779Y509469D01*
X121827D01*
X121869Y509462D01*
X121925D01*
X122160Y509476D01*
X122382Y509503D01*
X122583Y509552D01*
X122681Y509573D01*
X122764Y509600D01*
X122840Y509628D01*
X122909Y509649D01*
X122972Y509677D01*
X123027Y509697D01*
X123069Y509711D01*
X123097Y509725D01*
X123117Y509739D01*
X123124D01*
X123228Y509795D01*
X123325Y509857D01*
X123492Y509989D01*
X123637Y510134D01*
X123762Y510273D01*
X123852Y510398D01*
X123894Y510453D01*
X123922Y510495D01*
X123949Y510536D01*
X123963Y510564D01*
X123970Y510585D01*
X123977Y510592D01*
X124074Y510821D01*
X124144Y511063D01*
X124199Y511299D01*
X124234Y511528D01*
X124241Y511632D01*
X124255Y511729D01*
X124261Y511812D01*
Y511889D01*
X124268Y511944D01*
Y511993D01*
Y512020D01*
Y512027D01*
X124255Y512284D01*
X124227Y512527D01*
X124192Y512742D01*
X124171Y512846D01*
X124144Y512936D01*
X124123Y513019D01*
X124102Y513095D01*
X124081Y513158D01*
X124060Y513213D01*
X124046Y513262D01*
X124033Y513289D01*
X124026Y513310D01*
Y513317D01*
X123970Y513442D01*
X123908Y513560D01*
X123839Y513671D01*
X123776Y513761D01*
X123721Y513837D01*
X123672Y513900D01*
X123644Y513934D01*
X123630Y513948D01*
X123526Y514052D01*
X123408Y514142D01*
X123298Y514226D01*
X123187Y514295D01*
X123090Y514350D01*
X123013Y514385D01*
X122986Y514399D01*
X122965Y514413D01*
X122951Y514420D01*
X122944D01*
X122778Y514482D01*
X122611Y514524D01*
X122438Y514558D01*
X122285Y514579D01*
X122209Y514586D01*
X122147Y514593D01*
X122084D01*
X122036Y514600D01*
X121938D01*
X121765Y514593D01*
X121599Y514572D01*
X121453Y514544D01*
X121321Y514517D01*
X121217Y514482D01*
X121169Y514468D01*
X121134Y514454D01*
X121106Y514440D01*
X121086Y514434D01*
X121072Y514427D01*
X121065D01*
X120926Y514357D01*
X120801Y514288D01*
X120697Y514212D01*
X120607Y514142D01*
X120545Y514073D01*
X120496Y514024D01*
X120462Y513990D01*
X120455Y513976D01*
X120378Y513865D01*
X120309Y513740D01*
X120246Y513615D01*
X120191Y513490D01*
X120149Y513380D01*
X120136Y513331D01*
X120122Y513296D01*
X120108Y513262D01*
X120101Y513234D01*
X120094Y513220D01*
Y513213D01*
X119324Y513421D01*
X119394Y513650D01*
X119470Y513858D01*
X119511Y513948D01*
X119553Y514038D01*
X119588Y514115D01*
X119629Y514184D01*
X119664Y514253D01*
X119699Y514309D01*
X119733Y514357D01*
X119754Y514399D01*
X119782Y514427D01*
X119796Y514447D01*
X119803Y514461D01*
X119810Y514468D01*
X119941Y514614D01*
X120080Y514739D01*
X120226Y514843D01*
X120371Y514933D01*
X120496Y515002D01*
X120552Y515030D01*
X120600Y515051D01*
X120635Y515071D01*
X120663Y515085D01*
X120683Y515092D01*
X120690D01*
X120905Y515169D01*
X121120Y515224D01*
X121335Y515266D01*
X121529Y515293D01*
X121620Y515300D01*
X121696Y515307D01*
X121765Y515314D01*
X121827Y515321D01*
X121945D01*
X122119Y515314D01*
D02*
G37*
G36*
X111523Y508810D02*
X109214D01*
X109006Y508817D01*
X108812Y508824D01*
X108639Y508845D01*
X108486Y508865D01*
X108424Y508872D01*
X108368Y508879D01*
X108313Y508893D01*
X108271Y508900D01*
X108237Y508907D01*
X108216D01*
X108202Y508914D01*
X108195D01*
X108035Y508963D01*
X107883Y509011D01*
X107751Y509067D01*
X107640Y509115D01*
X107550Y509164D01*
X107481Y509198D01*
X107439Y509226D01*
X107432Y509233D01*
X107425D01*
X107307Y509323D01*
X107196Y509413D01*
X107099Y509510D01*
X107016Y509607D01*
X106940Y509691D01*
X106891Y509753D01*
X106870Y509781D01*
X106857Y509801D01*
X106843Y509809D01*
Y509815D01*
X106746Y509961D01*
X106662Y510114D01*
X106586Y510273D01*
X106524Y510419D01*
X106475Y510550D01*
X106454Y510606D01*
X106434Y510654D01*
X106427Y510689D01*
X106413Y510717D01*
X106406Y510738D01*
Y510745D01*
X106350Y510966D01*
X106309Y511188D01*
X106274Y511403D01*
X106253Y511604D01*
X106246Y511695D01*
X106240Y511778D01*
Y511854D01*
X106233Y511917D01*
Y511972D01*
Y512007D01*
Y512034D01*
Y512041D01*
X106246Y512353D01*
X106253Y512499D01*
X106274Y512638D01*
X106295Y512769D01*
X106316Y512894D01*
X106336Y513012D01*
X106357Y513123D01*
X106385Y513220D01*
X106406Y513303D01*
X106427Y513380D01*
X106447Y513442D01*
X106468Y513490D01*
X106475Y513532D01*
X106489Y513553D01*
Y513560D01*
X106593Y513796D01*
X106711Y514011D01*
X106773Y514108D01*
X106836Y514198D01*
X106898Y514281D01*
X106961Y514357D01*
X107016Y514427D01*
X107072Y514482D01*
X107120Y514538D01*
X107162Y514579D01*
X107196Y514614D01*
X107224Y514635D01*
X107238Y514649D01*
X107245Y514655D01*
X107397Y514773D01*
X107557Y514870D01*
X107710Y514947D01*
X107855Y515009D01*
X107987Y515058D01*
X108042Y515071D01*
X108091Y515085D01*
X108126Y515099D01*
X108153Y515106D01*
X108174Y515113D01*
X108181D01*
X108257Y515127D01*
X108341Y515148D01*
X108528Y515169D01*
X108715Y515189D01*
X108902Y515196D01*
X108985Y515203D01*
X109069D01*
X109138Y515210D01*
X111523D01*
Y508810D01*
D02*
G37*
G36*
X115587Y531515D02*
Y528810D01*
X114741D01*
Y531515D01*
X112189Y535210D01*
X113174D01*
X114415Y533324D01*
X114560Y533096D01*
X114699Y532881D01*
X114817Y532693D01*
X114873Y532603D01*
X114921Y532527D01*
X114963Y532458D01*
X115004Y532388D01*
X115032Y532333D01*
X115060Y532291D01*
X115087Y532249D01*
X115101Y532222D01*
X115108Y532208D01*
X115115Y532201D01*
X115226Y532402D01*
X115344Y532596D01*
X115455Y532776D01*
X115552Y532936D01*
X115601Y533012D01*
X115642Y533075D01*
X115677Y533137D01*
X115705Y533186D01*
X115732Y533220D01*
X115753Y533255D01*
X115760Y533269D01*
X115767Y533276D01*
X117029Y535210D01*
X118055D01*
X115587Y531515D01*
D02*
G37*
G36*
X121377Y535314D02*
X121599Y535287D01*
X121793Y535252D01*
X121883Y535231D01*
X121966Y535210D01*
X122043Y535190D01*
X122112Y535169D01*
X122174Y535148D01*
X122223Y535134D01*
X122257Y535120D01*
X122292Y535106D01*
X122306Y535099D01*
X122313D01*
X122500Y535009D01*
X122660Y534905D01*
X122798Y534801D01*
X122909Y534697D01*
X122999Y534600D01*
X123069Y534524D01*
X123090Y534496D01*
X123103Y534475D01*
X123117Y534462D01*
Y534455D01*
X123207Y534295D01*
X123277Y534136D01*
X123318Y533990D01*
X123353Y533851D01*
X123374Y533727D01*
X123381Y533678D01*
Y533636D01*
X123388Y533602D01*
Y533574D01*
Y533560D01*
Y533553D01*
X123381Y533394D01*
X123353Y533241D01*
X123318Y533102D01*
X123277Y532985D01*
X123235Y532887D01*
X123201Y532811D01*
X123187Y532783D01*
X123173Y532763D01*
X123166Y532756D01*
Y532749D01*
X123076Y532624D01*
X122965Y532506D01*
X122854Y532409D01*
X122736Y532319D01*
X122639Y532249D01*
X122556Y532201D01*
X122521Y532187D01*
X122500Y532173D01*
X122486Y532159D01*
X122479D01*
X122410Y532125D01*
X122327Y532090D01*
X122237Y532055D01*
X122140Y532021D01*
X121938Y531951D01*
X121730Y531889D01*
X121633Y531861D01*
X121550Y531833D01*
X121467Y531813D01*
X121391Y531792D01*
X121335Y531778D01*
X121287Y531764D01*
X121259Y531757D01*
X121252D01*
X121093Y531722D01*
X120947Y531681D01*
X120822Y531653D01*
X120704Y531618D01*
X120600Y531591D01*
X120503Y531570D01*
X120427Y531542D01*
X120351Y531521D01*
X120295Y531507D01*
X120240Y531487D01*
X120198Y531473D01*
X120170Y531466D01*
X120142Y531459D01*
X120129Y531452D01*
X120115Y531445D01*
X119976Y531383D01*
X119858Y531320D01*
X119754Y531258D01*
X119678Y531202D01*
X119615Y531147D01*
X119574Y531105D01*
X119546Y531078D01*
X119539Y531071D01*
X119477Y530988D01*
X119435Y530897D01*
X119401Y530807D01*
X119380Y530724D01*
X119366Y530655D01*
X119359Y530592D01*
Y530558D01*
Y530551D01*
Y530544D01*
X119366Y530440D01*
X119387Y530336D01*
X119421Y530246D01*
X119449Y530162D01*
X119484Y530093D01*
X119518Y530037D01*
X119539Y530010D01*
X119546Y529996D01*
X119622Y529906D01*
X119706Y529829D01*
X119803Y529760D01*
X119893Y529705D01*
X119976Y529663D01*
X120038Y529628D01*
X120066Y529614D01*
X120087Y529608D01*
X120094Y529601D01*
X120101D01*
X120240Y529552D01*
X120385Y529517D01*
X120531Y529497D01*
X120663Y529483D01*
X120773Y529469D01*
X120822D01*
X120864Y529462D01*
X120947D01*
X121148Y529469D01*
X121328Y529490D01*
X121502Y529524D01*
X121647Y529559D01*
X121710Y529573D01*
X121765Y529587D01*
X121814Y529608D01*
X121855Y529621D01*
X121890Y529635D01*
X121911Y529642D01*
X121925Y529649D01*
X121932D01*
X122084Y529725D01*
X122216Y529809D01*
X122327Y529885D01*
X122417Y529968D01*
X122486Y530037D01*
X122535Y530093D01*
X122570Y530128D01*
X122576Y530141D01*
X122646Y530266D01*
X122701Y530398D01*
X122743Y530530D01*
X122778Y530655D01*
X122805Y530773D01*
X122812Y530814D01*
X122819Y530856D01*
X122826Y530890D01*
X122833Y530918D01*
Y530932D01*
Y530939D01*
X123630Y530870D01*
X123624Y530752D01*
X123610Y530634D01*
X123568Y530419D01*
X123513Y530218D01*
X123485Y530128D01*
X123450Y530051D01*
X123422Y529975D01*
X123388Y529906D01*
X123360Y529850D01*
X123332Y529802D01*
X123312Y529760D01*
X123298Y529732D01*
X123291Y529719D01*
X123284Y529712D01*
X123152Y529531D01*
X122999Y529379D01*
X122847Y529247D01*
X122701Y529143D01*
X122570Y529060D01*
X122514Y529032D01*
X122465Y529004D01*
X122424Y528983D01*
X122396Y528970D01*
X122375Y528956D01*
X122368D01*
X122133Y528872D01*
X121890Y528810D01*
X121647Y528769D01*
X121418Y528741D01*
X121307Y528727D01*
X121210Y528720D01*
X121127Y528713D01*
X121051D01*
X120989Y528706D01*
X120905D01*
X120656Y528720D01*
X120427Y528748D01*
X120219Y528782D01*
X120122Y528810D01*
X120038Y528831D01*
X119955Y528852D01*
X119886Y528880D01*
X119824Y528900D01*
X119775Y528914D01*
X119733Y528935D01*
X119706Y528942D01*
X119685Y528956D01*
X119678D01*
X119484Y529060D01*
X119317Y529171D01*
X119172Y529289D01*
X119054Y529399D01*
X118957Y529504D01*
X118894Y529580D01*
X118867Y529614D01*
X118853Y529635D01*
X118839Y529649D01*
Y529656D01*
X118783Y529739D01*
X118742Y529829D01*
X118666Y529996D01*
X118610Y530155D01*
X118575Y530301D01*
X118555Y530433D01*
X118548Y530481D01*
Y530530D01*
X118541Y530564D01*
Y530592D01*
Y530606D01*
Y530613D01*
X118555Y530800D01*
X118582Y530974D01*
X118624Y531126D01*
X118673Y531258D01*
X118728Y531369D01*
X118749Y531417D01*
X118770Y531452D01*
X118783Y531480D01*
X118797Y531501D01*
X118811Y531515D01*
Y531521D01*
X118867Y531591D01*
X118922Y531660D01*
X119054Y531792D01*
X119186Y531903D01*
X119324Y531993D01*
X119442Y532069D01*
X119498Y532104D01*
X119546Y532125D01*
X119581Y532146D01*
X119609Y532159D01*
X119629Y532173D01*
X119636D01*
X119713Y532208D01*
X119810Y532243D01*
X119907Y532277D01*
X120018Y532312D01*
X120253Y532374D01*
X120489Y532437D01*
X120600Y532471D01*
X120704Y532492D01*
X120801Y532520D01*
X120885Y532534D01*
X120954Y532555D01*
X121002Y532569D01*
X121037Y532575D01*
X121051D01*
X121238Y532617D01*
X121405Y532665D01*
X121550Y532707D01*
X121689Y532749D01*
X121807Y532790D01*
X121911Y532825D01*
X122001Y532860D01*
X122077Y532894D01*
X122140Y532929D01*
X122195Y532957D01*
X122237Y532978D01*
X122271Y532998D01*
X122299Y533019D01*
X122313Y533033D01*
X122327Y533040D01*
X122410Y533130D01*
X122465Y533220D01*
X122507Y533317D01*
X122542Y533408D01*
X122556Y533484D01*
X122563Y533546D01*
X122570Y533588D01*
Y533595D01*
Y533602D01*
X122563Y533678D01*
X122556Y533747D01*
X122514Y533872D01*
X122459Y533990D01*
X122396Y534087D01*
X122334Y534170D01*
X122278Y534233D01*
X122237Y534267D01*
X122230Y534281D01*
X122223D01*
X122154Y534330D01*
X122070Y534378D01*
X121897Y534448D01*
X121717Y534496D01*
X121529Y534531D01*
X121446Y534545D01*
X121363Y534552D01*
X121294Y534559D01*
X121231D01*
X121176Y534566D01*
X120975D01*
X120850Y534552D01*
X120732Y534538D01*
X120621Y534517D01*
X120524Y534496D01*
X120434Y534468D01*
X120351Y534441D01*
X120274Y534413D01*
X120212Y534378D01*
X120156Y534351D01*
X120108Y534323D01*
X120066Y534302D01*
X120038Y534281D01*
X120011Y534267D01*
X120004Y534260D01*
X119997Y534254D01*
X119928Y534191D01*
X119865Y534129D01*
X119768Y533983D01*
X119685Y533830D01*
X119629Y533685D01*
X119588Y533553D01*
X119574Y533498D01*
X119560Y533442D01*
X119553Y533401D01*
Y533373D01*
X119546Y533352D01*
Y533345D01*
X118735Y533408D01*
X118756Y533615D01*
X118797Y533803D01*
X118846Y533976D01*
X118901Y534122D01*
X118936Y534184D01*
X118957Y534246D01*
X118984Y534295D01*
X119005Y534337D01*
X119026Y534371D01*
X119040Y534392D01*
X119047Y534406D01*
X119054Y534413D01*
X119172Y534572D01*
X119304Y534704D01*
X119442Y534822D01*
X119581Y534919D01*
X119699Y534989D01*
X119754Y535016D01*
X119796Y535044D01*
X119831Y535065D01*
X119865Y535072D01*
X119879Y535086D01*
X119886D01*
X120094Y535162D01*
X120309Y535224D01*
X120524Y535266D01*
X120718Y535294D01*
X120808Y535300D01*
X120885Y535308D01*
X120961Y535314D01*
X121023Y535321D01*
X121141D01*
X121377Y535314D01*
D02*
G37*
G36*
X109450D02*
X109672Y535287D01*
X109866Y535252D01*
X109956Y535231D01*
X110039Y535210D01*
X110116Y535190D01*
X110185Y535169D01*
X110247Y535148D01*
X110296Y535134D01*
X110331Y535120D01*
X110365Y535106D01*
X110379Y535099D01*
X110386D01*
X110573Y535009D01*
X110733Y534905D01*
X110871Y534801D01*
X110983Y534697D01*
X111073Y534600D01*
X111142Y534524D01*
X111163Y534496D01*
X111177Y534475D01*
X111191Y534462D01*
Y534455D01*
X111281Y534295D01*
X111350Y534136D01*
X111392Y533990D01*
X111426Y533851D01*
X111447Y533727D01*
X111454Y533678D01*
Y533636D01*
X111461Y533602D01*
Y533574D01*
Y533560D01*
Y533553D01*
X111454Y533394D01*
X111426Y533241D01*
X111392Y533102D01*
X111350Y532985D01*
X111308Y532887D01*
X111274Y532811D01*
X111260Y532783D01*
X111246Y532763D01*
X111239Y532756D01*
Y532749D01*
X111149Y532624D01*
X111038Y532506D01*
X110927Y532409D01*
X110809Y532319D01*
X110712Y532249D01*
X110629Y532201D01*
X110594Y532187D01*
X110573Y532173D01*
X110560Y532159D01*
X110553D01*
X110483Y532125D01*
X110400Y532090D01*
X110310Y532055D01*
X110213Y532021D01*
X110012Y531951D01*
X109804Y531889D01*
X109707Y531861D01*
X109623Y531833D01*
X109540Y531813D01*
X109464Y531792D01*
X109408Y531778D01*
X109360Y531764D01*
X109332Y531757D01*
X109325D01*
X109166Y531722D01*
X109020Y531681D01*
X108895Y531653D01*
X108777Y531618D01*
X108673Y531591D01*
X108576Y531570D01*
X108500Y531542D01*
X108424Y531521D01*
X108368Y531507D01*
X108313Y531487D01*
X108271Y531473D01*
X108243Y531466D01*
X108216Y531459D01*
X108202Y531452D01*
X108188Y531445D01*
X108049Y531383D01*
X107931Y531320D01*
X107827Y531258D01*
X107751Y531202D01*
X107689Y531147D01*
X107647Y531105D01*
X107619Y531078D01*
X107612Y531071D01*
X107550Y530988D01*
X107508Y530897D01*
X107474Y530807D01*
X107453Y530724D01*
X107439Y530655D01*
X107432Y530592D01*
Y530558D01*
Y530551D01*
Y530544D01*
X107439Y530440D01*
X107460Y530336D01*
X107495Y530246D01*
X107522Y530162D01*
X107557Y530093D01*
X107592Y530037D01*
X107612Y530010D01*
X107619Y529996D01*
X107696Y529906D01*
X107779Y529829D01*
X107876Y529760D01*
X107966Y529705D01*
X108049Y529663D01*
X108112Y529628D01*
X108139Y529614D01*
X108160Y529608D01*
X108167Y529601D01*
X108174D01*
X108313Y529552D01*
X108458Y529517D01*
X108604Y529497D01*
X108736Y529483D01*
X108847Y529469D01*
X108895D01*
X108937Y529462D01*
X109020D01*
X109221Y529469D01*
X109402Y529490D01*
X109575Y529524D01*
X109720Y529559D01*
X109783Y529573D01*
X109838Y529587D01*
X109887Y529608D01*
X109929Y529621D01*
X109963Y529635D01*
X109984Y529642D01*
X109998Y529649D01*
X110005D01*
X110157Y529725D01*
X110289Y529809D01*
X110400Y529885D01*
X110490Y529968D01*
X110560Y530037D01*
X110608Y530093D01*
X110643Y530128D01*
X110650Y530141D01*
X110719Y530266D01*
X110774Y530398D01*
X110816Y530530D01*
X110851Y530655D01*
X110878Y530773D01*
X110885Y530814D01*
X110892Y530856D01*
X110899Y530890D01*
X110906Y530918D01*
Y530932D01*
Y530939D01*
X111704Y530870D01*
X111697Y530752D01*
X111683Y530634D01*
X111641Y530419D01*
X111586Y530218D01*
X111558Y530128D01*
X111523Y530051D01*
X111496Y529975D01*
X111461Y529906D01*
X111433Y529850D01*
X111405Y529802D01*
X111385Y529760D01*
X111371Y529732D01*
X111364Y529719D01*
X111357Y529712D01*
X111225Y529531D01*
X111073Y529379D01*
X110920Y529247D01*
X110774Y529143D01*
X110643Y529060D01*
X110587Y529032D01*
X110539Y529004D01*
X110497Y528983D01*
X110469Y528970D01*
X110449Y528956D01*
X110442D01*
X110206Y528872D01*
X109963Y528810D01*
X109720Y528769D01*
X109492Y528741D01*
X109381Y528727D01*
X109284Y528720D01*
X109200Y528713D01*
X109124D01*
X109062Y528706D01*
X108979D01*
X108729Y528720D01*
X108500Y528748D01*
X108292Y528782D01*
X108195Y528810D01*
X108112Y528831D01*
X108028Y528852D01*
X107959Y528880D01*
X107897Y528900D01*
X107848Y528914D01*
X107807Y528935D01*
X107779Y528942D01*
X107758Y528956D01*
X107751D01*
X107557Y529060D01*
X107390Y529171D01*
X107245Y529289D01*
X107127Y529399D01*
X107030Y529504D01*
X106968Y529580D01*
X106940Y529614D01*
X106926Y529635D01*
X106912Y529649D01*
Y529656D01*
X106857Y529739D01*
X106815Y529829D01*
X106739Y529996D01*
X106683Y530155D01*
X106649Y530301D01*
X106628Y530433D01*
X106621Y530481D01*
Y530530D01*
X106614Y530564D01*
Y530592D01*
Y530606D01*
Y530613D01*
X106628Y530800D01*
X106656Y530974D01*
X106697Y531126D01*
X106746Y531258D01*
X106801Y531369D01*
X106822Y531417D01*
X106843Y531452D01*
X106857Y531480D01*
X106870Y531501D01*
X106884Y531515D01*
Y531521D01*
X106940Y531591D01*
X106995Y531660D01*
X107127Y531792D01*
X107259Y531903D01*
X107397Y531993D01*
X107515Y532069D01*
X107571Y532104D01*
X107619Y532125D01*
X107654Y532146D01*
X107682Y532159D01*
X107703Y532173D01*
X107710D01*
X107786Y532208D01*
X107883Y532243D01*
X107980Y532277D01*
X108091Y532312D01*
X108327Y532374D01*
X108562Y532437D01*
X108673Y532471D01*
X108777Y532492D01*
X108875Y532520D01*
X108958Y532534D01*
X109027Y532555D01*
X109076Y532569D01*
X109110Y532575D01*
X109124D01*
X109311Y532617D01*
X109478Y532665D01*
X109623Y532707D01*
X109762Y532749D01*
X109880Y532790D01*
X109984Y532825D01*
X110074Y532860D01*
X110150Y532894D01*
X110213Y532929D01*
X110268Y532957D01*
X110310Y532978D01*
X110344Y532998D01*
X110372Y533019D01*
X110386Y533033D01*
X110400Y533040D01*
X110483Y533130D01*
X110539Y533220D01*
X110580Y533317D01*
X110615Y533408D01*
X110629Y533484D01*
X110636Y533546D01*
X110643Y533588D01*
Y533595D01*
Y533602D01*
X110636Y533678D01*
X110629Y533747D01*
X110587Y533872D01*
X110532Y533990D01*
X110469Y534087D01*
X110407Y534170D01*
X110351Y534233D01*
X110310Y534267D01*
X110303Y534281D01*
X110296D01*
X110227Y534330D01*
X110143Y534378D01*
X109970Y534448D01*
X109790Y534496D01*
X109602Y534531D01*
X109519Y534545D01*
X109436Y534552D01*
X109367Y534559D01*
X109304D01*
X109249Y534566D01*
X109048D01*
X108923Y534552D01*
X108805Y534538D01*
X108694Y534517D01*
X108597Y534496D01*
X108507Y534468D01*
X108424Y534441D01*
X108348Y534413D01*
X108285Y534378D01*
X108230Y534351D01*
X108181Y534323D01*
X108139Y534302D01*
X108112Y534281D01*
X108084Y534267D01*
X108077Y534260D01*
X108070Y534254D01*
X108001Y534191D01*
X107938Y534129D01*
X107841Y533983D01*
X107758Y533830D01*
X107703Y533685D01*
X107661Y533553D01*
X107647Y533498D01*
X107633Y533442D01*
X107626Y533401D01*
Y533373D01*
X107619Y533352D01*
Y533345D01*
X106808Y533408D01*
X106829Y533615D01*
X106870Y533803D01*
X106919Y533976D01*
X106974Y534122D01*
X107009Y534184D01*
X107030Y534246D01*
X107058Y534295D01*
X107079Y534337D01*
X107099Y534371D01*
X107113Y534392D01*
X107120Y534406D01*
X107127Y534413D01*
X107245Y534572D01*
X107377Y534704D01*
X107515Y534822D01*
X107654Y534919D01*
X107772Y534989D01*
X107827Y535016D01*
X107869Y535044D01*
X107904Y535065D01*
X107938Y535072D01*
X107952Y535086D01*
X107959D01*
X108167Y535162D01*
X108382Y535224D01*
X108597Y535266D01*
X108791Y535294D01*
X108881Y535300D01*
X108958Y535308D01*
X109034Y535314D01*
X109096Y535321D01*
X109214D01*
X109450Y535314D01*
D02*
G37*
G36*
X115587Y551515D02*
Y548810D01*
X114741D01*
Y551515D01*
X112189Y555210D01*
X113174D01*
X114415Y553324D01*
X114560Y553096D01*
X114699Y552881D01*
X114817Y552693D01*
X114873Y552603D01*
X114921Y552527D01*
X114963Y552458D01*
X115004Y552388D01*
X115032Y552333D01*
X115060Y552291D01*
X115087Y552249D01*
X115101Y552222D01*
X115108Y552208D01*
X115115Y552201D01*
X115226Y552402D01*
X115344Y552596D01*
X115455Y552776D01*
X115552Y552936D01*
X115601Y553012D01*
X115642Y553075D01*
X115677Y553137D01*
X115705Y553186D01*
X115732Y553220D01*
X115753Y553255D01*
X115760Y553269D01*
X115767Y553276D01*
X117029Y555210D01*
X118055D01*
X115587Y551515D01*
D02*
G37*
G36*
X121377Y555314D02*
X121599Y555287D01*
X121793Y555252D01*
X121883Y555231D01*
X121966Y555210D01*
X122043Y555190D01*
X122112Y555169D01*
X122174Y555148D01*
X122223Y555134D01*
X122257Y555120D01*
X122292Y555106D01*
X122306Y555099D01*
X122313D01*
X122500Y555009D01*
X122660Y554905D01*
X122798Y554801D01*
X122909Y554697D01*
X122999Y554600D01*
X123069Y554524D01*
X123090Y554496D01*
X123103Y554475D01*
X123117Y554462D01*
Y554455D01*
X123207Y554295D01*
X123277Y554136D01*
X123318Y553990D01*
X123353Y553851D01*
X123374Y553727D01*
X123381Y553678D01*
Y553636D01*
X123388Y553602D01*
Y553574D01*
Y553560D01*
Y553553D01*
X123381Y553394D01*
X123353Y553241D01*
X123318Y553102D01*
X123277Y552985D01*
X123235Y552887D01*
X123201Y552811D01*
X123187Y552783D01*
X123173Y552763D01*
X123166Y552756D01*
Y552749D01*
X123076Y552624D01*
X122965Y552506D01*
X122854Y552409D01*
X122736Y552319D01*
X122639Y552249D01*
X122556Y552201D01*
X122521Y552187D01*
X122500Y552173D01*
X122486Y552159D01*
X122479D01*
X122410Y552125D01*
X122327Y552090D01*
X122237Y552055D01*
X122140Y552021D01*
X121938Y551951D01*
X121730Y551889D01*
X121633Y551861D01*
X121550Y551833D01*
X121467Y551813D01*
X121391Y551792D01*
X121335Y551778D01*
X121287Y551764D01*
X121259Y551757D01*
X121252D01*
X121093Y551722D01*
X120947Y551681D01*
X120822Y551653D01*
X120704Y551618D01*
X120600Y551591D01*
X120503Y551570D01*
X120427Y551542D01*
X120351Y551521D01*
X120295Y551507D01*
X120240Y551487D01*
X120198Y551473D01*
X120170Y551466D01*
X120142Y551459D01*
X120129Y551452D01*
X120115Y551445D01*
X119976Y551383D01*
X119858Y551320D01*
X119754Y551258D01*
X119678Y551202D01*
X119615Y551147D01*
X119574Y551105D01*
X119546Y551078D01*
X119539Y551071D01*
X119477Y550988D01*
X119435Y550897D01*
X119401Y550807D01*
X119380Y550724D01*
X119366Y550655D01*
X119359Y550592D01*
Y550558D01*
Y550551D01*
Y550544D01*
X119366Y550440D01*
X119387Y550336D01*
X119421Y550246D01*
X119449Y550162D01*
X119484Y550093D01*
X119518Y550037D01*
X119539Y550010D01*
X119546Y549996D01*
X119622Y549906D01*
X119706Y549829D01*
X119803Y549760D01*
X119893Y549705D01*
X119976Y549663D01*
X120038Y549628D01*
X120066Y549614D01*
X120087Y549608D01*
X120094Y549601D01*
X120101D01*
X120240Y549552D01*
X120385Y549517D01*
X120531Y549497D01*
X120663Y549483D01*
X120773Y549469D01*
X120822D01*
X120864Y549462D01*
X120947D01*
X121148Y549469D01*
X121328Y549490D01*
X121502Y549524D01*
X121647Y549559D01*
X121710Y549573D01*
X121765Y549587D01*
X121814Y549608D01*
X121855Y549621D01*
X121890Y549635D01*
X121911Y549642D01*
X121925Y549649D01*
X121932D01*
X122084Y549725D01*
X122216Y549809D01*
X122327Y549885D01*
X122417Y549968D01*
X122486Y550037D01*
X122535Y550093D01*
X122570Y550128D01*
X122576Y550141D01*
X122646Y550266D01*
X122701Y550398D01*
X122743Y550530D01*
X122778Y550655D01*
X122805Y550773D01*
X122812Y550814D01*
X122819Y550856D01*
X122826Y550890D01*
X122833Y550918D01*
Y550932D01*
Y550939D01*
X123630Y550870D01*
X123624Y550752D01*
X123610Y550634D01*
X123568Y550419D01*
X123513Y550218D01*
X123485Y550128D01*
X123450Y550051D01*
X123422Y549975D01*
X123388Y549906D01*
X123360Y549850D01*
X123332Y549802D01*
X123312Y549760D01*
X123298Y549732D01*
X123291Y549719D01*
X123284Y549712D01*
X123152Y549531D01*
X122999Y549379D01*
X122847Y549247D01*
X122701Y549143D01*
X122570Y549060D01*
X122514Y549032D01*
X122465Y549004D01*
X122424Y548983D01*
X122396Y548970D01*
X122375Y548956D01*
X122368D01*
X122133Y548872D01*
X121890Y548810D01*
X121647Y548769D01*
X121418Y548741D01*
X121307Y548727D01*
X121210Y548720D01*
X121127Y548713D01*
X121051D01*
X120989Y548706D01*
X120905D01*
X120656Y548720D01*
X120427Y548748D01*
X120219Y548782D01*
X120122Y548810D01*
X120038Y548831D01*
X119955Y548852D01*
X119886Y548880D01*
X119824Y548900D01*
X119775Y548914D01*
X119733Y548935D01*
X119706Y548942D01*
X119685Y548956D01*
X119678D01*
X119484Y549060D01*
X119317Y549171D01*
X119172Y549289D01*
X119054Y549399D01*
X118957Y549504D01*
X118894Y549580D01*
X118867Y549614D01*
X118853Y549635D01*
X118839Y549649D01*
Y549656D01*
X118783Y549739D01*
X118742Y549829D01*
X118666Y549996D01*
X118610Y550155D01*
X118575Y550301D01*
X118555Y550433D01*
X118548Y550481D01*
Y550530D01*
X118541Y550564D01*
Y550592D01*
Y550606D01*
Y550613D01*
X118555Y550800D01*
X118582Y550974D01*
X118624Y551126D01*
X118673Y551258D01*
X118728Y551369D01*
X118749Y551417D01*
X118770Y551452D01*
X118783Y551480D01*
X118797Y551501D01*
X118811Y551515D01*
Y551521D01*
X118867Y551591D01*
X118922Y551660D01*
X119054Y551792D01*
X119186Y551903D01*
X119324Y551993D01*
X119442Y552069D01*
X119498Y552104D01*
X119546Y552125D01*
X119581Y552146D01*
X119609Y552159D01*
X119629Y552173D01*
X119636D01*
X119713Y552208D01*
X119810Y552243D01*
X119907Y552277D01*
X120018Y552312D01*
X120253Y552374D01*
X120489Y552437D01*
X120600Y552471D01*
X120704Y552492D01*
X120801Y552520D01*
X120885Y552534D01*
X120954Y552555D01*
X121002Y552569D01*
X121037Y552575D01*
X121051D01*
X121238Y552617D01*
X121405Y552665D01*
X121550Y552707D01*
X121689Y552749D01*
X121807Y552790D01*
X121911Y552825D01*
X122001Y552860D01*
X122077Y552894D01*
X122140Y552929D01*
X122195Y552957D01*
X122237Y552978D01*
X122271Y552998D01*
X122299Y553019D01*
X122313Y553033D01*
X122327Y553040D01*
X122410Y553130D01*
X122465Y553220D01*
X122507Y553317D01*
X122542Y553408D01*
X122556Y553484D01*
X122563Y553546D01*
X122570Y553588D01*
Y553595D01*
Y553602D01*
X122563Y553678D01*
X122556Y553747D01*
X122514Y553872D01*
X122459Y553990D01*
X122396Y554087D01*
X122334Y554170D01*
X122278Y554233D01*
X122237Y554267D01*
X122230Y554281D01*
X122223D01*
X122154Y554330D01*
X122070Y554378D01*
X121897Y554448D01*
X121717Y554496D01*
X121529Y554531D01*
X121446Y554545D01*
X121363Y554552D01*
X121294Y554559D01*
X121231D01*
X121176Y554566D01*
X120975D01*
X120850Y554552D01*
X120732Y554538D01*
X120621Y554517D01*
X120524Y554496D01*
X120434Y554468D01*
X120351Y554441D01*
X120274Y554413D01*
X120212Y554378D01*
X120156Y554351D01*
X120108Y554323D01*
X120066Y554302D01*
X120038Y554281D01*
X120011Y554267D01*
X120004Y554260D01*
X119997Y554254D01*
X119928Y554191D01*
X119865Y554129D01*
X119768Y553983D01*
X119685Y553830D01*
X119629Y553685D01*
X119588Y553553D01*
X119574Y553498D01*
X119560Y553442D01*
X119553Y553401D01*
Y553373D01*
X119546Y553352D01*
Y553345D01*
X118735Y553408D01*
X118756Y553615D01*
X118797Y553803D01*
X118846Y553976D01*
X118901Y554122D01*
X118936Y554184D01*
X118957Y554246D01*
X118984Y554295D01*
X119005Y554337D01*
X119026Y554371D01*
X119040Y554392D01*
X119047Y554406D01*
X119054Y554413D01*
X119172Y554572D01*
X119304Y554704D01*
X119442Y554822D01*
X119581Y554919D01*
X119699Y554989D01*
X119754Y555016D01*
X119796Y555044D01*
X119831Y555065D01*
X119865Y555072D01*
X119879Y555086D01*
X119886D01*
X120094Y555162D01*
X120309Y555224D01*
X120524Y555266D01*
X120718Y555294D01*
X120808Y555300D01*
X120885Y555308D01*
X120961Y555314D01*
X121023Y555321D01*
X121141D01*
X121377Y555314D01*
D02*
G37*
G36*
X109450D02*
X109672Y555287D01*
X109866Y555252D01*
X109956Y555231D01*
X110039Y555210D01*
X110116Y555190D01*
X110185Y555169D01*
X110247Y555148D01*
X110296Y555134D01*
X110331Y555120D01*
X110365Y555106D01*
X110379Y555099D01*
X110386D01*
X110573Y555009D01*
X110733Y554905D01*
X110871Y554801D01*
X110983Y554697D01*
X111073Y554600D01*
X111142Y554524D01*
X111163Y554496D01*
X111177Y554475D01*
X111191Y554462D01*
Y554455D01*
X111281Y554295D01*
X111350Y554136D01*
X111392Y553990D01*
X111426Y553851D01*
X111447Y553727D01*
X111454Y553678D01*
Y553636D01*
X111461Y553602D01*
Y553574D01*
Y553560D01*
Y553553D01*
X111454Y553394D01*
X111426Y553241D01*
X111392Y553102D01*
X111350Y552985D01*
X111308Y552887D01*
X111274Y552811D01*
X111260Y552783D01*
X111246Y552763D01*
X111239Y552756D01*
Y552749D01*
X111149Y552624D01*
X111038Y552506D01*
X110927Y552409D01*
X110809Y552319D01*
X110712Y552249D01*
X110629Y552201D01*
X110594Y552187D01*
X110573Y552173D01*
X110560Y552159D01*
X110553D01*
X110483Y552125D01*
X110400Y552090D01*
X110310Y552055D01*
X110213Y552021D01*
X110012Y551951D01*
X109804Y551889D01*
X109707Y551861D01*
X109623Y551833D01*
X109540Y551813D01*
X109464Y551792D01*
X109408Y551778D01*
X109360Y551764D01*
X109332Y551757D01*
X109325D01*
X109166Y551722D01*
X109020Y551681D01*
X108895Y551653D01*
X108777Y551618D01*
X108673Y551591D01*
X108576Y551570D01*
X108500Y551542D01*
X108424Y551521D01*
X108368Y551507D01*
X108313Y551487D01*
X108271Y551473D01*
X108243Y551466D01*
X108216Y551459D01*
X108202Y551452D01*
X108188Y551445D01*
X108049Y551383D01*
X107931Y551320D01*
X107827Y551258D01*
X107751Y551202D01*
X107689Y551147D01*
X107647Y551105D01*
X107619Y551078D01*
X107612Y551071D01*
X107550Y550988D01*
X107508Y550897D01*
X107474Y550807D01*
X107453Y550724D01*
X107439Y550655D01*
X107432Y550592D01*
Y550558D01*
Y550551D01*
Y550544D01*
X107439Y550440D01*
X107460Y550336D01*
X107495Y550246D01*
X107522Y550162D01*
X107557Y550093D01*
X107592Y550037D01*
X107612Y550010D01*
X107619Y549996D01*
X107696Y549906D01*
X107779Y549829D01*
X107876Y549760D01*
X107966Y549705D01*
X108049Y549663D01*
X108112Y549628D01*
X108139Y549614D01*
X108160Y549608D01*
X108167Y549601D01*
X108174D01*
X108313Y549552D01*
X108458Y549517D01*
X108604Y549497D01*
X108736Y549483D01*
X108847Y549469D01*
X108895D01*
X108937Y549462D01*
X109020D01*
X109221Y549469D01*
X109402Y549490D01*
X109575Y549524D01*
X109720Y549559D01*
X109783Y549573D01*
X109838Y549587D01*
X109887Y549608D01*
X109929Y549621D01*
X109963Y549635D01*
X109984Y549642D01*
X109998Y549649D01*
X110005D01*
X110157Y549725D01*
X110289Y549809D01*
X110400Y549885D01*
X110490Y549968D01*
X110560Y550037D01*
X110608Y550093D01*
X110643Y550128D01*
X110650Y550141D01*
X110719Y550266D01*
X110774Y550398D01*
X110816Y550530D01*
X110851Y550655D01*
X110878Y550773D01*
X110885Y550814D01*
X110892Y550856D01*
X110899Y550890D01*
X110906Y550918D01*
Y550932D01*
Y550939D01*
X111704Y550870D01*
X111697Y550752D01*
X111683Y550634D01*
X111641Y550419D01*
X111586Y550218D01*
X111558Y550128D01*
X111523Y550051D01*
X111496Y549975D01*
X111461Y549906D01*
X111433Y549850D01*
X111405Y549802D01*
X111385Y549760D01*
X111371Y549732D01*
X111364Y549719D01*
X111357Y549712D01*
X111225Y549531D01*
X111073Y549379D01*
X110920Y549247D01*
X110774Y549143D01*
X110643Y549060D01*
X110587Y549032D01*
X110539Y549004D01*
X110497Y548983D01*
X110469Y548970D01*
X110449Y548956D01*
X110442D01*
X110206Y548872D01*
X109963Y548810D01*
X109720Y548769D01*
X109492Y548741D01*
X109381Y548727D01*
X109284Y548720D01*
X109200Y548713D01*
X109124D01*
X109062Y548706D01*
X108979D01*
X108729Y548720D01*
X108500Y548748D01*
X108292Y548782D01*
X108195Y548810D01*
X108112Y548831D01*
X108028Y548852D01*
X107959Y548880D01*
X107897Y548900D01*
X107848Y548914D01*
X107807Y548935D01*
X107779Y548942D01*
X107758Y548956D01*
X107751D01*
X107557Y549060D01*
X107390Y549171D01*
X107245Y549289D01*
X107127Y549399D01*
X107030Y549504D01*
X106968Y549580D01*
X106940Y549614D01*
X106926Y549635D01*
X106912Y549649D01*
Y549656D01*
X106857Y549739D01*
X106815Y549829D01*
X106739Y549996D01*
X106683Y550155D01*
X106649Y550301D01*
X106628Y550433D01*
X106621Y550481D01*
Y550530D01*
X106614Y550564D01*
Y550592D01*
Y550606D01*
Y550613D01*
X106628Y550800D01*
X106656Y550974D01*
X106697Y551126D01*
X106746Y551258D01*
X106801Y551369D01*
X106822Y551417D01*
X106843Y551452D01*
X106857Y551480D01*
X106870Y551501D01*
X106884Y551515D01*
Y551521D01*
X106940Y551591D01*
X106995Y551660D01*
X107127Y551792D01*
X107259Y551903D01*
X107397Y551993D01*
X107515Y552069D01*
X107571Y552104D01*
X107619Y552125D01*
X107654Y552146D01*
X107682Y552159D01*
X107703Y552173D01*
X107710D01*
X107786Y552208D01*
X107883Y552243D01*
X107980Y552277D01*
X108091Y552312D01*
X108327Y552374D01*
X108562Y552437D01*
X108673Y552471D01*
X108777Y552492D01*
X108875Y552520D01*
X108958Y552534D01*
X109027Y552555D01*
X109076Y552569D01*
X109110Y552575D01*
X109124D01*
X109311Y552617D01*
X109478Y552665D01*
X109623Y552707D01*
X109762Y552749D01*
X109880Y552790D01*
X109984Y552825D01*
X110074Y552860D01*
X110150Y552894D01*
X110213Y552929D01*
X110268Y552957D01*
X110310Y552978D01*
X110344Y552998D01*
X110372Y553019D01*
X110386Y553033D01*
X110400Y553040D01*
X110483Y553130D01*
X110539Y553220D01*
X110580Y553317D01*
X110615Y553408D01*
X110629Y553484D01*
X110636Y553546D01*
X110643Y553588D01*
Y553595D01*
Y553602D01*
X110636Y553678D01*
X110629Y553747D01*
X110587Y553872D01*
X110532Y553990D01*
X110469Y554087D01*
X110407Y554170D01*
X110351Y554233D01*
X110310Y554267D01*
X110303Y554281D01*
X110296D01*
X110227Y554330D01*
X110143Y554378D01*
X109970Y554448D01*
X109790Y554496D01*
X109602Y554531D01*
X109519Y554545D01*
X109436Y554552D01*
X109367Y554559D01*
X109304D01*
X109249Y554566D01*
X109048D01*
X108923Y554552D01*
X108805Y554538D01*
X108694Y554517D01*
X108597Y554496D01*
X108507Y554468D01*
X108424Y554441D01*
X108348Y554413D01*
X108285Y554378D01*
X108230Y554351D01*
X108181Y554323D01*
X108139Y554302D01*
X108112Y554281D01*
X108084Y554267D01*
X108077Y554260D01*
X108070Y554254D01*
X108001Y554191D01*
X107938Y554129D01*
X107841Y553983D01*
X107758Y553830D01*
X107703Y553685D01*
X107661Y553553D01*
X107647Y553498D01*
X107633Y553442D01*
X107626Y553401D01*
Y553373D01*
X107619Y553352D01*
Y553345D01*
X106808Y553408D01*
X106829Y553615D01*
X106870Y553803D01*
X106919Y553976D01*
X106974Y554122D01*
X107009Y554184D01*
X107030Y554246D01*
X107058Y554295D01*
X107079Y554337D01*
X107099Y554371D01*
X107113Y554392D01*
X107120Y554406D01*
X107127Y554413D01*
X107245Y554572D01*
X107377Y554704D01*
X107515Y554822D01*
X107654Y554919D01*
X107772Y554989D01*
X107827Y555016D01*
X107869Y555044D01*
X107904Y555065D01*
X107938Y555072D01*
X107952Y555086D01*
X107959D01*
X108167Y555162D01*
X108382Y555224D01*
X108597Y555266D01*
X108791Y555294D01*
X108881Y555300D01*
X108958Y555308D01*
X109034Y555314D01*
X109096Y555321D01*
X109214D01*
X109450Y555314D01*
D02*
G37*
G36*
X43344Y387810D02*
X42533D01*
Y392830D01*
X39176Y387810D01*
X38303D01*
Y394210D01*
X39114D01*
Y389183D01*
X42477Y394210D01*
X43344D01*
Y387810D01*
D02*
G37*
G36*
X47477Y394314D02*
X47650Y394307D01*
X47817Y394286D01*
X47969Y394259D01*
X48122Y394231D01*
X48260Y394196D01*
X48392Y394162D01*
X48510Y394127D01*
X48614Y394085D01*
X48711Y394051D01*
X48794Y394016D01*
X48864Y393988D01*
X48919Y393961D01*
X48961Y393940D01*
X48988Y393933D01*
X48995Y393926D01*
X49127Y393850D01*
X49252Y393759D01*
X49370Y393669D01*
X49474Y393572D01*
X49578Y393468D01*
X49668Y393371D01*
X49751Y393274D01*
X49827Y393177D01*
X49890Y393080D01*
X49952Y392997D01*
X50001Y392920D01*
X50042Y392851D01*
X50070Y392796D01*
X50091Y392754D01*
X50105Y392726D01*
X50112Y392719D01*
X50181Y392567D01*
X50237Y392414D01*
X50292Y392262D01*
X50334Y392109D01*
X50403Y391818D01*
X50431Y391679D01*
X50451Y391548D01*
X50465Y391430D01*
X50479Y391319D01*
X50486Y391222D01*
X50493Y391138D01*
X50500Y391069D01*
Y391021D01*
Y390993D01*
Y390979D01*
X50493Y390806D01*
X50486Y390632D01*
X50465Y390473D01*
X50438Y390313D01*
X50410Y390168D01*
X50375Y390022D01*
X50340Y389890D01*
X50306Y389772D01*
X50271Y389661D01*
X50237Y389564D01*
X50202Y389481D01*
X50174Y389405D01*
X50146Y389349D01*
X50126Y389308D01*
X50119Y389280D01*
X50112Y389273D01*
X50035Y389134D01*
X49945Y389003D01*
X49855Y388885D01*
X49765Y388767D01*
X49668Y388663D01*
X49571Y388573D01*
X49474Y388483D01*
X49384Y388406D01*
X49293Y388337D01*
X49210Y388274D01*
X49134Y388226D01*
X49072Y388184D01*
X49023Y388150D01*
X48981Y388129D01*
X48954Y388115D01*
X48947Y388108D01*
X48801Y388039D01*
X48649Y387976D01*
X48503Y387921D01*
X48357Y387879D01*
X48205Y387838D01*
X48066Y387803D01*
X47927Y387775D01*
X47803Y387755D01*
X47685Y387741D01*
X47574Y387727D01*
X47477Y387720D01*
X47393Y387713D01*
X47324Y387706D01*
X47234D01*
X46977Y387720D01*
X46728Y387747D01*
X46499Y387782D01*
X46395Y387810D01*
X46291Y387831D01*
X46201Y387851D01*
X46125Y387879D01*
X46048Y387900D01*
X45993Y387914D01*
X45937Y387935D01*
X45903Y387942D01*
X45882Y387956D01*
X45875D01*
X45625Y388060D01*
X45389Y388177D01*
X45174Y388302D01*
X45071Y388365D01*
X44980Y388420D01*
X44897Y388476D01*
X44821Y388531D01*
X44752Y388573D01*
X44696Y388614D01*
X44647Y388649D01*
X44613Y388677D01*
X44592Y388691D01*
X44585Y388698D01*
Y391076D01*
X47296D01*
Y390320D01*
X45417D01*
Y389120D01*
X45528Y389030D01*
X45653Y388954D01*
X45785Y388878D01*
X45917Y388809D01*
X46034Y388753D01*
X46083Y388725D01*
X46125Y388704D01*
X46166Y388691D01*
X46194Y388677D01*
X46208Y388670D01*
X46215D01*
X46409Y388600D01*
X46603Y388552D01*
X46783Y388510D01*
X46943Y388489D01*
X47019Y388483D01*
X47081Y388476D01*
X47137Y388469D01*
X47186D01*
X47227Y388462D01*
X47283D01*
X47518Y388476D01*
X47740Y388503D01*
X47941Y388552D01*
X48038Y388573D01*
X48122Y388600D01*
X48198Y388628D01*
X48267Y388649D01*
X48330Y388677D01*
X48385Y388698D01*
X48427Y388711D01*
X48454Y388725D01*
X48475Y388739D01*
X48482D01*
X48586Y388795D01*
X48683Y388857D01*
X48850Y388989D01*
X48995Y389134D01*
X49120Y389273D01*
X49210Y389398D01*
X49252Y389453D01*
X49280Y389495D01*
X49307Y389537D01*
X49321Y389564D01*
X49328Y389585D01*
X49335Y389592D01*
X49432Y389821D01*
X49502Y390064D01*
X49557Y390299D01*
X49592Y390528D01*
X49599Y390632D01*
X49612Y390729D01*
X49619Y390812D01*
Y390889D01*
X49626Y390944D01*
Y390993D01*
Y391021D01*
Y391027D01*
X49612Y391284D01*
X49585Y391527D01*
X49550Y391742D01*
X49529Y391846D01*
X49502Y391936D01*
X49481Y392019D01*
X49460Y392095D01*
X49439Y392158D01*
X49418Y392213D01*
X49404Y392262D01*
X49391Y392289D01*
X49384Y392310D01*
Y392317D01*
X49328Y392442D01*
X49266Y392560D01*
X49196Y392671D01*
X49134Y392761D01*
X49078Y392837D01*
X49030Y392900D01*
X49002Y392934D01*
X48988Y392948D01*
X48884Y393052D01*
X48766Y393142D01*
X48656Y393226D01*
X48545Y393295D01*
X48447Y393350D01*
X48371Y393385D01*
X48344Y393399D01*
X48323Y393413D01*
X48309Y393420D01*
X48302D01*
X48135Y393482D01*
X47969Y393524D01*
X47796Y393558D01*
X47643Y393579D01*
X47567Y393586D01*
X47504Y393593D01*
X47442D01*
X47393Y393600D01*
X47296D01*
X47123Y393593D01*
X46957Y393572D01*
X46811Y393545D01*
X46679Y393517D01*
X46575Y393482D01*
X46527Y393468D01*
X46492Y393454D01*
X46464Y393441D01*
X46444Y393434D01*
X46430Y393427D01*
X46423D01*
X46284Y393357D01*
X46159Y393288D01*
X46055Y393212D01*
X45965Y393142D01*
X45903Y393073D01*
X45854Y393024D01*
X45819Y392990D01*
X45813Y392976D01*
X45736Y392865D01*
X45667Y392740D01*
X45605Y392615D01*
X45549Y392491D01*
X45507Y392380D01*
X45493Y392331D01*
X45480Y392296D01*
X45466Y392262D01*
X45459Y392234D01*
X45452Y392220D01*
Y392213D01*
X44682Y392421D01*
X44752Y392650D01*
X44828Y392858D01*
X44869Y392948D01*
X44911Y393038D01*
X44946Y393115D01*
X44987Y393184D01*
X45022Y393253D01*
X45057Y393309D01*
X45091Y393357D01*
X45112Y393399D01*
X45140Y393427D01*
X45154Y393447D01*
X45161Y393461D01*
X45168Y393468D01*
X45299Y393614D01*
X45438Y393739D01*
X45584Y393843D01*
X45729Y393933D01*
X45854Y394002D01*
X45910Y394030D01*
X45958Y394051D01*
X45993Y394072D01*
X46020Y394085D01*
X46041Y394092D01*
X46048D01*
X46263Y394169D01*
X46478Y394224D01*
X46693Y394266D01*
X46887Y394293D01*
X46977Y394300D01*
X47054Y394307D01*
X47123Y394314D01*
X47186Y394321D01*
X47303D01*
X47477Y394314D01*
D02*
G37*
G36*
X36881Y387810D02*
X34572D01*
X34364Y387817D01*
X34170Y387824D01*
X33997Y387845D01*
X33844Y387865D01*
X33782Y387872D01*
X33726Y387879D01*
X33671Y387893D01*
X33629Y387900D01*
X33594Y387907D01*
X33574D01*
X33560Y387914D01*
X33553D01*
X33393Y387962D01*
X33241Y388011D01*
X33109Y388066D01*
X32998Y388115D01*
X32908Y388164D01*
X32839Y388198D01*
X32797Y388226D01*
X32790Y388233D01*
X32783D01*
X32665Y388323D01*
X32554Y388413D01*
X32457Y388510D01*
X32374Y388607D01*
X32298Y388691D01*
X32249Y388753D01*
X32228Y388781D01*
X32215Y388801D01*
X32201Y388809D01*
Y388815D01*
X32104Y388961D01*
X32020Y389114D01*
X31944Y389273D01*
X31882Y389419D01*
X31833Y389550D01*
X31812Y389606D01*
X31792Y389654D01*
X31785Y389689D01*
X31771Y389717D01*
X31764Y389738D01*
Y389745D01*
X31708Y389967D01*
X31667Y390188D01*
X31632Y390403D01*
X31611Y390604D01*
X31604Y390695D01*
X31597Y390778D01*
Y390854D01*
X31590Y390916D01*
Y390972D01*
Y391007D01*
Y391034D01*
Y391041D01*
X31604Y391353D01*
X31611Y391499D01*
X31632Y391638D01*
X31653Y391769D01*
X31674Y391894D01*
X31695Y392012D01*
X31715Y392123D01*
X31743Y392220D01*
X31764Y392303D01*
X31785Y392380D01*
X31805Y392442D01*
X31826Y392491D01*
X31833Y392532D01*
X31847Y392553D01*
Y392560D01*
X31951Y392796D01*
X32069Y393011D01*
X32131Y393108D01*
X32194Y393198D01*
X32256Y393281D01*
X32318Y393357D01*
X32374Y393427D01*
X32429Y393482D01*
X32478Y393538D01*
X32520Y393579D01*
X32554Y393614D01*
X32582Y393635D01*
X32596Y393648D01*
X32603Y393656D01*
X32755Y393773D01*
X32915Y393870D01*
X33067Y393947D01*
X33213Y394009D01*
X33345Y394058D01*
X33400Y394072D01*
X33449Y394085D01*
X33484Y394099D01*
X33511Y394106D01*
X33532Y394113D01*
X33539D01*
X33615Y394127D01*
X33698Y394148D01*
X33886Y394169D01*
X34073Y394189D01*
X34260Y394196D01*
X34343Y394203D01*
X34427D01*
X34496Y394210D01*
X36881D01*
Y387810D01*
D02*
G37*
G36*
X44259Y407810D02*
X41950D01*
X41742Y407817D01*
X41548Y407824D01*
X41375Y407845D01*
X41222Y407866D01*
X41160Y407873D01*
X41104Y407879D01*
X41049Y407893D01*
X41007Y407900D01*
X40972Y407907D01*
X40952D01*
X40938Y407914D01*
X40931D01*
X40771Y407963D01*
X40619Y408011D01*
X40487Y408067D01*
X40376Y408115D01*
X40286Y408164D01*
X40217Y408198D01*
X40175Y408226D01*
X40168Y408233D01*
X40161D01*
X40043Y408323D01*
X39932Y408413D01*
X39835Y408511D01*
X39752Y408608D01*
X39676Y408691D01*
X39627Y408753D01*
X39606Y408781D01*
X39592Y408802D01*
X39579Y408809D01*
Y408816D01*
X39482Y408961D01*
X39398Y409114D01*
X39322Y409273D01*
X39260Y409419D01*
X39211Y409551D01*
X39190Y409606D01*
X39169Y409655D01*
X39163Y409689D01*
X39149Y409717D01*
X39142Y409738D01*
Y409745D01*
X39086Y409967D01*
X39045Y410189D01*
X39010Y410404D01*
X38989Y410605D01*
X38982Y410695D01*
X38975Y410778D01*
Y410854D01*
X38968Y410917D01*
Y410972D01*
Y411007D01*
Y411035D01*
Y411041D01*
X38982Y411353D01*
X38989Y411499D01*
X39010Y411638D01*
X39031Y411770D01*
X39052Y411894D01*
X39072Y412012D01*
X39093Y412123D01*
X39121Y412220D01*
X39142Y412304D01*
X39163Y412380D01*
X39183Y412442D01*
X39204Y412491D01*
X39211Y412532D01*
X39225Y412553D01*
Y412560D01*
X39329Y412796D01*
X39447Y413011D01*
X39509Y413108D01*
X39572Y413198D01*
X39634Y413281D01*
X39697Y413358D01*
X39752Y413427D01*
X39808Y413482D01*
X39856Y413538D01*
X39898Y413579D01*
X39932Y413614D01*
X39960Y413635D01*
X39974Y413649D01*
X39981Y413656D01*
X40133Y413773D01*
X40293Y413871D01*
X40445Y413947D01*
X40591Y414009D01*
X40723Y414058D01*
X40778Y414072D01*
X40827Y414086D01*
X40862Y414100D01*
X40889Y414106D01*
X40910Y414113D01*
X40917D01*
X40993Y414127D01*
X41076Y414148D01*
X41264Y414169D01*
X41451Y414190D01*
X41638Y414197D01*
X41721Y414203D01*
X41804D01*
X41874Y414210D01*
X44259D01*
Y407810D01*
D02*
G37*
G36*
X38497D02*
X37602D01*
X36909Y409745D01*
X34218D01*
X33477Y407810D01*
X32513D01*
X35134Y414210D01*
X36049D01*
X38497Y407810D01*
D02*
G37*
G36*
X48246Y414314D02*
X48468Y414287D01*
X48662Y414252D01*
X48753Y414231D01*
X48836Y414210D01*
X48912Y414190D01*
X48981Y414169D01*
X49044Y414148D01*
X49092Y414134D01*
X49127Y414120D01*
X49162Y414106D01*
X49176Y414100D01*
X49183D01*
X49370Y414009D01*
X49529Y413905D01*
X49668Y413801D01*
X49779Y413697D01*
X49869Y413600D01*
X49938Y413524D01*
X49959Y413496D01*
X49973Y413475D01*
X49987Y413461D01*
Y413455D01*
X50077Y413295D01*
X50146Y413136D01*
X50188Y412990D01*
X50223Y412851D01*
X50243Y412727D01*
X50250Y412678D01*
Y412636D01*
X50257Y412602D01*
Y412574D01*
Y412560D01*
Y412553D01*
X50250Y412394D01*
X50223Y412241D01*
X50188Y412102D01*
X50146Y411984D01*
X50105Y411887D01*
X50070Y411811D01*
X50056Y411783D01*
X50042Y411763D01*
X50035Y411756D01*
Y411749D01*
X49945Y411624D01*
X49834Y411506D01*
X49723Y411409D01*
X49605Y411319D01*
X49508Y411250D01*
X49425Y411201D01*
X49391Y411187D01*
X49370Y411173D01*
X49356Y411159D01*
X49349D01*
X49280Y411125D01*
X49196Y411090D01*
X49106Y411055D01*
X49009Y411021D01*
X48808Y410951D01*
X48600Y410889D01*
X48503Y410861D01*
X48420Y410833D01*
X48337Y410813D01*
X48260Y410792D01*
X48205Y410778D01*
X48156Y410764D01*
X48128Y410757D01*
X48122D01*
X47962Y410723D01*
X47817Y410681D01*
X47692Y410653D01*
X47574Y410619D01*
X47470Y410591D01*
X47373Y410570D01*
X47296Y410542D01*
X47220Y410521D01*
X47165Y410508D01*
X47109Y410487D01*
X47068Y410473D01*
X47040Y410466D01*
X47012Y410459D01*
X46998Y410452D01*
X46984Y410445D01*
X46846Y410383D01*
X46728Y410320D01*
X46624Y410258D01*
X46547Y410202D01*
X46485Y410147D01*
X46444Y410105D01*
X46416Y410078D01*
X46409Y410071D01*
X46346Y409987D01*
X46305Y409897D01*
X46270Y409807D01*
X46249Y409724D01*
X46235Y409655D01*
X46228Y409592D01*
Y409558D01*
Y409551D01*
Y409544D01*
X46235Y409440D01*
X46256Y409336D01*
X46291Y409245D01*
X46319Y409162D01*
X46353Y409093D01*
X46388Y409038D01*
X46409Y409010D01*
X46416Y408996D01*
X46492Y408906D01*
X46575Y408829D01*
X46672Y408760D01*
X46762Y408705D01*
X46846Y408663D01*
X46908Y408628D01*
X46936Y408615D01*
X46957Y408608D01*
X46964Y408601D01*
X46971D01*
X47109Y408552D01*
X47255Y408517D01*
X47400Y408497D01*
X47532Y408483D01*
X47643Y408469D01*
X47692D01*
X47733Y408462D01*
X47817D01*
X48018Y408469D01*
X48198Y408490D01*
X48371Y408524D01*
X48517Y408559D01*
X48579Y408573D01*
X48635Y408587D01*
X48683Y408608D01*
X48725Y408621D01*
X48759Y408635D01*
X48780Y408642D01*
X48794Y408649D01*
X48801D01*
X48954Y408725D01*
X49085Y408809D01*
X49196Y408885D01*
X49286Y408968D01*
X49356Y409038D01*
X49404Y409093D01*
X49439Y409128D01*
X49446Y409142D01*
X49515Y409266D01*
X49571Y409398D01*
X49612Y409530D01*
X49647Y409655D01*
X49675Y409772D01*
X49682Y409814D01*
X49689Y409856D01*
X49696Y409890D01*
X49703Y409918D01*
Y409932D01*
Y409939D01*
X50500Y409870D01*
X50493Y409752D01*
X50479Y409634D01*
X50438Y409419D01*
X50382Y409218D01*
X50354Y409128D01*
X50320Y409051D01*
X50292Y408975D01*
X50257Y408906D01*
X50230Y408850D01*
X50202Y408802D01*
X50181Y408760D01*
X50167Y408732D01*
X50160Y408718D01*
X50153Y408712D01*
X50022Y408531D01*
X49869Y408379D01*
X49716Y408247D01*
X49571Y408143D01*
X49439Y408060D01*
X49384Y408032D01*
X49335Y408004D01*
X49293Y407984D01*
X49266Y407970D01*
X49245Y407956D01*
X49238D01*
X49002Y407873D01*
X48759Y407810D01*
X48517Y407769D01*
X48288Y407741D01*
X48177Y407727D01*
X48080Y407720D01*
X47997Y407713D01*
X47920D01*
X47858Y407706D01*
X47775D01*
X47525Y407720D01*
X47296Y407748D01*
X47088Y407782D01*
X46991Y407810D01*
X46908Y407831D01*
X46825Y407852D01*
X46755Y407879D01*
X46693Y407900D01*
X46645Y407914D01*
X46603Y407935D01*
X46575Y407942D01*
X46554Y407956D01*
X46547D01*
X46353Y408060D01*
X46187Y408171D01*
X46041Y408289D01*
X45923Y408400D01*
X45826Y408504D01*
X45764Y408580D01*
X45736Y408615D01*
X45722Y408635D01*
X45708Y408649D01*
Y408656D01*
X45653Y408739D01*
X45611Y408829D01*
X45535Y408996D01*
X45480Y409155D01*
X45445Y409301D01*
X45424Y409433D01*
X45417Y409481D01*
Y409530D01*
X45410Y409565D01*
Y409592D01*
Y409606D01*
Y409613D01*
X45424Y409800D01*
X45452Y409974D01*
X45493Y410126D01*
X45542Y410258D01*
X45598Y410369D01*
X45618Y410417D01*
X45639Y410452D01*
X45653Y410480D01*
X45667Y410501D01*
X45681Y410514D01*
Y410521D01*
X45736Y410591D01*
X45792Y410660D01*
X45923Y410792D01*
X46055Y410903D01*
X46194Y410993D01*
X46312Y411069D01*
X46367Y411104D01*
X46416Y411125D01*
X46450Y411146D01*
X46478Y411159D01*
X46499Y411173D01*
X46506D01*
X46582Y411208D01*
X46679Y411243D01*
X46776Y411277D01*
X46887Y411312D01*
X47123Y411374D01*
X47359Y411437D01*
X47470Y411471D01*
X47574Y411492D01*
X47671Y411520D01*
X47754Y411534D01*
X47823Y411555D01*
X47872Y411568D01*
X47907Y411575D01*
X47920D01*
X48108Y411617D01*
X48274Y411665D01*
X48420Y411707D01*
X48558Y411749D01*
X48676Y411790D01*
X48780Y411825D01*
X48871Y411860D01*
X48947Y411894D01*
X49009Y411929D01*
X49065Y411957D01*
X49106Y411978D01*
X49141Y411998D01*
X49169Y412019D01*
X49183Y412033D01*
X49196Y412040D01*
X49280Y412130D01*
X49335Y412220D01*
X49377Y412317D01*
X49411Y412407D01*
X49425Y412484D01*
X49432Y412546D01*
X49439Y412588D01*
Y412595D01*
Y412602D01*
X49432Y412678D01*
X49425Y412747D01*
X49384Y412872D01*
X49328Y412990D01*
X49266Y413087D01*
X49203Y413170D01*
X49148Y413233D01*
X49106Y413267D01*
X49099Y413281D01*
X49092D01*
X49023Y413330D01*
X48940Y413378D01*
X48766Y413448D01*
X48586Y413496D01*
X48399Y413531D01*
X48316Y413545D01*
X48232Y413552D01*
X48163Y413559D01*
X48101D01*
X48045Y413565D01*
X47844D01*
X47719Y413552D01*
X47601Y413538D01*
X47491Y413517D01*
X47393Y413496D01*
X47303Y413468D01*
X47220Y413441D01*
X47144Y413413D01*
X47081Y413378D01*
X47026Y413351D01*
X46977Y413323D01*
X46936Y413302D01*
X46908Y413281D01*
X46880Y413267D01*
X46873Y413260D01*
X46866Y413254D01*
X46797Y413191D01*
X46735Y413129D01*
X46638Y412983D01*
X46554Y412831D01*
X46499Y412685D01*
X46457Y412553D01*
X46444Y412498D01*
X46430Y412442D01*
X46423Y412401D01*
Y412373D01*
X46416Y412352D01*
Y412345D01*
X45605Y412407D01*
X45625Y412616D01*
X45667Y412803D01*
X45715Y412976D01*
X45771Y413122D01*
X45806Y413184D01*
X45826Y413246D01*
X45854Y413295D01*
X45875Y413337D01*
X45896Y413371D01*
X45910Y413392D01*
X45917Y413406D01*
X45923Y413413D01*
X46041Y413573D01*
X46173Y413704D01*
X46312Y413822D01*
X46450Y413919D01*
X46568Y413988D01*
X46624Y414016D01*
X46665Y414044D01*
X46700Y414065D01*
X46735Y414072D01*
X46749Y414086D01*
X46755D01*
X46964Y414162D01*
X47179Y414224D01*
X47393Y414266D01*
X47588Y414294D01*
X47678Y414300D01*
X47754Y414308D01*
X47830Y414314D01*
X47893Y414321D01*
X48011D01*
X48246Y414314D01*
D02*
G37*
G36*
X43344Y367810D02*
X42533D01*
Y372830D01*
X39176Y367810D01*
X38303D01*
Y374210D01*
X39114D01*
Y369183D01*
X42477Y374210D01*
X43344D01*
Y367810D01*
D02*
G37*
G36*
X47477Y374314D02*
X47650Y374307D01*
X47817Y374286D01*
X47969Y374259D01*
X48122Y374231D01*
X48260Y374196D01*
X48392Y374162D01*
X48510Y374127D01*
X48614Y374085D01*
X48711Y374051D01*
X48794Y374016D01*
X48864Y373988D01*
X48919Y373961D01*
X48961Y373940D01*
X48988Y373933D01*
X48995Y373926D01*
X49127Y373850D01*
X49252Y373759D01*
X49370Y373669D01*
X49474Y373572D01*
X49578Y373468D01*
X49668Y373371D01*
X49751Y373274D01*
X49827Y373177D01*
X49890Y373080D01*
X49952Y372997D01*
X50001Y372920D01*
X50042Y372851D01*
X50070Y372796D01*
X50091Y372754D01*
X50105Y372726D01*
X50112Y372719D01*
X50181Y372567D01*
X50237Y372414D01*
X50292Y372262D01*
X50334Y372109D01*
X50403Y371818D01*
X50431Y371679D01*
X50451Y371548D01*
X50465Y371430D01*
X50479Y371319D01*
X50486Y371222D01*
X50493Y371138D01*
X50500Y371069D01*
Y371021D01*
Y370993D01*
Y370979D01*
X50493Y370806D01*
X50486Y370632D01*
X50465Y370473D01*
X50438Y370313D01*
X50410Y370168D01*
X50375Y370022D01*
X50340Y369890D01*
X50306Y369772D01*
X50271Y369661D01*
X50237Y369564D01*
X50202Y369481D01*
X50174Y369405D01*
X50146Y369349D01*
X50126Y369308D01*
X50119Y369280D01*
X50112Y369273D01*
X50035Y369134D01*
X49945Y369003D01*
X49855Y368885D01*
X49765Y368767D01*
X49668Y368663D01*
X49571Y368573D01*
X49474Y368483D01*
X49384Y368406D01*
X49293Y368337D01*
X49210Y368274D01*
X49134Y368226D01*
X49072Y368184D01*
X49023Y368150D01*
X48981Y368129D01*
X48954Y368115D01*
X48947Y368108D01*
X48801Y368039D01*
X48649Y367976D01*
X48503Y367921D01*
X48357Y367879D01*
X48205Y367838D01*
X48066Y367803D01*
X47927Y367775D01*
X47803Y367755D01*
X47685Y367741D01*
X47574Y367727D01*
X47477Y367720D01*
X47393Y367713D01*
X47324Y367706D01*
X47234D01*
X46977Y367720D01*
X46728Y367747D01*
X46499Y367782D01*
X46395Y367810D01*
X46291Y367831D01*
X46201Y367851D01*
X46125Y367879D01*
X46048Y367900D01*
X45993Y367914D01*
X45937Y367935D01*
X45903Y367942D01*
X45882Y367956D01*
X45875D01*
X45625Y368060D01*
X45389Y368177D01*
X45174Y368302D01*
X45071Y368365D01*
X44980Y368420D01*
X44897Y368476D01*
X44821Y368531D01*
X44752Y368573D01*
X44696Y368614D01*
X44647Y368649D01*
X44613Y368677D01*
X44592Y368691D01*
X44585Y368698D01*
Y371076D01*
X47296D01*
Y370320D01*
X45417D01*
Y369120D01*
X45528Y369030D01*
X45653Y368954D01*
X45785Y368878D01*
X45917Y368809D01*
X46034Y368753D01*
X46083Y368725D01*
X46125Y368704D01*
X46166Y368691D01*
X46194Y368677D01*
X46208Y368670D01*
X46215D01*
X46409Y368600D01*
X46603Y368552D01*
X46783Y368510D01*
X46943Y368489D01*
X47019Y368483D01*
X47081Y368476D01*
X47137Y368469D01*
X47186D01*
X47227Y368462D01*
X47283D01*
X47518Y368476D01*
X47740Y368503D01*
X47941Y368552D01*
X48038Y368573D01*
X48122Y368600D01*
X48198Y368628D01*
X48267Y368649D01*
X48330Y368677D01*
X48385Y368698D01*
X48427Y368711D01*
X48454Y368725D01*
X48475Y368739D01*
X48482D01*
X48586Y368795D01*
X48683Y368857D01*
X48850Y368989D01*
X48995Y369134D01*
X49120Y369273D01*
X49210Y369398D01*
X49252Y369453D01*
X49280Y369495D01*
X49307Y369537D01*
X49321Y369564D01*
X49328Y369585D01*
X49335Y369592D01*
X49432Y369821D01*
X49502Y370064D01*
X49557Y370299D01*
X49592Y370528D01*
X49599Y370632D01*
X49612Y370729D01*
X49619Y370812D01*
Y370889D01*
X49626Y370944D01*
Y370993D01*
Y371021D01*
Y371027D01*
X49612Y371284D01*
X49585Y371527D01*
X49550Y371742D01*
X49529Y371846D01*
X49502Y371936D01*
X49481Y372019D01*
X49460Y372095D01*
X49439Y372158D01*
X49418Y372213D01*
X49404Y372262D01*
X49391Y372289D01*
X49384Y372310D01*
Y372317D01*
X49328Y372442D01*
X49266Y372560D01*
X49196Y372671D01*
X49134Y372761D01*
X49078Y372837D01*
X49030Y372900D01*
X49002Y372934D01*
X48988Y372948D01*
X48884Y373052D01*
X48766Y373142D01*
X48656Y373226D01*
X48545Y373295D01*
X48447Y373350D01*
X48371Y373385D01*
X48344Y373399D01*
X48323Y373413D01*
X48309Y373420D01*
X48302D01*
X48135Y373482D01*
X47969Y373524D01*
X47796Y373558D01*
X47643Y373579D01*
X47567Y373586D01*
X47504Y373593D01*
X47442D01*
X47393Y373600D01*
X47296D01*
X47123Y373593D01*
X46957Y373572D01*
X46811Y373545D01*
X46679Y373517D01*
X46575Y373482D01*
X46527Y373468D01*
X46492Y373454D01*
X46464Y373441D01*
X46444Y373434D01*
X46430Y373427D01*
X46423D01*
X46284Y373357D01*
X46159Y373288D01*
X46055Y373212D01*
X45965Y373142D01*
X45903Y373073D01*
X45854Y373024D01*
X45819Y372990D01*
X45813Y372976D01*
X45736Y372865D01*
X45667Y372740D01*
X45605Y372615D01*
X45549Y372491D01*
X45507Y372380D01*
X45493Y372331D01*
X45480Y372296D01*
X45466Y372262D01*
X45459Y372234D01*
X45452Y372220D01*
Y372213D01*
X44682Y372421D01*
X44752Y372650D01*
X44828Y372858D01*
X44869Y372948D01*
X44911Y373038D01*
X44946Y373115D01*
X44987Y373184D01*
X45022Y373253D01*
X45057Y373309D01*
X45091Y373357D01*
X45112Y373399D01*
X45140Y373427D01*
X45154Y373447D01*
X45161Y373461D01*
X45168Y373468D01*
X45299Y373614D01*
X45438Y373739D01*
X45584Y373843D01*
X45729Y373933D01*
X45854Y374002D01*
X45910Y374030D01*
X45958Y374051D01*
X45993Y374072D01*
X46020Y374085D01*
X46041Y374092D01*
X46048D01*
X46263Y374169D01*
X46478Y374224D01*
X46693Y374266D01*
X46887Y374293D01*
X46977Y374300D01*
X47054Y374307D01*
X47123Y374314D01*
X47186Y374321D01*
X47303D01*
X47477Y374314D01*
D02*
G37*
G36*
X36881Y367810D02*
X34572D01*
X34364Y367817D01*
X34170Y367824D01*
X33997Y367845D01*
X33844Y367865D01*
X33782Y367872D01*
X33726Y367879D01*
X33671Y367893D01*
X33629Y367900D01*
X33594Y367907D01*
X33574D01*
X33560Y367914D01*
X33553D01*
X33393Y367962D01*
X33241Y368011D01*
X33109Y368066D01*
X32998Y368115D01*
X32908Y368164D01*
X32839Y368198D01*
X32797Y368226D01*
X32790Y368233D01*
X32783D01*
X32665Y368323D01*
X32554Y368413D01*
X32457Y368510D01*
X32374Y368607D01*
X32298Y368691D01*
X32249Y368753D01*
X32228Y368781D01*
X32215Y368801D01*
X32201Y368809D01*
Y368815D01*
X32104Y368961D01*
X32020Y369114D01*
X31944Y369273D01*
X31882Y369419D01*
X31833Y369550D01*
X31812Y369606D01*
X31792Y369654D01*
X31785Y369689D01*
X31771Y369717D01*
X31764Y369738D01*
Y369745D01*
X31708Y369967D01*
X31667Y370188D01*
X31632Y370403D01*
X31611Y370604D01*
X31604Y370695D01*
X31597Y370778D01*
Y370854D01*
X31590Y370916D01*
Y370972D01*
Y371007D01*
Y371034D01*
Y371041D01*
X31604Y371353D01*
X31611Y371499D01*
X31632Y371638D01*
X31653Y371769D01*
X31674Y371894D01*
X31695Y372012D01*
X31715Y372123D01*
X31743Y372220D01*
X31764Y372303D01*
X31785Y372380D01*
X31805Y372442D01*
X31826Y372491D01*
X31833Y372532D01*
X31847Y372553D01*
Y372560D01*
X31951Y372796D01*
X32069Y373011D01*
X32131Y373108D01*
X32194Y373198D01*
X32256Y373281D01*
X32318Y373357D01*
X32374Y373427D01*
X32429Y373482D01*
X32478Y373538D01*
X32520Y373579D01*
X32554Y373614D01*
X32582Y373635D01*
X32596Y373648D01*
X32603Y373656D01*
X32755Y373773D01*
X32915Y373870D01*
X33067Y373947D01*
X33213Y374009D01*
X33345Y374058D01*
X33400Y374072D01*
X33449Y374085D01*
X33484Y374099D01*
X33511Y374106D01*
X33532Y374113D01*
X33539D01*
X33615Y374127D01*
X33698Y374148D01*
X33886Y374169D01*
X34073Y374189D01*
X34260Y374196D01*
X34343Y374203D01*
X34427D01*
X34496Y374210D01*
X36881D01*
Y367810D01*
D02*
G37*
G36*
X42456Y550514D02*
Y547810D01*
X41610D01*
Y550514D01*
X39059Y554210D01*
X40043D01*
X41284Y552324D01*
X41430Y552095D01*
X41569Y551880D01*
X41687Y551693D01*
X41742Y551603D01*
X41791Y551527D01*
X41832Y551457D01*
X41874Y551388D01*
X41902Y551333D01*
X41929Y551291D01*
X41957Y551250D01*
X41971Y551222D01*
X41978Y551208D01*
X41985Y551201D01*
X42096Y551402D01*
X42214Y551596D01*
X42325Y551777D01*
X42422Y551936D01*
X42470Y552012D01*
X42512Y552075D01*
X42547Y552137D01*
X42574Y552186D01*
X42602Y552220D01*
X42623Y552255D01*
X42630Y552269D01*
X42637Y552276D01*
X43899Y554210D01*
X44925D01*
X42456Y550514D01*
D02*
G37*
G36*
X48246Y554314D02*
X48468Y554287D01*
X48662Y554252D01*
X48753Y554231D01*
X48836Y554210D01*
X48912Y554190D01*
X48981Y554169D01*
X49044Y554148D01*
X49092Y554134D01*
X49127Y554120D01*
X49162Y554106D01*
X49176Y554100D01*
X49183D01*
X49370Y554009D01*
X49529Y553905D01*
X49668Y553801D01*
X49779Y553697D01*
X49869Y553600D01*
X49938Y553524D01*
X49959Y553496D01*
X49973Y553475D01*
X49987Y553461D01*
Y553455D01*
X50077Y553295D01*
X50146Y553136D01*
X50188Y552990D01*
X50223Y552851D01*
X50243Y552727D01*
X50250Y552678D01*
Y552636D01*
X50257Y552602D01*
Y552574D01*
Y552560D01*
Y552553D01*
X50250Y552394D01*
X50223Y552241D01*
X50188Y552102D01*
X50146Y551984D01*
X50105Y551887D01*
X50070Y551811D01*
X50056Y551783D01*
X50042Y551763D01*
X50035Y551756D01*
Y551749D01*
X49945Y551624D01*
X49834Y551506D01*
X49723Y551409D01*
X49605Y551319D01*
X49508Y551250D01*
X49425Y551201D01*
X49391Y551187D01*
X49370Y551173D01*
X49356Y551159D01*
X49349D01*
X49280Y551125D01*
X49196Y551090D01*
X49106Y551055D01*
X49009Y551021D01*
X48808Y550951D01*
X48600Y550889D01*
X48503Y550861D01*
X48420Y550833D01*
X48337Y550813D01*
X48260Y550792D01*
X48205Y550778D01*
X48156Y550764D01*
X48128Y550757D01*
X48122D01*
X47962Y550723D01*
X47817Y550681D01*
X47692Y550653D01*
X47574Y550619D01*
X47470Y550591D01*
X47373Y550570D01*
X47296Y550542D01*
X47220Y550521D01*
X47165Y550508D01*
X47109Y550487D01*
X47068Y550473D01*
X47040Y550466D01*
X47012Y550459D01*
X46998Y550452D01*
X46984Y550445D01*
X46846Y550383D01*
X46728Y550320D01*
X46624Y550258D01*
X46547Y550202D01*
X46485Y550147D01*
X46444Y550105D01*
X46416Y550078D01*
X46409Y550071D01*
X46346Y549987D01*
X46305Y549897D01*
X46270Y549807D01*
X46249Y549724D01*
X46235Y549655D01*
X46228Y549592D01*
Y549557D01*
Y549551D01*
Y549544D01*
X46235Y549440D01*
X46256Y549336D01*
X46291Y549245D01*
X46319Y549162D01*
X46353Y549093D01*
X46388Y549038D01*
X46409Y549010D01*
X46416Y548996D01*
X46492Y548906D01*
X46575Y548829D01*
X46672Y548760D01*
X46762Y548705D01*
X46846Y548663D01*
X46908Y548628D01*
X46936Y548615D01*
X46957Y548608D01*
X46964Y548601D01*
X46971D01*
X47109Y548552D01*
X47255Y548517D01*
X47400Y548497D01*
X47532Y548483D01*
X47643Y548469D01*
X47692D01*
X47733Y548462D01*
X47817D01*
X48018Y548469D01*
X48198Y548490D01*
X48371Y548524D01*
X48517Y548559D01*
X48579Y548573D01*
X48635Y548587D01*
X48683Y548608D01*
X48725Y548621D01*
X48759Y548635D01*
X48780Y548642D01*
X48794Y548649D01*
X48801D01*
X48954Y548725D01*
X49085Y548809D01*
X49196Y548885D01*
X49286Y548968D01*
X49356Y549038D01*
X49404Y549093D01*
X49439Y549128D01*
X49446Y549142D01*
X49515Y549266D01*
X49571Y549398D01*
X49612Y549530D01*
X49647Y549655D01*
X49675Y549772D01*
X49682Y549814D01*
X49689Y549856D01*
X49696Y549890D01*
X49703Y549918D01*
Y549932D01*
Y549939D01*
X50500Y549870D01*
X50493Y549752D01*
X50479Y549634D01*
X50438Y549419D01*
X50382Y549218D01*
X50354Y549128D01*
X50320Y549051D01*
X50292Y548975D01*
X50257Y548906D01*
X50230Y548850D01*
X50202Y548802D01*
X50181Y548760D01*
X50167Y548732D01*
X50160Y548718D01*
X50153Y548712D01*
X50022Y548531D01*
X49869Y548379D01*
X49716Y548247D01*
X49571Y548143D01*
X49439Y548060D01*
X49384Y548032D01*
X49335Y548004D01*
X49293Y547984D01*
X49266Y547970D01*
X49245Y547956D01*
X49238D01*
X49002Y547873D01*
X48759Y547810D01*
X48517Y547769D01*
X48288Y547741D01*
X48177Y547727D01*
X48080Y547720D01*
X47997Y547713D01*
X47920D01*
X47858Y547706D01*
X47775D01*
X47525Y547720D01*
X47296Y547748D01*
X47088Y547782D01*
X46991Y547810D01*
X46908Y547831D01*
X46825Y547852D01*
X46755Y547879D01*
X46693Y547900D01*
X46645Y547914D01*
X46603Y547935D01*
X46575Y547942D01*
X46554Y547956D01*
X46547D01*
X46353Y548060D01*
X46187Y548171D01*
X46041Y548289D01*
X45923Y548400D01*
X45826Y548504D01*
X45764Y548580D01*
X45736Y548615D01*
X45722Y548635D01*
X45708Y548649D01*
Y548656D01*
X45653Y548739D01*
X45611Y548829D01*
X45535Y548996D01*
X45480Y549155D01*
X45445Y549301D01*
X45424Y549433D01*
X45417Y549481D01*
Y549530D01*
X45410Y549565D01*
Y549592D01*
Y549606D01*
Y549613D01*
X45424Y549800D01*
X45452Y549974D01*
X45493Y550126D01*
X45542Y550258D01*
X45598Y550369D01*
X45618Y550417D01*
X45639Y550452D01*
X45653Y550480D01*
X45667Y550501D01*
X45681Y550514D01*
Y550521D01*
X45736Y550591D01*
X45792Y550660D01*
X45923Y550792D01*
X46055Y550903D01*
X46194Y550993D01*
X46312Y551069D01*
X46367Y551104D01*
X46416Y551125D01*
X46450Y551146D01*
X46478Y551159D01*
X46499Y551173D01*
X46506D01*
X46582Y551208D01*
X46679Y551243D01*
X46776Y551277D01*
X46887Y551312D01*
X47123Y551374D01*
X47359Y551437D01*
X47470Y551471D01*
X47574Y551492D01*
X47671Y551520D01*
X47754Y551534D01*
X47823Y551555D01*
X47872Y551568D01*
X47907Y551575D01*
X47920D01*
X48108Y551617D01*
X48274Y551665D01*
X48420Y551707D01*
X48558Y551749D01*
X48676Y551790D01*
X48780Y551825D01*
X48871Y551860D01*
X48947Y551894D01*
X49009Y551929D01*
X49065Y551957D01*
X49106Y551978D01*
X49141Y551998D01*
X49169Y552019D01*
X49183Y552033D01*
X49196Y552040D01*
X49280Y552130D01*
X49335Y552220D01*
X49377Y552317D01*
X49411Y552407D01*
X49425Y552484D01*
X49432Y552546D01*
X49439Y552588D01*
Y552595D01*
Y552602D01*
X49432Y552678D01*
X49425Y552747D01*
X49384Y552872D01*
X49328Y552990D01*
X49266Y553087D01*
X49203Y553170D01*
X49148Y553233D01*
X49106Y553267D01*
X49099Y553281D01*
X49092D01*
X49023Y553330D01*
X48940Y553378D01*
X48766Y553448D01*
X48586Y553496D01*
X48399Y553531D01*
X48316Y553545D01*
X48232Y553552D01*
X48163Y553559D01*
X48101D01*
X48045Y553565D01*
X47844D01*
X47719Y553552D01*
X47601Y553538D01*
X47491Y553517D01*
X47393Y553496D01*
X47303Y553468D01*
X47220Y553441D01*
X47144Y553413D01*
X47081Y553378D01*
X47026Y553351D01*
X46977Y553323D01*
X46936Y553302D01*
X46908Y553281D01*
X46880Y553267D01*
X46873Y553260D01*
X46866Y553254D01*
X46797Y553191D01*
X46735Y553129D01*
X46638Y552983D01*
X46554Y552831D01*
X46499Y552685D01*
X46457Y552553D01*
X46444Y552498D01*
X46430Y552442D01*
X46423Y552401D01*
Y552373D01*
X46416Y552352D01*
Y552345D01*
X45605Y552407D01*
X45625Y552616D01*
X45667Y552803D01*
X45715Y552976D01*
X45771Y553122D01*
X45806Y553184D01*
X45826Y553246D01*
X45854Y553295D01*
X45875Y553337D01*
X45896Y553371D01*
X45910Y553392D01*
X45917Y553406D01*
X45923Y553413D01*
X46041Y553573D01*
X46173Y553704D01*
X46312Y553822D01*
X46450Y553919D01*
X46568Y553988D01*
X46624Y554016D01*
X46665Y554044D01*
X46700Y554065D01*
X46735Y554072D01*
X46749Y554086D01*
X46755D01*
X46964Y554162D01*
X47179Y554224D01*
X47393Y554266D01*
X47588Y554294D01*
X47678Y554300D01*
X47754Y554308D01*
X47830Y554314D01*
X47893Y554321D01*
X48011D01*
X48246Y554314D01*
D02*
G37*
G36*
X36320D02*
X36542Y554287D01*
X36736Y554252D01*
X36826Y554231D01*
X36909Y554210D01*
X36985Y554190D01*
X37055Y554169D01*
X37117Y554148D01*
X37166Y554134D01*
X37200Y554120D01*
X37235Y554106D01*
X37249Y554100D01*
X37256D01*
X37443Y554009D01*
X37602Y553905D01*
X37741Y553801D01*
X37852Y553697D01*
X37942Y553600D01*
X38012Y553524D01*
X38032Y553496D01*
X38046Y553475D01*
X38060Y553461D01*
Y553455D01*
X38150Y553295D01*
X38219Y553136D01*
X38261Y552990D01*
X38296Y552851D01*
X38317Y552727D01*
X38324Y552678D01*
Y552636D01*
X38331Y552602D01*
Y552574D01*
Y552560D01*
Y552553D01*
X38324Y552394D01*
X38296Y552241D01*
X38261Y552102D01*
X38219Y551984D01*
X38178Y551887D01*
X38143Y551811D01*
X38129Y551783D01*
X38115Y551763D01*
X38109Y551756D01*
Y551749D01*
X38018Y551624D01*
X37908Y551506D01*
X37796Y551409D01*
X37679Y551319D01*
X37582Y551250D01*
X37498Y551201D01*
X37464Y551187D01*
X37443Y551173D01*
X37429Y551159D01*
X37422D01*
X37353Y551125D01*
X37269Y551090D01*
X37179Y551055D01*
X37082Y551021D01*
X36881Y550951D01*
X36673Y550889D01*
X36576Y550861D01*
X36493Y550833D01*
X36410Y550813D01*
X36333Y550792D01*
X36278Y550778D01*
X36229Y550764D01*
X36202Y550757D01*
X36195D01*
X36035Y550723D01*
X35890Y550681D01*
X35765Y550653D01*
X35647Y550619D01*
X35543Y550591D01*
X35446Y550570D01*
X35370Y550542D01*
X35293Y550521D01*
X35238Y550508D01*
X35182Y550487D01*
X35141Y550473D01*
X35113Y550466D01*
X35085Y550459D01*
X35071Y550452D01*
X35057Y550445D01*
X34919Y550383D01*
X34801Y550320D01*
X34697Y550258D01*
X34621Y550202D01*
X34558Y550147D01*
X34517Y550105D01*
X34489Y550078D01*
X34482Y550071D01*
X34420Y549987D01*
X34378Y549897D01*
X34343Y549807D01*
X34323Y549724D01*
X34309Y549655D01*
X34302Y549592D01*
Y549557D01*
Y549551D01*
Y549544D01*
X34309Y549440D01*
X34329Y549336D01*
X34364Y549245D01*
X34392Y549162D01*
X34427Y549093D01*
X34461Y549038D01*
X34482Y549010D01*
X34489Y548996D01*
X34565Y548906D01*
X34648Y548829D01*
X34746Y548760D01*
X34836Y548705D01*
X34919Y548663D01*
X34981Y548628D01*
X35009Y548615D01*
X35030Y548608D01*
X35037Y548601D01*
X35044D01*
X35182Y548552D01*
X35328Y548517D01*
X35474Y548497D01*
X35605Y548483D01*
X35716Y548469D01*
X35765D01*
X35806Y548462D01*
X35890D01*
X36091Y548469D01*
X36271Y548490D01*
X36444Y548524D01*
X36590Y548559D01*
X36652Y548573D01*
X36708Y548587D01*
X36756Y548608D01*
X36798Y548621D01*
X36833Y548635D01*
X36853Y548642D01*
X36867Y548649D01*
X36874D01*
X37027Y548725D01*
X37159Y548809D01*
X37269Y548885D01*
X37360Y548968D01*
X37429Y549038D01*
X37478Y549093D01*
X37512Y549128D01*
X37519Y549142D01*
X37589Y549266D01*
X37644Y549398D01*
X37686Y549530D01*
X37720Y549655D01*
X37748Y549772D01*
X37755Y549814D01*
X37762Y549856D01*
X37769Y549890D01*
X37776Y549918D01*
Y549932D01*
Y549939D01*
X38573Y549870D01*
X38566Y549752D01*
X38552Y549634D01*
X38511Y549419D01*
X38455Y549218D01*
X38428Y549128D01*
X38393Y549051D01*
X38365Y548975D01*
X38331Y548906D01*
X38303Y548850D01*
X38275Y548802D01*
X38254Y548760D01*
X38240Y548732D01*
X38233Y548718D01*
X38226Y548712D01*
X38095Y548531D01*
X37942Y548379D01*
X37790Y548247D01*
X37644Y548143D01*
X37512Y548060D01*
X37457Y548032D01*
X37408Y548004D01*
X37367Y547984D01*
X37339Y547970D01*
X37318Y547956D01*
X37311D01*
X37075Y547873D01*
X36833Y547810D01*
X36590Y547769D01*
X36361Y547741D01*
X36250Y547727D01*
X36153Y547720D01*
X36070Y547713D01*
X35994D01*
X35931Y547706D01*
X35848D01*
X35598Y547720D01*
X35370Y547748D01*
X35162Y547782D01*
X35064Y547810D01*
X34981Y547831D01*
X34898Y547852D01*
X34829Y547879D01*
X34766Y547900D01*
X34718Y547914D01*
X34676Y547935D01*
X34648Y547942D01*
X34628Y547956D01*
X34621D01*
X34427Y548060D01*
X34260Y548171D01*
X34114Y548289D01*
X33997Y548400D01*
X33900Y548504D01*
X33837Y548580D01*
X33809Y548615D01*
X33795Y548635D01*
X33782Y548649D01*
Y548656D01*
X33726Y548739D01*
X33685Y548829D01*
X33608Y548996D01*
X33553Y549155D01*
X33518Y549301D01*
X33497Y549433D01*
X33490Y549481D01*
Y549530D01*
X33484Y549565D01*
Y549592D01*
Y549606D01*
Y549613D01*
X33497Y549800D01*
X33525Y549974D01*
X33567Y550126D01*
X33615Y550258D01*
X33671Y550369D01*
X33691Y550417D01*
X33712Y550452D01*
X33726Y550480D01*
X33740Y550501D01*
X33754Y550514D01*
Y550521D01*
X33809Y550591D01*
X33865Y550660D01*
X33997Y550792D01*
X34128Y550903D01*
X34267Y550993D01*
X34385Y551069D01*
X34440Y551104D01*
X34489Y551125D01*
X34524Y551146D01*
X34551Y551159D01*
X34572Y551173D01*
X34579D01*
X34655Y551208D01*
X34752Y551243D01*
X34850Y551277D01*
X34960Y551312D01*
X35196Y551374D01*
X35432Y551437D01*
X35543Y551471D01*
X35647Y551492D01*
X35744Y551520D01*
X35827Y551534D01*
X35897Y551555D01*
X35945Y551568D01*
X35980Y551575D01*
X35994D01*
X36181Y551617D01*
X36347Y551665D01*
X36493Y551707D01*
X36632Y551749D01*
X36749Y551790D01*
X36853Y551825D01*
X36944Y551860D01*
X37020Y551894D01*
X37082Y551929D01*
X37138Y551957D01*
X37179Y551978D01*
X37214Y551998D01*
X37242Y552019D01*
X37256Y552033D01*
X37269Y552040D01*
X37353Y552130D01*
X37408Y552220D01*
X37450Y552317D01*
X37485Y552407D01*
X37498Y552484D01*
X37505Y552546D01*
X37512Y552588D01*
Y552595D01*
Y552602D01*
X37505Y552678D01*
X37498Y552747D01*
X37457Y552872D01*
X37401Y552990D01*
X37339Y553087D01*
X37276Y553170D01*
X37221Y553233D01*
X37179Y553267D01*
X37173Y553281D01*
X37166D01*
X37096Y553330D01*
X37013Y553378D01*
X36840Y553448D01*
X36659Y553496D01*
X36472Y553531D01*
X36389Y553545D01*
X36306Y553552D01*
X36236Y553559D01*
X36174D01*
X36119Y553565D01*
X35917D01*
X35793Y553552D01*
X35675Y553538D01*
X35564Y553517D01*
X35467Y553496D01*
X35377Y553468D01*
X35293Y553441D01*
X35217Y553413D01*
X35155Y553378D01*
X35099Y553351D01*
X35051Y553323D01*
X35009Y553302D01*
X34981Y553281D01*
X34953Y553267D01*
X34947Y553260D01*
X34940Y553254D01*
X34870Y553191D01*
X34808Y553129D01*
X34711Y552983D01*
X34628Y552831D01*
X34572Y552685D01*
X34530Y552553D01*
X34517Y552498D01*
X34503Y552442D01*
X34496Y552401D01*
Y552373D01*
X34489Y552352D01*
Y552345D01*
X33678Y552407D01*
X33698Y552616D01*
X33740Y552803D01*
X33789Y552976D01*
X33844Y553122D01*
X33879Y553184D01*
X33900Y553246D01*
X33927Y553295D01*
X33948Y553337D01*
X33969Y553371D01*
X33983Y553392D01*
X33990Y553406D01*
X33997Y553413D01*
X34114Y553573D01*
X34246Y553704D01*
X34385Y553822D01*
X34524Y553919D01*
X34641Y553988D01*
X34697Y554016D01*
X34739Y554044D01*
X34773Y554065D01*
X34808Y554072D01*
X34822Y554086D01*
X34829D01*
X35037Y554162D01*
X35252Y554224D01*
X35467Y554266D01*
X35661Y554294D01*
X35751Y554300D01*
X35827Y554308D01*
X35903Y554314D01*
X35966Y554321D01*
X36084D01*
X36320Y554314D01*
D02*
G37*
G36*
X42456Y530514D02*
Y527810D01*
X41610D01*
Y530514D01*
X39059Y534210D01*
X40043D01*
X41284Y532324D01*
X41430Y532095D01*
X41569Y531880D01*
X41687Y531693D01*
X41742Y531603D01*
X41791Y531527D01*
X41832Y531457D01*
X41874Y531388D01*
X41902Y531333D01*
X41929Y531291D01*
X41957Y531250D01*
X41971Y531222D01*
X41978Y531208D01*
X41985Y531201D01*
X42096Y531402D01*
X42214Y531596D01*
X42325Y531777D01*
X42422Y531936D01*
X42470Y532012D01*
X42512Y532075D01*
X42547Y532137D01*
X42574Y532186D01*
X42602Y532220D01*
X42623Y532255D01*
X42630Y532269D01*
X42637Y532276D01*
X43899Y534210D01*
X44925D01*
X42456Y530514D01*
D02*
G37*
G36*
X48246Y534314D02*
X48468Y534287D01*
X48662Y534252D01*
X48753Y534231D01*
X48836Y534210D01*
X48912Y534190D01*
X48981Y534169D01*
X49044Y534148D01*
X49092Y534134D01*
X49127Y534120D01*
X49162Y534106D01*
X49176Y534099D01*
X49183D01*
X49370Y534009D01*
X49529Y533905D01*
X49668Y533801D01*
X49779Y533697D01*
X49869Y533600D01*
X49938Y533524D01*
X49959Y533496D01*
X49973Y533475D01*
X49987Y533461D01*
Y533455D01*
X50077Y533295D01*
X50146Y533136D01*
X50188Y532990D01*
X50223Y532851D01*
X50243Y532727D01*
X50250Y532678D01*
Y532636D01*
X50257Y532602D01*
Y532574D01*
Y532560D01*
Y532553D01*
X50250Y532394D01*
X50223Y532241D01*
X50188Y532102D01*
X50146Y531984D01*
X50105Y531887D01*
X50070Y531811D01*
X50056Y531783D01*
X50042Y531763D01*
X50035Y531756D01*
Y531749D01*
X49945Y531624D01*
X49834Y531506D01*
X49723Y531409D01*
X49605Y531319D01*
X49508Y531250D01*
X49425Y531201D01*
X49391Y531187D01*
X49370Y531173D01*
X49356Y531159D01*
X49349D01*
X49280Y531125D01*
X49196Y531090D01*
X49106Y531055D01*
X49009Y531021D01*
X48808Y530951D01*
X48600Y530889D01*
X48503Y530861D01*
X48420Y530833D01*
X48337Y530813D01*
X48260Y530792D01*
X48205Y530778D01*
X48156Y530764D01*
X48128Y530757D01*
X48122D01*
X47962Y530723D01*
X47817Y530681D01*
X47692Y530653D01*
X47574Y530619D01*
X47470Y530591D01*
X47373Y530570D01*
X47296Y530542D01*
X47220Y530521D01*
X47165Y530508D01*
X47109Y530487D01*
X47068Y530473D01*
X47040Y530466D01*
X47012Y530459D01*
X46998Y530452D01*
X46984Y530445D01*
X46846Y530383D01*
X46728Y530320D01*
X46624Y530258D01*
X46547Y530202D01*
X46485Y530147D01*
X46444Y530105D01*
X46416Y530078D01*
X46409Y530071D01*
X46346Y529987D01*
X46305Y529897D01*
X46270Y529807D01*
X46249Y529724D01*
X46235Y529655D01*
X46228Y529592D01*
Y529557D01*
Y529551D01*
Y529544D01*
X46235Y529440D01*
X46256Y529336D01*
X46291Y529245D01*
X46319Y529162D01*
X46353Y529093D01*
X46388Y529038D01*
X46409Y529010D01*
X46416Y528996D01*
X46492Y528906D01*
X46575Y528829D01*
X46672Y528760D01*
X46762Y528705D01*
X46846Y528663D01*
X46908Y528628D01*
X46936Y528615D01*
X46957Y528608D01*
X46964Y528601D01*
X46971D01*
X47109Y528552D01*
X47255Y528517D01*
X47400Y528497D01*
X47532Y528483D01*
X47643Y528469D01*
X47692D01*
X47733Y528462D01*
X47817D01*
X48018Y528469D01*
X48198Y528490D01*
X48371Y528524D01*
X48517Y528559D01*
X48579Y528573D01*
X48635Y528587D01*
X48683Y528608D01*
X48725Y528621D01*
X48759Y528635D01*
X48780Y528642D01*
X48794Y528649D01*
X48801D01*
X48954Y528725D01*
X49085Y528809D01*
X49196Y528885D01*
X49286Y528968D01*
X49356Y529038D01*
X49404Y529093D01*
X49439Y529128D01*
X49446Y529142D01*
X49515Y529266D01*
X49571Y529398D01*
X49612Y529530D01*
X49647Y529655D01*
X49675Y529772D01*
X49682Y529814D01*
X49689Y529856D01*
X49696Y529890D01*
X49703Y529918D01*
Y529932D01*
Y529939D01*
X50500Y529870D01*
X50493Y529752D01*
X50479Y529634D01*
X50438Y529419D01*
X50382Y529218D01*
X50354Y529128D01*
X50320Y529051D01*
X50292Y528975D01*
X50257Y528906D01*
X50230Y528850D01*
X50202Y528802D01*
X50181Y528760D01*
X50167Y528732D01*
X50160Y528718D01*
X50153Y528712D01*
X50022Y528531D01*
X49869Y528379D01*
X49716Y528247D01*
X49571Y528143D01*
X49439Y528060D01*
X49384Y528032D01*
X49335Y528004D01*
X49293Y527984D01*
X49266Y527970D01*
X49245Y527956D01*
X49238D01*
X49002Y527873D01*
X48759Y527810D01*
X48517Y527769D01*
X48288Y527741D01*
X48177Y527727D01*
X48080Y527720D01*
X47997Y527713D01*
X47920D01*
X47858Y527706D01*
X47775D01*
X47525Y527720D01*
X47296Y527748D01*
X47088Y527782D01*
X46991Y527810D01*
X46908Y527831D01*
X46825Y527852D01*
X46755Y527879D01*
X46693Y527900D01*
X46645Y527914D01*
X46603Y527935D01*
X46575Y527942D01*
X46554Y527956D01*
X46547D01*
X46353Y528060D01*
X46187Y528171D01*
X46041Y528289D01*
X45923Y528400D01*
X45826Y528503D01*
X45764Y528580D01*
X45736Y528615D01*
X45722Y528635D01*
X45708Y528649D01*
Y528656D01*
X45653Y528739D01*
X45611Y528829D01*
X45535Y528996D01*
X45480Y529155D01*
X45445Y529301D01*
X45424Y529433D01*
X45417Y529481D01*
Y529530D01*
X45410Y529565D01*
Y529592D01*
Y529606D01*
Y529613D01*
X45424Y529800D01*
X45452Y529974D01*
X45493Y530126D01*
X45542Y530258D01*
X45598Y530369D01*
X45618Y530417D01*
X45639Y530452D01*
X45653Y530480D01*
X45667Y530501D01*
X45681Y530514D01*
Y530521D01*
X45736Y530591D01*
X45792Y530660D01*
X45923Y530792D01*
X46055Y530903D01*
X46194Y530993D01*
X46312Y531069D01*
X46367Y531104D01*
X46416Y531125D01*
X46450Y531146D01*
X46478Y531159D01*
X46499Y531173D01*
X46506D01*
X46582Y531208D01*
X46679Y531242D01*
X46776Y531277D01*
X46887Y531312D01*
X47123Y531374D01*
X47359Y531437D01*
X47470Y531471D01*
X47574Y531492D01*
X47671Y531520D01*
X47754Y531534D01*
X47823Y531555D01*
X47872Y531568D01*
X47907Y531575D01*
X47920D01*
X48108Y531617D01*
X48274Y531665D01*
X48420Y531707D01*
X48558Y531749D01*
X48676Y531790D01*
X48780Y531825D01*
X48871Y531860D01*
X48947Y531894D01*
X49009Y531929D01*
X49065Y531957D01*
X49106Y531978D01*
X49141Y531998D01*
X49169Y532019D01*
X49183Y532033D01*
X49196Y532040D01*
X49280Y532130D01*
X49335Y532220D01*
X49377Y532317D01*
X49411Y532407D01*
X49425Y532484D01*
X49432Y532546D01*
X49439Y532588D01*
Y532595D01*
Y532602D01*
X49432Y532678D01*
X49425Y532747D01*
X49384Y532872D01*
X49328Y532990D01*
X49266Y533087D01*
X49203Y533170D01*
X49148Y533233D01*
X49106Y533267D01*
X49099Y533281D01*
X49092D01*
X49023Y533330D01*
X48940Y533378D01*
X48766Y533448D01*
X48586Y533496D01*
X48399Y533531D01*
X48316Y533545D01*
X48232Y533552D01*
X48163Y533559D01*
X48101D01*
X48045Y533565D01*
X47844D01*
X47719Y533552D01*
X47601Y533538D01*
X47491Y533517D01*
X47393Y533496D01*
X47303Y533468D01*
X47220Y533441D01*
X47144Y533413D01*
X47081Y533378D01*
X47026Y533350D01*
X46977Y533323D01*
X46936Y533302D01*
X46908Y533281D01*
X46880Y533267D01*
X46873Y533260D01*
X46866Y533254D01*
X46797Y533191D01*
X46735Y533129D01*
X46638Y532983D01*
X46554Y532831D01*
X46499Y532685D01*
X46457Y532553D01*
X46444Y532498D01*
X46430Y532442D01*
X46423Y532401D01*
Y532373D01*
X46416Y532352D01*
Y532345D01*
X45605Y532407D01*
X45625Y532616D01*
X45667Y532803D01*
X45715Y532976D01*
X45771Y533122D01*
X45806Y533184D01*
X45826Y533246D01*
X45854Y533295D01*
X45875Y533337D01*
X45896Y533371D01*
X45910Y533392D01*
X45917Y533406D01*
X45923Y533413D01*
X46041Y533572D01*
X46173Y533704D01*
X46312Y533822D01*
X46450Y533919D01*
X46568Y533988D01*
X46624Y534016D01*
X46665Y534044D01*
X46700Y534065D01*
X46735Y534072D01*
X46749Y534086D01*
X46755D01*
X46964Y534162D01*
X47179Y534224D01*
X47393Y534266D01*
X47588Y534294D01*
X47678Y534300D01*
X47754Y534308D01*
X47830Y534314D01*
X47893Y534321D01*
X48011D01*
X48246Y534314D01*
D02*
G37*
G36*
X36320D02*
X36542Y534287D01*
X36736Y534252D01*
X36826Y534231D01*
X36909Y534210D01*
X36985Y534190D01*
X37055Y534169D01*
X37117Y534148D01*
X37166Y534134D01*
X37200Y534120D01*
X37235Y534106D01*
X37249Y534099D01*
X37256D01*
X37443Y534009D01*
X37602Y533905D01*
X37741Y533801D01*
X37852Y533697D01*
X37942Y533600D01*
X38012Y533524D01*
X38032Y533496D01*
X38046Y533475D01*
X38060Y533461D01*
Y533455D01*
X38150Y533295D01*
X38219Y533136D01*
X38261Y532990D01*
X38296Y532851D01*
X38317Y532727D01*
X38324Y532678D01*
Y532636D01*
X38331Y532602D01*
Y532574D01*
Y532560D01*
Y532553D01*
X38324Y532394D01*
X38296Y532241D01*
X38261Y532102D01*
X38219Y531984D01*
X38178Y531887D01*
X38143Y531811D01*
X38129Y531783D01*
X38115Y531763D01*
X38109Y531756D01*
Y531749D01*
X38018Y531624D01*
X37908Y531506D01*
X37796Y531409D01*
X37679Y531319D01*
X37582Y531250D01*
X37498Y531201D01*
X37464Y531187D01*
X37443Y531173D01*
X37429Y531159D01*
X37422D01*
X37353Y531125D01*
X37269Y531090D01*
X37179Y531055D01*
X37082Y531021D01*
X36881Y530951D01*
X36673Y530889D01*
X36576Y530861D01*
X36493Y530833D01*
X36410Y530813D01*
X36333Y530792D01*
X36278Y530778D01*
X36229Y530764D01*
X36202Y530757D01*
X36195D01*
X36035Y530723D01*
X35890Y530681D01*
X35765Y530653D01*
X35647Y530619D01*
X35543Y530591D01*
X35446Y530570D01*
X35370Y530542D01*
X35293Y530521D01*
X35238Y530508D01*
X35182Y530487D01*
X35141Y530473D01*
X35113Y530466D01*
X35085Y530459D01*
X35071Y530452D01*
X35057Y530445D01*
X34919Y530383D01*
X34801Y530320D01*
X34697Y530258D01*
X34621Y530202D01*
X34558Y530147D01*
X34517Y530105D01*
X34489Y530078D01*
X34482Y530071D01*
X34420Y529987D01*
X34378Y529897D01*
X34343Y529807D01*
X34323Y529724D01*
X34309Y529655D01*
X34302Y529592D01*
Y529557D01*
Y529551D01*
Y529544D01*
X34309Y529440D01*
X34329Y529336D01*
X34364Y529245D01*
X34392Y529162D01*
X34427Y529093D01*
X34461Y529038D01*
X34482Y529010D01*
X34489Y528996D01*
X34565Y528906D01*
X34648Y528829D01*
X34746Y528760D01*
X34836Y528705D01*
X34919Y528663D01*
X34981Y528628D01*
X35009Y528615D01*
X35030Y528608D01*
X35037Y528601D01*
X35044D01*
X35182Y528552D01*
X35328Y528517D01*
X35474Y528497D01*
X35605Y528483D01*
X35716Y528469D01*
X35765D01*
X35806Y528462D01*
X35890D01*
X36091Y528469D01*
X36271Y528490D01*
X36444Y528524D01*
X36590Y528559D01*
X36652Y528573D01*
X36708Y528587D01*
X36756Y528608D01*
X36798Y528621D01*
X36833Y528635D01*
X36853Y528642D01*
X36867Y528649D01*
X36874D01*
X37027Y528725D01*
X37159Y528809D01*
X37269Y528885D01*
X37360Y528968D01*
X37429Y529038D01*
X37478Y529093D01*
X37512Y529128D01*
X37519Y529142D01*
X37589Y529266D01*
X37644Y529398D01*
X37686Y529530D01*
X37720Y529655D01*
X37748Y529772D01*
X37755Y529814D01*
X37762Y529856D01*
X37769Y529890D01*
X37776Y529918D01*
Y529932D01*
Y529939D01*
X38573Y529870D01*
X38566Y529752D01*
X38552Y529634D01*
X38511Y529419D01*
X38455Y529218D01*
X38428Y529128D01*
X38393Y529051D01*
X38365Y528975D01*
X38331Y528906D01*
X38303Y528850D01*
X38275Y528802D01*
X38254Y528760D01*
X38240Y528732D01*
X38233Y528718D01*
X38226Y528712D01*
X38095Y528531D01*
X37942Y528379D01*
X37790Y528247D01*
X37644Y528143D01*
X37512Y528060D01*
X37457Y528032D01*
X37408Y528004D01*
X37367Y527984D01*
X37339Y527970D01*
X37318Y527956D01*
X37311D01*
X37075Y527873D01*
X36833Y527810D01*
X36590Y527769D01*
X36361Y527741D01*
X36250Y527727D01*
X36153Y527720D01*
X36070Y527713D01*
X35994D01*
X35931Y527706D01*
X35848D01*
X35598Y527720D01*
X35370Y527748D01*
X35162Y527782D01*
X35064Y527810D01*
X34981Y527831D01*
X34898Y527852D01*
X34829Y527879D01*
X34766Y527900D01*
X34718Y527914D01*
X34676Y527935D01*
X34648Y527942D01*
X34628Y527956D01*
X34621D01*
X34427Y528060D01*
X34260Y528171D01*
X34114Y528289D01*
X33997Y528400D01*
X33900Y528503D01*
X33837Y528580D01*
X33809Y528615D01*
X33795Y528635D01*
X33782Y528649D01*
Y528656D01*
X33726Y528739D01*
X33685Y528829D01*
X33608Y528996D01*
X33553Y529155D01*
X33518Y529301D01*
X33497Y529433D01*
X33490Y529481D01*
Y529530D01*
X33484Y529565D01*
Y529592D01*
Y529606D01*
Y529613D01*
X33497Y529800D01*
X33525Y529974D01*
X33567Y530126D01*
X33615Y530258D01*
X33671Y530369D01*
X33691Y530417D01*
X33712Y530452D01*
X33726Y530480D01*
X33740Y530501D01*
X33754Y530514D01*
Y530521D01*
X33809Y530591D01*
X33865Y530660D01*
X33997Y530792D01*
X34128Y530903D01*
X34267Y530993D01*
X34385Y531069D01*
X34440Y531104D01*
X34489Y531125D01*
X34524Y531146D01*
X34551Y531159D01*
X34572Y531173D01*
X34579D01*
X34655Y531208D01*
X34752Y531242D01*
X34850Y531277D01*
X34960Y531312D01*
X35196Y531374D01*
X35432Y531437D01*
X35543Y531471D01*
X35647Y531492D01*
X35744Y531520D01*
X35827Y531534D01*
X35897Y531555D01*
X35945Y531568D01*
X35980Y531575D01*
X35994D01*
X36181Y531617D01*
X36347Y531665D01*
X36493Y531707D01*
X36632Y531749D01*
X36749Y531790D01*
X36853Y531825D01*
X36944Y531860D01*
X37020Y531894D01*
X37082Y531929D01*
X37138Y531957D01*
X37179Y531978D01*
X37214Y531998D01*
X37242Y532019D01*
X37256Y532033D01*
X37269Y532040D01*
X37353Y532130D01*
X37408Y532220D01*
X37450Y532317D01*
X37485Y532407D01*
X37498Y532484D01*
X37505Y532546D01*
X37512Y532588D01*
Y532595D01*
Y532602D01*
X37505Y532678D01*
X37498Y532747D01*
X37457Y532872D01*
X37401Y532990D01*
X37339Y533087D01*
X37276Y533170D01*
X37221Y533233D01*
X37179Y533267D01*
X37173Y533281D01*
X37166D01*
X37096Y533330D01*
X37013Y533378D01*
X36840Y533448D01*
X36659Y533496D01*
X36472Y533531D01*
X36389Y533545D01*
X36306Y533552D01*
X36236Y533559D01*
X36174D01*
X36119Y533565D01*
X35917D01*
X35793Y533552D01*
X35675Y533538D01*
X35564Y533517D01*
X35467Y533496D01*
X35377Y533468D01*
X35293Y533441D01*
X35217Y533413D01*
X35155Y533378D01*
X35099Y533350D01*
X35051Y533323D01*
X35009Y533302D01*
X34981Y533281D01*
X34953Y533267D01*
X34947Y533260D01*
X34940Y533254D01*
X34870Y533191D01*
X34808Y533129D01*
X34711Y532983D01*
X34628Y532831D01*
X34572Y532685D01*
X34530Y532553D01*
X34517Y532498D01*
X34503Y532442D01*
X34496Y532401D01*
Y532373D01*
X34489Y532352D01*
Y532345D01*
X33678Y532407D01*
X33698Y532616D01*
X33740Y532803D01*
X33789Y532976D01*
X33844Y533122D01*
X33879Y533184D01*
X33900Y533246D01*
X33927Y533295D01*
X33948Y533337D01*
X33969Y533371D01*
X33983Y533392D01*
X33990Y533406D01*
X33997Y533413D01*
X34114Y533572D01*
X34246Y533704D01*
X34385Y533822D01*
X34524Y533919D01*
X34641Y533988D01*
X34697Y534016D01*
X34739Y534044D01*
X34773Y534065D01*
X34808Y534072D01*
X34822Y534086D01*
X34829D01*
X35037Y534162D01*
X35252Y534224D01*
X35467Y534266D01*
X35661Y534294D01*
X35751Y534300D01*
X35827Y534308D01*
X35903Y534314D01*
X35966Y534321D01*
X36084D01*
X36320Y534314D01*
D02*
G37*
G36*
X43344Y507810D02*
X42533D01*
Y512830D01*
X39176Y507810D01*
X38303D01*
Y514210D01*
X39114D01*
Y509183D01*
X42477Y514210D01*
X43344D01*
Y507810D01*
D02*
G37*
G36*
X47477Y514314D02*
X47650Y514307D01*
X47817Y514286D01*
X47969Y514259D01*
X48122Y514231D01*
X48260Y514196D01*
X48392Y514162D01*
X48510Y514127D01*
X48614Y514085D01*
X48711Y514051D01*
X48794Y514016D01*
X48864Y513988D01*
X48919Y513961D01*
X48961Y513940D01*
X48988Y513933D01*
X48995Y513926D01*
X49127Y513850D01*
X49252Y513759D01*
X49370Y513669D01*
X49474Y513572D01*
X49578Y513468D01*
X49668Y513371D01*
X49751Y513274D01*
X49827Y513177D01*
X49890Y513080D01*
X49952Y512997D01*
X50001Y512920D01*
X50042Y512851D01*
X50070Y512796D01*
X50091Y512754D01*
X50105Y512726D01*
X50112Y512719D01*
X50181Y512567D01*
X50237Y512414D01*
X50292Y512262D01*
X50334Y512109D01*
X50403Y511818D01*
X50431Y511679D01*
X50451Y511548D01*
X50465Y511430D01*
X50479Y511319D01*
X50486Y511222D01*
X50493Y511138D01*
X50500Y511069D01*
Y511021D01*
Y510993D01*
Y510979D01*
X50493Y510806D01*
X50486Y510632D01*
X50465Y510473D01*
X50438Y510313D01*
X50410Y510168D01*
X50375Y510022D01*
X50340Y509890D01*
X50306Y509772D01*
X50271Y509661D01*
X50237Y509564D01*
X50202Y509481D01*
X50174Y509405D01*
X50146Y509349D01*
X50126Y509308D01*
X50119Y509280D01*
X50112Y509273D01*
X50035Y509134D01*
X49945Y509003D01*
X49855Y508885D01*
X49765Y508767D01*
X49668Y508663D01*
X49571Y508573D01*
X49474Y508483D01*
X49384Y508406D01*
X49293Y508337D01*
X49210Y508274D01*
X49134Y508226D01*
X49072Y508184D01*
X49023Y508150D01*
X48981Y508129D01*
X48954Y508115D01*
X48947Y508108D01*
X48801Y508039D01*
X48649Y507976D01*
X48503Y507921D01*
X48357Y507879D01*
X48205Y507838D01*
X48066Y507803D01*
X47927Y507775D01*
X47803Y507755D01*
X47685Y507741D01*
X47574Y507727D01*
X47477Y507720D01*
X47393Y507713D01*
X47324Y507706D01*
X47234D01*
X46977Y507720D01*
X46728Y507747D01*
X46499Y507782D01*
X46395Y507810D01*
X46291Y507831D01*
X46201Y507851D01*
X46125Y507879D01*
X46048Y507900D01*
X45993Y507914D01*
X45937Y507935D01*
X45903Y507942D01*
X45882Y507956D01*
X45875D01*
X45625Y508060D01*
X45389Y508177D01*
X45174Y508302D01*
X45071Y508365D01*
X44980Y508420D01*
X44897Y508476D01*
X44821Y508531D01*
X44752Y508573D01*
X44696Y508614D01*
X44647Y508649D01*
X44613Y508677D01*
X44592Y508691D01*
X44585Y508698D01*
Y511076D01*
X47296D01*
Y510320D01*
X45417D01*
Y509120D01*
X45528Y509030D01*
X45653Y508954D01*
X45785Y508878D01*
X45917Y508809D01*
X46034Y508753D01*
X46083Y508725D01*
X46125Y508704D01*
X46166Y508691D01*
X46194Y508677D01*
X46208Y508670D01*
X46215D01*
X46409Y508600D01*
X46603Y508552D01*
X46783Y508510D01*
X46943Y508489D01*
X47019Y508483D01*
X47081Y508476D01*
X47137Y508469D01*
X47186D01*
X47227Y508462D01*
X47283D01*
X47518Y508476D01*
X47740Y508503D01*
X47941Y508552D01*
X48038Y508573D01*
X48122Y508600D01*
X48198Y508628D01*
X48267Y508649D01*
X48330Y508677D01*
X48385Y508698D01*
X48427Y508711D01*
X48454Y508725D01*
X48475Y508739D01*
X48482D01*
X48586Y508795D01*
X48683Y508857D01*
X48850Y508989D01*
X48995Y509134D01*
X49120Y509273D01*
X49210Y509398D01*
X49252Y509453D01*
X49280Y509495D01*
X49307Y509537D01*
X49321Y509564D01*
X49328Y509585D01*
X49335Y509592D01*
X49432Y509821D01*
X49502Y510064D01*
X49557Y510299D01*
X49592Y510528D01*
X49599Y510632D01*
X49612Y510729D01*
X49619Y510812D01*
Y510889D01*
X49626Y510944D01*
Y510993D01*
Y511021D01*
Y511027D01*
X49612Y511284D01*
X49585Y511527D01*
X49550Y511742D01*
X49529Y511846D01*
X49502Y511936D01*
X49481Y512019D01*
X49460Y512095D01*
X49439Y512158D01*
X49418Y512213D01*
X49404Y512262D01*
X49391Y512289D01*
X49384Y512310D01*
Y512317D01*
X49328Y512442D01*
X49266Y512560D01*
X49196Y512671D01*
X49134Y512761D01*
X49078Y512837D01*
X49030Y512900D01*
X49002Y512934D01*
X48988Y512948D01*
X48884Y513052D01*
X48766Y513142D01*
X48656Y513226D01*
X48545Y513295D01*
X48447Y513350D01*
X48371Y513385D01*
X48344Y513399D01*
X48323Y513413D01*
X48309Y513420D01*
X48302D01*
X48135Y513482D01*
X47969Y513524D01*
X47796Y513558D01*
X47643Y513579D01*
X47567Y513586D01*
X47504Y513593D01*
X47442D01*
X47393Y513600D01*
X47296D01*
X47123Y513593D01*
X46957Y513572D01*
X46811Y513545D01*
X46679Y513517D01*
X46575Y513482D01*
X46527Y513468D01*
X46492Y513454D01*
X46464Y513441D01*
X46444Y513434D01*
X46430Y513427D01*
X46423D01*
X46284Y513357D01*
X46159Y513288D01*
X46055Y513212D01*
X45965Y513142D01*
X45903Y513073D01*
X45854Y513024D01*
X45819Y512990D01*
X45813Y512976D01*
X45736Y512865D01*
X45667Y512740D01*
X45605Y512615D01*
X45549Y512491D01*
X45507Y512380D01*
X45493Y512331D01*
X45480Y512296D01*
X45466Y512262D01*
X45459Y512234D01*
X45452Y512220D01*
Y512213D01*
X44682Y512421D01*
X44752Y512650D01*
X44828Y512858D01*
X44869Y512948D01*
X44911Y513038D01*
X44946Y513115D01*
X44987Y513184D01*
X45022Y513253D01*
X45057Y513309D01*
X45091Y513357D01*
X45112Y513399D01*
X45140Y513427D01*
X45154Y513447D01*
X45161Y513461D01*
X45168Y513468D01*
X45299Y513614D01*
X45438Y513739D01*
X45584Y513843D01*
X45729Y513933D01*
X45854Y514002D01*
X45910Y514030D01*
X45958Y514051D01*
X45993Y514072D01*
X46020Y514085D01*
X46041Y514092D01*
X46048D01*
X46263Y514169D01*
X46478Y514224D01*
X46693Y514266D01*
X46887Y514293D01*
X46977Y514300D01*
X47054Y514307D01*
X47123Y514314D01*
X47186Y514321D01*
X47303D01*
X47477Y514314D01*
D02*
G37*
G36*
X36881Y507810D02*
X34572D01*
X34364Y507817D01*
X34170Y507824D01*
X33997Y507845D01*
X33844Y507865D01*
X33782Y507872D01*
X33726Y507879D01*
X33671Y507893D01*
X33629Y507900D01*
X33594Y507907D01*
X33574D01*
X33560Y507914D01*
X33553D01*
X33393Y507962D01*
X33241Y508011D01*
X33109Y508066D01*
X32998Y508115D01*
X32908Y508164D01*
X32839Y508198D01*
X32797Y508226D01*
X32790Y508233D01*
X32783D01*
X32665Y508323D01*
X32554Y508413D01*
X32457Y508510D01*
X32374Y508607D01*
X32298Y508691D01*
X32249Y508753D01*
X32228Y508781D01*
X32215Y508801D01*
X32201Y508809D01*
Y508815D01*
X32104Y508961D01*
X32020Y509114D01*
X31944Y509273D01*
X31882Y509419D01*
X31833Y509550D01*
X31812Y509606D01*
X31792Y509654D01*
X31785Y509689D01*
X31771Y509717D01*
X31764Y509738D01*
Y509745D01*
X31708Y509967D01*
X31667Y510188D01*
X31632Y510403D01*
X31611Y510604D01*
X31604Y510695D01*
X31597Y510778D01*
Y510854D01*
X31590Y510916D01*
Y510972D01*
Y511007D01*
Y511034D01*
Y511041D01*
X31604Y511353D01*
X31611Y511499D01*
X31632Y511638D01*
X31653Y511769D01*
X31674Y511894D01*
X31695Y512012D01*
X31715Y512123D01*
X31743Y512220D01*
X31764Y512303D01*
X31785Y512380D01*
X31805Y512442D01*
X31826Y512491D01*
X31833Y512532D01*
X31847Y512553D01*
Y512560D01*
X31951Y512796D01*
X32069Y513011D01*
X32131Y513108D01*
X32194Y513198D01*
X32256Y513281D01*
X32318Y513357D01*
X32374Y513427D01*
X32429Y513482D01*
X32478Y513538D01*
X32520Y513579D01*
X32554Y513614D01*
X32582Y513635D01*
X32596Y513648D01*
X32603Y513656D01*
X32755Y513773D01*
X32915Y513870D01*
X33067Y513947D01*
X33213Y514009D01*
X33345Y514058D01*
X33400Y514072D01*
X33449Y514085D01*
X33484Y514099D01*
X33511Y514106D01*
X33532Y514113D01*
X33539D01*
X33615Y514127D01*
X33698Y514148D01*
X33886Y514169D01*
X34073Y514189D01*
X34260Y514196D01*
X34343Y514203D01*
X34427D01*
X34496Y514210D01*
X36881D01*
Y507810D01*
D02*
G37*
G36*
X43344Y487810D02*
X42533D01*
Y492830D01*
X39176Y487810D01*
X38303D01*
Y494210D01*
X39114D01*
Y489183D01*
X42477Y494210D01*
X43344D01*
Y487810D01*
D02*
G37*
G36*
X47477Y494314D02*
X47650Y494307D01*
X47817Y494286D01*
X47969Y494259D01*
X48122Y494231D01*
X48260Y494196D01*
X48392Y494162D01*
X48510Y494127D01*
X48614Y494085D01*
X48711Y494051D01*
X48794Y494016D01*
X48864Y493988D01*
X48919Y493961D01*
X48961Y493940D01*
X48988Y493933D01*
X48995Y493926D01*
X49127Y493850D01*
X49252Y493759D01*
X49370Y493669D01*
X49474Y493572D01*
X49578Y493468D01*
X49668Y493371D01*
X49751Y493274D01*
X49827Y493177D01*
X49890Y493080D01*
X49952Y492997D01*
X50001Y492920D01*
X50042Y492851D01*
X50070Y492796D01*
X50091Y492754D01*
X50105Y492726D01*
X50112Y492719D01*
X50181Y492567D01*
X50237Y492414D01*
X50292Y492262D01*
X50334Y492109D01*
X50403Y491818D01*
X50431Y491679D01*
X50451Y491548D01*
X50465Y491430D01*
X50479Y491319D01*
X50486Y491222D01*
X50493Y491138D01*
X50500Y491069D01*
Y491021D01*
Y490993D01*
Y490979D01*
X50493Y490806D01*
X50486Y490632D01*
X50465Y490473D01*
X50438Y490313D01*
X50410Y490168D01*
X50375Y490022D01*
X50340Y489890D01*
X50306Y489772D01*
X50271Y489661D01*
X50237Y489564D01*
X50202Y489481D01*
X50174Y489405D01*
X50146Y489349D01*
X50126Y489308D01*
X50119Y489280D01*
X50112Y489273D01*
X50035Y489134D01*
X49945Y489003D01*
X49855Y488885D01*
X49765Y488767D01*
X49668Y488663D01*
X49571Y488573D01*
X49474Y488483D01*
X49384Y488406D01*
X49293Y488337D01*
X49210Y488274D01*
X49134Y488226D01*
X49072Y488184D01*
X49023Y488150D01*
X48981Y488129D01*
X48954Y488115D01*
X48947Y488108D01*
X48801Y488039D01*
X48649Y487976D01*
X48503Y487921D01*
X48357Y487879D01*
X48205Y487838D01*
X48066Y487803D01*
X47927Y487775D01*
X47803Y487754D01*
X47685Y487741D01*
X47574Y487727D01*
X47477Y487720D01*
X47393Y487713D01*
X47324Y487706D01*
X47234D01*
X46977Y487720D01*
X46728Y487747D01*
X46499Y487782D01*
X46395Y487810D01*
X46291Y487831D01*
X46201Y487851D01*
X46125Y487879D01*
X46048Y487900D01*
X45993Y487914D01*
X45937Y487935D01*
X45903Y487942D01*
X45882Y487956D01*
X45875D01*
X45625Y488060D01*
X45389Y488177D01*
X45174Y488302D01*
X45071Y488365D01*
X44980Y488420D01*
X44897Y488476D01*
X44821Y488531D01*
X44752Y488573D01*
X44696Y488614D01*
X44647Y488649D01*
X44613Y488677D01*
X44592Y488691D01*
X44585Y488698D01*
Y491076D01*
X47296D01*
Y490320D01*
X45417D01*
Y489120D01*
X45528Y489030D01*
X45653Y488954D01*
X45785Y488878D01*
X45917Y488808D01*
X46034Y488753D01*
X46083Y488725D01*
X46125Y488704D01*
X46166Y488691D01*
X46194Y488677D01*
X46208Y488670D01*
X46215D01*
X46409Y488600D01*
X46603Y488552D01*
X46783Y488510D01*
X46943Y488489D01*
X47019Y488483D01*
X47081Y488476D01*
X47137Y488469D01*
X47186D01*
X47227Y488462D01*
X47283D01*
X47518Y488476D01*
X47740Y488503D01*
X47941Y488552D01*
X48038Y488573D01*
X48122Y488600D01*
X48198Y488628D01*
X48267Y488649D01*
X48330Y488677D01*
X48385Y488698D01*
X48427Y488711D01*
X48454Y488725D01*
X48475Y488739D01*
X48482D01*
X48586Y488795D01*
X48683Y488857D01*
X48850Y488989D01*
X48995Y489134D01*
X49120Y489273D01*
X49210Y489398D01*
X49252Y489453D01*
X49280Y489495D01*
X49307Y489537D01*
X49321Y489564D01*
X49328Y489585D01*
X49335Y489592D01*
X49432Y489821D01*
X49502Y490064D01*
X49557Y490299D01*
X49592Y490528D01*
X49599Y490632D01*
X49612Y490729D01*
X49619Y490812D01*
Y490889D01*
X49626Y490944D01*
Y490993D01*
Y491021D01*
Y491027D01*
X49612Y491284D01*
X49585Y491527D01*
X49550Y491742D01*
X49529Y491846D01*
X49502Y491936D01*
X49481Y492019D01*
X49460Y492095D01*
X49439Y492158D01*
X49418Y492213D01*
X49404Y492262D01*
X49391Y492289D01*
X49384Y492310D01*
Y492317D01*
X49328Y492442D01*
X49266Y492560D01*
X49196Y492671D01*
X49134Y492761D01*
X49078Y492837D01*
X49030Y492900D01*
X49002Y492934D01*
X48988Y492948D01*
X48884Y493052D01*
X48766Y493142D01*
X48656Y493226D01*
X48545Y493295D01*
X48447Y493350D01*
X48371Y493385D01*
X48344Y493399D01*
X48323Y493413D01*
X48309Y493420D01*
X48302D01*
X48135Y493482D01*
X47969Y493524D01*
X47796Y493558D01*
X47643Y493579D01*
X47567Y493586D01*
X47504Y493593D01*
X47442D01*
X47393Y493600D01*
X47296D01*
X47123Y493593D01*
X46957Y493572D01*
X46811Y493545D01*
X46679Y493517D01*
X46575Y493482D01*
X46527Y493468D01*
X46492Y493454D01*
X46464Y493441D01*
X46444Y493434D01*
X46430Y493427D01*
X46423D01*
X46284Y493357D01*
X46159Y493288D01*
X46055Y493212D01*
X45965Y493142D01*
X45903Y493073D01*
X45854Y493024D01*
X45819Y492990D01*
X45813Y492976D01*
X45736Y492865D01*
X45667Y492740D01*
X45605Y492615D01*
X45549Y492491D01*
X45507Y492380D01*
X45493Y492331D01*
X45480Y492296D01*
X45466Y492262D01*
X45459Y492234D01*
X45452Y492220D01*
Y492213D01*
X44682Y492421D01*
X44752Y492650D01*
X44828Y492858D01*
X44869Y492948D01*
X44911Y493038D01*
X44946Y493115D01*
X44987Y493184D01*
X45022Y493253D01*
X45057Y493309D01*
X45091Y493357D01*
X45112Y493399D01*
X45140Y493427D01*
X45154Y493447D01*
X45161Y493461D01*
X45168Y493468D01*
X45299Y493614D01*
X45438Y493739D01*
X45584Y493843D01*
X45729Y493933D01*
X45854Y494002D01*
X45910Y494030D01*
X45958Y494051D01*
X45993Y494072D01*
X46020Y494085D01*
X46041Y494092D01*
X46048D01*
X46263Y494169D01*
X46478Y494224D01*
X46693Y494266D01*
X46887Y494293D01*
X46977Y494300D01*
X47054Y494307D01*
X47123Y494314D01*
X47186Y494321D01*
X47303D01*
X47477Y494314D01*
D02*
G37*
G36*
X36881Y487810D02*
X34572D01*
X34364Y487817D01*
X34170Y487824D01*
X33997Y487845D01*
X33844Y487865D01*
X33782Y487872D01*
X33726Y487879D01*
X33671Y487893D01*
X33629Y487900D01*
X33594Y487907D01*
X33574D01*
X33560Y487914D01*
X33553D01*
X33393Y487962D01*
X33241Y488011D01*
X33109Y488066D01*
X32998Y488115D01*
X32908Y488164D01*
X32839Y488198D01*
X32797Y488226D01*
X32790Y488233D01*
X32783D01*
X32665Y488323D01*
X32554Y488413D01*
X32457Y488510D01*
X32374Y488607D01*
X32298Y488691D01*
X32249Y488753D01*
X32228Y488781D01*
X32215Y488801D01*
X32201Y488808D01*
Y488815D01*
X32104Y488961D01*
X32020Y489114D01*
X31944Y489273D01*
X31882Y489419D01*
X31833Y489550D01*
X31812Y489606D01*
X31792Y489654D01*
X31785Y489689D01*
X31771Y489717D01*
X31764Y489738D01*
Y489745D01*
X31708Y489967D01*
X31667Y490188D01*
X31632Y490403D01*
X31611Y490604D01*
X31604Y490695D01*
X31597Y490778D01*
Y490854D01*
X31590Y490916D01*
Y490972D01*
Y491007D01*
Y491034D01*
Y491041D01*
X31604Y491353D01*
X31611Y491499D01*
X31632Y491638D01*
X31653Y491769D01*
X31674Y491894D01*
X31695Y492012D01*
X31715Y492123D01*
X31743Y492220D01*
X31764Y492303D01*
X31785Y492380D01*
X31805Y492442D01*
X31826Y492491D01*
X31833Y492532D01*
X31847Y492553D01*
Y492560D01*
X31951Y492796D01*
X32069Y493011D01*
X32131Y493108D01*
X32194Y493198D01*
X32256Y493281D01*
X32318Y493357D01*
X32374Y493427D01*
X32429Y493482D01*
X32478Y493538D01*
X32520Y493579D01*
X32554Y493614D01*
X32582Y493635D01*
X32596Y493648D01*
X32603Y493656D01*
X32755Y493773D01*
X32915Y493870D01*
X33067Y493947D01*
X33213Y494009D01*
X33345Y494058D01*
X33400Y494072D01*
X33449Y494085D01*
X33484Y494099D01*
X33511Y494106D01*
X33532Y494113D01*
X33539D01*
X33615Y494127D01*
X33698Y494148D01*
X33886Y494169D01*
X34073Y494189D01*
X34260Y494196D01*
X34343Y494203D01*
X34427D01*
X34496Y494210D01*
X36881D01*
Y487810D01*
D02*
G37*
G36*
X43344Y427810D02*
X42533D01*
Y432831D01*
X39176Y427810D01*
X38303D01*
Y434210D01*
X39114D01*
Y429183D01*
X42477Y434210D01*
X43344D01*
Y427810D01*
D02*
G37*
G36*
X47477Y434314D02*
X47650Y434308D01*
X47817Y434287D01*
X47969Y434259D01*
X48122Y434231D01*
X48260Y434197D01*
X48392Y434162D01*
X48510Y434127D01*
X48614Y434086D01*
X48711Y434051D01*
X48794Y434016D01*
X48864Y433988D01*
X48919Y433961D01*
X48961Y433940D01*
X48988Y433933D01*
X48995Y433926D01*
X49127Y433850D01*
X49252Y433760D01*
X49370Y433670D01*
X49474Y433573D01*
X49578Y433468D01*
X49668Y433371D01*
X49751Y433274D01*
X49827Y433177D01*
X49890Y433080D01*
X49952Y432997D01*
X50001Y432921D01*
X50042Y432851D01*
X50070Y432796D01*
X50091Y432754D01*
X50105Y432727D01*
X50112Y432720D01*
X50181Y432567D01*
X50237Y432415D01*
X50292Y432262D01*
X50334Y432109D01*
X50403Y431818D01*
X50431Y431679D01*
X50451Y431548D01*
X50465Y431430D01*
X50479Y431319D01*
X50486Y431222D01*
X50493Y431139D01*
X50500Y431069D01*
Y431021D01*
Y430993D01*
Y430979D01*
X50493Y430806D01*
X50486Y430632D01*
X50465Y430473D01*
X50438Y430313D01*
X50410Y430168D01*
X50375Y430022D01*
X50340Y429890D01*
X50306Y429772D01*
X50271Y429662D01*
X50237Y429565D01*
X50202Y429481D01*
X50174Y429405D01*
X50146Y429350D01*
X50126Y429308D01*
X50119Y429280D01*
X50112Y429273D01*
X50035Y429135D01*
X49945Y429003D01*
X49855Y428885D01*
X49765Y428767D01*
X49668Y428663D01*
X49571Y428573D01*
X49474Y428483D01*
X49384Y428406D01*
X49293Y428337D01*
X49210Y428275D01*
X49134Y428226D01*
X49072Y428185D01*
X49023Y428150D01*
X48981Y428129D01*
X48954Y428115D01*
X48947Y428108D01*
X48801Y428039D01*
X48649Y427977D01*
X48503Y427921D01*
X48357Y427879D01*
X48205Y427838D01*
X48066Y427803D01*
X47927Y427775D01*
X47803Y427755D01*
X47685Y427741D01*
X47574Y427727D01*
X47477Y427720D01*
X47393Y427713D01*
X47324Y427706D01*
X47234D01*
X46977Y427720D01*
X46728Y427748D01*
X46499Y427782D01*
X46395Y427810D01*
X46291Y427831D01*
X46201Y427852D01*
X46125Y427879D01*
X46048Y427900D01*
X45993Y427914D01*
X45937Y427935D01*
X45903Y427942D01*
X45882Y427956D01*
X45875D01*
X45625Y428060D01*
X45389Y428178D01*
X45174Y428302D01*
X45071Y428365D01*
X44980Y428420D01*
X44897Y428476D01*
X44821Y428531D01*
X44752Y428573D01*
X44696Y428615D01*
X44647Y428649D01*
X44613Y428677D01*
X44592Y428691D01*
X44585Y428698D01*
Y431076D01*
X47296D01*
Y430320D01*
X45417D01*
Y429121D01*
X45528Y429031D01*
X45653Y428954D01*
X45785Y428878D01*
X45917Y428809D01*
X46034Y428753D01*
X46083Y428726D01*
X46125Y428705D01*
X46166Y428691D01*
X46194Y428677D01*
X46208Y428670D01*
X46215D01*
X46409Y428601D01*
X46603Y428552D01*
X46783Y428511D01*
X46943Y428490D01*
X47019Y428483D01*
X47081Y428476D01*
X47137Y428469D01*
X47186D01*
X47227Y428462D01*
X47283D01*
X47518Y428476D01*
X47740Y428504D01*
X47941Y428552D01*
X48038Y428573D01*
X48122Y428601D01*
X48198Y428628D01*
X48267Y428649D01*
X48330Y428677D01*
X48385Y428698D01*
X48427Y428712D01*
X48454Y428726D01*
X48475Y428739D01*
X48482D01*
X48586Y428795D01*
X48683Y428857D01*
X48850Y428989D01*
X48995Y429135D01*
X49120Y429273D01*
X49210Y429398D01*
X49252Y429454D01*
X49280Y429495D01*
X49307Y429537D01*
X49321Y429565D01*
X49328Y429585D01*
X49335Y429592D01*
X49432Y429821D01*
X49502Y430064D01*
X49557Y430299D01*
X49592Y430528D01*
X49599Y430632D01*
X49612Y430729D01*
X49619Y430813D01*
Y430889D01*
X49626Y430944D01*
Y430993D01*
Y431021D01*
Y431028D01*
X49612Y431284D01*
X49585Y431527D01*
X49550Y431742D01*
X49529Y431846D01*
X49502Y431936D01*
X49481Y432019D01*
X49460Y432095D01*
X49439Y432158D01*
X49418Y432213D01*
X49404Y432262D01*
X49391Y432290D01*
X49384Y432310D01*
Y432317D01*
X49328Y432442D01*
X49266Y432560D01*
X49196Y432671D01*
X49134Y432761D01*
X49078Y432837D01*
X49030Y432900D01*
X49002Y432934D01*
X48988Y432948D01*
X48884Y433052D01*
X48766Y433143D01*
X48656Y433226D01*
X48545Y433295D01*
X48447Y433351D01*
X48371Y433385D01*
X48344Y433399D01*
X48323Y433413D01*
X48309Y433420D01*
X48302D01*
X48135Y433482D01*
X47969Y433524D01*
X47796Y433559D01*
X47643Y433579D01*
X47567Y433586D01*
X47504Y433593D01*
X47442D01*
X47393Y433600D01*
X47296D01*
X47123Y433593D01*
X46957Y433573D01*
X46811Y433545D01*
X46679Y433517D01*
X46575Y433482D01*
X46527Y433468D01*
X46492Y433455D01*
X46464Y433441D01*
X46444Y433434D01*
X46430Y433427D01*
X46423D01*
X46284Y433358D01*
X46159Y433288D01*
X46055Y433212D01*
X45965Y433143D01*
X45903Y433073D01*
X45854Y433025D01*
X45819Y432990D01*
X45813Y432976D01*
X45736Y432865D01*
X45667Y432740D01*
X45605Y432616D01*
X45549Y432491D01*
X45507Y432380D01*
X45493Y432331D01*
X45480Y432297D01*
X45466Y432262D01*
X45459Y432234D01*
X45452Y432220D01*
Y432213D01*
X44682Y432421D01*
X44752Y432650D01*
X44828Y432858D01*
X44869Y432948D01*
X44911Y433038D01*
X44946Y433115D01*
X44987Y433184D01*
X45022Y433254D01*
X45057Y433309D01*
X45091Y433358D01*
X45112Y433399D01*
X45140Y433427D01*
X45154Y433448D01*
X45161Y433461D01*
X45168Y433468D01*
X45299Y433614D01*
X45438Y433739D01*
X45584Y433843D01*
X45729Y433933D01*
X45854Y434002D01*
X45910Y434030D01*
X45958Y434051D01*
X45993Y434072D01*
X46020Y434086D01*
X46041Y434092D01*
X46048D01*
X46263Y434169D01*
X46478Y434224D01*
X46693Y434266D01*
X46887Y434294D01*
X46977Y434301D01*
X47054Y434308D01*
X47123Y434314D01*
X47186Y434321D01*
X47303D01*
X47477Y434314D01*
D02*
G37*
G36*
X36881Y427810D02*
X34572D01*
X34364Y427817D01*
X34170Y427824D01*
X33997Y427845D01*
X33844Y427866D01*
X33782Y427873D01*
X33726Y427879D01*
X33671Y427893D01*
X33629Y427900D01*
X33594Y427907D01*
X33574D01*
X33560Y427914D01*
X33553D01*
X33393Y427963D01*
X33241Y428011D01*
X33109Y428067D01*
X32998Y428115D01*
X32908Y428164D01*
X32839Y428199D01*
X32797Y428226D01*
X32790Y428233D01*
X32783D01*
X32665Y428323D01*
X32554Y428413D01*
X32457Y428511D01*
X32374Y428608D01*
X32298Y428691D01*
X32249Y428753D01*
X32228Y428781D01*
X32215Y428802D01*
X32201Y428809D01*
Y428816D01*
X32104Y428961D01*
X32020Y429114D01*
X31944Y429273D01*
X31882Y429419D01*
X31833Y429551D01*
X31812Y429606D01*
X31792Y429655D01*
X31785Y429689D01*
X31771Y429717D01*
X31764Y429738D01*
Y429745D01*
X31708Y429967D01*
X31667Y430189D01*
X31632Y430404D01*
X31611Y430605D01*
X31604Y430695D01*
X31597Y430778D01*
Y430854D01*
X31590Y430917D01*
Y430972D01*
Y431007D01*
Y431035D01*
Y431041D01*
X31604Y431353D01*
X31611Y431499D01*
X31632Y431638D01*
X31653Y431770D01*
X31674Y431894D01*
X31695Y432012D01*
X31715Y432123D01*
X31743Y432220D01*
X31764Y432304D01*
X31785Y432380D01*
X31805Y432442D01*
X31826Y432491D01*
X31833Y432532D01*
X31847Y432553D01*
Y432560D01*
X31951Y432796D01*
X32069Y433011D01*
X32131Y433108D01*
X32194Y433198D01*
X32256Y433281D01*
X32318Y433358D01*
X32374Y433427D01*
X32429Y433482D01*
X32478Y433538D01*
X32520Y433579D01*
X32554Y433614D01*
X32582Y433635D01*
X32596Y433649D01*
X32603Y433656D01*
X32755Y433774D01*
X32915Y433871D01*
X33067Y433947D01*
X33213Y434009D01*
X33345Y434058D01*
X33400Y434072D01*
X33449Y434086D01*
X33484Y434100D01*
X33511Y434106D01*
X33532Y434113D01*
X33539D01*
X33615Y434127D01*
X33698Y434148D01*
X33886Y434169D01*
X34073Y434190D01*
X34260Y434197D01*
X34343Y434203D01*
X34427D01*
X34496Y434210D01*
X36881D01*
Y427810D01*
D02*
G37*
G36*
X44738Y473455D02*
X42630D01*
Y467810D01*
X41784D01*
Y473455D01*
X39676D01*
Y474210D01*
X44738D01*
Y473455D01*
D02*
G37*
G36*
X39495Y467810D02*
X38601D01*
X37908Y469745D01*
X35217D01*
X34475Y467810D01*
X33511D01*
X36132Y474210D01*
X37048D01*
X39495Y467810D01*
D02*
G37*
G36*
X33317Y473455D02*
X31209D01*
Y467810D01*
X30363D01*
Y473455D01*
X28255D01*
Y474210D01*
X33317D01*
Y473455D01*
D02*
G37*
G36*
X48246Y474314D02*
X48468Y474287D01*
X48662Y474252D01*
X48753Y474231D01*
X48836Y474210D01*
X48912Y474189D01*
X48981Y474169D01*
X49044Y474148D01*
X49092Y474134D01*
X49127Y474120D01*
X49162Y474106D01*
X49176Y474099D01*
X49183D01*
X49370Y474009D01*
X49529Y473905D01*
X49668Y473801D01*
X49779Y473697D01*
X49869Y473600D01*
X49938Y473524D01*
X49959Y473496D01*
X49973Y473475D01*
X49987Y473461D01*
Y473455D01*
X50077Y473295D01*
X50146Y473135D01*
X50188Y472990D01*
X50223Y472851D01*
X50243Y472726D01*
X50250Y472678D01*
Y472636D01*
X50257Y472602D01*
Y472574D01*
Y472560D01*
Y472553D01*
X50250Y472393D01*
X50223Y472241D01*
X50188Y472102D01*
X50146Y471984D01*
X50105Y471887D01*
X50070Y471811D01*
X50056Y471783D01*
X50042Y471763D01*
X50035Y471756D01*
Y471749D01*
X49945Y471624D01*
X49834Y471506D01*
X49723Y471409D01*
X49605Y471319D01*
X49508Y471249D01*
X49425Y471201D01*
X49391Y471187D01*
X49370Y471173D01*
X49356Y471159D01*
X49349D01*
X49280Y471125D01*
X49196Y471090D01*
X49106Y471055D01*
X49009Y471021D01*
X48808Y470951D01*
X48600Y470889D01*
X48503Y470861D01*
X48420Y470833D01*
X48337Y470812D01*
X48260Y470792D01*
X48205Y470778D01*
X48156Y470764D01*
X48128Y470757D01*
X48122D01*
X47962Y470722D01*
X47817Y470681D01*
X47692Y470653D01*
X47574Y470618D01*
X47470Y470591D01*
X47373Y470570D01*
X47296Y470542D01*
X47220Y470521D01*
X47165Y470507D01*
X47109Y470487D01*
X47068Y470473D01*
X47040Y470466D01*
X47012Y470459D01*
X46998Y470452D01*
X46984Y470445D01*
X46846Y470383D01*
X46728Y470320D01*
X46624Y470258D01*
X46547Y470202D01*
X46485Y470147D01*
X46444Y470105D01*
X46416Y470078D01*
X46409Y470071D01*
X46346Y469987D01*
X46305Y469897D01*
X46270Y469807D01*
X46249Y469724D01*
X46235Y469655D01*
X46228Y469592D01*
Y469557D01*
Y469551D01*
Y469544D01*
X46235Y469440D01*
X46256Y469336D01*
X46291Y469245D01*
X46319Y469162D01*
X46353Y469093D01*
X46388Y469037D01*
X46409Y469010D01*
X46416Y468996D01*
X46492Y468906D01*
X46575Y468829D01*
X46672Y468760D01*
X46762Y468704D01*
X46846Y468663D01*
X46908Y468628D01*
X46936Y468614D01*
X46957Y468607D01*
X46964Y468601D01*
X46971D01*
X47109Y468552D01*
X47255Y468517D01*
X47400Y468497D01*
X47532Y468483D01*
X47643Y468469D01*
X47692D01*
X47733Y468462D01*
X47817D01*
X48018Y468469D01*
X48198Y468490D01*
X48371Y468524D01*
X48517Y468559D01*
X48579Y468573D01*
X48635Y468587D01*
X48683Y468607D01*
X48725Y468621D01*
X48759Y468635D01*
X48780Y468642D01*
X48794Y468649D01*
X48801D01*
X48954Y468725D01*
X49085Y468809D01*
X49196Y468885D01*
X49286Y468968D01*
X49356Y469037D01*
X49404Y469093D01*
X49439Y469128D01*
X49446Y469141D01*
X49515Y469266D01*
X49571Y469398D01*
X49612Y469530D01*
X49647Y469655D01*
X49675Y469772D01*
X49682Y469814D01*
X49689Y469856D01*
X49696Y469890D01*
X49703Y469918D01*
Y469932D01*
Y469939D01*
X50500Y469869D01*
X50493Y469752D01*
X50479Y469634D01*
X50438Y469419D01*
X50382Y469218D01*
X50354Y469128D01*
X50320Y469051D01*
X50292Y468975D01*
X50257Y468906D01*
X50230Y468850D01*
X50202Y468802D01*
X50181Y468760D01*
X50167Y468732D01*
X50160Y468718D01*
X50153Y468712D01*
X50022Y468531D01*
X49869Y468379D01*
X49716Y468247D01*
X49571Y468143D01*
X49439Y468060D01*
X49384Y468032D01*
X49335Y468004D01*
X49293Y467983D01*
X49266Y467970D01*
X49245Y467956D01*
X49238D01*
X49002Y467872D01*
X48759Y467810D01*
X48517Y467768D01*
X48288Y467741D01*
X48177Y467727D01*
X48080Y467720D01*
X47997Y467713D01*
X47920D01*
X47858Y467706D01*
X47775D01*
X47525Y467720D01*
X47296Y467748D01*
X47088Y467782D01*
X46991Y467810D01*
X46908Y467831D01*
X46825Y467852D01*
X46755Y467879D01*
X46693Y467900D01*
X46645Y467914D01*
X46603Y467935D01*
X46575Y467942D01*
X46554Y467956D01*
X46547D01*
X46353Y468060D01*
X46187Y468171D01*
X46041Y468288D01*
X45923Y468399D01*
X45826Y468503D01*
X45764Y468580D01*
X45736Y468614D01*
X45722Y468635D01*
X45708Y468649D01*
Y468656D01*
X45653Y468739D01*
X45611Y468829D01*
X45535Y468996D01*
X45480Y469155D01*
X45445Y469301D01*
X45424Y469433D01*
X45417Y469481D01*
Y469530D01*
X45410Y469564D01*
Y469592D01*
Y469606D01*
Y469613D01*
X45424Y469800D01*
X45452Y469973D01*
X45493Y470126D01*
X45542Y470258D01*
X45598Y470369D01*
X45618Y470417D01*
X45639Y470452D01*
X45653Y470480D01*
X45667Y470500D01*
X45681Y470514D01*
Y470521D01*
X45736Y470591D01*
X45792Y470660D01*
X45923Y470792D01*
X46055Y470903D01*
X46194Y470993D01*
X46312Y471069D01*
X46367Y471104D01*
X46416Y471125D01*
X46450Y471145D01*
X46478Y471159D01*
X46499Y471173D01*
X46506D01*
X46582Y471208D01*
X46679Y471242D01*
X46776Y471277D01*
X46887Y471312D01*
X47123Y471374D01*
X47359Y471437D01*
X47470Y471471D01*
X47574Y471492D01*
X47671Y471520D01*
X47754Y471534D01*
X47823Y471554D01*
X47872Y471568D01*
X47907Y471575D01*
X47920D01*
X48108Y471617D01*
X48274Y471665D01*
X48420Y471707D01*
X48558Y471749D01*
X48676Y471790D01*
X48780Y471825D01*
X48871Y471860D01*
X48947Y471894D01*
X49009Y471929D01*
X49065Y471957D01*
X49106Y471978D01*
X49141Y471998D01*
X49169Y472019D01*
X49183Y472033D01*
X49196Y472040D01*
X49280Y472130D01*
X49335Y472220D01*
X49377Y472317D01*
X49411Y472407D01*
X49425Y472484D01*
X49432Y472546D01*
X49439Y472588D01*
Y472595D01*
Y472602D01*
X49432Y472678D01*
X49425Y472747D01*
X49384Y472872D01*
X49328Y472990D01*
X49266Y473087D01*
X49203Y473170D01*
X49148Y473233D01*
X49106Y473267D01*
X49099Y473281D01*
X49092D01*
X49023Y473330D01*
X48940Y473378D01*
X48766Y473447D01*
X48586Y473496D01*
X48399Y473531D01*
X48316Y473545D01*
X48232Y473551D01*
X48163Y473559D01*
X48101D01*
X48045Y473565D01*
X47844D01*
X47719Y473551D01*
X47601Y473538D01*
X47491Y473517D01*
X47393Y473496D01*
X47303Y473468D01*
X47220Y473441D01*
X47144Y473413D01*
X47081Y473378D01*
X47026Y473350D01*
X46977Y473323D01*
X46936Y473302D01*
X46908Y473281D01*
X46880Y473267D01*
X46873Y473260D01*
X46866Y473253D01*
X46797Y473191D01*
X46735Y473129D01*
X46638Y472983D01*
X46554Y472830D01*
X46499Y472685D01*
X46457Y472553D01*
X46444Y472497D01*
X46430Y472442D01*
X46423Y472401D01*
Y472373D01*
X46416Y472352D01*
Y472345D01*
X45605Y472407D01*
X45625Y472615D01*
X45667Y472803D01*
X45715Y472976D01*
X45771Y473122D01*
X45806Y473184D01*
X45826Y473246D01*
X45854Y473295D01*
X45875Y473337D01*
X45896Y473371D01*
X45910Y473392D01*
X45917Y473406D01*
X45923Y473413D01*
X46041Y473572D01*
X46173Y473704D01*
X46312Y473822D01*
X46450Y473919D01*
X46568Y473988D01*
X46624Y474016D01*
X46665Y474044D01*
X46700Y474065D01*
X46735Y474072D01*
X46749Y474086D01*
X46755D01*
X46964Y474162D01*
X47179Y474224D01*
X47393Y474266D01*
X47588Y474294D01*
X47678Y474300D01*
X47754Y474307D01*
X47830Y474314D01*
X47893Y474321D01*
X48011D01*
X48246Y474314D01*
D02*
G37*
G36*
X114493Y415314D02*
X114646Y415308D01*
X114930Y415259D01*
X115069Y415231D01*
X115193Y415196D01*
X115318Y415162D01*
X115429Y415127D01*
X115526Y415093D01*
X115616Y415058D01*
X115700Y415023D01*
X115762Y414995D01*
X115817Y414968D01*
X115852Y414947D01*
X115880Y414940D01*
X115887Y414933D01*
X116012Y414857D01*
X116137Y414773D01*
X116247Y414683D01*
X116351Y414593D01*
X116448Y414496D01*
X116539Y414406D01*
X116615Y414309D01*
X116691Y414226D01*
X116754Y414136D01*
X116809Y414059D01*
X116858Y413990D01*
X116899Y413928D01*
X116927Y413872D01*
X116948Y413837D01*
X116962Y413810D01*
X116969Y413803D01*
X117038Y413664D01*
X117093Y413512D01*
X117142Y413366D01*
X117191Y413220D01*
X117260Y412922D01*
X117281Y412783D01*
X117301Y412652D01*
X117315Y412527D01*
X117329Y412416D01*
X117336Y412312D01*
X117343Y412222D01*
X117350Y412152D01*
Y412097D01*
Y412069D01*
Y412055D01*
X117343Y411889D01*
X117336Y411722D01*
X117295Y411404D01*
X117274Y411251D01*
X117246Y411112D01*
X117211Y410980D01*
X117184Y410856D01*
X117149Y410745D01*
X117121Y410641D01*
X117093Y410558D01*
X117066Y410481D01*
X117045Y410426D01*
X117031Y410377D01*
X117024Y410350D01*
X117017Y410343D01*
X116948Y410197D01*
X116878Y410058D01*
X116802Y409934D01*
X116719Y409816D01*
X116636Y409705D01*
X116559Y409608D01*
X116476Y409517D01*
X116400Y409434D01*
X116324Y409358D01*
X116254Y409296D01*
X116192Y409247D01*
X116137Y409198D01*
X116095Y409164D01*
X116060Y409143D01*
X116039Y409129D01*
X116032Y409122D01*
X115908Y409046D01*
X115776Y408983D01*
X115637Y408928D01*
X115492Y408880D01*
X115353Y408845D01*
X115214Y408810D01*
X115076Y408782D01*
X114944Y408762D01*
X114819Y408741D01*
X114708Y408727D01*
X114604Y408720D01*
X114521Y408713D01*
X114445Y408706D01*
X114347D01*
X114160Y408713D01*
X113987Y408727D01*
X113820Y408755D01*
X113661Y408789D01*
X113508Y408831D01*
X113370Y408880D01*
X113245Y408928D01*
X113127Y408977D01*
X113016Y409025D01*
X112926Y409074D01*
X112843Y409122D01*
X112780Y409164D01*
X112725Y409198D01*
X112690Y409226D01*
X112662Y409240D01*
X112655Y409247D01*
X112531Y409358D01*
X112413Y409476D01*
X112309Y409601D01*
X112212Y409725D01*
X112122Y409857D01*
X112045Y409996D01*
X111976Y410121D01*
X111913Y410252D01*
X111858Y410370D01*
X111817Y410481D01*
X111775Y410585D01*
X111747Y410668D01*
X111719Y410745D01*
X111706Y410793D01*
X111692Y410828D01*
Y410842D01*
X112538Y411057D01*
X112572Y410911D01*
X112621Y410773D01*
X112669Y410641D01*
X112718Y410523D01*
X112773Y410412D01*
X112829Y410315D01*
X112884Y410225D01*
X112940Y410141D01*
X112995Y410072D01*
X113044Y410010D01*
X113092Y409954D01*
X113127Y409913D01*
X113162Y409878D01*
X113189Y409857D01*
X113203Y409843D01*
X113210Y409836D01*
X113307Y409767D01*
X113404Y409705D01*
X113502Y409649D01*
X113605Y409601D01*
X113709Y409559D01*
X113807Y409524D01*
X114001Y409476D01*
X114084Y409462D01*
X114167Y409448D01*
X114236Y409441D01*
X114299Y409434D01*
X114347Y409427D01*
X114417D01*
X114528Y409434D01*
X114632Y409441D01*
X114833Y409476D01*
X115020Y409524D01*
X115180Y409580D01*
X115249Y409608D01*
X115311Y409628D01*
X115367Y409656D01*
X115415Y409677D01*
X115457Y409698D01*
X115485Y409712D01*
X115499Y409725D01*
X115506D01*
X115596Y409788D01*
X115679Y409850D01*
X115831Y409996D01*
X115956Y410141D01*
X116060Y410294D01*
X116137Y410426D01*
X116171Y410481D01*
X116199Y410537D01*
X116213Y410578D01*
X116227Y410606D01*
X116241Y410627D01*
Y410634D01*
X116317Y410870D01*
X116379Y411112D01*
X116421Y411355D01*
X116435Y411466D01*
X116448Y411577D01*
X116455Y411681D01*
X116462Y411771D01*
X116469Y411854D01*
Y411924D01*
X116476Y411986D01*
Y412028D01*
Y412055D01*
Y412062D01*
X116469Y412298D01*
X116448Y412520D01*
X116414Y412728D01*
X116400Y412825D01*
X116379Y412915D01*
X116358Y412991D01*
X116344Y413068D01*
X116324Y413130D01*
X116310Y413186D01*
X116303Y413227D01*
X116289Y413262D01*
X116282Y413283D01*
Y413290D01*
X116192Y413505D01*
X116088Y413692D01*
X115977Y413851D01*
X115915Y413921D01*
X115859Y413990D01*
X115804Y414045D01*
X115755Y414094D01*
X115707Y414142D01*
X115672Y414177D01*
X115637Y414205D01*
X115610Y414226D01*
X115596Y414233D01*
X115589Y414240D01*
X115492Y414302D01*
X115394Y414357D01*
X115290Y414406D01*
X115187Y414448D01*
X114979Y414510D01*
X114777Y414559D01*
X114694Y414572D01*
X114611Y414579D01*
X114535Y414586D01*
X114472Y414593D01*
X114417Y414600D01*
X114230D01*
X114119Y414586D01*
X113911Y414552D01*
X113730Y414496D01*
X113654Y414468D01*
X113578Y414441D01*
X113508Y414413D01*
X113453Y414385D01*
X113404Y414357D01*
X113363Y414330D01*
X113328Y414309D01*
X113307Y414295D01*
X113293Y414288D01*
X113287Y414281D01*
X113210Y414219D01*
X113134Y414150D01*
X113009Y413990D01*
X112891Y413817D01*
X112801Y413650D01*
X112732Y413498D01*
X112697Y413435D01*
X112676Y413380D01*
X112655Y413331D01*
X112649Y413290D01*
X112635Y413269D01*
Y413262D01*
X111803Y413456D01*
X111858Y413615D01*
X111920Y413768D01*
X111983Y413914D01*
X112059Y414045D01*
X112128Y414170D01*
X112205Y414281D01*
X112281Y414385D01*
X112357Y414475D01*
X112434Y414559D01*
X112496Y414628D01*
X112558Y414690D01*
X112614Y414739D01*
X112655Y414781D01*
X112690Y414808D01*
X112711Y414822D01*
X112718Y414829D01*
X112843Y414919D01*
X112975Y414989D01*
X113106Y415058D01*
X113245Y415113D01*
X113384Y415162D01*
X113515Y415204D01*
X113647Y415231D01*
X113772Y415259D01*
X113890Y415280D01*
X113994Y415294D01*
X114091Y415308D01*
X114174Y415314D01*
X114243Y415321D01*
X114334D01*
X114493Y415314D01*
D02*
G37*
G36*
X110686Y408810D02*
X106685D01*
Y409566D01*
X109840D01*
Y415210D01*
X110686D01*
Y408810D01*
D02*
G37*
G36*
X121094Y415314D02*
X121316Y415287D01*
X121510Y415252D01*
X121601Y415231D01*
X121684Y415210D01*
X121760Y415190D01*
X121829Y415169D01*
X121892Y415148D01*
X121940Y415134D01*
X121975Y415120D01*
X122010Y415106D01*
X122024Y415099D01*
X122030D01*
X122218Y415009D01*
X122377Y414905D01*
X122516Y414801D01*
X122627Y414697D01*
X122717Y414600D01*
X122786Y414524D01*
X122807Y414496D01*
X122821Y414475D01*
X122835Y414462D01*
Y414455D01*
X122925Y414295D01*
X122994Y414136D01*
X123036Y413990D01*
X123071Y413851D01*
X123091Y413727D01*
X123098Y413678D01*
Y413636D01*
X123105Y413602D01*
Y413574D01*
Y413560D01*
Y413553D01*
X123098Y413394D01*
X123071Y413241D01*
X123036Y413102D01*
X122994Y412985D01*
X122953Y412887D01*
X122918Y412811D01*
X122904Y412783D01*
X122890Y412763D01*
X122883Y412756D01*
Y412749D01*
X122793Y412624D01*
X122682Y412506D01*
X122571Y412409D01*
X122453Y412319D01*
X122356Y412249D01*
X122273Y412201D01*
X122239Y412187D01*
X122218Y412173D01*
X122204Y412159D01*
X122197D01*
X122128Y412125D01*
X122044Y412090D01*
X121954Y412055D01*
X121857Y412021D01*
X121656Y411951D01*
X121448Y411889D01*
X121351Y411861D01*
X121268Y411833D01*
X121185Y411813D01*
X121108Y411792D01*
X121053Y411778D01*
X121004Y411764D01*
X120976Y411757D01*
X120970D01*
X120810Y411722D01*
X120665Y411681D01*
X120540Y411653D01*
X120422Y411618D01*
X120318Y411591D01*
X120221Y411570D01*
X120144Y411542D01*
X120068Y411521D01*
X120013Y411507D01*
X119957Y411487D01*
X119916Y411473D01*
X119888Y411466D01*
X119860Y411459D01*
X119846Y411452D01*
X119832Y411445D01*
X119694Y411383D01*
X119576Y411320D01*
X119472Y411258D01*
X119396Y411202D01*
X119333Y411147D01*
X119291Y411105D01*
X119264Y411078D01*
X119257Y411071D01*
X119194Y410988D01*
X119153Y410897D01*
X119118Y410807D01*
X119097Y410724D01*
X119083Y410655D01*
X119077Y410592D01*
Y410558D01*
Y410551D01*
Y410544D01*
X119083Y410440D01*
X119104Y410336D01*
X119139Y410246D01*
X119167Y410162D01*
X119201Y410093D01*
X119236Y410037D01*
X119257Y410010D01*
X119264Y409996D01*
X119340Y409906D01*
X119423Y409829D01*
X119520Y409760D01*
X119611Y409705D01*
X119694Y409663D01*
X119756Y409628D01*
X119784Y409614D01*
X119805Y409608D01*
X119812Y409601D01*
X119818D01*
X119957Y409552D01*
X120103Y409517D01*
X120248Y409497D01*
X120380Y409483D01*
X120491Y409469D01*
X120540D01*
X120581Y409462D01*
X120665D01*
X120866Y409469D01*
X121046Y409490D01*
X121219Y409524D01*
X121365Y409559D01*
X121427Y409573D01*
X121483Y409587D01*
X121531Y409608D01*
X121573Y409621D01*
X121608Y409635D01*
X121628Y409642D01*
X121642Y409649D01*
X121649D01*
X121802Y409725D01*
X121933Y409809D01*
X122044Y409885D01*
X122135Y409968D01*
X122204Y410037D01*
X122252Y410093D01*
X122287Y410128D01*
X122294Y410141D01*
X122363Y410266D01*
X122419Y410398D01*
X122460Y410530D01*
X122495Y410655D01*
X122523Y410773D01*
X122530Y410814D01*
X122537Y410856D01*
X122544Y410890D01*
X122551Y410918D01*
Y410932D01*
Y410939D01*
X123348Y410870D01*
X123341Y410752D01*
X123327Y410634D01*
X123286Y410419D01*
X123230Y410218D01*
X123202Y410128D01*
X123168Y410051D01*
X123140Y409975D01*
X123105Y409906D01*
X123078Y409850D01*
X123050Y409802D01*
X123029Y409760D01*
X123015Y409732D01*
X123008Y409719D01*
X123001Y409712D01*
X122870Y409531D01*
X122717Y409379D01*
X122564Y409247D01*
X122419Y409143D01*
X122287Y409060D01*
X122232Y409032D01*
X122183Y409004D01*
X122142Y408983D01*
X122114Y408970D01*
X122093Y408956D01*
X122086D01*
X121850Y408872D01*
X121608Y408810D01*
X121365Y408769D01*
X121136Y408741D01*
X121025Y408727D01*
X120928Y408720D01*
X120845Y408713D01*
X120768D01*
X120706Y408706D01*
X120623D01*
X120373Y408720D01*
X120144Y408748D01*
X119936Y408782D01*
X119839Y408810D01*
X119756Y408831D01*
X119673Y408852D01*
X119604Y408880D01*
X119541Y408900D01*
X119493Y408914D01*
X119451Y408935D01*
X119423Y408942D01*
X119403Y408956D01*
X119396D01*
X119201Y409060D01*
X119035Y409171D01*
X118889Y409289D01*
X118771Y409399D01*
X118674Y409504D01*
X118612Y409580D01*
X118584Y409614D01*
X118570Y409635D01*
X118556Y409649D01*
Y409656D01*
X118501Y409739D01*
X118459Y409829D01*
X118383Y409996D01*
X118328Y410155D01*
X118293Y410301D01*
X118272Y410433D01*
X118265Y410481D01*
Y410530D01*
X118258Y410564D01*
Y410592D01*
Y410606D01*
Y410613D01*
X118272Y410800D01*
X118300Y410974D01*
X118342Y411126D01*
X118390Y411258D01*
X118446Y411369D01*
X118466Y411417D01*
X118487Y411452D01*
X118501Y411480D01*
X118515Y411501D01*
X118529Y411515D01*
Y411521D01*
X118584Y411591D01*
X118640Y411660D01*
X118771Y411792D01*
X118903Y411903D01*
X119042Y411993D01*
X119160Y412069D01*
X119215Y412104D01*
X119264Y412125D01*
X119298Y412146D01*
X119326Y412159D01*
X119347Y412173D01*
X119354D01*
X119430Y412208D01*
X119527Y412243D01*
X119624Y412277D01*
X119735Y412312D01*
X119971Y412374D01*
X120207Y412437D01*
X120318Y412471D01*
X120422Y412492D01*
X120519Y412520D01*
X120602Y412534D01*
X120671Y412555D01*
X120720Y412569D01*
X120755Y412575D01*
X120768D01*
X120956Y412617D01*
X121122Y412665D01*
X121268Y412707D01*
X121406Y412749D01*
X121524Y412790D01*
X121628Y412825D01*
X121719Y412860D01*
X121795Y412894D01*
X121857Y412929D01*
X121913Y412957D01*
X121954Y412978D01*
X121989Y412998D01*
X122017Y413019D01*
X122030Y413033D01*
X122044Y413040D01*
X122128Y413130D01*
X122183Y413220D01*
X122225Y413317D01*
X122259Y413408D01*
X122273Y413484D01*
X122280Y413546D01*
X122287Y413588D01*
Y413595D01*
Y413602D01*
X122280Y413678D01*
X122273Y413747D01*
X122232Y413872D01*
X122176Y413990D01*
X122114Y414087D01*
X122051Y414170D01*
X121996Y414233D01*
X121954Y414267D01*
X121947Y414281D01*
X121940D01*
X121871Y414330D01*
X121788Y414378D01*
X121615Y414448D01*
X121434Y414496D01*
X121247Y414531D01*
X121164Y414545D01*
X121081Y414552D01*
X121011Y414559D01*
X120949D01*
X120893Y414566D01*
X120692D01*
X120567Y414552D01*
X120449Y414538D01*
X120339Y414517D01*
X120241Y414496D01*
X120151Y414468D01*
X120068Y414441D01*
X119992Y414413D01*
X119930Y414378D01*
X119874Y414351D01*
X119825Y414323D01*
X119784Y414302D01*
X119756Y414281D01*
X119728Y414267D01*
X119721Y414260D01*
X119714Y414254D01*
X119645Y414191D01*
X119583Y414129D01*
X119486Y413983D01*
X119403Y413830D01*
X119347Y413685D01*
X119305Y413553D01*
X119291Y413498D01*
X119278Y413442D01*
X119271Y413401D01*
Y413373D01*
X119264Y413352D01*
Y413345D01*
X118453Y413408D01*
X118473Y413615D01*
X118515Y413803D01*
X118563Y413976D01*
X118619Y414122D01*
X118654Y414184D01*
X118674Y414246D01*
X118702Y414295D01*
X118723Y414337D01*
X118744Y414371D01*
X118758Y414392D01*
X118764Y414406D01*
X118771Y414413D01*
X118889Y414572D01*
X119021Y414704D01*
X119160Y414822D01*
X119298Y414919D01*
X119416Y414989D01*
X119472Y415016D01*
X119513Y415044D01*
X119548Y415065D01*
X119583Y415072D01*
X119597Y415086D01*
X119604D01*
X119812Y415162D01*
X120027Y415224D01*
X120241Y415266D01*
X120436Y415294D01*
X120526Y415300D01*
X120602Y415308D01*
X120678Y415314D01*
X120741Y415321D01*
X120859D01*
X121094Y415314D01*
D02*
G37*
%LPC*%
G36*
X110677Y494454D02*
X109200D01*
X109076Y494447D01*
X108958Y494440D01*
X108847Y494434D01*
X108750Y494427D01*
X108659Y494413D01*
X108576Y494399D01*
X108507Y494392D01*
X108444Y494378D01*
X108389Y494364D01*
X108348Y494350D01*
X108306Y494343D01*
X108278Y494337D01*
X108257Y494329D01*
X108250Y494323D01*
X108243D01*
X108153Y494281D01*
X108070Y494239D01*
X107917Y494128D01*
X107779Y494011D01*
X107661Y493886D01*
X107571Y493775D01*
X107529Y493726D01*
X107501Y493685D01*
X107474Y493643D01*
X107453Y493615D01*
X107446Y493601D01*
X107439Y493595D01*
X107384Y493490D01*
X107328Y493373D01*
X107245Y493130D01*
X107189Y492873D01*
X107148Y492624D01*
X107134Y492506D01*
X107120Y492402D01*
X107113Y492305D01*
Y492221D01*
X107106Y492152D01*
Y492097D01*
Y492069D01*
Y492055D01*
X107113Y491792D01*
X107134Y491556D01*
X107148Y491445D01*
X107162Y491348D01*
X107176Y491251D01*
X107189Y491167D01*
X107210Y491091D01*
X107224Y491022D01*
X107238Y490960D01*
X107252Y490911D01*
X107266Y490869D01*
X107273Y490842D01*
X107280Y490828D01*
Y490821D01*
X107349Y490640D01*
X107425Y490481D01*
X107501Y490342D01*
X107571Y490224D01*
X107640Y490134D01*
X107696Y490065D01*
X107730Y490023D01*
X107737Y490017D01*
X107744Y490009D01*
X107827Y489933D01*
X107924Y489864D01*
X108022Y489808D01*
X108112Y489760D01*
X108195Y489725D01*
X108257Y489697D01*
X108285Y489691D01*
X108306Y489684D01*
X108313Y489677D01*
X108320D01*
X108465Y489642D01*
X108625Y489614D01*
X108791Y489594D01*
X108951Y489580D01*
X109089Y489573D01*
X109152D01*
X109207Y489566D01*
X110677D01*
Y494454D01*
D02*
G37*
G36*
X122390Y454981D02*
X122231D01*
X122113Y454968D01*
X121898Y454933D01*
X121704Y454878D01*
X121620Y454850D01*
X121537Y454822D01*
X121461Y454787D01*
X121398Y454760D01*
X121343Y454732D01*
X121294Y454704D01*
X121253Y454683D01*
X121225Y454669D01*
X121211Y454663D01*
X121204Y454656D01*
X121024Y454524D01*
X120871Y454378D01*
X120740Y454233D01*
X120629Y454087D01*
X120546Y453955D01*
X120511Y453900D01*
X120483Y453851D01*
X120462Y453810D01*
X120449Y453782D01*
X120435Y453761D01*
Y453754D01*
X120344Y453532D01*
X120275Y453303D01*
X120227Y453075D01*
X120199Y452860D01*
X120185Y452770D01*
X120178Y452679D01*
X120171Y452603D01*
Y452534D01*
X120164Y452478D01*
Y452437D01*
Y452409D01*
Y452402D01*
X120171Y452152D01*
X120199Y451923D01*
X120234Y451708D01*
X120282Y451507D01*
X120338Y451320D01*
X120400Y451154D01*
X120469Y451001D01*
X120539Y450869D01*
X120608Y450745D01*
X120677Y450641D01*
X120740Y450558D01*
X120795Y450481D01*
X120844Y450426D01*
X120878Y450391D01*
X120906Y450363D01*
X120913Y450356D01*
X121100Y450495D01*
X121301Y450620D01*
X121510Y450724D01*
X121697Y450814D01*
X121787Y450849D01*
X121870Y450876D01*
X121939Y450904D01*
X122002Y450925D01*
X122057Y450946D01*
X122092Y450960D01*
X122120Y450967D01*
X122127D01*
X122328Y450349D01*
X122168Y450301D01*
X122009Y450245D01*
X121870Y450183D01*
X121745Y450127D01*
X121641Y450072D01*
X121593Y450044D01*
X121558Y450023D01*
X121530Y450010D01*
X121510Y449996D01*
X121496Y449982D01*
X121489D01*
X121641Y449926D01*
X121794Y449885D01*
X121939Y449857D01*
X122071Y449836D01*
X122182Y449822D01*
X122231D01*
X122272Y449815D01*
X122348D01*
X122522Y449822D01*
X122688Y449843D01*
X122848Y449878D01*
X123000Y449920D01*
X123139Y449968D01*
X123264Y450023D01*
X123389Y450086D01*
X123493Y450148D01*
X123590Y450211D01*
X123680Y450273D01*
X123749Y450329D01*
X123812Y450377D01*
X123860Y450419D01*
X123895Y450453D01*
X123916Y450474D01*
X123923Y450481D01*
X124033Y450613D01*
X124124Y450752D01*
X124207Y450904D01*
X124276Y451064D01*
X124339Y451223D01*
X124387Y451383D01*
X124429Y451535D01*
X124463Y451688D01*
X124491Y451833D01*
X124505Y451965D01*
X124519Y452083D01*
X124533Y452187D01*
Y452277D01*
X124540Y452340D01*
Y452381D01*
Y452395D01*
X124533Y452631D01*
X124512Y452846D01*
X124484Y453054D01*
X124443Y453241D01*
X124394Y453414D01*
X124339Y453574D01*
X124283Y453719D01*
X124228Y453844D01*
X124172Y453962D01*
X124110Y454059D01*
X124061Y454142D01*
X124013Y454212D01*
X123971Y454260D01*
X123943Y454302D01*
X123923Y454323D01*
X123916Y454330D01*
X123798Y454448D01*
X123666Y454545D01*
X123541Y454635D01*
X123409Y454704D01*
X123278Y454767D01*
X123146Y454822D01*
X123021Y454864D01*
X122896Y454898D01*
X122785Y454926D01*
X122681Y454947D01*
X122584Y454961D01*
X122508Y454975D01*
X122439D01*
X122390Y454981D01*
D02*
G37*
G36*
X115387D02*
X115227D01*
X115109Y454968D01*
X114894Y454933D01*
X114700Y454878D01*
X114617Y454850D01*
X114534Y454822D01*
X114457Y454787D01*
X114395Y454760D01*
X114340Y454732D01*
X114291Y454704D01*
X114249Y454683D01*
X114222Y454669D01*
X114208Y454663D01*
X114201Y454656D01*
X114021Y454524D01*
X113868Y454378D01*
X113736Y454233D01*
X113625Y454087D01*
X113542Y453955D01*
X113507Y453900D01*
X113480Y453851D01*
X113459Y453810D01*
X113445Y453782D01*
X113431Y453761D01*
Y453754D01*
X113341Y453525D01*
X113272Y453297D01*
X113223Y453068D01*
X113195Y452853D01*
X113181Y452756D01*
X113175Y452665D01*
X113168Y452589D01*
Y452520D01*
X113161Y452464D01*
Y452423D01*
Y452395D01*
Y452388D01*
X113168Y452166D01*
X113188Y451951D01*
X113216Y451757D01*
X113258Y451570D01*
X113306Y451396D01*
X113355Y451244D01*
X113417Y451098D01*
X113473Y450974D01*
X113528Y450856D01*
X113584Y450759D01*
X113639Y450675D01*
X113688Y450606D01*
X113729Y450550D01*
X113757Y450516D01*
X113778Y450488D01*
X113785Y450481D01*
X113903Y450363D01*
X114028Y450259D01*
X114159Y450176D01*
X114291Y450100D01*
X114423Y450031D01*
X114555Y449975D01*
X114679Y449933D01*
X114804Y449899D01*
X114915Y449871D01*
X115026Y449850D01*
X115116Y449836D01*
X115199Y449829D01*
X115269Y449822D01*
X115317Y449815D01*
X115359D01*
X115532Y449822D01*
X115692Y449843D01*
X115851Y449878D01*
X115997Y449920D01*
X116136Y449968D01*
X116260Y450023D01*
X116385Y450086D01*
X116489Y450148D01*
X116586Y450204D01*
X116669Y450266D01*
X116746Y450322D01*
X116808Y450370D01*
X116857Y450412D01*
X116891Y450447D01*
X116912Y450467D01*
X116919Y450474D01*
X117030Y450606D01*
X117120Y450745D01*
X117203Y450890D01*
X117273Y451043D01*
X117335Y451195D01*
X117384Y451341D01*
X117425Y451494D01*
X117460Y451639D01*
X117488Y451771D01*
X117501Y451896D01*
X117515Y452007D01*
X117529Y452104D01*
Y452187D01*
X117536Y452249D01*
Y452284D01*
Y452298D01*
X117529Y452561D01*
X117508Y452804D01*
X117474Y453026D01*
X117432Y453227D01*
X117384Y453414D01*
X117335Y453581D01*
X117273Y453733D01*
X117210Y453872D01*
X117155Y453983D01*
X117092Y454087D01*
X117044Y454170D01*
X116988Y454240D01*
X116954Y454288D01*
X116919Y454330D01*
X116898Y454351D01*
X116891Y454357D01*
X116767Y454468D01*
X116635Y454565D01*
X116503Y454649D01*
X116371Y454718D01*
X116246Y454780D01*
X116115Y454829D01*
X115990Y454870D01*
X115872Y454905D01*
X115761Y454926D01*
X115664Y454947D01*
X115574Y454961D01*
X115498Y454975D01*
X115428D01*
X115387Y454981D01*
D02*
G37*
G36*
X110677Y434455D02*
X109200D01*
X109076Y434448D01*
X108958Y434441D01*
X108847Y434434D01*
X108750Y434427D01*
X108659Y434413D01*
X108576Y434399D01*
X108507Y434392D01*
X108444Y434378D01*
X108389Y434364D01*
X108348Y434351D01*
X108306Y434344D01*
X108278Y434337D01*
X108257Y434330D01*
X108250Y434323D01*
X108243D01*
X108153Y434281D01*
X108070Y434240D01*
X107917Y434129D01*
X107779Y434011D01*
X107661Y433886D01*
X107571Y433775D01*
X107529Y433727D01*
X107501Y433685D01*
X107474Y433643D01*
X107453Y433615D01*
X107446Y433602D01*
X107439Y433595D01*
X107384Y433491D01*
X107328Y433373D01*
X107245Y433130D01*
X107189Y432874D01*
X107148Y432624D01*
X107134Y432506D01*
X107120Y432402D01*
X107113Y432305D01*
Y432222D01*
X107106Y432152D01*
Y432097D01*
Y432069D01*
Y432055D01*
X107113Y431792D01*
X107134Y431556D01*
X107148Y431445D01*
X107162Y431348D01*
X107176Y431251D01*
X107189Y431168D01*
X107210Y431091D01*
X107224Y431022D01*
X107238Y430960D01*
X107252Y430911D01*
X107266Y430870D01*
X107273Y430842D01*
X107280Y430828D01*
Y430821D01*
X107349Y430641D01*
X107425Y430481D01*
X107501Y430343D01*
X107571Y430225D01*
X107640Y430135D01*
X107696Y430065D01*
X107730Y430024D01*
X107737Y430017D01*
X107744Y430010D01*
X107827Y429934D01*
X107924Y429864D01*
X108022Y429809D01*
X108112Y429760D01*
X108195Y429725D01*
X108257Y429698D01*
X108285Y429691D01*
X108306Y429684D01*
X108313Y429677D01*
X108320D01*
X108465Y429642D01*
X108625Y429614D01*
X108791Y429594D01*
X108951Y429580D01*
X109089Y429573D01*
X109152D01*
X109207Y429566D01*
X110677D01*
Y434455D01*
D02*
G37*
G36*
Y514454D02*
X109200D01*
X109076Y514447D01*
X108958Y514440D01*
X108847Y514434D01*
X108750Y514427D01*
X108659Y514413D01*
X108576Y514399D01*
X108507Y514392D01*
X108444Y514378D01*
X108389Y514364D01*
X108348Y514350D01*
X108306Y514343D01*
X108278Y514337D01*
X108257Y514330D01*
X108250Y514323D01*
X108243D01*
X108153Y514281D01*
X108070Y514239D01*
X107917Y514128D01*
X107779Y514011D01*
X107661Y513886D01*
X107571Y513775D01*
X107529Y513726D01*
X107501Y513685D01*
X107474Y513643D01*
X107453Y513615D01*
X107446Y513601D01*
X107439Y513595D01*
X107384Y513490D01*
X107328Y513373D01*
X107245Y513130D01*
X107189Y512873D01*
X107148Y512624D01*
X107134Y512506D01*
X107120Y512402D01*
X107113Y512305D01*
Y512222D01*
X107106Y512152D01*
Y512097D01*
Y512069D01*
Y512055D01*
X107113Y511792D01*
X107134Y511556D01*
X107148Y511445D01*
X107162Y511348D01*
X107176Y511251D01*
X107189Y511168D01*
X107210Y511091D01*
X107224Y511022D01*
X107238Y510960D01*
X107252Y510911D01*
X107266Y510869D01*
X107273Y510842D01*
X107280Y510828D01*
Y510821D01*
X107349Y510641D01*
X107425Y510481D01*
X107501Y510342D01*
X107571Y510224D01*
X107640Y510134D01*
X107696Y510065D01*
X107730Y510023D01*
X107737Y510017D01*
X107744Y510009D01*
X107827Y509933D01*
X107924Y509864D01*
X108022Y509809D01*
X108112Y509760D01*
X108195Y509725D01*
X108257Y509697D01*
X108285Y509691D01*
X108306Y509684D01*
X108313Y509677D01*
X108320D01*
X108465Y509642D01*
X108625Y509614D01*
X108791Y509594D01*
X108951Y509580D01*
X109089Y509573D01*
X109152D01*
X109207Y509566D01*
X110677D01*
Y514454D01*
D02*
G37*
G36*
X36035Y393454D02*
X34558D01*
X34434Y393447D01*
X34316Y393441D01*
X34205Y393434D01*
X34108Y393427D01*
X34017Y393413D01*
X33934Y393399D01*
X33865Y393392D01*
X33802Y393378D01*
X33747Y393364D01*
X33705Y393350D01*
X33664Y393343D01*
X33636Y393336D01*
X33615Y393330D01*
X33608Y393323D01*
X33601D01*
X33511Y393281D01*
X33428Y393239D01*
X33275Y393129D01*
X33137Y393011D01*
X33019Y392886D01*
X32929Y392775D01*
X32887Y392726D01*
X32859Y392685D01*
X32832Y392643D01*
X32811Y392615D01*
X32804Y392602D01*
X32797Y392594D01*
X32741Y392491D01*
X32686Y392373D01*
X32603Y392130D01*
X32547Y391873D01*
X32506Y391624D01*
X32492Y391506D01*
X32478Y391402D01*
X32471Y391305D01*
Y391222D01*
X32464Y391152D01*
Y391097D01*
Y391069D01*
Y391055D01*
X32471Y390792D01*
X32492Y390556D01*
X32506Y390445D01*
X32520Y390348D01*
X32534Y390251D01*
X32547Y390168D01*
X32568Y390091D01*
X32582Y390022D01*
X32596Y389959D01*
X32610Y389911D01*
X32624Y389869D01*
X32631Y389842D01*
X32638Y389828D01*
Y389821D01*
X32707Y389641D01*
X32783Y389481D01*
X32859Y389342D01*
X32929Y389225D01*
X32998Y389134D01*
X33054Y389065D01*
X33088Y389023D01*
X33095Y389016D01*
X33102Y389010D01*
X33185Y388933D01*
X33282Y388864D01*
X33379Y388809D01*
X33470Y388760D01*
X33553Y388725D01*
X33615Y388698D01*
X33643Y388691D01*
X33664Y388684D01*
X33671Y388677D01*
X33678D01*
X33823Y388642D01*
X33983Y388614D01*
X34149Y388593D01*
X34309Y388580D01*
X34447Y388573D01*
X34510D01*
X34565Y388566D01*
X36035D01*
Y393454D01*
D02*
G37*
G36*
X43413Y413455D02*
X41936D01*
X41811Y413448D01*
X41694Y413441D01*
X41583Y413434D01*
X41486Y413427D01*
X41395Y413413D01*
X41312Y413399D01*
X41243Y413392D01*
X41180Y413378D01*
X41125Y413364D01*
X41083Y413351D01*
X41042Y413344D01*
X41014Y413337D01*
X40993Y413330D01*
X40986Y413323D01*
X40979D01*
X40889Y413281D01*
X40806Y413240D01*
X40653Y413129D01*
X40515Y413011D01*
X40397Y412886D01*
X40307Y412775D01*
X40265Y412727D01*
X40237Y412685D01*
X40210Y412643D01*
X40189Y412616D01*
X40182Y412602D01*
X40175Y412595D01*
X40120Y412491D01*
X40064Y412373D01*
X39981Y412130D01*
X39925Y411874D01*
X39884Y411624D01*
X39870Y411506D01*
X39856Y411402D01*
X39849Y411305D01*
Y411222D01*
X39842Y411152D01*
Y411097D01*
Y411069D01*
Y411055D01*
X39849Y410792D01*
X39870Y410556D01*
X39884Y410445D01*
X39898Y410348D01*
X39911Y410251D01*
X39925Y410168D01*
X39946Y410092D01*
X39960Y410022D01*
X39974Y409960D01*
X39988Y409911D01*
X40002Y409870D01*
X40009Y409842D01*
X40016Y409828D01*
Y409821D01*
X40085Y409641D01*
X40161Y409481D01*
X40237Y409343D01*
X40307Y409225D01*
X40376Y409135D01*
X40431Y409065D01*
X40466Y409024D01*
X40473Y409017D01*
X40480Y409010D01*
X40563Y408933D01*
X40660Y408864D01*
X40757Y408809D01*
X40848Y408760D01*
X40931Y408725D01*
X40993Y408698D01*
X41021Y408691D01*
X41042Y408684D01*
X41049Y408677D01*
X41056D01*
X41201Y408642D01*
X41361Y408615D01*
X41527Y408594D01*
X41687Y408580D01*
X41825Y408573D01*
X41888D01*
X41943Y408566D01*
X43413D01*
Y413455D01*
D02*
G37*
G36*
X35612Y413545D02*
X35550Y413337D01*
X35474Y413115D01*
X35397Y412893D01*
X35328Y412678D01*
X35293Y412581D01*
X35259Y412491D01*
X35231Y412407D01*
X35203Y412345D01*
X35182Y412283D01*
X35168Y412241D01*
X35155Y412213D01*
Y412206D01*
X34482Y410431D01*
X36666D01*
X35959Y412310D01*
X35883Y412539D01*
X35813Y412761D01*
X35751Y412969D01*
X35723Y413066D01*
X35702Y413156D01*
X35682Y413240D01*
X35661Y413316D01*
X35647Y413378D01*
X35633Y413441D01*
X35626Y413482D01*
X35619Y413517D01*
X35612Y413538D01*
Y413545D01*
D02*
G37*
G36*
X36035Y373454D02*
X34558D01*
X34434Y373447D01*
X34316Y373441D01*
X34205Y373434D01*
X34108Y373427D01*
X34017Y373413D01*
X33934Y373399D01*
X33865Y373392D01*
X33802Y373378D01*
X33747Y373364D01*
X33705Y373350D01*
X33664Y373343D01*
X33636Y373336D01*
X33615Y373330D01*
X33608Y373323D01*
X33601D01*
X33511Y373281D01*
X33428Y373239D01*
X33275Y373129D01*
X33137Y373011D01*
X33019Y372886D01*
X32929Y372775D01*
X32887Y372726D01*
X32859Y372685D01*
X32832Y372643D01*
X32811Y372615D01*
X32804Y372602D01*
X32797Y372594D01*
X32741Y372491D01*
X32686Y372373D01*
X32603Y372130D01*
X32547Y371873D01*
X32506Y371624D01*
X32492Y371506D01*
X32478Y371402D01*
X32471Y371305D01*
Y371222D01*
X32464Y371152D01*
Y371097D01*
Y371069D01*
Y371055D01*
X32471Y370792D01*
X32492Y370556D01*
X32506Y370445D01*
X32520Y370348D01*
X32534Y370251D01*
X32547Y370168D01*
X32568Y370091D01*
X32582Y370022D01*
X32596Y369959D01*
X32610Y369911D01*
X32624Y369869D01*
X32631Y369842D01*
X32638Y369828D01*
Y369821D01*
X32707Y369641D01*
X32783Y369481D01*
X32859Y369342D01*
X32929Y369225D01*
X32998Y369134D01*
X33054Y369065D01*
X33088Y369023D01*
X33095Y369016D01*
X33102Y369010D01*
X33185Y368933D01*
X33282Y368864D01*
X33379Y368809D01*
X33470Y368760D01*
X33553Y368725D01*
X33615Y368698D01*
X33643Y368691D01*
X33664Y368684D01*
X33671Y368677D01*
X33678D01*
X33823Y368642D01*
X33983Y368614D01*
X34149Y368593D01*
X34309Y368580D01*
X34447Y368573D01*
X34510D01*
X34565Y368566D01*
X36035D01*
Y373454D01*
D02*
G37*
G36*
Y513454D02*
X34558D01*
X34434Y513447D01*
X34316Y513441D01*
X34205Y513434D01*
X34108Y513427D01*
X34017Y513413D01*
X33934Y513399D01*
X33865Y513392D01*
X33802Y513378D01*
X33747Y513364D01*
X33705Y513350D01*
X33664Y513343D01*
X33636Y513336D01*
X33615Y513330D01*
X33608Y513323D01*
X33601D01*
X33511Y513281D01*
X33428Y513239D01*
X33275Y513129D01*
X33137Y513011D01*
X33019Y512886D01*
X32929Y512775D01*
X32887Y512726D01*
X32859Y512685D01*
X32832Y512643D01*
X32811Y512615D01*
X32804Y512602D01*
X32797Y512594D01*
X32741Y512491D01*
X32686Y512373D01*
X32603Y512130D01*
X32547Y511873D01*
X32506Y511624D01*
X32492Y511506D01*
X32478Y511402D01*
X32471Y511305D01*
Y511222D01*
X32464Y511152D01*
Y511097D01*
Y511069D01*
Y511055D01*
X32471Y510792D01*
X32492Y510556D01*
X32506Y510445D01*
X32520Y510348D01*
X32534Y510251D01*
X32547Y510168D01*
X32568Y510091D01*
X32582Y510022D01*
X32596Y509959D01*
X32610Y509911D01*
X32624Y509869D01*
X32631Y509842D01*
X32638Y509828D01*
Y509821D01*
X32707Y509641D01*
X32783Y509481D01*
X32859Y509342D01*
X32929Y509225D01*
X32998Y509134D01*
X33054Y509065D01*
X33088Y509023D01*
X33095Y509016D01*
X33102Y509010D01*
X33185Y508933D01*
X33282Y508864D01*
X33379Y508809D01*
X33470Y508760D01*
X33553Y508725D01*
X33615Y508698D01*
X33643Y508691D01*
X33664Y508684D01*
X33671Y508677D01*
X33678D01*
X33823Y508642D01*
X33983Y508614D01*
X34149Y508593D01*
X34309Y508580D01*
X34447Y508573D01*
X34510D01*
X34565Y508566D01*
X36035D01*
Y513454D01*
D02*
G37*
G36*
Y493454D02*
X34558D01*
X34434Y493447D01*
X34316Y493441D01*
X34205Y493434D01*
X34108Y493427D01*
X34017Y493413D01*
X33934Y493399D01*
X33865Y493392D01*
X33802Y493378D01*
X33747Y493364D01*
X33705Y493350D01*
X33664Y493343D01*
X33636Y493336D01*
X33615Y493330D01*
X33608Y493323D01*
X33601D01*
X33511Y493281D01*
X33428Y493239D01*
X33275Y493129D01*
X33137Y493011D01*
X33019Y492886D01*
X32929Y492775D01*
X32887Y492726D01*
X32859Y492685D01*
X32832Y492643D01*
X32811Y492615D01*
X32804Y492602D01*
X32797Y492594D01*
X32741Y492491D01*
X32686Y492373D01*
X32603Y492130D01*
X32547Y491873D01*
X32506Y491624D01*
X32492Y491506D01*
X32478Y491402D01*
X32471Y491305D01*
Y491222D01*
X32464Y491152D01*
Y491097D01*
Y491069D01*
Y491055D01*
X32471Y490792D01*
X32492Y490556D01*
X32506Y490445D01*
X32520Y490348D01*
X32534Y490251D01*
X32547Y490168D01*
X32568Y490091D01*
X32582Y490022D01*
X32596Y489959D01*
X32610Y489911D01*
X32624Y489869D01*
X32631Y489842D01*
X32638Y489828D01*
Y489821D01*
X32707Y489641D01*
X32783Y489481D01*
X32859Y489342D01*
X32929Y489225D01*
X32998Y489134D01*
X33054Y489065D01*
X33088Y489023D01*
X33095Y489016D01*
X33102Y489010D01*
X33185Y488933D01*
X33282Y488864D01*
X33379Y488808D01*
X33470Y488760D01*
X33553Y488725D01*
X33615Y488698D01*
X33643Y488691D01*
X33664Y488684D01*
X33671Y488677D01*
X33678D01*
X33823Y488642D01*
X33983Y488614D01*
X34149Y488593D01*
X34309Y488580D01*
X34447Y488573D01*
X34510D01*
X34565Y488566D01*
X36035D01*
Y493454D01*
D02*
G37*
G36*
Y433455D02*
X34558D01*
X34434Y433448D01*
X34316Y433441D01*
X34205Y433434D01*
X34108Y433427D01*
X34017Y433413D01*
X33934Y433399D01*
X33865Y433392D01*
X33802Y433378D01*
X33747Y433364D01*
X33705Y433351D01*
X33664Y433344D01*
X33636Y433337D01*
X33615Y433330D01*
X33608Y433323D01*
X33601D01*
X33511Y433281D01*
X33428Y433240D01*
X33275Y433129D01*
X33137Y433011D01*
X33019Y432886D01*
X32929Y432775D01*
X32887Y432727D01*
X32859Y432685D01*
X32832Y432643D01*
X32811Y432616D01*
X32804Y432602D01*
X32797Y432595D01*
X32741Y432491D01*
X32686Y432373D01*
X32603Y432130D01*
X32547Y431874D01*
X32506Y431624D01*
X32492Y431506D01*
X32478Y431402D01*
X32471Y431305D01*
Y431222D01*
X32464Y431152D01*
Y431097D01*
Y431069D01*
Y431055D01*
X32471Y430792D01*
X32492Y430556D01*
X32506Y430445D01*
X32520Y430348D01*
X32534Y430251D01*
X32547Y430168D01*
X32568Y430092D01*
X32582Y430022D01*
X32596Y429960D01*
X32610Y429911D01*
X32624Y429870D01*
X32631Y429842D01*
X32638Y429828D01*
Y429821D01*
X32707Y429641D01*
X32783Y429481D01*
X32859Y429343D01*
X32929Y429225D01*
X32998Y429135D01*
X33054Y429065D01*
X33088Y429024D01*
X33095Y429017D01*
X33102Y429010D01*
X33185Y428933D01*
X33282Y428864D01*
X33379Y428809D01*
X33470Y428760D01*
X33553Y428726D01*
X33615Y428698D01*
X33643Y428691D01*
X33664Y428684D01*
X33671Y428677D01*
X33678D01*
X33823Y428642D01*
X33983Y428615D01*
X34149Y428594D01*
X34309Y428580D01*
X34447Y428573D01*
X34510D01*
X34565Y428566D01*
X36035D01*
Y433455D01*
D02*
G37*
G36*
X36611Y473545D02*
X36548Y473337D01*
X36472Y473115D01*
X36396Y472893D01*
X36326Y472678D01*
X36292Y472581D01*
X36257Y472491D01*
X36229Y472407D01*
X36202Y472345D01*
X36181Y472283D01*
X36167Y472241D01*
X36153Y472213D01*
Y472206D01*
X35480Y470431D01*
X37665D01*
X36957Y472310D01*
X36881Y472539D01*
X36812Y472761D01*
X36749Y472969D01*
X36722Y473066D01*
X36701Y473156D01*
X36680Y473240D01*
X36659Y473316D01*
X36646Y473378D01*
X36632Y473441D01*
X36625Y473482D01*
X36618Y473517D01*
X36611Y473538D01*
Y473545D01*
D02*
G37*
%LPD*%
D10*
X33914Y844415D02*
Y831086D01*
X27250Y837750D02*
X40579D01*
X702250Y844415D02*
Y831086D01*
X252250Y844415D02*
Y831086D01*
X483914Y844415D02*
Y831086D01*
X477250Y837750D02*
X490579D01*
X27250Y120750D02*
Y134079D01*
X258915Y120750D02*
Y134079D01*
X252250Y127415D02*
X265579D01*
X477250Y121086D02*
Y134415D01*
X708914D02*
Y121086D01*
X702250Y127750D02*
X715579D01*
D12*
X727600Y470000D02*
G03*
X727600Y470000I-600J0D01*
G01*
D13*
X627750Y488500D02*
G03*
X627750Y488500I-1000J0D01*
G01*
X615000Y889250D02*
X627000D01*
X686500Y889750D02*
X698500D01*
D14*
X179997Y398001D02*
Y403999D01*
X176998D01*
X175999Y402999D01*
Y401000D01*
X176998Y400000D01*
X179997D01*
X177998D02*
X175999Y398001D01*
X173999Y402999D02*
X173000Y403999D01*
X171000D01*
X170001Y402999D01*
Y402000D01*
X171000Y401000D01*
X170001Y400000D01*
Y399001D01*
X171000Y398001D01*
X173000D01*
X173999Y399001D01*
Y400000D01*
X173000Y401000D01*
X173999Y402000D01*
Y402999D01*
X173000Y401000D02*
X171000D01*
X168001Y402999D02*
X167002Y403999D01*
X165002D01*
X164003Y402999D01*
Y402000D01*
X165002Y401000D01*
X166002D01*
X165002D01*
X164003Y400000D01*
Y399001D01*
X165002Y398001D01*
X167002D01*
X168001Y399001D01*
X179997Y416001D02*
Y421999D01*
X176998D01*
X175999Y420999D01*
Y419000D01*
X176998Y418000D01*
X179997D01*
X177998D02*
X175999Y416001D01*
X173999Y420999D02*
X173000Y421999D01*
X171000D01*
X170001Y420999D01*
Y420000D01*
X171000Y419000D01*
X170001Y418000D01*
Y417001D01*
X171000Y416001D01*
X173000D01*
X173999Y417001D01*
Y418000D01*
X173000Y419000D01*
X173999Y420000D01*
Y420999D01*
X173000Y419000D02*
X171000D01*
X164003Y416001D02*
X168001D01*
X164003Y420000D01*
Y420999D01*
X165002Y421999D01*
X167002D01*
X168001Y420999D01*
X678000Y819001D02*
X674002D01*
Y822000D01*
X676001D01*
X674002D01*
Y824999D01*
X680000Y820001D02*
X680999Y819001D01*
X682999D01*
X683998Y820001D01*
Y821000D01*
X682999Y822000D01*
X681999D01*
X682999D01*
X683998Y823000D01*
Y823999D01*
X682999Y824999D01*
X680999D01*
X680000Y823999D01*
X453000Y146999D02*
X456998D01*
Y144000D01*
X454999D01*
X456998D01*
Y141001D01*
X447002D02*
X451000D01*
X447002Y145000D01*
Y145999D01*
X448001Y146999D01*
X450001D01*
X451000Y145999D01*
X228000Y819001D02*
X224001D01*
Y822000D01*
X226001D01*
X224001D01*
Y824999D01*
X229999D02*
X231999D01*
X230999D01*
Y819001D01*
X229999Y820001D01*
X727273Y509493D02*
Y508493D01*
X725274Y506494D01*
X723274Y508493D01*
Y509493D01*
X725274Y506494D02*
Y503495D01*
X717276D02*
X721275D01*
X717276Y507494D01*
Y508493D01*
X718276Y509493D01*
X720275D01*
X721275Y508493D01*
X637501Y926003D02*
X643499D01*
Y929002D01*
X642499Y930001D01*
X640500D01*
X639500Y929002D01*
Y926003D01*
Y928002D02*
X637501Y930001D01*
Y935000D02*
X643499D01*
X640500Y932001D01*
Y935999D01*
X642499Y937999D02*
X643499Y938998D01*
Y940998D01*
X642499Y941997D01*
X641500D01*
X640500Y940998D01*
Y939998D01*
Y940998D01*
X639500Y941997D01*
X638501D01*
X637501Y940998D01*
Y938998D01*
X638501Y937999D01*
X669751Y926503D02*
X675749D01*
Y929502D01*
X674749Y930501D01*
X672750D01*
X671750Y929502D01*
Y926503D01*
Y928502D02*
X669751Y930501D01*
Y935500D02*
X675749D01*
X672750Y932501D01*
Y936499D01*
X669751Y942497D02*
Y938499D01*
X673750Y942497D01*
X674749D01*
X675749Y941498D01*
Y939498D01*
X674749Y938499D01*
X624249Y926252D02*
X618251D01*
Y929251D01*
X619251Y930250D01*
X623249D01*
X624249Y929251D01*
Y926252D01*
X619251Y932250D02*
X618251Y933249D01*
Y935249D01*
X619251Y936248D01*
X623249D01*
X624249Y935249D01*
Y933249D01*
X623249Y932250D01*
X622250D01*
X621250Y933249D01*
Y936248D01*
X695249Y926502D02*
X689251D01*
Y929501D01*
X690251Y930500D01*
X694249D01*
X695249Y929501D01*
Y926502D01*
X694249Y932500D02*
X695249Y933499D01*
Y935499D01*
X694249Y936498D01*
X693250D01*
X692250Y935499D01*
X691250Y936498D01*
X690251D01*
X689251Y935499D01*
Y933499D01*
X690251Y932500D01*
X691250D01*
X692250Y933499D01*
X693250Y932500D01*
X694249D01*
X692250Y933499D02*
Y935499D01*
X627999Y370999D02*
X628998Y371999D01*
X630998D01*
X631997Y370999D01*
Y367001D01*
X630998Y366001D01*
X628998D01*
X627999Y367001D01*
X625999Y371999D02*
X622001D01*
Y370999D01*
X625999Y367001D01*
Y366001D01*
X620001Y371999D02*
X616003D01*
Y370999D01*
X620001Y367001D01*
Y366001D01*
X494499Y493001D02*
X495499Y492002D01*
Y490002D01*
X494499Y489003D01*
X490501D01*
X489501Y490002D01*
Y492002D01*
X490501Y493001D01*
X495499Y495001D02*
Y498999D01*
X494499D01*
X490501Y495001D01*
X489501D01*
X495499Y504997D02*
X494499Y502998D01*
X492500Y500999D01*
X490501D01*
X489501Y501998D01*
Y503998D01*
X490501Y504997D01*
X491500D01*
X492500Y503998D01*
Y500999D01*
X621053Y518816D02*
X622053Y517817D01*
Y515817D01*
X621053Y514818D01*
X617055D01*
X616055Y515817D01*
Y517817D01*
X617055Y518816D01*
X622053Y520816D02*
Y524814D01*
X621053D01*
X617055Y520816D01*
X616055D01*
X622053Y530812D02*
Y526814D01*
X619054D01*
X620054Y528813D01*
Y529813D01*
X619054Y530812D01*
X617055D01*
X616055Y529813D01*
Y527813D01*
X617055Y526814D01*
X647499Y502501D02*
X648499Y501502D01*
Y499502D01*
X647499Y498503D01*
X643501D01*
X642501Y499502D01*
Y501502D01*
X643501Y502501D01*
X648499Y504501D02*
Y508499D01*
X647499D01*
X643501Y504501D01*
X642501D01*
Y513498D02*
X648499D01*
X645500Y510499D01*
Y514497D01*
X543249Y359749D02*
X544248Y360749D01*
X546248D01*
X547247Y359749D01*
Y355751D01*
X546248Y354751D01*
X544248D01*
X543249Y355751D01*
X541249Y360749D02*
X537251D01*
Y359749D01*
X541249Y355751D01*
Y354751D01*
X535251Y359749D02*
X534252Y360749D01*
X532252D01*
X531253Y359749D01*
Y358750D01*
X532252Y357750D01*
X533252D01*
X532252D01*
X531253Y356750D01*
Y355751D01*
X532252Y354751D01*
X534252D01*
X535251Y355751D01*
X676249Y506501D02*
X677249Y505502D01*
Y503502D01*
X676249Y502503D01*
X672251D01*
X671251Y503502D01*
Y505502D01*
X672251Y506501D01*
X671251Y511500D02*
X677249D01*
X674250Y508501D01*
Y512499D01*
X677249Y518497D02*
Y514499D01*
X674250D01*
X675250Y516498D01*
Y517498D01*
X674250Y518497D01*
X672251D01*
X671251Y517498D01*
Y515498D01*
X672251Y514499D01*
X663001Y473999D02*
X662001Y474998D01*
Y476998D01*
X663001Y477997D01*
X666999D01*
X667999Y476998D01*
Y474998D01*
X666999Y473999D01*
X667999Y469000D02*
X662001D01*
X665000Y471999D01*
Y468001D01*
X667999Y463002D02*
X662001D01*
X665000Y466001D01*
Y462003D01*
X635748Y511999D02*
Y507001D01*
X634749Y506001D01*
X632749D01*
X631750Y507001D01*
Y511999D01*
X629750Y510999D02*
X628751Y511999D01*
X626751D01*
X625752Y510999D01*
Y510000D01*
X626751Y509000D01*
X625752Y508000D01*
Y507001D01*
X626751Y506001D01*
X628751D01*
X629750Y507001D01*
Y508000D01*
X628751Y509000D01*
X629750Y510000D01*
Y510999D01*
X628751Y509000D02*
X626751D01*
D15*
X699250Y466500D02*
X704750D01*
X699250Y493500D02*
X704750D01*
X719000Y480000D02*
Y481500D01*
Y478500D02*
Y480000D01*
X685000Y478500D02*
Y480000D01*
Y481500D01*
D16*
X518750Y486700D02*
Y496000D01*
Y394000D02*
Y403300D01*
X620750Y486700D02*
Y496000D01*
Y394000D02*
Y403300D01*
X518750Y496000D02*
X528050D01*
X518750Y394000D02*
X528050D01*
X611450Y496000D02*
X620750D01*
X611450Y394000D02*
X620750D01*
M02*
