G04*
G04 #@! TF.GenerationSoftware,Altium Limited,Altium Designer,26.2.0 (7)*
G04*
G04 Layer_Color=16776960*
%FSLAX44Y44*%
%MOMM*%
G71*
G04*
G04 #@! TF.SameCoordinates,2986681F-040A-4F0E-8C1E-8186D9A52596*
G04*
G04*
G04 #@! TF.FilePolarity,Positive*
G04*
G01*
G75*
%ADD14C,0.1000*%
D14*
X24000Y564900D02*
G03*
X12000Y576900I-12000J0D01*
G01*
X0Y588900D02*
G03*
X12000Y576900I12000J0D01*
G01*
X11943Y345500D02*
G03*
X-57Y333500I0J-12000D01*
G01*
X11943Y345500D02*
G03*
X23943Y357500I0J12000D01*
G01*
X594900Y934900D02*
G03*
X606900Y946900I0J12000D01*
G01*
X618900Y958900D02*
G03*
X606900Y946900I0J-12000D01*
G01*
X294900D02*
G03*
X282900Y958900I-12000J0D01*
G01*
X294900Y946900D02*
G03*
X306900Y934900I12000J0D01*
G01*
X877757Y357500D02*
G03*
X889757Y345500I12000J0D01*
G01*
X901757Y333500D02*
G03*
X889757Y345500I-12000J0D01*
G01*
X10500Y958900D02*
G03*
X0Y948400I0J-10500D01*
G01*
X901700D02*
G03*
X891200Y958900I-10500J0D01*
G01*
Y-0D02*
G03*
X901700Y10500I0J10500D01*
G01*
X0D02*
G03*
X10500Y-0I10500J0D01*
G01*
X889700Y576900D02*
G03*
X901700Y588900I0J12000D01*
G01*
X889700Y576900D02*
G03*
X877700Y564900I0J-12000D01*
G01*
X306900Y24000D02*
G03*
X294900Y12000I0J-12000D01*
G01*
X282900Y-0D02*
G03*
X294900Y12000I0J12000D01*
G01*
X606900D02*
G03*
X618900Y-0I12000J0D01*
G01*
X606900Y12000D02*
G03*
X594900Y24000I-12000J0D01*
G01*
X901700Y10500D02*
Y333500D01*
X901757D01*
X877700Y564850D02*
X877757Y357500D01*
X0Y588900D02*
Y948400D01*
X23943Y357500D02*
X24000Y564850D01*
X-57Y333500D02*
X0D01*
Y10500D02*
Y333500D01*
X536300Y934900D02*
X594900D01*
X306900D02*
X365500D01*
X537500Y935000D01*
X10500Y958900D02*
X282900D01*
X618900D02*
X891200D01*
X901700Y588900D02*
Y948400D01*
X618900Y-0D02*
X891200D01*
X10500D02*
X282900D01*
X365500Y24000D02*
X537500Y23900D01*
X306900Y24000D02*
X365500D01*
X536300D02*
X594900D01*
M02*
