G04*
G04 #@! TF.GenerationSoftware,Altium Limited,Altium Designer,26.2.0 (7)*
G04*
G04 Layer_Color=128*
%FSLAX44Y44*%
%MOMM*%
G71*
G04*
G04 #@! TF.SameCoordinates,2986681F-040A-4F0E-8C1E-8186D9A52596*
G04*
G04*
G04 #@! TF.FilePolarity,Positive*
G04*
G01*
G75*
%ADD15C,0.1270*%
D15*
X449000Y530000D02*
X456000D01*
X452500Y526500D02*
Y533500D01*
X785850Y834500D02*
X790850D01*
X788350Y832000D02*
Y837000D01*
X659850Y680000D02*
X691850D01*
X675850Y664000D02*
Y696000D01*
X209850Y259500D02*
X241850D01*
X225850Y243500D02*
Y275500D01*
X434850Y259500D02*
X466850D01*
X450850Y243500D02*
Y275500D01*
X659850Y259500D02*
X691850D01*
X675850Y243500D02*
Y275500D01*
X434850Y680000D02*
X466850D01*
X450850Y664000D02*
Y696000D01*
X560850Y104500D02*
X565850D01*
X563350Y102000D02*
Y107000D01*
X785850Y104500D02*
X790850D01*
X788350Y102000D02*
Y107000D01*
X335850Y104500D02*
X340850D01*
X338350Y102000D02*
Y107000D01*
X335850Y834500D02*
X340850D01*
X338350Y832000D02*
Y837000D01*
X110850Y104500D02*
X115850D01*
X113350Y102000D02*
Y107000D01*
X110850Y834500D02*
X115850D01*
X113350Y832000D02*
Y837000D01*
X560850Y834500D02*
X565850D01*
X563350Y832000D02*
Y837000D01*
X209850Y680000D02*
X241850D01*
X225850Y664000D02*
Y696000D01*
X86000Y371175D02*
X94000D01*
X90000Y367175D02*
Y375175D01*
X86000Y391175D02*
X94000D01*
X90000Y387175D02*
Y395175D01*
X66000Y411175D02*
X74000D01*
X70000Y407175D02*
Y415175D01*
X86000Y411175D02*
X94000D01*
X90000Y407175D02*
Y415175D01*
X66000Y451175D02*
X74000D01*
X70000Y447175D02*
Y455175D01*
X86000Y451175D02*
X94000D01*
X90000Y447175D02*
Y455175D01*
X66000Y471175D02*
X74000D01*
X70000Y467175D02*
Y475175D01*
X86000Y471175D02*
X94000D01*
X90000Y467175D02*
Y475175D01*
X66000Y531175D02*
X74000D01*
X70000Y527175D02*
Y535175D01*
X86000Y531175D02*
X94000D01*
X90000Y527175D02*
Y535175D01*
X66000Y551175D02*
X74000D01*
X70000Y547175D02*
Y555175D01*
X86000Y551175D02*
X94000D01*
X90000Y547175D02*
Y555175D01*
X66000Y371175D02*
X74000D01*
X70000Y367175D02*
Y375175D01*
X66000Y391175D02*
X74000D01*
X70000Y387175D02*
Y395175D01*
X66000Y431175D02*
X74000D01*
X70000Y427175D02*
Y435175D01*
X86000Y431175D02*
X94000D01*
X90000Y427175D02*
Y435175D01*
X66000Y491175D02*
X74000D01*
X70000Y487175D02*
Y495175D01*
X86000Y491175D02*
X94000D01*
X90000Y487175D02*
Y495175D01*
X66000Y511175D02*
X74000D01*
X70000Y507175D02*
Y515175D01*
X86000Y511175D02*
X94000D01*
X90000Y507175D02*
Y515175D01*
X449000Y417500D02*
X456000D01*
X452500Y414000D02*
Y421000D01*
X449000Y447500D02*
X456000D01*
X452500Y444000D02*
Y451000D01*
X834000Y50000D02*
X866000D01*
X850000Y34000D02*
Y66000D01*
X34000Y50000D02*
X66000D01*
X50000Y34000D02*
Y66000D01*
X72900Y908100D02*
X104900D01*
X88900Y892100D02*
Y924100D01*
X809500Y908100D02*
X841500D01*
X825500Y892100D02*
Y924100D01*
X449000Y500000D02*
X456000D01*
X452500Y496500D02*
Y503500D01*
X369227Y477103D02*
X372227D01*
X370727Y475603D02*
Y478603D01*
X371561Y465076D02*
X374561D01*
X373060Y463576D02*
Y466576D01*
X372779Y471460D02*
X375779D01*
X374279Y469961D02*
Y472960D01*
X565930Y607177D02*
X568930D01*
X567430Y605677D02*
Y608677D01*
X772897Y434702D02*
X775897D01*
X774397Y433202D02*
Y436202D01*
X778897Y416782D02*
X781897D01*
X780397Y415282D02*
Y418282D01*
X772846Y454023D02*
X775846D01*
X774346Y452523D02*
Y455523D01*
X686637Y494716D02*
X689637D01*
X688137Y493216D02*
Y496216D01*
X573500Y405000D02*
X576500D01*
X575000Y403500D02*
Y406500D01*
X643236Y425651D02*
X646236D01*
X644736Y424151D02*
Y427151D01*
X601500Y399250D02*
X604500D01*
X603000Y397750D02*
Y400750D01*
X603500Y336000D02*
X606500D01*
X605000Y334500D02*
Y337500D01*
X679066Y350975D02*
X682066D01*
X680566Y349475D02*
Y352475D01*
X732795Y480671D02*
X735795D01*
X734295Y479171D02*
Y482171D01*
X804452Y482642D02*
X807451D01*
X805952Y481142D02*
Y484142D01*
X521500Y539000D02*
X524500D01*
X523000Y537500D02*
Y540500D01*
X449350Y656500D02*
X452350D01*
X450850Y655000D02*
Y658000D01*
X472350Y679500D02*
X475350D01*
X473850Y678000D02*
Y681000D01*
X449350Y702500D02*
X452350D01*
X450850Y701000D02*
Y704000D01*
X426350Y679500D02*
X429350D01*
X427850Y678000D02*
Y681000D01*
X433087Y663240D02*
X436087D01*
X434586Y661740D02*
Y664740D01*
X433087Y695760D02*
X436087D01*
X434586Y694260D02*
Y697260D01*
X465614Y695760D02*
X468614D01*
X467113Y694260D02*
Y697260D01*
X465614Y663240D02*
X468614D01*
X467113Y661740D02*
Y664740D01*
X674350Y656500D02*
X677350D01*
X675850Y655000D02*
Y658000D01*
X697350Y679500D02*
X700350D01*
X698850Y678000D02*
Y681000D01*
X674350Y702500D02*
X677350D01*
X675850Y701000D02*
Y704000D01*
X651350Y679500D02*
X654350D01*
X652850Y678000D02*
Y681000D01*
X658086Y663240D02*
X661087D01*
X659586Y661740D02*
Y664740D01*
X658086Y695760D02*
X661087D01*
X659586Y694260D02*
Y697260D01*
X690613Y695760D02*
X693614D01*
X692113Y694260D02*
Y697260D01*
X690613Y663240D02*
X693614D01*
X692113Y661740D02*
Y664740D01*
X674350Y236000D02*
X677350D01*
X675850Y234500D02*
Y237500D01*
X697350Y259000D02*
X700350D01*
X698850Y257500D02*
Y260500D01*
X674350Y282000D02*
X677350D01*
X675850Y280500D02*
Y283500D01*
X651350Y259000D02*
X654350D01*
X652850Y257500D02*
Y260500D01*
X658086Y242740D02*
X661087D01*
X659586Y241240D02*
Y244240D01*
X658086Y275260D02*
X661087D01*
X659586Y273760D02*
Y276760D01*
X690613Y275260D02*
X693614D01*
X692113Y273760D02*
Y276760D01*
X690613Y242740D02*
X693614D01*
X692113Y241240D02*
Y244240D01*
X449350Y236000D02*
X452350D01*
X450850Y234500D02*
Y237500D01*
X472350Y259000D02*
X475350D01*
X473850Y257500D02*
Y260500D01*
X449350Y282000D02*
X452350D01*
X450850Y280500D02*
Y283500D01*
X426350Y259000D02*
X429350D01*
X427850Y257500D02*
Y260500D01*
X433087Y242740D02*
X436087D01*
X434586Y241240D02*
Y244240D01*
X433087Y275260D02*
X436087D01*
X434586Y273760D02*
Y276760D01*
X465614Y275260D02*
X468614D01*
X467113Y273760D02*
Y276760D01*
X465614Y242740D02*
X468614D01*
X467113Y241240D02*
Y244240D01*
X224350Y236000D02*
X227350D01*
X225850Y234500D02*
Y237500D01*
X247350Y259000D02*
X250350D01*
X248850Y257500D02*
Y260500D01*
X224350Y282000D02*
X227350D01*
X225850Y280500D02*
Y283500D01*
X201350Y259000D02*
X204350D01*
X202850Y257500D02*
Y260500D01*
X208086Y242740D02*
X211087D01*
X209587Y241240D02*
Y244240D01*
X208086Y275260D02*
X211087D01*
X209587Y273760D02*
Y276760D01*
X240613Y275260D02*
X243613D01*
X242113Y273760D02*
Y276760D01*
X240613Y242740D02*
X243613D01*
X242113Y241240D02*
Y244240D01*
X224350Y656500D02*
X227350D01*
X225850Y655000D02*
Y658000D01*
X247350Y679500D02*
X250350D01*
X248850Y678000D02*
Y681000D01*
X224350Y702500D02*
X227350D01*
X225850Y701000D02*
Y704000D01*
X201350Y679500D02*
X204350D01*
X202850Y678000D02*
Y681000D01*
X208086Y663240D02*
X211087D01*
X209587Y661740D02*
Y664740D01*
X208086Y695760D02*
X211087D01*
X209587Y694260D02*
Y697260D01*
X240613Y695760D02*
X243613D01*
X242113Y694260D02*
Y697260D01*
X240613Y663240D02*
X243613D01*
X242113Y661740D02*
Y664740D01*
X49500Y696000D02*
X52500D01*
X51000Y694500D02*
Y697500D01*
X279440Y599033D02*
X282440D01*
X280940Y597533D02*
Y600533D01*
X279250Y584000D02*
X282250D01*
X280750Y582500D02*
Y585500D01*
X237500Y546250D02*
X240500D01*
X239000Y544750D02*
Y547750D01*
X237500Y556500D02*
X240500D01*
X239000Y555000D02*
Y558000D01*
X237500Y566500D02*
X240500D01*
X239000Y565000D02*
Y568000D01*
X247500Y566750D02*
X250500D01*
X249000Y565250D02*
Y568250D01*
X237500Y535750D02*
X240500D01*
X239000Y534250D02*
Y537250D01*
X291641Y470438D02*
X294641D01*
X293141Y468938D02*
Y471938D01*
X336000Y463750D02*
X339000D01*
X337500Y462250D02*
Y465250D01*
X336000Y470750D02*
X339000D01*
X337500Y469250D02*
Y472250D01*
X336000Y477750D02*
X339000D01*
X337500Y476250D02*
Y479250D01*
X324348Y443730D02*
X327348D01*
X325848Y442230D02*
Y445230D01*
X333047Y499183D02*
X336047D01*
X334547Y497683D02*
Y500683D01*
X327250Y477990D02*
X330250D01*
X328750Y476490D02*
Y479490D01*
X321172Y477990D02*
X324172D01*
X322672Y476490D02*
Y479490D01*
X218500Y495000D02*
X221500D01*
X220000Y493500D02*
Y496500D01*
X238500Y495000D02*
X241500D01*
X240000Y493500D02*
Y496500D01*
X228500Y495000D02*
X231500D01*
X230000Y493500D02*
Y496500D01*
X321172Y463010D02*
X324172D01*
X322672Y461510D02*
Y464510D01*
X327250Y463010D02*
X330250D01*
X328750Y461510D02*
Y464510D01*
X228500Y446000D02*
X231500D01*
X230000Y444500D02*
Y447500D01*
X238500Y446000D02*
X241500D01*
X240000Y444500D02*
Y447500D01*
X218500Y446000D02*
X221500D01*
X220000Y444500D02*
Y447500D01*
X330936Y441959D02*
X333936D01*
X332436Y440459D02*
Y443459D01*
X301500Y436000D02*
X304500D01*
X303000Y434500D02*
Y437500D01*
X356250Y491750D02*
X359250D01*
X357750Y490250D02*
Y493250D01*
X441500Y145000D02*
X444500D01*
X443000Y143500D02*
Y146500D01*
X431500Y145000D02*
X434500D01*
X433000Y143500D02*
Y146500D01*
X431500Y135000D02*
X434500D01*
X433000Y133500D02*
Y136500D01*
X431500Y125000D02*
X434500D01*
X433000Y123500D02*
Y126500D01*
X441500Y125000D02*
X444500D01*
X443000Y123500D02*
Y126500D01*
X441500Y135000D02*
X444500D01*
X443000Y133500D02*
Y136500D01*
X431500Y115000D02*
X434500D01*
X433000Y113500D02*
Y116500D01*
X431500Y105000D02*
X434500D01*
X433000Y103500D02*
Y106500D01*
X441500Y105000D02*
X444500D01*
X443000Y103500D02*
Y106500D01*
X441500Y115000D02*
X444500D01*
X443000Y113500D02*
Y116500D01*
X421500Y115000D02*
X424500D01*
X423000Y113500D02*
Y116500D01*
X411500Y115000D02*
X414500D01*
X413000Y113500D02*
Y116500D01*
X411500Y105000D02*
X414500D01*
X413000Y103500D02*
Y106500D01*
X421500Y105000D02*
X424500D01*
X423000Y103500D02*
Y106500D01*
X421500Y125000D02*
X424500D01*
X423000Y123500D02*
Y126500D01*
X411500Y125000D02*
X414500D01*
X413000Y123500D02*
Y126500D01*
X411500Y145000D02*
X414500D01*
X413000Y143500D02*
Y146500D01*
X421500Y145000D02*
X424500D01*
X423000Y143500D02*
Y146500D01*
X411500Y135000D02*
X414500D01*
X413000Y133500D02*
Y136500D01*
X421500Y135000D02*
X424500D01*
X423000Y133500D02*
Y136500D01*
X324032Y532500D02*
X327032D01*
X325532Y531000D02*
Y534000D01*
X290500Y588000D02*
X293500D01*
X292000Y586500D02*
Y589500D01*
X267500Y526000D02*
X270500D01*
X269000Y524500D02*
Y527500D01*
X257500Y526000D02*
X260500D01*
X259000Y524500D02*
Y527500D01*
X247500Y516000D02*
X250500D01*
X249000Y514500D02*
Y517500D01*
X237500Y516000D02*
X240500D01*
X239000Y514500D02*
Y517500D01*
X247500Y526000D02*
X250500D01*
X249000Y524500D02*
Y527500D01*
X237500Y526000D02*
X240500D01*
X239000Y524500D02*
Y527500D01*
X227500Y526000D02*
X230500D01*
X229000Y524500D02*
Y527500D01*
X755500Y468000D02*
X758500D01*
X757000Y466500D02*
Y469500D01*
X501500Y413000D02*
X504500D01*
X503000Y411500D02*
Y414500D01*
X358500Y555000D02*
X361500D01*
X360000Y553500D02*
Y556500D01*
X348500Y555000D02*
X351500D01*
X350000Y553500D02*
Y556500D01*
X358500Y565000D02*
X361500D01*
X360000Y563500D02*
Y566500D01*
X560500Y457000D02*
X563500D01*
X562000Y455500D02*
Y458500D01*
X352500Y523000D02*
X355500D01*
X354000Y521500D02*
Y524500D01*
X312500Y527000D02*
X315500D01*
X314000Y525500D02*
Y528500D01*
X415500Y486000D02*
X418500D01*
X417000Y484500D02*
Y487500D01*
X389500Y297000D02*
X392500D01*
X391000Y295500D02*
Y298500D01*
X408500Y375000D02*
X411500D01*
X410000Y373500D02*
Y376500D01*
X366250Y378000D02*
X369250D01*
X367750Y376500D02*
Y379500D01*
X232250Y412250D02*
X235250D01*
X233750Y410750D02*
Y413750D01*
X242250Y412250D02*
X245250D01*
X243750Y410750D02*
Y413750D01*
X242250Y372250D02*
X245250D01*
X243750Y370750D02*
Y373750D01*
X232250Y372250D02*
X235250D01*
X233750Y370750D02*
Y373750D01*
X242250Y382250D02*
X245250D01*
X243750Y380750D02*
Y383750D01*
X232250Y382250D02*
X235250D01*
X233750Y380750D02*
Y383750D01*
X232250Y392250D02*
X235250D01*
X233750Y390750D02*
Y393750D01*
X242250Y392250D02*
X245250D01*
X243750Y390750D02*
Y393750D01*
X242250Y402250D02*
X245250D01*
X243750Y400750D02*
Y403750D01*
X232250Y402250D02*
X235250D01*
X233750Y400750D02*
Y403750D01*
X232250Y362250D02*
X235250D01*
X233750Y360750D02*
Y363750D01*
X242250Y362250D02*
X245250D01*
X243750Y360750D02*
Y363750D01*
X356250Y388000D02*
X359250D01*
X357750Y386500D02*
Y389500D01*
X366250Y388000D02*
X369250D01*
X367750Y386500D02*
Y389500D01*
X356250Y398000D02*
X359250D01*
X357750Y396500D02*
Y399500D01*
X366250Y398000D02*
X369250D01*
X367750Y396500D02*
Y399500D01*
X366250Y408000D02*
X369250D01*
X367750Y406500D02*
Y409500D01*
X356250Y408000D02*
X359250D01*
X357750Y406500D02*
Y409500D01*
X356250Y418000D02*
X359250D01*
X357750Y416500D02*
Y419500D01*
X366250Y418000D02*
X369250D01*
X367750Y416500D02*
Y419500D01*
X356250Y378000D02*
X359250D01*
X357750Y376500D02*
Y379500D01*
X348500Y545000D02*
X351500D01*
X350000Y543500D02*
Y546500D01*
X358500Y545000D02*
X361500D01*
X360000Y543500D02*
Y546500D01*
X358500Y585000D02*
X361500D01*
X360000Y583500D02*
Y586500D01*
X348500Y585000D02*
X351500D01*
X350000Y583500D02*
Y586500D01*
X348500Y575000D02*
X351500D01*
X350000Y573500D02*
Y576500D01*
X358500Y575000D02*
X361500D01*
X360000Y573500D02*
Y576500D01*
X348500Y565000D02*
X351500D01*
X350000Y563500D02*
Y566500D01*
X153500Y650000D02*
X156500D01*
X155000Y648500D02*
Y651500D01*
X153500Y640000D02*
X156500D01*
X155000Y638500D02*
Y641500D01*
X163500Y650000D02*
X166500D01*
X165000Y648500D02*
Y651500D01*
X163500Y640000D02*
X166500D01*
X165000Y638500D02*
Y641500D01*
X143500Y650000D02*
X146500D01*
X145000Y648500D02*
Y651500D01*
X143500Y640000D02*
X146500D01*
X145000Y638500D02*
Y641500D01*
X63500Y650000D02*
X66500D01*
X65000Y648500D02*
Y651500D01*
X63500Y640000D02*
X66500D01*
X65000Y638500D02*
Y641500D01*
X73500Y650000D02*
X76500D01*
X75000Y648500D02*
Y651500D01*
X73500Y640000D02*
X76500D01*
X75000Y638500D02*
Y641500D01*
X93500Y640000D02*
X96500D01*
X95000Y638500D02*
Y641500D01*
X93500Y650000D02*
X96500D01*
X95000Y648500D02*
Y651500D01*
X83500Y640000D02*
X86500D01*
X85000Y638500D02*
Y641500D01*
X83500Y650000D02*
X86500D01*
X85000Y648500D02*
Y651500D01*
X113500Y640000D02*
X116500D01*
X115000Y638500D02*
Y641500D01*
X113500Y650000D02*
X116500D01*
X115000Y648500D02*
Y651500D01*
X103500Y640000D02*
X106500D01*
X105000Y638500D02*
Y641500D01*
X103500Y650000D02*
X106500D01*
X105000Y648500D02*
Y651500D01*
X133500Y640000D02*
X136500D01*
X135000Y638500D02*
Y641500D01*
X133500Y650000D02*
X136500D01*
X135000Y648500D02*
Y651500D01*
X123500Y640000D02*
X126500D01*
X125000Y638500D02*
Y641500D01*
X123500Y650000D02*
X126500D01*
X125000Y648500D02*
Y651500D01*
X704595Y435238D02*
X707595D01*
X706095Y433738D02*
Y436738D01*
X695500Y428000D02*
X698500D01*
X697000Y426500D02*
Y429500D01*
X685500Y447000D02*
X688500D01*
X687000Y445500D02*
Y448500D01*
X747500Y462000D02*
X750500D01*
X749000Y460500D02*
Y463500D01*
X354500Y506000D02*
X357500D01*
X356000Y504500D02*
Y507500D01*
X322670Y514341D02*
X325670D01*
X324170Y512841D02*
Y515841D01*
X758500Y555000D02*
X761500D01*
X760000Y553500D02*
Y556500D01*
X768500Y555000D02*
X771500D01*
X770000Y553500D02*
Y556500D01*
X768500Y565000D02*
X771500D01*
X770000Y563500D02*
Y566500D01*
X788500Y555000D02*
X791500D01*
X790000Y553500D02*
Y556500D01*
X778500Y555000D02*
X781500D01*
X780000Y553500D02*
Y556500D01*
X788500Y575000D02*
X791500D01*
X790000Y573500D02*
Y576500D01*
X778500Y575000D02*
X781500D01*
X780000Y573500D02*
Y576500D01*
X788500Y565000D02*
X791500D01*
X790000Y563500D02*
Y566500D01*
X778500Y565000D02*
X781500D01*
X780000Y563500D02*
Y566500D01*
X798500Y555000D02*
X801500D01*
X800000Y553500D02*
Y556500D01*
X798500Y565000D02*
X801500D01*
X800000Y563500D02*
Y566500D01*
X798500Y575000D02*
X801500D01*
X800000Y573500D02*
Y576500D01*
X818500Y555000D02*
X821500D01*
X820000Y553500D02*
Y556500D01*
X808500Y555000D02*
X811500D01*
X810000Y553500D02*
Y556500D01*
X818500Y575000D02*
X821500D01*
X820000Y573500D02*
Y576500D01*
X808500Y575000D02*
X811500D01*
X810000Y573500D02*
Y576500D01*
X818500Y565000D02*
X821500D01*
X820000Y563500D02*
Y566500D01*
X808500Y565000D02*
X811500D01*
X810000Y563500D02*
Y566500D01*
X808500Y535000D02*
X811500D01*
X810000Y533500D02*
Y536500D01*
X808500Y525000D02*
X811500D01*
X810000Y523500D02*
Y526500D01*
X818500Y535000D02*
X821500D01*
X820000Y533500D02*
Y536500D01*
X818500Y525000D02*
X821500D01*
X820000Y523500D02*
Y526500D01*
X788500Y535000D02*
X791500D01*
X790000Y533500D02*
Y536500D01*
X788500Y525000D02*
X791500D01*
X790000Y523500D02*
Y526500D01*
X798500Y535000D02*
X801500D01*
X800000Y533500D02*
Y536500D01*
X798500Y525000D02*
X801500D01*
X800000Y523500D02*
Y526500D01*
X768500Y535000D02*
X771500D01*
X770000Y533500D02*
Y536500D01*
X768500Y525000D02*
X771500D01*
X770000Y523500D02*
Y526500D01*
X778500Y535000D02*
X781500D01*
X780000Y533500D02*
Y536500D01*
X778500Y525000D02*
X781500D01*
X780000Y523500D02*
Y526500D01*
X758500Y525000D02*
X761500D01*
X760000Y523500D02*
Y526500D01*
X758500Y535000D02*
X761500D01*
X760000Y533500D02*
Y536500D01*
X748500Y525000D02*
X751500D01*
X750000Y523500D02*
Y526500D01*
X748500Y535000D02*
X751500D01*
X750000Y533500D02*
Y536500D01*
X818500Y545000D02*
X821500D01*
X820000Y543500D02*
Y546500D01*
X808500Y545000D02*
X811500D01*
X810000Y543500D02*
Y546500D01*
X798500Y545000D02*
X801500D01*
X800000Y543500D02*
Y546500D01*
X788500Y545000D02*
X791500D01*
X790000Y543500D02*
Y546500D01*
X778500Y545000D02*
X781500D01*
X780000Y543500D02*
Y546500D01*
X768500Y545000D02*
X771500D01*
X770000Y543500D02*
Y546500D01*
X758500Y545000D02*
X761500D01*
X760000Y543500D02*
Y546500D01*
X748500Y545000D02*
X751500D01*
X750000Y543500D02*
Y546500D01*
X530750Y388000D02*
X533750D01*
X532250Y386500D02*
Y389500D01*
X408500Y497500D02*
X411500D01*
X410000Y496000D02*
Y499000D01*
X835710Y638195D02*
X838710D01*
X837210Y636695D02*
Y639695D01*
X719874Y369725D02*
X722874D01*
X721374Y368225D02*
Y371225D01*
X713500Y371000D02*
X716500D01*
X715000Y369500D02*
Y372500D01*
X764500Y390000D02*
X767500D01*
X766000Y388500D02*
Y391500D01*
X813016Y770839D02*
X816016D01*
X814516Y769339D02*
Y772339D01*
X812938Y777339D02*
X815938D01*
X814438Y775839D02*
Y778839D01*
X323447Y499749D02*
X326447D01*
X324947Y498250D02*
Y501250D01*
X331547Y506874D02*
X334547D01*
X333047Y505374D02*
Y508374D01*
X367500Y460000D02*
X370500D01*
X369000Y458500D02*
Y461500D01*
X756715Y699225D02*
X759715D01*
X758215Y697725D02*
Y700725D01*
X730758Y677277D02*
X733758D01*
X732258Y675777D02*
Y678777D01*
X864760Y33737D02*
X867760D01*
X866260Y32236D02*
Y35236D01*
X832240Y33737D02*
X835240D01*
X833740Y32236D02*
Y35236D01*
X832240Y66263D02*
X835240D01*
X833740Y64763D02*
Y67764D01*
X864760Y66263D02*
X867760D01*
X866260Y64763D02*
Y67764D01*
X848500Y73000D02*
X851500D01*
X850000Y71500D02*
Y74500D01*
X825500Y50000D02*
X828500D01*
X827000Y48500D02*
Y51500D01*
X848500Y27000D02*
X851500D01*
X850000Y25500D02*
Y28500D01*
X871500Y50000D02*
X874500D01*
X873000Y48500D02*
Y51500D01*
X64760Y33737D02*
X67760D01*
X66260Y32236D02*
Y35236D01*
X32240Y33737D02*
X35240D01*
X33740Y32236D02*
Y35236D01*
X32240Y66263D02*
X35240D01*
X33740Y64763D02*
Y67764D01*
X64760Y66263D02*
X67760D01*
X66260Y64763D02*
Y67764D01*
X48500Y73000D02*
X51500D01*
X50000Y71500D02*
Y74500D01*
X25500Y50000D02*
X28500D01*
X27000Y48500D02*
Y51500D01*
X48500Y27000D02*
X51500D01*
X50000Y25500D02*
Y28500D01*
X71500Y50000D02*
X74500D01*
X73000Y48500D02*
Y51500D01*
X103660Y891836D02*
X106660D01*
X105160Y890337D02*
Y893336D01*
X71140Y891836D02*
X74140D01*
X72640Y890337D02*
Y893336D01*
X71140Y924363D02*
X74140D01*
X72640Y922863D02*
Y925863D01*
X103660Y924363D02*
X106660D01*
X105160Y922863D02*
Y925863D01*
X87400Y931100D02*
X90400D01*
X88900Y929600D02*
Y932600D01*
X64400Y908100D02*
X67400D01*
X65900Y906600D02*
Y909600D01*
X87400Y885100D02*
X90400D01*
X88900Y883600D02*
Y886600D01*
X110400Y908100D02*
X113400D01*
X111900Y906600D02*
Y909600D01*
X840260Y891836D02*
X843260D01*
X841760Y890337D02*
Y893336D01*
X807740Y891836D02*
X810740D01*
X809240Y890337D02*
Y893336D01*
X807740Y924363D02*
X810740D01*
X809240Y922863D02*
Y925863D01*
X840260Y924363D02*
X843260D01*
X841760Y922863D02*
Y925863D01*
X824000Y931100D02*
X827000D01*
X825500Y929600D02*
Y932600D01*
X801000Y908100D02*
X804000D01*
X802500Y906600D02*
Y909600D01*
X824000Y885100D02*
X827000D01*
X825500Y883600D02*
Y886600D01*
X847000Y908100D02*
X850000D01*
X848500Y906600D02*
Y909600D01*
M02*
