G04*
G04 #@! TF.GenerationSoftware,Altium Limited,Altium Designer,26.2.0 (7)*
G04*
G04 Layer_Physical_Order=4*
G04 Layer_Color=36540*
%FSLAX44Y44*%
%MOMM*%
G71*
G04*
G04 #@! TF.SameCoordinates,33BCE108-0E9A-4A5C-92EA-E60CA21C167F*
G04*
G04*
G04 #@! TF.FilePolarity,Positive*
G04*
G01*
G75*
%ADD12C,0.2540*%
%ADD126C,6.0000*%
%ADD128C,1.2000*%
%ADD129C,1.3000*%
%ADD132C,0.6000*%
%ADD133C,0.5000*%
G36*
X553000Y478565D02*
X551730Y477716D01*
X551696Y477730D01*
X550304D01*
X549017Y477197D01*
X548033Y476213D01*
X547500Y474926D01*
Y473534D01*
X548033Y472247D01*
X549017Y471263D01*
X550304Y470730D01*
X551696D01*
X551730Y470744D01*
X553000Y469895D01*
Y364948D01*
X552724Y364673D01*
X552192Y363386D01*
Y361994D01*
X552724Y360707D01*
X553000Y360432D01*
Y195000D01*
X687000D01*
Y172000D01*
X521000D01*
Y523000D01*
X239000D01*
Y546000D01*
X553000D01*
Y478565D01*
D02*
G37*
G36*
X452715Y390800D02*
X452146Y391357D01*
X451043Y392294D01*
X450508Y392675D01*
X449984Y392998D01*
X449472Y393261D01*
X448971Y393466D01*
X448481Y393613D01*
X448003Y393701D01*
X447536Y393730D01*
Y396270D01*
X448003Y396299D01*
X448481Y396387D01*
X448971Y396534D01*
X449472Y396739D01*
X449984Y397002D01*
X450508Y397325D01*
X451043Y397706D01*
X451589Y398145D01*
X452715Y399200D01*
Y390800D01*
D02*
G37*
G36*
X200284Y708730D02*
X198558Y705342D01*
X197026Y700626D01*
X196250Y695729D01*
Y690771D01*
X197026Y685874D01*
X198558Y681158D01*
X200809Y676740D01*
X203723Y672729D01*
X207229Y669223D01*
X208000Y668663D01*
Y663000D01*
X218914D01*
X220374Y662526D01*
X225271Y661750D01*
X230229D01*
X234730Y662463D01*
X236000Y661685D01*
Y524000D01*
X237376D01*
Y523000D01*
X237852Y521852D01*
X239000Y521376D01*
X269000D01*
Y473000D01*
X293000D01*
Y349000D01*
X435000D01*
Y341000D01*
Y323000D01*
X277000D01*
Y418000D01*
X245000D01*
Y500000D01*
X119000D01*
Y521000D01*
X56000D01*
Y562000D01*
X191000D01*
Y627000D01*
X144000D01*
Y640805D01*
X144467Y641272D01*
X145000Y642559D01*
Y643951D01*
X144467Y645238D01*
X144000Y645705D01*
Y710000D01*
X199506D01*
X200284Y708730D01*
D02*
G37*
G36*
X243376Y418000D02*
X243852Y416852D01*
X245000Y416376D01*
X275376D01*
Y323000D01*
X275852Y321852D01*
X277000Y321376D01*
Y303000D01*
Y109000D01*
X54000D01*
Y326000D01*
X117000D01*
Y498000D01*
X185000D01*
Y498376D01*
X243376D01*
Y418000D01*
D02*
G37*
G36*
X799000Y615000D02*
X731000D01*
Y580750D01*
X730068D01*
X728782Y580217D01*
X727797Y579233D01*
X727264Y577946D01*
Y576554D01*
X727797Y575267D01*
X728782Y574283D01*
X730068Y573750D01*
X731000D01*
Y90000D01*
X395000D01*
Y119000D01*
X701000D01*
Y251452D01*
X701777Y252229D01*
X704691Y256240D01*
X706942Y260658D01*
X708474Y265374D01*
X709250Y270271D01*
Y275229D01*
X708474Y280126D01*
X706942Y284842D01*
X704691Y289260D01*
X701777Y293271D01*
X701000Y294048D01*
Y475297D01*
X701576Y475682D01*
X702969D01*
X704255Y476215D01*
X705240Y477200D01*
X705772Y478486D01*
Y479879D01*
X705240Y481165D01*
X704255Y482150D01*
X702969Y482682D01*
X701576D01*
X701000Y483067D01*
Y648000D01*
X799000D01*
Y615000D01*
D02*
G37*
G36*
X559409Y75450D02*
X559327Y75328D01*
X559255Y75187D01*
X559193Y75028D01*
X559140Y74851D01*
X559097Y74654D01*
X559063Y74440D01*
X559039Y74207D01*
X559020Y73685D01*
X556480D01*
X556475Y73955D01*
X556437Y74440D01*
X556403Y74654D01*
X556360Y74851D01*
X556307Y75028D01*
X556245Y75187D01*
X556173Y75328D01*
X556091Y75450D01*
X556000Y75553D01*
X559500D01*
X559409Y75450D01*
D02*
G37*
%LPC*%
G36*
X539696Y481070D02*
X538304D01*
X537017Y480537D01*
X536033Y479553D01*
X535500Y478266D01*
Y476874D01*
X536033Y475587D01*
X537017Y474603D01*
X538304Y474070D01*
X539696D01*
X540983Y474603D01*
X541967Y475587D01*
X542500Y476874D01*
Y478266D01*
X541967Y479553D01*
X540983Y480537D01*
X539696Y481070D01*
D02*
G37*
G36*
X542196Y411500D02*
X540804D01*
X539517Y410967D01*
X538533Y409983D01*
X538000Y408696D01*
Y407304D01*
X538533Y406017D01*
X539517Y405033D01*
X540804Y404500D01*
X542196D01*
X543483Y405033D01*
X544467Y406017D01*
X545000Y407304D01*
Y408696D01*
X544467Y409983D01*
X543483Y410967D01*
X542196Y411500D01*
D02*
G37*
G36*
X531999Y371063D02*
X530606D01*
X529320Y370530D01*
X528335Y369545D01*
X527803Y368259D01*
Y366866D01*
X528335Y365580D01*
X529320Y364595D01*
X530606Y364062D01*
X531999D01*
X533285Y364595D01*
X534270Y365580D01*
X534803Y366866D01*
Y368259D01*
X534270Y369545D01*
X533285Y370530D01*
X531999Y371063D01*
D02*
G37*
G36*
X542946Y371000D02*
X541554D01*
X540267Y370467D01*
X539283Y369483D01*
X538750Y368196D01*
Y366804D01*
X539283Y365517D01*
X540267Y364533D01*
X541554Y364000D01*
X542946D01*
X544233Y364533D01*
X545217Y365517D01*
X545750Y366804D01*
Y368196D01*
X545217Y369483D01*
X544233Y370467D01*
X542946Y371000D01*
D02*
G37*
G36*
X284446Y437750D02*
X283054D01*
X281767Y437217D01*
X280783Y436233D01*
X280250Y434946D01*
Y433554D01*
X280783Y432267D01*
X281767Y431283D01*
X283054Y430750D01*
X284446D01*
X285733Y431283D01*
X286717Y432267D01*
X287250Y433554D01*
Y434946D01*
X286717Y436233D01*
X285733Y437217D01*
X284446Y437750D01*
D02*
G37*
G36*
X267693Y435243D02*
X266300D01*
X265014Y434710D01*
X264029Y433726D01*
X263497Y432439D01*
Y431047D01*
X264029Y429761D01*
X265014Y428776D01*
X266300Y428243D01*
X267693D01*
X268979Y428776D01*
X269964Y429761D01*
X270497Y431047D01*
Y432439D01*
X269964Y433726D01*
X268979Y434710D01*
X267693Y435243D01*
D02*
G37*
G36*
X237196Y495240D02*
X235804D01*
X234517Y494707D01*
X233533Y493723D01*
X233000Y492436D01*
Y491044D01*
X233533Y489757D01*
X234517Y488773D01*
X235804Y488240D01*
X237196D01*
X238483Y488773D01*
X239467Y489757D01*
X240000Y491044D01*
Y492436D01*
X239467Y493723D01*
X238483Y494707D01*
X237196Y495240D01*
D02*
G37*
G36*
X221196D02*
X219804D01*
X218517Y494707D01*
X217533Y493723D01*
X217000Y492436D01*
Y491044D01*
X217533Y489757D01*
X218517Y488773D01*
X219804Y488240D01*
X221196D01*
X222483Y488773D01*
X223467Y489757D01*
X224000Y491044D01*
Y492436D01*
X223467Y493723D01*
X222483Y494707D01*
X221196Y495240D01*
D02*
G37*
G36*
X205196D02*
X203804D01*
X202517Y494707D01*
X201533Y493723D01*
X201000Y492436D01*
Y491044D01*
X201533Y489757D01*
X202517Y488773D01*
X203804Y488240D01*
X205196D01*
X206483Y488773D01*
X207467Y489757D01*
X208000Y491044D01*
Y492436D01*
X207467Y493723D01*
X206483Y494707D01*
X205196Y495240D01*
D02*
G37*
G36*
X189394D02*
X188002D01*
X186715Y494707D01*
X185731Y493723D01*
X185198Y492436D01*
Y491044D01*
X185731Y489757D01*
X186715Y488773D01*
X188002Y488240D01*
X189394D01*
X190681Y488773D01*
X191665Y489757D01*
X192198Y491044D01*
Y492436D01*
X191665Y493723D01*
X190681Y494707D01*
X189394Y495240D01*
D02*
G37*
G36*
X145947Y471500D02*
X144554D01*
X143268Y470967D01*
X142283Y469983D01*
X141751Y468696D01*
Y467304D01*
X142283Y466017D01*
X143268Y465033D01*
X144554Y464500D01*
X145947D01*
X147233Y465033D01*
X148218Y466017D01*
X148751Y467304D01*
Y468696D01*
X148218Y469983D01*
X147233Y470967D01*
X145947Y471500D01*
D02*
G37*
G36*
X129947D02*
X128554D01*
X127268Y470967D01*
X126284Y469983D01*
X125751Y468696D01*
Y467304D01*
X126284Y466017D01*
X127268Y465033D01*
X128554Y464500D01*
X129947D01*
X131233Y465033D01*
X132218Y466017D01*
X132751Y467304D01*
Y468696D01*
X132218Y469983D01*
X131233Y470967D01*
X129947Y471500D01*
D02*
G37*
G36*
X153286Y413982D02*
X151694D01*
X150224Y413373D01*
X149099Y412247D01*
X148490Y410777D01*
Y409186D01*
X149099Y407716D01*
X150224Y406590D01*
X151694Y405981D01*
X153286D01*
X154756Y406590D01*
X155881Y407716D01*
X156490Y409186D01*
Y410777D01*
X155881Y412247D01*
X154756Y413373D01*
X153286Y413982D01*
D02*
G37*
G36*
X125696Y387500D02*
X124304D01*
X123017Y386967D01*
X122033Y385983D01*
X121500Y384696D01*
Y383304D01*
X122033Y382017D01*
X123017Y381033D01*
X124304Y380500D01*
X125696D01*
X126983Y381033D01*
X127967Y382017D01*
X128500Y383304D01*
Y384696D01*
X127967Y385983D01*
X126983Y386967D01*
X125696Y387500D01*
D02*
G37*
G36*
X260446Y378750D02*
X259054D01*
X257767Y378217D01*
X256783Y377233D01*
X256250Y375946D01*
Y374554D01*
X256783Y373267D01*
X257767Y372283D01*
X259054Y371750D01*
X260446D01*
X261733Y372283D01*
X262717Y373267D01*
X263250Y374554D01*
Y375946D01*
X262717Y377233D01*
X261733Y378217D01*
X260446Y378750D01*
D02*
G37*
G36*
X175196Y360500D02*
X173804D01*
X172517Y359967D01*
X171533Y358983D01*
X171000Y357696D01*
Y356304D01*
X171533Y355017D01*
X172517Y354033D01*
X173804Y353500D01*
X175196D01*
X176483Y354033D01*
X177467Y355017D01*
X178000Y356304D01*
Y357696D01*
X177467Y358983D01*
X176483Y359967D01*
X175196Y360500D01*
D02*
G37*
G36*
X167946Y349750D02*
X166554D01*
X165267Y349217D01*
X164283Y348233D01*
X163750Y346946D01*
Y345554D01*
X164283Y344267D01*
X165267Y343283D01*
X166554Y342750D01*
X167946D01*
X169233Y343283D01*
X170217Y344267D01*
X170750Y345554D01*
Y346946D01*
X170217Y348233D01*
X169233Y349217D01*
X167946Y349750D01*
D02*
G37*
G36*
X172084Y286212D02*
X170692D01*
X169406Y285679D01*
X168421Y284695D01*
X167888Y283408D01*
Y282016D01*
X168421Y280730D01*
X169406Y279745D01*
X170692Y279212D01*
X172084D01*
X173371Y279745D01*
X174355Y280730D01*
X174888Y282016D01*
Y283408D01*
X174355Y284695D01*
X173371Y285679D01*
X172084Y286212D01*
D02*
G37*
G36*
X123446Y270755D02*
X122054D01*
X120767Y270222D01*
X119783Y269238D01*
X119250Y267951D01*
Y266559D01*
X119783Y265272D01*
X120767Y264288D01*
X122054Y263755D01*
X123446D01*
X124733Y264288D01*
X125717Y265272D01*
X126250Y266559D01*
Y267951D01*
X125717Y269238D01*
X124733Y270222D01*
X123446Y270755D01*
D02*
G37*
G36*
X230229Y304250D02*
X225271D01*
X220374Y303474D01*
X215658Y301942D01*
X211240Y299691D01*
X207229Y296777D01*
X203723Y293271D01*
X200809Y289260D01*
X198558Y284842D01*
X197026Y280126D01*
X196250Y275229D01*
Y270271D01*
X197026Y265374D01*
X198558Y260658D01*
X200809Y256240D01*
X203723Y252229D01*
X207229Y248723D01*
X211240Y245809D01*
X215658Y243558D01*
X220374Y242026D01*
X225271Y241250D01*
X230229D01*
X235126Y242026D01*
X239842Y243558D01*
X244260Y245809D01*
X248271Y248723D01*
X251777Y252229D01*
X254691Y256240D01*
X256942Y260658D01*
X258474Y265374D01*
X259250Y270271D01*
Y275229D01*
X258474Y280126D01*
X256942Y284842D01*
X254691Y289260D01*
X251777Y293271D01*
X248271Y296777D01*
X244260Y299691D01*
X239842Y301942D01*
X235126Y303474D01*
X230229Y304250D01*
D02*
G37*
G36*
X262941Y182250D02*
X261549D01*
X260262Y181717D01*
X259278Y180733D01*
X258745Y179446D01*
Y178054D01*
X259278Y176767D01*
X260262Y175783D01*
X261549Y175250D01*
X262941D01*
X264228Y175783D01*
X265212Y176767D01*
X265745Y178054D01*
Y179446D01*
X265212Y180733D01*
X264228Y181717D01*
X262941Y182250D01*
D02*
G37*
G36*
X152901Y172209D02*
X151508D01*
X150222Y171676D01*
X149237Y170692D01*
X148705Y169405D01*
Y168013D01*
X149237Y166726D01*
X150222Y165742D01*
X151508Y165209D01*
X152901D01*
X154187Y165742D01*
X155172Y166726D01*
X155704Y168013D01*
Y169405D01*
X155172Y170692D01*
X154187Y171676D01*
X152901Y172209D01*
D02*
G37*
G36*
X190696Y153500D02*
X189304D01*
X188017Y152967D01*
X187033Y151983D01*
X186500Y150696D01*
Y149304D01*
X187033Y148017D01*
X188017Y147033D01*
X189304Y146500D01*
X190696D01*
X191983Y147033D01*
X192967Y148017D01*
X193500Y149304D01*
Y150696D01*
X192967Y151983D01*
X191983Y152967D01*
X190696Y153500D01*
D02*
G37*
G36*
X180696D02*
X179304D01*
X178017Y152967D01*
X177033Y151983D01*
X176500Y150696D01*
Y149304D01*
X177033Y148017D01*
X178017Y147033D01*
X179304Y146500D01*
X180696D01*
X181983Y147033D01*
X182967Y148017D01*
X183500Y149304D01*
Y150696D01*
X182967Y151983D01*
X181983Y152967D01*
X180696Y153500D01*
D02*
G37*
G36*
X190696Y143500D02*
X189304D01*
X188017Y142967D01*
X187033Y141983D01*
X186500Y140696D01*
Y139304D01*
X187033Y138017D01*
X188017Y137033D01*
X189304Y136500D01*
X190696D01*
X191983Y137033D01*
X192967Y138017D01*
X193500Y139304D01*
Y140696D01*
X192967Y141983D01*
X191983Y142967D01*
X190696Y143500D01*
D02*
G37*
G36*
X180696D02*
X179304D01*
X178017Y142967D01*
X177033Y141983D01*
X176500Y140696D01*
Y139304D01*
X177033Y138017D01*
X178017Y137033D01*
X179304Y136500D01*
X180696D01*
X181983Y137033D01*
X182967Y138017D01*
X183500Y139304D01*
Y140696D01*
X182967Y141983D01*
X181983Y142967D01*
X180696Y143500D01*
D02*
G37*
G36*
X200696Y133500D02*
X199304D01*
X198017Y132967D01*
X197033Y131983D01*
X196500Y130696D01*
Y129304D01*
X197033Y128017D01*
X198017Y127033D01*
X199304Y126500D01*
X200696D01*
X201983Y127033D01*
X202967Y128017D01*
X203500Y129304D01*
Y130696D01*
X202967Y131983D01*
X201983Y132967D01*
X200696Y133500D01*
D02*
G37*
G36*
X190696D02*
X189304D01*
X188017Y132967D01*
X187033Y131983D01*
X186500Y130696D01*
Y129304D01*
X187033Y128017D01*
X188017Y127033D01*
X189304Y126500D01*
X190696D01*
X191983Y127033D01*
X192967Y128017D01*
X193500Y129304D01*
Y130696D01*
X192967Y131983D01*
X191983Y132967D01*
X190696Y133500D01*
D02*
G37*
G36*
X180696D02*
X179304D01*
X178017Y132967D01*
X177033Y131983D01*
X176500Y130696D01*
Y129304D01*
X177033Y128017D01*
X178017Y127033D01*
X179304Y126500D01*
X180696D01*
X181983Y127033D01*
X182967Y128017D01*
X183500Y129304D01*
Y130696D01*
X182967Y131983D01*
X181983Y132967D01*
X180696Y133500D01*
D02*
G37*
G36*
X200696Y123500D02*
X199304D01*
X198017Y122967D01*
X197033Y121983D01*
X196500Y120696D01*
Y119304D01*
X197033Y118017D01*
X198017Y117033D01*
X199304Y116500D01*
X200696D01*
X201983Y117033D01*
X202967Y118017D01*
X203500Y119304D01*
Y120696D01*
X202967Y121983D01*
X201983Y122967D01*
X200696Y123500D01*
D02*
G37*
G36*
X190696D02*
X189304D01*
X188017Y122967D01*
X187033Y121983D01*
X186500Y120696D01*
Y119304D01*
X187033Y118017D01*
X188017Y117033D01*
X189304Y116500D01*
X190696D01*
X191983Y117033D01*
X192967Y118017D01*
X193500Y119304D01*
Y120696D01*
X192967Y121983D01*
X191983Y122967D01*
X190696Y123500D01*
D02*
G37*
G36*
X180696D02*
X179304D01*
X178017Y122967D01*
X177033Y121983D01*
X176500Y120696D01*
Y119304D01*
X177033Y118017D01*
X178017Y117033D01*
X179304Y116500D01*
X180696D01*
X181983Y117033D01*
X182967Y118017D01*
X183500Y119304D01*
Y120696D01*
X182967Y121983D01*
X181983Y122967D01*
X180696Y123500D01*
D02*
G37*
G36*
X723196Y328500D02*
X721804D01*
X720517Y327967D01*
X719533Y326983D01*
X719000Y325696D01*
Y324304D01*
X719533Y323017D01*
X720517Y322033D01*
X721804Y321500D01*
X723196D01*
X724483Y322033D01*
X725467Y323017D01*
X726000Y324304D01*
Y325696D01*
X725467Y326983D01*
X724483Y327967D01*
X723196Y328500D01*
D02*
G37*
G36*
X721514Y114943D02*
X720122D01*
X718835Y114410D01*
X717850Y113426D01*
X717318Y112139D01*
Y110747D01*
X717850Y109461D01*
X718835Y108476D01*
X720122Y107943D01*
X721514D01*
X722800Y108476D01*
X723785Y109461D01*
X724318Y110747D01*
Y112139D01*
X723785Y113426D01*
X722800Y114410D01*
X721514Y114943D01*
D02*
G37*
G36*
X703514D02*
X702122D01*
X700835Y114410D01*
X699850Y113426D01*
X699318Y112139D01*
Y110747D01*
X699850Y109461D01*
X700835Y108476D01*
X702122Y107943D01*
X703514D01*
X704800Y108476D01*
X705785Y109461D01*
X706318Y110747D01*
Y112139D01*
X705785Y113426D01*
X704800Y114410D01*
X703514Y114943D01*
D02*
G37*
G36*
X658075Y105849D02*
X656683D01*
X655397Y105316D01*
X654412Y104332D01*
X653879Y103045D01*
Y101653D01*
X654412Y100366D01*
X655397Y99382D01*
X656683Y98849D01*
X658075D01*
X659362Y99382D01*
X660346Y100366D01*
X660879Y101653D01*
Y103045D01*
X660346Y104332D01*
X659362Y105316D01*
X658075Y105849D01*
D02*
G37*
G36*
X518196Y100250D02*
X516804D01*
X515517Y99717D01*
X514533Y98733D01*
X514000Y97446D01*
Y96054D01*
X514533Y94767D01*
X515517Y93783D01*
X516804Y93250D01*
X518196D01*
X519483Y93783D01*
X520467Y94767D01*
X521000Y96054D01*
Y97446D01*
X520467Y98733D01*
X519483Y99717D01*
X518196Y100250D01*
D02*
G37*
G36*
X721446Y98500D02*
X720054D01*
X718767Y97967D01*
X717783Y96983D01*
X717250Y95696D01*
Y94304D01*
X717783Y93017D01*
X718767Y92033D01*
X720054Y91500D01*
X721446D01*
X722733Y92033D01*
X723717Y93017D01*
X724250Y94304D01*
Y95696D01*
X723717Y96983D01*
X722733Y97967D01*
X721446Y98500D01*
D02*
G37*
%LPD*%
D12*
X557750Y70838D02*
Y77338D01*
X149488Y69350D02*
X556262D01*
X148000Y70838D02*
Y114000D01*
Y70838D02*
X149488Y69350D01*
X556262D02*
X557750Y70838D01*
X440000Y395000D02*
X457000D01*
X440000Y316000D02*
Y395000D01*
X269000Y316000D02*
X440000D01*
D126*
X227750Y693250D02*
D03*
X452750D02*
D03*
X677750Y272750D02*
D03*
X452750D02*
D03*
X227750D02*
D03*
X677750Y693250D02*
D03*
D128*
X457000Y395000D02*
D03*
D129*
X90000Y551180D02*
D03*
Y531180D02*
D03*
X70000Y551180D02*
D03*
Y531180D02*
D03*
D132*
X244014Y676490D02*
D03*
Y709010D02*
D03*
X211486D02*
D03*
Y676490D02*
D03*
X204750Y692750D02*
D03*
X227750Y715750D02*
D03*
X250750Y692750D02*
D03*
X227750Y669750D02*
D03*
X244014Y255990D02*
D03*
Y288510D02*
D03*
X211486D02*
D03*
Y255990D02*
D03*
X204750Y272250D02*
D03*
X227750Y295250D02*
D03*
X250750Y272250D02*
D03*
X227750Y249250D02*
D03*
X469013Y255990D02*
D03*
Y288510D02*
D03*
X436487D02*
D03*
Y255990D02*
D03*
X429750Y272250D02*
D03*
X452750Y295250D02*
D03*
X475750Y272250D02*
D03*
X452750Y249250D02*
D03*
X694014Y255990D02*
D03*
Y288510D02*
D03*
X661487D02*
D03*
Y255990D02*
D03*
X654750Y272250D02*
D03*
X677750Y295250D02*
D03*
X700750Y272250D02*
D03*
X677750Y249250D02*
D03*
X694014Y676490D02*
D03*
Y709010D02*
D03*
X661487D02*
D03*
Y676490D02*
D03*
X654750Y692750D02*
D03*
X677750Y715750D02*
D03*
X700750Y692750D02*
D03*
X677750Y669750D02*
D03*
X469013Y676490D02*
D03*
Y709010D02*
D03*
X436487D02*
D03*
Y676490D02*
D03*
X429750Y692750D02*
D03*
X452750Y715750D02*
D03*
X475750Y692750D02*
D03*
X452750Y669750D02*
D03*
D133*
X152490Y409981D02*
D03*
X350000Y340000D02*
D03*
X360000D02*
D03*
X330000D02*
D03*
X340000D02*
D03*
X310000D02*
D03*
X320000D02*
D03*
X300000D02*
D03*
X390000D02*
D03*
X400000D02*
D03*
X370000D02*
D03*
X380000D02*
D03*
X390000Y330000D02*
D03*
X400000D02*
D03*
X370000D02*
D03*
X380000D02*
D03*
X320000D02*
D03*
X330000D02*
D03*
X300000D02*
D03*
X310000D02*
D03*
X350000D02*
D03*
X360000D02*
D03*
X340000D02*
D03*
X170000Y692500D02*
D03*
Y682500D02*
D03*
Y702500D02*
D03*
Y672500D02*
D03*
X160000Y702500D02*
D03*
Y692500D02*
D03*
Y682500D02*
D03*
Y672500D02*
D03*
X150000Y682500D02*
D03*
Y672500D02*
D03*
X262500Y392000D02*
D03*
X187000Y444245D02*
D03*
X172750Y491740D02*
D03*
X170500Y426245D02*
D03*
X557750Y77338D02*
D03*
X171000Y265000D02*
D03*
X153500Y430500D02*
D03*
X154750Y267255D02*
D03*
X154259Y369975D02*
D03*
X120750Y430500D02*
D03*
X138750Y267255D02*
D03*
X148000Y134000D02*
D03*
Y124000D02*
D03*
Y114000D02*
D03*
X138000Y134000D02*
D03*
X128000Y124000D02*
D03*
Y134000D02*
D03*
X138000Y124000D02*
D03*
Y114000D02*
D03*
X128000D02*
D03*
X785000Y617500D02*
D03*
X777500D02*
D03*
X770000D02*
D03*
X785000Y632500D02*
D03*
Y625000D02*
D03*
X777500Y632500D02*
D03*
Y625000D02*
D03*
X770000Y632500D02*
D03*
Y625000D02*
D03*
X785000Y640000D02*
D03*
X777500D02*
D03*
X770000D02*
D03*
X398000Y94000D02*
D03*
Y104000D02*
D03*
X408000D02*
D03*
Y94000D02*
D03*
X418000D02*
D03*
Y104000D02*
D03*
X682500Y177500D02*
D03*
X672500D02*
D03*
X662500D02*
D03*
X652500D02*
D03*
X642500D02*
D03*
X487059Y528837D02*
D03*
Y538837D02*
D03*
X477059D02*
D03*
X467059D02*
D03*
X477059Y528837D02*
D03*
X467059D02*
D03*
X497059D02*
D03*
Y538837D02*
D03*
X507059Y528837D02*
D03*
Y538837D02*
D03*
X517059Y528837D02*
D03*
Y538837D02*
D03*
X527059Y528837D02*
D03*
Y538837D02*
D03*
X537059Y528837D02*
D03*
Y538837D02*
D03*
X547059Y528837D02*
D03*
Y538837D02*
D03*
X325000Y540000D02*
D03*
Y530000D02*
D03*
X315000Y540000D02*
D03*
Y530000D02*
D03*
X305000Y540000D02*
D03*
Y530000D02*
D03*
X295000Y540000D02*
D03*
Y530000D02*
D03*
X285000Y540000D02*
D03*
Y530000D02*
D03*
X275000Y540000D02*
D03*
Y530000D02*
D03*
X265000Y540000D02*
D03*
Y530000D02*
D03*
X245000D02*
D03*
X255000D02*
D03*
X245000Y540000D02*
D03*
X255000D02*
D03*
M02*
