M48
;Layer_Color=9474304
;FILE_FORMAT=4:4
METRIC,LZ
;TYPE=PLATED
T01F00S00C0.3000
T02F00S00C0.7000
T03F00S00C0.8000
T04F00S00C2.9000
T05F00S00C3.2000
;TYPE=NON_PLATED
T06F00S00C0.9906
T07F00S00C2.3749
%
T01
X007015Y000345
X007195
X0071125Y0005225
X0072075Y00095
X00720818Y00111443
X00702818
X00745Y001175
X00755
X00765
Y001275
Y001375
X00755
Y001275
X00745
Y001375
X00765153Y00054047
X00759Y000392
X00765153Y00024353
X0078Y000182
X00794847Y00024353
X00801Y000392
X00794847Y00054047
X0078Y000602
X00827Y0005
X0083374Y00033737
X0085Y00027
X0086626Y00033737
X00873Y0005
X0086626Y00066263
X0085Y00073
X0083374Y00066263
X00694014Y0025599
X0070075Y0027225
X00694014Y0028851
X00661487
X0065475Y0027225
X00661487Y0025599
X0067775Y0024925
X006775Y0023
X0067
X006625
X00655
X006475
X0064
X00685
X006825Y001775
X006725
X006625
X006525
X006425
X00632405Y00127301
X00625Y00085338
X00657379Y00102349
X0055775Y00077338
X005175Y0009675
X00418Y00094
X00408
X00398
Y00104
X00408
X00418
X0038Y001
X0037
Y0009
X0036
X0035
Y0008
X0034
X0033
X0032
X0031
X003
Y0009
X0031
X0032
X0033
Y001
X0032
X0031
X003
X0034
Y0009
X0035Y001
X0036
Y0008
X0037
X0038
Y0009
X00372Y0017
X003425Y00170005
X003265Y00170255
X0031175Y0019975
X0029575Y00199654
X00296Y00215654
X0032625Y0022625
X0031149Y00247654
X00350628Y00271167
X0037425Y0027075
X00390495Y0027
X003835Y002855
X00436487Y0028851
X0042975Y0027225
X00436487Y0025599
X0045275Y0024925
X00469013Y0025599
X0047575Y0027225
X00469013Y0028851
X0050125Y00226255
X00503755Y0021
X0050125Y0019375
X0040825Y00199274
X00405745Y00215274
X0040825Y00232274
X00584497Y00215545
X00599745Y00215691
X0059949Y00199691
X0061375Y002595
X0061793Y0028628
X00584Y0026275
X0025075Y0027225
X00244014Y0025599
X0022775Y0024925
X00211486Y0025599
X0020475Y0027225
X00211486Y0028851
X00244014
X00171388Y00282712
X00171Y00265
X0015475Y00267255
X0013875
X0012275
X00152205Y00168709
X00148Y00134
Y00124
Y00114
X00138
Y00124
Y00134
X00128
Y00124
Y00114
X00088615Y00101669
X00082115Y00101748
X0006626Y00066263
X0005Y00073
X0003374Y00066263
X00027Y0005
X0003374Y00033737
X0005Y00027
X0006626Y00033737
X00073Y0005
X00105153Y00054047
X00099Y000392
X00105153Y00024353
X0012Y000182
X00134847Y00024353
X00141Y000392
X00134847Y00054047
X0012Y000602
X0018Y0012
Y0013
Y0014
X0019
Y0015
X0018
X0019Y0013
Y0012
X002
Y0013
X00262245Y0017875
X0029Y001
Y0009
Y0008
X0022775Y0029525
X0016725Y0034625
X001745Y00357
X00154259Y00369975
X0015249Y00409981
X001535Y004305
X001705Y00426245
X00187Y00444245
X00188698Y0049174
X002045
X002205
X002365
X00245Y0053
X00255
X00265
X00275
X00285
Y0054
X00275
X00265
X00255
X00245
Y005525
X00255
Y005625
X00245
Y005725
Y005825
Y005925
X00255
Y005825
Y005725
X00265
Y005625
Y005525
X00275
X00285
Y005625
X00275
Y005725
X00285
Y005825
X00275
X00265
Y005925
X00275
X00285
X00281Y0048575
X0028375Y0043425
X00266996Y00431743
X002625Y00392
X0025975Y0037525
X00125Y00384
X0012075Y004305
X00129251Y00468
X00145251
X0017275Y0049174
X001415Y00643255
X0011475Y00643255
X00082Y00643
X0007775Y0068025
X00134Y00679
X0015Y006825
X0016
X0017
Y006725
X0016
X0015
X00211486Y0067649
X0022775Y0066975
X00244014Y0067649
X000715Y006
X00295Y005825
Y005725
Y005625
Y005525
X00305
Y005625
Y005725
Y005825
X003205Y005935
X00315Y005625
Y005525
Y0054
X00325
Y0053
X00315
X00305
Y0054
X00295
Y0053
X00299Y0048575
X0032045Y0043595
X0032Y003975
X0031
Y003875
X003
Y003775
X0031
X0032
Y003875
X0033
Y003775
X0034
X0035
X0036
X0037
X0038
Y003875
X0037
X0036
X0035
X0034
Y003975
X0035
X0036
X0037
X0038
X0039
Y003875
Y003775
X004
X0041
X0042
X0043
Y003875
X0042
X0041
X004
Y003975
X0041
X0042
X0043
X00411495Y0043875
X00425Y00455
X00414Y004715
X00399538Y00471451
X0037255Y0047405
X0033Y003975
X003
Y0034
X0031
X0032
X0033
X0034
X0035
X0036
X0037
X0038
X0039
X004
Y0033
X0039
X0038
X0037
X0036
X0035
X0034
X0033
X0032
X0031
X003
X00374Y003105
X0045275Y0029525
X00509338Y0030557
X0051675Y00330755
X0051625Y0034675
X0048125Y00346
X00482853Y00409567
X00491845Y00410293
X0049341Y00431614
X00491575Y00438249
X00486668Y00442513
X00486464Y00454423
X00493016Y00457575
X00490698Y00464983
X00493Y004725
Y004835
X00497059Y00528837
X00487059
Y00538837
X00477059
X00467059
Y00528837
X00477059
X004765Y005535
X004665
Y005635
Y005735
Y005835
Y005935
X004765
Y005835
Y005735
Y005635
X004865
Y005535
X004965
X005065
X005165
X005265
Y005635
X005165
X005065
X004965
Y005735
X004865
Y005835
X004965
X005065
Y005735
X005165
Y005835
X005265
Y005735
X005365Y005635
Y005535
X00537059Y00538837
X00527059
X00517059
X00507059
X00497059
X00507059Y00528837
X00517059
X00527059
X00537059
X00547059
Y00538837
X005453Y005935
X005065Y005935
X004965
X004865
X00469013Y0067649
X0045275Y0066975
X00436487Y0067649
X00661487
X0067775Y0066975
X00676Y00607755
X00590367Y00566169
X00582992Y00561366
X00609204Y00537122
X0061Y005185
X00605608Y00479854
X0059425Y004725
X005955Y004435
X00611Y004345
X006105Y00423
X00603343Y00411827
X00598137Y00417
X00584855Y00415942
X0058Y00408
X00584Y00401
X005645Y00408
X00563Y004285
X00563Y004465
X00551Y0047423
X00539Y0047757
X005415Y00408
X0054225Y003675
X00531303Y00367562
X00555691Y0036269
X00561838Y00368461
X00582395Y00363158
X005865Y0035
X0057275Y0035325
X0059825Y0036875
X00609291Y00368423
X00644283Y00364555
X00671Y0036125
Y003545
X0067775
Y0036125
Y00368
X00671
X00685
Y0036125
Y003545
X00681044Y00390423
X00689Y00429338
X00662357Y00427695
X0065682Y004311
X00640048Y00412224
X0064525Y00482
Y00493
X00675Y0048025
X0067775Y0029525
X00620489Y00300111
X0058625Y0031875
X007225Y00325
X00775Y0036
Y0037
Y0038
Y0039
X00765
Y004
X00775
X00785
Y0039
Y0038
Y0037
Y0036
X00795
Y0037
Y0038
Y0039
Y004
X00805
Y0039
Y0038
Y0037
Y0036
X00844995Y0035325
X00863Y0037575
X00845245Y003985
X00863Y00421
X008475Y0044375
X008295Y004435
X0081875Y0048165
Y0050705
Y005325
X008315Y00532
X00762Y0052007
X00756Y00515
X007632Y0057725
X007472Y00579755
X00730764Y0057725
X0074Y00607
X0077Y006175
X007775
X00785
Y00625
Y006325
Y0064
X007775
Y006325
X0077
Y0064
Y00625
X007775
X0074795Y00687495
X0073195
X00731Y00672
X00694014Y0067649
X00831657Y00681625
X00761Y00424
X00702272Y00479182
X0070075Y0069275
X00694014Y0070901
X0075051Y00753125
X00748005Y00769375
X00788849Y00788338
X00815033Y00788192
X008Y0081007
X00802284Y00862622
X00776945Y00864821
X00771097Y00904053
X0075625Y008979
X00741403Y00904053
X0073525Y009189
X00741403Y00933747
X0075625Y009399
X00771097Y00933747
X0077725Y009189
X008025Y009081
X0080924Y00891836
X008255Y008851
X0084176Y00891836
X008485Y009081
X0084176Y00924363
X008255Y009311
X0080924Y00924363
X00692Y00896
X00813Y00748
X00803Y00705
X0083145Y0069725
X0067775Y0071575
X00661487Y0070901
X0065475Y0069275
X00668Y00768
Y00795
X00638Y00801
X0062Y007675
X0052624Y00797698
X0048105Y0080765
Y0083305
X00446Y00856
X00429575Y0082102
X0042895Y0079495
X00388Y00787
X00389Y00864
X00356Y00882
X005395
X00620084Y00896038
X00641Y0089675
X006725Y0089725
X0064905Y00863512
X00464Y00779
X0045275Y0071575
X00469013Y0070901
X0047575Y0069275
X0042975
X00436487Y0070901
X00244014
X0025075Y0069275
X0020475
X00211486Y0070901
X0022775Y0071575
X0017Y007025
Y006925
X0016
Y007025
X001775Y008
X001875
X001975
X002075
X002175
X002275
Y0081
X002175
X002075
X001975
X001875
X001775
X00262Y00806
X0029
X00272167Y00856716
X00283Y00871255
Y00886745
X00266Y0088925
X00232508Y00884784
X00222508
Y00874784
Y00864784
X00232508
Y00874784
X00173747Y00904053
X001589Y008979
X00144053Y00904053
X001379Y009189
X00144053Y00933747
X001589Y009399
X00173747Y00933747
X001799Y009189
X001119Y009081
X0010516Y00891836
X000889Y008851
X0007264Y00891836
X000659Y009081
X0007264Y00924363
X000889Y009311
X0010516Y00924363
X000805Y0078875
T02
X00457Y00395
Y00425
Y00449
Y00479
T03
X0007Y0037118
X0009
Y0039118
X0007
Y0041118
X0009
Y0043118
Y0045118
Y0047118
Y0049118
X0007
Y0047118
Y0045118
Y0043118
Y0051118
X0009
Y0053118
X0007
Y0055118
X0009
T04
X0078Y000392
X0012
X007555Y009189
X001589
T05
X0085Y0005
X0067775Y0027275
X0045275
X0022775
X0005Y0005
X008255Y009081
X0067775Y0069325
X0045275
X0022775
X000889Y009081
T06
X0081495Y0046895
X0083525
X008251Y0054515
T07
X007997Y00488
X008505
Y0054515
X007997
M30
