G04*
G04 #@! TF.GenerationSoftware,Altium Limited,Altium Designer,26.2.0 (7)*
G04*
G04 Layer_Color=16711935*
%FSLAX44Y44*%
%MOMM*%
G71*
G04*
G04 #@! TF.SameCoordinates,33BCE108-0E9A-4A5C-92EA-E60CA21C167F*
G04*
G04*
G04 #@! TF.FilePolarity,Negative*
G04*
G01*
G75*
%ADD22R,1.0000X1.0750*%
%ADD29R,0.9000X0.6500*%
%ADD50R,0.6500X0.9000*%
%ADD64C,6.1500*%
%ADD65C,5.6000*%
%ADD66C,1.3500*%
%ADD67C,1.4000*%
%ADD68C,1.0906*%
%ADD69C,2.4749*%
%ADD70C,0.7500*%
%ADD71C,0.6500*%
G04:AMPARAMS|DCode=148|XSize=4.15mm|YSize=12.15mm|CornerRadius=0.675mm|HoleSize=0mm|Usage=FLASHONLY|Rotation=270.000|XOffset=0mm|YOffset=0mm|HoleType=Round|Shape=RoundedRectangle|*
%AMROUNDEDRECTD148*
21,1,4.1500,10.8000,0,0,270.0*
21,1,2.8000,12.1500,0,0,270.0*
1,1,1.3500,-5.4000,-1.4000*
1,1,1.3500,-5.4000,1.4000*
1,1,1.3500,5.4000,1.4000*
1,1,1.3500,5.4000,-1.4000*
%
%ADD148ROUNDEDRECTD148*%
%ADD149R,1.2500X1.8500*%
G04:AMPARAMS|DCode=150|XSize=1.7mm|YSize=0.38mm|CornerRadius=0.12mm|HoleSize=0mm|Usage=FLASHONLY|Rotation=270.000|XOffset=0mm|YOffset=0mm|HoleType=Round|Shape=RoundedRectangle|*
%AMROUNDEDRECTD150*
21,1,1.7000,0.1400,0,0,270.0*
21,1,1.4600,0.3800,0,0,270.0*
1,1,0.2400,-0.0700,-0.7300*
1,1,0.2400,-0.0700,0.7300*
1,1,0.2400,0.0700,0.7300*
1,1,0.2400,0.0700,-0.7300*
%
%ADD150ROUNDEDRECTD150*%
G04:AMPARAMS|DCode=151|XSize=1.7mm|YSize=0.38mm|CornerRadius=0.12mm|HoleSize=0mm|Usage=FLASHONLY|Rotation=0.000|XOffset=0mm|YOffset=0mm|HoleType=Round|Shape=RoundedRectangle|*
%AMROUNDEDRECTD151*
21,1,1.7000,0.1400,0,0,0.0*
21,1,1.4600,0.3800,0,0,0.0*
1,1,0.2400,0.7300,-0.0700*
1,1,0.2400,-0.7300,-0.0700*
1,1,0.2400,-0.7300,0.0700*
1,1,0.2400,0.7300,0.0700*
%
%ADD151ROUNDEDRECTD151*%
%ADD152R,1.4500X1.2000*%
%ADD153R,1.4500X1.0500*%
G04:AMPARAMS|DCode=154|XSize=17.15mm|YSize=9.65mm|CornerRadius=0.55mm|HoleSize=0mm|Usage=FLASHONLY|Rotation=270.000|XOffset=0mm|YOffset=0mm|HoleType=Round|Shape=RoundedRectangle|*
%AMROUNDEDRECTD154*
21,1,17.1500,8.5500,0,0,270.0*
21,1,16.0500,9.6500,0,0,270.0*
1,1,1.1000,-4.2750,-8.0250*
1,1,1.1000,-4.2750,8.0250*
1,1,1.1000,4.2750,8.0250*
1,1,1.1000,4.2750,-8.0250*
%
%ADD154ROUNDEDRECTD154*%
D22*
X137000Y419000D02*
D03*
X152490D02*
D03*
X136962Y400925D02*
D03*
X152452D02*
D03*
D29*
X493000Y472500D02*
D03*
X645250Y493000D02*
D03*
X609054Y530565D02*
D03*
X675000Y475000D02*
D03*
X675000Y485500D02*
D03*
X675000Y464000D02*
D03*
X675000Y496500D02*
D03*
X493000Y483500D02*
D03*
X645250Y482000D02*
D03*
X609054Y519565D02*
D03*
D50*
X542250Y367500D02*
D03*
X609250Y368750D02*
D03*
X598250D02*
D03*
X531250Y367500D02*
D03*
D64*
X50000Y50000D02*
D03*
X88900Y908100D02*
D03*
X850000Y50000D02*
D03*
X825500Y908100D02*
D03*
D65*
X120000Y39200D02*
D03*
X158900Y918900D02*
D03*
X780000Y39200D02*
D03*
X755500Y918900D02*
D03*
D66*
X457000Y449000D02*
D03*
Y395000D02*
D03*
Y479000D02*
D03*
Y425000D02*
D03*
D67*
X70000Y371180D02*
D03*
Y391180D02*
D03*
Y431180D02*
D03*
X90000D02*
D03*
X70000Y491180D02*
D03*
X90000D02*
D03*
X70000Y511180D02*
D03*
X90000D02*
D03*
Y551180D02*
D03*
Y531180D02*
D03*
X70000Y551180D02*
D03*
Y531180D02*
D03*
X90000Y471180D02*
D03*
X70000D02*
D03*
X90000Y451180D02*
D03*
X70000D02*
D03*
X90000Y411180D02*
D03*
X70000D02*
D03*
X90000Y391180D02*
D03*
Y371180D02*
D03*
D68*
X825100Y545150D02*
D03*
X835250Y468950D02*
D03*
X814950D02*
D03*
D69*
X850500Y545150D02*
D03*
Y488000D02*
D03*
X799700Y545150D02*
D03*
Y488000D02*
D03*
D70*
X244014Y676490D02*
D03*
Y709010D02*
D03*
X211486D02*
D03*
Y676490D02*
D03*
X204750Y692750D02*
D03*
X227750Y715750D02*
D03*
X250750Y692750D02*
D03*
X227750Y669750D02*
D03*
X244014Y255990D02*
D03*
Y288510D02*
D03*
X211486D02*
D03*
Y255990D02*
D03*
X204750Y272250D02*
D03*
X227750Y295250D02*
D03*
X250750Y272250D02*
D03*
X227750Y249250D02*
D03*
X469013Y255990D02*
D03*
Y288510D02*
D03*
X436487D02*
D03*
Y255990D02*
D03*
X429750Y272250D02*
D03*
X452750Y295250D02*
D03*
X475750Y272250D02*
D03*
X452750Y249250D02*
D03*
X694014Y255990D02*
D03*
Y288510D02*
D03*
X661487D02*
D03*
Y255990D02*
D03*
X654750Y272250D02*
D03*
X677750Y295250D02*
D03*
X700750Y272250D02*
D03*
X677750Y249250D02*
D03*
X694014Y676490D02*
D03*
Y709010D02*
D03*
X661487D02*
D03*
Y676490D02*
D03*
X654750Y692750D02*
D03*
X677750Y715750D02*
D03*
X700750Y692750D02*
D03*
X677750Y669750D02*
D03*
X469013Y676490D02*
D03*
Y709010D02*
D03*
X436487D02*
D03*
Y676490D02*
D03*
X429750Y692750D02*
D03*
X452750Y715750D02*
D03*
X475750Y692750D02*
D03*
X452750Y669750D02*
D03*
X120000Y18200D02*
D03*
X134847Y24353D02*
D03*
X105153D02*
D03*
X141000Y39200D02*
D03*
X99000D02*
D03*
X134847Y54047D02*
D03*
X105153D02*
D03*
X120000Y60200D02*
D03*
X144053Y904053D02*
D03*
X158900Y897900D02*
D03*
X137900Y918900D02*
D03*
X144053Y933747D02*
D03*
X158900Y939900D02*
D03*
X173747Y933747D02*
D03*
Y904053D02*
D03*
X179900Y918900D02*
D03*
X780000Y18200D02*
D03*
X794847Y24353D02*
D03*
X765153D02*
D03*
X801000Y39200D02*
D03*
X759000D02*
D03*
X765153Y54047D02*
D03*
X794847D02*
D03*
X780000Y60200D02*
D03*
X741403Y904053D02*
D03*
X735250Y918900D02*
D03*
X741403Y933747D02*
D03*
X756250Y939900D02*
D03*
Y897900D02*
D03*
X771097Y904053D02*
D03*
Y933747D02*
D03*
X777250Y918900D02*
D03*
D71*
X50000Y27000D02*
D03*
X66260Y33737D02*
D03*
X33740D02*
D03*
X27000Y50000D02*
D03*
X73000D02*
D03*
X33740Y66263D02*
D03*
X66260D02*
D03*
X50000Y73000D02*
D03*
X88900Y885100D02*
D03*
X72640Y891836D02*
D03*
X105160D02*
D03*
X65900Y908100D02*
D03*
X111900D02*
D03*
X72640Y924363D02*
D03*
X105160D02*
D03*
X88900Y931100D02*
D03*
X850000Y27000D02*
D03*
X866260Y33737D02*
D03*
X833740D02*
D03*
X827000Y50000D02*
D03*
X866260Y66263D02*
D03*
X873000Y50000D02*
D03*
X833740Y66263D02*
D03*
X850000Y73000D02*
D03*
X802500Y908100D02*
D03*
X809240Y891836D02*
D03*
Y924363D02*
D03*
X825500Y931100D02*
D03*
Y885100D02*
D03*
X841760Y891836D02*
D03*
X848500Y908100D02*
D03*
X841760Y924363D02*
D03*
D148*
X115250Y837750D02*
D03*
X790250D02*
D03*
X565250D02*
D03*
X340250D02*
D03*
X115250Y127750D02*
D03*
X340250D02*
D03*
X790250D02*
D03*
X565250D02*
D03*
D149*
X468250D02*
D03*
X693250Y837750D02*
D03*
X243250D02*
D03*
X437250Y127750D02*
D03*
X662250Y837750D02*
D03*
X212250D02*
D03*
D150*
X537250Y388000D02*
D03*
X602250D02*
D03*
Y502000D02*
D03*
X577250D02*
D03*
X587250Y388000D02*
D03*
X592250D02*
D03*
X572250Y502000D02*
D03*
X587250D02*
D03*
X592250D02*
D03*
X597250D02*
D03*
X567250Y388000D02*
D03*
X542250D02*
D03*
X547250D02*
D03*
X552250D02*
D03*
X557250D02*
D03*
X562250D02*
D03*
X567250Y502000D02*
D03*
X562250D02*
D03*
X557250D02*
D03*
X552250D02*
D03*
X547250D02*
D03*
X542250D02*
D03*
X537250D02*
D03*
X532250D02*
D03*
X607250Y388000D02*
D03*
X572250D02*
D03*
X582250D02*
D03*
X577250D02*
D03*
X582250Y502000D02*
D03*
X532250Y388000D02*
D03*
X597250D02*
D03*
X607250Y502000D02*
D03*
D151*
X626750Y427500D02*
D03*
X512750Y477500D02*
D03*
Y432500D02*
D03*
Y427500D02*
D03*
X626750Y407500D02*
D03*
Y412500D02*
D03*
Y417500D02*
D03*
Y432500D02*
D03*
Y452500D02*
D03*
Y457500D02*
D03*
Y462500D02*
D03*
Y467500D02*
D03*
Y472500D02*
D03*
Y477500D02*
D03*
X512750Y407500D02*
D03*
Y412500D02*
D03*
Y417500D02*
D03*
Y422500D02*
D03*
Y437500D02*
D03*
Y442500D02*
D03*
Y447500D02*
D03*
Y452500D02*
D03*
Y457500D02*
D03*
Y462500D02*
D03*
Y467500D02*
D03*
Y472500D02*
D03*
X626750Y422500D02*
D03*
Y442500D02*
D03*
Y437500D02*
D03*
Y447500D02*
D03*
X512750Y482500D02*
D03*
X626750D02*
D03*
D152*
X690500Y471250D02*
D03*
X713500Y488750D02*
D03*
Y471250D02*
D03*
X690500Y488750D02*
D03*
D153*
X692500Y897250D02*
D03*
X621000Y896750D02*
D03*
X672500Y897250D02*
D03*
X641000Y896750D02*
D03*
X621000Y917750D02*
D03*
X692500Y918250D02*
D03*
X641000Y917750D02*
D03*
X672500Y918250D02*
D03*
D154*
X227750Y693250D02*
D03*
X452750D02*
D03*
X677750Y272750D02*
D03*
X452750D02*
D03*
X227750D02*
D03*
X677750Y693250D02*
D03*
M02*
