G04*
G04 #@! TF.GenerationSoftware,Altium Limited,Altium Designer,26.2.0 (7)*
G04*
G04 Layer_Physical_Order=2*
G04 Layer_Color=32768*
%FSLAX44Y44*%
%MOMM*%
G71*
G04*
G04 #@! TF.SameCoordinates,33BCE108-0E9A-4A5C-92EA-E60CA21C167F*
G04*
G04*
G04 #@! TF.FilePolarity,Negative*
G04*
G01*
G75*
%ADD134C,1.0160*%
%ADD135C,0.9778*%
%ADD136C,0.8778*%
%ADD137C,1.1684*%
%ADD138C,2.5527*%
%ADD139C,0.4778*%
D134*
X-504Y10500D02*
G03*
X10490Y-504I11004J0D01*
G01*
X282900Y-504D02*
G03*
X295404Y12000I0J12504D01*
G01*
X306900Y23496D02*
G03*
X295404Y12000I0J-11496D01*
G01*
X606396D02*
G03*
X594900Y23496I-11496J0D01*
G01*
X606396Y12000D02*
G03*
X618900Y-504I12504J0D01*
G01*
X891210Y-504D02*
G03*
X902204Y10500I-10J11004D01*
G01*
X902261Y333500D02*
G03*
X889757Y346004I-12504J0D01*
G01*
X878260Y357500D02*
G03*
X889757Y346004I11496J-0D01*
G01*
X889700Y576396D02*
G03*
X878204Y564900I0J-11496D01*
G01*
X889700Y576396D02*
G03*
X902204Y588900I0J12504D01*
G01*
Y948400D02*
G03*
X891210Y959404I-11004J0D01*
G01*
X618900Y959404D02*
G03*
X606396Y946900I0J-12504D01*
G01*
X594900Y935404D02*
G03*
X606396Y946900I0J11496D01*
G01*
X295404D02*
G03*
X306900Y935404I11496J0D01*
G01*
X295404Y946900D02*
G03*
X282900Y959404I-12504J0D01*
G01*
X10490Y959404D02*
G03*
X-504Y948400I10J-11004D01*
G01*
X-504Y588900D02*
G03*
X12000Y576396I12504J0D01*
G01*
X23496Y564900D02*
G03*
X12000Y576396I-11496J0D01*
G01*
X11943Y346004D02*
G03*
X23440Y357500I0J11496D01*
G01*
X11943Y346004D02*
G03*
X-560Y333500I0J-12504D01*
G01*
X10490Y-504D02*
X10500Y-504D01*
X282900D01*
X306900Y23496D02*
X365500D01*
X537500Y23396D01*
X537801Y23496D01*
X594900D01*
X618900Y-504D02*
X891200D01*
X891210Y-504D01*
X902204Y10500D02*
Y333268D01*
X902261Y333500D01*
X878204Y564850D02*
X878260Y357500D01*
X878204Y564850D02*
Y564900D01*
X902204Y588900D02*
Y948400D01*
X891200Y959404D02*
X891210Y959404D01*
X618900Y959404D02*
X891200D01*
X537801Y935404D02*
X594900D01*
X537500Y935504D02*
X537801Y935404D01*
X365500D02*
X537500Y935504D01*
X306900Y935404D02*
X365500D01*
X10500Y959404D02*
X282900D01*
X10490Y959404D02*
X10500Y959404D01*
X-504Y588900D02*
Y948400D01*
X23496Y564850D02*
Y564900D01*
X23440Y357500D02*
X23496Y564850D01*
X-560Y333500D02*
X-504Y333268D01*
Y10500D02*
Y333268D01*
D135*
X90000Y551180D02*
D03*
Y531180D02*
D03*
X70000Y551180D02*
D03*
Y531180D02*
D03*
X90000Y471180D02*
D03*
X70000D02*
D03*
X90000Y451180D02*
D03*
X70000D02*
D03*
X90000Y411180D02*
D03*
X70000D02*
D03*
X90000Y391180D02*
D03*
Y371180D02*
D03*
D136*
X457000Y395000D02*
D03*
Y479000D02*
D03*
Y425000D02*
D03*
D137*
X825100Y545150D02*
D03*
X835250Y468950D02*
D03*
X814950D02*
D03*
D138*
X850500Y545150D02*
D03*
Y488000D02*
D03*
X799700Y545150D02*
D03*
Y488000D02*
D03*
D139*
X152490Y409981D02*
D03*
X350000Y340000D02*
D03*
X360000D02*
D03*
X330000D02*
D03*
X340000D02*
D03*
X310000D02*
D03*
X320000D02*
D03*
X300000D02*
D03*
X390000D02*
D03*
X400000D02*
D03*
X370000D02*
D03*
X380000D02*
D03*
X390000Y330000D02*
D03*
X400000D02*
D03*
X370000D02*
D03*
X380000D02*
D03*
X320000D02*
D03*
X330000D02*
D03*
X300000D02*
D03*
X310000D02*
D03*
X350000D02*
D03*
X360000D02*
D03*
X340000D02*
D03*
X170000Y692500D02*
D03*
Y682500D02*
D03*
Y702500D02*
D03*
Y672500D02*
D03*
X160000Y702500D02*
D03*
Y692500D02*
D03*
Y682500D02*
D03*
Y672500D02*
D03*
X150000Y682500D02*
D03*
Y672500D02*
D03*
X482853Y409567D02*
D03*
X486668Y442513D02*
D03*
X491575Y438249D02*
D03*
X493410Y431614D02*
D03*
X486464Y454423D02*
D03*
X490698Y464983D02*
D03*
X493016Y457575D02*
D03*
X620084Y896038D02*
D03*
X692000Y896000D02*
D03*
X590367Y566169D02*
D03*
X582992Y561366D02*
D03*
X204500Y491740D02*
D03*
X220500D02*
D03*
X262500Y392000D02*
D03*
X187000Y444245D02*
D03*
X172750Y491740D02*
D03*
X170500Y426245D02*
D03*
X557750Y77338D02*
D03*
X171000Y265000D02*
D03*
X153500Y430500D02*
D03*
X154750Y267255D02*
D03*
X154259Y369975D02*
D03*
X120750Y430500D02*
D03*
X138750Y267255D02*
D03*
X148000Y134000D02*
D03*
Y124000D02*
D03*
Y114000D02*
D03*
X138000Y134000D02*
D03*
X128000Y124000D02*
D03*
Y134000D02*
D03*
X138000Y124000D02*
D03*
Y114000D02*
D03*
X128000D02*
D03*
X188698Y491740D02*
D03*
X765000Y117500D02*
D03*
Y127500D02*
D03*
Y137500D02*
D03*
X755000Y117500D02*
D03*
Y127500D02*
D03*
X745000Y117500D02*
D03*
Y127500D02*
D03*
X755000Y137500D02*
D03*
X745000D02*
D03*
X259750Y375250D02*
D03*
X236500Y491740D02*
D03*
X88615Y101669D02*
D03*
X82115Y101748D02*
D03*
X171388Y282712D02*
D03*
X509338Y305570D02*
D03*
X491845Y410293D02*
D03*
X632405Y127301D02*
D03*
X555691Y362690D02*
D03*
X561838Y368461D02*
D03*
X800000Y810070D02*
D03*
X802284Y862622D02*
D03*
X620000Y767500D02*
D03*
X785000Y617500D02*
D03*
X777500D02*
D03*
X770000D02*
D03*
X785000Y632500D02*
D03*
Y625000D02*
D03*
X777500Y632500D02*
D03*
Y625000D02*
D03*
X770000Y632500D02*
D03*
Y625000D02*
D03*
X785000Y640000D02*
D03*
X777500D02*
D03*
X770000D02*
D03*
X620489Y300111D02*
D03*
X610000Y518500D02*
D03*
X398000Y94000D02*
D03*
Y104000D02*
D03*
X408000D02*
D03*
Y94000D02*
D03*
X418000D02*
D03*
Y104000D02*
D03*
X82000Y643000D02*
D03*
X80500Y788750D02*
D03*
X399538Y471451D02*
D03*
X682500Y177500D02*
D03*
X672500D02*
D03*
X662500D02*
D03*
X652500D02*
D03*
X642500D02*
D03*
X487059Y528837D02*
D03*
Y538837D02*
D03*
X477059D02*
D03*
X467059D02*
D03*
X477059Y528837D02*
D03*
X467059D02*
D03*
X497059D02*
D03*
Y538837D02*
D03*
X507059Y528837D02*
D03*
Y538837D02*
D03*
X517059Y528837D02*
D03*
Y538837D02*
D03*
X527059Y528837D02*
D03*
Y538837D02*
D03*
X537059Y528837D02*
D03*
Y538837D02*
D03*
X547059Y528837D02*
D03*
Y538837D02*
D03*
X325000Y540000D02*
D03*
Y530000D02*
D03*
X315000Y540000D02*
D03*
Y530000D02*
D03*
X305000Y540000D02*
D03*
Y530000D02*
D03*
X295000Y540000D02*
D03*
Y530000D02*
D03*
X285000Y540000D02*
D03*
Y530000D02*
D03*
X275000Y540000D02*
D03*
Y530000D02*
D03*
X265000Y540000D02*
D03*
Y530000D02*
D03*
X245000D02*
D03*
X255000D02*
D03*
X245000Y540000D02*
D03*
X255000D02*
D03*
X815033Y788192D02*
D03*
X227500Y800000D02*
D03*
X217500D02*
D03*
X207500D02*
D03*
X197500D02*
D03*
X187500D02*
D03*
X177500D02*
D03*
X227500Y810000D02*
D03*
X217500D02*
D03*
X207500D02*
D03*
X197500D02*
D03*
X187500D02*
D03*
X177500D02*
D03*
X539000Y477570D02*
D03*
X640048Y412224D02*
D03*
X761000Y424000D02*
D03*
X762000Y520070D02*
D03*
X756000Y515000D02*
D03*
X731000Y672000D02*
D03*
X603343Y411827D02*
D03*
X598137Y417000D02*
D03*
X831450Y697250D02*
D03*
X788849Y788338D02*
D03*
X551000Y474230D02*
D03*
X584855Y415942D02*
D03*
X580000Y408000D02*
D03*
X584000Y401000D02*
D03*
X541500Y408000D02*
D03*
X594250Y472500D02*
D03*
X831500Y532000D02*
D03*
X829500Y443500D02*
D03*
X818750Y532500D02*
D03*
X731950Y687495D02*
D03*
X563000Y446500D02*
D03*
X610500Y423000D02*
D03*
X582395Y363158D02*
D03*
X374250Y270750D02*
D03*
X572750Y353250D02*
D03*
X516250Y346750D02*
D03*
X662357Y427695D02*
D03*
X656820Y431100D02*
D03*
X672500Y897250D02*
D03*
X641000Y896750D02*
D03*
X493000Y483500D02*
D03*
X283000Y871255D02*
D03*
X584497Y215545D02*
D03*
X299000Y485750D02*
D03*
X429575Y821020D02*
D03*
X644283Y364555D02*
D03*
X320500Y593500D02*
D03*
X545300D02*
D03*
X311750Y199750D02*
D03*
X481050Y807650D02*
D03*
X863000Y375750D02*
D03*
X845245Y398500D02*
D03*
X372000Y170000D02*
D03*
X342500Y170005D02*
D03*
X598250Y368750D02*
D03*
X645250Y482000D02*
D03*
X701500Y34500D02*
D03*
X599745Y215691D02*
D03*
X531303Y367562D02*
D03*
X295750Y199654D02*
D03*
X311490Y247654D02*
D03*
X681044Y390423D02*
D03*
X174500Y357000D02*
D03*
X125000Y384000D02*
D03*
X152205Y168709D02*
D03*
X326250Y226250D02*
D03*
X290000Y806000D02*
D03*
X374000Y310500D02*
D03*
X372550Y474050D02*
D03*
X481050Y833050D02*
D03*
X702818Y111443D02*
D03*
X145251Y468000D02*
D03*
X129251D02*
D03*
X517500Y96750D02*
D03*
X167250Y346250D02*
D03*
M02*
