G04*
G04 #@! TF.GenerationSoftware,Altium Limited,Altium Designer,26.2.0 (7)*
G04*
G04 Layer_Color=65535*
%FSLAX44Y44*%
%MOMM*%
G71*
G04*
G04 #@! TF.SameCoordinates,33BCE108-0E9A-4A5C-92EA-E60CA21C167F*
G04*
G04*
G04 #@! TF.FilePolarity,Positive*
G04*
G01*
G75*
%ADD10C,0.3000*%
%ADD11C,0.2500*%
%ADD12C,0.2540*%
%ADD13C,0.2000*%
%ADD14C,0.1500*%
%ADD15C,0.1000*%
%ADD16C,0.1270*%
%ADD17C,0.1524*%
G36*
X634534Y55289D02*
X627600D01*
Y51322D01*
X633605D01*
Y49811D01*
X627600D01*
Y44000D01*
X625908D01*
Y56800D01*
X634534D01*
Y55289D01*
D02*
G37*
G36*
X618973Y56787D02*
X619126D01*
X619278Y56773D01*
X619459Y56745D01*
X619819Y56703D01*
X620222Y56634D01*
X620596Y56537D01*
X620957Y56398D01*
X620970D01*
X620998Y56385D01*
X621040Y56357D01*
X621109Y56329D01*
X621262Y56232D01*
X621470Y56107D01*
X621692Y55941D01*
X621913Y55733D01*
X622135Y55483D01*
X622343Y55206D01*
Y55192D01*
X622371Y55164D01*
X622385Y55122D01*
X622427Y55067D01*
X622468Y54998D01*
X622510Y54901D01*
X622607Y54693D01*
X622690Y54443D01*
X622773Y54152D01*
X622829Y53847D01*
X622857Y53514D01*
Y53500D01*
Y53472D01*
Y53431D01*
Y53375D01*
X622829Y53222D01*
X622801Y53014D01*
X622746Y52779D01*
X622662Y52515D01*
X622551Y52252D01*
X622399Y51974D01*
Y51960D01*
X622385Y51947D01*
X622357Y51905D01*
X622316Y51849D01*
X622219Y51725D01*
X622066Y51558D01*
X621886Y51378D01*
X621650Y51184D01*
X621386Y50990D01*
X621068Y50809D01*
X621081D01*
X621123Y50795D01*
X621179Y50768D01*
X621262Y50740D01*
X621359Y50698D01*
X621470Y50657D01*
X621719Y50532D01*
X622011Y50380D01*
X622302Y50171D01*
X622593Y49936D01*
X622843Y49644D01*
X622857Y49631D01*
X622870Y49603D01*
X622898Y49561D01*
X622940Y49506D01*
X622995Y49422D01*
X623051Y49325D01*
X623106Y49215D01*
X623162Y49090D01*
X623273Y48812D01*
X623384Y48479D01*
X623453Y48105D01*
X623481Y47911D01*
Y47703D01*
Y47689D01*
Y47661D01*
Y47620D01*
Y47550D01*
X623467Y47467D01*
Y47384D01*
X623439Y47162D01*
X623384Y46898D01*
X623314Y46621D01*
X623217Y46316D01*
X623092Y46025D01*
Y46011D01*
X623078Y45997D01*
X623051Y45955D01*
X623023Y45900D01*
X622940Y45761D01*
X622829Y45595D01*
X622704Y45401D01*
X622538Y45206D01*
X622357Y45012D01*
X622149Y44832D01*
X622122Y44818D01*
X622052Y44763D01*
X621927Y44693D01*
X621761Y44596D01*
X621567Y44499D01*
X621331Y44388D01*
X621054Y44291D01*
X620749Y44208D01*
X620735D01*
X620707Y44194D01*
X620665D01*
X620596Y44180D01*
X620513Y44166D01*
X620416Y44139D01*
X620305Y44125D01*
X620180Y44111D01*
X620041Y44083D01*
X619875Y44069D01*
X619528Y44028D01*
X619126Y44014D01*
X618682Y44000D01*
X613814D01*
Y56800D01*
X618849D01*
X618973Y56787D01*
D02*
G37*
G36*
X607102D02*
X607255D01*
X607435Y56773D01*
X607643Y56759D01*
X608059Y56717D01*
X608489Y56648D01*
X608905Y56565D01*
X609085Y56509D01*
X609266Y56454D01*
X609279D01*
X609307Y56440D01*
X609349Y56412D01*
X609418Y56385D01*
X609585Y56301D01*
X609779Y56176D01*
X610014Y56010D01*
X610250Y55788D01*
X610486Y55539D01*
X610694Y55233D01*
Y55219D01*
X610722Y55192D01*
X610750Y55150D01*
X610777Y55081D01*
X610819Y54998D01*
X610860Y54901D01*
X610916Y54790D01*
X610971Y54665D01*
X611068Y54374D01*
X611152Y54055D01*
X611207Y53694D01*
X611235Y53306D01*
Y53292D01*
Y53250D01*
Y53167D01*
X611221Y53084D01*
X611207Y52959D01*
X611193Y52820D01*
X611166Y52668D01*
X611124Y52501D01*
X611013Y52141D01*
X610944Y51947D01*
X610860Y51752D01*
X610763Y51558D01*
X610639Y51364D01*
X610500Y51184D01*
X610347Y51003D01*
X610333Y50990D01*
X610306Y50962D01*
X610250Y50920D01*
X610181Y50851D01*
X610084Y50782D01*
X609973Y50698D01*
X609834Y50601D01*
X609668Y50504D01*
X609487Y50407D01*
X609293Y50310D01*
X609071Y50213D01*
X608822Y50116D01*
X608558Y50033D01*
X608267Y49949D01*
X607948Y49880D01*
X607615Y49825D01*
X607629D01*
X607643Y49811D01*
X607726Y49769D01*
X607851Y49700D01*
X608004Y49617D01*
X608170Y49520D01*
X608336Y49422D01*
X608503Y49298D01*
X608642Y49187D01*
X608655Y49173D01*
X608669Y49159D01*
X608711Y49117D01*
X608766Y49062D01*
X608836Y48993D01*
X608919Y48909D01*
X609099Y48715D01*
X609307Y48466D01*
X609543Y48174D01*
X609793Y47842D01*
X610042Y47481D01*
X612261Y44000D01*
X610139D01*
X608447Y46663D01*
X608433Y46677D01*
X608420Y46718D01*
X608378Y46774D01*
X608322Y46857D01*
X608267Y46954D01*
X608184Y47065D01*
X608017Y47315D01*
X607823Y47606D01*
X607629Y47897D01*
X607421Y48174D01*
X607227Y48424D01*
Y48438D01*
X607199Y48452D01*
X607144Y48521D01*
X607061Y48632D01*
X606936Y48757D01*
X606811Y48896D01*
X606658Y49034D01*
X606506Y49173D01*
X606367Y49270D01*
X606353Y49284D01*
X606298Y49312D01*
X606228Y49353D01*
X606131Y49409D01*
X606007Y49464D01*
X605882Y49520D01*
X605743Y49575D01*
X605590Y49617D01*
X605577D01*
X605535Y49631D01*
X605466Y49644D01*
X605368Y49658D01*
X605230D01*
X605063Y49672D01*
X604869Y49686D01*
X602692D01*
Y44000D01*
X601000D01*
Y56800D01*
X606950D01*
X607102Y56787D01*
D02*
G37*
G36*
X287445Y56217D02*
X287611Y56203D01*
X287806Y56175D01*
X288014Y56147D01*
X288249Y56106D01*
X288499Y56050D01*
X288762Y55995D01*
X289026Y55911D01*
X289303Y55814D01*
X289581Y55703D01*
X289844Y55565D01*
X290108Y55426D01*
X290357Y55246D01*
X290371Y55232D01*
X290413Y55204D01*
X290482Y55149D01*
X290565Y55065D01*
X290676Y54968D01*
X290801Y54844D01*
X290926Y54705D01*
X291078Y54538D01*
X291231Y54358D01*
X291384Y54150D01*
X291536Y53928D01*
X291675Y53679D01*
X291827Y53415D01*
X291952Y53124D01*
X292077Y52819D01*
X292188Y52500D01*
X290524Y52112D01*
Y52125D01*
X290496Y52167D01*
X290482Y52250D01*
X290441Y52347D01*
X290399Y52458D01*
X290330Y52583D01*
X290191Y52888D01*
X290011Y53221D01*
X289775Y53568D01*
X289525Y53887D01*
X289373Y54025D01*
X289220Y54150D01*
X289206Y54164D01*
X289179Y54178D01*
X289137Y54206D01*
X289068Y54247D01*
X288984Y54303D01*
X288887Y54358D01*
X288776Y54414D01*
X288638Y54469D01*
X288485Y54525D01*
X288333Y54580D01*
X287972Y54691D01*
X287556Y54760D01*
X287334Y54788D01*
X286960D01*
X286849Y54774D01*
X286724Y54760D01*
X286571Y54746D01*
X286405Y54733D01*
X286238Y54705D01*
X285836Y54608D01*
X285420Y54483D01*
X285212Y54400D01*
X285004Y54303D01*
X284810Y54192D01*
X284616Y54067D01*
X284602Y54053D01*
X284574Y54039D01*
X284519Y53998D01*
X284449Y53942D01*
X284380Y53873D01*
X284283Y53776D01*
X284186Y53679D01*
X284075Y53568D01*
X283964Y53429D01*
X283839Y53290D01*
X283617Y52971D01*
X283409Y52597D01*
X283229Y52167D01*
Y52153D01*
X283215Y52112D01*
X283187Y52042D01*
X283174Y51959D01*
X283146Y51848D01*
X283104Y51723D01*
X283076Y51571D01*
X283035Y51418D01*
X282993Y51238D01*
X282966Y51044D01*
X282896Y50628D01*
X282854Y50184D01*
X282841Y49712D01*
Y49698D01*
Y49643D01*
Y49560D01*
X282854Y49435D01*
Y49296D01*
X282868Y49130D01*
X282882Y48949D01*
X282896Y48741D01*
X282924Y48520D01*
X282952Y48298D01*
X283035Y47812D01*
X283160Y47327D01*
X283312Y46855D01*
Y46842D01*
X283340Y46800D01*
X283368Y46744D01*
X283395Y46661D01*
X283451Y46550D01*
X283520Y46439D01*
X283673Y46176D01*
X283881Y45871D01*
X284130Y45580D01*
X284436Y45288D01*
X284602Y45163D01*
X284782Y45039D01*
X284796D01*
X284824Y45011D01*
X284879Y44983D01*
X284963Y44942D01*
X285060Y44900D01*
X285170Y44844D01*
X285295Y44803D01*
X285434Y44747D01*
X285753Y44637D01*
X286127Y44539D01*
X286530Y44470D01*
X286738Y44456D01*
X286960Y44442D01*
X287098D01*
X287195Y44456D01*
X287320Y44470D01*
X287459Y44484D01*
X287625Y44512D01*
X287792Y44539D01*
X288180Y44637D01*
X288374Y44706D01*
X288582Y44789D01*
X288790Y44886D01*
X288984Y44997D01*
X289179Y45122D01*
X289373Y45261D01*
X289387Y45274D01*
X289414Y45302D01*
X289470Y45344D01*
X289539Y45413D01*
X289608Y45496D01*
X289706Y45607D01*
X289803Y45732D01*
X289914Y45871D01*
X290025Y46037D01*
X290135Y46217D01*
X290246Y46412D01*
X290357Y46634D01*
X290454Y46869D01*
X290551Y47133D01*
X290649Y47410D01*
X290718Y47701D01*
X292410Y47271D01*
Y47244D01*
X292382Y47174D01*
X292354Y47077D01*
X292299Y46925D01*
X292243Y46758D01*
X292160Y46550D01*
X292077Y46328D01*
X291966Y46093D01*
X291841Y45829D01*
X291703Y45580D01*
X291550Y45302D01*
X291370Y45039D01*
X291176Y44789D01*
X290968Y44539D01*
X290732Y44304D01*
X290482Y44082D01*
X290468Y44068D01*
X290413Y44040D01*
X290343Y43985D01*
X290233Y43915D01*
X290108Y43832D01*
X289941Y43735D01*
X289761Y43638D01*
X289539Y43541D01*
X289303Y43444D01*
X289054Y43347D01*
X288776Y43250D01*
X288471Y43166D01*
X288152Y43097D01*
X287819Y43042D01*
X287473Y43014D01*
X287098Y43000D01*
X286904D01*
X286751Y43014D01*
X286585Y43028D01*
X286377Y43042D01*
X286155Y43069D01*
X285906Y43111D01*
X285642Y43152D01*
X285365Y43208D01*
X285087Y43277D01*
X284810Y43347D01*
X284519Y43444D01*
X284241Y43555D01*
X283978Y43679D01*
X283728Y43832D01*
X283714Y43846D01*
X283673Y43874D01*
X283603Y43915D01*
X283520Y43985D01*
X283409Y44082D01*
X283284Y44179D01*
X283146Y44304D01*
X282993Y44456D01*
X282841Y44623D01*
X282674Y44803D01*
X282522Y44997D01*
X282355Y45219D01*
X282189Y45455D01*
X282036Y45704D01*
X281898Y45982D01*
X281759Y46273D01*
X281745Y46287D01*
X281731Y46342D01*
X281703Y46439D01*
X281662Y46550D01*
X281606Y46703D01*
X281551Y46869D01*
X281495Y47077D01*
X281426Y47299D01*
X281371Y47549D01*
X281301Y47812D01*
X281246Y48090D01*
X281204Y48395D01*
X281121Y49033D01*
X281107Y49366D01*
X281093Y49698D01*
Y49726D01*
Y49782D01*
Y49893D01*
X281107Y50031D01*
X281121Y50212D01*
X281135Y50420D01*
X281163Y50641D01*
X281190Y50891D01*
X281232Y51155D01*
X281273Y51432D01*
X281412Y52028D01*
X281509Y52320D01*
X281606Y52611D01*
X281717Y52916D01*
X281856Y53193D01*
X281870Y53207D01*
X281898Y53263D01*
X281939Y53332D01*
X281995Y53443D01*
X282078Y53568D01*
X282175Y53706D01*
X282286Y53859D01*
X282411Y54039D01*
X282563Y54206D01*
X282716Y54400D01*
X282896Y54580D01*
X283090Y54774D01*
X283298Y54955D01*
X283520Y55135D01*
X283770Y55301D01*
X284020Y55454D01*
X284033Y55468D01*
X284089Y55482D01*
X284158Y55523D01*
X284269Y55579D01*
X284394Y55634D01*
X284560Y55703D01*
X284741Y55773D01*
X284935Y55842D01*
X285157Y55911D01*
X285406Y55981D01*
X285656Y56050D01*
X285933Y56106D01*
X286502Y56203D01*
X286807Y56217D01*
X287126Y56230D01*
X287306D01*
X287445Y56217D01*
D02*
G37*
G36*
X247060Y43208D02*
X245424D01*
Y53928D01*
X241679Y43208D01*
X240154D01*
X236465Y54109D01*
Y43208D01*
X234828D01*
Y56009D01*
X237366D01*
X240403Y46939D01*
Y46925D01*
X240417Y46883D01*
X240445Y46814D01*
X240473Y46731D01*
X240500Y46634D01*
X240542Y46509D01*
X240639Y46231D01*
X240736Y45926D01*
X240833Y45607D01*
X240930Y45316D01*
X240972Y45177D01*
X241014Y45052D01*
Y45066D01*
X241027Y45080D01*
X241041Y45122D01*
X241055Y45177D01*
X241083Y45261D01*
X241111Y45344D01*
X241138Y45455D01*
X241180Y45566D01*
X241222Y45704D01*
X241277Y45857D01*
X241332Y46023D01*
X241388Y46217D01*
X241457Y46412D01*
X241527Y46634D01*
X241610Y46855D01*
X241693Y47105D01*
X244772Y56009D01*
X247060D01*
Y43208D01*
D02*
G37*
G36*
X232068Y48617D02*
Y48589D01*
Y48534D01*
Y48436D01*
Y48298D01*
X232055Y48131D01*
X232041Y47951D01*
X232027Y47743D01*
X232013Y47507D01*
X231957Y47022D01*
X231888Y46509D01*
X231777Y46009D01*
X231708Y45774D01*
X231625Y45552D01*
Y45538D01*
X231611Y45496D01*
X231583Y45441D01*
X231541Y45358D01*
X231486Y45261D01*
X231430Y45150D01*
X231264Y44900D01*
X231167Y44747D01*
X231056Y44609D01*
X230917Y44442D01*
X230779Y44290D01*
X230612Y44137D01*
X230446Y43985D01*
X230252Y43846D01*
X230044Y43707D01*
X230030Y43693D01*
X229988Y43679D01*
X229933Y43638D01*
X229836Y43596D01*
X229725Y43541D01*
X229586Y43485D01*
X229433Y43416D01*
X229239Y43361D01*
X229045Y43291D01*
X228823Y43222D01*
X228574Y43166D01*
X228310Y43111D01*
X228019Y43069D01*
X227714Y43028D01*
X227395Y43014D01*
X227062Y43000D01*
X226882D01*
X226757Y43014D01*
X226604D01*
X226438Y43028D01*
X226230Y43056D01*
X226022Y43083D01*
X225550Y43152D01*
X225051Y43264D01*
X224566Y43416D01*
X224330Y43499D01*
X224108Y43610D01*
X224094Y43624D01*
X224053Y43638D01*
X223997Y43679D01*
X223928Y43721D01*
X223831Y43790D01*
X223720Y43874D01*
X223609Y43957D01*
X223484Y44068D01*
X223207Y44317D01*
X222943Y44623D01*
X222693Y44983D01*
X222582Y45191D01*
X222485Y45399D01*
Y45413D01*
X222472Y45455D01*
X222444Y45524D01*
X222416Y45621D01*
X222374Y45732D01*
X222333Y45885D01*
X222291Y46051D01*
X222250Y46245D01*
X222194Y46467D01*
X222153Y46703D01*
X222111Y46966D01*
X222083Y47258D01*
X222042Y47563D01*
X222028Y47895D01*
X222000Y48242D01*
Y48617D01*
Y56009D01*
X223692D01*
Y48617D01*
Y48603D01*
Y48547D01*
Y48464D01*
Y48339D01*
X223706Y48201D01*
Y48048D01*
X223720Y47868D01*
X223734Y47688D01*
X223761Y47285D01*
X223817Y46883D01*
X223900Y46495D01*
X223942Y46315D01*
X223997Y46162D01*
Y46148D01*
X224011Y46134D01*
X224025Y46093D01*
X224053Y46037D01*
X224136Y45885D01*
X224247Y45718D01*
X224385Y45510D01*
X224566Y45316D01*
X224788Y45122D01*
X225051Y44942D01*
X225065D01*
X225093Y44928D01*
X225134Y44900D01*
X225190Y44872D01*
X225259Y44844D01*
X225356Y44817D01*
X225453Y44775D01*
X225564Y44734D01*
X225842Y44664D01*
X226161Y44595D01*
X226521Y44539D01*
X226909Y44525D01*
X227090D01*
X227215Y44539D01*
X227367Y44553D01*
X227547Y44567D01*
X227742Y44595D01*
X227950Y44637D01*
X228379Y44734D01*
X228601Y44803D01*
X228823Y44886D01*
X229031Y44983D01*
X229225Y45094D01*
X229406Y45219D01*
X229572Y45371D01*
X229586Y45385D01*
X229614Y45413D01*
X229641Y45469D01*
X229697Y45538D01*
X229752Y45635D01*
X229822Y45760D01*
X229905Y45912D01*
X229974Y46093D01*
X230044Y46301D01*
X230127Y46536D01*
X230196Y46800D01*
X230252Y47091D01*
X230307Y47424D01*
X230349Y47785D01*
X230363Y48187D01*
X230376Y48617D01*
Y56009D01*
X232068D01*
Y48617D01*
D02*
G37*
G36*
X308039Y44720D02*
X314350D01*
Y43208D01*
X306348D01*
Y56009D01*
X308039D01*
Y44720D01*
D02*
G37*
G36*
X305072Y43208D02*
X303144D01*
X301660Y47077D01*
X296279D01*
X294892Y43208D01*
X293103Y43208D01*
X297999Y56009D01*
X299829D01*
X305072Y43208D01*
D02*
G37*
G36*
X278597Y43208D02*
X276905D01*
Y56009D01*
X278597D01*
Y43208D01*
D02*
G37*
G36*
X268293Y44720D02*
X274603D01*
Y43208D01*
X266601D01*
Y56009D01*
X268293D01*
Y44720D01*
D02*
G37*
G36*
X263688Y43208D02*
X261996D01*
Y56009D01*
X263688D01*
Y43208D01*
D02*
G37*
G36*
X254868Y55995D02*
X255021D01*
X255173Y55981D01*
X255354Y55953D01*
X255714Y55911D01*
X256116Y55842D01*
X256491Y55745D01*
X256851Y55606D01*
X256865D01*
X256893Y55592D01*
X256935Y55565D01*
X257004Y55537D01*
X257156Y55440D01*
X257364Y55315D01*
X257586Y55149D01*
X257808Y54941D01*
X258030Y54691D01*
X258238Y54414D01*
Y54400D01*
X258266Y54372D01*
X258280Y54331D01*
X258321Y54275D01*
X258363Y54206D01*
X258405Y54109D01*
X258502Y53901D01*
X258585Y53651D01*
X258668Y53360D01*
X258724Y53055D01*
X258751Y52722D01*
Y52708D01*
Y52680D01*
Y52639D01*
Y52583D01*
X258724Y52431D01*
X258696Y52222D01*
X258640Y51987D01*
X258557Y51723D01*
X258446Y51460D01*
X258294Y51182D01*
Y51168D01*
X258280Y51155D01*
X258252Y51113D01*
X258210Y51058D01*
X258113Y50933D01*
X257961Y50766D01*
X257780Y50586D01*
X257545Y50392D01*
X257281Y50198D01*
X256962Y50017D01*
X256976D01*
X257018Y50003D01*
X257073Y49976D01*
X257156Y49948D01*
X257253Y49907D01*
X257364Y49865D01*
X257614Y49740D01*
X257905Y49587D01*
X258197Y49380D01*
X258488Y49144D01*
X258737Y48853D01*
X258751Y48839D01*
X258765Y48811D01*
X258793Y48769D01*
X258834Y48714D01*
X258890Y48631D01*
X258945Y48534D01*
X259001Y48422D01*
X259056Y48298D01*
X259167Y48020D01*
X259278Y47688D01*
X259348Y47313D01*
X259375Y47119D01*
Y46911D01*
Y46897D01*
Y46869D01*
Y46828D01*
Y46758D01*
X259361Y46675D01*
Y46592D01*
X259334Y46370D01*
X259278Y46107D01*
X259209Y45829D01*
X259112Y45524D01*
X258987Y45233D01*
Y45219D01*
X258973Y45205D01*
X258945Y45163D01*
X258918Y45108D01*
X258834Y44969D01*
X258724Y44803D01*
X258599Y44609D01*
X258432Y44415D01*
X258252Y44220D01*
X258044Y44040D01*
X258016Y44026D01*
X257947Y43971D01*
X257822Y43901D01*
X257656Y43804D01*
X257461Y43707D01*
X257226Y43596D01*
X256948Y43499D01*
X256643Y43416D01*
X256629D01*
X256602Y43402D01*
X256560D01*
X256491Y43388D01*
X256408Y43374D01*
X256310Y43347D01*
X256199Y43333D01*
X256075Y43319D01*
X255936Y43291D01*
X255770Y43277D01*
X255423Y43236D01*
X255021Y43222D01*
X254577Y43208D01*
X249709D01*
Y56009D01*
X254743D01*
X254868Y55995D01*
D02*
G37*
G36*
X606000Y909872D02*
X605972D01*
X605903D01*
X605792D01*
X605653Y909886D01*
X605487Y909900D01*
X605307Y909942D01*
X605112Y909983D01*
X604918Y910052D01*
X604904D01*
X604877Y910066D01*
X604835Y910080D01*
X604766Y910108D01*
X604696Y910150D01*
X604599Y910191D01*
X604377Y910302D01*
X604114Y910441D01*
X603823Y910621D01*
X603517Y910829D01*
X603212Y911079D01*
X603199Y911093D01*
X603171Y911106D01*
X603129Y911148D01*
X603060Y911217D01*
X602990Y911287D01*
X602893Y911384D01*
X602783Y911481D01*
X602658Y911606D01*
X602519Y911745D01*
X602380Y911897D01*
X602214Y912064D01*
X602048Y912258D01*
X601867Y912452D01*
X601687Y912674D01*
X601493Y912896D01*
X601285Y913145D01*
X601271Y913173D01*
X601202Y913242D01*
X601118Y913339D01*
X600993Y913478D01*
X600855Y913644D01*
X600688Y913839D01*
X600508Y914061D01*
X600300Y914282D01*
X599870Y914754D01*
X599412Y915212D01*
X599191Y915434D01*
X598969Y915641D01*
X598761Y915822D01*
X598567Y915974D01*
X598553Y915988D01*
X598525Y916002D01*
X598469Y916044D01*
X598400Y916085D01*
X598303Y916155D01*
X598206Y916210D01*
X597956Y916349D01*
X597665Y916488D01*
X597346Y916612D01*
X597013Y916695D01*
X596847Y916709D01*
X596680Y916723D01*
X596666D01*
X596639D01*
X596583D01*
X596528Y916709D01*
X596445D01*
X596348Y916682D01*
X596139Y916640D01*
X595890Y916557D01*
X595626Y916432D01*
X595488Y916363D01*
X595363Y916266D01*
X595238Y916169D01*
X595113Y916044D01*
X595099Y916030D01*
X595085Y916016D01*
X595058Y915974D01*
X595016Y915919D01*
X594961Y915850D01*
X594905Y915766D01*
X594780Y915572D01*
X594669Y915309D01*
X594558Y915017D01*
X594489Y914671D01*
X594461Y914477D01*
Y914172D01*
X594475Y914088D01*
Y913991D01*
X594503Y913880D01*
X594545Y913631D01*
X594628Y913339D01*
X594753Y913034D01*
X594836Y912882D01*
X594919Y912729D01*
X595030Y912590D01*
X595155Y912452D01*
X595169Y912438D01*
X595183Y912424D01*
X595224Y912396D01*
X595280Y912341D01*
X595349Y912299D01*
X595432Y912244D01*
X595529Y912174D01*
X595640Y912119D01*
X595765Y912050D01*
X595904Y911994D01*
X596237Y911883D01*
X596597Y911800D01*
X596805Y911786D01*
X597027Y911772D01*
X596861Y910163D01*
X596833D01*
X596777Y910177D01*
X596694Y910191D01*
X596569Y910205D01*
X596417Y910233D01*
X596237Y910274D01*
X596042Y910316D01*
X595834Y910385D01*
X595626Y910455D01*
X595391Y910538D01*
X595169Y910649D01*
X594947Y910760D01*
X594711Y910899D01*
X594503Y911051D01*
X594295Y911217D01*
X594115Y911412D01*
X594101Y911425D01*
X594073Y911467D01*
X594031Y911523D01*
X593962Y911606D01*
X593893Y911717D01*
X593810Y911855D01*
X593726Y912008D01*
X593629Y912188D01*
X593546Y912382D01*
X593463Y912604D01*
X593380Y912840D01*
X593310Y913104D01*
X593241Y913381D01*
X593199Y913672D01*
X593172Y913991D01*
X593158Y914324D01*
Y914504D01*
X593172Y914629D01*
X593186Y914782D01*
X593213Y914962D01*
X593241Y915170D01*
X593283Y915378D01*
X593338Y915614D01*
X593407Y915850D01*
X593491Y916099D01*
X593588Y916335D01*
X593713Y916585D01*
X593851Y916820D01*
X594004Y917042D01*
X594184Y917250D01*
X594198Y917264D01*
X594226Y917292D01*
X594295Y917347D01*
X594364Y917417D01*
X594461Y917500D01*
X594586Y917597D01*
X594725Y917694D01*
X594891Y917791D01*
X595058Y917888D01*
X595252Y917985D01*
X595460Y918082D01*
X595682Y918166D01*
X595932Y918235D01*
X596181Y918290D01*
X596445Y918318D01*
X596722Y918332D01*
X596736D01*
X596750D01*
X596791D01*
X596847D01*
X596999Y918318D01*
X597193Y918290D01*
X597429Y918249D01*
X597679Y918193D01*
X597956Y918124D01*
X598234Y918013D01*
X598247D01*
X598261Y917999D01*
X598303Y917985D01*
X598358Y917958D01*
X598511Y917874D01*
X598705Y917763D01*
X598941Y917611D01*
X599204Y917430D01*
X599482Y917223D01*
X599787Y916959D01*
X599801Y916945D01*
X599828Y916931D01*
X599870Y916876D01*
X599939Y916820D01*
X600023Y916737D01*
X600120Y916640D01*
X600245Y916529D01*
X600369Y916390D01*
X600522Y916224D01*
X600688Y916044D01*
X600882Y915850D01*
X601077Y915628D01*
X601299Y915392D01*
X601521Y915128D01*
X601770Y914837D01*
X602034Y914532D01*
X602048Y914518D01*
X602089Y914477D01*
X602145Y914393D01*
X602228Y914310D01*
X602325Y914185D01*
X602436Y914061D01*
X602685Y913769D01*
X602949Y913464D01*
X603226Y913173D01*
X603351Y913034D01*
X603462Y912909D01*
X603573Y912798D01*
X603656Y912715D01*
X603670Y912701D01*
X603726Y912646D01*
X603809Y912577D01*
X603920Y912479D01*
X604044Y912369D01*
X604183Y912258D01*
X604488Y912036D01*
Y918346D01*
X606000D01*
Y909872D01*
D02*
G37*
G36*
X594711Y904755D02*
X606000D01*
Y903063D01*
X594711D01*
Y898847D01*
X593199D01*
Y908971D01*
X594711D01*
Y904755D01*
D02*
G37*
G36*
X597193Y897640D02*
X597332Y897626D01*
X597485Y897599D01*
X597665Y897571D01*
X597873Y897529D01*
X598081Y897474D01*
X598303Y897405D01*
X598525Y897321D01*
X598761Y897210D01*
X598996Y897100D01*
X599232Y896961D01*
X599454Y896794D01*
X599676Y896614D01*
X599690Y896600D01*
X599718Y896559D01*
X599773Y896503D01*
X599856Y896406D01*
X599939Y896295D01*
X600037Y896143D01*
X600134Y895962D01*
X600231Y895754D01*
X600342Y895505D01*
X600439Y895241D01*
X600536Y894922D01*
X600619Y894589D01*
X600688Y894201D01*
X600744Y893785D01*
X600785Y893341D01*
X600799Y892842D01*
Y889569D01*
X606000D01*
Y887877D01*
X593199D01*
Y893147D01*
X593213Y893424D01*
X593227Y893743D01*
X593255Y894062D01*
X593283Y894367D01*
X593297Y894520D01*
X593324Y894645D01*
Y894659D01*
X593338Y894686D01*
Y894742D01*
X593352Y894797D01*
X593380Y894881D01*
X593394Y894978D01*
X593463Y895200D01*
X593546Y895449D01*
X593657Y895713D01*
X593782Y895976D01*
X593934Y896226D01*
Y896240D01*
X593948Y896254D01*
X594018Y896337D01*
X594115Y896448D01*
X594253Y896600D01*
X594420Y896753D01*
X594642Y896933D01*
X594878Y897100D01*
X595169Y897252D01*
X595183D01*
X595210Y897266D01*
X595252Y897294D01*
X595307Y897321D01*
X595377Y897349D01*
X595474Y897377D01*
X595682Y897460D01*
X595945Y897529D01*
X596237Y897599D01*
X596569Y897640D01*
X596916Y897654D01*
X596930D01*
X596986D01*
X597069D01*
X597193Y897640D01*
D02*
G37*
G36*
Y885714D02*
X597332Y885700D01*
X597485Y885672D01*
X597665Y885644D01*
X597873Y885602D01*
X598081Y885547D01*
X598303Y885478D01*
X598525Y885395D01*
X598761Y885284D01*
X598996Y885173D01*
X599232Y885034D01*
X599454Y884867D01*
X599676Y884687D01*
X599690Y884673D01*
X599718Y884632D01*
X599773Y884576D01*
X599856Y884479D01*
X599939Y884368D01*
X600037Y884216D01*
X600134Y884035D01*
X600231Y883827D01*
X600342Y883578D01*
X600439Y883314D01*
X600536Y882995D01*
X600619Y882662D01*
X600688Y882274D01*
X600744Y881858D01*
X600785Y881414D01*
X600799Y880915D01*
Y877642D01*
X606000D01*
Y875950D01*
X593199D01*
Y881220D01*
X593213Y881497D01*
X593227Y881816D01*
X593255Y882135D01*
X593283Y882441D01*
X593297Y882593D01*
X593324Y882718D01*
Y882732D01*
X593338Y882759D01*
Y882815D01*
X593352Y882870D01*
X593380Y882954D01*
X593394Y883051D01*
X593463Y883273D01*
X593546Y883522D01*
X593657Y883786D01*
X593782Y884049D01*
X593934Y884299D01*
Y884313D01*
X593948Y884327D01*
X594018Y884410D01*
X594115Y884521D01*
X594253Y884673D01*
X594420Y884826D01*
X594642Y885006D01*
X594878Y885173D01*
X595169Y885325D01*
X595183D01*
X595210Y885339D01*
X595252Y885367D01*
X595307Y885395D01*
X595377Y885422D01*
X595474Y885450D01*
X595682Y885533D01*
X595945Y885602D01*
X596237Y885672D01*
X596569Y885714D01*
X596916Y885727D01*
X596930D01*
X596986D01*
X597069D01*
X597193Y885714D01*
D02*
G37*
G36*
X606000Y871596D02*
X595280D01*
X606000Y867851D01*
Y866326D01*
X595099Y862636D01*
X606000D01*
Y861000D01*
X593199D01*
Y863538D01*
X602269Y866575D01*
X602283D01*
X602325Y866589D01*
X602394Y866617D01*
X602477Y866644D01*
X602575Y866672D01*
X602699Y866714D01*
X602977Y866811D01*
X603282Y866908D01*
X603601Y867005D01*
X603892Y867102D01*
X604031Y867144D01*
X604156Y867185D01*
X604142D01*
X604128Y867199D01*
X604086Y867213D01*
X604031Y867227D01*
X603947Y867255D01*
X603864Y867282D01*
X603753Y867310D01*
X603642Y867352D01*
X603504Y867393D01*
X603351Y867449D01*
X603185Y867504D01*
X602990Y867560D01*
X602796Y867629D01*
X602575Y867698D01*
X602353Y867782D01*
X602103Y867865D01*
X593199Y870944D01*
Y873232D01*
X606000D01*
Y871596D01*
D02*
G37*
G36*
X422000Y914435D02*
X412001D01*
X412029Y914407D01*
X412098Y914338D01*
X412195Y914213D01*
X412334Y914033D01*
X412500Y913825D01*
X412680Y913561D01*
X412875Y913270D01*
X413083Y912937D01*
Y912923D01*
X413110Y912896D01*
X413138Y912854D01*
X413166Y912785D01*
X413221Y912701D01*
X413263Y912604D01*
X413388Y912383D01*
X413512Y912133D01*
X413651Y911855D01*
X413776Y911564D01*
X413887Y911287D01*
X412375D01*
X412361Y911301D01*
X412348Y911342D01*
X412306Y911412D01*
X412264Y911509D01*
X412209Y911620D01*
X412126Y911758D01*
X412043Y911911D01*
X411959Y912064D01*
X411737Y912424D01*
X411474Y912812D01*
X411197Y913215D01*
X410877Y913589D01*
X410864Y913603D01*
X410836Y913631D01*
X410794Y913686D01*
X410725Y913755D01*
X410642Y913825D01*
X410559Y913922D01*
X410323Y914130D01*
X410073Y914366D01*
X409782Y914601D01*
X409477Y914809D01*
X409158Y914990D01*
Y916002D01*
X422000D01*
Y914435D01*
D02*
G37*
G36*
X410711Y904755D02*
X422000D01*
Y903063D01*
X410711D01*
Y898847D01*
X409199D01*
Y908971D01*
X410711D01*
Y904755D01*
D02*
G37*
G36*
X413194Y897640D02*
X413332Y897626D01*
X413485Y897599D01*
X413665Y897571D01*
X413873Y897529D01*
X414081Y897474D01*
X414303Y897405D01*
X414525Y897321D01*
X414761Y897210D01*
X414996Y897100D01*
X415232Y896961D01*
X415454Y896794D01*
X415676Y896614D01*
X415690Y896600D01*
X415718Y896559D01*
X415773Y896503D01*
X415856Y896406D01*
X415939Y896295D01*
X416037Y896143D01*
X416134Y895962D01*
X416231Y895754D01*
X416342Y895505D01*
X416439Y895241D01*
X416536Y894922D01*
X416619Y894589D01*
X416688Y894201D01*
X416744Y893785D01*
X416786Y893341D01*
X416799Y892842D01*
Y889569D01*
X422000D01*
Y887877D01*
X409199D01*
Y893147D01*
X409213Y893424D01*
X409227Y893743D01*
X409255Y894062D01*
X409283Y894367D01*
X409296Y894520D01*
X409324Y894645D01*
Y894659D01*
X409338Y894686D01*
Y894742D01*
X409352Y894797D01*
X409380Y894881D01*
X409394Y894978D01*
X409463Y895200D01*
X409546Y895449D01*
X409657Y895713D01*
X409782Y895976D01*
X409935Y896226D01*
Y896240D01*
X409948Y896254D01*
X410018Y896337D01*
X410115Y896448D01*
X410253Y896600D01*
X410420Y896753D01*
X410642Y896933D01*
X410877Y897100D01*
X411169Y897252D01*
X411183D01*
X411210Y897266D01*
X411252Y897294D01*
X411307Y897321D01*
X411377Y897349D01*
X411474Y897377D01*
X411682Y897460D01*
X411945Y897529D01*
X412237Y897599D01*
X412570Y897640D01*
X412916Y897654D01*
X412930D01*
X412985D01*
X413069D01*
X413194Y897640D01*
D02*
G37*
G36*
Y885714D02*
X413332Y885700D01*
X413485Y885672D01*
X413665Y885644D01*
X413873Y885603D01*
X414081Y885547D01*
X414303Y885478D01*
X414525Y885395D01*
X414761Y885284D01*
X414996Y885173D01*
X415232Y885034D01*
X415454Y884867D01*
X415676Y884687D01*
X415690Y884673D01*
X415718Y884632D01*
X415773Y884576D01*
X415856Y884479D01*
X415939Y884368D01*
X416037Y884216D01*
X416134Y884035D01*
X416231Y883827D01*
X416342Y883578D01*
X416439Y883314D01*
X416536Y882995D01*
X416619Y882663D01*
X416688Y882274D01*
X416744Y881858D01*
X416786Y881414D01*
X416799Y880915D01*
Y877642D01*
X422000D01*
Y875950D01*
X409199D01*
Y881220D01*
X409213Y881497D01*
X409227Y881816D01*
X409255Y882135D01*
X409283Y882441D01*
X409296Y882593D01*
X409324Y882718D01*
Y882732D01*
X409338Y882760D01*
Y882815D01*
X409352Y882870D01*
X409380Y882954D01*
X409394Y883051D01*
X409463Y883273D01*
X409546Y883522D01*
X409657Y883786D01*
X409782Y884049D01*
X409935Y884299D01*
Y884313D01*
X409948Y884327D01*
X410018Y884410D01*
X410115Y884521D01*
X410253Y884673D01*
X410420Y884826D01*
X410642Y885006D01*
X410877Y885173D01*
X411169Y885325D01*
X411183D01*
X411210Y885339D01*
X411252Y885367D01*
X411307Y885395D01*
X411377Y885422D01*
X411474Y885450D01*
X411682Y885533D01*
X411945Y885603D01*
X412237Y885672D01*
X412570Y885714D01*
X412916Y885727D01*
X412930D01*
X412985D01*
X413069D01*
X413194Y885714D01*
D02*
G37*
G36*
X422000Y871596D02*
X411280D01*
X422000Y867851D01*
Y866326D01*
X411099Y862636D01*
X422000D01*
Y861000D01*
X409199D01*
Y863538D01*
X418269Y866575D01*
X418283D01*
X418325Y866589D01*
X418394Y866617D01*
X418477Y866645D01*
X418574Y866672D01*
X418699Y866714D01*
X418977Y866811D01*
X419282Y866908D01*
X419601Y867005D01*
X419892Y867102D01*
X420031Y867144D01*
X420155Y867185D01*
X420142D01*
X420128Y867199D01*
X420086Y867213D01*
X420031Y867227D01*
X419947Y867255D01*
X419864Y867282D01*
X419753Y867310D01*
X419642Y867352D01*
X419504Y867393D01*
X419351Y867449D01*
X419185Y867504D01*
X418991Y867560D01*
X418796Y867629D01*
X418574Y867699D01*
X418353Y867782D01*
X418103Y867865D01*
X409199Y870944D01*
Y873232D01*
X422000D01*
Y871596D01*
D02*
G37*
%LPC*%
G36*
X618308Y55289D02*
X615506D01*
Y51420D01*
X618544D01*
X618655Y51434D01*
X618890D01*
X619154Y51447D01*
X619431Y51475D01*
X619681Y51517D01*
X619792Y51530D01*
X619889Y51558D01*
X619903D01*
X619916Y51572D01*
X620000Y51600D01*
X620111Y51642D01*
X620249Y51711D01*
X620402Y51794D01*
X620568Y51905D01*
X620721Y52044D01*
X620859Y52196D01*
X620873Y52224D01*
X620915Y52279D01*
X620970Y52376D01*
X621026Y52501D01*
X621081Y52668D01*
X621137Y52862D01*
X621179Y53070D01*
X621192Y53320D01*
Y53333D01*
Y53347D01*
Y53431D01*
X621179Y53541D01*
X621151Y53694D01*
X621109Y53874D01*
X621054Y54068D01*
X620984Y54263D01*
X620873Y54443D01*
X620859Y54471D01*
X620818Y54526D01*
X620749Y54609D01*
X620652Y54706D01*
X620527Y54817D01*
X620374Y54928D01*
X620208Y55025D01*
X620000Y55109D01*
X619972Y55122D01*
X619944D01*
X619889Y55136D01*
X619833Y55150D01*
X619750Y55164D01*
X619653Y55178D01*
X619556Y55206D01*
X619431Y55219D01*
X619278Y55233D01*
X619126Y55247D01*
X618946Y55261D01*
X618751Y55275D01*
X618544D01*
X618308Y55289D01*
D02*
G37*
G36*
X618460Y49908D02*
X615506D01*
Y45512D01*
X618973D01*
X619154Y45525D01*
X619334D01*
X619528Y45539D01*
X619709Y45553D01*
X619847Y45567D01*
X619875D01*
X619944Y45581D01*
X620055Y45609D01*
X620194Y45650D01*
X620346Y45692D01*
X620499Y45761D01*
X620665Y45831D01*
X620818Y45914D01*
X620832Y45928D01*
X620887Y45955D01*
X620957Y46011D01*
X621054Y46094D01*
X621151Y46191D01*
X621262Y46316D01*
X621373Y46455D01*
X621470Y46621D01*
X621484Y46649D01*
X621511Y46704D01*
X621553Y46801D01*
X621608Y46940D01*
X621650Y47093D01*
X621692Y47273D01*
X621719Y47481D01*
X621733Y47703D01*
Y47717D01*
Y47731D01*
Y47772D01*
Y47828D01*
X621719Y47952D01*
X621692Y48133D01*
X621636Y48327D01*
X621581Y48535D01*
X621484Y48743D01*
X621359Y48951D01*
X621345Y48979D01*
X621289Y49034D01*
X621206Y49131D01*
X621095Y49242D01*
X620943Y49367D01*
X620762Y49478D01*
X620568Y49589D01*
X620332Y49686D01*
X620319D01*
X620305Y49700D01*
X620263Y49714D01*
X620208Y49728D01*
X620138Y49742D01*
X620069Y49755D01*
X619972Y49783D01*
X619861Y49797D01*
X619722Y49825D01*
X619584Y49839D01*
X619431Y49852D01*
X619265Y49880D01*
X618890Y49894D01*
X618460Y49908D01*
D02*
G37*
G36*
X607005Y55386D02*
X602692D01*
Y51156D01*
X606520D01*
X606617Y51170D01*
X606728D01*
X606991Y51184D01*
X607282Y51212D01*
X607588Y51253D01*
X607879Y51309D01*
X608142Y51392D01*
X608156D01*
X608170Y51406D01*
X608253Y51434D01*
X608364Y51489D01*
X608517Y51572D01*
X608669Y51683D01*
X608836Y51808D01*
X609002Y51974D01*
X609141Y52155D01*
X609155Y52182D01*
X609196Y52252D01*
X609252Y52349D01*
X609321Y52501D01*
X609376Y52668D01*
X609432Y52862D01*
X609474Y53084D01*
X609487Y53306D01*
Y53320D01*
Y53347D01*
Y53389D01*
X609474Y53458D01*
Y53528D01*
X609460Y53625D01*
X609404Y53833D01*
X609321Y54068D01*
X609210Y54318D01*
X609044Y54554D01*
X608933Y54679D01*
X608822Y54790D01*
X608808Y54804D01*
X608794Y54817D01*
X608752Y54845D01*
X608697Y54887D01*
X608628Y54928D01*
X608531Y54984D01*
X608433Y55039D01*
X608309Y55095D01*
X608170Y55150D01*
X608017Y55192D01*
X607851Y55247D01*
X607671Y55289D01*
X607463Y55331D01*
X607241Y55358D01*
X607005Y55386D01*
D02*
G37*
G36*
X298873Y54677D02*
Y54663D01*
X298859Y54622D01*
X298845Y54552D01*
X298831Y54469D01*
X298803Y54344D01*
X298776Y54220D01*
X298734Y54067D01*
X298692Y53901D01*
X298651Y53720D01*
X298595Y53526D01*
X298470Y53110D01*
X298332Y52666D01*
X298179Y52209D01*
X296765Y48450D01*
X301133D01*
X299788Y52001D01*
Y52014D01*
X299760Y52070D01*
X299732Y52153D01*
X299691Y52278D01*
X299635Y52403D01*
X299580Y52569D01*
X299510Y52750D01*
X299441Y52944D01*
X299302Y53374D01*
X299150Y53817D01*
X298997Y54261D01*
X298873Y54677D01*
D02*
G37*
G36*
X254202Y54497D02*
X251401D01*
Y50628D01*
X254438D01*
X254549Y50641D01*
X254785D01*
X255048Y50655D01*
X255326Y50683D01*
X255575Y50725D01*
X255686Y50739D01*
X255783Y50766D01*
X255797D01*
X255811Y50780D01*
X255894Y50808D01*
X256005Y50849D01*
X256144Y50919D01*
X256297Y51002D01*
X256463Y51113D01*
X256616Y51252D01*
X256754Y51404D01*
X256768Y51432D01*
X256810Y51487D01*
X256865Y51585D01*
X256921Y51709D01*
X256976Y51876D01*
X257032Y52070D01*
X257073Y52278D01*
X257087Y52528D01*
Y52541D01*
Y52555D01*
Y52639D01*
X257073Y52750D01*
X257045Y52902D01*
X257004Y53082D01*
X256948Y53277D01*
X256879Y53471D01*
X256768Y53651D01*
X256754Y53679D01*
X256713Y53734D01*
X256643Y53817D01*
X256546Y53914D01*
X256421Y54025D01*
X256269Y54136D01*
X256102Y54233D01*
X255894Y54317D01*
X255867Y54331D01*
X255839D01*
X255783Y54344D01*
X255728Y54358D01*
X255645Y54372D01*
X255548Y54386D01*
X255451Y54414D01*
X255326Y54428D01*
X255173Y54441D01*
X255021Y54455D01*
X254840Y54469D01*
X254646Y54483D01*
X254438D01*
X254202Y54497D01*
D02*
G37*
G36*
X254355Y49116D02*
X251401D01*
Y44720D01*
X254868D01*
X255048Y44734D01*
X255229D01*
X255423Y44747D01*
X255603Y44761D01*
X255742Y44775D01*
X255770D01*
X255839Y44789D01*
X255950Y44817D01*
X256089Y44858D01*
X256241Y44900D01*
X256394Y44969D01*
X256560Y45039D01*
X256713Y45122D01*
X256726Y45136D01*
X256782Y45163D01*
X256851Y45219D01*
X256948Y45302D01*
X257045Y45399D01*
X257156Y45524D01*
X257267Y45663D01*
X257364Y45829D01*
X257378Y45857D01*
X257406Y45912D01*
X257448Y46009D01*
X257503Y46148D01*
X257545Y46301D01*
X257586Y46481D01*
X257614Y46689D01*
X257628Y46911D01*
Y46925D01*
Y46939D01*
Y46980D01*
Y47036D01*
X257614Y47161D01*
X257586Y47341D01*
X257531Y47535D01*
X257475Y47743D01*
X257378Y47951D01*
X257253Y48159D01*
X257240Y48187D01*
X257184Y48242D01*
X257101Y48339D01*
X256990Y48450D01*
X256837Y48575D01*
X256657Y48686D01*
X256463Y48797D01*
X256227Y48894D01*
X256213D01*
X256199Y48908D01*
X256158Y48922D01*
X256102Y48936D01*
X256033Y48949D01*
X255964Y48963D01*
X255867Y48991D01*
X255756Y49005D01*
X255617Y49033D01*
X255478Y49047D01*
X255326Y49061D01*
X255159Y49088D01*
X254785Y49102D01*
X254355Y49116D01*
D02*
G37*
G36*
X596958Y895907D02*
X596944D01*
X596916D01*
X596875D01*
X596819D01*
X596666Y895879D01*
X596486Y895851D01*
X596264Y895810D01*
X596042Y895726D01*
X595807Y895629D01*
X595585Y895491D01*
X595557Y895477D01*
X595488Y895421D01*
X595391Y895324D01*
X595280Y895213D01*
X595155Y895047D01*
X595030Y894867D01*
X594919Y894659D01*
X594836Y894423D01*
Y894409D01*
X594822Y894340D01*
X594794Y894229D01*
X594767Y894062D01*
Y893965D01*
X594753Y893854D01*
X594739Y893716D01*
X594725Y893577D01*
Y893410D01*
X594711Y893244D01*
Y889569D01*
X599288D01*
Y893022D01*
X599274Y893133D01*
Y893272D01*
X599260Y893424D01*
X599232Y893605D01*
X599204Y893785D01*
X599135Y894173D01*
X599024Y894561D01*
X598955Y894742D01*
X598872Y894908D01*
X598788Y895075D01*
X598677Y895213D01*
X598664Y895227D01*
X598650Y895241D01*
X598608Y895283D01*
X598567Y895324D01*
X598428Y895435D01*
X598234Y895560D01*
X597984Y895685D01*
X597693Y895796D01*
X597346Y895879D01*
X597166Y895893D01*
X596958Y895907D01*
D02*
G37*
G36*
Y883980D02*
X596944D01*
X596916D01*
X596875D01*
X596819D01*
X596666Y883952D01*
X596486Y883924D01*
X596264Y883883D01*
X596042Y883800D01*
X595807Y883703D01*
X595585Y883564D01*
X595557Y883550D01*
X595488Y883494D01*
X595391Y883398D01*
X595280Y883287D01*
X595155Y883120D01*
X595030Y882940D01*
X594919Y882732D01*
X594836Y882496D01*
Y882482D01*
X594822Y882413D01*
X594794Y882302D01*
X594767Y882135D01*
Y882038D01*
X594753Y881927D01*
X594739Y881789D01*
X594725Y881650D01*
Y881484D01*
X594711Y881317D01*
Y877642D01*
X599288D01*
Y881095D01*
X599274Y881206D01*
Y881345D01*
X599260Y881497D01*
X599232Y881678D01*
X599204Y881858D01*
X599135Y882246D01*
X599024Y882635D01*
X598955Y882815D01*
X598872Y882981D01*
X598788Y883148D01*
X598677Y883287D01*
X598664Y883300D01*
X598650Y883314D01*
X598608Y883356D01*
X598567Y883398D01*
X598428Y883508D01*
X598234Y883633D01*
X597984Y883758D01*
X597693Y883869D01*
X597346Y883952D01*
X597166Y883966D01*
X596958Y883980D01*
D02*
G37*
G36*
X412958Y895907D02*
X412944D01*
X412916D01*
X412875D01*
X412819D01*
X412667Y895879D01*
X412486Y895851D01*
X412264Y895810D01*
X412043Y895726D01*
X411807Y895629D01*
X411585Y895491D01*
X411557Y895477D01*
X411488Y895421D01*
X411391Y895324D01*
X411280Y895213D01*
X411155Y895047D01*
X411030Y894867D01*
X410919Y894659D01*
X410836Y894423D01*
Y894409D01*
X410822Y894340D01*
X410794Y894229D01*
X410767Y894062D01*
Y893965D01*
X410753Y893854D01*
X410739Y893716D01*
X410725Y893577D01*
Y893410D01*
X410711Y893244D01*
Y889569D01*
X415288D01*
Y893022D01*
X415274Y893133D01*
Y893272D01*
X415260Y893424D01*
X415232Y893605D01*
X415205Y893785D01*
X415135Y894173D01*
X415024Y894562D01*
X414955Y894742D01*
X414872Y894908D01*
X414788Y895075D01*
X414678Y895213D01*
X414664Y895227D01*
X414650Y895241D01*
X414608Y895283D01*
X414566Y895324D01*
X414428Y895435D01*
X414234Y895560D01*
X413984Y895685D01*
X413693Y895796D01*
X413346Y895879D01*
X413166Y895893D01*
X412958Y895907D01*
D02*
G37*
G36*
Y883980D02*
X412944D01*
X412916D01*
X412875D01*
X412819D01*
X412667Y883952D01*
X412486Y883924D01*
X412264Y883883D01*
X412043Y883800D01*
X411807Y883703D01*
X411585Y883564D01*
X411557Y883550D01*
X411488Y883495D01*
X411391Y883398D01*
X411280Y883287D01*
X411155Y883120D01*
X411030Y882940D01*
X410919Y882732D01*
X410836Y882496D01*
Y882482D01*
X410822Y882413D01*
X410794Y882302D01*
X410767Y882135D01*
Y882038D01*
X410753Y881927D01*
X410739Y881789D01*
X410725Y881650D01*
Y881484D01*
X410711Y881317D01*
Y877642D01*
X415288D01*
Y881095D01*
X415274Y881206D01*
Y881345D01*
X415260Y881497D01*
X415232Y881678D01*
X415205Y881858D01*
X415135Y882246D01*
X415024Y882635D01*
X414955Y882815D01*
X414872Y882981D01*
X414788Y883148D01*
X414678Y883287D01*
X414664Y883300D01*
X414650Y883314D01*
X414608Y883356D01*
X414566Y883398D01*
X414428Y883508D01*
X414234Y883633D01*
X413984Y883758D01*
X413693Y883869D01*
X413346Y883952D01*
X413166Y883966D01*
X412958Y883980D01*
D02*
G37*
%LPD*%
D10*
X112000Y551180D02*
G03*
X112000Y551180I-1000J0D01*
G01*
D11*
X693250Y386250D02*
G03*
X693250Y386250I-500J0D01*
G01*
D12*
X501750Y355250D02*
G03*
X501750Y355250I-500J0D01*
G01*
X816450Y706250D02*
G03*
X816450Y706250I-500J0D01*
G01*
X763497Y644500D02*
G03*
X763497Y644500I-250J0D01*
G01*
X425500Y844000D02*
G03*
X425500Y844000I-500J0D01*
G01*
X826250Y844750D02*
G03*
X826250Y844750I-500J0D01*
G01*
X344750Y233338D02*
G03*
X344750Y233338I-250J0D01*
G01*
X565750Y192191D02*
G03*
X565750Y192191I-250J0D01*
G01*
X634250Y268750D02*
G03*
X634250Y268750I-500J0D01*
G01*
X694250Y49750D02*
G03*
X694250Y49750I-500J0D01*
G01*
X317000Y485000D02*
G03*
X317000Y485000I-500J0D01*
G01*
X366500Y283000D02*
G03*
X366500Y283000I-500J0D01*
G01*
X290000Y850000D02*
G03*
X290000Y850000I-500J0D01*
G01*
X656000Y815000D02*
G03*
X656000Y815000I-500J0D01*
G01*
D13*
X697894Y132950D02*
G03*
X697894Y132950I-1000J0D01*
G01*
X581300Y830450D02*
G03*
X581300Y830450I-1000J0D01*
G01*
X849500Y284250D02*
G03*
X849500Y284250I-1000J0D01*
G01*
X207750Y396250D02*
G03*
X207750Y396250I-1000J0D01*
G01*
X62850Y146875D02*
G03*
X62850Y146875I-1000J0D01*
G01*
X174700D02*
G03*
X174700Y146875I-1000J0D01*
G01*
X230000Y887000D02*
G03*
X230000Y887000I-1000J0D01*
G01*
X307200Y269800D02*
G03*
X307200Y269800I-1000J0D01*
G01*
X343300Y830450D02*
G03*
X343300Y830450I-1000J0D01*
G01*
X115200Y113950D02*
G03*
X115200Y113950I-1000J0D01*
G01*
X64000Y594000D02*
Y606000D01*
X567000Y890000D02*
Y893000D01*
X558750Y890000D02*
X567000D01*
X524500D02*
X532750D01*
X524500D02*
Y893000D01*
X375250Y890000D02*
X383500D01*
Y893000D01*
X341000Y890000D02*
X349250D01*
X341000D02*
Y893000D01*
X737000Y354745D02*
Y374745D01*
X556000Y566700D02*
X576000D01*
X331700D02*
X351700D01*
X52000Y712750D02*
X63000D01*
X52000D02*
Y768750D01*
X63000D01*
X94000Y712750D02*
X105000D01*
Y768750D01*
X94000D02*
X105000D01*
X94000D02*
X105000D01*
Y712750D02*
Y768750D01*
X94000Y712750D02*
X105000D01*
D14*
X650193Y118016D02*
G03*
X650193Y118016I-500J0D01*
G01*
X657750Y376250D02*
Y381250D01*
X662750D01*
X692750D02*
X697750D01*
Y376250D02*
Y381250D01*
Y341250D02*
Y346250D01*
X692750Y341250D02*
X697750D01*
X657750D02*
X662750D01*
X657750D02*
Y346250D01*
X819200Y234250D02*
X841000D01*
Y334250D01*
X819200D02*
X841000D01*
X741000D02*
X762800D01*
X741000Y234250D02*
Y334250D01*
Y234250D02*
X762800D01*
X564950Y69750D02*
X573500D01*
Y66000D02*
Y69750D01*
X504500D02*
X513050D01*
X504500Y66000D02*
Y69750D01*
X503500Y639500D02*
Y764500D01*
X628500Y639500D02*
Y764500D01*
X503500D02*
X546800D01*
X585200D02*
X628500D01*
X503500Y639500D02*
X546800D01*
X585200D02*
X628500D01*
X343000Y66000D02*
Y70750D01*
X351550D01*
X437000Y66000D02*
Y70750D01*
X428450D02*
X437000D01*
X279500Y639500D02*
Y764500D01*
X404500Y639500D02*
Y764500D01*
X279500D02*
X322800D01*
X361200D02*
X404500D01*
X279500Y639500D02*
X322800D01*
X361200D02*
X404500D01*
X181999Y558002D02*
X176001D01*
Y561001D01*
X177001Y562001D01*
X179000D01*
X180000Y561001D01*
Y558002D01*
Y560002D02*
X181999Y562001D01*
X177001Y564000D02*
X176001Y565000D01*
Y566999D01*
X177001Y567999D01*
X178000D01*
X179000Y566999D01*
X180000Y567999D01*
X180999D01*
X181999Y566999D01*
Y565000D01*
X180999Y564000D01*
X180000D01*
X179000Y565000D01*
X178000Y564000D01*
X177001D01*
X179000Y565000D02*
Y566999D01*
X181999Y569998D02*
Y571998D01*
Y570998D01*
X176001D01*
X177001Y569998D01*
X197999Y558003D02*
X192001D01*
Y561002D01*
X193001Y562001D01*
X195000D01*
X196000Y561002D01*
Y558003D01*
Y560002D02*
X197999Y562001D01*
X193001Y564001D02*
X192001Y565000D01*
Y567000D01*
X193001Y567999D01*
X194000D01*
X195000Y567000D01*
X196000Y567999D01*
X196999D01*
X197999Y567000D01*
Y565000D01*
X196999Y564001D01*
X196000D01*
X195000Y565000D01*
X194000Y564001D01*
X193001D01*
X195000Y565000D02*
Y567000D01*
X193001Y569999D02*
X192001Y570998D01*
Y572998D01*
X193001Y573997D01*
X196999D01*
X197999Y572998D01*
Y570998D01*
X196999Y569999D01*
X193001D01*
X214999Y558003D02*
X209001D01*
Y561002D01*
X210001Y562001D01*
X212000D01*
X213000Y561002D01*
Y558003D01*
Y560002D02*
X214999Y562001D01*
X209001Y564001D02*
Y567999D01*
X210001D01*
X213999Y564001D01*
X214999D01*
X213999Y569999D02*
X214999Y570998D01*
Y572998D01*
X213999Y573997D01*
X210001D01*
X209001Y572998D01*
Y570998D01*
X210001Y569999D01*
X211000D01*
X212000Y570998D01*
Y573997D01*
X229999Y558003D02*
X224001D01*
Y561002D01*
X225001Y562001D01*
X227000D01*
X228000Y561002D01*
Y558003D01*
Y560002D02*
X229999Y562001D01*
X224001Y564001D02*
Y567999D01*
X225001D01*
X228999Y564001D01*
X229999D01*
X225001Y569999D02*
X224001Y570998D01*
Y572998D01*
X225001Y573997D01*
X226000D01*
X227000Y572998D01*
X228000Y573997D01*
X228999D01*
X229999Y572998D01*
Y570998D01*
X228999Y569999D01*
X228000D01*
X227000Y570998D01*
X226000Y569999D01*
X225001D01*
X227000Y570998D02*
Y572998D01*
X101003Y579001D02*
Y584999D01*
X104002D01*
X105001Y583999D01*
Y582000D01*
X104002Y581000D01*
X101003D01*
X103002D02*
X105001Y579001D01*
X107001Y584999D02*
X110999D01*
Y583999D01*
X107001Y580001D01*
Y579001D01*
X112999Y584999D02*
X116997D01*
Y583999D01*
X112999Y580001D01*
Y579001D01*
X101503Y602999D02*
Y597001D01*
X104501D01*
X105501Y598001D01*
Y601999D01*
X104501Y602999D01*
X101503D01*
X107500Y597001D02*
X109500D01*
X108500D01*
Y602999D01*
X107500Y601999D01*
X112499D02*
X113499Y602999D01*
X115498D01*
X116498Y601999D01*
Y598001D01*
X115498Y597001D01*
X113499D01*
X112499Y598001D01*
Y601999D01*
X662946Y164751D02*
Y170749D01*
X665945D01*
X666945Y169749D01*
Y167750D01*
X665945Y166750D01*
X662946D01*
X664946D02*
X666945Y164751D01*
X672943Y170749D02*
X670944Y169749D01*
X668944Y167750D01*
Y165751D01*
X669944Y164751D01*
X671943D01*
X672943Y165751D01*
Y166750D01*
X671943Y167750D01*
X668944D01*
X674942Y169749D02*
X675942Y170749D01*
X677941D01*
X678941Y169749D01*
Y168750D01*
X677941Y167750D01*
X678941Y166750D01*
Y165751D01*
X677941Y164751D01*
X675942D01*
X674942Y165751D01*
Y166750D01*
X675942Y167750D01*
X674942Y168750D01*
Y169749D01*
X675942Y167750D02*
X677941D01*
X727748Y616003D02*
X732746D01*
X733746Y617002D01*
Y619002D01*
X732746Y620001D01*
X727748D01*
X733746Y622001D02*
Y624000D01*
Y623000D01*
X727748D01*
X728748Y622001D01*
X727748Y626999D02*
Y630998D01*
X728748D01*
X732746Y626999D01*
X733746D01*
X694499Y584003D02*
X688501D01*
Y587002D01*
X689501Y588001D01*
X691500D01*
X692500Y587002D01*
Y584003D01*
Y586002D02*
X694499Y588001D01*
X688501Y590001D02*
Y593999D01*
X689501D01*
X693499Y590001D01*
X694499D01*
X688501Y599997D02*
X689501Y597998D01*
X691500Y595999D01*
X693499D01*
X694499Y596998D01*
Y598998D01*
X693499Y599997D01*
X692500D01*
X691500Y598998D01*
Y595999D01*
X679249Y584003D02*
X673251D01*
Y587002D01*
X674251Y588001D01*
X676250D01*
X677250Y587002D01*
Y584003D01*
Y586002D02*
X679249Y588001D01*
X673251Y590001D02*
Y593999D01*
X674251D01*
X678249Y590001D01*
X679249D01*
X673251Y599997D02*
Y595999D01*
X676250D01*
X675250Y597998D01*
Y598998D01*
X676250Y599997D01*
X678249D01*
X679249Y598998D01*
Y596998D01*
X678249Y595999D01*
X751199Y555503D02*
X745201D01*
Y558502D01*
X746201Y559501D01*
X748200D01*
X749200Y558502D01*
Y555503D01*
Y557502D02*
X751199Y559501D01*
X745201Y561501D02*
Y565499D01*
X746201D01*
X750200Y561501D01*
X751199D01*
Y570498D02*
X745201D01*
X748200Y567499D01*
Y571497D01*
X734949Y697497D02*
X728951D01*
Y700497D01*
X729951Y701496D01*
X731950D01*
X732950Y700497D01*
Y697497D01*
Y699497D02*
X734949Y701496D01*
X728951Y703496D02*
Y707494D01*
X729951D01*
X733949Y703496D01*
X734949D01*
X729951Y709494D02*
X728951Y710493D01*
Y712493D01*
X729951Y713492D01*
X730950D01*
X731950Y712493D01*
Y711493D01*
Y712493D01*
X732950Y713492D01*
X733949D01*
X734949Y712493D01*
Y710493D01*
X733949Y709494D01*
X751324Y695219D02*
X745326D01*
Y698218D01*
X746326Y699218D01*
X748325D01*
X749325Y698218D01*
Y695219D01*
Y697218D02*
X751324Y699218D01*
X745326Y701217D02*
Y705216D01*
X746326D01*
X750324Y701217D01*
X751324D01*
Y711214D02*
Y707215D01*
X747325Y711214D01*
X746326D01*
X745326Y710214D01*
Y708215D01*
X746326Y707215D01*
X767824Y695247D02*
X761826D01*
Y698246D01*
X762826Y699246D01*
X764825D01*
X765825Y698246D01*
Y695247D01*
Y697247D02*
X767824Y699246D01*
X761826Y701245D02*
Y705244D01*
X762826D01*
X766824Y701245D01*
X767824D01*
Y707243D02*
Y709243D01*
Y708243D01*
X761826D01*
X762826Y707243D01*
X782949Y695503D02*
X776951D01*
Y698502D01*
X777951Y699501D01*
X779950D01*
X780950Y698502D01*
Y695503D01*
Y697502D02*
X782949Y699501D01*
X776951Y701501D02*
Y705499D01*
X777951D01*
X781949Y701501D01*
X782949D01*
X777951Y707499D02*
X776951Y708498D01*
Y710498D01*
X777951Y711497D01*
X781949D01*
X782949Y710498D01*
Y708498D01*
X781949Y707499D01*
X777951D01*
X846449Y687508D02*
X840451D01*
Y690507D01*
X841451Y691506D01*
X843450D01*
X844450Y690507D01*
Y687508D01*
Y689507D02*
X846449Y691506D01*
X840451Y697504D02*
X841451Y695505D01*
X843450Y693506D01*
X845449D01*
X846449Y694505D01*
Y696505D01*
X845449Y697504D01*
X844450D01*
X843450Y696505D01*
Y693506D01*
X845449Y699504D02*
X846449Y700503D01*
Y702503D01*
X845449Y703502D01*
X841451D01*
X840451Y702503D01*
Y700503D01*
X841451Y699504D01*
X842450D01*
X843450Y700503D01*
Y703502D01*
X793950Y666499D02*
Y662501D01*
X794949Y661501D01*
X796949D01*
X797949Y662501D01*
Y666499D01*
X796949Y667499D01*
X794949D01*
X795949Y665500D02*
X793950Y667499D01*
X794949D02*
X793950Y666499D01*
X791950Y661501D02*
X787952D01*
Y662501D01*
X791950Y666499D01*
Y667499D01*
X761201Y557251D02*
X760201Y556252D01*
Y554252D01*
X761201Y553253D01*
X765200D01*
X766199Y554252D01*
Y556252D01*
X765200Y557251D01*
X761201Y559251D02*
X760201Y560250D01*
Y562250D01*
X761201Y563249D01*
X762200D01*
X763200Y562250D01*
X764200Y563249D01*
X765200D01*
X766199Y562250D01*
Y560250D01*
X765200Y559251D01*
X764200D01*
X763200Y560250D01*
X762200Y559251D01*
X761201D01*
X763200Y560250D02*
Y562250D01*
X761201Y565249D02*
X760201Y566248D01*
Y568248D01*
X761201Y569247D01*
X762200D01*
X763200Y568248D01*
X764200Y569247D01*
X765200D01*
X766199Y568248D01*
Y566248D01*
X765200Y565249D01*
X764200D01*
X763200Y566248D01*
X762200Y565249D01*
X761201D01*
X763200Y566248D02*
Y568248D01*
X728765Y557251D02*
X727765Y556252D01*
Y554252D01*
X728765Y553253D01*
X732764D01*
X733763Y554252D01*
Y556252D01*
X732764Y557251D01*
X728765Y559251D02*
X727765Y560250D01*
Y562250D01*
X728765Y563249D01*
X729765D01*
X730764Y562250D01*
X731764Y563249D01*
X732764D01*
X733763Y562250D01*
Y560250D01*
X732764Y559251D01*
X731764D01*
X730764Y560250D01*
X729765Y559251D01*
X728765D01*
X730764Y560250D02*
Y562250D01*
X727765Y565249D02*
Y569247D01*
X728765D01*
X732764Y565249D01*
X733763D01*
X648696Y83515D02*
Y78516D01*
X649696Y77517D01*
X651695D01*
X652695Y78516D01*
Y83515D01*
X654694Y77517D02*
X656693D01*
X655694D01*
Y83515D01*
X654694Y82515D01*
X663691Y83515D02*
X661692Y82515D01*
X659692Y80516D01*
Y78516D01*
X660692Y77517D01*
X662691D01*
X663691Y78516D01*
Y79516D01*
X662691Y80516D01*
X659692D01*
X735499Y80247D02*
X730501D01*
X729501Y79248D01*
Y77249D01*
X730501Y76249D01*
X735499D01*
X729501Y74250D02*
Y72250D01*
Y73250D01*
X735499D01*
X734499Y74250D01*
X735499Y65252D02*
Y69251D01*
X732500D01*
X733500Y67252D01*
Y66252D01*
X732500Y65252D01*
X730501D01*
X729501Y66252D01*
Y68251D01*
X730501Y69251D01*
X829749Y796498D02*
X824751D01*
X823751Y795498D01*
Y793499D01*
X824751Y792499D01*
X829749D01*
X823751Y790499D02*
Y788500D01*
Y789500D01*
X829749D01*
X828749Y790499D01*
X823751Y782502D02*
X829749D01*
X826750Y785501D01*
Y781503D01*
X239909Y785599D02*
Y790597D01*
X238909Y791597D01*
X236910D01*
X235910Y790597D01*
Y785599D01*
X233911Y791597D02*
X231912D01*
X232911D01*
Y785599D01*
X233911Y786599D01*
X228913D02*
X227913Y785599D01*
X225914D01*
X224914Y786599D01*
Y787598D01*
X225914Y788598D01*
X226913D01*
X225914D01*
X224914Y789598D01*
Y790597D01*
X225914Y791597D01*
X227913D01*
X228913Y790597D01*
X126248Y674751D02*
Y679749D01*
X125248Y680749D01*
X123249D01*
X122249Y679749D01*
Y674751D01*
X120250Y680749D02*
X118250D01*
X119250D01*
Y674751D01*
X120250Y675751D01*
X111252Y680749D02*
X115251D01*
X111252Y676750D01*
Y675751D01*
X112252Y674751D01*
X114251D01*
X115251Y675751D01*
X366252Y324249D02*
Y319251D01*
X367252Y318251D01*
X369252D01*
X370251Y319251D01*
Y324249D01*
X372251Y318251D02*
X374250D01*
X373250D01*
Y324249D01*
X372251Y323249D01*
X377249D02*
X378248Y324249D01*
X380248D01*
X381247Y323249D01*
Y319251D01*
X380248Y318251D01*
X378248D01*
X377249Y319251D01*
Y323249D01*
X372998Y196839D02*
Y201838D01*
X371999Y202838D01*
X369999D01*
X369000Y201838D01*
Y196839D01*
X367000Y201838D02*
X366001Y202838D01*
X364001D01*
X363002Y201838D01*
Y197839D01*
X364001Y196839D01*
X366001D01*
X367000Y197839D01*
Y198839D01*
X366001Y199838D01*
X363002D01*
X364002Y490999D02*
Y486001D01*
X365002Y485001D01*
X367001D01*
X368001Y486001D01*
Y490999D01*
X370000Y485001D02*
X372000D01*
X371000D01*
Y490999D01*
X370000Y489999D01*
X374999Y485001D02*
X376998D01*
X375998D01*
Y490999D01*
X374999Y489999D01*
X536002Y228440D02*
Y223441D01*
X537001Y222442D01*
X539001D01*
X540000Y223441D01*
Y228440D01*
X545998D02*
X542000D01*
Y225441D01*
X543999Y226440D01*
X544999D01*
X545998Y225441D01*
Y223441D01*
X544999Y222442D01*
X542999D01*
X542000Y223441D01*
X476002Y848999D02*
Y844001D01*
X477001Y843001D01*
X479001D01*
X480000Y844001D01*
Y848999D01*
X482000Y847999D02*
X482999Y848999D01*
X484999D01*
X485998Y847999D01*
Y847000D01*
X484999Y846000D01*
X483999D01*
X484999D01*
X485998Y845000D01*
Y844001D01*
X484999Y843001D01*
X482999D01*
X482000Y844001D01*
X816000Y423749D02*
X815001Y424749D01*
X813001D01*
X812002Y423749D01*
Y422750D01*
X813001Y421750D01*
X815001D01*
X816000Y420750D01*
Y419751D01*
X815001Y418751D01*
X813001D01*
X812002Y419751D01*
X821998Y418751D02*
X818000D01*
X821998Y422750D01*
Y423749D01*
X820999Y424749D01*
X818999D01*
X818000Y423749D01*
X818000Y377249D02*
X817000Y378249D01*
X815001D01*
X814001Y377249D01*
Y376250D01*
X815001Y375250D01*
X817000D01*
X818000Y374250D01*
Y373251D01*
X817000Y372251D01*
X815001D01*
X814001Y373251D01*
X819999Y372251D02*
X821999D01*
X820999D01*
Y378249D01*
X819999Y377249D01*
X773508Y750126D02*
Y756124D01*
X776507D01*
X777506Y755124D01*
Y753125D01*
X776507Y752125D01*
X773508D01*
X775507D02*
X777506Y750126D01*
X783504Y756124D02*
X781505Y755124D01*
X779506Y753125D01*
Y751126D01*
X780505Y750126D01*
X782505D01*
X783504Y751126D01*
Y752125D01*
X782505Y753125D01*
X779506D01*
X785504Y756124D02*
X789502D01*
Y755124D01*
X785504Y751126D01*
Y750126D01*
X773508Y734126D02*
Y740124D01*
X776507D01*
X777506Y739124D01*
Y737125D01*
X776507Y736125D01*
X773508D01*
X775507D02*
X777506Y734126D01*
X783504Y740124D02*
X781505Y739124D01*
X779506Y737125D01*
Y735126D01*
X780505Y734126D01*
X782505D01*
X783504Y735126D01*
Y736125D01*
X782505Y737125D01*
X779506D01*
X789502Y740124D02*
X787503Y739124D01*
X785504Y737125D01*
Y735126D01*
X786503Y734126D01*
X788503D01*
X789502Y735126D01*
Y736125D01*
X788503Y737125D01*
X785504D01*
X117749Y618753D02*
X111751D01*
Y621752D01*
X112751Y622751D01*
X114750D01*
X115750Y621752D01*
Y618753D01*
Y620752D02*
X117749Y622751D01*
X111751Y628749D02*
X112751Y626750D01*
X114750Y624751D01*
X116749D01*
X117749Y625750D01*
Y627750D01*
X116749Y628749D01*
X115750D01*
X114750Y627750D01*
Y624751D01*
X111751Y634747D02*
Y630749D01*
X114750D01*
X113750Y632748D01*
Y633748D01*
X114750Y634747D01*
X116749D01*
X117749Y633748D01*
Y631748D01*
X116749Y630749D01*
X85749Y619003D02*
X79751D01*
Y622002D01*
X80751Y623001D01*
X82750D01*
X83750Y622002D01*
Y619003D01*
Y621002D02*
X85749Y623001D01*
X79751Y628999D02*
X80751Y627000D01*
X82750Y625001D01*
X84749D01*
X85749Y626000D01*
Y628000D01*
X84749Y628999D01*
X83750D01*
X82750Y628000D01*
Y625001D01*
X85749Y633998D02*
X79751D01*
X82750Y630999D01*
Y634997D01*
X138001Y635247D02*
X143999D01*
Y632248D01*
X142999Y631249D01*
X141000D01*
X140000Y632248D01*
Y635247D01*
Y633248D02*
X138001Y631249D01*
X143999Y625251D02*
X142999Y627250D01*
X141000Y629249D01*
X139001D01*
X138001Y628250D01*
Y626250D01*
X139001Y625251D01*
X140000D01*
X141000Y626250D01*
Y629249D01*
X142999Y623251D02*
X143999Y622252D01*
Y620252D01*
X142999Y619253D01*
X142000D01*
X141000Y620252D01*
Y621252D01*
Y620252D01*
X140000Y619253D01*
X139001D01*
X138001Y620252D01*
Y622252D01*
X139001Y623251D01*
X154251Y635247D02*
X160249D01*
Y632248D01*
X159249Y631249D01*
X157250D01*
X156250Y632248D01*
Y635247D01*
Y633248D02*
X154251Y631249D01*
X160249Y625251D02*
X159249Y627250D01*
X157250Y629249D01*
X155251D01*
X154251Y628250D01*
Y626250D01*
X155251Y625251D01*
X156250D01*
X157250Y626250D01*
Y629249D01*
X154251Y619253D02*
Y623251D01*
X158250Y619253D01*
X159249D01*
X160249Y620252D01*
Y622252D01*
X159249Y623251D01*
X286749Y457247D02*
X280751D01*
Y460246D01*
X281751Y461246D01*
X283750D01*
X284750Y460246D01*
Y457247D01*
Y459247D02*
X286749Y461246D01*
X280751Y467244D02*
X281751Y465245D01*
X283750Y463245D01*
X285749D01*
X286749Y464245D01*
Y466244D01*
X285749Y467244D01*
X284750D01*
X283750Y466244D01*
Y463245D01*
X286749Y469243D02*
Y471243D01*
Y470243D01*
X280751D01*
X281751Y469243D01*
X302999Y457248D02*
X297001D01*
Y460247D01*
X298001Y461246D01*
X300000D01*
X301000Y460247D01*
Y457248D01*
Y459247D02*
X302999Y461246D01*
X297001Y467244D02*
X298001Y465245D01*
X300000Y463246D01*
X301999D01*
X302999Y464245D01*
Y466245D01*
X301999Y467244D01*
X301000D01*
X300000Y466245D01*
Y463246D01*
X298001Y469244D02*
X297001Y470243D01*
Y472243D01*
X298001Y473242D01*
X301999D01*
X302999Y472243D01*
Y470243D01*
X301999Y469244D01*
X298001D01*
X398253Y266751D02*
Y272749D01*
X401252D01*
X402251Y271749D01*
Y269750D01*
X401252Y268750D01*
X398253D01*
X400252D02*
X402251Y266751D01*
X408249Y272749D02*
X404251D01*
Y269750D01*
X406250Y270750D01*
X407250D01*
X408249Y269750D01*
Y267751D01*
X407250Y266751D01*
X405250D01*
X404251Y267751D01*
X410249D02*
X411248Y266751D01*
X413248D01*
X414247Y267751D01*
Y271749D01*
X413248Y272749D01*
X411248D01*
X410249Y271749D01*
Y270750D01*
X411248Y269750D01*
X414247D01*
X293499Y301253D02*
X287501D01*
Y304252D01*
X288501Y305251D01*
X290500D01*
X291500Y304252D01*
Y301253D01*
Y303252D02*
X293499Y305251D01*
X287501Y311249D02*
Y307251D01*
X290500D01*
X289500Y309250D01*
Y310250D01*
X290500Y311249D01*
X292499D01*
X293499Y310250D01*
Y308250D01*
X292499Y307251D01*
X288501Y313249D02*
X287501Y314248D01*
Y316248D01*
X288501Y317247D01*
X289500D01*
X290500Y316248D01*
X291500Y317247D01*
X292499D01*
X293499Y316248D01*
Y314248D01*
X292499Y313249D01*
X291500D01*
X290500Y314248D01*
X289500Y313249D01*
X288501D01*
X290500Y314248D02*
Y316248D01*
X546001Y120497D02*
X551999D01*
Y117498D01*
X550999Y116499D01*
X549000D01*
X548000Y117498D01*
Y120497D01*
Y118498D02*
X546001Y116499D01*
X551999Y110501D02*
Y114499D01*
X549000D01*
X550000Y112500D01*
Y111500D01*
X549000Y110501D01*
X547001D01*
X546001Y111500D01*
Y113500D01*
X547001Y114499D01*
X551999Y108501D02*
Y104503D01*
X550999D01*
X547001Y108501D01*
X546001D01*
X519499Y151003D02*
X513501D01*
Y154002D01*
X514501Y155001D01*
X516500D01*
X517500Y154002D01*
Y151003D01*
Y153002D02*
X519499Y155001D01*
X513501Y160999D02*
Y157001D01*
X516500D01*
X515500Y159000D01*
Y160000D01*
X516500Y160999D01*
X518499D01*
X519499Y160000D01*
Y158000D01*
X518499Y157001D01*
X513501Y166997D02*
X514501Y164998D01*
X516500Y162999D01*
X518499D01*
X519499Y163998D01*
Y165998D01*
X518499Y166997D01*
X517500D01*
X516500Y165998D01*
Y162999D01*
X419253Y435751D02*
Y441749D01*
X422252D01*
X423251Y440749D01*
Y438750D01*
X422252Y437750D01*
X419253D01*
X421252D02*
X423251Y435751D01*
X429249Y441749D02*
X425251D01*
Y438750D01*
X427250Y439750D01*
X428250D01*
X429249Y438750D01*
Y436751D01*
X428250Y435751D01*
X426250D01*
X425251Y436751D01*
X435247Y441749D02*
X431249D01*
Y438750D01*
X433248Y439750D01*
X434248D01*
X435247Y438750D01*
Y436751D01*
X434248Y435751D01*
X432248D01*
X431249Y436751D01*
X419248Y419501D02*
Y425499D01*
X422247D01*
X423246Y424499D01*
Y422500D01*
X422247Y421500D01*
X419248D01*
X421247D02*
X423246Y419501D01*
X429244Y425499D02*
X425246D01*
Y422500D01*
X427245Y423500D01*
X428245D01*
X429244Y422500D01*
Y420501D01*
X428245Y419501D01*
X426245D01*
X425246Y420501D01*
X434243Y419501D02*
Y425499D01*
X431244Y422500D01*
X435242D01*
X312001Y185497D02*
X317999D01*
Y182498D01*
X316999Y181499D01*
X315000D01*
X314000Y182498D01*
Y185497D01*
Y183498D02*
X312001Y181499D01*
X317999Y175501D02*
Y179499D01*
X315000D01*
X316000Y177500D01*
Y176500D01*
X315000Y175501D01*
X313001D01*
X312001Y176500D01*
Y178500D01*
X313001Y179499D01*
X316999Y173501D02*
X317999Y172502D01*
Y170502D01*
X316999Y169503D01*
X316000D01*
X315000Y170502D01*
Y171502D01*
Y170502D01*
X314000Y169503D01*
X313001D01*
X312001Y170502D01*
Y172502D01*
X313001Y173501D01*
X351251Y186247D02*
X357249D01*
Y183248D01*
X356249Y182249D01*
X354250D01*
X353250Y183248D01*
Y186247D01*
Y184248D02*
X351251Y182249D01*
X357249Y176251D02*
Y180249D01*
X354250D01*
X355250Y178250D01*
Y177250D01*
X354250Y176251D01*
X352251D01*
X351251Y177250D01*
Y179250D01*
X352251Y180249D01*
X351251Y170253D02*
Y174251D01*
X355250Y170253D01*
X356249D01*
X357249Y171252D01*
Y173252D01*
X356249Y174251D01*
X428253Y218273D02*
Y212275D01*
X425254D01*
X424254Y213275D01*
Y215274D01*
X425254Y216274D01*
X428253D01*
X426253D02*
X424254Y218273D01*
X418256Y212275D02*
X422255D01*
Y215274D01*
X420255Y214274D01*
X419256D01*
X418256Y215274D01*
Y217274D01*
X419256Y218273D01*
X421255D01*
X422255Y217274D01*
X416257Y218273D02*
X414257D01*
X415257D01*
Y212275D01*
X416257Y213275D01*
X287999Y192003D02*
X282001D01*
Y195002D01*
X283001Y196001D01*
X285000D01*
X286000Y195002D01*
Y192003D01*
Y194002D02*
X287999Y196001D01*
X282001Y201999D02*
Y198001D01*
X285000D01*
X284000Y200000D01*
Y201000D01*
X285000Y201999D01*
X286999D01*
X287999Y201000D01*
Y199000D01*
X286999Y198001D01*
X283001Y203999D02*
X282001Y204998D01*
Y206998D01*
X283001Y207997D01*
X286999D01*
X287999Y206998D01*
Y204998D01*
X286999Y203999D01*
X283001D01*
X272003Y212001D02*
Y217999D01*
X275002D01*
X276001Y216999D01*
Y215000D01*
X275002Y214000D01*
X272003D01*
X274002D02*
X276001Y212001D01*
X281000D02*
Y217999D01*
X278001Y215000D01*
X281999D01*
X283999Y213001D02*
X284998Y212001D01*
X286998D01*
X287997Y213001D01*
Y216999D01*
X286998Y217999D01*
X284998D01*
X283999Y216999D01*
Y216000D01*
X284998Y215000D01*
X287997D01*
X272003Y229501D02*
Y235499D01*
X275002D01*
X276001Y234499D01*
Y232500D01*
X275002Y231500D01*
X272003D01*
X274002D02*
X276001Y229501D01*
X281000D02*
Y235499D01*
X278001Y232500D01*
X281999D01*
X283999Y234499D02*
X284998Y235499D01*
X286998D01*
X287997Y234499D01*
Y233500D01*
X286998Y232500D01*
X287997Y231500D01*
Y230501D01*
X286998Y229501D01*
X284998D01*
X283999Y230501D01*
Y231500D01*
X284998Y232500D01*
X283999Y233500D01*
Y234499D01*
X284998Y232500D02*
X286998D01*
X272253Y244501D02*
Y250499D01*
X275252D01*
X276251Y249499D01*
Y247500D01*
X275252Y246500D01*
X272253D01*
X274252D02*
X276251Y244501D01*
X281250D02*
Y250499D01*
X278251Y247500D01*
X282249D01*
X284249Y250499D02*
X288247D01*
Y249499D01*
X284249Y245501D01*
Y244501D01*
X519249Y354738D02*
X513251D01*
Y357737D01*
X514251Y358736D01*
X516250D01*
X517250Y357737D01*
Y354738D01*
Y356737D02*
X519249Y358736D01*
Y363735D02*
X513251D01*
X516250Y360736D01*
Y364734D01*
X513251Y370732D02*
X514251Y368733D01*
X516250Y366734D01*
X518249D01*
X519249Y367733D01*
Y369733D01*
X518249Y370732D01*
X517250D01*
X516250Y369733D01*
Y366734D01*
X806003Y395501D02*
Y401499D01*
X809002D01*
X810001Y400499D01*
Y398500D01*
X809002Y397500D01*
X806003D01*
X808002D02*
X810001Y395501D01*
X815000D02*
Y401499D01*
X812001Y398500D01*
X815999D01*
X821997Y401499D02*
X817999D01*
Y398500D01*
X819998Y399500D01*
X820998D01*
X821997Y398500D01*
Y396501D01*
X820998Y395501D01*
X818998D01*
X817999Y396501D01*
X806003Y350251D02*
Y356249D01*
X809002D01*
X810001Y355249D01*
Y353250D01*
X809002Y352250D01*
X806003D01*
X808002D02*
X810001Y350251D01*
X815000D02*
Y356249D01*
X812001Y353250D01*
X815999D01*
X820998Y350251D02*
Y356249D01*
X817999Y353250D01*
X821997D01*
X450502Y380001D02*
Y385999D01*
X453501D01*
X454501Y384999D01*
Y383000D01*
X453501Y382000D01*
X450502D01*
X452502D02*
X454501Y380001D01*
X459499D02*
Y385999D01*
X456500Y383000D01*
X460499D01*
X462498Y380001D02*
X464498D01*
X463498D01*
Y385999D01*
X462498Y384999D01*
X472003Y396001D02*
Y401999D01*
X475002D01*
X476001Y400999D01*
Y399000D01*
X475002Y398000D01*
X472003D01*
X474002D02*
X476001Y396001D01*
X481000D02*
Y401999D01*
X478001Y399000D01*
X481999D01*
X483999Y400999D02*
X484998Y401999D01*
X486998D01*
X487997Y400999D01*
Y397001D01*
X486998Y396001D01*
X484998D01*
X483999Y397001D01*
Y400999D01*
X157749Y242003D02*
X151751D01*
Y245002D01*
X152751Y246001D01*
X154750D01*
X155750Y245002D01*
Y242003D01*
Y244002D02*
X157749Y246001D01*
X152751Y248001D02*
X151751Y249000D01*
Y251000D01*
X152751Y251999D01*
X153750D01*
X154750Y251000D01*
Y250000D01*
Y251000D01*
X155750Y251999D01*
X156749D01*
X157749Y251000D01*
Y249000D01*
X156749Y248001D01*
Y253999D02*
X157749Y254998D01*
Y256998D01*
X156749Y257997D01*
X152751D01*
X151751Y256998D01*
Y254998D01*
X152751Y253999D01*
X153750D01*
X154750Y254998D01*
Y257997D01*
X141749Y242003D02*
X135751D01*
Y245002D01*
X136751Y246001D01*
X138750D01*
X139750Y245002D01*
Y242003D01*
Y244002D02*
X141749Y246001D01*
X136751Y248001D02*
X135751Y249000D01*
Y251000D01*
X136751Y251999D01*
X137750D01*
X138750Y251000D01*
Y250000D01*
Y251000D01*
X139750Y251999D01*
X140749D01*
X141749Y251000D01*
Y249000D01*
X140749Y248001D01*
X136751Y253999D02*
X135751Y254998D01*
Y256998D01*
X136751Y257997D01*
X137750D01*
X138750Y256998D01*
X139750Y257997D01*
X140749D01*
X141749Y256998D01*
Y254998D01*
X140749Y253999D01*
X139750D01*
X138750Y254998D01*
X137750Y253999D01*
X136751D01*
X138750Y254998D02*
Y256998D01*
X119501Y259492D02*
X125499D01*
Y256493D01*
X124499Y255494D01*
X122500D01*
X121500Y256493D01*
Y259492D01*
Y257493D02*
X119501Y255494D01*
X124499Y253494D02*
X125499Y252495D01*
Y250495D01*
X124499Y249496D01*
X123500D01*
X122500Y250495D01*
Y251495D01*
Y250495D01*
X121500Y249496D01*
X120501D01*
X119501Y250495D01*
Y252495D01*
X120501Y253494D01*
X125499Y247496D02*
Y243498D01*
X124499D01*
X120501Y247496D01*
X119501D01*
X270003Y175751D02*
Y181749D01*
X273002D01*
X274001Y180749D01*
Y178750D01*
X273002Y177750D01*
X270003D01*
X272002D02*
X274001Y175751D01*
X276001Y180749D02*
X277000Y181749D01*
X279000D01*
X279999Y180749D01*
Y179750D01*
X279000Y178750D01*
X278000D01*
X279000D01*
X279999Y177750D01*
Y176751D01*
X279000Y175751D01*
X277000D01*
X276001Y176751D01*
X285997Y181749D02*
X283998Y180749D01*
X281999Y178750D01*
Y176751D01*
X282998Y175751D01*
X284998D01*
X285997Y176751D01*
Y177750D01*
X284998Y178750D01*
X281999D01*
X270003Y159501D02*
Y165499D01*
X273002D01*
X274001Y164499D01*
Y162500D01*
X273002Y161500D01*
X270003D01*
X272002D02*
X274001Y159501D01*
X276001Y164499D02*
X277000Y165499D01*
X279000D01*
X279999Y164499D01*
Y163500D01*
X279000Y162500D01*
X278000D01*
X279000D01*
X279999Y161500D01*
Y160501D01*
X279000Y159501D01*
X277000D01*
X276001Y160501D01*
X285997Y165499D02*
X281999D01*
Y162500D01*
X283998Y163500D01*
X284998D01*
X285997Y162500D01*
Y160501D01*
X284998Y159501D01*
X282998D01*
X281999Y160501D01*
X254503Y203251D02*
Y209249D01*
X257502D01*
X258501Y208249D01*
Y206250D01*
X257502Y205250D01*
X254503D01*
X256502D02*
X258501Y203251D01*
X260501Y208249D02*
X261500Y209249D01*
X263500D01*
X264499Y208249D01*
Y207250D01*
X263500Y206250D01*
X262500D01*
X263500D01*
X264499Y205250D01*
Y204251D01*
X263500Y203251D01*
X261500D01*
X260501Y204251D01*
X269498Y203251D02*
Y209249D01*
X266499Y206250D01*
X270497D01*
X124999Y173003D02*
X119001D01*
Y176002D01*
X120001Y177001D01*
X122000D01*
X123000Y176002D01*
Y173003D01*
Y175002D02*
X124999Y177001D01*
X120001Y179001D02*
X119001Y180000D01*
Y182000D01*
X120001Y182999D01*
X121000D01*
X122000Y182000D01*
Y181000D01*
Y182000D01*
X123000Y182999D01*
X123999D01*
X124999Y182000D01*
Y180000D01*
X123999Y179001D01*
X120001Y184999D02*
X119001Y185998D01*
Y187998D01*
X120001Y188997D01*
X121000D01*
X122000Y187998D01*
Y186998D01*
Y187998D01*
X123000Y188997D01*
X123999D01*
X124999Y187998D01*
Y185998D01*
X123999Y184999D01*
X140999Y173003D02*
X135001D01*
Y176002D01*
X136001Y177001D01*
X138000D01*
X139000Y176002D01*
Y173003D01*
Y175002D02*
X140999Y177001D01*
X136001Y179001D02*
X135001Y180000D01*
Y182000D01*
X136001Y182999D01*
X137000D01*
X138000Y182000D01*
Y181000D01*
Y182000D01*
X139000Y182999D01*
X139999D01*
X140999Y182000D01*
Y180000D01*
X139999Y179001D01*
X140999Y188997D02*
Y184999D01*
X137000Y188997D01*
X136001D01*
X135001Y187998D01*
Y185998D01*
X136001Y184999D01*
X38002Y119001D02*
Y124999D01*
X41001D01*
X42001Y123999D01*
Y122000D01*
X41001Y121000D01*
X38002D01*
X40002D02*
X42001Y119001D01*
X44000Y123999D02*
X45000Y124999D01*
X46999D01*
X47999Y123999D01*
Y123000D01*
X46999Y122000D01*
X46000D01*
X46999D01*
X47999Y121000D01*
Y120001D01*
X46999Y119001D01*
X45000D01*
X44000Y120001D01*
X49998Y119001D02*
X51998D01*
X50998D01*
Y124999D01*
X49998Y123999D01*
X132250Y475753D02*
X126252D01*
Y478752D01*
X127251Y479751D01*
X129251D01*
X130250Y478752D01*
Y475753D01*
Y477752D02*
X132250Y479751D01*
X127251Y481751D02*
X126252Y482750D01*
Y484750D01*
X127251Y485749D01*
X128251D01*
X129251Y484750D01*
Y483750D01*
Y484750D01*
X130250Y485749D01*
X131250D01*
X132250Y484750D01*
Y482750D01*
X131250Y481751D01*
X127251Y487749D02*
X126252Y488748D01*
Y490748D01*
X127251Y491747D01*
X131250D01*
X132250Y490748D01*
Y488748D01*
X131250Y487749D01*
X127251D01*
X148250Y475753D02*
X142252D01*
Y478752D01*
X143251Y479751D01*
X145251D01*
X146250Y478752D01*
Y475753D01*
Y477752D02*
X148250Y479751D01*
Y485749D02*
Y481751D01*
X144251Y485749D01*
X143251D01*
X142252Y484750D01*
Y482750D01*
X143251Y481751D01*
X147250Y487749D02*
X148250Y488748D01*
Y490748D01*
X147250Y491747D01*
X143251D01*
X142252Y490748D01*
Y488748D01*
X143251Y487749D01*
X144251D01*
X145251Y488748D01*
Y491747D01*
X175749Y499498D02*
X169751D01*
Y502497D01*
X170751Y503496D01*
X172750D01*
X173750Y502497D01*
Y499498D01*
Y501497D02*
X175749Y503496D01*
Y509494D02*
Y505496D01*
X171750Y509494D01*
X170751D01*
X169751Y508495D01*
Y506495D01*
X170751Y505496D01*
Y511494D02*
X169751Y512493D01*
Y514493D01*
X170751Y515492D01*
X171750D01*
X172750Y514493D01*
X173750Y515492D01*
X174749D01*
X175749Y514493D01*
Y512493D01*
X174749Y511494D01*
X173750D01*
X172750Y512493D01*
X171750Y511494D01*
X170751D01*
X172750Y512493D02*
Y514493D01*
X191749Y499492D02*
X185751D01*
Y502492D01*
X186751Y503491D01*
X188750D01*
X189750Y502492D01*
Y499492D01*
Y501492D02*
X191749Y503491D01*
Y509489D02*
Y505491D01*
X187750Y509489D01*
X186751D01*
X185751Y508490D01*
Y506490D01*
X186751Y505491D01*
X185751Y511489D02*
Y515487D01*
X186751D01*
X190749Y511489D01*
X191749D01*
X201501Y468742D02*
X207499D01*
Y465743D01*
X206499Y464744D01*
X204500D01*
X203500Y465743D01*
Y468742D01*
Y466743D02*
X201501Y464744D01*
Y458746D02*
Y462744D01*
X205500Y458746D01*
X206499D01*
X207499Y459745D01*
Y461745D01*
X206499Y462744D01*
X207499Y452747D02*
X206499Y454747D01*
X204500Y456746D01*
X202501D01*
X201501Y455747D01*
Y453747D01*
X202501Y452747D01*
X203500D01*
X204500Y453747D01*
Y456746D01*
X223749Y499498D02*
X217751D01*
Y502497D01*
X218751Y503496D01*
X220750D01*
X221750Y502497D01*
Y499498D01*
Y501497D02*
X223749Y503496D01*
Y509494D02*
Y505496D01*
X219750Y509494D01*
X218751D01*
X217751Y508495D01*
Y506495D01*
X218751Y505496D01*
X217751Y515492D02*
Y511494D01*
X220750D01*
X219750Y513493D01*
Y514493D01*
X220750Y515492D01*
X222749D01*
X223749Y514493D01*
Y512493D01*
X222749Y511494D01*
X239499Y499753D02*
X233501D01*
Y502752D01*
X234501Y503751D01*
X236500D01*
X237500Y502752D01*
Y499753D01*
Y501752D02*
X239499Y503751D01*
Y509749D02*
Y505751D01*
X235500Y509749D01*
X234501D01*
X233501Y508750D01*
Y506750D01*
X234501Y505751D01*
X239499Y514748D02*
X233501D01*
X236500Y511749D01*
Y515747D01*
X268003Y372363D02*
Y378361D01*
X271002D01*
X272001Y377361D01*
Y375362D01*
X271002Y374362D01*
X268003D01*
X270002D02*
X272001Y372363D01*
X277999D02*
X274001D01*
X277999Y376362D01*
Y377361D01*
X277000Y378361D01*
X275000D01*
X274001Y377361D01*
X279999D02*
X280998Y378361D01*
X282998D01*
X283997Y377361D01*
Y376362D01*
X282998Y375362D01*
X281998D01*
X282998D01*
X283997Y374362D01*
Y373363D01*
X282998Y372363D01*
X280998D01*
X279999Y373363D01*
X586749Y270508D02*
X580751D01*
Y273507D01*
X581751Y274506D01*
X583750D01*
X584750Y273507D01*
Y270508D01*
Y272507D02*
X586749Y274506D01*
Y280504D02*
Y276506D01*
X582750Y280504D01*
X581751D01*
X580751Y279505D01*
Y277505D01*
X581751Y276506D01*
X586749Y286502D02*
Y282504D01*
X582750Y286502D01*
X581751D01*
X580751Y285503D01*
Y283503D01*
X581751Y282504D01*
X570749Y270516D02*
X564751D01*
Y273515D01*
X565751Y274514D01*
X567750D01*
X568750Y273515D01*
Y270516D01*
Y272515D02*
X570749Y274514D01*
Y280513D02*
Y276514D01*
X566750Y280513D01*
X565751D01*
X564751Y279513D01*
Y277513D01*
X565751Y276514D01*
X570749Y282512D02*
Y284511D01*
Y283512D01*
X564751D01*
X565751Y282512D01*
X480003Y206751D02*
Y212749D01*
X483002D01*
X484001Y211749D01*
Y209750D01*
X483002Y208750D01*
X480003D01*
X482002D02*
X484001Y206751D01*
X489999D02*
X486001D01*
X489999Y210750D01*
Y211749D01*
X489000Y212749D01*
X487000D01*
X486001Y211749D01*
X491999D02*
X492998Y212749D01*
X494998D01*
X495997Y211749D01*
Y207751D01*
X494998Y206751D01*
X492998D01*
X491999Y207751D01*
Y211749D01*
X607253Y212692D02*
Y218690D01*
X610252D01*
X611251Y217690D01*
Y215691D01*
X610252Y214691D01*
X607253D01*
X609252D02*
X611251Y212692D01*
X613251D02*
X615250D01*
X614250D01*
Y218690D01*
X613251Y217690D01*
X618249Y213691D02*
X619249Y212692D01*
X621248D01*
X622248Y213691D01*
Y217690D01*
X621248Y218690D01*
X619249D01*
X618249Y217690D01*
Y216690D01*
X619249Y215691D01*
X622248D01*
X607253Y196692D02*
Y202690D01*
X610252D01*
X611251Y201690D01*
Y199691D01*
X610252Y198691D01*
X607253D01*
X609252D02*
X611251Y196692D01*
X613251D02*
X615250D01*
X614250D01*
Y202690D01*
X613251Y201690D01*
X618249D02*
X619249Y202690D01*
X621248D01*
X622248Y201690D01*
Y200690D01*
X621248Y199691D01*
X622248Y198691D01*
Y197691D01*
X621248Y196692D01*
X619249D01*
X618249Y197691D01*
Y198691D01*
X619249Y199691D01*
X618249Y200690D01*
Y201690D01*
X619249Y199691D02*
X621248D01*
X607253Y180692D02*
Y186690D01*
X610252D01*
X611251Y185690D01*
Y183691D01*
X610252Y182691D01*
X607253D01*
X609252D02*
X611251Y180692D01*
X613251D02*
X615250D01*
X614250D01*
Y186690D01*
X613251Y185690D01*
X618249Y186690D02*
X622248D01*
Y185690D01*
X618249Y181691D01*
Y180692D01*
X607253Y164692D02*
Y170690D01*
X610252D01*
X611251Y169690D01*
Y167691D01*
X610252Y166691D01*
X607253D01*
X609252D02*
X611251Y164692D01*
X613251D02*
X615250D01*
X614250D01*
Y170690D01*
X613251Y169690D01*
X622248Y170690D02*
X620248Y169690D01*
X618249Y167691D01*
Y165691D01*
X619249Y164692D01*
X621248D01*
X622248Y165691D01*
Y166691D01*
X621248Y167691D01*
X618249D01*
X594427Y288780D02*
Y294779D01*
X597427D01*
X598426Y293779D01*
Y291779D01*
X597427Y290780D01*
X594427D01*
X596427D02*
X598426Y288780D01*
X600426D02*
X602425D01*
X601425D01*
Y294779D01*
X600426Y293779D01*
X609423Y294779D02*
X605424D01*
Y291779D01*
X607423Y292779D01*
X608423D01*
X609423Y291779D01*
Y289780D01*
X608423Y288780D01*
X606424D01*
X605424Y289780D01*
X612502Y335501D02*
Y341499D01*
X615502D01*
X616501Y340499D01*
Y338500D01*
X615502Y337500D01*
X612502D01*
X614502D02*
X616501Y335501D01*
X618501D02*
X620500D01*
X619500D01*
Y341499D01*
X618501Y340499D01*
X626498Y335501D02*
Y341499D01*
X623499Y338500D01*
X627498D01*
X611752Y304501D02*
Y310499D01*
X614752D01*
X615751Y309499D01*
Y307500D01*
X614752Y306500D01*
X611752D01*
X613752D02*
X615751Y304501D01*
X617751D02*
X619750D01*
X618750D01*
Y310499D01*
X617751Y309499D01*
X622749D02*
X623749Y310499D01*
X625748D01*
X626748Y309499D01*
Y308500D01*
X625748Y307500D01*
X624748D01*
X625748D01*
X626748Y306500D01*
Y305501D01*
X625748Y304501D01*
X623749D01*
X622749Y305501D01*
X450252Y489001D02*
Y494999D01*
X453251D01*
X454251Y493999D01*
Y492000D01*
X453251Y491000D01*
X450252D01*
X452252D02*
X454251Y489001D01*
X456250D02*
X458250D01*
X457250D01*
Y494999D01*
X456250Y493999D01*
X461249Y489001D02*
X463248D01*
X462248D01*
Y494999D01*
X461249Y493999D01*
X472503Y450011D02*
Y456009D01*
X475502D01*
X476501Y455009D01*
Y453010D01*
X475502Y452010D01*
X472503D01*
X474502D02*
X476501Y450011D01*
X478501D02*
X480500D01*
X479500D01*
Y456009D01*
X478501Y455009D01*
X483499D02*
X484498Y456009D01*
X486498D01*
X487498Y455009D01*
Y451011D01*
X486498Y450011D01*
X484498D01*
X483499Y451011D01*
Y455009D01*
X703002Y429246D02*
Y435244D01*
X706001D01*
X707000Y434244D01*
Y432245D01*
X706001Y431245D01*
X703002D01*
X705001D02*
X707000Y429246D01*
X709000Y430246D02*
X709999Y429246D01*
X711999D01*
X712998Y430246D01*
Y434244D01*
X711999Y435244D01*
X709999D01*
X709000Y434244D01*
Y433245D01*
X709999Y432245D01*
X712998D01*
X651999Y857747D02*
X646001D01*
Y860746D01*
X647001Y861745D01*
X649000D01*
X650000Y860746D01*
Y857747D01*
Y859746D02*
X651999Y861745D01*
X647001Y863745D02*
X646001Y864744D01*
Y866744D01*
X647001Y867743D01*
X648000D01*
X649000Y866744D01*
X650000Y867743D01*
X650999D01*
X651999Y866744D01*
Y864744D01*
X650999Y863745D01*
X650000D01*
X649000Y864744D01*
X648000Y863745D01*
X647001D01*
X649000Y864744D02*
Y866744D01*
X536002Y794001D02*
Y799999D01*
X539001D01*
X540000Y798999D01*
Y797000D01*
X539001Y796000D01*
X536002D01*
X538001D02*
X540000Y794001D01*
X542000Y799999D02*
X545998D01*
Y798999D01*
X542000Y795001D01*
Y794001D01*
X278002Y895256D02*
Y901254D01*
X281001D01*
X282000Y900254D01*
Y898255D01*
X281001Y897255D01*
X278002D01*
X280001D02*
X282000Y895256D01*
X286999D02*
Y901254D01*
X284000Y898255D01*
X287998D01*
X381242Y814549D02*
X375244D01*
Y817548D01*
X376244Y818547D01*
X378243D01*
X379243Y817548D01*
Y814549D01*
Y816548D02*
X381242Y818547D01*
X376244Y820547D02*
X375244Y821546D01*
Y823546D01*
X376244Y824545D01*
X377244D01*
X378243Y823546D01*
Y822546D01*
Y823546D01*
X379243Y824545D01*
X380243D01*
X381242Y823546D01*
Y821546D01*
X380243Y820547D01*
X381242Y798549D02*
X375244D01*
Y801548D01*
X376244Y802547D01*
X378243D01*
X379243Y801548D01*
Y798549D01*
Y800548D02*
X381242Y802547D01*
Y808545D02*
Y804547D01*
X377244Y808545D01*
X376244D01*
X375244Y807546D01*
Y805546D01*
X376244Y804547D01*
X502750Y312504D02*
Y308506D01*
X503749Y307506D01*
X505749D01*
X506748Y308506D01*
Y312504D01*
X505749Y313504D01*
X503749D01*
X504749Y311505D02*
X502750Y313504D01*
X503749D02*
X502750Y312504D01*
X496752Y307506D02*
X498751Y308506D01*
X500750Y310505D01*
Y312504D01*
X499751Y313504D01*
X497751D01*
X496752Y312504D01*
Y311505D01*
X497751Y310505D01*
X500750D01*
X158251Y221900D02*
X162249D01*
X163249Y222899D01*
Y224899D01*
X162249Y225898D01*
X158251D01*
X157251Y224899D01*
Y222899D01*
X159250Y223899D02*
X157251Y221900D01*
Y222899D02*
X158251Y221900D01*
X163249Y215902D02*
Y219900D01*
X160250D01*
X161250Y217901D01*
Y216901D01*
X160250Y215902D01*
X158251D01*
X157251Y216901D01*
Y218901D01*
X158251Y219900D01*
X51249Y219750D02*
X47251D01*
X46251Y218751D01*
Y216751D01*
X47251Y215752D01*
X51249D01*
X52249Y216751D01*
Y218751D01*
X50250Y217751D02*
X52249Y219750D01*
Y218751D02*
X51249Y219750D01*
X52249Y224749D02*
X46251D01*
X49250Y221750D01*
Y225748D01*
X612750Y228749D02*
Y224751D01*
X613749Y223751D01*
X615749D01*
X616748Y224751D01*
Y228749D01*
X615749Y229749D01*
X613749D01*
X614749Y227750D02*
X612750Y229749D01*
X613749D02*
X612750Y228749D01*
X610750Y224751D02*
X609751Y223751D01*
X607751D01*
X606752Y224751D01*
Y225750D01*
X607751Y226750D01*
X608751D01*
X607751D01*
X606752Y227750D01*
Y228749D01*
X607751Y229749D01*
X609751D01*
X610750Y228749D01*
X36815Y709127D02*
X42813D01*
Y713126D01*
Y718124D02*
X36815D01*
X39814Y715125D01*
Y719124D01*
X576001Y458001D02*
Y454002D01*
X579000D01*
Y456002D01*
Y454002D01*
X581999D01*
X576001Y460000D02*
X581999D01*
Y462999D01*
X580999Y463999D01*
X580000D01*
X579000Y462999D01*
Y460000D01*
Y462999D01*
X578000Y463999D01*
X577001D01*
X576001Y462999D01*
Y460000D01*
X581999Y465998D02*
Y467998D01*
Y466998D01*
X576001D01*
X577001Y465998D01*
X206002Y134249D02*
Y128251D01*
X209001D01*
X210000Y129251D01*
Y133249D01*
X209001Y134249D01*
X206002D01*
X212000D02*
X215998D01*
Y133249D01*
X212000Y129251D01*
Y128251D01*
X235502Y131749D02*
Y125751D01*
X238501D01*
X239500Y126751D01*
Y130749D01*
X238501Y131749D01*
X235502D01*
X245498D02*
X243499Y130749D01*
X241500Y128750D01*
Y126751D01*
X242499Y125751D01*
X244499D01*
X245498Y126751D01*
Y127750D01*
X244499Y128750D01*
X241500D01*
X739002Y347744D02*
Y341746D01*
X742001D01*
X743000Y342746D01*
Y346744D01*
X742001Y347744D01*
X739002D01*
X748998D02*
X745000D01*
Y344745D01*
X746999Y345745D01*
X747999D01*
X748998Y344745D01*
Y342746D01*
X747999Y341746D01*
X745999D01*
X745000Y342746D01*
X622906Y75803D02*
X621906Y74803D01*
Y72804D01*
X622906Y71804D01*
X626905D01*
X627904Y72804D01*
Y74803D01*
X626905Y75803D01*
X622906Y77802D02*
X621906Y78802D01*
Y80801D01*
X622906Y81801D01*
X623906D01*
X624905Y80801D01*
X625905Y81801D01*
X626905D01*
X627904Y80801D01*
Y78802D01*
X626905Y77802D01*
X625905D01*
X624905Y78802D01*
X623906Y77802D01*
X622906D01*
X624905Y78802D02*
Y80801D01*
X621906Y87799D02*
X622906Y85799D01*
X624905Y83800D01*
X626905D01*
X627904Y84800D01*
Y86799D01*
X626905Y87799D01*
X625905D01*
X624905Y86799D01*
Y83800D01*
X732501Y96639D02*
X731502Y97639D01*
X729502D01*
X728503Y96639D01*
Y92640D01*
X729502Y91641D01*
X731502D01*
X732501Y92640D01*
X734501Y96639D02*
X735500Y97639D01*
X737500D01*
X738499Y96639D01*
Y95639D01*
X737500Y94640D01*
X738499Y93640D01*
Y92640D01*
X737500Y91641D01*
X735500D01*
X734501Y92640D01*
Y93640D01*
X735500Y94640D01*
X734501Y95639D01*
Y96639D01*
X735500Y94640D02*
X737500D01*
X744497Y97639D02*
X740499D01*
Y94640D01*
X742498Y95639D01*
X743498D01*
X744497Y94640D01*
Y92640D01*
X743498Y91641D01*
X741498D01*
X740499Y92640D01*
X734317Y115692D02*
X735317Y116692D01*
Y118691D01*
X734317Y119691D01*
X730318D01*
X729319Y118691D01*
Y116692D01*
X730318Y115692D01*
X734317Y113693D02*
X735317Y112693D01*
Y110694D01*
X734317Y109694D01*
X733317D01*
X732318Y110694D01*
X731318Y109694D01*
X730318D01*
X729319Y110694D01*
Y112693D01*
X730318Y113693D01*
X731318D01*
X732318Y112693D01*
X733317Y113693D01*
X734317D01*
X732318Y112693D02*
Y110694D01*
X729319Y104695D02*
X735317D01*
X732318Y107695D01*
Y103696D01*
X731251Y36499D02*
X730252Y37499D01*
X728252D01*
X727253Y36499D01*
Y32501D01*
X728252Y31501D01*
X730252D01*
X731251Y32501D01*
X733251Y36499D02*
X734250Y37499D01*
X736250D01*
X737249Y36499D01*
Y35500D01*
X736250Y34500D01*
X737249Y33500D01*
Y32501D01*
X736250Y31501D01*
X734250D01*
X733251Y32501D01*
Y33500D01*
X734250Y34500D01*
X733251Y35500D01*
Y36499D01*
X734250Y34500D02*
X736250D01*
X739249Y36499D02*
X740248Y37499D01*
X742248D01*
X743247Y36499D01*
Y35500D01*
X742248Y34500D01*
X741248D01*
X742248D01*
X743247Y33500D01*
Y32501D01*
X742248Y31501D01*
X740248D01*
X739249Y32501D01*
X172999Y252999D02*
X173999Y253998D01*
Y255998D01*
X172999Y256997D01*
X169001D01*
X168001Y255998D01*
Y253998D01*
X169001Y252999D01*
X172999Y250999D02*
X173999Y250000D01*
Y248000D01*
X172999Y247001D01*
X172000D01*
X171000Y248000D01*
X170000Y247001D01*
X169001D01*
X168001Y248000D01*
Y250000D01*
X169001Y250999D01*
X170000D01*
X171000Y250000D01*
X172000Y250999D01*
X172999D01*
X171000Y250000D02*
Y248000D01*
X168001Y241003D02*
Y245001D01*
X172000Y241003D01*
X172999D01*
X173999Y242002D01*
Y244002D01*
X172999Y245001D01*
X530251Y157251D02*
X529251Y156251D01*
Y154252D01*
X530251Y153252D01*
X534249D01*
X535249Y154252D01*
Y156251D01*
X534249Y157251D01*
X530251Y159250D02*
X529251Y160250D01*
Y162249D01*
X530251Y163249D01*
X531250D01*
X532250Y162249D01*
X533250Y163249D01*
X534249D01*
X535249Y162249D01*
Y160250D01*
X534249Y159250D01*
X533250D01*
X532250Y160250D01*
X531250Y159250D01*
X530251D01*
X532250Y160250D02*
Y162249D01*
X535249Y165248D02*
Y167248D01*
Y166248D01*
X529251D01*
X530251Y165248D01*
X804249Y736749D02*
X805249Y737748D01*
Y739748D01*
X804249Y740747D01*
X800251D01*
X799251Y739748D01*
Y737748D01*
X800251Y736749D01*
X804249Y734749D02*
X805249Y733750D01*
Y731750D01*
X804249Y730751D01*
X803250D01*
X802250Y731750D01*
X801250Y730751D01*
X800251D01*
X799251Y731750D01*
Y733750D01*
X800251Y734749D01*
X801250D01*
X802250Y733750D01*
X803250Y734749D01*
X804249D01*
X802250Y733750D02*
Y731750D01*
X804249Y728751D02*
X805249Y727752D01*
Y725752D01*
X804249Y724753D01*
X800251D01*
X799251Y725752D01*
Y727752D01*
X800251Y728751D01*
X804249D01*
X777506Y771624D02*
X776507Y772624D01*
X774507D01*
X773508Y771624D01*
Y767626D01*
X774507Y766626D01*
X776507D01*
X777506Y767626D01*
X779506Y772624D02*
X783504D01*
Y771624D01*
X779506Y767626D01*
Y766626D01*
X785504Y767626D02*
X786503Y766626D01*
X788503D01*
X789502Y767626D01*
Y771624D01*
X788503Y772624D01*
X786503D01*
X785504Y771624D01*
Y770625D01*
X786503Y769625D01*
X789502D01*
X604474Y538795D02*
X603474Y539795D01*
X601475D01*
X600475Y538795D01*
Y534797D01*
X601475Y533797D01*
X603474D01*
X604474Y534797D01*
X606473Y539795D02*
X610472D01*
Y538795D01*
X606473Y534797D01*
Y533797D01*
X612471Y538795D02*
X613471Y539795D01*
X615470D01*
X616470Y538795D01*
Y537796D01*
X615470Y536796D01*
X616470Y535796D01*
Y534797D01*
X615470Y533797D01*
X613471D01*
X612471Y534797D01*
Y535796D01*
X613471Y536796D01*
X612471Y537796D01*
Y538795D01*
X613471Y536796D02*
X615470D01*
X608751Y444251D02*
X607751Y443252D01*
Y441252D01*
X608751Y440253D01*
X612749D01*
X613749Y441252D01*
Y443252D01*
X612749Y444251D01*
X607751Y446251D02*
Y450249D01*
X608751D01*
X612749Y446251D01*
X613749D01*
Y456247D02*
Y452249D01*
X609750Y456247D01*
X608751D01*
X607751Y455248D01*
Y453248D01*
X608751Y452249D01*
X523001Y408999D02*
X522001Y409999D01*
X520002D01*
X519002Y408999D01*
Y405001D01*
X520002Y404001D01*
X522001D01*
X523001Y405001D01*
X525000Y409999D02*
X528999D01*
Y408999D01*
X525000Y405001D01*
Y404001D01*
X530998D02*
X532998D01*
X531998D01*
Y409999D01*
X530998Y408999D01*
X593751Y455001D02*
X592751Y454002D01*
Y452002D01*
X593751Y451003D01*
X597749D01*
X598749Y452002D01*
Y454002D01*
X597749Y455001D01*
X592751Y457001D02*
Y460999D01*
X593751D01*
X597749Y457001D01*
X598749D01*
X593751Y462999D02*
X592751Y463998D01*
Y465998D01*
X593751Y466997D01*
X597749D01*
X598749Y465998D01*
Y463998D01*
X597749Y462999D01*
X593751D01*
X560500Y458001D02*
X559501Y457002D01*
Y455002D01*
X560500Y454003D01*
X564499D01*
X565499Y455002D01*
Y457002D01*
X564499Y458001D01*
X559501Y463999D02*
X560500Y462000D01*
X562500Y460001D01*
X564499D01*
X565499Y461000D01*
Y463000D01*
X564499Y463999D01*
X563499D01*
X562500Y463000D01*
Y460001D01*
X564499Y465999D02*
X565499Y466998D01*
Y468998D01*
X564499Y469997D01*
X560500D01*
X559501Y468998D01*
Y466998D01*
X560500Y465999D01*
X561500D01*
X562500Y466998D01*
Y469997D01*
X147501Y772501D02*
X146501Y771502D01*
Y769502D01*
X147501Y768503D01*
X151499D01*
X152499Y769502D01*
Y771502D01*
X151499Y772501D01*
X146501Y778499D02*
X147501Y776500D01*
X149500Y774501D01*
X151499D01*
X152499Y775500D01*
Y777500D01*
X151499Y778499D01*
X150500D01*
X149500Y777500D01*
Y774501D01*
X147501Y780499D02*
X146501Y781498D01*
Y783498D01*
X147501Y784497D01*
X148500D01*
X149500Y783498D01*
X150500Y784497D01*
X151499D01*
X152499Y783498D01*
Y781498D01*
X151499Y780499D01*
X150500D01*
X149500Y781498D01*
X148500Y780499D01*
X147501D01*
X149500Y781498D02*
Y783498D01*
X97751Y620751D02*
X96751Y619752D01*
Y617752D01*
X97751Y616753D01*
X101749D01*
X102749Y617752D01*
Y619752D01*
X101749Y620751D01*
X96751Y626749D02*
X97751Y624750D01*
X99750Y622751D01*
X101749D01*
X102749Y623750D01*
Y625750D01*
X101749Y626749D01*
X100750D01*
X99750Y625750D01*
Y622751D01*
X96751Y628749D02*
Y632747D01*
X97751D01*
X101749Y628749D01*
X102749D01*
X155249Y874499D02*
X156249Y875498D01*
Y877498D01*
X155249Y878497D01*
X151251D01*
X150251Y877498D01*
Y875498D01*
X151251Y874499D01*
X156249Y868501D02*
X155249Y870500D01*
X153250Y872499D01*
X151251D01*
X150251Y871500D01*
Y869500D01*
X151251Y868501D01*
X152250D01*
X153250Y869500D01*
Y872499D01*
X156249Y862503D02*
X155249Y864502D01*
X153250Y866501D01*
X151251D01*
X150251Y865502D01*
Y863502D01*
X151251Y862503D01*
X152250D01*
X153250Y863502D01*
Y866501D01*
X63501Y815251D02*
X62501Y814252D01*
Y812252D01*
X63501Y811253D01*
X67499D01*
X68499Y812252D01*
Y814252D01*
X67499Y815251D01*
X62501Y821249D02*
X63501Y819250D01*
X65500Y817251D01*
X67499D01*
X68499Y818250D01*
Y820250D01*
X67499Y821249D01*
X66500D01*
X65500Y820250D01*
Y817251D01*
X62501Y827247D02*
Y823249D01*
X65500D01*
X64500Y825248D01*
Y826248D01*
X65500Y827247D01*
X67499D01*
X68499Y826248D01*
Y824248D01*
X67499Y823249D01*
X63501Y785001D02*
X62501Y784002D01*
Y782002D01*
X63501Y781003D01*
X67499D01*
X68499Y782002D01*
Y784002D01*
X67499Y785001D01*
X62501Y790999D02*
X63501Y789000D01*
X65500Y787001D01*
X67499D01*
X68499Y788000D01*
Y790000D01*
X67499Y790999D01*
X66500D01*
X65500Y790000D01*
Y787001D01*
X68499Y795998D02*
X62501D01*
X65500Y792999D01*
Y796997D01*
X65499Y694751D02*
X66498Y693751D01*
X68498D01*
X69497Y694751D01*
Y698749D01*
X68498Y699749D01*
X66498D01*
X65499Y698749D01*
X59501Y693751D02*
X61500Y694751D01*
X63499Y696750D01*
Y698749D01*
X62500Y699749D01*
X60500D01*
X59501Y698749D01*
Y697750D01*
X60500Y696750D01*
X63499D01*
X57501Y694751D02*
X56502Y693751D01*
X54502D01*
X53503Y694751D01*
Y695750D01*
X54502Y696750D01*
X55502D01*
X54502D01*
X53503Y697750D01*
Y698749D01*
X54502Y699749D01*
X56502D01*
X57501Y698749D01*
X65249Y678251D02*
X66248Y677251D01*
X68248D01*
X69247Y678251D01*
Y682249D01*
X68248Y683249D01*
X66248D01*
X65249Y682249D01*
X59251Y677251D02*
X61250Y678251D01*
X63249Y680250D01*
Y682249D01*
X62250Y683249D01*
X60250D01*
X59251Y682249D01*
Y681250D01*
X60250Y680250D01*
X63249D01*
X53253Y683249D02*
X57251D01*
X53253Y679250D01*
Y678251D01*
X54252Y677251D01*
X56252D01*
X57251Y678251D01*
X144251Y720001D02*
X143251Y719001D01*
Y717002D01*
X144251Y716002D01*
X148249D01*
X149249Y717002D01*
Y719001D01*
X148249Y720001D01*
X143251Y725999D02*
X144251Y724000D01*
X146250Y722000D01*
X148249D01*
X149249Y723000D01*
Y724999D01*
X148249Y725999D01*
X147250D01*
X146250Y724999D01*
Y722000D01*
X149249Y727998D02*
Y729998D01*
Y728998D01*
X143251D01*
X144251Y727998D01*
X169251Y751501D02*
X168251Y750502D01*
Y748502D01*
X169251Y747503D01*
X173249D01*
X174249Y748502D01*
Y750502D01*
X173249Y751501D01*
X168251Y757499D02*
Y753501D01*
X171250D01*
X170250Y755500D01*
Y756500D01*
X171250Y757499D01*
X173249D01*
X174249Y756500D01*
Y754500D01*
X173249Y753501D01*
Y759499D02*
X174249Y760498D01*
Y762498D01*
X173249Y763497D01*
X169251D01*
X168251Y762498D01*
Y760498D01*
X169251Y759499D01*
X170250D01*
X171250Y760498D01*
Y763497D01*
X298838Y393749D02*
X297838Y394749D01*
X295839D01*
X294839Y393749D01*
Y389751D01*
X295839Y388751D01*
X297838D01*
X298838Y389751D01*
X304836Y394749D02*
X300837D01*
Y391750D01*
X302836Y392750D01*
X303836D01*
X304836Y391750D01*
Y389751D01*
X303836Y388751D01*
X301837D01*
X300837Y389751D01*
X306835Y393749D02*
X307835Y394749D01*
X309834D01*
X310834Y393749D01*
Y392750D01*
X309834Y391750D01*
X310834Y390750D01*
Y389751D01*
X309834Y388751D01*
X307835D01*
X306835Y389751D01*
Y390750D01*
X307835Y391750D01*
X306835Y392750D01*
Y393749D01*
X307835Y391750D02*
X309834D01*
X329838Y392749D02*
X328838Y393749D01*
X326839D01*
X325839Y392749D01*
Y388751D01*
X326839Y387751D01*
X328838D01*
X329838Y388751D01*
X335836Y393749D02*
X331837D01*
Y390750D01*
X333837Y391750D01*
X334836D01*
X335836Y390750D01*
Y388751D01*
X334836Y387751D01*
X332837D01*
X331837Y388751D01*
X337835Y393749D02*
X341834D01*
Y392749D01*
X337835Y388751D01*
Y387751D01*
X361251Y393499D02*
X360252Y394499D01*
X358252D01*
X357253Y393499D01*
Y389501D01*
X358252Y388501D01*
X360252D01*
X361251Y389501D01*
X367249Y394499D02*
X363251D01*
Y391500D01*
X365250Y392500D01*
X366250D01*
X367249Y391500D01*
Y389501D01*
X366250Y388501D01*
X364250D01*
X363251Y389501D01*
X373247Y394499D02*
X371248Y393499D01*
X369249Y391500D01*
Y389501D01*
X370248Y388501D01*
X372248D01*
X373247Y389501D01*
Y390500D01*
X372248Y391500D01*
X369249D01*
X392001Y393249D02*
X391002Y394249D01*
X389002D01*
X388003Y393249D01*
Y389251D01*
X389002Y388251D01*
X391002D01*
X392001Y389251D01*
X397999Y394249D02*
X394001D01*
Y391250D01*
X396000Y392250D01*
X397000D01*
X397999Y391250D01*
Y389251D01*
X397000Y388251D01*
X395000D01*
X394001Y389251D01*
X403997Y394249D02*
X399999D01*
Y391250D01*
X401998Y392250D01*
X402998D01*
X403997Y391250D01*
Y389251D01*
X402998Y388251D01*
X400998D01*
X399999Y389251D01*
X423251Y393749D02*
X422252Y394749D01*
X420252D01*
X419253Y393749D01*
Y389751D01*
X420252Y388751D01*
X422252D01*
X423251Y389751D01*
X429249Y394749D02*
X425251D01*
Y391750D01*
X427250Y392750D01*
X428250D01*
X429249Y391750D01*
Y389751D01*
X428250Y388751D01*
X426250D01*
X425251Y389751D01*
X434248Y388751D02*
Y394749D01*
X431249Y391750D01*
X435247D01*
X349510Y306489D02*
X348510Y307489D01*
X346511D01*
X345511Y306489D01*
Y302491D01*
X346511Y301491D01*
X348510D01*
X349510Y302491D01*
X355508Y307489D02*
X351509D01*
Y304490D01*
X353508Y305490D01*
X354508D01*
X355508Y304490D01*
Y302491D01*
X354508Y301491D01*
X352509D01*
X351509Y302491D01*
X357507Y306489D02*
X358507Y307489D01*
X360506D01*
X361506Y306489D01*
Y305490D01*
X360506Y304490D01*
X359506D01*
X360506D01*
X361506Y303490D01*
Y302491D01*
X360506Y301491D01*
X358507D01*
X357507Y302491D01*
X261251Y487999D02*
X260252Y488999D01*
X258252D01*
X257253Y487999D01*
Y484001D01*
X258252Y483001D01*
X260252D01*
X261251Y484001D01*
X267249Y488999D02*
X263251D01*
Y486000D01*
X265250Y487000D01*
X266250D01*
X267249Y486000D01*
Y484001D01*
X266250Y483001D01*
X264250D01*
X263251Y484001D01*
X273247Y483001D02*
X269249D01*
X273247Y487000D01*
Y487999D01*
X272248Y488999D01*
X270248D01*
X269249Y487999D01*
X264751Y461246D02*
X263751Y460246D01*
Y458247D01*
X264751Y457247D01*
X268749D01*
X269749Y458247D01*
Y460246D01*
X268749Y461246D01*
X263751Y467244D02*
Y463245D01*
X266750D01*
X265750Y465245D01*
Y466244D01*
X266750Y467244D01*
X268749D01*
X269749Y466244D01*
Y464245D01*
X268749Y463245D01*
X269749Y469243D02*
Y471243D01*
Y470243D01*
X263751D01*
X264751Y469243D01*
X425501Y473499D02*
X424502Y474499D01*
X422502D01*
X421503Y473499D01*
Y469501D01*
X422502Y468501D01*
X424502D01*
X425501Y469501D01*
X431499Y474499D02*
X427501D01*
Y471500D01*
X429500Y472500D01*
X430500D01*
X431499Y471500D01*
Y469501D01*
X430500Y468501D01*
X428500D01*
X427501Y469501D01*
X433499Y473499D02*
X434498Y474499D01*
X436498D01*
X437497Y473499D01*
Y469501D01*
X436498Y468501D01*
X434498D01*
X433499Y469501D01*
Y473499D01*
X425501Y457249D02*
X424502Y458249D01*
X422502D01*
X421503Y457249D01*
Y453251D01*
X422502Y452251D01*
X424502D01*
X425501Y453251D01*
X430500Y452251D02*
Y458249D01*
X427501Y455250D01*
X431499D01*
X433499Y453251D02*
X434498Y452251D01*
X436498D01*
X437497Y453251D01*
Y457249D01*
X436498Y458249D01*
X434498D01*
X433499Y457249D01*
Y456250D01*
X434498Y455250D01*
X437497D01*
X428249Y230275D02*
X429248Y229275D01*
X431248D01*
X432247Y230275D01*
Y234273D01*
X431248Y235273D01*
X429248D01*
X428249Y234273D01*
X423250Y235273D02*
Y229275D01*
X426249Y232274D01*
X422251D01*
X420251Y230275D02*
X419252Y229275D01*
X417252D01*
X416253Y230275D01*
Y231275D01*
X417252Y232274D01*
X416253Y233274D01*
Y234273D01*
X417252Y235273D01*
X419252D01*
X420251Y234273D01*
Y233274D01*
X419252Y232274D01*
X420251Y231275D01*
Y230275D01*
X419252Y232274D02*
X417252D01*
X428249Y197275D02*
X429248Y196275D01*
X431248D01*
X432247Y197275D01*
Y201273D01*
X431248Y202273D01*
X429248D01*
X428249Y201273D01*
X423250Y202273D02*
Y196275D01*
X426249Y199274D01*
X422251D01*
X420251Y196275D02*
X416253D01*
Y197275D01*
X420251Y201273D01*
Y202273D01*
X810001Y445749D02*
X809002Y446749D01*
X807002D01*
X806003Y445749D01*
Y441751D01*
X807002Y440751D01*
X809002D01*
X810001Y441751D01*
X815000Y440751D02*
Y446749D01*
X812001Y443750D01*
X815999D01*
X821997Y446749D02*
X819998Y445749D01*
X817999Y443750D01*
Y441751D01*
X818998Y440751D01*
X820998D01*
X821997Y441751D01*
Y442750D01*
X820998Y443750D01*
X817999D01*
X122001Y442999D02*
X121002Y443999D01*
X119002D01*
X118003Y442999D01*
Y439001D01*
X119002Y438001D01*
X121002D01*
X122001Y439001D01*
X127000Y438001D02*
Y443999D01*
X124001Y441000D01*
X127999D01*
X129999Y442999D02*
X130998Y443999D01*
X132998D01*
X133997Y442999D01*
Y442000D01*
X132998Y441000D01*
X131998D01*
X132998D01*
X133997Y440000D01*
Y439001D01*
X132998Y438001D01*
X130998D01*
X129999Y439001D01*
X143001Y442999D02*
X142002Y443999D01*
X140002D01*
X139003Y442999D01*
Y439001D01*
X140002Y438001D01*
X142002D01*
X143001Y439001D01*
X148000Y438001D02*
Y443999D01*
X145001Y441000D01*
X148999D01*
X154997Y438001D02*
X150999D01*
X154997Y442000D01*
Y442999D01*
X153998Y443999D01*
X151998D01*
X150999Y442999D01*
X112501Y419499D02*
X111501Y420499D01*
X109502D01*
X108502Y419499D01*
Y415501D01*
X109502Y414501D01*
X111501D01*
X112501Y415501D01*
X117499Y414501D02*
Y420499D01*
X114500Y417500D01*
X118499D01*
X120498Y414501D02*
X122498D01*
X121498D01*
Y420499D01*
X120498Y419499D01*
X168501Y456246D02*
X167501Y455247D01*
Y453247D01*
X168501Y452248D01*
X172499D01*
X173499Y453247D01*
Y455247D01*
X172499Y456246D01*
X173499Y461245D02*
X167501D01*
X170500Y458246D01*
Y462244D01*
X168501Y464244D02*
X167501Y465243D01*
Y467243D01*
X168501Y468242D01*
X172499D01*
X173499Y467243D01*
Y465243D01*
X172499Y464244D01*
X168501D01*
X185251Y455746D02*
X184251Y454747D01*
Y452747D01*
X185251Y451748D01*
X189249D01*
X190249Y452747D01*
Y454747D01*
X189249Y455746D01*
X185251Y457746D02*
X184251Y458745D01*
Y460745D01*
X185251Y461744D01*
X186250D01*
X187250Y460745D01*
Y459745D01*
Y460745D01*
X188250Y461744D01*
X189249D01*
X190249Y460745D01*
Y458745D01*
X189249Y457746D01*
Y463744D02*
X190249Y464743D01*
Y466743D01*
X189249Y467742D01*
X185251D01*
X184251Y466743D01*
Y464743D01*
X185251Y463744D01*
X186250D01*
X187250Y464743D01*
Y467742D01*
X202501Y503751D02*
X201501Y502752D01*
Y500752D01*
X202501Y499753D01*
X206499D01*
X207499Y500752D01*
Y502752D01*
X206499Y503751D01*
X202501Y505751D02*
X201501Y506750D01*
Y508750D01*
X202501Y509749D01*
X203500D01*
X204500Y508750D01*
Y507750D01*
Y508750D01*
X205500Y509749D01*
X206499D01*
X207499Y508750D01*
Y506750D01*
X206499Y505751D01*
X202501Y511749D02*
X201501Y512748D01*
Y514748D01*
X202501Y515747D01*
X203500D01*
X204500Y514748D01*
X205500Y515747D01*
X206499D01*
X207499Y514748D01*
Y512748D01*
X206499Y511749D01*
X205500D01*
X204500Y512748D01*
X203500Y511749D01*
X202501D01*
X204500Y512748D02*
Y514748D01*
X218251Y455746D02*
X217251Y454747D01*
Y452747D01*
X218251Y451748D01*
X222249D01*
X223249Y452747D01*
Y454747D01*
X222249Y455746D01*
X218251Y457746D02*
X217251Y458745D01*
Y460745D01*
X218251Y461744D01*
X219250D01*
X220250Y460745D01*
Y459745D01*
Y460745D01*
X221250Y461744D01*
X222249D01*
X223249Y460745D01*
Y458745D01*
X222249Y457746D01*
X217251Y463744D02*
Y467742D01*
X218251D01*
X222249Y463744D01*
X223249D01*
X234251Y455746D02*
X233251Y454747D01*
Y452747D01*
X234251Y451748D01*
X238249D01*
X239249Y452747D01*
Y454747D01*
X238249Y455746D01*
X234251Y457746D02*
X233251Y458745D01*
Y460745D01*
X234251Y461744D01*
X235250D01*
X236250Y460745D01*
Y459745D01*
Y460745D01*
X237250Y461744D01*
X238249D01*
X239249Y460745D01*
Y458745D01*
X238249Y457746D01*
X233251Y467742D02*
X234251Y465743D01*
X236250Y463744D01*
X238249D01*
X239249Y464743D01*
Y466743D01*
X238249Y467742D01*
X237250D01*
X236250Y466743D01*
Y463744D01*
X487751Y191001D02*
X486751Y190001D01*
Y188002D01*
X487751Y187002D01*
X491749D01*
X492749Y188002D01*
Y190001D01*
X491749Y191001D01*
X487751Y193000D02*
X486751Y194000D01*
Y195999D01*
X487751Y196999D01*
X488750D01*
X489750Y195999D01*
Y195000D01*
Y195999D01*
X490750Y196999D01*
X491749D01*
X492749Y195999D01*
Y194000D01*
X491749Y193000D01*
X492749Y198998D02*
Y200998D01*
Y199998D01*
X486751D01*
X487751Y198998D01*
X481751Y228504D02*
X480752Y229504D01*
X478752D01*
X477753Y228504D01*
Y224506D01*
X478752Y223506D01*
X480752D01*
X481751Y224506D01*
X483751Y228504D02*
X484750Y229504D01*
X486750D01*
X487749Y228504D01*
Y227505D01*
X486750Y226505D01*
X485750D01*
X486750D01*
X487749Y225505D01*
Y224506D01*
X486750Y223506D01*
X484750D01*
X483751Y224506D01*
X489749Y228504D02*
X490748Y229504D01*
X492748D01*
X493747Y228504D01*
Y224506D01*
X492748Y223506D01*
X490748D01*
X489749Y224506D01*
Y228504D01*
X651499Y233501D02*
X652498Y232501D01*
X654498D01*
X655497Y233501D01*
Y237499D01*
X654498Y238499D01*
X652498D01*
X651499Y237499D01*
X645501Y238499D02*
X649499D01*
X645501Y234500D01*
Y233501D01*
X646500Y232501D01*
X648500D01*
X649499Y233501D01*
X643501Y237499D02*
X642502Y238499D01*
X640502D01*
X639503Y237499D01*
Y233501D01*
X640502Y232501D01*
X642502D01*
X643501Y233501D01*
Y234500D01*
X642502Y235500D01*
X639503D01*
X681499Y232501D02*
X682498Y231501D01*
X684498D01*
X685497Y232501D01*
Y236499D01*
X684498Y237499D01*
X682498D01*
X681499Y236499D01*
X675501Y237499D02*
X679499D01*
X675501Y233500D01*
Y232501D01*
X676500Y231501D01*
X678500D01*
X679499Y232501D01*
X673501D02*
X672502Y231501D01*
X670502D01*
X669503Y232501D01*
Y233500D01*
X670502Y234500D01*
X669503Y235500D01*
Y236499D01*
X670502Y237499D01*
X672502D01*
X673501Y236499D01*
Y235500D01*
X672502Y234500D01*
X673501Y233500D01*
Y232501D01*
X672502Y234500D02*
X670502D01*
X583501Y309249D02*
X582502Y310249D01*
X580502D01*
X579503Y309249D01*
Y305251D01*
X580502Y304251D01*
X582502D01*
X583501Y305251D01*
X589499Y304251D02*
X585501D01*
X589499Y308250D01*
Y309249D01*
X588500Y310249D01*
X586500D01*
X585501Y309249D01*
X591499Y310249D02*
X595497D01*
Y309249D01*
X591499Y305251D01*
Y304251D01*
X583251Y340499D02*
X582252Y341499D01*
X580252D01*
X579253Y340499D01*
Y336501D01*
X580252Y335501D01*
X582252D01*
X583251Y336501D01*
X589249Y335501D02*
X585251D01*
X589249Y339500D01*
Y340499D01*
X588250Y341499D01*
X586250D01*
X585251Y340499D01*
X595247Y341499D02*
X593248Y340499D01*
X591249Y338500D01*
Y336501D01*
X592248Y335501D01*
X594248D01*
X595247Y336501D01*
Y337500D01*
X594248Y338500D01*
X591249D01*
X717501Y315499D02*
X716502Y316499D01*
X714502D01*
X713503Y315499D01*
Y311501D01*
X714502Y310501D01*
X716502D01*
X717501Y311501D01*
X723499Y310501D02*
X719501D01*
X723499Y314500D01*
Y315499D01*
X722500Y316499D01*
X720500D01*
X719501Y315499D01*
X729497Y316499D02*
X725499D01*
Y313500D01*
X727498Y314500D01*
X728498D01*
X729497Y313500D01*
Y311501D01*
X728498Y310501D01*
X726498D01*
X725499Y311501D01*
X720001Y371256D02*
X719001Y370257D01*
Y368257D01*
X720001Y367258D01*
X723999D01*
X724999Y368257D01*
Y370257D01*
X723999Y371256D01*
X724999Y377254D02*
Y373256D01*
X721000Y377254D01*
X720001D01*
X719001Y376255D01*
Y374255D01*
X720001Y373256D01*
X724999Y382253D02*
X719001D01*
X722000Y379254D01*
Y383252D01*
X685001Y443244D02*
X684002Y444244D01*
X682002D01*
X681003Y443244D01*
Y439246D01*
X682002Y438246D01*
X684002D01*
X685001Y439246D01*
X690999Y438246D02*
X687001D01*
X690999Y442245D01*
Y443244D01*
X690000Y444244D01*
X688000D01*
X687001Y443244D01*
X692999D02*
X693998Y444244D01*
X695998D01*
X696997Y443244D01*
Y442245D01*
X695998Y441245D01*
X694998D01*
X695998D01*
X696997Y440245D01*
Y439246D01*
X695998Y438246D01*
X693998D01*
X692999Y439246D01*
X741751Y416999D02*
X740752Y417999D01*
X738752D01*
X737753Y416999D01*
Y413001D01*
X738752Y412001D01*
X740752D01*
X741751Y413001D01*
X747749Y412001D02*
X743751D01*
X747749Y416000D01*
Y416999D01*
X746750Y417999D01*
X744750D01*
X743751Y416999D01*
X753747Y412001D02*
X749749D01*
X753747Y416000D01*
Y416999D01*
X752748Y417999D01*
X750748D01*
X749749Y416999D01*
X348474Y154765D02*
X347474Y155765D01*
X345475D01*
X344475Y154765D01*
Y150767D01*
X345475Y149767D01*
X347474D01*
X348474Y150767D01*
X354472Y149767D02*
X350473D01*
X354472Y153766D01*
Y154765D01*
X353472Y155765D01*
X351473D01*
X350473Y154765D01*
X356471Y149767D02*
X358471D01*
X357471D01*
Y155765D01*
X356471Y154765D01*
X317474D02*
X316474Y155765D01*
X314475D01*
X313475Y154765D01*
Y150767D01*
X314475Y149767D01*
X316474D01*
X317474Y150767D01*
X323472Y149767D02*
X319473D01*
X323472Y153766D01*
Y154765D01*
X322472Y155765D01*
X320473D01*
X319473Y154765D01*
X325471D02*
X326471Y155765D01*
X328470D01*
X329470Y154765D01*
Y150767D01*
X328470Y149767D01*
X326471D01*
X325471Y150767D01*
Y154765D01*
X286474Y154765D02*
X285474Y155765D01*
X283475D01*
X282475Y154765D01*
Y150767D01*
X283475Y149767D01*
X285474D01*
X286474Y150767D01*
X288473Y149767D02*
X290472D01*
X289473D01*
Y155765D01*
X288473Y154765D01*
X293471Y150767D02*
X294471Y149767D01*
X296471D01*
X297470Y150767D01*
Y154765D01*
X296471Y155765D01*
X294471D01*
X293471Y154765D01*
Y153766D01*
X294471Y152766D01*
X297470D01*
X460501Y872999D02*
X459501Y873999D01*
X457502D01*
X456502Y872999D01*
Y869001D01*
X457502Y868001D01*
X459501D01*
X460501Y869001D01*
X462500Y868001D02*
X464500D01*
X463500D01*
Y873999D01*
X462500Y872999D01*
X467499D02*
X468499Y873999D01*
X470498D01*
X471498Y872999D01*
Y872000D01*
X470498Y871000D01*
X471498Y870000D01*
Y869001D01*
X470498Y868001D01*
X468499D01*
X467499Y869001D01*
Y870000D01*
X468499Y871000D01*
X467499Y872000D01*
Y872999D01*
X468499Y871000D02*
X470498D01*
X665501Y827999D02*
X664501Y828999D01*
X662502D01*
X661503Y827999D01*
Y824001D01*
X662502Y823001D01*
X664501D01*
X665501Y824001D01*
X667501Y823001D02*
X669500D01*
X668500D01*
Y828999D01*
X667501Y827999D01*
X672499Y828999D02*
X676498D01*
Y827999D01*
X672499Y824001D01*
Y823001D01*
X680501Y768999D02*
X679501Y769999D01*
X677502D01*
X676503Y768999D01*
Y765001D01*
X677502Y764001D01*
X679501D01*
X680501Y765001D01*
X682501Y764001D02*
X684500D01*
X683500D01*
Y769999D01*
X682501Y768999D01*
X691498Y769999D02*
X689498Y768999D01*
X687499Y767000D01*
Y765001D01*
X688499Y764001D01*
X690498D01*
X691498Y765001D01*
Y766000D01*
X690498Y767000D01*
X687499D01*
X445501Y780999D02*
X444501Y781999D01*
X442502D01*
X441502Y780999D01*
Y777001D01*
X442502Y776001D01*
X444501D01*
X445501Y777001D01*
X447500Y776001D02*
X449500D01*
X448500D01*
Y781999D01*
X447500Y780999D01*
X456498Y781999D02*
X452499D01*
Y779000D01*
X454498Y780000D01*
X455498D01*
X456498Y779000D01*
Y777001D01*
X455498Y776001D01*
X453498D01*
X452499Y777001D01*
X505501Y580249D02*
X504501Y581249D01*
X502502D01*
X501502Y580249D01*
Y576251D01*
X502502Y575251D01*
X504501D01*
X505501Y576251D01*
X507500Y575251D02*
X509500D01*
X508500D01*
Y581249D01*
X507500Y580249D01*
X512499D02*
X513498Y581249D01*
X515498D01*
X516498Y580249D01*
Y579250D01*
X515498Y578250D01*
X514498D01*
X515498D01*
X516498Y577250D01*
Y576251D01*
X515498Y575251D01*
X513498D01*
X512499Y576251D01*
X470001Y518999D02*
X469001Y519999D01*
X467002D01*
X466002Y518999D01*
Y515001D01*
X467002Y514001D01*
X469001D01*
X470001Y515001D01*
X472000Y514001D02*
X473999D01*
X473000D01*
Y519999D01*
X472000Y518999D01*
X476998Y514001D02*
X478998D01*
X477998D01*
Y519999D01*
X476998Y518999D01*
X500001D02*
X499002Y519999D01*
X497002D01*
X496003Y518999D01*
Y515001D01*
X497002Y514001D01*
X499002D01*
X500001Y515001D01*
X502001Y514001D02*
X504000D01*
X503000D01*
Y519999D01*
X502001Y518999D01*
X506999D02*
X507999Y519999D01*
X509998D01*
X510998Y518999D01*
Y515001D01*
X509998Y514001D01*
X507999D01*
X506999Y515001D01*
Y518999D01*
X533500D02*
X532501Y519999D01*
X530501D01*
X529502Y518999D01*
Y515001D01*
X530501Y514001D01*
X532501D01*
X533500Y515001D01*
X535500D02*
X536499Y514001D01*
X538499D01*
X539498Y515001D01*
Y518999D01*
X538499Y519999D01*
X536499D01*
X535500Y518999D01*
Y518000D01*
X536499Y517000D01*
X539498D01*
X266000Y902249D02*
X265001Y903249D01*
X263001D01*
X262002Y902249D01*
Y898251D01*
X263001Y897251D01*
X265001D01*
X266000Y898251D01*
X271998Y903249D02*
X268000D01*
Y900250D01*
X269999Y901250D01*
X270999D01*
X271998Y900250D01*
Y898251D01*
X270999Y897251D01*
X268999D01*
X268000Y898251D01*
X248000Y807999D02*
X247001Y808999D01*
X245001D01*
X244002Y807999D01*
Y804001D01*
X245001Y803001D01*
X247001D01*
X248000Y804001D01*
X252999Y803001D02*
Y808999D01*
X250000Y806000D01*
X253998D01*
X403000Y851999D02*
X402001Y852999D01*
X400001D01*
X399002Y851999D01*
Y848001D01*
X400001Y847001D01*
X402001D01*
X403000Y848001D01*
X405000Y851999D02*
X405999Y852999D01*
X407999D01*
X408998Y851999D01*
Y851000D01*
X407999Y850000D01*
X406999D01*
X407999D01*
X408998Y849000D01*
Y848001D01*
X407999Y847001D01*
X405999D01*
X405000Y848001D01*
X374001Y786000D02*
X373001Y785001D01*
Y783001D01*
X374001Y782002D01*
X377999D01*
X378999Y783001D01*
Y785001D01*
X377999Y786000D01*
X378999Y791998D02*
Y788000D01*
X375000Y791998D01*
X374001D01*
X373001Y790999D01*
Y788999D01*
X374001Y788000D01*
X501751Y876000D02*
Y874001D01*
Y875001D01*
X506749D01*
X507749Y874001D01*
Y873001D01*
X506749Y872002D01*
X501751Y878000D02*
Y881998D01*
X502751D01*
X506749Y878000D01*
X507749D01*
X318251Y876000D02*
Y874001D01*
Y875001D01*
X323249D01*
X324249Y874001D01*
Y873001D01*
X323249Y872002D01*
X318251Y881998D02*
X319251Y879999D01*
X321250Y878000D01*
X323249D01*
X324249Y878999D01*
Y880999D01*
X323249Y881998D01*
X322250D01*
X321250Y880999D01*
Y878000D01*
X122001Y320002D02*
X126999D01*
X127999Y321001D01*
Y323001D01*
X126999Y324000D01*
X122001D01*
Y329998D02*
X123001Y327999D01*
X125000Y326000D01*
X126999D01*
X127999Y326999D01*
Y328999D01*
X126999Y329998D01*
X126000D01*
X125000Y328999D01*
Y326000D01*
X248001Y846001D02*
X252999D01*
X253999Y847001D01*
Y849000D01*
X252999Y850000D01*
X248001D01*
X253999Y851999D02*
Y853999D01*
Y852999D01*
X248001D01*
X249001Y851999D01*
X537002Y812001D02*
Y817999D01*
X540001D01*
X541000Y816999D01*
Y815000D01*
X540001Y814000D01*
X537002D01*
X539001D02*
X541000Y812001D01*
X546998Y817999D02*
X544999Y816999D01*
X543000Y815000D01*
Y813001D01*
X543999Y812001D01*
X545999D01*
X546998Y813001D01*
Y814000D01*
X545999Y815000D01*
X543000D01*
X599999Y797002D02*
X594001D01*
Y800001D01*
X595001Y801000D01*
X597000D01*
X598000Y800001D01*
Y797002D01*
Y799001D02*
X599999Y801000D01*
X594001Y806998D02*
Y803000D01*
X597000D01*
X596000Y804999D01*
Y805999D01*
X597000Y806998D01*
X598999D01*
X599999Y805999D01*
Y803999D01*
X598999Y803000D01*
X277001Y779999D02*
Y774001D01*
X281000D01*
X282999D02*
X284999D01*
X283999D01*
Y779999D01*
X282999Y778999D01*
X486471Y100612D02*
X484471D01*
X485471D01*
Y95614D01*
X484471Y94614D01*
X483472D01*
X482472Y95614D01*
X488470Y99612D02*
X489470Y100612D01*
X491469D01*
X492469Y99612D01*
Y98613D01*
X491469Y97613D01*
X490469D01*
X491469D01*
X492469Y96613D01*
Y95614D01*
X491469Y94614D01*
X489470D01*
X488470Y95614D01*
X327000Y85999D02*
X325001D01*
X326001D01*
Y81001D01*
X325001Y80001D01*
X324001D01*
X323002Y81001D01*
X332998Y80001D02*
X329000D01*
X332998Y84000D01*
Y84999D01*
X331999Y85999D01*
X329999D01*
X329000Y84999D01*
X55000Y577999D02*
X53001D01*
X54000D01*
Y573001D01*
X53001Y572001D01*
X52001D01*
X51001Y573001D01*
X56999Y572001D02*
X58999D01*
X57999D01*
Y577999D01*
X56999Y576999D01*
X590999Y581698D02*
X585001D01*
Y578699D01*
X586001Y577700D01*
X589999D01*
X590999Y578699D01*
Y581698D01*
X585001Y572701D02*
X590999D01*
X588000Y575700D01*
Y571702D01*
X385999Y859999D02*
X380001D01*
Y857000D01*
X381001Y856000D01*
X384999D01*
X385999Y857000D01*
Y859999D01*
X380001Y854001D02*
Y852001D01*
Y853001D01*
X385999D01*
X384999Y854001D01*
X520001Y836501D02*
X519001Y835501D01*
Y833502D01*
X520001Y832502D01*
X523999D01*
X524999Y833502D01*
Y835501D01*
X523999Y836501D01*
X524999Y838501D02*
Y840500D01*
Y839500D01*
X519001D01*
X520001Y838501D01*
X524999Y846498D02*
X519001D01*
X522000Y843499D01*
Y847498D01*
X281951Y580999D02*
X280951Y581999D01*
X278952D01*
X277952Y580999D01*
Y577001D01*
X278952Y576001D01*
X280951D01*
X281951Y577001D01*
X283951Y576001D02*
X285950D01*
X284950D01*
Y581999D01*
X283951Y580999D01*
X292948Y576001D02*
X288949D01*
X292948Y580000D01*
Y580999D01*
X291948Y581999D01*
X289949D01*
X288949Y580999D01*
X248500Y518499D02*
X247501Y519499D01*
X245501D01*
X244502Y518499D01*
Y514501D01*
X245501Y513501D01*
X247501D01*
X248500Y514501D01*
X250500Y518499D02*
X251499Y519499D01*
X253499D01*
X254498Y518499D01*
Y517500D01*
X253499Y516500D01*
X254498Y515500D01*
Y514501D01*
X253499Y513501D01*
X251499D01*
X250500Y514501D01*
Y515500D01*
X251499Y516500D01*
X250500Y517500D01*
Y518499D01*
X251499Y516500D02*
X253499D01*
X281999Y515000D02*
X282999Y515999D01*
Y517999D01*
X281999Y518998D01*
X278001D01*
X277001Y517999D01*
Y515999D01*
X278001Y515000D01*
X282999Y513000D02*
Y509002D01*
X281999D01*
X278001Y513000D01*
X277001D01*
X313999Y515000D02*
X314999Y515999D01*
Y517999D01*
X313999Y518998D01*
X310001D01*
X309001Y517999D01*
Y515999D01*
X310001Y515000D01*
X314999Y509002D02*
X313999Y511001D01*
X312000Y513000D01*
X310001D01*
X309001Y512001D01*
Y510001D01*
X310001Y509002D01*
X311000D01*
X312000Y510001D01*
Y513000D01*
X655502Y399999D02*
Y395001D01*
X656501Y394001D01*
X658501D01*
X659500Y395001D01*
Y399999D01*
X664499Y394001D02*
Y399999D01*
X661500Y397000D01*
X665498D01*
X621410Y833148D02*
Y828150D01*
X622410Y827150D01*
X624409D01*
X625409Y828150D01*
Y833148D01*
X631407Y827150D02*
X627408D01*
X631407Y831149D01*
Y832148D01*
X630407Y833148D01*
X628408D01*
X627408Y832148D01*
X695502Y226001D02*
Y231999D01*
X698502D01*
X699501Y230999D01*
Y229000D01*
X698502Y228000D01*
X695502D01*
X697502D02*
X699501Y226001D01*
X701500D02*
X703500D01*
X702500D01*
Y231999D01*
X701500Y230999D01*
X710498Y226001D02*
X706499D01*
X710498Y230000D01*
Y230999D01*
X709498Y231999D01*
X707498D01*
X706499Y230999D01*
X354001Y800001D02*
Y805999D01*
X357000D01*
X358000Y804999D01*
Y803000D01*
X357000Y802000D01*
X354001D01*
X356001D02*
X358000Y800001D01*
X359999D02*
X361999D01*
X360999D01*
Y805999D01*
X359999Y804999D01*
X502500Y623201D02*
Y627199D01*
X501501Y628199D01*
X499501D01*
X498502Y627199D01*
Y623201D01*
X499501Y622201D01*
X501501D01*
X500501Y624200D02*
X502500Y622201D01*
X501501D02*
X502500Y623201D01*
X508498Y622201D02*
X504500D01*
X508498Y626200D01*
Y627199D01*
X507499Y628199D01*
X505499D01*
X504500Y627199D01*
X280000Y624001D02*
Y627999D01*
X279000Y628999D01*
X277001D01*
X276001Y627999D01*
Y624001D01*
X277001Y623001D01*
X279000D01*
X278001Y625000D02*
X280000Y623001D01*
X279000D02*
X280000Y624001D01*
X281999Y623001D02*
X283999D01*
X282999D01*
Y628999D01*
X281999Y627999D01*
X845002Y338249D02*
Y332251D01*
X849000D01*
X851000Y337249D02*
X851999Y338249D01*
X853999D01*
X854998Y337249D01*
Y336250D01*
X853999Y335250D01*
X852999D01*
X853999D01*
X854998Y334250D01*
Y333251D01*
X853999Y332251D01*
X851999D01*
X851000Y333251D01*
X493001Y763002D02*
X498999D01*
Y767000D01*
Y772998D02*
Y769000D01*
X495000Y772998D01*
X494001D01*
X493001Y771999D01*
Y769999D01*
X494001Y769000D01*
X568999Y839998D02*
X563001D01*
Y836999D01*
X564001Y836000D01*
X567999D01*
X568999Y836999D01*
Y839998D01*
X567999Y834000D02*
X568999Y833001D01*
Y831001D01*
X567999Y830002D01*
X567000D01*
X566000Y831001D01*
Y832001D01*
Y831001D01*
X565000Y830002D01*
X564001D01*
X563001Y831001D01*
Y833001D01*
X564001Y834000D01*
X364699Y627698D02*
X358701D01*
Y624699D01*
X359701Y623700D01*
X363699D01*
X364699Y624699D01*
Y627698D01*
X358701Y617702D02*
Y621700D01*
X362700Y617702D01*
X363699D01*
X364699Y618701D01*
Y620701D01*
X363699Y621700D01*
X222001Y326001D02*
X221001Y325002D01*
Y323002D01*
X222001Y322003D01*
X225999D01*
X226999Y323002D01*
Y325002D01*
X225999Y326001D01*
X222001Y328001D02*
X221001Y329000D01*
Y331000D01*
X222001Y331999D01*
X223000D01*
X224000Y331000D01*
Y330000D01*
Y331000D01*
X225000Y331999D01*
X225999D01*
X226999Y331000D01*
Y329000D01*
X225999Y328001D01*
X221001Y337997D02*
Y333999D01*
X224000D01*
X223000Y335998D01*
Y336998D01*
X224000Y337997D01*
X225999D01*
X226999Y336998D01*
Y334998D01*
X225999Y333999D01*
X274001Y394361D02*
X273002Y395361D01*
X271002D01*
X270003Y394361D01*
Y390363D01*
X271002Y389363D01*
X273002D01*
X274001Y390363D01*
X276001Y394361D02*
X277000Y395361D01*
X279000D01*
X279999Y394361D01*
Y393362D01*
X279000Y392362D01*
X278000D01*
X279000D01*
X279999Y391362D01*
Y390363D01*
X279000Y389363D01*
X277000D01*
X276001Y390363D01*
X284998Y389363D02*
Y395361D01*
X281999Y392362D01*
X285997D01*
X335001Y858000D02*
X334001Y857000D01*
Y855001D01*
X335001Y854001D01*
X338999D01*
X339999Y855001D01*
Y857000D01*
X338999Y858000D01*
X339999Y859999D02*
Y861999D01*
Y860999D01*
X334001D01*
X335001Y859999D01*
D15*
X137004Y682500D02*
G03*
X137004Y682500I-353J0D01*
G01*
X53500Y569180D02*
X106500D01*
Y353180D02*
Y569180D01*
X53500Y353180D02*
X106500D01*
X53500D02*
Y569180D01*
X506250Y328500D02*
Y337500D01*
X476250Y328500D02*
Y337500D01*
X790950Y679500D02*
Y688500D01*
X820950Y679500D02*
Y688500D01*
X440000Y789000D02*
X470000D01*
X440000Y839000D02*
X470000D01*
X770750Y799750D02*
Y829750D01*
X820750Y799750D02*
Y829750D01*
X638750Y242000D02*
Y251000D01*
X608750Y242000D02*
Y251000D01*
X660944Y116766D02*
X675944D01*
X660944Y86766D02*
X675944D01*
X696250Y57250D02*
Y72250D01*
X726250Y57250D02*
Y72250D01*
X238500Y823500D02*
Y858500D01*
X226100Y823500D02*
X238500D01*
X173500D02*
Y858500D01*
Y823500D02*
X185900D01*
X331500Y480000D02*
X361500D01*
X331500Y430000D02*
X361500D01*
X398500Y290500D02*
Y305500D01*
X368500Y290500D02*
Y305500D01*
X547989Y831000D02*
X551989D01*
X555989D01*
X559239Y840000D02*
Y858000D01*
X544739Y840000D02*
Y858000D01*
X287000Y827500D02*
Y842500D01*
X257000Y827500D02*
Y842500D01*
X361250Y840000D02*
Y858000D01*
X375750Y840000D02*
Y858000D01*
X368500Y831000D02*
X372500D01*
X364500D02*
X368500D01*
X653000Y792500D02*
Y807500D01*
X623000Y792500D02*
Y807500D01*
X244750Y149250D02*
X262750D01*
X244750Y134750D02*
X262750D01*
X235750Y138000D02*
Y142000D01*
Y146000D01*
X232500Y140250D02*
Y145250D01*
D16*
X666644Y148250D02*
X670244D01*
X666644Y132250D02*
X670244D01*
X565000Y800200D02*
Y803800D01*
X581000Y800200D02*
Y803800D01*
X545500Y591700D02*
X547000D01*
Y601865D01*
Y613835D02*
Y624700D01*
X545500D02*
X547000D01*
X514000D02*
X515500D01*
X514000Y613835D02*
Y624700D01*
Y591700D02*
Y601865D01*
Y591700D02*
X515500D01*
X321500Y296450D02*
Y300050D01*
X305500Y296450D02*
Y300050D01*
X320700Y591700D02*
X322200D01*
Y601865D01*
Y613835D02*
Y624700D01*
X320700D02*
X322200D01*
X289200D02*
X290700D01*
X289200Y613835D02*
Y624700D01*
Y591700D02*
Y601865D01*
Y591700D02*
X290700D01*
X327000Y800200D02*
Y803800D01*
X343000Y800200D02*
Y803800D01*
X83950Y129250D02*
X87550D01*
X83950Y113250D02*
X87550D01*
D17*
X210750Y337962D02*
Y353202D01*
Y359298D01*
Y374538D01*
X130750Y338000D02*
Y374576D01*
M02*
