G04*
G04 #@! TF.GenerationSoftware,Altium Limited,Altium Designer,26.2.0 (7)*
G04*
G04 Layer_Physical_Order=2*
G04 Layer_Color=36540*
%FSLAX44Y44*%
%MOMM*%
G71*
G04*
G04 #@! TF.SameCoordinates,EA956771-2BF4-40C0-8823-A7A71366CA27*
G04*
G04*
G04 #@! TF.FilePolarity,Positive*
G04*
G01*
G75*
G04:AMPARAMS|DCode=106|XSize=2mm|YSize=12mm|CornerRadius=0.3mm|HoleSize=0mm|Usage=FLASHONLY|Rotation=270.000|XOffset=0mm|YOffset=0mm|HoleType=Round|Shape=RoundedRectangle|*
%AMROUNDEDRECTD106*
21,1,2.0000,11.4000,0,0,270.0*
21,1,1.4000,12.0000,0,0,270.0*
1,1,0.6000,-5.7000,-0.7000*
1,1,0.6000,-5.7000,0.7000*
1,1,0.6000,5.7000,0.7000*
1,1,0.6000,5.7000,-0.7000*
%
%ADD106ROUNDEDRECTD106*%
%ADD107C,1.2000*%
%ADD108C,6.0000*%
%ADD109C,1.5000*%
%ADD110C,0.5000*%
%ADD111C,0.6000*%
G36*
X891207Y955325D02*
X891888Y955325D01*
X893225Y955058D01*
X894484Y954535D01*
X895618Y953777D01*
X896581Y952813D01*
X897338Y951679D01*
X897860Y950419D01*
X898126Y949082D01*
X898126Y948400D01*
X898126Y588900D01*
Y588070D01*
X897802Y586442D01*
X897167Y584909D01*
X896245Y583529D01*
X895071Y582355D01*
X893691Y581433D01*
X892158Y580798D01*
X890530Y580475D01*
X889700D01*
X889600Y580455D01*
X889500Y580470D01*
X888373Y580414D01*
X888080Y580341D01*
X887777D01*
X885567Y579901D01*
X885196Y579747D01*
X884802Y579669D01*
X882720Y578806D01*
X882386Y578583D01*
X882015Y578430D01*
X880141Y577178D01*
X879857Y576894D01*
X879523Y576670D01*
X877930Y575077D01*
X877706Y574743D01*
X877422Y574459D01*
X876170Y572585D01*
X876017Y572214D01*
X875793Y571880D01*
X874931Y569798D01*
X874853Y569404D01*
X874699Y569033D01*
X874259Y566823D01*
Y566516D01*
X874185Y566218D01*
X874130Y565042D01*
X874145Y564945D01*
X874126Y564849D01*
X874182Y357499D01*
X874202Y357400D01*
X874187Y357300D01*
X874242Y356173D01*
X874316Y355880D01*
Y355578D01*
X874756Y353367D01*
X874909Y352996D01*
X874988Y352602D01*
X875850Y350520D01*
X876073Y350186D01*
X876227Y349815D01*
X877479Y347941D01*
X877763Y347657D01*
X877986Y347323D01*
X879580Y345730D01*
X879914Y345507D01*
X880198Y345223D01*
X882072Y343970D01*
X882443Y343817D01*
X882777Y343593D01*
X884859Y342731D01*
X885253Y342653D01*
X885624Y342499D01*
X887834Y342059D01*
X888137D01*
X888430Y341986D01*
X889557Y341931D01*
X889657Y341945D01*
X889757Y341926D01*
X890586Y341926D01*
X892214Y341602D01*
X893748Y340967D01*
X895128Y340045D01*
X896301Y338871D01*
X897223Y337491D01*
X897859Y335958D01*
X898182Y334330D01*
X898182Y333553D01*
X898126Y333268D01*
X898126Y10500D01*
X898126Y9818D01*
X897860Y8481D01*
X897338Y7221D01*
X896581Y6087D01*
X895618Y5123D01*
X894484Y4365D01*
X893225Y3842D01*
X891888Y3575D01*
X891196Y3574D01*
X618900Y3574D01*
X618070D01*
X616442Y3898D01*
X614909Y4533D01*
X613529Y5455D01*
X612355Y6629D01*
X611433Y8009D01*
X610798Y9542D01*
X610474Y11170D01*
Y12000D01*
X610455Y12100D01*
X610470Y12200D01*
X610414Y13327D01*
X610341Y13620D01*
Y13922D01*
X609901Y16133D01*
X609747Y16504D01*
X609669Y16898D01*
X608806Y18980D01*
X608583Y19314D01*
X608430Y19685D01*
X607178Y21559D01*
X606894Y21843D01*
X606670Y22177D01*
X605077Y23770D01*
X604743Y23993D01*
X604459Y24277D01*
X602585Y25529D01*
X602214Y25683D01*
X601880Y25906D01*
X599798Y26769D01*
X599404Y26847D01*
X599033Y27001D01*
X596823Y27441D01*
X596520D01*
X596227Y27514D01*
X595100Y27569D01*
X595000Y27555D01*
X594900Y27574D01*
X537801D01*
X537299Y27474D01*
X365502Y27574D01*
X365501Y27574D01*
X365500Y27574D01*
X306900D01*
X306800Y27554D01*
X306700Y27569D01*
X305573Y27514D01*
X305280Y27441D01*
X304977D01*
X302767Y27001D01*
X302396Y26847D01*
X302002Y26769D01*
X299920Y25906D01*
X299586Y25683D01*
X299215Y25529D01*
X297341Y24277D01*
X297057Y23993D01*
X296723Y23770D01*
X295130Y22177D01*
X294906Y21843D01*
X294622Y21559D01*
X293370Y19685D01*
X293217Y19314D01*
X292994Y18980D01*
X292131Y16898D01*
X292053Y16504D01*
X291899Y16133D01*
X291459Y13922D01*
Y13620D01*
X291386Y13327D01*
X291331Y12200D01*
X291345Y12099D01*
X291326Y12000D01*
X291326Y11170D01*
X291002Y9542D01*
X290367Y8009D01*
X289445Y6629D01*
X288271Y5455D01*
X286891Y4533D01*
X285358Y3898D01*
X283730Y3574D01*
X282900Y3574D01*
X10494Y3574D01*
X9812Y3575D01*
X8475Y3842D01*
X7215Y4365D01*
X6082Y5123D01*
X5119Y6087D01*
X4362Y7221D01*
X3840Y8481D01*
X3574Y9818D01*
X3574Y10500D01*
Y333268D01*
X3518Y333553D01*
Y334330D01*
X3841Y335958D01*
X4477Y337491D01*
X5399Y338871D01*
X6572Y340045D01*
X7952Y340967D01*
X9486Y341602D01*
X11114Y341926D01*
X11943D01*
X12043Y341945D01*
X12143Y341931D01*
X13270Y341986D01*
X13563Y342059D01*
X13866D01*
X16076Y342499D01*
X16447Y342653D01*
X16841Y342731D01*
X18923Y343593D01*
X19257Y343817D01*
X19628Y343970D01*
X21502Y345222D01*
X21786Y345506D01*
X22120Y345730D01*
X23714Y347323D01*
X23937Y347657D01*
X24221Y347941D01*
X25473Y349815D01*
X25627Y350186D01*
X25850Y350520D01*
X26712Y352602D01*
X26791Y352996D01*
X26944Y353367D01*
X27384Y355578D01*
Y355880D01*
X27457Y356173D01*
X27513Y357300D01*
X27498Y357400D01*
X27518Y357499D01*
X27574Y564899D01*
X27555Y564999D01*
X27569Y565100D01*
X27514Y566227D01*
X27441Y566520D01*
Y566823D01*
X27001Y569033D01*
X26847Y569404D01*
X26769Y569798D01*
X25907Y571880D01*
X25683Y572214D01*
X25530Y572585D01*
X24278Y574459D01*
X23994Y574743D01*
X23770Y575077D01*
X22177Y576670D01*
X21843Y576894D01*
X21559Y577178D01*
X19685Y578430D01*
X19314Y578583D01*
X18980Y578806D01*
X16898Y579669D01*
X16504Y579747D01*
X16133Y579901D01*
X13922Y580341D01*
X13620D01*
X13327Y580414D01*
X12200Y580470D01*
X12100Y580455D01*
X12000Y580474D01*
X11170Y580475D01*
X9542Y580798D01*
X8009Y581433D01*
X6629Y582355D01*
X5455Y583529D01*
X4533Y584909D01*
X3898Y586442D01*
X3574Y588070D01*
X3574Y588900D01*
Y948400D01*
X3574Y949082D01*
X3840Y950419D01*
X4362Y951679D01*
X5119Y952813D01*
X6082Y953777D01*
X7215Y954535D01*
X8475Y955058D01*
X9812Y955325D01*
X10504Y955326D01*
X282900Y955326D01*
X283730D01*
X285358Y955002D01*
X286891Y954367D01*
X288271Y953445D01*
X289445Y952271D01*
X290367Y950891D01*
X291002Y949358D01*
X291326Y947730D01*
Y946900D01*
X291345Y946800D01*
X291331Y946700D01*
X291386Y945573D01*
X291459Y945280D01*
Y944978D01*
X291899Y942767D01*
X292053Y942396D01*
X292131Y942002D01*
X292994Y939920D01*
X293217Y939586D01*
X293370Y939215D01*
X294622Y937341D01*
X294906Y937057D01*
X295130Y936723D01*
X296723Y935130D01*
X297057Y934906D01*
X297341Y934622D01*
X299215Y933370D01*
X299586Y933217D01*
X299920Y932994D01*
X302002Y932131D01*
X302396Y932053D01*
X302767Y931899D01*
X304977Y931459D01*
X305280D01*
X305573Y931386D01*
X306700Y931331D01*
X306800Y931346D01*
X306900Y931326D01*
X365500D01*
X365501Y931326D01*
X365502Y931326D01*
X537299Y931426D01*
X537801Y931326D01*
X594900D01*
X595000Y931346D01*
X595100Y931331D01*
X596227Y931386D01*
X596520Y931459D01*
X596823D01*
X599033Y931899D01*
X599404Y932053D01*
X599798Y932131D01*
X601880Y932994D01*
X602214Y933217D01*
X602585Y933370D01*
X604459Y934622D01*
X604743Y934906D01*
X605077Y935130D01*
X606670Y936723D01*
X606894Y937057D01*
X607178Y937341D01*
X608430Y939215D01*
X608583Y939586D01*
X608806Y939920D01*
X609669Y942002D01*
X609747Y942396D01*
X609901Y942767D01*
X610341Y944978D01*
Y945280D01*
X610414Y945573D01*
X610470Y946700D01*
X610455Y946801D01*
X610474Y946900D01*
X610474Y947730D01*
X610798Y949358D01*
X611433Y950891D01*
X612355Y952271D01*
X613529Y953445D01*
X614909Y954367D01*
X616442Y955002D01*
X618070Y955326D01*
X618900Y955326D01*
X891207Y955325D01*
D02*
G37*
%LPC*%
G36*
X845350Y846088D02*
X731350D01*
X729594Y845739D01*
X728106Y844744D01*
X727111Y843256D01*
X726762Y841500D01*
Y827500D01*
X727111Y825744D01*
X728106Y824255D01*
X729594Y823261D01*
X731350Y822912D01*
X845350D01*
X847106Y823261D01*
X848594Y824255D01*
X849589Y825744D01*
X849938Y827500D01*
Y841500D01*
X849589Y843256D01*
X848594Y844744D01*
X847106Y845739D01*
X845350Y846088D01*
D02*
G37*
G36*
X620350D02*
X506350D01*
X504594Y845739D01*
X503106Y844744D01*
X502111Y843256D01*
X501762Y841500D01*
Y827500D01*
X502111Y825744D01*
X503106Y824255D01*
X504594Y823261D01*
X506350Y822912D01*
X620350D01*
X622106Y823261D01*
X623594Y824255D01*
X624589Y825744D01*
X624938Y827500D01*
Y841500D01*
X624589Y843256D01*
X623594Y844744D01*
X622106Y845739D01*
X620350Y846088D01*
D02*
G37*
G36*
X395350D02*
X281350D01*
X279594Y845739D01*
X278106Y844744D01*
X277111Y843256D01*
X276762Y841500D01*
Y827500D01*
X277111Y825744D01*
X278106Y824255D01*
X279594Y823261D01*
X281350Y822912D01*
X395350D01*
X397106Y823261D01*
X398594Y824255D01*
X399589Y825744D01*
X399938Y827500D01*
Y841500D01*
X399589Y843256D01*
X398594Y844744D01*
X397106Y845739D01*
X395350Y846088D01*
D02*
G37*
G36*
X170350D02*
X56350D01*
X54594Y845739D01*
X53106Y844744D01*
X52111Y843256D01*
X51762Y841500D01*
Y827500D01*
X52111Y825744D01*
X53106Y824255D01*
X54594Y823261D01*
X56350Y822912D01*
X170350D01*
X172106Y823261D01*
X173594Y824255D01*
X174589Y825744D01*
X174938Y827500D01*
Y841500D01*
X174589Y843256D01*
X173594Y844744D01*
X172106Y845739D01*
X170350Y846088D01*
D02*
G37*
G36*
X816309Y796070D02*
X814718D01*
X813248Y795461D01*
X812123Y794336D01*
X811514Y792866D01*
Y791274D01*
X812123Y789804D01*
X813137Y788790D01*
X812182Y787836D01*
X811573Y786366D01*
Y784775D01*
X812182Y783304D01*
X813307Y782179D01*
X814778Y781570D01*
X816369D01*
X817839Y782179D01*
X818964Y783304D01*
X819573Y784775D01*
Y786366D01*
X818964Y787836D01*
X817950Y788850D01*
X818905Y789804D01*
X819514Y791274D01*
Y792866D01*
X818905Y794336D01*
X817779Y795461D01*
X816309Y796070D01*
D02*
G37*
G36*
X732046Y775250D02*
X730454D01*
X728984Y774641D01*
X727859Y773516D01*
X727250Y772046D01*
Y770454D01*
X727859Y768984D01*
X728984Y767859D01*
X730454Y767250D01*
X732046D01*
X733516Y767859D01*
X734641Y768984D01*
X735250Y770454D01*
Y772046D01*
X734641Y773516D01*
X733516Y774641D01*
X732046Y775250D01*
D02*
G37*
G36*
X845546Y616000D02*
X843954D01*
X842484Y615391D01*
X841359Y614266D01*
X840750Y612796D01*
Y611204D01*
X841359Y609734D01*
X842484Y608609D01*
X843954Y608000D01*
X845546D01*
X847016Y608609D01*
X848141Y609734D01*
X848750Y611204D01*
Y612796D01*
X848141Y614266D01*
X847016Y615391D01*
X845546Y616000D01*
D02*
G37*
G36*
X568226Y611177D02*
X566634D01*
X565164Y610568D01*
X564039Y609443D01*
X563430Y607973D01*
Y606381D01*
X564039Y604911D01*
X565164Y603786D01*
X566634Y603177D01*
X568226D01*
X569696Y603786D01*
X570821Y604911D01*
X571430Y606381D01*
Y607973D01*
X570821Y609443D01*
X569696Y610568D01*
X568226Y611177D01*
D02*
G37*
G36*
X281736Y603033D02*
X280144D01*
X278674Y602424D01*
X277549Y601299D01*
X276940Y599829D01*
Y598238D01*
X277549Y596768D01*
X278674Y595642D01*
X280144Y595033D01*
X281736D01*
X283206Y595642D01*
X284331Y596768D01*
X284940Y598238D01*
Y599829D01*
X284331Y601299D01*
X283206Y602424D01*
X281736Y603033D01*
D02*
G37*
G36*
X292796Y592000D02*
X291204D01*
X289734Y591391D01*
X288609Y590266D01*
X288000Y588796D01*
Y587204D01*
X288609Y585734D01*
X289734Y584609D01*
X291204Y584000D01*
X292796D01*
X294266Y584609D01*
X295391Y585734D01*
X296000Y587204D01*
Y588796D01*
X295391Y590266D01*
X294266Y591391D01*
X292796Y592000D01*
D02*
G37*
G36*
X281546Y588000D02*
X279954D01*
X278484Y587391D01*
X277359Y586266D01*
X276750Y584796D01*
Y583204D01*
X277359Y581734D01*
X278484Y580609D01*
X279954Y580000D01*
X281546D01*
X283016Y580609D01*
X284141Y581734D01*
X284750Y583204D01*
Y584796D01*
X284141Y586266D01*
X283016Y587391D01*
X281546Y588000D01*
D02*
G37*
G36*
X91193Y557175D02*
X88806D01*
X86601Y556262D01*
X84913Y554574D01*
X84000Y552369D01*
Y549982D01*
X84913Y547776D01*
X86601Y546089D01*
X88806Y545175D01*
X91193D01*
X93399Y546089D01*
X95086Y547776D01*
X96000Y549982D01*
Y552369D01*
X95086Y554574D01*
X93399Y556262D01*
X91193Y557175D01*
D02*
G37*
G36*
X71193D02*
X68807D01*
X66601Y556262D01*
X64914Y554574D01*
X64000Y552369D01*
Y549982D01*
X64914Y547776D01*
X66601Y546089D01*
X68807Y545175D01*
X71193D01*
X73399Y546089D01*
X75087Y547776D01*
X76000Y549982D01*
Y552369D01*
X75087Y554574D01*
X73399Y556262D01*
X71193Y557175D01*
D02*
G37*
G36*
X523796Y543000D02*
X522204D01*
X520734Y542391D01*
X519609Y541266D01*
X519000Y539796D01*
Y538204D01*
X519609Y536734D01*
X520734Y535609D01*
X522204Y535000D01*
X523796D01*
X525266Y535609D01*
X526391Y536734D01*
X527000Y538204D01*
Y539796D01*
X526391Y541266D01*
X525266Y542391D01*
X523796Y543000D01*
D02*
G37*
G36*
X91193Y537175D02*
X88806D01*
X86601Y536262D01*
X84913Y534574D01*
X84000Y532369D01*
Y529982D01*
X84913Y527776D01*
X86601Y526089D01*
X88806Y525175D01*
X91193D01*
X93399Y526089D01*
X95086Y527776D01*
X96000Y529982D01*
Y532369D01*
X95086Y534574D01*
X93399Y536262D01*
X91193Y537175D01*
D02*
G37*
G36*
X71193D02*
X68807D01*
X66601Y536262D01*
X64914Y534574D01*
X64000Y532369D01*
Y529982D01*
X64914Y527776D01*
X66601Y526089D01*
X68807Y525175D01*
X71193D01*
X73399Y526089D01*
X75087Y527776D01*
X76000Y529982D01*
Y532369D01*
X75087Y534574D01*
X73399Y536262D01*
X71193Y537175D01*
D02*
G37*
G36*
X314796Y531000D02*
X313204D01*
X311734Y530391D01*
X310609Y529266D01*
X310000Y527796D01*
Y526204D01*
X310609Y524734D01*
X311734Y523609D01*
X313204Y523000D01*
X314796D01*
X316266Y523609D01*
X317391Y524734D01*
X318000Y526204D01*
Y527796D01*
X317391Y529266D01*
X316266Y530391D01*
X314796Y531000D01*
D02*
G37*
G36*
X453487Y537500D02*
X451513D01*
X449605Y536989D01*
X447895Y536002D01*
X446498Y534605D01*
X445511Y532895D01*
X445000Y530987D01*
Y529013D01*
X445511Y527105D01*
X446498Y525395D01*
X447895Y523998D01*
X449605Y523011D01*
X451513Y522500D01*
X453487D01*
X455395Y523011D01*
X457105Y523998D01*
X458502Y525395D01*
X459489Y527105D01*
X460000Y529013D01*
Y530987D01*
X459489Y532895D01*
X458502Y534605D01*
X457105Y536002D01*
X455395Y536989D01*
X453487Y537500D01*
D02*
G37*
G36*
X354796Y527000D02*
X353204D01*
X351734Y526391D01*
X350609Y525266D01*
X350000Y523796D01*
Y522204D01*
X350609Y520734D01*
X351734Y519609D01*
X353204Y519000D01*
X354796D01*
X356266Y519609D01*
X357391Y520734D01*
X358000Y522204D01*
Y523796D01*
X357391Y525266D01*
X356266Y526391D01*
X354796Y527000D01*
D02*
G37*
G36*
X325743Y503750D02*
X324152D01*
X322682Y503140D01*
X321556Y502015D01*
X320947Y500545D01*
Y498954D01*
X321556Y497484D01*
X322682Y496358D01*
X324152Y495750D01*
X325743D01*
X327213Y496358D01*
X328338Y497484D01*
X328947Y498954D01*
Y500545D01*
X328338Y502015D01*
X327213Y503140D01*
X325743Y503750D01*
D02*
G37*
G36*
X333843Y510874D02*
X332252D01*
X330782Y510265D01*
X329656Y509139D01*
X329047Y507669D01*
Y506078D01*
X329656Y504608D01*
X330782Y503483D01*
X331215Y503303D01*
X331513Y501805D01*
X331156Y501448D01*
X330547Y499978D01*
Y498387D01*
X331156Y496917D01*
X332282Y495792D01*
X333752Y495183D01*
X335343D01*
X336813Y495792D01*
X337938Y496917D01*
X338547Y498387D01*
Y499978D01*
X337938Y501448D01*
X336813Y502574D01*
X336380Y502753D01*
X336082Y504251D01*
X336438Y504608D01*
X337047Y506078D01*
Y507669D01*
X336438Y509139D01*
X335313Y510265D01*
X333843Y510874D01*
D02*
G37*
G36*
X410796Y501500D02*
X409204D01*
X407734Y500891D01*
X406609Y499766D01*
X406000Y498296D01*
Y496704D01*
X406609Y495234D01*
X407734Y494109D01*
X409204Y493500D01*
X410796D01*
X412266Y494109D01*
X413391Y495234D01*
X414000Y496704D01*
Y498296D01*
X413391Y499766D01*
X412266Y500891D01*
X410796Y501500D01*
D02*
G37*
G36*
X453487Y507500D02*
X451513D01*
X449605Y506989D01*
X447895Y506002D01*
X446498Y504605D01*
X445511Y502895D01*
X445000Y500987D01*
Y499013D01*
X445511Y497105D01*
X446498Y495395D01*
X447895Y493998D01*
X449605Y493011D01*
X451513Y492500D01*
X453487D01*
X455395Y493011D01*
X457105Y493998D01*
X458502Y495395D01*
X459489Y497105D01*
X460000Y499013D01*
Y500987D01*
X459489Y502895D01*
X458502Y504605D01*
X457105Y506002D01*
X455395Y506989D01*
X453487Y507500D01*
D02*
G37*
G36*
X240796Y499000D02*
X239204D01*
X237734Y498391D01*
X236609Y497266D01*
X236000Y495796D01*
Y494204D01*
X236609Y492734D01*
X237734Y491609D01*
X239204Y491000D01*
X240796D01*
X242266Y491609D01*
X243391Y492734D01*
X244000Y494204D01*
Y495796D01*
X243391Y497266D01*
X242266Y498391D01*
X240796Y499000D01*
D02*
G37*
G36*
X230796D02*
X229204D01*
X227734Y498391D01*
X226609Y497266D01*
X226000Y495796D01*
Y494204D01*
X226609Y492734D01*
X227734Y491609D01*
X229204Y491000D01*
X230796D01*
X232266Y491609D01*
X233391Y492734D01*
X234000Y494204D01*
Y495796D01*
X233391Y497266D01*
X232266Y498391D01*
X230796Y499000D01*
D02*
G37*
G36*
X220796D02*
X219204D01*
X217734Y498391D01*
X216609Y497266D01*
X216000Y495796D01*
Y494204D01*
X216609Y492734D01*
X217734Y491609D01*
X219204Y491000D01*
X220796D01*
X222266Y491609D01*
X223391Y492734D01*
X224000Y494204D01*
Y495796D01*
X223391Y497266D01*
X222266Y498391D01*
X220796Y499000D01*
D02*
G37*
G36*
X688932Y498716D02*
X687341D01*
X685871Y498107D01*
X684745Y496982D01*
X684137Y495512D01*
Y493920D01*
X684745Y492450D01*
X685871Y491325D01*
X687341Y490716D01*
X688932D01*
X690402Y491325D01*
X691527Y492450D01*
X692137Y493920D01*
Y495512D01*
X691527Y496982D01*
X690402Y498107D01*
X688932Y498716D01*
D02*
G37*
G36*
X329546Y481990D02*
X327954D01*
X326484Y481381D01*
X325711Y480608D01*
X324937Y481381D01*
X323467Y481990D01*
X321876D01*
X320406Y481381D01*
X319280Y480256D01*
X318672Y478786D01*
Y477194D01*
X319280Y475724D01*
X320406Y474599D01*
X321876Y473990D01*
X323467D01*
X324937Y474599D01*
X325711Y475372D01*
X326484Y474599D01*
X327954Y473990D01*
X329546D01*
X331016Y474599D01*
X332141Y475724D01*
X332750Y477194D01*
Y478786D01*
X332141Y480256D01*
X331016Y481381D01*
X329546Y481990D01*
D02*
G37*
G36*
X806747Y486642D02*
X805156D01*
X803686Y486033D01*
X802560Y484908D01*
X801952Y483438D01*
Y481846D01*
X802560Y480376D01*
X803686Y479251D01*
X805156Y478642D01*
X806747D01*
X808217Y479251D01*
X809342Y480376D01*
X809951Y481846D01*
Y483438D01*
X809342Y484908D01*
X808217Y486033D01*
X806747Y486642D01*
D02*
G37*
G36*
X735090Y484671D02*
X733499D01*
X732029Y484062D01*
X730904Y482937D01*
X730295Y481467D01*
Y479875D01*
X730904Y478405D01*
X732029Y477280D01*
X733499Y476671D01*
X735090D01*
X736561Y477280D01*
X737686Y478405D01*
X738295Y479875D01*
Y481467D01*
X737686Y482937D01*
X736561Y484062D01*
X735090Y484671D01*
D02*
G37*
G36*
X329546Y467010D02*
X327954D01*
X326484Y466401D01*
X325711Y465628D01*
X324937Y466401D01*
X323467Y467010D01*
X321876D01*
X320406Y466401D01*
X319280Y465276D01*
X318672Y463806D01*
Y462214D01*
X319280Y460744D01*
X320406Y459619D01*
X321876Y459010D01*
X323467D01*
X324937Y459619D01*
X325711Y460392D01*
X326484Y459619D01*
X327954Y459010D01*
X329546D01*
X331016Y459619D01*
X332141Y460744D01*
X332750Y462214D01*
Y463806D01*
X332141Y465276D01*
X331016Y466401D01*
X329546Y467010D01*
D02*
G37*
G36*
X91193Y477175D02*
X88806D01*
X86601Y476262D01*
X84913Y474574D01*
X84000Y472369D01*
Y469981D01*
X84913Y467776D01*
X86601Y466088D01*
X88806Y465175D01*
X91193D01*
X93399Y466088D01*
X95086Y467776D01*
X96000Y469981D01*
Y472369D01*
X95086Y474574D01*
X93399Y476262D01*
X91193Y477175D01*
D02*
G37*
G36*
X71193D02*
X68807D01*
X66601Y476262D01*
X64914Y474574D01*
X64000Y472369D01*
Y469981D01*
X64914Y467776D01*
X66601Y466088D01*
X68807Y465175D01*
X71193D01*
X73399Y466088D01*
X75087Y467776D01*
X76000Y469981D01*
Y472369D01*
X75087Y474574D01*
X73399Y476262D01*
X71193Y477175D01*
D02*
G37*
G36*
X757796Y472000D02*
X756204D01*
X754734Y471391D01*
X753609Y470266D01*
X753000Y468796D01*
Y467204D01*
X753609Y465734D01*
X754734Y464609D01*
X756204Y464000D01*
X757796D01*
X759266Y464609D01*
X760391Y465734D01*
X761000Y467204D01*
Y468796D01*
X760391Y470266D01*
X759266Y471391D01*
X757796Y472000D01*
D02*
G37*
G36*
X749796Y466000D02*
X748204D01*
X746734Y465391D01*
X745609Y464266D01*
X745000Y462796D01*
Y461204D01*
X745609Y459734D01*
X746734Y458609D01*
X748204Y458000D01*
X749796D01*
X751266Y458609D01*
X752391Y459734D01*
X753000Y461204D01*
Y462796D01*
X752391Y464266D01*
X751266Y465391D01*
X749796Y466000D01*
D02*
G37*
G36*
X371523Y481103D02*
X369931D01*
X368461Y480494D01*
X367336Y479369D01*
X366727Y477899D01*
Y476307D01*
X367336Y474837D01*
X368461Y473712D01*
X369354Y473342D01*
X370279Y472256D01*
Y470665D01*
X370887Y469195D01*
X370496Y467790D01*
X369990Y467580D01*
X368865Y466455D01*
X368256Y464984D01*
Y463645D01*
X368239Y463377D01*
X367263Y462472D01*
X366590D01*
X365120Y461863D01*
X363994Y460738D01*
X363385Y459268D01*
Y457676D01*
X363994Y456206D01*
X365120Y455081D01*
X366590Y454472D01*
X368181D01*
X369651Y455081D01*
X370776Y456206D01*
X371385Y457676D01*
Y459016D01*
X371402Y459283D01*
X372378Y460189D01*
X373051D01*
X374521Y460798D01*
X375647Y461923D01*
X376256Y463393D01*
Y464984D01*
X375647Y466455D01*
X376038Y467860D01*
X376544Y468069D01*
X377670Y469195D01*
X378279Y470665D01*
Y472256D01*
X377670Y473726D01*
X376544Y474851D01*
X375652Y475221D01*
X374727Y476307D01*
Y477899D01*
X374118Y479369D01*
X372993Y480494D01*
X371523Y481103D01*
D02*
G37*
G36*
X562796Y461000D02*
X561204D01*
X559734Y460391D01*
X558609Y459266D01*
X558000Y457796D01*
Y456204D01*
X558609Y454734D01*
X559734Y453609D01*
X561204Y453000D01*
X562796D01*
X564266Y453609D01*
X565391Y454734D01*
X566000Y456204D01*
Y457796D01*
X565391Y459266D01*
X564266Y460391D01*
X562796Y461000D01*
D02*
G37*
G36*
X775142Y458023D02*
X773550D01*
X772080Y457414D01*
X770955Y456288D01*
X770346Y454818D01*
Y453227D01*
X770955Y451757D01*
X772080Y450632D01*
X773550Y450023D01*
X775142D01*
X776612Y450632D01*
X777737Y451757D01*
X778346Y453227D01*
Y454818D01*
X777737Y456288D01*
X776612Y457414D01*
X775142Y458023D01*
D02*
G37*
G36*
X91193Y457175D02*
X88806D01*
X86601Y456262D01*
X84913Y454574D01*
X84000Y452369D01*
Y449982D01*
X84913Y447776D01*
X86601Y446088D01*
X88806Y445175D01*
X91193D01*
X93399Y446088D01*
X95086Y447776D01*
X96000Y449982D01*
Y452369D01*
X95086Y454574D01*
X93399Y456262D01*
X91193Y457175D01*
D02*
G37*
G36*
X71193D02*
X68807D01*
X66601Y456262D01*
X64914Y454574D01*
X64000Y452369D01*
Y449982D01*
X64914Y447776D01*
X66601Y446088D01*
X68807Y445175D01*
X71193D01*
X73399Y446088D01*
X75087Y447776D01*
X76000Y449982D01*
Y452369D01*
X75087Y454574D01*
X73399Y456262D01*
X71193Y457175D01*
D02*
G37*
G36*
X687796Y451000D02*
X686204D01*
X684734Y450391D01*
X683609Y449266D01*
X683000Y447796D01*
Y446204D01*
X683609Y444734D01*
X684734Y443609D01*
X686204Y443000D01*
X687796D01*
X689266Y443609D01*
X690391Y444734D01*
X691000Y446204D01*
Y447796D01*
X690391Y449266D01*
X689266Y450391D01*
X687796Y451000D01*
D02*
G37*
G36*
X240796Y450000D02*
X239204D01*
X237734Y449391D01*
X236609Y448266D01*
X236000Y446796D01*
Y445204D01*
X236609Y443734D01*
X237734Y442609D01*
X239204Y442000D01*
X240796D01*
X242266Y442609D01*
X243391Y443734D01*
X244000Y445204D01*
Y446796D01*
X243391Y448266D01*
X242266Y449391D01*
X240796Y450000D01*
D02*
G37*
G36*
X230796D02*
X229204D01*
X227734Y449391D01*
X226609Y448266D01*
X226000Y446796D01*
Y445204D01*
X226609Y443734D01*
X227734Y442609D01*
X229204Y442000D01*
X230796D01*
X232266Y442609D01*
X233391Y443734D01*
X234000Y445204D01*
Y446796D01*
X233391Y448266D01*
X232266Y449391D01*
X230796Y450000D01*
D02*
G37*
G36*
X220796D02*
X219204D01*
X217734Y449391D01*
X216609Y448266D01*
X216000Y446796D01*
Y445204D01*
X216609Y443734D01*
X217734Y442609D01*
X219204Y442000D01*
X220796D01*
X222266Y442609D01*
X223391Y443734D01*
X224000Y445204D01*
Y446796D01*
X223391Y448266D01*
X222266Y449391D01*
X220796Y450000D01*
D02*
G37*
G36*
X326644Y447730D02*
X325052D01*
X323582Y447121D01*
X322457Y445996D01*
X321848Y444526D01*
Y442934D01*
X322457Y441464D01*
X323582Y440339D01*
X325052Y439730D01*
X326644D01*
X327663Y440152D01*
X329045Y439693D01*
X330170Y438568D01*
X331640Y437959D01*
X333232D01*
X334702Y438568D01*
X335827Y439693D01*
X336436Y441163D01*
Y442754D01*
X335827Y444224D01*
X334702Y445350D01*
X333232Y445959D01*
X331640D01*
X330621Y445536D01*
X329239Y445996D01*
X328114Y447121D01*
X326644Y447730D01*
D02*
G37*
G36*
X303796Y440000D02*
X302204D01*
X300734Y439391D01*
X299609Y438266D01*
X299000Y436796D01*
Y435204D01*
X299609Y433734D01*
X300734Y432609D01*
X302204Y432000D01*
X303796D01*
X305266Y432609D01*
X306391Y433734D01*
X307000Y435204D01*
Y436796D01*
X306391Y438266D01*
X305266Y439391D01*
X303796Y440000D01*
D02*
G37*
G36*
X706891Y439238D02*
X705300D01*
X703829Y438629D01*
X702704Y437503D01*
X702095Y436033D01*
Y434442D01*
X702704Y432972D01*
X703829Y431847D01*
X705300Y431238D01*
X706891D01*
X708361Y431847D01*
X709486Y432972D01*
X710095Y434442D01*
Y436033D01*
X709486Y437503D01*
X708361Y438629D01*
X706891Y439238D01*
D02*
G37*
G36*
X775193Y438702D02*
X773602D01*
X772131Y438093D01*
X771006Y436968D01*
X770397Y435498D01*
Y433906D01*
X771006Y432436D01*
X772131Y431311D01*
X773602Y430702D01*
X775193D01*
X776663Y431311D01*
X777788Y432436D01*
X778397Y433906D01*
Y435498D01*
X777788Y436968D01*
X776663Y438093D01*
X775193Y438702D01*
D02*
G37*
G36*
X697796Y432000D02*
X696204D01*
X694734Y431391D01*
X693609Y430266D01*
X693000Y428796D01*
Y427204D01*
X693609Y425734D01*
X694734Y424609D01*
X696204Y424000D01*
X697796D01*
X699266Y424609D01*
X700391Y425734D01*
X701000Y427204D01*
Y428796D01*
X700391Y430266D01*
X699266Y431391D01*
X697796Y432000D01*
D02*
G37*
G36*
X645532Y429651D02*
X643941D01*
X642470Y429042D01*
X641345Y427917D01*
X640736Y426447D01*
Y424855D01*
X641345Y423385D01*
X642470Y422260D01*
X643941Y421651D01*
X645532D01*
X647002Y422260D01*
X648127Y423385D01*
X648736Y424855D01*
Y426447D01*
X648127Y427917D01*
X647002Y429042D01*
X645532Y429651D01*
D02*
G37*
G36*
X781193Y420782D02*
X779601D01*
X778131Y420173D01*
X777006Y419048D01*
X776397Y417578D01*
Y415987D01*
X777006Y414516D01*
X778131Y413391D01*
X779601Y412782D01*
X781193D01*
X782663Y413391D01*
X783788Y414516D01*
X784397Y415987D01*
Y417578D01*
X783788Y419048D01*
X782663Y420173D01*
X781193Y420782D01*
D02*
G37*
G36*
X453594Y423000D02*
X451406D01*
X449384Y422163D01*
X447837Y420616D01*
X447000Y418594D01*
Y416406D01*
X447837Y414384D01*
X449384Y412837D01*
X451406Y412000D01*
X453594D01*
X455616Y412837D01*
X457163Y414384D01*
X458000Y416406D01*
Y418594D01*
X457163Y420616D01*
X455616Y422163D01*
X453594Y423000D01*
D02*
G37*
G36*
X503796Y417000D02*
X502204D01*
X500734Y416391D01*
X499609Y415266D01*
X499000Y413796D01*
Y412204D01*
X499609Y410734D01*
X500734Y409609D01*
X502204Y409000D01*
X503796D01*
X505266Y409609D01*
X506391Y410734D01*
X507000Y412204D01*
Y413796D01*
X506391Y415266D01*
X505266Y416391D01*
X503796Y417000D01*
D02*
G37*
G36*
X91193Y417175D02*
X88806D01*
X86601Y416262D01*
X84913Y414574D01*
X84000Y412369D01*
Y409982D01*
X84913Y407776D01*
X86601Y406089D01*
X88806Y405175D01*
X91193D01*
X93399Y406089D01*
X95086Y407776D01*
X96000Y409982D01*
Y412369D01*
X95086Y414574D01*
X93399Y416262D01*
X91193Y417175D01*
D02*
G37*
G36*
X71193D02*
X68807D01*
X66601Y416262D01*
X64914Y414574D01*
X64000Y412369D01*
Y409982D01*
X64914Y407776D01*
X66601Y406089D01*
X68807Y405175D01*
X71193D01*
X73399Y406089D01*
X75087Y407776D01*
X76000Y409982D01*
Y412369D01*
X75087Y414574D01*
X73399Y416262D01*
X71193Y417175D01*
D02*
G37*
G36*
X575796Y409000D02*
X574204D01*
X572734Y408391D01*
X571609Y407266D01*
X571000Y405796D01*
Y404204D01*
X571609Y402734D01*
X572734Y401609D01*
X574204Y401000D01*
X575796D01*
X577266Y401609D01*
X578391Y402734D01*
X579000Y404204D01*
Y405796D01*
X578391Y407266D01*
X577266Y408391D01*
X575796Y409000D01*
D02*
G37*
G36*
X603796Y403250D02*
X602204D01*
X600734Y402641D01*
X599609Y401516D01*
X599000Y400046D01*
Y398454D01*
X599609Y396984D01*
X600734Y395859D01*
X602204Y395250D01*
X603796D01*
X605266Y395859D01*
X606391Y396984D01*
X607000Y398454D01*
Y400046D01*
X606391Y401516D01*
X605266Y402641D01*
X603796Y403250D01*
D02*
G37*
G36*
X91193Y397175D02*
X88806D01*
X86601Y396261D01*
X84913Y394574D01*
X84000Y392368D01*
Y389981D01*
X84913Y387776D01*
X86601Y386088D01*
X88806Y385175D01*
X91193D01*
X93399Y386088D01*
X95086Y387776D01*
X96000Y389981D01*
Y392368D01*
X95086Y394574D01*
X93399Y396261D01*
X91193Y397175D01*
D02*
G37*
G36*
X410796Y379000D02*
X409204D01*
X407734Y378391D01*
X406609Y377266D01*
X406000Y375796D01*
Y374204D01*
X406609Y372734D01*
X407734Y371609D01*
X409204Y371000D01*
X410796D01*
X412266Y371609D01*
X413391Y372734D01*
X414000Y374204D01*
Y375796D01*
X413391Y377266D01*
X412266Y378391D01*
X410796Y379000D01*
D02*
G37*
G36*
X715796Y375000D02*
X714204D01*
X712734Y374391D01*
X711609Y373266D01*
X711000Y371796D01*
Y370204D01*
X711609Y368734D01*
X712734Y367609D01*
X714204Y367000D01*
X715796D01*
X716652Y367355D01*
X717983Y367459D01*
X719108Y366334D01*
X720578Y365725D01*
X722169D01*
X723640Y366334D01*
X724765Y367459D01*
X725374Y368930D01*
Y370521D01*
X724765Y371991D01*
X723640Y373116D01*
X722169Y373725D01*
X720578D01*
X719722Y373371D01*
X718391Y373266D01*
X717266Y374391D01*
X715796Y375000D01*
D02*
G37*
G36*
X91193Y377175D02*
X88806D01*
X86601Y376261D01*
X84913Y374574D01*
X84000Y372368D01*
Y369981D01*
X84913Y367776D01*
X86601Y366088D01*
X88806Y365175D01*
X91193D01*
X93399Y366088D01*
X95086Y367776D01*
X96000Y369981D01*
Y372368D01*
X95086Y374574D01*
X93399Y376261D01*
X91193Y377175D01*
D02*
G37*
G36*
X681362Y354975D02*
X679770D01*
X678300Y354366D01*
X677175Y353240D01*
X676566Y351770D01*
Y350179D01*
X677175Y348709D01*
X678300Y347584D01*
X679770Y346975D01*
X681362D01*
X682832Y347584D01*
X683957Y348709D01*
X684566Y350179D01*
Y351770D01*
X683957Y353240D01*
X682832Y354366D01*
X681362Y354975D01*
D02*
G37*
G36*
X605796Y340000D02*
X604204D01*
X602734Y339391D01*
X601609Y338266D01*
X601000Y336796D01*
Y335204D01*
X601609Y333734D01*
X602734Y332609D01*
X604204Y332000D01*
X605796D01*
X607266Y332609D01*
X608391Y333734D01*
X609000Y335204D01*
Y336796D01*
X608391Y338266D01*
X607266Y339391D01*
X605796Y340000D01*
D02*
G37*
G36*
X391796Y301000D02*
X390204D01*
X388734Y300391D01*
X387609Y299266D01*
X387000Y297796D01*
Y296204D01*
X387609Y294734D01*
X388734Y293609D01*
X390204Y293000D01*
X391796D01*
X393266Y293609D01*
X394391Y294734D01*
X395000Y296204D01*
Y297796D01*
X394391Y299266D01*
X393266Y300391D01*
X391796Y301000D01*
D02*
G37*
G36*
X845350Y116088D02*
X731350D01*
X729594Y115739D01*
X728106Y114744D01*
X727111Y113256D01*
X726762Y111500D01*
Y97500D01*
X727111Y95744D01*
X728106Y94256D01*
X729594Y93261D01*
X731350Y92912D01*
X845350D01*
X847106Y93261D01*
X848594Y94256D01*
X849589Y95744D01*
X849938Y97500D01*
Y111500D01*
X849589Y113256D01*
X848594Y114744D01*
X847106Y115739D01*
X845350Y116088D01*
D02*
G37*
G36*
X620350D02*
X506350D01*
X504594Y115739D01*
X503106Y114744D01*
X502111Y113256D01*
X501762Y111500D01*
Y97500D01*
X502111Y95744D01*
X503106Y94256D01*
X504594Y93261D01*
X506350Y92912D01*
X620350D01*
X622106Y93261D01*
X623594Y94256D01*
X624589Y95744D01*
X624938Y97500D01*
Y111500D01*
X624589Y113256D01*
X623594Y114744D01*
X622106Y115739D01*
X620350Y116088D01*
D02*
G37*
G36*
X395350D02*
X281350D01*
X279594Y115739D01*
X278106Y114744D01*
X277111Y113256D01*
X276762Y111500D01*
Y97500D01*
X277111Y95744D01*
X278106Y94256D01*
X279594Y93261D01*
X281350Y92912D01*
X395350D01*
X397106Y93261D01*
X398594Y94256D01*
X399589Y95744D01*
X399938Y97500D01*
Y111500D01*
X399589Y113256D01*
X398594Y114744D01*
X397106Y115739D01*
X395350Y116088D01*
D02*
G37*
G36*
X170350D02*
X56350D01*
X54594Y115739D01*
X53106Y114744D01*
X52111Y113256D01*
X51762Y111500D01*
Y97500D01*
X52111Y95744D01*
X53106Y94256D01*
X54594Y93261D01*
X56350Y92912D01*
X170350D01*
X172106Y93261D01*
X173594Y94256D01*
X174589Y95744D01*
X174938Y97500D01*
Y111500D01*
X174589Y113256D01*
X173594Y114744D01*
X172106Y115739D01*
X170350Y116088D01*
D02*
G37*
%LPD*%
D106*
X788350Y834500D02*
D03*
X563350Y104500D02*
D03*
X788350D02*
D03*
X338350D02*
D03*
Y834500D02*
D03*
X113350Y104500D02*
D03*
Y834500D02*
D03*
X563350D02*
D03*
D107*
X452500Y530000D02*
D03*
Y447500D02*
D03*
Y500000D02*
D03*
D108*
X675850Y680000D02*
D03*
X225850Y259500D02*
D03*
X450850D02*
D03*
X675850D02*
D03*
X450850Y680000D02*
D03*
X225850D02*
D03*
X850000Y50000D02*
D03*
X50000D02*
D03*
X88900Y908100D02*
D03*
X825500D02*
D03*
D109*
X70000Y371175D02*
D03*
Y391175D02*
D03*
Y431175D02*
D03*
X90000D02*
D03*
X70000Y491175D02*
D03*
X90000D02*
D03*
X70000Y511175D02*
D03*
X90000D02*
D03*
D110*
X372256Y464189D02*
D03*
X367385Y458472D02*
D03*
X325532Y532500D02*
D03*
X323704Y515637D02*
D03*
X417465Y487157D02*
D03*
X844750Y612000D02*
D03*
X750000Y575000D02*
D03*
Y565000D02*
D03*
Y555000D02*
D03*
X760000Y565000D02*
D03*
Y575000D02*
D03*
X770000D02*
D03*
X815573Y785570D02*
D03*
X815514Y792070D02*
D03*
X839501Y633741D02*
D03*
X816125Y646125D02*
D03*
X805952Y482642D02*
D03*
X734295Y480671D02*
D03*
X680566Y350975D02*
D03*
X605000Y336000D02*
D03*
X603000Y399250D02*
D03*
X644736Y425651D02*
D03*
X575000Y405000D02*
D03*
X688137Y494716D02*
D03*
X774346Y454023D02*
D03*
X780397Y416782D02*
D03*
X774397Y434702D02*
D03*
X567430Y607177D02*
D03*
X731250Y771250D02*
D03*
X370727Y477103D02*
D03*
X374279Y471460D02*
D03*
X523000Y539000D02*
D03*
X51000Y696000D02*
D03*
X280940Y599033D02*
D03*
X280750Y584000D02*
D03*
X239000Y546250D02*
D03*
Y556500D02*
D03*
Y566500D02*
D03*
X249000Y566750D02*
D03*
X239000Y535750D02*
D03*
X293141Y470438D02*
D03*
X337500Y463750D02*
D03*
Y470750D02*
D03*
Y477750D02*
D03*
X325848Y443730D02*
D03*
X334547Y499183D02*
D03*
X328750Y477990D02*
D03*
X322672D02*
D03*
X220000Y495000D02*
D03*
X240000D02*
D03*
X230000D02*
D03*
X322672Y463010D02*
D03*
X328750D02*
D03*
X230000Y446000D02*
D03*
X240000D02*
D03*
X220000D02*
D03*
X332436Y441959D02*
D03*
X303000Y436000D02*
D03*
X357750Y491750D02*
D03*
X443000Y145000D02*
D03*
X433000D02*
D03*
Y135000D02*
D03*
Y125000D02*
D03*
X443000D02*
D03*
Y135000D02*
D03*
X433000Y115000D02*
D03*
Y105000D02*
D03*
X443000D02*
D03*
Y115000D02*
D03*
X423000D02*
D03*
X413000D02*
D03*
Y105000D02*
D03*
X423000D02*
D03*
Y125000D02*
D03*
X413000D02*
D03*
Y145000D02*
D03*
X423000D02*
D03*
X413000Y135000D02*
D03*
X423000D02*
D03*
X292000Y588000D02*
D03*
X269000Y526000D02*
D03*
X259000D02*
D03*
X249000Y516000D02*
D03*
X239000D02*
D03*
X249000Y526000D02*
D03*
X239000D02*
D03*
X229000D02*
D03*
X757000Y468000D02*
D03*
X503000Y413000D02*
D03*
X360000Y555000D02*
D03*
X350000D02*
D03*
X360000Y565000D02*
D03*
X562000Y457000D02*
D03*
X354000Y523000D02*
D03*
X314000Y527000D02*
D03*
X391000Y297000D02*
D03*
X410000Y375000D02*
D03*
X367750Y378000D02*
D03*
X233750Y412250D02*
D03*
X243750D02*
D03*
Y372250D02*
D03*
X233750D02*
D03*
X243750Y382250D02*
D03*
X233750D02*
D03*
Y392250D02*
D03*
X243750D02*
D03*
Y402250D02*
D03*
X233750D02*
D03*
Y362250D02*
D03*
X243750D02*
D03*
X357750Y388000D02*
D03*
X367750D02*
D03*
X357750Y398000D02*
D03*
X367750D02*
D03*
Y408000D02*
D03*
X357750D02*
D03*
Y418000D02*
D03*
X367750D02*
D03*
X357750Y378000D02*
D03*
X350000Y545000D02*
D03*
X360000D02*
D03*
Y585000D02*
D03*
X350000D02*
D03*
Y575000D02*
D03*
X360000D02*
D03*
X350000Y565000D02*
D03*
X155000Y650000D02*
D03*
Y640000D02*
D03*
X165000Y650000D02*
D03*
Y640000D02*
D03*
X145000Y650000D02*
D03*
Y640000D02*
D03*
X65000Y650000D02*
D03*
Y640000D02*
D03*
X75000Y650000D02*
D03*
Y640000D02*
D03*
X95000D02*
D03*
Y650000D02*
D03*
X85000Y640000D02*
D03*
Y650000D02*
D03*
X115000Y640000D02*
D03*
Y650000D02*
D03*
X105000Y640000D02*
D03*
Y650000D02*
D03*
X135000Y640000D02*
D03*
Y650000D02*
D03*
X125000Y640000D02*
D03*
Y650000D02*
D03*
X706095Y435238D02*
D03*
X697000Y428000D02*
D03*
X687000Y447000D02*
D03*
X749000Y462000D02*
D03*
X356000Y506000D02*
D03*
X760000Y555000D02*
D03*
X770000Y555000D02*
D03*
Y565000D02*
D03*
X790000Y555000D02*
D03*
X780000D02*
D03*
X790000Y575000D02*
D03*
X780000D02*
D03*
X790000Y565000D02*
D03*
X780000D02*
D03*
X800000Y555000D02*
D03*
Y565000D02*
D03*
Y575000D02*
D03*
X820000Y555000D02*
D03*
X810000D02*
D03*
X820000Y575000D02*
D03*
X810000D02*
D03*
X820000Y565000D02*
D03*
X810000D02*
D03*
X810000Y535000D02*
D03*
Y525000D02*
D03*
X820000Y535000D02*
D03*
Y525000D02*
D03*
X790000Y535000D02*
D03*
Y525000D02*
D03*
X800000Y535000D02*
D03*
Y525000D02*
D03*
X770000Y535000D02*
D03*
Y525000D02*
D03*
X780000Y535000D02*
D03*
Y525000D02*
D03*
X760000D02*
D03*
Y535000D02*
D03*
X750000Y525000D02*
D03*
Y535000D02*
D03*
X820000Y545000D02*
D03*
X810000D02*
D03*
X800000D02*
D03*
X790000D02*
D03*
X780000D02*
D03*
X770000D02*
D03*
X760000D02*
D03*
X750000D02*
D03*
X532250Y388000D02*
D03*
X410000Y497500D02*
D03*
X721374Y369725D02*
D03*
X715000Y371000D02*
D03*
X766000Y390000D02*
D03*
X324947Y499749D02*
D03*
X333047Y506874D02*
D03*
X866260Y33737D02*
D03*
X833740D02*
D03*
Y66263D02*
D03*
X866260D02*
D03*
X850000Y73000D02*
D03*
X827000Y50000D02*
D03*
X850000Y27000D02*
D03*
X873000Y50000D02*
D03*
X66260Y33737D02*
D03*
X33740D02*
D03*
Y66263D02*
D03*
X66260D02*
D03*
X50000Y73000D02*
D03*
X27000Y50000D02*
D03*
X50000Y27000D02*
D03*
X73000Y50000D02*
D03*
X105160Y891836D02*
D03*
X72640D02*
D03*
Y924363D02*
D03*
X105160D02*
D03*
X88900Y931100D02*
D03*
X65900Y908100D02*
D03*
X88900Y885100D02*
D03*
X111900Y908100D02*
D03*
X841760Y891836D02*
D03*
X809240D02*
D03*
Y924363D02*
D03*
X841760D02*
D03*
X825500Y931100D02*
D03*
X802500Y908100D02*
D03*
X825500Y885100D02*
D03*
X848500Y908100D02*
D03*
D111*
X450850Y656500D02*
D03*
X473850Y679500D02*
D03*
X450850Y702500D02*
D03*
X427850Y679500D02*
D03*
X434586Y663240D02*
D03*
Y695760D02*
D03*
X467113D02*
D03*
Y663240D02*
D03*
X675850Y656500D02*
D03*
X698850Y679500D02*
D03*
X675850Y702500D02*
D03*
X652850Y679500D02*
D03*
X659586Y663240D02*
D03*
Y695760D02*
D03*
X692113D02*
D03*
Y663240D02*
D03*
X675850Y236000D02*
D03*
X698850Y259000D02*
D03*
X675850Y282000D02*
D03*
X652850Y259000D02*
D03*
X659586Y242740D02*
D03*
Y275260D02*
D03*
X692113D02*
D03*
Y242740D02*
D03*
X450850Y236000D02*
D03*
X473850Y259000D02*
D03*
X450850Y282000D02*
D03*
X427850Y259000D02*
D03*
X434586Y242740D02*
D03*
Y275260D02*
D03*
X467113D02*
D03*
Y242740D02*
D03*
X225850Y236000D02*
D03*
X248850Y259000D02*
D03*
X225850Y282000D02*
D03*
X202850Y259000D02*
D03*
X209587Y242740D02*
D03*
Y275260D02*
D03*
X242113D02*
D03*
Y242740D02*
D03*
X225850Y656500D02*
D03*
X248850Y679500D02*
D03*
X225850Y702500D02*
D03*
X202850Y679500D02*
D03*
X209587Y663240D02*
D03*
Y695760D02*
D03*
X242113D02*
D03*
Y663240D02*
D03*
M02*
