G04*
G04 #@! TF.GenerationSoftware,Altium Limited,Altium Designer,26.2.0 (7)*
G04*
G04 Layer_Color=8388736*
%FSLAX44Y44*%
%MOMM*%
G71*
G04*
G04 #@! TF.SameCoordinates,705C9359-2560-42EC-9C9A-8D9864D1FE1B*
G04*
G04*
G04 #@! TF.FilePolarity,Negative*
G04*
G01*
G75*
%ADD49R,1.0500X1.4500*%
%ADD50R,1.0000X1.0750*%
%ADD51R,2.2000X3.1000*%
%ADD52R,0.9000X1.7000*%
%ADD53R,0.7000X0.7000*%
%ADD54R,0.2900X0.6900*%
%ADD55R,0.2900X0.7700*%
%ADD56R,3.4000X2.9500*%
%ADD57R,1.0900X0.2900*%
%ADD58R,1.6500X2.5500*%
%ADD59R,0.6500X0.9000*%
%ADD60R,1.7000X0.9000*%
%ADD61R,1.2500X1.9000*%
%ADD62R,1.6500X0.5000*%
%ADD63R,1.0500X1.2500*%
%ADD64R,1.2500X1.0500*%
%ADD65R,2.5500X1.6500*%
%ADD66R,0.6900X0.2900*%
%ADD67R,1.0400X0.2900*%
%ADD68R,0.2900X0.7400*%
%ADD69R,0.2900X0.7900*%
%ADD70R,0.9000X0.6500*%
%ADD71R,1.0750X1.0000*%
G04:AMPARAMS|DCode=72|XSize=0.39mm|YSize=2.49mm|CornerRadius=0.06mm|HoleSize=0mm|Usage=FLASHONLY|Rotation=90.000|XOffset=0mm|YOffset=0mm|HoleType=Round|Shape=RoundedRectangle|*
%AMROUNDEDRECTD72*
21,1,0.3900,2.3700,0,0,90.0*
21,1,0.2700,2.4900,0,0,90.0*
1,1,0.1200,1.1850,0.1350*
1,1,0.1200,1.1850,-0.1350*
1,1,0.1200,-1.1850,-0.1350*
1,1,0.1200,-1.1850,0.1350*
%
%ADD72ROUNDEDRECTD72*%
%ADD73R,3.1000X2.2000*%
G04:AMPARAMS|DCode=74|XSize=0.69mm|YSize=0.34mm|CornerRadius=0.0575mm|HoleSize=0mm|Usage=FLASHONLY|Rotation=270.000|XOffset=0mm|YOffset=0mm|HoleType=Round|Shape=RoundedRectangle|*
%AMROUNDEDRECTD74*
21,1,0.6900,0.2250,0,0,270.0*
21,1,0.5750,0.3400,0,0,270.0*
1,1,0.1150,-0.1125,-0.2875*
1,1,0.1150,-0.1125,0.2875*
1,1,0.1150,0.1125,0.2875*
1,1,0.1150,0.1125,-0.2875*
%
%ADD74ROUNDEDRECTD74*%
%ADD75R,0.5000X0.6500*%
%ADD76R,1.4500X1.0500*%
%ADD77R,0.6500X1.0750*%
%ADD78R,1.2500X1.7000*%
%ADD79R,1.7000X1.2500*%
%ADD80R,0.8050X0.8250*%
%ADD81R,4.4450X4.6600*%
%ADD82R,0.9000X0.8250*%
%ADD83R,0.6500X0.5000*%
%ADD84C,6.1500*%
G04:AMPARAMS|DCode=85|XSize=2.15mm|YSize=12.15mm|CornerRadius=0.375mm|HoleSize=0mm|Usage=FLASHONLY|Rotation=90.000|XOffset=0mm|YOffset=0mm|HoleType=Round|Shape=RoundedRectangle|*
%AMROUNDEDRECTD85*
21,1,2.1500,11.4000,0,0,90.0*
21,1,1.4000,12.1500,0,0,90.0*
1,1,0.7500,5.7000,0.7000*
1,1,0.7500,5.7000,-0.7000*
1,1,0.7500,-5.7000,-0.7000*
1,1,0.7500,-5.7000,0.7000*
%
%ADD85ROUNDEDRECTD85*%
%ADD86C,1.3500*%
%ADD87C,1.6000*%
%ADD88C,0.7500*%
%ADD89C,0.6500*%
G36*
X828200Y695725D02*
X782100D01*
Y742275D01*
X790100D01*
Y734275D01*
X794800D01*
Y742275D01*
X802800D01*
Y734275D01*
X807500D01*
Y742275D01*
X815500D01*
Y734275D01*
X820200D01*
Y742275D01*
X828200D01*
Y695725D01*
D02*
G37*
G36*
X263088Y597693D02*
X263173Y597668D01*
X263251Y597626D01*
X263320Y597570D01*
X263376Y597501D01*
X263418Y597423D01*
X263444Y597338D01*
X263452Y597250D01*
Y594202D01*
X266500Y594202D01*
X266588Y594193D01*
X266673Y594168D01*
X266751Y594126D01*
X266820Y594070D01*
X266876Y594001D01*
X266918Y593923D01*
X266943Y593838D01*
X266952Y593750D01*
Y591250D01*
X266943Y591162D01*
X266918Y591077D01*
X266876Y590999D01*
X266820Y590930D01*
X266751Y590874D01*
X266673Y590832D01*
X266588Y590807D01*
X266500Y590798D01*
X260000D01*
X259912Y590807D01*
X259827Y590832D01*
X259749Y590874D01*
X259680Y590930D01*
X259624Y590999D01*
X259582Y591077D01*
X259557Y591162D01*
X259548Y591250D01*
Y597250D01*
X259557Y597338D01*
X259582Y597423D01*
X259624Y597501D01*
X259680Y597570D01*
X259749Y597626D01*
X259827Y597668D01*
X259912Y597693D01*
X260000Y597702D01*
X263000D01*
X263088Y597693D01*
D02*
G37*
G36*
X249088D02*
X249173Y597668D01*
X249251Y597626D01*
X249320Y597570D01*
X249376Y597501D01*
X249418Y597423D01*
X249443Y597338D01*
X249452Y597250D01*
Y591250D01*
X249443Y591162D01*
X249418Y591077D01*
X249376Y590999D01*
X249320Y590930D01*
X249251Y590874D01*
X249173Y590832D01*
X249088Y590807D01*
X249000Y590798D01*
X242500D01*
X242412Y590807D01*
X242327Y590832D01*
X242249Y590874D01*
X242180Y590930D01*
X242124Y590999D01*
X242082Y591077D01*
X242056Y591162D01*
X242048Y591250D01*
Y593750D01*
X242056Y593838D01*
X242082Y593923D01*
X242124Y594001D01*
X242180Y594070D01*
X242249Y594126D01*
X242327Y594168D01*
X242412Y594193D01*
X242500Y594202D01*
X245548Y594202D01*
Y597250D01*
X245556Y597338D01*
X245582Y597423D01*
X245624Y597501D01*
X245680Y597570D01*
X245749Y597626D01*
X245827Y597668D01*
X245912Y597693D01*
X246000Y597702D01*
X249000D01*
X249088Y597693D01*
D02*
G37*
G36*
X828200Y586275D02*
X820200D01*
Y594275D01*
X815500D01*
Y586275D01*
X807500D01*
Y594275D01*
X802800D01*
Y586275D01*
X794800D01*
Y594275D01*
X790100D01*
Y586275D01*
X782100D01*
Y632825D01*
X828200D01*
Y586275D01*
D02*
G37*
G36*
X266588Y579693D02*
X266673Y579668D01*
X266751Y579626D01*
X266820Y579570D01*
X266876Y579501D01*
X266918Y579423D01*
X266943Y579338D01*
X266952Y579250D01*
Y576750D01*
X266943Y576662D01*
X266918Y576577D01*
X266876Y576499D01*
X266820Y576430D01*
X266751Y576374D01*
X266673Y576332D01*
X266588Y576306D01*
X266500Y576298D01*
X263452Y576298D01*
Y573250D01*
X263444Y573162D01*
X263418Y573077D01*
X263376Y572999D01*
X263320Y572930D01*
X263251Y572874D01*
X263173Y572832D01*
X263088Y572807D01*
X263000Y572798D01*
X260000D01*
X259912Y572807D01*
X259827Y572832D01*
X259749Y572874D01*
X259680Y572930D01*
X259624Y572999D01*
X259582Y573077D01*
X259557Y573162D01*
X259548Y573250D01*
Y579250D01*
X259557Y579338D01*
X259582Y579423D01*
X259624Y579501D01*
X259680Y579570D01*
X259749Y579626D01*
X259827Y579668D01*
X259912Y579693D01*
X260000Y579702D01*
X266500D01*
X266588Y579693D01*
D02*
G37*
G36*
X249088D02*
X249173Y579668D01*
X249251Y579626D01*
X249320Y579570D01*
X249376Y579501D01*
X249418Y579423D01*
X249443Y579338D01*
X249452Y579250D01*
Y573250D01*
X249443Y573162D01*
X249418Y573077D01*
X249376Y572999D01*
X249320Y572930D01*
X249251Y572874D01*
X249173Y572832D01*
X249088Y572807D01*
X249000Y572798D01*
X246000D01*
X245912Y572807D01*
X245827Y572832D01*
X245749Y572874D01*
X245680Y572930D01*
X245624Y572999D01*
X245582Y573077D01*
X245556Y573162D01*
X245548Y573250D01*
Y576298D01*
X242500Y576298D01*
X242412Y576306D01*
X242327Y576332D01*
X242249Y576374D01*
X242180Y576430D01*
X242124Y576499D01*
X242082Y576577D01*
X242056Y576662D01*
X242048Y576750D01*
Y579250D01*
X242056Y579338D01*
X242082Y579423D01*
X242124Y579501D01*
X242180Y579570D01*
X242249Y579626D01*
X242327Y579668D01*
X242412Y579693D01*
X242500Y579702D01*
X249000D01*
X249088Y579693D01*
D02*
G37*
G36*
X346838Y492943D02*
X346923Y492918D01*
X347001Y492876D01*
X347070Y492820D01*
X347126Y492751D01*
X347168Y492673D01*
X347193Y492588D01*
X347202Y492500D01*
Y485952D01*
X351750D01*
X351838Y485943D01*
X351923Y485918D01*
X352001Y485876D01*
X352070Y485820D01*
X352126Y485751D01*
X352168Y485673D01*
X352193Y485588D01*
X352202Y485500D01*
Y483500D01*
X352193Y483412D01*
X352168Y483327D01*
X352126Y483249D01*
X352070Y483180D01*
X352001Y483124D01*
X351923Y483082D01*
X351838Y483056D01*
X351750Y483048D01*
X344750D01*
X344662Y483056D01*
X344577Y483082D01*
X344499Y483124D01*
X344430Y483180D01*
X344374Y483249D01*
X344332Y483327D01*
X344306Y483412D01*
X344298Y483500D01*
Y492500D01*
X344306Y492588D01*
X344332Y492673D01*
X344374Y492751D01*
X344430Y492820D01*
X344499Y492876D01*
X344577Y492918D01*
X344662Y492943D01*
X344750Y492952D01*
X346750D01*
X346838Y492943D01*
D02*
G37*
G36*
X314838D02*
X314923Y492918D01*
X315001Y492876D01*
X315070Y492820D01*
X315126Y492751D01*
X315168Y492673D01*
X315194Y492588D01*
X315202Y492500D01*
Y483000D01*
X315194Y482912D01*
X315168Y482827D01*
X315126Y482749D01*
X315070Y482680D01*
X315001Y482624D01*
X314923Y482582D01*
X314838Y482556D01*
X314750Y482548D01*
X307750D01*
X307662Y482556D01*
X307577Y482582D01*
X307499Y482624D01*
X307430Y482680D01*
X307374Y482749D01*
X307332Y482827D01*
X307306Y482912D01*
X307298Y483000D01*
Y485000D01*
X307306Y485088D01*
X307332Y485173D01*
X307374Y485251D01*
X307430Y485320D01*
X307499Y485376D01*
X307577Y485418D01*
X307662Y485443D01*
X307750Y485452D01*
X312298D01*
Y492500D01*
X312306Y492588D01*
X312332Y492673D01*
X312374Y492751D01*
X312430Y492820D01*
X312499Y492876D01*
X312577Y492918D01*
X312662Y492943D01*
X312750Y492952D01*
X314750D01*
X314838Y492943D01*
D02*
G37*
G36*
X351838Y457943D02*
X351923Y457918D01*
X352001Y457876D01*
X352070Y457820D01*
X352126Y457751D01*
X352168Y457673D01*
X352193Y457588D01*
X352202Y457500D01*
Y455500D01*
X352193Y455412D01*
X352168Y455327D01*
X352126Y455249D01*
X352070Y455180D01*
X352001Y455124D01*
X351923Y455082D01*
X351838Y455056D01*
X351750Y455048D01*
X347202D01*
Y448500D01*
X347193Y448412D01*
X347168Y448327D01*
X347126Y448249D01*
X347070Y448180D01*
X347001Y448124D01*
X346923Y448082D01*
X346838Y448056D01*
X346750Y448048D01*
X344750D01*
X344662Y448056D01*
X344577Y448082D01*
X344499Y448124D01*
X344430Y448180D01*
X344374Y448249D01*
X344332Y448327D01*
X344306Y448412D01*
X344298Y448500D01*
Y457500D01*
X344306Y457588D01*
X344332Y457673D01*
X344374Y457751D01*
X344430Y457820D01*
X344499Y457876D01*
X344577Y457918D01*
X344662Y457943D01*
X344750Y457952D01*
X351750D01*
X351838Y457943D01*
D02*
G37*
G36*
X314838Y458443D02*
X314923Y458418D01*
X315001Y458376D01*
X315070Y458320D01*
X315126Y458251D01*
X315168Y458173D01*
X315194Y458088D01*
X315202Y458000D01*
Y448500D01*
X315194Y448412D01*
X315168Y448327D01*
X315126Y448249D01*
X315070Y448180D01*
X315001Y448124D01*
X314923Y448082D01*
X314838Y448056D01*
X314750Y448048D01*
X312750D01*
X312662Y448056D01*
X312577Y448082D01*
X312499Y448124D01*
X312430Y448180D01*
X312374Y448249D01*
X312332Y448327D01*
X312306Y448412D01*
X312298Y448500D01*
Y455548D01*
X307750D01*
X307662Y455556D01*
X307577Y455582D01*
X307499Y455624D01*
X307430Y455680D01*
X307374Y455749D01*
X307332Y455827D01*
X307306Y455912D01*
X307298Y456000D01*
Y458000D01*
X307306Y458088D01*
X307332Y458173D01*
X307374Y458251D01*
X307430Y458320D01*
X307499Y458376D01*
X307577Y458418D01*
X307662Y458443D01*
X307750Y458452D01*
X314750D01*
X314838Y458443D01*
D02*
G37*
D49*
X83500Y696000D02*
D03*
X62500D02*
D03*
X564005Y625000D02*
D03*
X362696Y523000D02*
D03*
X772500Y416500D02*
D03*
X751500D02*
D03*
X543005Y625000D02*
D03*
X408750Y487000D02*
D03*
X341696Y523000D02*
D03*
X387750Y507250D02*
D03*
X408750D02*
D03*
X387750Y487000D02*
D03*
D50*
X83746Y677997D02*
D03*
X68256D02*
D03*
X571755Y457000D02*
D03*
X677745Y511750D02*
D03*
X572005Y522000D02*
D03*
X571255Y424500D02*
D03*
X557750Y607000D02*
D03*
X766495Y434500D02*
D03*
X571505Y374000D02*
D03*
X571260Y489500D02*
D03*
X662255Y511750D02*
D03*
X587495Y522000D02*
D03*
X587245Y457000D02*
D03*
X586750Y489500D02*
D03*
X586745Y424500D02*
D03*
X751005Y434500D02*
D03*
X542260Y607000D02*
D03*
X765990Y398250D02*
D03*
X750500D02*
D03*
X586995Y374000D02*
D03*
X514000Y369125D02*
D03*
X498510D02*
D03*
X402990Y440000D02*
D03*
X387500D02*
D03*
D51*
X400350Y911000D02*
D03*
X501350D02*
D03*
X507600Y48000D02*
D03*
X394100D02*
D03*
D52*
X425850Y882000D02*
D03*
X438350D02*
D03*
X450850D02*
D03*
X463350D02*
D03*
X475850D02*
D03*
X482100Y77000D02*
D03*
X469600D02*
D03*
X457100D02*
D03*
X444600D02*
D03*
X432100D02*
D03*
X419600D02*
D03*
D53*
X766965Y648725D02*
D03*
X766977Y672725D02*
D03*
D54*
X325750Y451500D02*
D03*
X321750Y489500D02*
D03*
X317750D02*
D03*
X329750Y451500D02*
D03*
Y489500D02*
D03*
X337750Y451500D02*
D03*
X333750D02*
D03*
X341750D02*
D03*
X321750D02*
D03*
X317750D02*
D03*
X325750Y489500D02*
D03*
D55*
X333750Y489125D02*
D03*
D56*
X170000Y500250D02*
D03*
Y440750D02*
D03*
D57*
X312750Y475000D02*
D03*
Y466000D02*
D03*
Y479500D02*
D03*
Y470500D02*
D03*
D58*
X308000Y549000D02*
D03*
Y580000D02*
D03*
X292012Y508921D02*
D03*
X336000Y580000D02*
D03*
X264012Y508921D02*
D03*
X344000Y406000D02*
D03*
Y375000D02*
D03*
X257750Y366250D02*
D03*
Y397250D02*
D03*
Y428250D02*
D03*
X336000Y549000D02*
D03*
X316000Y406000D02*
D03*
Y375000D02*
D03*
X285750Y428250D02*
D03*
Y397250D02*
D03*
Y366250D02*
D03*
D59*
X312500Y508000D02*
D03*
X338000Y425000D02*
D03*
X350696Y506000D02*
D03*
X323500Y508000D02*
D03*
X327000Y425000D02*
D03*
X339696Y506000D02*
D03*
D60*
X824000Y479925D02*
D03*
Y442425D02*
D03*
Y454925D02*
D03*
Y467425D02*
D03*
D61*
X789498Y788750D02*
D03*
X803498D02*
D03*
Y761250D02*
D03*
X789498D02*
D03*
D62*
X722250Y474210D02*
D03*
Y480814D02*
D03*
X665750Y428744D02*
D03*
Y409186D02*
D03*
Y415790D02*
D03*
Y422140D02*
D03*
Y435348D02*
D03*
Y441698D02*
D03*
Y448302D02*
D03*
Y454652D02*
D03*
Y461256D02*
D03*
Y467860D02*
D03*
Y474210D02*
D03*
Y480814D02*
D03*
X722250Y461256D02*
D03*
Y467860D02*
D03*
Y435348D02*
D03*
Y428744D02*
D03*
Y422140D02*
D03*
Y415790D02*
D03*
Y409186D02*
D03*
Y448302D02*
D03*
Y441698D02*
D03*
Y454652D02*
D03*
D63*
X767000Y454000D02*
D03*
X680500Y495250D02*
D03*
X662500D02*
D03*
X749000Y454000D02*
D03*
X629250Y370250D02*
D03*
X647250D02*
D03*
X387500Y457500D02*
D03*
X405500D02*
D03*
D64*
X603000Y406500D02*
D03*
Y392000D02*
D03*
X662750Y336000D02*
D03*
X614250D02*
D03*
X603000Y522000D02*
D03*
Y471500D02*
D03*
Y457000D02*
D03*
Y489500D02*
D03*
Y504000D02*
D03*
Y439000D02*
D03*
Y424500D02*
D03*
X662750Y354000D02*
D03*
X614250D02*
D03*
X603000Y374000D02*
D03*
D65*
X67500Y589750D02*
D03*
Y617750D02*
D03*
X191250Y589750D02*
D03*
Y617750D02*
D03*
X98250D02*
D03*
X129250D02*
D03*
X160250D02*
D03*
X98250Y589750D02*
D03*
X129250D02*
D03*
X160250D02*
D03*
D66*
X348750Y464500D02*
D03*
Y472500D02*
D03*
Y480500D02*
D03*
Y468500D02*
D03*
Y476500D02*
D03*
Y460500D02*
D03*
D67*
X312500Y461500D02*
D03*
D68*
X337750Y489275D02*
D03*
D69*
X341750Y489025D02*
D03*
D70*
X293000Y487000D02*
D03*
Y465000D02*
D03*
Y476000D02*
D03*
Y454000D02*
D03*
D71*
X275750Y609505D02*
D03*
X787000Y468255D02*
D03*
X841715Y649230D02*
D03*
Y664720D02*
D03*
X787000Y483745D02*
D03*
X234500Y625245D02*
D03*
Y609755D02*
D03*
X218000Y625245D02*
D03*
Y609755D02*
D03*
X748465Y683980D02*
D03*
Y699470D02*
D03*
X841715Y694970D02*
D03*
Y679480D02*
D03*
X630500Y338510D02*
D03*
Y354000D02*
D03*
X646500Y338505D02*
D03*
Y353995D02*
D03*
X748965Y653605D02*
D03*
Y669095D02*
D03*
X731965Y668845D02*
D03*
Y653355D02*
D03*
X259500Y624995D02*
D03*
Y609505D02*
D03*
X275750Y624995D02*
D03*
X249171Y537867D02*
D03*
Y553357D02*
D03*
D72*
X254500Y587750D02*
D03*
Y582750D02*
D03*
D73*
X853000Y505425D02*
D03*
Y416925D02*
D03*
D74*
X256750Y576250D02*
D03*
Y594250D02*
D03*
X252250D02*
D03*
Y576250D02*
D03*
D75*
X768715Y632475D02*
D03*
Y616975D02*
D03*
D76*
X472000Y499250D02*
D03*
Y520250D02*
D03*
X431000Y439500D02*
D03*
X475000Y420000D02*
D03*
Y441000D02*
D03*
X431000Y418500D02*
D03*
D77*
X786100Y679375D02*
D03*
X824200D02*
D03*
X798800D02*
D03*
X811500D02*
D03*
X824200Y649175D02*
D03*
X786100D02*
D03*
X811500D02*
D03*
X798800D02*
D03*
D78*
X499255Y387875D02*
D03*
X522255D02*
D03*
D79*
X268769Y559406D02*
D03*
Y536406D02*
D03*
X225750Y560500D02*
D03*
Y537500D02*
D03*
D80*
X505262Y310825D02*
D03*
Y323400D02*
D03*
Y336600D02*
D03*
Y349175D02*
D03*
X362238D02*
D03*
Y336600D02*
D03*
Y323400D02*
D03*
Y310825D02*
D03*
D81*
X480513Y330000D02*
D03*
X386987D02*
D03*
D82*
X449738Y349175D02*
D03*
Y336600D02*
D03*
Y323400D02*
D03*
Y310825D02*
D03*
X417762Y349175D02*
D03*
Y310825D02*
D03*
Y323400D02*
D03*
Y336600D02*
D03*
D83*
X422250Y370000D02*
D03*
X437750D02*
D03*
D84*
X675850Y680000D02*
D03*
X225850Y259500D02*
D03*
X450850D02*
D03*
X675850D02*
D03*
X450850Y680000D02*
D03*
X225850D02*
D03*
X850000Y50000D02*
D03*
X50000D02*
D03*
X88900Y908100D02*
D03*
X825500D02*
D03*
D85*
X563350Y104500D02*
D03*
X788350D02*
D03*
X338350D02*
D03*
Y834500D02*
D03*
X113350Y104500D02*
D03*
Y834500D02*
D03*
X788350D02*
D03*
X563350D02*
D03*
D86*
X452500Y530000D02*
D03*
Y417500D02*
D03*
Y447500D02*
D03*
Y500000D02*
D03*
D87*
X90000Y371175D02*
D03*
Y391175D02*
D03*
X70000Y411175D02*
D03*
X90000D02*
D03*
X70000Y451175D02*
D03*
X90000D02*
D03*
X70000Y471175D02*
D03*
X90000D02*
D03*
X70000Y531175D02*
D03*
X90000D02*
D03*
X70000Y551175D02*
D03*
X90000D02*
D03*
X70000Y371175D02*
D03*
Y391175D02*
D03*
Y431175D02*
D03*
X90000D02*
D03*
X70000Y491175D02*
D03*
X90000D02*
D03*
X70000Y511175D02*
D03*
X90000D02*
D03*
D88*
X450850Y656500D02*
D03*
X473850Y679500D02*
D03*
X450850Y702500D02*
D03*
X427850Y679500D02*
D03*
X434586Y663240D02*
D03*
Y695760D02*
D03*
X467113D02*
D03*
Y663240D02*
D03*
X675850Y656500D02*
D03*
X698850Y679500D02*
D03*
X675850Y702500D02*
D03*
X652850Y679500D02*
D03*
X659586Y663240D02*
D03*
Y695760D02*
D03*
X692113D02*
D03*
Y663240D02*
D03*
X675850Y236000D02*
D03*
X698850Y259000D02*
D03*
X675850Y282000D02*
D03*
X652850Y259000D02*
D03*
X659586Y242740D02*
D03*
Y275260D02*
D03*
X692113D02*
D03*
Y242740D02*
D03*
X450850Y236000D02*
D03*
X473850Y259000D02*
D03*
X450850Y282000D02*
D03*
X427850Y259000D02*
D03*
X434586Y242740D02*
D03*
Y275260D02*
D03*
X467113D02*
D03*
Y242740D02*
D03*
X225850Y236000D02*
D03*
X248850Y259000D02*
D03*
X225850Y282000D02*
D03*
X202850Y259000D02*
D03*
X209587Y242740D02*
D03*
Y275260D02*
D03*
X242113D02*
D03*
Y242740D02*
D03*
X225850Y656500D02*
D03*
X248850Y679500D02*
D03*
X225850Y702500D02*
D03*
X202850Y679500D02*
D03*
X209587Y663240D02*
D03*
Y695760D02*
D03*
X242113D02*
D03*
Y663240D02*
D03*
D89*
X866260Y33737D02*
D03*
X833740D02*
D03*
Y66263D02*
D03*
X866260D02*
D03*
X850000Y73000D02*
D03*
X827000Y50000D02*
D03*
X850000Y27000D02*
D03*
X873000Y50000D02*
D03*
X66260Y33737D02*
D03*
X33740D02*
D03*
Y66263D02*
D03*
X66260D02*
D03*
X50000Y73000D02*
D03*
X27000Y50000D02*
D03*
X50000Y27000D02*
D03*
X73000Y50000D02*
D03*
X105160Y891836D02*
D03*
X72640D02*
D03*
Y924363D02*
D03*
X105160D02*
D03*
X88900Y931100D02*
D03*
X65900Y908100D02*
D03*
X88900Y885100D02*
D03*
X111900Y908100D02*
D03*
X841760Y891836D02*
D03*
X809240D02*
D03*
Y924363D02*
D03*
X841760D02*
D03*
X825500Y931100D02*
D03*
X802500Y908100D02*
D03*
X825500Y885100D02*
D03*
X848500Y908100D02*
D03*
M02*
