G04*
G04 #@! TF.GenerationSoftware,Altium Limited,Altium Designer,26.2.0 (7)*
G04*
G04 Layer_Physical_Order=3*
G04 Layer_Color=6736896*
%FSLAX44Y44*%
%MOMM*%
G71*
G04*
G04 #@! TF.SameCoordinates,33BCE108-0E9A-4A5C-92EA-E60CA21C167F*
G04*
G04*
G04 #@! TF.FilePolarity,Positive*
G04*
G01*
G75*
%ADD11C,0.2500*%
%ADD12C,0.2540*%
%ADD126C,6.0000*%
%ADD128C,1.2000*%
%ADD129C,1.3000*%
%ADD132C,0.6000*%
%ADD133C,0.5000*%
G36*
X693659Y894111D02*
X693577Y893989D01*
X693505Y893849D01*
X693443Y893690D01*
X693390Y893512D01*
X693347Y893316D01*
X693313Y893102D01*
X693289Y892869D01*
X693270Y892347D01*
X690730D01*
X690725Y892617D01*
X690687Y893102D01*
X690653Y893316D01*
X690610Y893512D01*
X690557Y893690D01*
X690495Y893849D01*
X690423Y893989D01*
X690341Y894111D01*
X690250Y894215D01*
X693750D01*
X693659Y894111D01*
D02*
G37*
G36*
X621488Y893969D02*
X621378Y893880D01*
X621280Y893772D01*
X621193Y893643D01*
X621118Y893494D01*
X621054Y893325D01*
X621002Y893135D01*
X620961Y892926D01*
X620932Y892697D01*
X620915Y892447D01*
X620909Y892178D01*
X618369Y892719D01*
X618366Y892992D01*
X618317Y893698D01*
X618288Y893895D01*
X618210Y894231D01*
X618161Y894371D01*
X618106Y894491D01*
X618044Y894592D01*
X621488Y893969D01*
D02*
G37*
G36*
X284659Y869366D02*
X284577Y869244D01*
X284505Y869104D01*
X284443Y868945D01*
X284390Y868767D01*
X284347Y868571D01*
X284313Y868357D01*
X284289Y868124D01*
X284270Y867602D01*
X281730D01*
X281725Y867872D01*
X281687Y868357D01*
X281653Y868571D01*
X281610Y868767D01*
X281557Y868945D01*
X281495Y869104D01*
X281423Y869244D01*
X281341Y869366D01*
X281250Y869470D01*
X284750D01*
X284659Y869366D01*
D02*
G37*
G36*
X802259Y860122D02*
X802122Y860113D01*
X801978Y860085D01*
X801828Y860036D01*
X801671Y859968D01*
X801508Y859880D01*
X801339Y859772D01*
X801164Y859644D01*
X800982Y859496D01*
X800599Y859140D01*
X798803Y860936D01*
X798991Y861131D01*
X799306Y861501D01*
X799434Y861676D01*
X799542Y861845D01*
X799631Y862008D01*
X799699Y862165D01*
X799747Y862315D01*
X799776Y862459D01*
X799785Y862597D01*
X802259Y860122D01*
D02*
G37*
G36*
X429550Y818520D02*
X429412Y818512D01*
X429268Y818483D01*
X429118Y818435D01*
X428961Y818366D01*
X428798Y818278D01*
X428629Y818170D01*
X428454Y818042D01*
X428272Y817894D01*
X427889Y817539D01*
X426093Y819335D01*
X426281Y819529D01*
X426597Y819899D01*
X426725Y820075D01*
X426833Y820244D01*
X426921Y820407D01*
X426989Y820563D01*
X427038Y820714D01*
X427066Y820857D01*
X427075Y820995D01*
X429550Y818520D01*
D02*
G37*
G36*
X479265Y805900D02*
X479161Y805991D01*
X479039Y806073D01*
X478899Y806145D01*
X478740Y806207D01*
X478562Y806260D01*
X478366Y806303D01*
X478152Y806337D01*
X477919Y806361D01*
X477397Y806380D01*
Y808920D01*
X477667Y808925D01*
X478152Y808963D01*
X478366Y808997D01*
X478562Y809040D01*
X478740Y809093D01*
X478899Y809155D01*
X479039Y809227D01*
X479161Y809309D01*
X479265Y809400D01*
Y805900D01*
D02*
G37*
G36*
X82934Y788114D02*
X82940Y787968D01*
X82969Y787816D01*
X83020Y787657D01*
X83094Y787493D01*
X83190Y787322D01*
X83309Y787146D01*
X83450Y786963D01*
X83614Y786774D01*
X83801Y786580D01*
X81599Y785190D01*
X81403Y785381D01*
X80871Y785847D01*
X80711Y785966D01*
X80421Y786150D01*
X80289Y786215D01*
X80167Y786261D01*
X80054Y786290D01*
X82950Y788255D01*
X82934Y788114D01*
D02*
G37*
G36*
X791430Y784710D02*
X788890Y784339D01*
X788884Y784611D01*
X788837Y785079D01*
X788795Y785274D01*
X788741Y785443D01*
X788676Y785586D01*
X788598Y785703D01*
X788509Y785795D01*
X788408Y785861D01*
X788295Y785901D01*
X791238Y787602D01*
X791430Y784710D01*
D02*
G37*
G36*
X85481Y644685D02*
X85294Y644491D01*
X84978Y644121D01*
X84850Y643945D01*
X84742Y643776D01*
X84654Y643613D01*
X84585Y643457D01*
X84537Y643307D01*
X84508Y643163D01*
X84500Y643025D01*
X82025Y645500D01*
X82163Y645508D01*
X82306Y645537D01*
X82457Y645585D01*
X82613Y645654D01*
X82776Y645742D01*
X82945Y645850D01*
X83121Y645978D01*
X83303Y646126D01*
X83685Y646481D01*
X85481Y644685D01*
D02*
G37*
G36*
X591642Y569552D02*
X591680Y569067D01*
X591714Y568853D01*
X591757Y568657D01*
X591810Y568479D01*
X591872Y568320D01*
X591944Y568180D01*
X592026Y568058D01*
X592117Y567954D01*
X588617D01*
X588708Y568058D01*
X588790Y568180D01*
X588862Y568320D01*
X588924Y568479D01*
X588977Y568657D01*
X589020Y568853D01*
X589054Y569067D01*
X589078Y569301D01*
X589097Y569823D01*
X591637D01*
X591642Y569552D01*
D02*
G37*
G36*
X584267Y564749D02*
X584305Y564264D01*
X584339Y564049D01*
X584382Y563853D01*
X584435Y563676D01*
X584497Y563517D01*
X584569Y563376D01*
X584651Y563254D01*
X584742Y563151D01*
X581242D01*
X581333Y563254D01*
X581415Y563376D01*
X581487Y563517D01*
X581549Y563676D01*
X581602Y563853D01*
X581645Y564049D01*
X581679Y564264D01*
X581703Y564497D01*
X581722Y565019D01*
X584262D01*
X584267Y564749D01*
D02*
G37*
G36*
X760215Y518320D02*
X760111Y518411D01*
X759989Y518493D01*
X759849Y518565D01*
X759690Y518627D01*
X759512Y518680D01*
X759316Y518723D01*
X759102Y518757D01*
X758869Y518781D01*
X758347Y518800D01*
Y521340D01*
X758617Y521345D01*
X759102Y521383D01*
X759316Y521417D01*
X759512Y521460D01*
X759690Y521513D01*
X759849Y521575D01*
X759989Y521647D01*
X760111Y521729D01*
X760215Y521820D01*
Y518320D01*
D02*
G37*
G36*
X754215Y513250D02*
X754111Y513341D01*
X753989Y513423D01*
X753849Y513495D01*
X753690Y513557D01*
X753512Y513610D01*
X753316Y513653D01*
X753102Y513687D01*
X752869Y513711D01*
X752347Y513730D01*
Y516270D01*
X752617Y516275D01*
X753102Y516313D01*
X753316Y516347D01*
X753512Y516390D01*
X753690Y516443D01*
X753849Y516505D01*
X753989Y516577D01*
X754111Y516659D01*
X754215Y516750D01*
Y513250D01*
D02*
G37*
G36*
X300889Y487409D02*
X301011Y487327D01*
X301151Y487255D01*
X301310Y487193D01*
X301488Y487140D01*
X301684Y487097D01*
X301898Y487063D01*
X302132Y487039D01*
X302653Y487020D01*
Y484480D01*
X302383Y484475D01*
X301898Y484437D01*
X301684Y484403D01*
X301488Y484360D01*
X301310Y484307D01*
X301151Y484245D01*
X301011Y484173D01*
X300889Y484091D01*
X300785Y484000D01*
Y487500D01*
X300889Y487409D01*
D02*
G37*
G36*
X541508Y477407D02*
X541537Y477263D01*
X541585Y477113D01*
X541654Y476957D01*
X541742Y476794D01*
X541850Y476625D01*
X541978Y476449D01*
X542126Y476267D01*
X542481Y475885D01*
X540685Y474089D01*
X540491Y474276D01*
X540121Y474592D01*
X539945Y474720D01*
X539776Y474828D01*
X539613Y474916D01*
X539457Y474985D01*
X539306Y475033D01*
X539163Y475061D01*
X539025Y475070D01*
X541500Y477545D01*
X541508Y477407D01*
D02*
G37*
G36*
X552889Y475889D02*
X553011Y475807D01*
X553151Y475735D01*
X553310Y475673D01*
X553488Y475620D01*
X553684Y475577D01*
X553898Y475543D01*
X554131Y475519D01*
X554653Y475500D01*
Y472960D01*
X554383Y472955D01*
X553898Y472917D01*
X553684Y472883D01*
X553488Y472840D01*
X553310Y472787D01*
X553151Y472725D01*
X553011Y472653D01*
X552889Y472571D01*
X552785Y472480D01*
Y475980D01*
X552889Y475889D01*
D02*
G37*
G36*
X98163Y477547D02*
X97839Y477177D01*
X97550Y476748D01*
X97296Y476262D01*
X97077Y475718D01*
X96893Y475117D01*
X96744Y474458D01*
X96630Y473741D01*
X96552Y472967D01*
X96500Y471245D01*
X90065Y477680D01*
X90955Y477688D01*
X92561Y477810D01*
X93278Y477924D01*
X93937Y478073D01*
X94538Y478256D01*
X95082Y478476D01*
X95568Y478730D01*
X95997Y479019D01*
X96367Y479343D01*
X98163Y477547D01*
D02*
G37*
G36*
X460643Y474146D02*
X459706Y473043D01*
X459325Y472508D01*
X459002Y471984D01*
X458739Y471472D01*
X458534Y470971D01*
X458387Y470481D01*
X458299Y470003D01*
X458270Y469536D01*
X455730D01*
X455701Y470003D01*
X455613Y470481D01*
X455466Y470971D01*
X455261Y471472D01*
X454997Y471984D01*
X454675Y472508D01*
X454294Y473043D01*
X453855Y473589D01*
X452800Y474715D01*
X461200D01*
X460643Y474146D01*
D02*
G37*
G36*
X596758Y472337D02*
X596787Y472193D01*
X596835Y472043D01*
X596904Y471887D01*
X596992Y471724D01*
X597100Y471555D01*
X597228Y471379D01*
X597376Y471197D01*
X597731Y470815D01*
X595935Y469019D01*
X595741Y469206D01*
X595371Y469522D01*
X595195Y469650D01*
X595026Y469758D01*
X594863Y469846D01*
X594707Y469915D01*
X594557Y469963D01*
X594413Y469991D01*
X594275Y470000D01*
X596750Y472475D01*
X596758Y472337D01*
D02*
G37*
G36*
X402046Y471288D02*
X402075Y471144D01*
X402123Y470994D01*
X402191Y470838D01*
X402280Y470675D01*
X402388Y470505D01*
X402516Y470330D01*
X402664Y470148D01*
X403019Y469766D01*
X401223Y467970D01*
X401029Y468157D01*
X400659Y468473D01*
X400483Y468601D01*
X400314Y468709D01*
X400151Y468797D01*
X399995Y468866D01*
X399844Y468914D01*
X399700Y468942D01*
X399563Y468951D01*
X402038Y471426D01*
X402046Y471288D01*
D02*
G37*
G36*
X488641Y468055D02*
X489012Y467751D01*
X489188Y467634D01*
X489358Y467540D01*
X489522Y467468D01*
X489679Y467420D01*
X489831Y467395D01*
X489976Y467393D01*
X490115Y467414D01*
X488256Y464449D01*
X488219Y464559D01*
X488155Y464690D01*
X488063Y464841D01*
X487942Y465013D01*
X487615Y465418D01*
X487174Y465905D01*
X486621Y466474D01*
X488446Y468242D01*
X488641Y468055D01*
D02*
G37*
G36*
X76508Y470225D02*
X76630Y468619D01*
X76744Y467902D01*
X76893Y467243D01*
X77077Y466642D01*
X77296Y466098D01*
X77550Y465612D01*
X77839Y465183D01*
X78163Y464813D01*
X76367Y463017D01*
X75997Y463341D01*
X75568Y463630D01*
X75082Y463884D01*
X74538Y464103D01*
X73937Y464287D01*
X73278Y464436D01*
X72561Y464550D01*
X71787Y464628D01*
X70065Y464680D01*
X76500Y471115D01*
X76508Y470225D01*
D02*
G37*
G36*
X487738Y457806D02*
X487777Y457321D01*
X487810Y457107D01*
X487854Y456911D01*
X487906Y456733D01*
X487969Y456574D01*
X488041Y456434D01*
X488122Y456312D01*
X488214Y456208D01*
X484714D01*
X484805Y456312D01*
X484886Y456434D01*
X484958Y456574D01*
X485021Y456733D01*
X485074Y456911D01*
X485117Y457107D01*
X485150Y457321D01*
X485174Y457554D01*
X485193Y458076D01*
X487733D01*
X487738Y457806D01*
D02*
G37*
G36*
X494399Y455492D02*
X494288Y455404D01*
X494189Y455297D01*
X494101Y455169D01*
X494026Y455020D01*
X493961Y454852D01*
X493909Y454663D01*
X493868Y454454D01*
X493839Y454225D01*
X493821Y453976D01*
X493816Y453706D01*
X491276Y454280D01*
X491273Y454554D01*
X491225Y455260D01*
X491197Y455457D01*
X491122Y455792D01*
X491075Y455931D01*
X491021Y456051D01*
X490961Y456151D01*
X494399Y455492D01*
D02*
G37*
G36*
X95277Y455107D02*
X96499Y454057D01*
X97086Y453631D01*
X97658Y453270D01*
X98213Y452975D01*
X98752Y452745D01*
X99276Y452581D01*
X99783Y452483D01*
X100275Y452450D01*
Y449910D01*
X99783Y449877D01*
X99276Y449779D01*
X98752Y449615D01*
X98213Y449385D01*
X97658Y449090D01*
X97086Y448729D01*
X96499Y448303D01*
X95896Y447811D01*
X94642Y446630D01*
Y455730D01*
X95277Y455107D01*
D02*
G37*
G36*
X760975Y421500D02*
X760837Y421492D01*
X760694Y421463D01*
X760543Y421415D01*
X760387Y421346D01*
X760224Y421258D01*
X760055Y421150D01*
X759879Y421022D01*
X759697Y420874D01*
X759315Y420519D01*
X757519Y422315D01*
X757706Y422509D01*
X758022Y422879D01*
X758150Y423055D01*
X758258Y423224D01*
X758346Y423387D01*
X758415Y423543D01*
X758463Y423694D01*
X758492Y423837D01*
X758500Y423975D01*
X760975Y421500D01*
D02*
G37*
G36*
X596993Y420355D02*
X597532Y419898D01*
X597696Y419783D01*
X597853Y419687D01*
X598002Y419608D01*
X598143Y419549D01*
X598276Y419508D01*
X598402Y419486D01*
X595657Y417314D01*
X595664Y417456D01*
X595649Y417603D01*
X595613Y417756D01*
X595555Y417915D01*
X595476Y418080D01*
X595375Y418251D01*
X595253Y418428D01*
X595109Y418610D01*
X594944Y418799D01*
X594757Y418994D01*
X596798Y420545D01*
X596993Y420355D01*
D02*
G37*
G36*
X583129Y419164D02*
X583500Y418853D01*
X583677Y418729D01*
X583848Y418627D01*
X584012Y418545D01*
X584171Y418485D01*
X584324Y418446D01*
X584471Y418428D01*
X584612Y418431D01*
X582362Y415749D01*
X582343Y415879D01*
X582305Y416016D01*
X582248Y416160D01*
X582172Y416311D01*
X582078Y416470D01*
X581964Y416636D01*
X581832Y416809D01*
X581511Y417177D01*
X581321Y417371D01*
X582934Y419351D01*
X583129Y419164D01*
D02*
G37*
G36*
X601556Y410079D02*
X601452Y410170D01*
X601331Y410252D01*
X601190Y410324D01*
X601031Y410387D01*
X600854Y410440D01*
X600658Y410483D01*
X600443Y410517D01*
X600210Y410541D01*
X599688Y410560D01*
X599692Y413100D01*
X599962Y413105D01*
X600447Y413143D01*
X600662Y413176D01*
X600858Y413220D01*
X601035Y413272D01*
X601194Y413335D01*
X601335Y413406D01*
X601457Y413488D01*
X601560Y413579D01*
X601556Y410079D01*
D02*
G37*
G36*
X582463Y408516D02*
X582533Y408413D01*
X582627Y408322D01*
X582748Y408244D01*
X582893Y408178D01*
X583064Y408123D01*
X583260Y408081D01*
X583481Y408051D01*
X583728Y408033D01*
X584000Y408027D01*
X583669Y405487D01*
X580784Y405626D01*
X582419Y408630D01*
X582463Y408516D01*
D02*
G37*
G36*
X585889Y402659D02*
X586011Y402577D01*
X586151Y402505D01*
X586310Y402443D01*
X586488Y402390D01*
X586684Y402347D01*
X586898Y402313D01*
X587131Y402289D01*
X587653Y402270D01*
Y399730D01*
X587383Y399725D01*
X586898Y399687D01*
X586684Y399653D01*
X586488Y399610D01*
X586310Y399557D01*
X586151Y399495D01*
X586011Y399423D01*
X585889Y399341D01*
X585785Y399250D01*
Y402750D01*
X585889Y402659D01*
D02*
G37*
G36*
X684526Y392108D02*
X684338Y391914D01*
X684023Y391544D01*
X683895Y391368D01*
X683786Y391199D01*
X683698Y391036D01*
X683630Y390880D01*
X683581Y390730D01*
X683553Y390586D01*
X683544Y390448D01*
X681069Y392923D01*
X681207Y392932D01*
X681351Y392960D01*
X681501Y393009D01*
X681658Y393077D01*
X681821Y393165D01*
X681990Y393273D01*
X682165Y393401D01*
X682347Y393549D01*
X682730Y393905D01*
X684526Y392108D01*
D02*
G37*
G36*
X679259Y388673D02*
X679156Y388764D01*
X679034Y388846D01*
X678894Y388918D01*
X678735Y388980D01*
X678557Y389033D01*
X678361Y389076D01*
X678146Y389110D01*
X677913Y389134D01*
X677391Y389153D01*
Y391693D01*
X677661Y391698D01*
X678146Y391736D01*
X678361Y391770D01*
X678557Y391813D01*
X678735Y391866D01*
X678894Y391928D01*
X679034Y392000D01*
X679156Y392082D01*
X679259Y392173D01*
Y388673D01*
D02*
G37*
G36*
X553609Y361307D02*
X553521Y361418D01*
X553413Y361517D01*
X553285Y361605D01*
X553137Y361681D01*
X552968Y361745D01*
X552780Y361797D01*
X552571Y361838D01*
X552342Y361867D01*
X552092Y361885D01*
X551823Y361891D01*
X552397Y364431D01*
X552671Y364434D01*
X553377Y364481D01*
X553573Y364509D01*
X553909Y364585D01*
X554048Y364632D01*
X554167Y364685D01*
X554268Y364745D01*
X553609Y361307D01*
D02*
G37*
G36*
X582370Y360658D02*
X582227Y360650D01*
X582078Y360621D01*
X581924Y360573D01*
X581764Y360505D01*
X581599Y360418D01*
X581428Y360310D01*
X581251Y360183D01*
X581069Y360036D01*
X580687Y359683D01*
X578919Y361450D01*
X579106Y361644D01*
X579420Y362015D01*
X579547Y362191D01*
X579654Y362362D01*
X579742Y362528D01*
X579810Y362688D01*
X579858Y362842D01*
X579886Y362990D01*
X579895Y363133D01*
X582370Y360658D01*
D02*
G37*
G36*
X570965Y351500D02*
X570861Y351591D01*
X570739Y351673D01*
X570599Y351745D01*
X570440Y351807D01*
X570262Y351860D01*
X570066Y351903D01*
X569852Y351937D01*
X569619Y351961D01*
X569097Y351980D01*
Y354520D01*
X569367Y354525D01*
X569852Y354563D01*
X570066Y354597D01*
X570262Y354640D01*
X570440Y354693D01*
X570599Y354755D01*
X570739Y354827D01*
X570861Y354909D01*
X570965Y355000D01*
Y351500D01*
D02*
G37*
G36*
X376142Y272405D02*
X376267Y272320D01*
X376410Y272245D01*
X376571Y272180D01*
X376750Y272125D01*
X376947Y272080D01*
X377162Y272045D01*
X377395Y272020D01*
X377915Y272000D01*
Y269500D01*
X377646Y269495D01*
X377162Y269455D01*
X376947Y269420D01*
X376750Y269375D01*
X376571Y269320D01*
X376410Y269255D01*
X376267Y269180D01*
X376142Y269095D01*
X376035Y269000D01*
Y272500D01*
X376142Y272405D01*
D02*
G37*
G36*
X344390Y171662D02*
X344512Y171580D01*
X344653Y171508D01*
X344812Y171446D01*
X344989Y171393D01*
X345185Y171349D01*
X345400Y171316D01*
X345633Y171292D01*
X346155Y171273D01*
X346152Y168732D01*
X345882Y168728D01*
X345397Y168689D01*
X345182Y168656D01*
X344986Y168613D01*
X344809Y168560D01*
X344650Y168498D01*
X344509Y168426D01*
X344387Y168344D01*
X344284Y168253D01*
X344287Y171753D01*
X344390Y171662D01*
D02*
G37*
G36*
X370213Y168252D02*
X370109Y168343D01*
X369988Y168425D01*
X369847Y168497D01*
X369688Y168559D01*
X369511Y168612D01*
X369315Y168656D01*
X369100Y168689D01*
X368867Y168713D01*
X368345Y168732D01*
X368348Y171273D01*
X368618Y171277D01*
X369103Y171316D01*
X369318Y171349D01*
X369514Y171392D01*
X369692Y171445D01*
X369851Y171507D01*
X369991Y171579D01*
X370113Y171661D01*
X370216Y171752D01*
X370213Y168252D01*
D02*
G37*
D11*
X549186Y312666D02*
X579087Y342568D01*
X380750Y270750D02*
X422666Y312666D01*
X549186D01*
X579087Y342568D02*
Y359851D01*
X582395Y363158D01*
X374250Y270750D02*
X380750D01*
D12*
X90000Y451180D02*
X136813D01*
X161953Y476320D01*
X248181D01*
X80238Y460942D02*
X103138D01*
X122356Y480160D01*
X70000Y471180D02*
X80238Y460942D01*
X122356Y480160D02*
X246591D01*
X267842Y495981D02*
X467019D01*
X248181Y476320D02*
X267842Y495981D01*
X457000Y466686D02*
X469292Y454395D01*
Y443112D02*
X521981Y390423D01*
X469292Y443112D02*
Y454395D01*
X457000Y466686D02*
Y479000D01*
X476840Y454503D02*
X481990Y449353D01*
X476840Y454503D02*
Y454591D01*
X481990Y449353D02*
X488563D01*
X474000Y457431D02*
Y489000D01*
Y457431D02*
X476840Y454591D01*
X467019Y495981D02*
X474000Y489000D01*
X492546Y457104D02*
X493016Y457575D01*
X492546Y453335D02*
Y457104D01*
X488563Y449353D02*
X492546Y453335D01*
X486464Y454423D02*
Y462048D01*
X478108Y470404D02*
X486464Y462048D01*
X478108Y470404D02*
Y490462D01*
X468749Y499821D02*
X478108Y490462D01*
X266251Y499821D02*
X468749D01*
X246591Y480160D02*
X266251Y499821D01*
X488678Y466213D02*
X488802D01*
X481948Y472944D02*
Y492052D01*
X490032Y464983D02*
X490698D01*
X488802Y466213D02*
X490032Y464983D01*
X481948Y472944D02*
X488678Y466213D01*
X470000Y504000D02*
X481948Y492052D01*
X265000Y504000D02*
X470000D01*
X90000Y471180D02*
X102820Y484000D01*
X245000D01*
X265000Y504000D01*
X377328Y485750D02*
X438660Y424418D01*
X299000Y485750D02*
X377328D01*
X438660Y373410D02*
Y424418D01*
X521981Y390423D02*
X681044D01*
X411280Y548470D02*
Y737720D01*
X283000Y866000D02*
X411280Y737720D01*
X283000Y866000D02*
Y871255D01*
X597000Y685000D02*
Y816000D01*
X619639Y838639D01*
Y895592D01*
X582992Y670992D02*
X597000Y685000D01*
X582992Y561366D02*
Y670992D01*
X619639Y895592D02*
X620084Y896038D01*
X590367Y662367D02*
X692000Y764000D01*
Y896000D01*
X590367Y566169D02*
Y662367D01*
X550258Y363161D02*
X555221D01*
X555691Y362690D01*
X548722Y364697D02*
X550258Y363161D01*
X546617Y364697D02*
X548722D01*
X542740Y360820D02*
X546617Y364697D01*
X456680Y360820D02*
X542740D01*
X800000Y809512D02*
Y810070D01*
X797840Y582410D02*
Y807352D01*
X800000Y809512D01*
X794000Y584000D02*
Y854337D01*
X802284Y862622D01*
X760000Y550000D02*
X794000Y584000D01*
X774000Y558569D02*
X797840Y582410D01*
X411280Y548470D02*
X445618Y514132D01*
X415120Y550060D02*
Y806566D01*
X429575Y821020D01*
X418960Y551651D02*
Y770710D01*
X455900Y807650D01*
X418960Y551651D02*
X448799Y521812D01*
X415120Y550060D02*
X447209Y517972D01*
X82000Y643000D02*
X85201Y646201D01*
X80500Y788084D02*
X85201Y783383D01*
Y646201D02*
Y783383D01*
X80500Y788084D02*
Y788750D01*
X442500Y375000D02*
Y428489D01*
X399538Y471451D02*
X442500Y428489D01*
X455089Y356980D02*
X553020D01*
X438660Y373410D02*
X455089Y356980D01*
X442500Y375000D02*
X456680Y360820D01*
X448799Y521812D02*
X490299D01*
X520930Y491181D01*
X447209Y517972D02*
X488709D01*
X517090Y489591D01*
X487118Y514132D02*
X513250Y488000D01*
X445618Y514132D02*
X487118D01*
X556750Y353250D02*
X572750D01*
X553020Y356980D02*
X556750Y353250D01*
X529160Y489591D02*
X593409Y553840D01*
X529160Y470479D02*
X548069Y451570D01*
X529160Y470479D02*
Y489591D01*
X533000Y472069D02*
X547069Y458000D01*
X533000Y472069D02*
Y488000D01*
X595000Y550000D01*
X547410Y469160D02*
X581341D01*
X539000Y477570D02*
X547410Y469160D01*
X593409Y553840D02*
X758409D01*
X595000Y550000D02*
X760000D01*
X599000Y458000D02*
X621341Y435659D01*
X613569Y401000D02*
X621341Y408772D01*
Y435659D01*
X547069Y458000D02*
X599000D01*
X584000Y401000D02*
X613569D01*
X774000Y426510D02*
Y558569D01*
X758420Y410930D02*
X774000Y426510D01*
X741585Y410930D02*
X758420D01*
X650750Y416000D02*
X753000D01*
X761000Y424000D01*
X741515Y411000D02*
X741585Y410930D01*
X701621Y411000D02*
X741515D01*
X681044Y390423D02*
X701621Y411000D01*
X627181Y515000D02*
X756000D01*
X581341Y469160D02*
X627181Y515000D01*
X580980Y474230D02*
X626820Y520070D01*
X762000D01*
X594250Y472500D02*
X650750Y416000D01*
X572467Y435500D02*
X596138Y411830D01*
X549340Y435500D02*
X572467D01*
X555500Y423000D02*
X577489D01*
X584547Y415942D01*
X513250Y465250D02*
X555500Y423000D01*
X596138Y411830D02*
X603340D01*
X603343Y411827D01*
X576207Y439340D02*
X598137Y417410D01*
Y417000D02*
Y417410D01*
X608668Y406757D02*
X611853Y409942D01*
Y414530D01*
X581909Y406757D02*
X608668D01*
X608453Y417930D02*
X611853Y414530D01*
X580185Y408000D02*
X580666D01*
X581909Y406757D01*
X605430Y420900D02*
X608400Y417930D01*
X574813Y451570D02*
X605430Y420953D01*
X548069Y451570D02*
X574813D01*
X608400Y417930D02*
X608453D01*
X605430Y420900D02*
Y420953D01*
X758409Y553840D02*
X790160Y585591D01*
X788849Y787673D02*
X790160Y786362D01*
Y585591D02*
Y786362D01*
X788849Y787673D02*
Y788338D01*
X551000Y474230D02*
X580980D01*
X550931Y439340D02*
X576207D01*
X584547Y415942D02*
X584855D01*
X520930Y469341D02*
X550931Y439340D01*
X517090Y467750D02*
X549340Y435500D01*
X520930Y469341D02*
Y491181D01*
X455900Y807650D02*
X481050D01*
X513250Y465250D02*
Y488000D01*
X517090Y467750D02*
Y489591D01*
X342500Y170005D02*
X342503Y170002D01*
X371997D02*
X372000Y170000D01*
X342503Y170002D02*
X371997D01*
D126*
X227750Y693250D02*
D03*
X452750D02*
D03*
X677750Y272750D02*
D03*
X452750D02*
D03*
X227750D02*
D03*
X677750Y693250D02*
D03*
D128*
X457000Y479000D02*
D03*
D129*
X90000Y471180D02*
D03*
X70000D02*
D03*
X90000Y451180D02*
D03*
D132*
X244014Y676490D02*
D03*
Y709010D02*
D03*
X211486D02*
D03*
Y676490D02*
D03*
X204750Y692750D02*
D03*
X227750Y715750D02*
D03*
X250750Y692750D02*
D03*
X227750Y669750D02*
D03*
X244014Y255990D02*
D03*
Y288510D02*
D03*
X211486D02*
D03*
Y255990D02*
D03*
X204750Y272250D02*
D03*
X227750Y295250D02*
D03*
X250750Y272250D02*
D03*
X227750Y249250D02*
D03*
X469013Y255990D02*
D03*
Y288510D02*
D03*
X436487D02*
D03*
Y255990D02*
D03*
X429750Y272250D02*
D03*
X452750Y295250D02*
D03*
X475750Y272250D02*
D03*
X452750Y249250D02*
D03*
X694014Y255990D02*
D03*
Y288510D02*
D03*
X661487D02*
D03*
Y255990D02*
D03*
X654750Y272250D02*
D03*
X677750Y295250D02*
D03*
X700750Y272250D02*
D03*
X677750Y249250D02*
D03*
X694014Y676490D02*
D03*
Y709010D02*
D03*
X661487D02*
D03*
Y676490D02*
D03*
X654750Y692750D02*
D03*
X677750Y715750D02*
D03*
X700750Y692750D02*
D03*
X677750Y669750D02*
D03*
X469013Y676490D02*
D03*
Y709010D02*
D03*
X436487D02*
D03*
Y676490D02*
D03*
X429750Y692750D02*
D03*
X452750Y715750D02*
D03*
X475750Y692750D02*
D03*
X452750Y669750D02*
D03*
D133*
X486464Y454423D02*
D03*
X490698Y464983D02*
D03*
X493016Y457575D02*
D03*
X620084Y896038D02*
D03*
X692000Y896000D02*
D03*
X590367Y566169D02*
D03*
X582992Y561366D02*
D03*
X555691Y362690D02*
D03*
X800000Y810070D02*
D03*
X802284Y862622D02*
D03*
X82000Y643000D02*
D03*
X80500Y788750D02*
D03*
X399538Y471451D02*
D03*
X539000Y477570D02*
D03*
X761000Y424000D02*
D03*
X762000Y520070D02*
D03*
X756000Y515000D02*
D03*
X603343Y411827D02*
D03*
X598137Y417000D02*
D03*
X788849Y788338D02*
D03*
X551000Y474230D02*
D03*
X584855Y415942D02*
D03*
X580000Y408000D02*
D03*
X584000Y401000D02*
D03*
X594250Y472500D02*
D03*
X582395Y363158D02*
D03*
X374250Y270750D02*
D03*
X572750Y353250D02*
D03*
X283000Y871255D02*
D03*
X299000Y485750D02*
D03*
X429575Y821020D02*
D03*
X481050Y807650D02*
D03*
X372000Y170000D02*
D03*
X342500Y170005D02*
D03*
X681044Y390423D02*
D03*
M02*
