G04*
G04 #@! TF.GenerationSoftware,Altium Limited,Altium Designer,26.2.0 (7)*
G04*
G04 Layer_Color=32768*
%FSLAX44Y44*%
%MOMM*%
G71*
G04*
G04 #@! TF.SameCoordinates,2986681F-040A-4F0E-8C1E-8186D9A52596*
G04*
G04*
G04 #@! TF.FilePolarity,Positive*
G04*
G01*
G75*
%ADD14C,0.1000*%
%ADD15C,0.1270*%
%ADD16C,0.1524*%
D14*
X395850Y928000D02*
X410850D01*
X490850D02*
X505850D01*
X490850Y900000D02*
X505850D01*
X395850D02*
X410850D01*
X505850D02*
Y928000D01*
X490850D02*
Y932000D01*
X410850Y928000D02*
Y932000D01*
X490850Y890000D02*
Y900000D01*
X395850D02*
Y928000D01*
X410850Y890000D02*
Y900000D01*
Y890000D02*
X490850D01*
X410850Y932000D02*
X490850D01*
X410850Y931750D02*
Y932000D01*
X53500Y353175D02*
Y569175D01*
Y353175D02*
X106500D01*
Y569175D01*
X53500D02*
X106500D01*
X349750Y452250D02*
Y490500D01*
X309750D02*
X349750D01*
X309750Y450500D02*
Y490500D01*
Y450500D02*
X349750D01*
Y452250D01*
X387600Y27000D02*
X514100D01*
X387600D02*
Y79000D01*
X514100D01*
Y27000D02*
Y79000D01*
D15*
X764215Y618225D02*
Y631225D01*
X773215D01*
X764215Y618225D02*
X773215D01*
Y631225D01*
X788498Y759000D02*
X804498D01*
X788498D02*
Y791000D01*
X804498D01*
Y759000D02*
Y791000D01*
X423500Y374500D02*
X436500D01*
Y365500D02*
Y374500D01*
X423500Y365500D02*
Y374500D01*
Y365500D02*
X436500D01*
X135000Y433000D02*
X205000D01*
X135000D02*
Y508000D01*
X205000Y433000D02*
Y508000D01*
X135000D02*
X205000D01*
D16*
X671648Y405376D02*
X716352D01*
Y479290D02*
Y482338D01*
Y472686D02*
Y475734D01*
Y466336D02*
Y469384D01*
Y459732D02*
Y462780D01*
Y453128D02*
Y456176D01*
Y446778D02*
Y449826D01*
Y440174D02*
Y443222D01*
Y433824D02*
Y436872D01*
Y427220D02*
Y430268D01*
Y420616D02*
Y423664D01*
Y414266D02*
Y417314D01*
Y407662D02*
Y410710D01*
X671648Y407662D02*
Y410710D01*
Y414266D02*
Y417314D01*
Y420616D02*
Y423664D01*
Y427220D02*
Y430268D01*
Y433824D02*
Y436872D01*
Y440174D02*
Y443222D01*
Y446778D02*
Y449826D01*
Y453128D02*
Y456176D01*
Y459732D02*
Y462780D01*
Y466336D02*
Y469384D01*
Y472686D02*
Y475734D01*
Y479290D02*
Y482338D01*
X690952Y484624D02*
X697048D01*
X716352Y405376D02*
Y484624D01*
X697048D02*
X716352D01*
X671648Y405376D02*
Y484624D01*
X690952D01*
M02*
